<?xml version="1.0" encoding="UTF-8"?>
<svg xmlns="http://www.w3.org/2000/svg" xmlns:xlink="http://www.w3.org/1999/xlink" width="217.013156pt" height="280.832816pt" viewBox="0 0 217.013156 280.832816" version="1.1">
<g id="surface6421">
<path style="fill-rule:evenodd;fill:rgb(100%,100%,100%);fill-opacity:1;stroke-width:1;stroke-linecap:butt;stroke-linejoin:bevel;stroke:rgb(50.048876%,50.048876%,50.048876%);stroke-opacity:1;stroke-miterlimit:10;" d="M -2.198893 -50.862955 L -2.202799 -50.862955 L -2.210611 -50.870768 L -2.234049 -50.882486 L -2.265299 -50.894205 L -2.308268 -50.90983 L -2.359049 -50.925455 L -2.421549 -50.929361 L -2.495768 -50.929361 L -2.577799 -50.90983 L -2.671549 -50.87858 L -2.773111 -50.827799 L -2.87858 -50.75358 L -2.995768 -50.655924 L -3.112955 -50.538736 L -3.237955 -50.398111 L -3.362955 -50.234049 L -3.487955 -50.054361 L -3.612955 -49.855143 L -3.737955 -49.644205 L -3.855143 -49.417643 L -3.97233 -49.183268 L -4.081705 -48.94108 L -4.187174 -48.698893 L -4.280924 -48.448893 L -4.370768 -48.202799 L -4.448893 -47.952799 L -4.519205 -47.702799 L -4.577799 -47.452799 L -4.62858 -47.198893 L -4.667643 -46.944986 L -4.698893 -46.687174 L -4.718424 -46.421549 L -4.734049 -46.148111 L -4.737955 -45.862955 L -4.737955 -45.56608 L -4.734049 -45.25358 L -4.72233 -44.925455 L -4.710611 -44.573893 L -4.698893 -44.202799 L -4.683268 -43.808268 L -4.671549 -43.386393 L -4.663736 -42.937174 L -4.652018 -42.460611 L -4.648111 -41.956705 L -4.644205 -41.417643 L -4.640299 -40.851236 L -4.640299 -39.612955 L -4.644205 -38.944986 L -4.644205 -35.917643 L -4.640299 -35.069986 L -4.640299 -34.19108 L -4.636393 -33.273111 L -4.632486 -32.323893 L -4.62858 -31.339518 L -4.624674 -30.319986 L -4.624674 -28.179361 L -4.632486 -27.062174 L -4.636393 -25.913736 L -4.648111 -24.734049 L -4.663736 -23.527018 L -4.683268 -22.288736 L -4.702799 -21.027018 L -4.730143 -19.737955 L -4.757486 -18.425455 L -4.788736 -17.089518 L -4.823893 -15.734049 L -4.855143 -14.359049 L -4.890299 -12.964518 L -4.925455 -11.554361 L -4.956705 -10.132486 L -4.984049 -8.694986 L -5.011393 -7.249674 L -5.03483 -5.796549 L -5.054361 -4.335611 L -5.085611 -1.398111 L -5.093424 0.0706387 L -5.101236 1.535482 L -5.105143 3.000326 L -5.109049 4.461264 L -5.112955 5.914389 L -5.120768 7.355795 L -5.124674 8.785482 L -5.132486 10.207357 L -5.140299 11.609701 L -5.152018 13.000326 L -5.167643 14.367514 L -5.179361 15.719076 L -5.194986 17.051107 L -5.210611 18.355795 L -5.22233 19.640951 L -5.234049 20.898764 L -5.245768 22.129232 L -5.25358 23.332357 L -5.257486 24.508139 L -5.257486 26.765951 L -5.249674 27.851889 L -5.241861 28.90267 L -5.230143 29.922201 L -5.218424 30.910482 L -5.202799 31.863607 L -5.187174 32.781576 L -5.171549 33.668295 L -5.155924 34.519857 L -5.144205 35.34017 L -5.132486 36.12142 L -5.124674 36.875326 L -5.120768 37.59017 L -5.120768 38.27767 L -5.124674 38.926107 L -5.12858 39.547201 L -5.140299 40.133139 L -5.152018 40.691732 L -5.163736 41.219076 L -5.179361 41.71517 L -5.194986 42.180014 L -5.206705 42.62142 L -5.22233 43.031576 L -5.230143 43.418295 L -5.237955 43.77767 L -5.241861 44.113607 L -5.241861 44.71517 L -5.234049 44.980795 L -5.226236 45.226889 L -5.218424 45.457357 L -5.206705 45.664389 L -5.194986 45.855795 L -5.183268 46.02767 L -5.171549 46.187826 L -5.155924 46.328451 L -5.144205 46.461264 L -5.132486 46.574545 L -5.120768 46.680014 L -5.105143 46.773764 L -5.089518 46.859701 L -5.073893 46.93392 L -5.054361 46.99642 L -5.030924 47.055014 L -5.00358 47.105795 L -4.976236 47.148764 L -4.944986 47.187826 L -4.874674 47.250326 L -4.839518 47.273764 L -4.804361 47.293295 L -4.773111 47.30892 L -4.745768 47.320639 L -4.72233 47.332357 L -4.702799 47.34017 L -4.687174 47.344076 L -4.679361 47.344076 L -4.667643 47.351889 L -4.554361 47.398764 L -4.312174 47.539389 L -3.921549 47.824545 L -3.374674 48.24642 L -2.694986 48.730795 L -1.917643 49.176107 L -1.089518 49.484701 L -0.261393 49.648764 L 0.512045 49.722982 L 1.172201 49.797201 L 1.680014 49.910482 L 2.015951 50.047201 L 2.180014 50.144857 L 2.199545 50.156576 L 2.203451 50.160482 L 2.211264 50.164389 L 2.234701 50.180014 L 2.265951 50.195639 L 2.30892 50.21517 L 2.359701 50.234701 L 2.426107 50.250326 L 2.500326 50.258139 L 2.586264 50.254232 L 2.680014 50.234701 L 2.785482 50.203451 L 2.898764 50.148764 L 3.019857 50.078451 L 3.148764 49.988607 L 3.281576 49.875326 L 3.418295 49.74642 L 3.555014 49.597982 L 3.691732 49.43392 L 3.824545 49.254232 L 3.953451 49.066732 L 4.078451 48.867514 L 4.191732 48.660482 L 4.301107 48.445639 L 4.40267 48.230795 L 4.492514 48.008139 L 4.574545 47.785482 L 4.648764 47.562826 L 4.71517 47.332357 L 4.77767 47.101889 L 4.828451 46.863607 L 4.879232 46.617514 L 4.922201 46.367514 L 4.96517 46.101889 L 5.000326 45.828451 L 5.035482 45.539389 L 5.062826 45.230795 L 5.09017 44.906576 L 5.109701 44.562826 L 5.125326 44.191732 L 5.137045 43.801107 L 5.144857 43.379232 L 5.144857 42.93392 L 5.140951 42.461264 L 5.137045 41.953451 L 5.125326 41.418295 L 5.109701 40.847982 L 5.094076 40.24642 L 5.074545 39.613607 L 5.055014 38.941732 L 5.035482 38.238607 L 5.019857 37.500326 L 5.000326 36.726889 L 4.980795 35.918295 L 4.96517 35.070639 L 4.949545 34.191732 L 4.93392 33.273764 L 4.918295 32.324545 L 4.898764 31.34017 L 4.883139 30.320639 L 4.863607 29.265951 L 4.84017 28.180014 L 4.816732 27.062826 L 4.793295 25.914389 L 4.765951 24.734701 L 4.734701 23.52767 L 4.707357 22.289389 L 4.676107 21.02767 L 4.648764 19.738607 L 4.62142 18.426107 L 4.594076 17.09017 L 4.574545 15.734701 L 4.55892 14.359701 L 4.547201 12.96517 L 4.543295 11.555014 L 4.543295 10.133139 L 4.551107 8.695639 L 4.566732 7.250326 L 4.59017 5.797201 L 4.617514 4.336264 L 4.65267 2.867514 L 4.691732 1.398764 L 4.734701 -0.0699863 L 4.781576 -1.53483 L 4.832357 -2.999674 L 4.879232 -4.460611 L 4.930014 -5.913736 L 4.976889 -7.355143 L 5.019857 -8.78483 L 5.055014 -10.206705 L 5.086264 -11.609049 L 5.109701 -12.999674 L 5.12142 -14.366861 L 5.125326 -15.718424 L 5.12142 -17.050455 L 5.109701 -18.355143 L 5.09017 -19.640299 L 5.062826 -20.898111 L 5.02767 -22.12858 L 4.992514 -23.331705 L 4.953451 -24.507486 L 4.914389 -25.652018 L 4.879232 -26.765299 L 4.847982 -27.851236 L 4.820639 -28.902018 L 4.801107 -29.921549 L 4.785482 -30.90983 L 4.77767 -31.862955 L 4.773764 -32.780924 L 4.77767 -33.667643 L 4.789389 -34.519205 L 4.801107 -35.339518 L 4.820639 -36.120768 L 4.84017 -36.874674 L 4.859701 -37.589518 L 4.883139 -38.277018 L 4.906576 -38.925455 L 4.930014 -39.546549 L 4.949545 -40.132486 L 4.972982 -40.69108 L 4.992514 -41.218424 L 5.015951 -41.714518 L 5.035482 -42.179361 L 5.055014 -42.620768 L 5.074545 -43.030924 L 5.094076 -43.417643 L 5.117514 -43.777018 L 5.140951 -44.112955 L 5.164389 -44.425455 L 5.191732 -44.714518 L 5.222982 -44.980143 L 5.250326 -45.226236 L 5.285482 -45.456705 L 5.320639 -45.663736 L 5.351889 -45.855143 L 5.387045 -46.027018 L 5.418295 -46.187174 L 5.445639 -46.327799 L 5.469076 -46.460611 L 5.488607 -46.573893 L 5.500326 -46.679361 L 5.500326 -46.773111 L 5.49642 -46.859049 L 5.480795 -46.933268 L 5.457357 -46.995768 L 5.422201 -47.054361 L 5.379232 -47.105143 L 5.332357 -47.148111 L 5.27767 -47.187174 L 5.21517 -47.218424 L 5.156576 -47.249674 L 5.094076 -47.273111 L 5.031576 -47.292643 L 4.976889 -47.308268 L 4.926107 -47.319986 L 4.883139 -47.331705 L 4.847982 -47.339518 L 4.824545 -47.343424 L 4.812826 -47.343424 L 4.785482 -47.351236 L 4.543295 -47.390299 L 4.004232 -47.464518 L 3.211264 -47.581705 L 2.363607 -47.780924 L 1.691732 -48.12858 L 1.250326 -48.62858 L 0.875326 -49.210611 L 0.383139 -49.741861 L -0.269205 -50.136393 L -0.97233 -50.394205 L -1.569986 -50.585611 L -1.976236 -50.745768 L -2.175455 -50.84733 L -2.198893 -50.862955 " transform="matrix(1,0,0,1,95.40983,112.40983)"/>
<path style="fill-rule:evenodd;fill:rgb(100%,100%,100%);fill-opacity:1;stroke-width:1;stroke-linecap:butt;stroke-linejoin:bevel;stroke:rgb(50.048876%,50.048876%,50.048876%);stroke-opacity:1;stroke-miterlimit:10;" d="M -11.777018 -24.067059 L -11.796549 -24.063152 L -11.960611 -24.047527 L -12.273111 -24.004559 L -12.694986 -23.934246 L -13.179361 -23.824871 L -13.671549 -23.664715 L -14.120768 -23.434246 L -14.491861 -23.11784 L -14.757486 -22.688152 L -14.917643 -22.125652 L -14.980143 -21.395184 L -14.976236 -20.477215 L -14.929361 -19.33659 L -14.866861 -17.953777 L -14.800455 -16.317059 L -14.745768 -14.422527 L -14.710611 -12.281902 L -14.698893 -9.918621 L -14.718424 -7.371746 L -14.773111 -4.692059 L -14.862955 -1.93034 L -14.984049 0.847004 L -15.124674 3.585285 L -15.261393 6.22591 L -15.382486 8.718098 L -15.464518 11.022785 L -15.507486 13.104816 L -15.50358 14.948566 L -15.468424 16.546223 L -15.417643 17.897785 L -15.362955 19.018879 L -15.31608 19.921223 L -15.288736 20.628254 L -15.277018 21.167316 L -15.280924 21.565754 L -15.292643 21.839191 L -15.304361 22.011066 L -15.312174 22.097004 L -15.312174 22.104816 L -15.31608 22.136066 L -15.339518 22.35091 L -15.394205 22.733723 L -15.429361 23.19466 L -15.323893 23.651691 L -14.874674 24.054035 L -13.870768 24.362629 L -12.187174 24.565754 L -9.808268 24.679035 L -6.843424 24.729816 L -3.487955 24.776691 L -0.00748631 24.870441 L 3.312826 25.03841 L 6.211264 25.284504 L 8.523764 25.56966 L 10.18392 25.843098 L 11.222982 26.057941 L 11.71517 26.175129 L 11.77767 26.190754 L 11.797201 26.19466 L 11.961264 26.233723 L 12.269857 26.28841 L 12.687826 26.315754 L 13.168295 26.264973 L 13.656576 26.10091 L 14.12142 25.776691 L 14.52767 25.280598 L 14.855795 24.597004 L 15.109701 23.729816 L 15.293295 22.682941 L 15.422201 21.456379 L 15.515951 20.042316 L 15.586264 18.436848 L 15.640951 16.628254 L 15.680014 14.612629 L 15.711264 12.389973 L 15.726889 9.97591 L 15.730795 7.401691 L 15.730795 4.706379 L 15.722982 1.936848 L 15.711264 -0.844402 L 15.695639 -3.58659 L 15.676107 -6.227215 L 15.644857 -8.719402 L 15.609701 -11.02409 L 15.566732 -13.106121 L 15.523764 -14.949871 L 15.484701 -16.547527 L 15.449545 -17.89909 L 15.418295 -19.020184 L 15.387045 -19.922527 L 15.347982 -20.629559 L 15.297201 -21.168621 L 15.234701 -21.567059 L 15.172201 -21.840496 L 15.12142 -22.012371 L 15.09017 -22.098309 L 15.086264 -22.106121 L 15.078451 -22.133465 L 14.99642 -22.320965 L 14.797201 -22.664715 L 14.430014 -23.090496 L 13.801107 -23.52409 L 12.824545 -23.891277 L 11.410482 -24.152996 L 9.500326 -24.317059 L 7.101889 -24.406902 L 4.297201 -24.46159 L 1.250326 -24.49284 L -1.808268 -24.496746 L -4.655924 -24.465496 L -7.101236 -24.391277 L -9.03483 -24.293621 L -10.425455 -24.192059 L -11.304361 -24.113934 L -11.72233 -24.070965 L -11.777018 -24.067059 " transform="matrix(1,0,0,1,105.40983,251.68034)"/>
<path style="fill-rule:evenodd;fill:rgb(100%,100%,100%);fill-opacity:1;stroke-width:1;stroke-linecap:butt;stroke-linejoin:bevel;stroke:rgb(50.048876%,50.048876%,50.048876%);stroke-opacity:1;stroke-miterlimit:10;" d="M -7.019857 -25.076009 L -7.02767 -25.076009 L -7.094076 -25.087728 L -7.222982 -25.115071 L -7.410482 -25.154134 L -7.644857 -25.208821 L -7.910482 -25.271321 L -8.199545 -25.333821 L -8.488607 -25.384603 L -8.765951 -25.400228 L -9.008139 -25.361165 L -9.21517 -25.25179 L -9.37142 -25.052571 L -9.476889 -24.759603 L -9.539389 -24.365071 L -9.566732 -23.87679 L -9.570639 -23.294759 L -9.566732 -22.622884 L -9.562826 -21.868978 L -9.570639 -21.029134 L -9.594076 -20.107259 L -9.637045 -19.087728 L -9.687826 -17.974446 L -9.74642 -16.755696 L -9.805014 -15.427571 L -9.859701 -13.990071 L -9.910482 -12.443196 L -9.949545 -10.798665 L -9.980795 -9.056478 L -10.000326 -7.240071 L -10.012045 -5.361165 L -10.015951 -3.43929 L -10.004232 -1.490071 L -9.980795 0.459147 L -9.941732 2.388835 L -9.883139 4.283366 L -9.80892 6.12321 L -9.726889 7.892741 L -9.640951 9.572429 L -9.555014 11.15446 L -9.480795 12.627116 L -9.422201 13.986491 L -9.383139 15.224772 L -9.367514 16.34196 L -9.379232 17.338054 L -9.418295 18.21696 L -9.476889 18.982585 L -9.555014 19.642741 L -9.648764 20.201335 L -9.750326 20.673991 L -9.855795 21.06071 L -9.953451 21.381022 L -10.043295 21.634929 L -10.12142 21.834147 L -10.180014 21.986491 L -10.222982 22.099772 L -10.254232 22.177897 L -10.269857 22.228679 L -10.27767 22.256022 L -10.281576 22.256022 L -10.285482 22.271647 L -10.312826 22.369304 L -10.332357 22.545085 L -10.285482 22.77946 L -10.070639 23.080241 L -9.59017 23.447429 L -8.765951 23.861491 L -7.562826 24.267741 L -6.000326 24.595866 L -4.144857 24.806804 L -2.101889 24.90446 L -0.0120449 24.931804 L 1.97233 24.93571 L 3.702799 24.970866 L 5.081705 25.056804 L 6.069986 25.193522 L 6.69108 25.338054 L 6.984049 25.431804 L 7.019205 25.443522 L 7.027018 25.447429 L 7.093424 25.470866 L 7.226236 25.525554 L 7.40983 25.611491 L 7.648111 25.724772 L 7.921549 25.865397 L 8.22233 26.013835 L 8.53483 26.15446 L 8.84733 26.256022 L 9.148111 26.283366 L 9.425455 26.21696 L 9.663736 26.025554 L 9.859049 25.709147 L 10.007486 25.259929 L 10.105143 24.68571 L 10.155924 23.99821 L 10.171549 23.21696 L 10.152018 22.345866 L 10.112955 21.400554 L 10.069986 20.384929 L 10.027018 19.287272 L 10.00358 18.111491 L 9.999674 16.845866 L 10.019205 15.486491 L 10.069986 14.025554 L 10.144205 12.463054 L 10.234049 10.806804 L 10.331705 9.06071 L 10.433268 7.240397 L 10.530924 5.357585 L 10.612955 3.43571 L 10.683268 1.486491 L 10.737955 -0.462728 L 10.780924 -2.392415 L 10.81608 -4.286946 L 10.843424 -6.12679 L 10.859049 -7.896321 L 10.866861 -9.576009 L 10.866861 -11.15804 L 10.84733 -12.630696 L 10.808268 -13.990071 L 10.749674 -15.228353 L 10.671549 -16.34554 L 10.585611 -17.341634 L 10.491861 -18.22054 L 10.402018 -18.986165 L 10.327799 -19.646321 L 10.273111 -20.204915 L 10.237955 -20.677571 L 10.230143 -21.06429 L 10.241861 -21.384603 L 10.265299 -21.638509 L 10.296549 -21.837728 L 10.331705 -21.990071 L 10.362955 -22.103353 L 10.386393 -22.181478 L 10.402018 -22.232259 L 10.40983 -22.259603 L 10.413736 -22.271321 L 10.425455 -22.365071 L 10.374674 -22.560384 L 10.155924 -22.853353 L 9.663736 -23.224446 L 8.839518 -23.615071 L 7.687174 -23.958821 L 6.241861 -24.228353 L 4.558268 -24.415853 L 2.718424 -24.548665 L 0.808268 -24.646321 L -1.05892 -24.728353 L -2.769857 -24.790853 L -4.234701 -24.849446 L -5.387045 -24.904134 L -6.21517 -24.97054 L -6.738607 -25.029134 L -6.988607 -25.068196 L -7.019857 -25.076009 " transform="matrix(1,0,0,1,146.59017,171.454915)"/>
<path style="fill-rule:evenodd;fill:rgb(100%,100%,100%);fill-opacity:1;stroke-width:1;stroke-linecap:butt;stroke-linejoin:bevel;stroke:rgb(50.048876%,50.048876%,50.048876%);stroke-opacity:1;stroke-miterlimit:10;" d="M -2.198893 -23.999348 L -2.202799 -23.999348 L -2.226236 -23.983723 L -2.269205 -23.952473 L -2.339518 -23.905598 L -2.429361 -23.847004 L -2.546549 -23.772785 L -2.69108 -23.682941 L -2.859049 -23.581379 L -3.046549 -23.472004 L -3.25358 -23.347004 L -3.468424 -23.210285 L -3.69108 -23.061848 L -3.90983 -22.901691 L -4.120768 -22.72591 L -4.312174 -22.534504 L -4.480143 -22.323566 L -4.620768 -22.089191 L -4.734049 -21.827473 L -4.819986 -21.530598 L -4.87858 -21.19466 L -4.913736 -20.81966 L -4.933268 -20.393879 L -4.937174 -19.91341 L -4.929361 -19.378254 L -4.917643 -18.776691 L -4.898111 -18.116535 L -4.87858 -17.386066 L -4.862955 -16.593098 L -4.84733 -15.729816 L -4.835611 -14.800129 L -4.827799 -13.804035 L -4.827799 -12.745441 L -4.835611 -11.628254 L -4.855143 -10.460285 L -4.882486 -9.237629 L -4.925455 -7.972004 L -4.976236 -6.667316 L -5.03483 -5.331379 L -5.105143 -3.968098 L -5.187174 -2.589191 L -5.269205 -1.202473 L -5.355143 0.192059 L -5.437174 1.578777 L -5.511393 2.949871 L -5.577799 4.30534 L -5.624674 5.633465 L -5.65983 6.926434 L -5.671549 8.184246 L -5.667643 9.395184 L -5.644205 10.55534 L -5.605143 11.664715 L -5.558268 12.715496 L -5.499674 13.71159 L -5.44108 14.641277 L -5.386393 15.508465 L -5.335611 16.313152 L -5.296549 17.05534 L -5.273111 17.735027 L -5.265299 18.356121 L -5.277018 18.914715 L -5.312174 19.414715 L -5.366861 19.863934 L -5.44108 20.258465 L -5.538736 20.610027 L -5.652018 20.910809 L -5.777018 21.172527 L -5.913736 21.39909 L -6.050455 21.590496 L -6.187174 21.750652 L -6.31608 21.883465 L -6.437174 21.996746 L -6.538736 22.082684 L -6.624674 22.156902 L -6.694986 22.21159 L -6.749674 22.254559 L -6.78483 22.281902 L -6.808268 22.301434 L -6.819986 22.313152 L -6.831705 22.320965 L -6.870768 22.39909 L -6.769205 22.578777 L -6.312174 22.891277 L -5.40983 23.352215 L -4.167643 23.918621 L -2.804361 24.496746 L -1.519205 24.981121 L -0.421549 25.281902 L 0.469076 25.375652 L 1.164389 25.285809 L 1.680014 25.102215 L 2.015951 24.914715 L 2.180014 24.797527 L 2.199545 24.781902 L 2.203451 24.781902 L 2.226889 24.762371 L 2.269857 24.731121 L 2.336264 24.676434 L 2.422201 24.606121 L 2.52767 24.516277 L 2.65267 24.406902 L 2.797201 24.277996 L 2.953451 24.129559 L 3.12142 23.96159 L 3.293295 23.777996 L 3.469076 23.578777 L 3.640951 23.360027 L 3.805014 23.129559 L 3.957357 22.879559 L 4.094076 22.613934 L 4.21517 22.328777 L 4.316732 22.020184 L 4.40267 21.684246 L 4.472982 21.317059 L 4.531576 20.910809 L 4.578451 20.46159 L 4.617514 19.965496 L 4.65267 19.414715 L 4.68392 18.80534 L 4.711264 18.133465 L 4.742514 17.39909 L 4.773764 16.598309 L 4.805014 15.735027 L 4.836264 14.801434 L 4.87142 13.80534 L 4.90267 12.750652 L 4.930014 11.633465 L 4.957357 10.46159 L 4.976889 9.238934 L 4.992514 7.973309 L 5.000326 6.668621 L 5.000326 5.332684 L 4.99642 3.969402 L 4.984701 2.590496 L 4.972982 1.203777 L 4.961264 -0.190754 L 4.953451 -1.577473 L 4.957357 -2.948566 L 4.972982 -4.304035 L 5.004232 -5.63216 L 5.055014 -6.925129 L 5.12142 -8.182941 L 5.207357 -9.393879 L 5.301107 -10.554035 L 5.406576 -11.66341 L 5.508139 -12.714191 L 5.605795 -13.710285 L 5.687826 -14.639973 L 5.754232 -15.50716 L 5.793295 -16.311848 L 5.805014 -17.054035 L 5.793295 -17.733723 L 5.762045 -18.354816 L 5.707357 -18.91341 L 5.648764 -19.41341 L 5.582357 -19.862629 L 5.519857 -20.25716 L 5.46517 -20.608723 L 5.422201 -20.909504 L 5.394857 -21.171223 L 5.379232 -21.397785 L 5.375326 -21.589191 L 5.383139 -21.749348 L 5.398764 -21.88216 L 5.414389 -21.995441 L 5.43392 -22.081379 L 5.453451 -22.155598 L 5.469076 -22.210285 L 5.484701 -22.253254 L 5.492514 -22.280598 L 5.500326 -22.300129 L 5.504232 -22.311848 L 5.508139 -22.31966 L 5.504232 -22.397785 L 5.387045 -22.56966 L 5.019857 -22.854816 L 4.344076 -23.218098 L 3.414389 -23.597004 L 2.355795 -23.925129 L 1.305014 -24.171223 L 0.344076 -24.327473 L -0.487955 -24.393879 L -1.167643 -24.362629 L -1.679361 -24.253254 L -2.015299 -24.112629 L -2.179361 -24.014973 L -2.198893 -23.999348 " transform="matrix(1,0,0,1,95.40983,29.31966)"/>
<path style="fill-rule:evenodd;fill:rgb(100%,100%,100%);fill-opacity:1;stroke-width:1;stroke-linecap:butt;stroke-linejoin:bevel;stroke:rgb(50.048876%,50.048876%,50.048876%);stroke-opacity:1;stroke-miterlimit:10;" d="M -2.199545 -4.248862 L -2.226889 -4.217612 L -2.410482 -3.951987 L -2.750326 -3.385581 L -3.180014 -2.588706 L -3.648764 -1.791831 L -4.125326 -1.237144 L -4.582357 -0.944175 L -4.99642 -0.7098 L -5.30892 -0.315269 L -5.445639 0.2902 L -5.355795 0.9777 L -5.070639 1.57145 L -4.722982 1.9777 L -4.488607 2.176919 L -4.457357 2.200356 L -4.430014 2.223794 L -4.222982 2.387856 L -3.851889 2.7277 L -3.383139 3.215981 L -2.863607 3.770669 L -2.297201 4.25895 L -1.668295 4.57145 L -0.96517 4.673013 L -0.21517 4.641763 L 0.523111 4.598794 L 1.171549 4.641763 L 1.679361 4.7902 L 2.015299 4.9777 L 2.179361 5.106606 L 2.198893 5.126138 L 2.22233 5.141763 L 2.382486 5.247231 L 2.702799 5.294106 L 3.171549 5.075356 L 3.745768 4.481606 L 4.34733 3.555825 L 4.855143 2.462075 L 5.15983 1.360513 L 5.241861 0.368325 L 5.175455 -0.479331 L 5.105143 -1.166831 L 5.12858 -1.67855 L 5.241861 -2.014487 L 5.343424 -2.17855 L 5.359049 -2.198081 L 5.37858 -2.225425 L 5.558268 -2.409019 L 5.976236 -2.756675 L 6.495768 -3.229331 L 6.69108 -3.795737 L 6.140299 -4.3973 L 4.792643 -4.932456 L 3.030924 -5.30355 L 1.351236 -5.451987 L 0.0270176 -5.3973 L -0.918295 -5.174644 L -1.566732 -4.842612 L -1.976889 -4.498862 L -2.176107 -4.280112 L -2.199545 -4.248862 " transform="matrix(1,0,0,1,141.59017,265.725425)"/>
<path style="fill-rule:evenodd;fill:rgb(100%,100%,100%);fill-opacity:1;stroke-width:1;stroke-linecap:butt;stroke-linejoin:bevel;stroke:rgb(50.048876%,50.048876%,50.048876%);stroke-opacity:1;stroke-miterlimit:10;" d="M -7.019857 -9.037272 L -7.051107 -9.017741 L -7.289389 -8.877116 L -7.738607 -8.619304 L -8.328451 -8.263835 L -8.957357 -7.818522 L -9.512045 -7.244304 L -9.890951 -6.470866 L -10.066732 -5.431804 L -10.074545 -4.095866 L -9.992514 -2.490397 L -9.90267 -0.71696 L -9.851889 1.087728 L -9.84017 2.779134 L -9.832357 4.236165 L -9.801107 5.388509 L -9.734701 6.216634 L -9.660482 6.740071 L -9.609701 6.990071 L -9.601889 7.021321 L -9.594076 7.056478 L -9.523764 7.333821 L -9.351889 7.826009 L -9.051107 8.43929 L -8.617514 9.052571 L -8.055014 9.552571 L -7.351889 9.880696 L -6.441732 10.036946 L -5.250326 10.083821 L -3.726889 10.091634 L -1.914389 10.103353 L 0.0543613 10.115071 L 1.987955 10.087728 L 3.706705 9.997884 L 5.081705 9.849446 L 6.069986 9.685384 L 6.69108 9.548665 L 6.984049 9.474446 L 7.019205 9.462728 L 7.054361 9.454915 L 7.331705 9.37679 L 7.823893 9.216634 L 8.429361 8.966634 L 9.027018 8.615071 L 9.50358 8.146321 L 9.796549 7.497884 L 9.917643 6.599446 L 9.913736 5.37679 L 9.855143 3.806478 L 9.792643 1.954915 L 9.745768 -0.0411787 L 9.702799 -1.982585 L 9.640299 -3.705241 L 9.542643 -5.080241 L 9.413736 -6.068522 L 9.28483 -6.689616 L 9.198893 -6.982585 L 9.19108 -7.017741 L 9.179361 -7.048991 L 9.101236 -7.283366 L 8.933268 -7.697429 L 8.655924 -8.209147 L 8.237955 -8.736491 L 7.62858 -9.209147 L 6.777018 -9.588054 L 5.640299 -9.861491 L 4.218424 -10.037272 L 2.550455 -10.134929 L 0.741861 -10.162272 L -1.078451 -10.131022 L -2.77767 -10.045085 L -4.234701 -9.888835 L -5.387045 -9.670085 L -6.21517 -9.420085 L -6.738607 -9.193522 L -6.988607 -9.056804 L -7.019857 -9.037272 " transform="matrix(1,0,0,1,146.59017,214.545085)"/>
<path style="fill-rule:evenodd;fill:rgb(100%,100%,100%);fill-opacity:1;stroke-width:1;stroke-linecap:butt;stroke-linejoin:bevel;stroke:rgb(50.048876%,50.048876%,50.048876%);stroke-opacity:1;stroke-miterlimit:10;" d="M -11.777018 -14.578125 L -11.835611 -14.566406 L -12.296549 -14.464844 L -13.116861 -14.234375 L -14.105143 -13.847656 L -15.027018 -13.300781 L -15.671549 -12.59375 L -15.952799 -11.667969 L -15.937174 -10.382812 L -15.757486 -8.566406 L -15.542643 -6.136719 L -15.34733 -3.164062 L -15.171549 0.109375 L -15.019205 3.34375 L -14.905924 6.21875 L -14.84733 8.523438 L -14.835611 10.183594 L -14.855143 11.222656 L -14.874674 11.714844 L -14.87858 11.777344 L -14.882486 11.835938 L -14.905924 12.296875 L -14.960611 13.117188 L -15.007486 14.121094 L -14.921549 15.0625 L -14.511393 15.722656 L -13.577799 15.992188 L -11.97233 15.898438 L -9.675455 15.59375 L -6.769205 15.265625 L -3.456705 15.042969 L 0.00423244 14.964844 L 3.312826 15.007812 L 6.211264 15.121094 L 8.523764 15.273438 L 10.18392 15.425781 L 11.222982 15.554688 L 11.71517 15.632812 L 11.77767 15.640625 L 11.828451 15.648438 L 12.211264 15.695312 L 12.855795 15.6875 L 13.582357 15.46875 L 14.219076 14.871094 L 14.668295 13.785156 L 14.910482 12.160156 L 14.988607 10.007812 L 14.961264 7.394531 L 14.898764 4.4375 L 14.855795 1.308594 L 14.867514 -1.789062 L 14.957357 -4.652344 L 15.109701 -7.101562 L 15.285482 -9.035156 L 15.441732 -10.425781 L 15.55892 -11.304688 L 15.613607 -11.722656 L 15.62142 -11.777344 L 15.629232 -11.835938 L 15.695639 -12.296875 L 15.801107 -13.117188 L 15.87142 -14.109375 L 15.750326 -15.019531 L 15.242514 -15.617188 L 14.148764 -15.789062 L 12.367514 -15.585938 L 9.910482 -15.199219 L 6.890951 -14.847656 L 3.508139 -14.675781 L 0.0120449 -14.691406 L -3.308268 -14.800781 L -6.210611 -14.886719 L -8.523111 -14.882812 L -10.183268 -14.792969 L -11.22233 -14.671875 L -11.714518 -14.589844 L -11.777018 -14.578125 " transform="matrix(1,0,0,1,105.40983,185.5)"/>
<path style="fill-rule:evenodd;fill:rgb(100%,100%,100%);fill-opacity:1;stroke-width:1;stroke-linecap:butt;stroke-linejoin:bevel;stroke:rgb(50.048876%,50.048876%,50.048876%);stroke-opacity:1;stroke-miterlimit:10;" d="M -32.202146 -15.507812 L -32.217771 -15.511719 L -32.342771 -15.523438 L -32.565428 -15.464844 L -32.85449 -15.203125 L -33.16699 -14.59375 L -33.483396 -13.535156 L -33.780271 -11.964844 L -34.057615 -9.875 L -34.311521 -7.316406 L -34.534178 -4.402344 L -34.721678 -1.292969 L -34.881834 1.796875 L -35.014646 4.652344 L -35.131834 7.101562 L -35.233396 9.035156 L -35.32324 10.425781 L -35.389646 11.304688 L -35.428709 11.722656 L -35.432615 11.777344 L -35.436521 11.789062 L -35.444334 11.902344 L -35.467771 12.117188 L -35.499021 12.429688 L -35.54199 12.820312 L -35.584959 13.269531 L -35.620115 13.746094 L -35.627928 14.226562 L -35.596678 14.679688 L -35.502928 15.078125 L -35.331053 15.398438 L -35.065428 15.632812 L -34.694334 15.773438 L -34.209959 15.824219 L -33.612303 15.808594 L -32.897459 15.738281 L -32.061521 15.640625 L -31.100584 15.535156 L -30.006834 15.441406 L -28.772459 15.375 L -27.389646 15.332031 L -25.846678 15.316406 L -24.13574 15.324219 L -22.252928 15.34375 L -20.19824 15.363281 L -17.97949 15.378906 L -15.60449 15.382812 L -13.092771 15.375 L -10.467771 15.355469 L -7.749021 15.324219 L -4.967771 15.292969 L -2.155271 15.261719 L 0.665041 15.242188 L 3.461916 15.230469 L 6.204104 15.234375 L 8.86426 15.25 L 11.422854 15.277344 L 13.852541 15.304688 L 16.141604 15.332031 L 18.274416 15.347656 L 20.23926 15.34375 L 22.028322 15.316406 L 23.64551 15.261719 L 25.086916 15.183594 L 26.360354 15.085938 L 27.465822 14.976562 L 28.422854 14.867188 L 29.231447 14.761719 L 29.915041 14.667969 L 30.477541 14.589844 L 30.934572 14.53125 L 31.30176 14.488281 L 31.590822 14.457031 L 31.813479 14.441406 L 31.977541 14.429688 L 32.090822 14.425781 L 32.165041 14.421875 L 32.219729 14.421875 L 32.352541 14.40625 L 32.61426 14.328125 L 32.997072 14.09375 L 33.45801 13.59375 L 33.92676 12.71875 L 34.329104 11.363281 L 34.602541 9.488281 L 34.735354 7.101562 L 34.754885 4.296875 L 34.715822 1.253906 L 34.665041 -1.808594 L 34.618166 -4.65625 L 34.579104 -7.101562 L 34.528322 -9.035156 L 34.465822 -10.425781 L 34.403322 -11.304688 L 34.36426 -11.722656 L 34.360354 -11.777344 L 34.360354 -11.789062 L 34.348635 -11.902344 L 34.321291 -12.117188 L 34.282229 -12.429688 L 34.223635 -12.820312 L 34.141604 -13.265625 L 34.036135 -13.742188 L 33.907229 -14.21875 L 33.750979 -14.667969 L 33.563479 -15.0625 L 33.348635 -15.378906 L 33.102541 -15.609375 L 32.809572 -15.753906 L 32.461916 -15.816406 L 32.043947 -15.808594 L 31.540041 -15.753906 L 30.930666 -15.671875 L 30.188479 -15.578125 L 29.30176 -15.492188 L 28.247072 -15.417969 L 27.012697 -15.371094 L 25.586916 -15.347656 L 23.961916 -15.34375 L 22.141604 -15.355469 L 20.129885 -15.378906 L 17.938479 -15.40625 L 15.58301 -15.433594 L 13.08301 -15.457031 L 10.461916 -15.472656 L 7.750979 -15.480469 L 4.969729 -15.480469 L 2.153322 -15.472656 L -0.663084 -15.460938 L -3.459959 -15.441406 L -6.202146 -15.421875 L -8.862303 -15.394531 L -11.420896 -15.367188 L -13.850584 -15.332031 L -16.139646 -15.292969 L -18.272459 -15.25 L -20.237303 -15.207031 L -22.026365 -15.164062 L -23.643553 -15.125 L -25.084959 -15.097656 L -26.358396 -15.085938 L -27.463865 -15.089844 L -28.420896 -15.109375 L -29.22949 -15.144531 L -29.913084 -15.1875 L -30.475584 -15.238281 L -30.932615 -15.289062 L -31.299803 -15.339844 L -31.588865 -15.386719 L -31.811521 -15.425781 L -31.975584 -15.457031 L -32.088865 -15.484375 L -32.163084 -15.5 L -32.19824 -15.507812 L -32.202146 -15.507812 " transform="matrix(1,0,0,1,39.22949,140.5)"/>
<path style="fill-rule:evenodd;fill:rgb(100%,100%,100%);fill-opacity:1;stroke-width:1;stroke-linecap:butt;stroke-linejoin:bevel;stroke:rgb(50.048876%,50.048876%,50.048876%);stroke-opacity:1;stroke-miterlimit:10;" d="M -12.230795 -10.510255 L -12.242514 -10.506349 L -12.355795 -10.467286 L -12.597982 -10.33838 L -12.969076 -10.041505 L -13.445639 -9.502442 L -13.96517 -8.670411 L -14.457357 -7.541505 L -14.855795 -6.135255 L -15.140951 -4.49463 L -15.320639 -2.686036 L -15.418295 -0.795411 L -15.469076 1.063964 L -15.476889 2.774901 L -15.461264 4.235839 L -15.426107 5.388183 L -15.383139 6.216308 L -15.347982 6.739745 L -15.324545 6.989745 L -15.324545 7.020995 L -15.320639 7.03662 L -15.312826 7.145995 L -15.289389 7.353026 L -15.254232 7.645995 L -15.195639 8.001464 L -15.105795 8.392089 L -14.969076 8.794433 L -14.765951 9.177245 L -14.480795 9.524901 L -14.109701 9.81787 L -13.633139 10.040526 L -13.055014 10.188964 L -12.363607 10.267089 L -11.55892 10.274901 L -10.633139 10.22412 L -9.578451 10.126464 L -8.394857 10.00537 L -7.082357 9.876464 L -5.65267 9.763183 L -4.12142 9.677245 L -2.519857 9.638183 L -0.879232 9.642089 L 0.761393 9.688964 L 2.362955 9.763183 L 3.890299 9.84912 L 5.31608 9.931151 L 6.612955 9.989745 L 7.765299 10.017089 L 8.769205 10.009276 L 9.616861 9.966308 L 10.31608 9.899901 L 10.882486 9.813964 L 11.323893 9.712401 L 11.655924 9.606933 L 11.902018 9.501464 L 12.069986 9.407714 L 12.171549 9.337401 L 12.22233 9.298339 L 12.230143 9.294433 L 12.245768 9.282714 L 12.366861 9.173339 L 12.577799 8.935058 L 12.831705 8.560058 L 13.089518 8.06787 L 13.331705 7.501464 L 13.554361 6.856933 L 13.761393 6.063964 L 13.948893 5.001464 L 14.093424 3.591308 L 14.183268 1.853026 L 14.226236 -0.0766612 L 14.261393 -1.99463 L 14.343424 -3.705567 L 14.515299 -5.080567 L 14.757486 -6.068849 L 15.00358 -6.689942 L 15.155924 -6.982911 L 15.175455 -7.018067 L 15.187174 -7.033692 L 15.25358 -7.143067 L 15.394205 -7.350099 L 15.616861 -7.639161 L 15.90983 -7.982911 L 16.230143 -8.350099 L 16.519205 -8.705567 L 16.69108 -9.014161 L 16.667643 -9.248536 L 16.394205 -9.40088 L 15.859049 -9.479005 L 15.06608 -9.490724 L 14.062174 -9.459474 L 12.898111 -9.408692 L 11.620768 -9.346192 L 10.257486 -9.291505 L 8.831705 -9.248536 L 7.343424 -9.229005 L 5.796549 -9.236817 L 4.194986 -9.279786 L 2.554361 -9.357911 L 0.894205 -9.471192 L -0.754232 -9.607911 L -2.359701 -9.764161 L -3.890951 -9.924317 L -5.316732 -10.080567 L -6.613607 -10.225099 L -7.765951 -10.350099 L -8.769857 -10.451661 L -9.617514 -10.529786 L -10.316732 -10.580567 L -10.883139 -10.604005 L -11.324545 -10.604005 L -11.656576 -10.58838 L -11.90267 -10.564942 L -12.070639 -10.541505 L -12.172201 -10.521974 L -12.222982 -10.510255 L -12.230795 -10.510255 " transform="matrix(1,0,0,1,151.59017,242.635255)"/>
<path style="fill-rule:evenodd;fill:rgb(100%,100%,100%);fill-opacity:1;stroke-width:1;stroke-linecap:butt;stroke-linejoin:bevel;stroke:rgb(50.048876%,50.048876%,50.048876%);stroke-opacity:1;stroke-miterlimit:10;" d="M -17.297854 -4.411946 L -17.309572 -4.411946 L -17.399416 -4.392415 L -17.602541 -4.290853 L -17.934572 -4.021321 L -18.368166 -3.53304 L -18.836916 -2.849446 L -19.254885 -2.025228 L -19.575197 -1.146321 L -19.786135 -0.286946 L -19.911135 0.502116 L -19.977541 1.170085 L -20.012697 1.677897 L -20.024416 2.013835 L -20.028322 2.177897 L -20.032229 2.197429 L -20.032229 2.228679 L -20.024416 2.287272 L -20.012697 2.369304 L -19.977541 2.482585 L -19.918947 2.619304 L -19.825197 2.775554 L -19.688479 2.951335 L -19.508791 3.134929 L -19.286135 3.322429 L -19.02051 3.506022 L -18.711916 3.681804 L -18.372072 3.838054 L -17.997072 3.978679 L -17.590822 4.103679 L -17.153322 4.205241 L -16.67676 4.291179 L -16.161135 4.369304 L -15.594729 4.43571 L -14.977541 4.49821 L -14.30176 4.556804 L -13.555666 4.619304 L -12.73926 4.68571 L -11.852541 4.74821 L -10.887697 4.814616 L -9.852541 4.87321 L -8.750979 4.927897 L -7.58301 4.974772 L -6.36426 5.013835 L -5.094729 5.045085 L -3.790041 5.068522 L -2.45801 5.088054 L -1.110354 5.107585 L 0.241209 5.131022 L 1.584959 5.162272 L 2.909178 5.193522 L 4.206053 5.224772 L 5.459959 5.256022 L 6.66699 5.283366 L 7.819334 5.298991 L 8.909178 5.302897 L 9.928709 5.287272 L 10.874021 5.259929 L 11.749021 5.213054 L 12.54199 5.158366 L 13.264646 5.095866 L 13.909178 5.033366 L 14.47949 4.978679 L 14.983396 4.931804 L 15.420896 4.900554 L 15.795896 4.884929 L 16.112303 4.888835 L 16.381834 4.908366 L 16.60449 4.939616 L 16.784178 4.978679 L 16.932615 5.021647 L 17.045896 5.064616 L 17.13574 5.103679 L 17.202146 5.134929 L 17.295896 5.181804 L 17.307615 5.18571 L 17.393553 5.201335 L 17.581053 5.12321 L 17.862303 4.81071 L 18.221678 4.193522 L 18.592771 3.314616 L 18.924803 2.302897 L 19.170896 1.27946 L 19.319334 0.334147 L 19.381834 -0.493978 L 19.381834 -1.169759 L 19.350584 -1.681478 L 19.303709 -2.017415 L 19.276365 -2.181478 L 19.272459 -2.201009 L 19.268553 -2.204915 L 19.264646 -2.236165 L 19.249021 -2.294759 L 19.22949 -2.380696 L 19.19824 -2.490071 L 19.155271 -2.622884 L 19.096678 -2.775228 L 19.022459 -2.943196 L 18.924803 -3.122884 L 18.811521 -3.318196 L 18.670896 -3.521321 L 18.506834 -3.728353 L 18.315428 -3.93929 L 18.092771 -4.146321 L 17.838865 -4.341634 L 17.549803 -4.517415 L 17.221678 -4.669759 L 16.842771 -4.794759 L 16.413084 -4.888509 L 15.920896 -4.954915 L 15.358396 -4.990071 L 14.721678 -5.005696 L 14.002928 -5.005696 L 13.19824 -4.993978 L 12.307615 -4.986165 L 11.327146 -4.974446 L 10.264646 -4.97054 L 9.124021 -4.97054 L 7.913084 -4.974446 L 6.63574 -4.986165 L 5.307615 -5.00179 L 3.936521 -5.025228 L 2.538084 -5.052571 L 1.124021 -5.087728 L -0.290041 -5.12679 L -1.696291 -5.165853 L -3.079104 -5.201009 L -4.42676 -5.236165 L -5.723635 -5.259603 L -6.969729 -5.275228 L -8.149416 -5.28304 L -9.258791 -5.279134 L -10.290041 -5.259603 L -11.243166 -5.232259 L -12.11426 -5.193196 L -12.903322 -5.138509 L -13.606447 -5.076009 L -14.235354 -5.00179 L -14.786135 -4.919759 L -15.262697 -4.837728 L -15.672854 -4.755696 L -16.02051 -4.673665 L -16.313479 -4.603353 L -16.55176 -4.544759 L -16.750979 -4.497884 L -16.907229 -4.462728 L -17.032229 -4.43929 L -17.129885 -4.427571 L -17.200197 -4.419759 L -17.250979 -4.415853 L -17.282229 -4.411946 L -17.297854 -4.411946 " transform="matrix(1,0,0,1,192.77051,171.454915)"/>
<path style="fill-rule:evenodd;fill:rgb(100%,100%,100%);fill-opacity:1;stroke-width:1;stroke-linecap:butt;stroke-linejoin:bevel;stroke:rgb(50.048876%,50.048876%,50.048876%);stroke-opacity:1;stroke-miterlimit:10;" d="M -7.019857 -14.948893 L -7.035482 -14.952799 L -7.144857 -14.976236 L -7.351889 -15.030924 L -7.644857 -15.109049 L -7.99642 -15.210611 L -8.383139 -15.312174 L -8.769857 -15.374674 L -9.133139 -15.355143 L -9.437826 -15.210611 L -9.672201 -14.913736 L -9.820639 -14.444986 L -9.887045 -13.804361 L -9.883139 -13.007486 L -9.820639 -12.073893 L -9.730795 -11.015299 L -9.637045 -9.843424 L -9.555014 -8.56608 L -9.500326 -7.183268 L -9.472982 -5.706705 L -9.476889 -4.152018 L -9.49642 -2.53483 L -9.531576 -0.886393 L -9.570639 0.758139 L -9.617514 2.363607 L -9.672201 3.890951 L -9.722982 5.316732 L -9.773764 6.613607 L -9.80892 7.765951 L -9.820639 8.769857 L -9.793295 9.617514 L -9.719076 10.316732 L -9.586264 10.883139 L -9.398764 11.324545 L -9.172201 11.656576 L -8.926107 11.90267 L -8.699545 12.070639 L -8.523764 12.172201 L -8.430014 12.222982 L -8.414389 12.230795 L -8.387045 12.242514 L -8.180014 12.351889 L -7.832357 12.55892 L -7.422201 12.84017 L -7.000326 13.164389 L -6.535482 13.476889 L -5.93392 13.738607 L -5.074545 13.926107 L -3.890951 14.035482 L -2.394857 14.097982 L -0.680014 14.140951 L 1.101236 14.18392 L 2.780924 14.219076 L 4.234049 14.238607 L 5.386393 14.222982 L 6.214518 14.18392 L 6.737955 14.133139 L 6.987955 14.097982 L 7.019205 14.094076 L 7.03483 14.09017 L 7.132486 14.074545 L 7.31608 14.035482 L 7.569986 13.972982 L 7.866861 13.875326 L 8.187174 13.730795 L 8.515299 13.539389 L 8.835611 13.289389 L 9.140299 12.969076 L 9.429361 12.578451 L 9.69108 12.097982 L 9.917643 11.519857 L 10.093424 10.832357 L 10.210611 10.023764 L 10.261393 9.082357 L 10.237955 8.012045 L 10.155924 6.812826 L 10.030924 5.49642 L 9.882486 4.082357 L 9.737955 2.597982 L 9.612955 1.070639 L 9.527018 -0.468424 L 9.480143 -1.984049 L 9.476236 -3.444986 L 9.50358 -4.823893 L 9.558268 -6.09733 L 9.620768 -7.249674 L 9.679361 -8.269205 L 9.718424 -9.155924 L 9.730143 -9.902018 L 9.702799 -10.519205 L 9.640299 -11.019205 L 9.538736 -11.413736 L 9.413736 -11.710611 L 9.28483 -11.929361 L 9.163736 -12.081705 L 9.069986 -12.179361 L 9.019205 -12.22233 L 8.995768 -12.245768 L 8.835611 -12.366861 L 8.487955 -12.577799 L 7.948893 -12.831705 L 7.292643 -13.093424 L 6.632486 -13.335611 L 6.023111 -13.558268 L 5.37858 -13.773111 L 4.530924 -13.980143 L 3.323893 -14.175455 L 1.730143 -14.351236 L -0.12142 -14.484049 L -2.008139 -14.581705 L -3.711264 -14.652018 L -5.082357 -14.72233 L -6.070639 -14.804361 L -6.691732 -14.886393 L -6.984701 -14.94108 L -7.019857 -14.948893 " transform="matrix(1,0,0,1,126.59017,112.40983)"/>
</g>
</svg>
