<?xml version="1.0" encoding="UTF-8"?>
<svg xmlns="http://www.w3.org/2000/svg" xmlns:xlink="http://www.w3.org/1999/xlink" width="168.472136" height="248.472136" viewBox="0 0 168.472136 248.472136">
<path fill-rule="evenodd" fill="rgb(100%, 100%, 100%)" fill-opacity="1" stroke-width="1" stroke-linecap="butt" stroke-linejoin="bevel" stroke="rgb(50.048876%, 50.048876%, 50.048876%)" stroke-opacity="1" stroke-miterlimit="10" d="M -2.199219 -50.066406 L -2.210938 -50.066406 L -2.234375 -50.070312 L -2.265625 -50.070312 L -2.308594 -50.074219 L -2.359375 -50.082031 L -2.417969 -50.085938 L -2.488281 -50.09375 L -2.566406 -50.097656 L -2.652344 -50.105469 L -2.75 -50.105469 L -2.851562 -50.101562 L -2.957031 -50.09375 L -3.074219 -50.078125 L -3.195312 -50.046875 L -3.320312 -50.003906 L -3.449219 -49.949219 L -3.578125 -49.875 L -3.710938 -49.785156 L -3.84375 -49.675781 L -3.972656 -49.546875 L -4.097656 -49.402344 L -4.21875 -49.242188 L -4.328125 -49.066406 L -4.433594 -48.878906 L -4.527344 -48.679688 L -4.609375 -48.46875 L -4.683594 -48.246094 L -4.746094 -48.015625 L -4.796875 -47.78125 L -4.839844 -47.539062 L -4.871094 -47.285156 L -4.894531 -47.027344 L -4.914062 -46.757812 L -4.925781 -46.480469 L -4.933594 -46.1875 L -4.9375 -45.882812 L -4.941406 -45.5625 L -4.9375 -45.226562 L -4.9375 -44.867188 L -4.933594 -44.484375 L -4.929688 -44.078125 L -4.925781 -43.644531 L -4.921875 -43.183594 L -4.921875 -41.03125 L -4.925781 -40.410156 L -4.929688 -39.75 L -4.9375 -39.054688 L -4.945312 -38.324219 L -4.953125 -37.554688 L -4.964844 -36.75 L -4.976562 -35.90625 L -4.988281 -35.023438 L -5 -34.105469 L -5.011719 -33.152344 L -5.019531 -32.160156 L -5.03125 -31.132812 L -5.039062 -30.066406 L -5.042969 -28.96875 L -5.050781 -27.835938 L -5.054688 -26.671875 L -5.058594 -25.472656 L -5.0625 -24.246094 L -5.066406 -22.984375 L -5.070312 -21.699219 L -5.074219 -20.386719 L -5.074219 -14.894531 L -5.070312 -13.46875 L -5.0625 -12.027344 L -5.054688 -10.574219 L -5.042969 -9.105469 L -5.03125 -7.625 L -5.011719 -6.136719 L -4.992188 -4.644531 L -4.972656 -3.144531 L -4.949219 -1.644531 L -4.929688 -0.140625 L -4.910156 1.359375 L -4.890625 2.855469 L -4.878906 4.347656 L -4.871094 5.832031 L -4.867188 7.304688 L -4.871094 8.765625 L -4.882812 10.214844 L -4.898438 11.644531 L -4.925781 13.058594 L -4.957031 14.457031 L -4.992188 15.828125 L -5.03125 17.183594 L -5.074219 18.511719 L -5.117188 19.8125 L -5.160156 21.089844 L -5.199219 22.339844 L -5.238281 23.558594 L -5.269531 24.746094 L -5.296875 25.90625 L -5.320312 27.03125 L -5.335938 28.125 L -5.34375 29.1875 L -5.347656 30.214844 L -5.347656 31.207031 L -5.34375 32.164062 L -5.332031 33.085938 L -5.320312 33.976562 L -5.304688 34.828125 L -5.289062 35.644531 L -5.273438 36.429688 L -5.257812 37.175781 L -5.242188 37.890625 L -5.226562 38.570312 L -5.214844 39.214844 L -5.203125 39.828125 L -5.1875 40.410156 L -5.175781 40.960938 L -5.164062 41.476562 L -5.152344 41.964844 L -5.136719 42.425781 L -5.125 42.855469 L -5.109375 43.257812 L -5.09375 43.632812 L -5.082031 43.984375 L -5.066406 44.308594 L -5.054688 44.609375 L -5.046875 44.886719 L -5.035156 45.144531 L -5.03125 45.382812 L -5.027344 45.597656 L -5.023438 45.796875 L -5.023438 45.980469 L -5.027344 46.144531 L -5.027344 46.292969 L -5.03125 46.425781 L -5.03125 46.546875 L -5.027344 46.65625 L -5.023438 46.753906 L -5.011719 46.839844 L -5 46.917969 L -4.980469 46.988281 L -4.960938 47.046875 L -4.933594 47.097656 L -4.902344 47.144531 L -4.871094 47.183594 L -4.800781 47.246094 L -4.765625 47.269531 L -4.734375 47.289062 L -4.703125 47.304688 L -4.675781 47.320312 L -4.652344 47.332031 L -4.636719 47.335938 L -4.625 47.34375 L -4.617188 47.34375 L -4.601562 47.351562 L -4.480469 47.390625 L -4.21875 47.480469 L -3.804688 47.65625 L -3.28125 48.007812 L -2.703125 48.546875 L -2.082031 49.164062 L -1.390625 49.65625 L -0.617188 49.890625 L 0.199219 49.894531 L 0.960938 49.8125 L 1.570312 49.761719 L 1.976562 49.777344 L 2.175781 49.8125 L 2.199219 49.820312 L 2.210938 49.820312 L 2.234375 49.828125 L 2.265625 49.835938 L 2.308594 49.847656 L 2.359375 49.863281 L 2.417969 49.886719 L 2.488281 49.910156 L 2.5625 49.941406 L 2.734375 50.003906 L 2.828125 50.03125 L 2.929688 50.058594 L 3.027344 50.074219 L 3.132812 50.082031 L 3.234375 50.074219 L 3.339844 50.050781 L 3.441406 50.007812 L 3.542969 49.941406 L 3.640625 49.855469 L 3.734375 49.746094 L 3.828125 49.617188 L 3.914062 49.460938 L 3.996094 49.289062 L 4.074219 49.097656 L 4.148438 48.890625 L 4.214844 48.667969 L 4.277344 48.4375 L 4.335938 48.191406 L 4.386719 47.941406 L 4.4375 47.679688 L 4.484375 47.414062 L 4.523438 47.136719 L 4.5625 46.855469 L 4.597656 46.5625 L 4.632812 46.257812 L 4.664062 45.941406 L 4.695312 45.609375 L 4.726562 45.261719 L 4.753906 44.894531 L 4.78125 44.507812 L 4.804688 44.097656 L 4.824219 43.660156 L 4.84375 43.195312 L 4.859375 42.703125 L 4.875 42.179688 L 4.882812 41.625 L 4.886719 41.035156 L 4.886719 39.75 L 4.878906 39.054688 L 4.871094 38.324219 L 4.863281 37.554688 L 4.847656 36.75 L 4.835938 35.90625 L 4.820312 35.023438 L 4.804688 34.105469 L 4.792969 33.152344 L 4.777344 32.160156 L 4.765625 31.132812 L 4.753906 30.066406 L 4.746094 28.96875 L 4.738281 27.835938 L 4.730469 26.671875 L 4.722656 25.472656 L 4.71875 24.246094 L 4.714844 22.984375 L 4.714844 20.386719 L 4.71875 19.046875 L 4.722656 17.683594 L 4.730469 16.300781 L 4.746094 14.894531 L 4.761719 13.46875 L 4.78125 12.027344 L 4.804688 10.574219 L 4.832031 9.105469 L 4.863281 7.625 L 4.898438 6.136719 L 4.933594 4.644531 L 5.019531 1.644531 L 5.066406 0.140625 L 5.113281 -1.359375 L 5.160156 -2.855469 L 5.207031 -4.347656 L 5.25 -5.832031 L 5.292969 -7.304688 L 5.332031 -8.765625 L 5.367188 -10.214844 L 5.398438 -11.644531 L 5.421875 -13.058594 L 5.441406 -14.457031 L 5.449219 -15.828125 L 5.453125 -17.183594 L 5.449219 -18.511719 L 5.441406 -19.8125 L 5.425781 -21.089844 L 5.40625 -22.339844 L 5.382812 -23.558594 L 5.359375 -24.746094 L 5.332031 -25.90625 L 5.308594 -27.03125 L 5.285156 -28.125 L 5.261719 -29.1875 L 5.246094 -30.214844 L 5.234375 -31.207031 L 5.226562 -32.164062 L 5.226562 -33.085938 L 5.234375 -33.976562 L 5.242188 -34.828125 L 5.261719 -35.644531 L 5.28125 -36.429688 L 5.304688 -37.175781 L 5.335938 -37.890625 L 5.363281 -38.570312 L 5.398438 -39.214844 L 5.429688 -39.828125 L 5.460938 -40.410156 L 5.492188 -40.960938 L 5.523438 -41.476562 L 5.550781 -41.964844 L 5.578125 -42.425781 L 5.601562 -42.855469 L 5.625 -43.257812 L 5.644531 -43.632812 L 5.660156 -43.984375 L 5.675781 -44.308594 L 5.683594 -44.609375 L 5.695312 -44.886719 L 5.699219 -45.144531 L 5.699219 -45.382812 L 5.695312 -45.597656 L 5.6875 -45.796875 L 5.671875 -45.980469 L 5.652344 -46.144531 L 5.625 -46.292969 L 5.589844 -46.425781 L 5.550781 -46.546875 L 5.503906 -46.65625 L 5.449219 -46.753906 L 5.394531 -46.839844 L 5.335938 -46.917969 L 5.273438 -46.988281 L 5.214844 -47.046875 L 5.15625 -47.097656 L 5.105469 -47.144531 L 5.058594 -47.183594 L 5.015625 -47.214844 L 4.980469 -47.246094 L 4.953125 -47.269531 L 4.917969 -47.304688 L 4.910156 -47.320312 L 4.902344 -47.332031 L 4.898438 -47.335938 L 4.898438 -47.34375 L 4.867188 -47.40625 L 4.734375 -47.582031 L 4.40625 -47.945312 L 3.832031 -48.484375 L 3.046875 -49.085938 L 2.140625 -49.605469 L 1.199219 -49.941406 L 0.304688 -50.085938 L -0.5 -50.101562 L -1.167969 -50.074219 L -1.679688 -50.058594 L -2.015625 -50.058594 L -2.179688 -50.066406 L -2.199219 -50.066406 " transform="matrix(1, 0, 0, 1, 79, 104)"/>
<path fill-rule="evenodd" fill="rgb(100%, 100%, 100%)" fill-opacity="1" stroke-width="1" stroke-linecap="butt" stroke-linejoin="bevel" stroke="rgb(50.048876%, 50.048876%, 50.048876%)" stroke-opacity="1" stroke-miterlimit="10" d="M -11.777344 -24.613281 L -11.796875 -24.613281 L -11.960938 -24.628906 L -12.269531 -24.648438 L -12.679688 -24.644531 L -13.148438 -24.59375 L -13.625 -24.464844 L -14.0625 -24.234375 L -14.429688 -23.875 L -14.714844 -23.371094 L -14.910156 -22.710938 L -15.023438 -21.871094 L -15.070312 -20.84375 L -15.070312 -19.601562 L -15.039062 -18.136719 L -14.996094 -16.4375 L -14.953125 -14.496094 L -14.917969 -12.324219 L -14.898438 -9.941406 L -14.890625 -7.382812 L -14.890625 -4.695312 L -14.898438 -1.933594 L -14.898438 0.847656 L -14.890625 3.585938 L -14.871094 6.226562 L -14.839844 8.71875 L -14.804688 11.023438 L -14.769531 13.105469 L -14.746094 14.949219 L -14.742188 16.546875 L -14.765625 17.898438 L -14.820312 19.019531 L -14.914062 19.921875 L -15.035156 20.628906 L -15.175781 21.167969 L -15.324219 21.566406 L -15.460938 21.839844 L -15.5625 22.011719 L -15.617188 22.097656 L -15.625 22.105469 L -15.644531 22.136719 L -15.820312 22.351562 L -16.183594 22.734375 L -16.660156 23.199219 L -16.996094 23.667969 L -16.808594 24.082031 L -15.765625 24.394531 L -13.746094 24.582031 L -10.882812 24.636719 L -7.453125 24.605469 L -3.769531 24.5625 L -0.109375 24.597656 L 3.285156 24.753906 L 6.207031 25.015625 L 8.523438 25.320312 L 10.183594 25.597656 L 11.222656 25.796875 L 11.714844 25.894531 L 11.777344 25.90625 L 11.800781 25.910156 L 11.980469 25.949219 L 12.328125 26.019531 L 12.816406 26.113281 L 13.402344 26.214844 L 14.035156 26.289062 L 14.65625 26.289062 L 15.21875 26.164062 L 15.675781 25.871094 L 16.003906 25.367188 L 16.199219 24.632812 L 16.273438 23.660156 L 16.25 22.449219 L 16.15625 21 L 16.019531 19.3125 L 15.863281 17.386719 L 15.699219 15.222656 L 15.546875 12.832031 L 15.402344 10.234375 L 15.269531 7.460938 L 15.152344 4.558594 L 15.054688 1.59375 L 14.976562 -1.375 L 14.917969 -4.269531 L 14.882812 -7.035156 L 14.875 -9.609375 L 14.890625 -11.957031 L 14.925781 -14.039062 L 14.976562 -15.851562 L 15.035156 -17.382812 L 15.101562 -18.648438 L 15.171875 -19.667969 L 15.246094 -20.464844 L 15.324219 -21.070312 L 15.398438 -21.511719 L 15.472656 -21.816406 L 15.527344 -22.003906 L 15.558594 -22.09375 L 15.5625 -22.105469 L 15.570312 -22.132812 L 15.621094 -22.320312 L 15.621094 -22.65625 L 15.40625 -23.074219 L 14.820312 -23.515625 L 13.75 -23.929688 L 12.136719 -24.292969 L 9.992188 -24.582031 L 7.386719 -24.777344 L 4.4375 -24.875 L 1.308594 -24.867188 L -1.789062 -24.78125 L -4.652344 -24.664062 L -7.101562 -24.5625 L -9.035156 -24.515625 L -10.425781 -24.527344 L -11.304688 -24.570312 L -11.722656 -24.609375 L -11.777344 -24.613281 " transform="matrix(1, 0, 0, 1, 89, 219)"/>
<path fill-rule="evenodd" fill="rgb(100%, 100%, 100%)" fill-opacity="1" stroke-width="1" stroke-linecap="butt" stroke-linejoin="bevel" stroke="rgb(50.048876%, 50.048876%, 50.048876%)" stroke-opacity="1" stroke-miterlimit="10" d="M -7.019531 -25.800781 L -7.027344 -25.804688 L -7.089844 -25.839844 L -7.210938 -25.894531 L -7.382812 -25.960938 L -7.589844 -26.007812 L -7.828125 -26.011719 L -8.078125 -25.957031 L -8.328125 -25.820312 L -8.566406 -25.59375 L -8.789062 -25.277344 L -8.984375 -24.875 L -9.152344 -24.394531 L -9.292969 -23.839844 L -9.410156 -23.230469 L -9.503906 -22.5625 L -9.582031 -21.839844 L -9.644531 -21.0625 L -9.699219 -20.222656 L -9.75 -19.308594 L -9.792969 -18.316406 L -9.835938 -17.234375 L -9.875 -16.058594 L -9.910156 -14.777344 L -9.933594 -13.398438 L -9.949219 -11.917969 L -9.945312 -10.34375 L -9.929688 -8.6875 L -9.894531 -6.957031 L -9.847656 -5.171875 L -9.792969 -3.347656 L -9.734375 -1.496094 L -9.679688 0.359375 L -9.636719 2.203125 L -9.605469 4.019531 L -9.59375 5.789062 L -9.597656 7.496094 L -9.617188 9.128906 L -9.644531 10.675781 L -9.683594 12.125 L -9.722656 13.472656 L -9.765625 14.710938 L -9.804688 15.839844 L -9.84375 16.855469 L -9.882812 17.761719 L -9.917969 18.558594 L -9.949219 19.257812 L -9.980469 19.855469 L -10.007812 20.367188 L -10.027344 20.796875 L -10.035156 21.152344 L -10.035156 21.445312 L -10.019531 21.679688 L -9.996094 21.863281 L -9.96875 22.003906 L -9.933594 22.109375 L -9.90625 22.1875 L -9.882812 22.234375 L -9.859375 22.269531 L -9.800781 22.363281 L -9.65625 22.570312 L -9.367188 22.90625 L -8.886719 23.371094 L -8.164062 23.921875 L -7.171875 24.476562 L -5.894531 24.929688 L -4.359375 25.203125 L -2.621094 25.269531 L -0.769531 25.144531 L 1.070312 24.90625 L 2.773438 24.632812 L 4.234375 24.394531 L 5.386719 24.21875 L 6.214844 24.109375 L 6.738281 24.054688 L 6.988281 24.03125 L 7.019531 24.027344 L 7.027344 24.027344 L 7.089844 24.019531 L 7.207031 24.007812 L 7.371094 23.980469 L 7.570312 23.941406 L 7.792969 23.878906 L 8.019531 23.789062 L 8.25 23.671875 L 8.46875 23.519531 L 8.679688 23.328125 L 8.875 23.09375 L 9.054688 22.816406 L 9.21875 22.484375 L 9.363281 22.101562 L 9.492188 21.648438 L 9.597656 21.125 L 9.6875 20.519531 L 9.761719 19.824219 L 9.8125 19.027344 L 9.851562 18.125 L 9.871094 17.105469 L 9.878906 15.976562 L 9.871094 14.726562 L 9.851562 13.367188 L 9.820312 11.898438 L 9.789062 10.335938 L 9.753906 8.683594 L 9.730469 6.957031 L 9.714844 5.171875 L 9.714844 3.34375 L 9.726562 1.496094 L 9.753906 -0.359375 L 9.789062 -2.203125 L 9.828125 -4.019531 L 9.867188 -5.789062 L 9.902344 -7.496094 L 9.921875 -9.128906 L 9.929688 -10.675781 L 9.929688 -12.125 L 9.917969 -13.472656 L 9.902344 -14.710938 L 9.886719 -15.839844 L 9.882812 -16.855469 L 9.894531 -17.761719 L 9.929688 -18.558594 L 9.992188 -19.257812 L 10.082031 -19.855469 L 10.195312 -20.367188 L 10.324219 -20.796875 L 10.464844 -21.152344 L 10.609375 -21.445312 L 10.746094 -21.679688 L 10.871094 -21.863281 L 10.976562 -22.003906 L 11.058594 -22.109375 L 11.117188 -22.1875 L 11.175781 -22.257812 L 11.1875 -22.273438 L 11.265625 -22.371094 L 11.390625 -22.542969 L 11.46875 -22.761719 L 11.34375 -23.011719 L 10.851562 -23.308594 L 9.875 -23.664062 L 8.414062 -24.066406 L 6.5625 -24.460938 L 4.453125 -24.78125 L 2.242188 -24.964844 L 0.0585938 -25.027344 L -1.960938 -25.027344 L -3.699219 -25.0625 L -5.082031 -25.1875 L -6.070312 -25.402344 L -6.691406 -25.632812 L -6.984375 -25.78125 L -7.019531 -25.800781 " transform="matrix(1, 0, 0, 1, 114, 159)"/>
<path fill-rule="evenodd" fill="rgb(100%, 100%, 100%)" fill-opacity="1" stroke-width="1" stroke-linecap="butt" stroke-linejoin="bevel" stroke="rgb(50.048876%, 50.048876%, 50.048876%)" stroke-opacity="1" stroke-miterlimit="10" d="M -2.199219 -24.535156 L -2.203125 -24.535156 L -2.226562 -24.53125 L -2.269531 -24.519531 L -2.335938 -24.5 L -2.425781 -24.46875 L -2.535156 -24.421875 L -2.667969 -24.359375 L -2.820312 -24.269531 L -2.988281 -24.160156 L -3.164062 -24.023438 L -3.351562 -23.863281 L -3.535156 -23.679688 L -3.714844 -23.46875 L -3.882812 -23.238281 L -4.039062 -22.988281 L -4.171875 -22.714844 L -4.289062 -22.417969 L -4.382812 -22.097656 L -4.453125 -21.75 L -4.511719 -21.371094 L -4.550781 -20.953125 L -4.578125 -20.492188 L -4.597656 -19.988281 L -4.613281 -19.429688 L -4.621094 -18.816406 L -4.632812 -18.140625 L -4.640625 -17.40625 L -4.652344 -16.605469 L -4.667969 -15.738281 L -4.683594 -14.804688 L -4.699219 -13.808594 L -4.71875 -12.75 L -4.738281 -11.632812 L -4.761719 -10.460938 L -4.785156 -9.238281 L -4.8125 -7.972656 L -4.84375 -6.667969 L -4.875 -5.332031 L -4.910156 -3.96875 L -4.949219 -2.589844 L -4.988281 -1.203125 L -5.027344 0.191406 L -5.066406 1.578125 L -5.105469 2.949219 L -5.136719 4.304688 L -5.164062 5.632812 L -5.183594 6.925781 L -5.199219 8.183594 L -5.207031 9.394531 L -5.207031 10.554688 L -5.199219 11.664062 L -5.183594 12.714844 L -5.15625 13.710938 L -5.125 14.640625 L -5.089844 15.507812 L -5.046875 16.3125 L -5 17.054688 L -4.957031 17.734375 L -4.917969 18.355469 L -4.886719 18.914062 L -4.863281 19.414062 L -4.855469 19.863281 L -4.855469 20.257812 L -4.863281 20.609375 L -4.882812 20.910156 L -4.902344 21.171875 L -4.921875 21.398438 L -4.9375 21.589844 L -4.941406 21.75 L -4.929688 21.882812 L -4.90625 21.996094 L -4.871094 22.082031 L -4.824219 22.15625 L -4.773438 22.210938 L -4.722656 22.253906 L -4.679688 22.28125 L -4.648438 22.300781 L -4.628906 22.3125 L -4.613281 22.320312 L -4.476562 22.402344 L -4.207031 22.605469 L -3.800781 22.972656 L -3.261719 23.507812 L -2.605469 24.128906 L -1.859375 24.703125 L -1.0625 25.113281 L -0.25 25.304688 L 0.511719 25.324219 L 1.171875 25.257812 L 1.679688 25.195312 L 2.015625 25.171875 L 2.179688 25.175781 L 2.203125 25.175781 L 2.226562 25.179688 L 2.273438 25.183594 L 2.339844 25.191406 L 2.425781 25.203125 L 2.53125 25.21875 L 2.65625 25.238281 L 2.796875 25.253906 L 2.949219 25.261719 L 3.117188 25.25 L 3.296875 25.214844 L 3.480469 25.140625 L 3.667969 25.027344 L 3.851562 24.863281 L 4.03125 24.652344 L 4.203125 24.386719 L 4.355469 24.078125 L 4.488281 23.722656 L 4.597656 23.324219 L 4.6875 22.894531 L 4.753906 22.425781 L 4.804688 21.929688 L 4.835938 21.394531 L 4.855469 20.824219 L 4.867188 20.210938 L 4.875 19.554688 L 4.886719 18.84375 L 4.894531 18.078125 L 4.910156 17.25 L 4.929688 16.355469 L 4.957031 15.398438 L 4.988281 14.375 L 5.023438 13.285156 L 5.058594 12.128906 L 5.097656 10.917969 L 5.136719 9.652344 L 5.171875 8.335938 L 5.207031 6.980469 L 5.234375 5.589844 L 5.261719 4.171875 L 5.277344 2.734375 L 5.289062 1.289062 L 5.296875 -0.160156 L 5.300781 -1.601562 L 5.296875 -3.027344 L 5.292969 -4.429688 L 5.285156 -5.800781 L 5.277344 -7.136719 L 5.261719 -8.429688 L 5.246094 -9.667969 L 5.226562 -10.855469 L 5.199219 -11.984375 L 5.164062 -13.050781 L 5.121094 -14.050781 L 5.070312 -14.988281 L 5.007812 -15.855469 L 4.945312 -16.65625 L 4.878906 -17.390625 L 4.820312 -18.058594 L 4.765625 -18.660156 L 4.722656 -19.203125 L 4.695312 -19.6875 L 4.679688 -20.113281 L 4.683594 -20.488281 L 4.695312 -20.816406 L 4.71875 -21.097656 L 4.75 -21.339844 L 4.78125 -21.542969 L 4.8125 -21.714844 L 4.835938 -21.859375 L 4.855469 -21.976562 L 4.867188 -22.070312 L 4.875 -22.148438 L 4.878906 -22.207031 L 4.875 -22.25 L 4.875 -22.28125 L 4.871094 -22.300781 L 4.871094 -22.3125 L 4.867188 -22.324219 L 4.847656 -22.398438 L 4.773438 -22.539062 L 4.578125 -22.738281 L 4.1875 -23.042969 L 3.566406 -23.476562 L 2.738281 -23.984375 L 1.777344 -24.449219 L 0.785156 -24.742188 L -0.148438 -24.832031 L -0.949219 -24.777344 L -1.570312 -24.667969 L -1.976562 -24.582031 L -2.175781 -24.542969 L -2.199219 -24.535156 " transform="matrix(1, 0, 0, 1, 79, 29)"/>
<path fill-rule="evenodd" fill="rgb(100%, 100%, 100%)" fill-opacity="1" stroke-width="1" stroke-linecap="butt" stroke-linejoin="bevel" stroke="rgb(50.048876%, 50.048876%, 50.048876%)" stroke-opacity="1" stroke-miterlimit="10" d="M -2.199219 -3.824219 L -2.222656 -3.78125 L -2.386719 -3.492188 L -2.726562 -3.027344 L -3.214844 -2.542969 L -3.761719 -2.121094 L -4.234375 -1.746094 L -4.542969 -1.332031 L -4.679688 -0.796875 L -4.75 -0.152344 L -4.882812 0.539062 L -5.152344 1.175781 L -5.53125 1.679688 L -5.902344 2.015625 L -6.132812 2.179688 L -6.164062 2.199219 L -6.195312 2.222656 L -6.382812 2.382812 L -6.515625 2.695312 L -6.277344 3.132812 L -5.511719 3.621094 L -4.304688 4.085938 L -2.914062 4.46875 L -1.582031 4.753906 L -0.449219 4.964844 L 0.460938 5.117188 L 1.164062 5.207031 L 1.679688 5.238281 L 2.015625 5.226562 L 2.179688 5.203125 L 2.199219 5.203125 L 2.222656 5.199219 L 2.382812 5.148438 L 2.703125 4.980469 L 3.132812 4.601562 L 3.597656 3.972656 L 3.996094 3.136719 L 4.269531 2.1875 L 4.421875 1.21875 L 4.496094 0.3125 L 4.515625 -0.496094 L 4.46875 -1.167969 L 4.355469 -1.679688 L 4.203125 -2.015625 L 4.097656 -2.179688 L 4.082031 -2.199219 L 4.066406 -2.222656 L 3.941406 -2.378906 L 3.703125 -2.667969 L 3.359375 -3.058594 L 2.914062 -3.503906 L 2.371094 -3.976562 L 1.726562 -4.441406 L 0.996094 -4.847656 L 0.226562 -5.125 L -0.519531 -5.179688 L -1.171875 -4.984375 L -1.679688 -4.589844 L -2.015625 -4.148438 L -2.179688 -3.863281 L -2.199219 -3.824219 " transform="matrix(1, 0, 0, 1, 109, 229)"/>
<path fill-rule="evenodd" fill="rgb(100%, 100%, 100%)" fill-opacity="1" stroke-width="1" stroke-linecap="butt" stroke-linejoin="bevel" stroke="rgb(50.048876%, 50.048876%, 50.048876%)" stroke-opacity="1" stroke-miterlimit="10" d="M -7.019531 -9.519531 L -7.050781 -9.507812 L -7.28125 -9.410156 L -7.671875 -9.214844 L -8.128906 -8.894531 L -8.570312 -8.425781 L -8.949219 -7.765625 L -9.257812 -6.867188 L -9.5 -5.695312 L -9.671875 -4.246094 L -9.761719 -2.566406 L -9.769531 -0.746094 L -9.710938 1.078125 L -9.625 2.777344 L -9.53125 4.234375 L -9.449219 5.386719 L -9.390625 6.214844 L -9.347656 6.738281 L -9.324219 6.988281 L -9.316406 7.050781 L -9.285156 7.285156 L -9.191406 7.710938 L -8.976562 8.242188 L -8.582031 8.789062 L -7.941406 9.265625 L -7.023438 9.625 L -5.808594 9.867188 L -4.316406 10.011719 L -2.601562 10.09375 L -0.761719 10.128906 L 1.074219 10.113281 L 2.773438 10.046875 L 4.234375 9.933594 L 5.386719 9.796875 L 6.214844 9.667969 L 6.738281 9.570312 L 6.988281 9.519531 L 7.050781 9.503906 L 7.285156 9.449219 L 7.707031 9.308594 L 8.230469 9.046875 L 8.761719 8.609375 L 9.21875 7.941406 L 9.5625 7.011719 L 9.789062 5.796875 L 9.917969 4.304688 L 9.976562 2.59375 L 9.96875 0.757812 L 9.921875 -1.074219 L 9.890625 -2.773438 L 9.953125 -4.234375 L 10.160156 -5.386719 L 10.492188 -6.214844 L 10.847656 -6.738281 L 11.078125 -6.988281 L 11.140625 -7.050781 L 11.355469 -7.289062 L 11.601562 -7.722656 L 11.625 -8.285156 L 11.199219 -8.867188 L 10.234375 -9.371094 L 8.78125 -9.71875 L 6.984375 -9.886719 L 4.992188 -9.917969 L 2.929688 -9.882812 L 0.894531 -9.851562 L -1.03125 -9.855469 L -2.765625 -9.886719 L -4.234375 -9.894531 L -5.386719 -9.847656 L -6.214844 -9.742188 L -6.738281 -9.613281 L -6.988281 -9.53125 L -7.019531 -9.519531 " transform="matrix(1, 0, 0, 1, 114, 194)"/>
<path fill-rule="evenodd" fill="rgb(100%, 100%, 100%)" fill-opacity="1" stroke-width="1" stroke-linecap="butt" stroke-linejoin="bevel" stroke="rgb(50.048876%, 50.048876%, 50.048876%)" stroke-opacity="1" stroke-miterlimit="10" d="M -11.777344 -15.171875 L -11.828125 -15.179688 L -12.203125 -15.214844 L -12.820312 -15.195312 L -13.464844 -14.984375 L -13.957031 -14.433594 L -14.21875 -13.425781 L -14.273438 -11.894531 L -14.21875 -9.835938 L -14.160156 -7.296875 L -14.175781 -4.394531 L -14.300781 -1.292969 L -14.542969 1.796875 L -14.871094 4.652344 L -15.242188 7.101562 L -15.59375 9.035156 L -15.882812 10.425781 L -16.082031 11.304688 L -16.179688 11.722656 L -16.191406 11.777344 L -16.203125 11.835938 L -16.3125 12.296875 L -16.496094 13.117188 L -16.652344 14.113281 L -16.582031 15.046875 L -16.050781 15.710938 L -14.847656 16.003906 L -12.898438 15.972656 L -10.253906 15.746094 L -7.078125 15.464844 L -3.589844 15.234375 L -0.0429688 15.097656 L 3.300781 15.078125 L 6.210938 15.171875 L 8.523438 15.347656 L 10.183594 15.550781 L 11.222656 15.722656 L 11.714844 15.824219 L 11.777344 15.835938 L 11.828125 15.847656 L 12.214844 15.910156 L 12.878906 15.921875 L 13.644531 15.714844 L 14.324219 15.105469 L 14.78125 13.984375 L 14.984375 12.3125 L 14.996094 10.109375 L 14.925781 7.453125 L 14.882812 4.46875 L 14.921875 1.320312 L 15.027344 -1.785156 L 15.140625 -4.652344 L 15.207031 -7.101562 L 15.199219 -9.035156 L 15.136719 -10.425781 L 15.058594 -11.304688 L 15.007812 -11.722656 L 15 -11.777344 L 14.992188 -11.828125 L 14.925781 -12.210938 L 14.753906 -12.851562 L 14.414062 -13.566406 L 13.808594 -14.183594 L 12.84375 -14.613281 L 11.433594 -14.855469 L 9.519531 -14.972656 L 7.113281 -15.027344 L 4.300781 -15.058594 L 1.253906 -15.070312 L -1.808594 -15.058594 L -4.65625 -15.027344 L -7.101562 -15.003906 L -9.035156 -15.007812 L -10.425781 -15.054688 L -11.304688 -15.121094 L -11.722656 -15.167969 L -11.777344 -15.171875 " transform="matrix(1, 0, 0, 1, 89, 169)"/>
<path fill-rule="evenodd" fill="rgb(100%, 100%, 100%)" fill-opacity="1" stroke-width="1" stroke-linecap="butt" stroke-linejoin="bevel" stroke="rgb(50.048876%, 50.048876%, 50.048876%)" stroke-opacity="1" stroke-miterlimit="10" d="M -32.203125 -15.03125 L -32.222656 -15.019531 L -32.363281 -14.890625 L -32.613281 -14.59375 L -32.9375 -14.082031 L -33.304688 -13.382812 L -33.710938 -12.527344 L -34.121094 -11.507812 L -34.476562 -10.199219 L -34.710938 -8.417969 L -34.800781 -6.042969 L -34.765625 -3.117188 L -34.667969 0.125 L -34.570312 3.347656 L -34.511719 6.21875 L -34.503906 8.523438 L -34.539062 10.183594 L -34.585938 11.222656 L -34.617188 11.714844 L -34.621094 11.777344 L -34.625 11.789062 L -34.628906 11.894531 L -34.640625 12.089844 L -34.644531 12.363281 L -34.628906 12.695312 L -34.585938 13.054688 L -34.503906 13.421875 L -34.367188 13.777344 L -34.171875 14.109375 L -33.910156 14.410156 L -33.578125 14.675781 L -33.167969 14.902344 L -32.679688 15.097656 L -32.101562 15.257812 L -31.429688 15.386719 L -30.652344 15.484375 L -29.757812 15.550781 L -28.734375 15.589844 L -27.566406 15.597656 L -26.246094 15.582031 L -24.769531 15.542969 L -23.125 15.488281 L -21.316406 15.425781 L -19.34375 15.359375 L -17.21875 15.292969 L -14.953125 15.234375 L -12.5625 15.179688 L -10.0625 15.136719 L -7.480469 15.101562 L -4.839844 15.078125 L -2.164062 15.066406 L 0.523438 15.0625 L 3.191406 15.066406 L 5.816406 15.078125 L 8.375 15.09375 L 10.84375 15.117188 L 13.207031 15.136719 L 15.445312 15.160156 L 17.542969 15.179688 L 19.492188 15.195312 L 21.285156 15.203125 L 22.914062 15.203125 L 24.386719 15.191406 L 25.695312 15.171875 L 26.851562 15.140625 L 27.859375 15.105469 L 28.730469 15.066406 L 29.46875 15.03125 L 30.089844 15.003906 L 30.605469 14.996094 L 31.027344 15.007812 L 31.363281 15.050781 L 31.632812 15.113281 L 31.835938 15.191406 L 31.988281 15.28125 L 32.097656 15.359375 L 32.167969 15.425781 L 32.199219 15.457031 L 32.203125 15.464844 L 32.21875 15.480469 L 32.347656 15.589844 L 32.605469 15.683594 L 32.96875 15.5625 L 33.394531 15.035156 L 33.8125 13.96875 L 34.152344 12.320312 L 34.371094 10.125 L 34.460938 7.464844 L 34.441406 4.476562 L 34.351562 1.324219 L 34.214844 -1.785156 L 34.046875 -4.652344 L 33.867188 -7.101562 L 33.703125 -9.035156 L 33.566406 -10.425781 L 33.472656 -11.304688 L 33.425781 -11.722656 L 33.417969 -11.777344 L 33.417969 -11.789062 L 33.40625 -11.902344 L 33.378906 -12.117188 L 33.34375 -12.429688 L 33.296875 -12.820312 L 33.242188 -13.269531 L 33.175781 -13.746094 L 33.097656 -14.230469 L 33.007812 -14.6875 L 32.902344 -15.089844 L 32.777344 -15.421875 L 32.617188 -15.667969 L 32.410156 -15.828125 L 32.144531 -15.902344 L 31.800781 -15.90625 L 31.359375 -15.851562 L 30.796875 -15.761719 L 30.097656 -15.648438 L 29.242188 -15.527344 L 28.207031 -15.40625 L 26.988281 -15.292969 L 25.570312 -15.191406 L 23.953125 -15.089844 L 22.136719 -14.996094 L 20.128906 -14.898438 L 17.9375 -14.800781 L 15.582031 -14.703125 L 13.082031 -14.609375 L 10.460938 -14.519531 L 7.75 -14.441406 L 4.96875 -14.382812 L 2.152344 -14.347656 L -0.664062 -14.332031 L -3.460938 -14.34375 L -6.203125 -14.375 L -8.863281 -14.425781 L -11.421875 -14.488281 L -13.851562 -14.558594 L -16.140625 -14.632812 L -18.273438 -14.710938 L -20.238281 -14.792969 L -22.027344 -14.871094 L -23.644531 -14.949219 L -25.085938 -15.027344 L -26.359375 -15.105469 L -27.464844 -15.179688 L -28.421875 -15.246094 L -29.230469 -15.300781 L -29.914062 -15.34375 L -30.476562 -15.363281 L -30.933594 -15.363281 L -31.300781 -15.335938 L -31.589844 -15.292969 L -31.8125 -15.234375 L -31.976562 -15.167969 L -32.089844 -15.109375 L -32.164062 -15.0625 L -32.199219 -15.035156 L -32.203125 -15.03125 " transform="matrix(1, 0, 0, 1, 39, 124)"/>
<path fill-rule="evenodd" fill="rgb(100%, 100%, 100%)" fill-opacity="1" stroke-width="1" stroke-linecap="butt" stroke-linejoin="bevel" stroke="rgb(50.048876%, 50.048876%, 50.048876%)" stroke-opacity="1" stroke-miterlimit="10" d="M -12.230469 -9.109375 L -12.242188 -9.101562 L -12.355469 -9.042969 L -12.59375 -8.910156 L -12.960938 -8.667969 L -13.414062 -8.273438 L -13.878906 -7.675781 L -14.273438 -6.820312 L -14.539062 -5.671875 L -14.679688 -4.238281 L -14.730469 -2.5625 L -14.75 -0.746094 L -14.773438 1.078125 L -14.824219 2.777344 L -14.898438 4.234375 L -14.992188 5.386719 L -15.09375 6.214844 L -15.179688 6.738281 L -15.230469 6.988281 L -15.234375 7.019531 L -15.265625 7.144531 L -15.316406 7.351562 L -15.394531 7.640625 L -15.488281 7.992188 L -15.574219 8.371094 L -15.617188 8.746094 L -15.570312 9.089844 L -15.398438 9.375 L -15.066406 9.585938 L -14.5625 9.726562 L -13.894531 9.804688 L -13.074219 9.832031 L -12.117188 9.832031 L -11.042969 9.816406 L -9.863281 9.796875 L -8.578125 9.78125 L -7.191406 9.769531 L -5.710938 9.765625 L -4.152344 9.761719 L -2.535156 9.765625 L -0.886719 9.777344 L 0.757812 9.800781 L 2.363281 9.835938 L 3.890625 9.882812 L 5.316406 9.933594 L 6.613281 9.992188 L 7.765625 10.039062 L 8.769531 10.074219 L 9.617188 10.089844 L 10.316406 10.074219 L 10.882812 10.035156 L 11.324219 9.96875 L 11.65625 9.890625 L 11.902344 9.808594 L 12.070312 9.734375 L 12.171875 9.683594 L 12.222656 9.652344 L 12.230469 9.648438 L 12.242188 9.640625 L 12.351562 9.570312 L 12.554688 9.410156 L 12.835938 9.121094 L 13.167969 8.65625 L 13.519531 7.96875 L 13.859375 7.023438 L 14.171875 5.800781 L 14.445312 4.308594 L 14.671875 2.59375 L 14.839844 0.757812 L 14.941406 -1.074219 L 14.972656 -2.773438 L 14.953125 -4.234375 L 14.902344 -5.386719 L 14.84375 -6.214844 L 14.800781 -6.738281 L 14.78125 -6.988281 L 14.777344 -7.019531 L 14.777344 -7.035156 L 14.765625 -7.144531 L 14.746094 -7.351562 L 14.714844 -7.640625 L 14.667969 -7.988281 L 14.597656 -8.355469 L 14.488281 -8.71875 L 14.324219 -9.039062 L 14.089844 -9.296875 L 13.773438 -9.488281 L 13.355469 -9.621094 L 12.835938 -9.707031 L 12.199219 -9.769531 L 11.441406 -9.820312 L 10.554688 -9.875 L 9.527344 -9.933594 L 8.363281 -9.984375 L 7.066406 -10.015625 L 5.640625 -10.023438 L 4.117188 -9.996094 L 2.515625 -9.945312 L 0.878906 -9.875 L -0.761719 -9.804688 L -2.363281 -9.746094 L -3.890625 -9.707031 L -5.316406 -9.6875 L -6.613281 -9.679688 L -7.765625 -9.667969 L -8.769531 -9.644531 L -9.617188 -9.605469 L -10.316406 -9.550781 L -10.882812 -9.480469 L -11.324219 -9.402344 L -11.65625 -9.320312 L -11.902344 -9.246094 L -12.070312 -9.183594 L -12.171875 -9.136719 L -12.222656 -9.109375 L -12.230469 -9.109375 " transform="matrix(1, 0, 0, 1, 119, 214)"/>
<path fill-rule="evenodd" fill="rgb(100%, 100%, 100%)" fill-opacity="1" stroke-width="1" stroke-linecap="butt" stroke-linejoin="bevel" stroke="rgb(50.048876%, 50.048876%, 50.048876%)" stroke-opacity="1" stroke-miterlimit="10" d="M -17.296875 -5.148438 L -17.3125 -5.164062 L -17.402344 -5.285156 L -17.566406 -5.5625 L -17.792969 -5.878906 L -18.09375 -5.910156 L -18.480469 -5.351562 L -18.878906 -4.167969 L -19.203125 -2.652344 L -19.386719 -1.179688 L -19.457031 0.0234375 L -19.480469 0.925781 L -19.515625 1.566406 L -19.5625 1.976562 L -19.597656 2.175781 L -19.601562 2.199219 L -19.601562 2.203125 L -19.605469 2.230469 L -19.613281 2.289062 L -19.613281 2.371094 L -19.601562 2.480469 L -19.566406 2.609375 L -19.496094 2.761719 L -19.390625 2.929688 L -19.246094 3.109375 L -19.054688 3.296875 L -18.820312 3.484375 L -18.546875 3.667969 L -18.234375 3.84375 L -17.886719 4.007812 L -17.503906 4.15625 L -17.085938 4.289062 L -16.625 4.40625 L -16.121094 4.507812 L -15.570312 4.589844 L -14.960938 4.660156 L -14.289062 4.714844 L -13.546875 4.753906 L -12.734375 4.78125 L -11.847656 4.796875 L -10.886719 4.808594 L -9.851562 4.8125 L -8.75 4.8125 L -7.582031 4.820312 L -6.363281 4.824219 L -5.09375 4.832031 L -3.789062 4.84375 L -2.457031 4.847656 L -1.109375 4.851562 L 0.242188 4.847656 L 1.585938 4.832031 L 2.910156 4.804688 L 4.207031 4.773438 L 5.460938 4.730469 L 6.667969 4.6875 L 7.820312 4.640625 L 8.910156 4.597656 L 9.929688 4.558594 L 10.875 4.53125 L 11.75 4.515625 L 12.542969 4.507812 L 13.265625 4.515625 L 13.910156 4.53125 L 14.480469 4.5625 L 14.984375 4.597656 L 15.421875 4.640625 L 15.796875 4.6875 L 16.113281 4.734375 L 16.382812 4.78125 L 16.605469 4.820312 L 16.785156 4.855469 L 16.933594 4.882812 L 17.046875 4.902344 L 17.136719 4.914062 L 17.203125 4.921875 L 17.25 4.925781 L 17.308594 4.925781 L 17.394531 4.902344 L 17.574219 4.777344 L 17.84375 4.453125 L 18.171875 3.875 L 18.527344 3.082031 L 18.882812 2.160156 L 19.21875 1.210938 L 19.5 0.308594 L 19.636719 -0.496094 L 19.546875 -1.167969 L 19.230469 -1.679688 L 18.820312 -2.015625 L 18.535156 -2.179688 L 18.492188 -2.199219 L 18.488281 -2.203125 L 18.429688 -2.230469 L 18.324219 -2.285156 L 18.179688 -2.367188 L 18.003906 -2.464844 L 17.816406 -2.582031 L 17.628906 -2.714844 L 17.449219 -2.855469 L 17.285156 -3.007812 L 17.140625 -3.164062 L 17.011719 -3.328125 L 16.886719 -3.492188 L 16.761719 -3.660156 L 16.617188 -3.828125 L 16.445312 -3.992188 L 16.226562 -4.148438 L 15.949219 -4.292969 L 15.609375 -4.421875 L 15.191406 -4.53125 L 14.6875 -4.617188 L 14.097656 -4.683594 L 13.417969 -4.726562 L 12.652344 -4.753906 L 11.796875 -4.765625 L 10.855469 -4.769531 L 9.832031 -4.777344 L 8.738281 -4.792969 L 7.578125 -4.816406 L 6.359375 -4.859375 L 5.09375 -4.914062 L 3.785156 -4.984375 L 2.457031 -5.066406 L 1.109375 -5.15625 L -0.242188 -5.246094 L -1.585938 -5.328125 L -2.910156 -5.394531 L -4.207031 -5.449219 L -5.460938 -5.480469 L -6.667969 -5.492188 L -7.820312 -5.484375 L -8.910156 -5.457031 L -9.929688 -5.417969 L -10.875 -5.371094 L -11.75 -5.320312 L -12.542969 -5.269531 L -13.265625 -5.222656 L -13.910156 -5.179688 L -14.480469 -5.140625 L -14.984375 -5.101562 L -15.421875 -5.070312 L -15.796875 -5.039062 L -16.113281 -5.011719 L -16.382812 -4.992188 L -16.605469 -4.976562 L -16.785156 -4.976562 L -16.933594 -4.988281 L -17.046875 -5.007812 L -17.136719 -5.039062 L -17.203125 -5.074219 L -17.28125 -5.132812 L -17.296875 -5.148438 " transform="matrix(1, 0, 0, 1, 144, 159)"/>
<path fill-rule="evenodd" fill="rgb(100%, 100%, 100%)" fill-opacity="1" stroke-width="1" stroke-linecap="butt" stroke-linejoin="bevel" stroke="rgb(50.048876%, 50.048876%, 50.048876%)" stroke-opacity="1" stroke-miterlimit="10" d="M -7.019531 -15.734375 L -7.035156 -15.738281 L -7.144531 -15.777344 L -7.351562 -15.855469 L -7.644531 -15.96875 L -7.996094 -16.113281 L -8.386719 -16.257812 L -8.777344 -16.347656 L -9.148438 -16.332031 L -9.46875 -16.160156 L -9.722656 -15.792969 L -9.90625 -15.226562 L -10.019531 -14.464844 L -10.078125 -13.535156 L -10.105469 -12.472656 L -10.117188 -11.296875 L -10.136719 -10.035156 L -10.171875 -8.683594 L -10.234375 -7.253906 L -10.316406 -5.746094 L -10.414062 -4.167969 L -10.519531 -2.542969 L -10.613281 -0.890625 L -10.691406 0.757812 L -10.738281 2.363281 L -10.757812 3.890625 L -10.746094 5.316406 L -10.703125 6.613281 L -10.632812 7.765625 L -10.539062 8.769531 L -10.433594 9.617188 L -10.316406 10.316406 L -10.203125 10.882812 L -10.101562 11.324219 L -10.015625 11.65625 L -9.953125 11.902344 L -9.910156 12.070312 L -9.890625 12.171875 L -9.878906 12.222656 L -9.878906 12.230469 L -9.875 12.242188 L -9.847656 12.351562 L -9.746094 12.570312 L -9.5 12.875 L -9.039062 13.226562 L -8.308594 13.566406 L -7.289062 13.84375 L -5.976562 14.035156 L -4.410156 14.160156 L -2.644531 14.265625 L -0.78125 14.402344 L 1.066406 14.566406 L 2.773438 14.738281 L 4.234375 14.859375 L 5.386719 14.898438 L 6.214844 14.863281 L 6.738281 14.785156 L 6.988281 14.730469 L 7.035156 14.71875 L 7.132812 14.691406 L 7.320312 14.628906 L 7.585938 14.535156 L 7.898438 14.390625 L 8.242188 14.199219 L 8.585938 13.945312 L 8.90625 13.632812 L 9.183594 13.25 L 9.40625 12.796875 L 9.570312 12.265625 L 9.679688 11.640625 L 9.746094 10.914062 L 9.78125 10.078125 L 9.804688 9.117188 L 9.828125 8.03125 L 9.859375 6.824219 L 9.894531 5.503906 L 9.933594 4.085938 L 9.976562 2.597656 L 10.007812 1.070312 L 10.03125 -0.46875 L 10.035156 -1.984375 L 10.023438 -3.445312 L 9.992188 -4.824219 L 9.949219 -6.097656 L 9.898438 -7.25 L 9.851562 -8.269531 L 9.808594 -9.15625 L 9.785156 -9.902344 L 9.777344 -10.519531 L 9.789062 -11.019531 L 9.816406 -11.414062 L 9.847656 -11.710938 L 9.882812 -11.929688 L 9.910156 -12.082031 L 9.933594 -12.179688 L 9.941406 -12.222656 L 9.945312 -12.230469 L 9.949219 -12.242188 L 9.960938 -12.351562 L 9.917969 -12.566406 L 9.726562 -12.882812 L 9.289062 -13.300781 L 8.542969 -13.800781 L 7.472656 -14.335938 L 6.105469 -14.828125 L 4.484375 -15.195312 L 2.683594 -15.390625 L 0.792969 -15.421875 L -1.0625 -15.363281 L -2.773438 -15.304688 L -4.234375 -15.308594 L -5.386719 -15.390625 L -6.214844 -15.523438 L -6.738281 -15.648438 L -6.988281 -15.722656 L -7.019531 -15.734375 " transform="matrix(1, 0, 0, 1, 94, 104)"/>
</svg>
