<?xml version="1.0" encoding="UTF-8"?>
<svg xmlns="http://www.w3.org/2000/svg" xmlns:xlink="http://www.w3.org/1999/xlink" width="217.013156" height="280.832816" viewBox="0 0 217.013156 280.832816">
<path fill-rule="evenodd" fill="rgb(100%, 100%, 100%)" fill-opacity="1" stroke-width="1" stroke-linecap="butt" stroke-linejoin="bevel" stroke="rgb(50.048876%, 50.048876%, 50.048876%)" stroke-opacity="1" stroke-miterlimit="10" d="M -2.198893 -48.792643 L -2.202799 -48.792643 L -2.210611 -48.788736 L -2.234049 -48.780924 L -2.265299 -48.769205 L -2.304361 -48.75358 L -2.355143 -48.734049 L -2.413736 -48.710611 L -2.480143 -48.679361 L -2.554361 -48.644205 L -2.640299 -48.601236 L -2.730143 -48.554361 L -2.827799 -48.499674 L -2.933268 -48.44108 L -3.046549 -48.374674 L -3.163736 -48.304361 L -3.28483 -48.226236 L -3.413736 -48.144205 L -3.542643 -48.058268 L -3.671549 -47.968424 L -3.800455 -47.870768 L -3.925455 -47.769205 L -4.050455 -47.663736 L -4.163736 -47.550455 L -4.273111 -47.433268 L -4.370768 -47.304361 L -4.460611 -47.171549 L -4.53483 -47.030924 L -4.601236 -46.87858 L -4.65983 -46.718424 L -4.702799 -46.542643 L -4.737955 -46.355143 L -4.765299 -46.148111 L -4.788736 -45.925455 L -4.804361 -45.687174 L -4.81608 -45.425455 L -4.823893 -45.144205 L -4.827799 -44.835611 L -4.835611 -44.507486 L -4.839518 -44.152018 L -4.843424 -43.769205 L -4.851236 -43.359049 L -4.855143 -42.917643 L -4.859049 -42.444986 L -4.866861 -41.944986 L -4.870768 -41.40983 L -4.874674 -40.843424 L -4.882486 -40.245768 L -4.886393 -39.609049 L -4.890299 -38.94108 L -4.898111 -38.237955 L -4.905924 -37.499674 L -4.913736 -36.726236 L -4.921549 -35.917643 L -4.933268 -35.069986 L -4.944986 -34.19108 L -4.956705 -33.273111 L -4.968424 -32.323893 L -4.980143 -31.339518 L -4.991861 -30.319986 L -5.00358 -29.265299 L -5.015299 -28.179361 L -5.023111 -27.062174 L -5.030924 -25.913736 L -5.038736 -24.734049 L -5.042643 -23.527018 L -5.046549 -22.288736 L -5.050455 -21.027018 L -5.054361 -19.737955 L -5.054361 -18.425455 L -5.058268 -17.089518 L -5.058268 -15.734049 L -5.062174 -14.359049 L -5.069986 -12.964518 L -5.073893 -11.554361 L -5.081705 -10.132486 L -5.089518 -8.694986 L -5.101236 -7.249674 L -5.112955 -5.796549 L -5.124674 -4.335611 L -5.136393 -2.866861 L -5.167643 0.0706387 L -5.198893 3.000326 L -5.218424 4.461264 L -5.234049 5.914389 L -5.25358 7.355795 L -5.269205 8.785482 L -5.28483 10.207357 L -5.296549 11.609701 L -5.308268 13.000326 L -5.319986 14.367514 L -5.323893 15.719076 L -5.323893 17.051107 L -5.319986 18.355795 L -5.312174 19.640951 L -5.300455 20.898764 L -5.280924 22.129232 L -5.261393 23.332357 L -5.234049 24.508139 L -5.206705 25.65267 L -5.179361 26.765951 L -5.148111 27.851889 L -5.120768 28.90267 L -5.09733 29.922201 L -5.073893 30.910482 L -5.054361 31.863607 L -5.042643 32.781576 L -5.03483 33.668295 L -5.030924 34.519857 L -5.03483 35.34017 L -5.042643 36.12142 L -5.054361 36.875326 L -5.073893 37.59017 L -5.09733 38.27767 L -5.124674 38.926107 L -5.152018 39.547201 L -5.183268 40.133139 L -5.214518 40.691732 L -5.245768 41.219076 L -5.277018 41.71517 L -5.304361 42.180014 L -5.331705 42.62142 L -5.355143 43.031576 L -5.374674 43.418295 L -5.386393 43.77767 L -5.398111 44.113607 L -5.402018 44.426107 L -5.402018 44.71517 L -5.398111 44.980795 L -5.386393 45.226889 L -5.370768 45.457357 L -5.34733 45.664389 L -5.323893 45.855795 L -5.292643 46.02767 L -5.261393 46.187826 L -5.22233 46.328451 L -5.179361 46.461264 L -5.132486 46.574545 L -5.081705 46.680014 L -5.027018 46.773764 L -4.968424 46.859701 L -4.905924 46.93392 L -4.835611 46.99642 L -4.765299 47.055014 L -4.69108 47.105795 L -4.612955 47.148764 L -4.53483 47.187826 L -4.456705 47.219076 L -4.382486 47.250326 L -4.308268 47.273764 L -4.237955 47.293295 L -4.175455 47.30892 L -4.120768 47.320639 L -4.077799 47.332357 L -4.042643 47.34017 L -4.019205 47.344076 L -4.00358 47.344076 L -3.976236 47.351889 L -3.734049 47.390951 L -3.22233 47.476889 L -2.515299 47.640951 L -1.812174 47.961264 L -1.31608 48.472982 L -1.030924 49.086264 L -0.773111 49.62142 L -0.34733 49.930014 L 0.281576 50.000326 L 0.976889 49.957357 L 1.570639 49.937826 L 1.976889 49.988607 L 2.176107 50.051107 L 2.199545 50.062826 L 2.203451 50.062826 L 2.211264 50.066732 L 2.234701 50.074545 L 2.265951 50.09017 L 2.30892 50.113607 L 2.359701 50.140951 L 2.418295 50.176107 L 2.488607 50.219076 L 2.566732 50.265951 L 2.656576 50.320639 L 2.750326 50.379232 L 2.851889 50.43392 L 2.96517 50.488607 L 3.078451 50.531576 L 3.199545 50.562826 L 3.328451 50.578451 L 3.457357 50.570639 L 3.59017 50.543295 L 3.719076 50.484701 L 3.851889 50.398764 L 3.976889 50.285482 L 4.097982 50.144857 L 4.211264 49.972982 L 4.316732 49.77767 L 4.410482 49.55892 L 4.49642 49.320639 L 4.570639 49.066732 L 4.637045 48.797201 L 4.691732 48.519857 L 4.734701 48.230795 L 4.773764 47.93392 L 4.801107 47.633139 L 4.828451 47.328451 L 4.847982 47.015951 L 4.867514 46.695639 L 4.883139 46.367514 L 4.898764 46.031576 L 4.914389 45.68392 L 4.930014 45.320639 L 4.949545 44.941732 L 4.96517 44.543295 L 4.980795 44.125326 L 5.000326 43.68392 L 5.015951 43.211264 L 5.031576 42.71517 L 5.047201 42.187826 L 5.05892 41.629232 L 5.074545 41.039389 L 5.082357 40.414389 L 5.094076 39.754232 L 5.101889 39.05892 L 5.109701 38.324545 L 5.117514 37.55892 L 5.125326 36.750326 L 5.133139 35.906576 L 5.137045 35.02767 L 5.144857 34.105795 L 5.148764 33.15267 L 5.156576 32.160482 L 5.160482 31.133139 L 5.168295 30.066732 L 5.176107 28.969076 L 5.18392 27.836264 L 5.195639 26.672201 L 5.203451 25.472982 L 5.21517 24.24642 L 5.226889 22.984701 L 5.238607 21.699545 L 5.254232 20.387045 L 5.265951 19.047201 L 5.273764 17.68392 L 5.285482 16.301107 L 5.289389 14.894857 L 5.293295 13.469076 L 5.289389 12.02767 L 5.281576 10.574545 L 5.269857 9.105795 L 5.250326 7.625326 L 5.226889 6.137045 L 5.195639 4.644857 L 5.160482 3.144857 L 5.12142 1.644857 L 5.074545 0.140951 L 5.02767 -1.359049 L 4.976889 -2.855143 L 4.930014 -4.34733 L 4.879232 -5.831705 L 4.832357 -7.304361 L 4.789389 -8.765299 L 4.750326 -10.214518 L 4.719076 -11.644205 L 4.695639 -13.058268 L 4.676107 -14.456705 L 4.664389 -15.827799 L 4.660482 -17.183268 L 4.664389 -18.511393 L 4.676107 -19.812174 L 4.691732 -21.089518 L 4.71517 -22.339518 L 4.742514 -23.558268 L 4.773764 -24.745768 L 4.80892 -25.905924 L 4.844076 -27.030924 L 4.879232 -28.124674 L 4.914389 -29.187174 L 4.953451 -30.214518 L 4.988607 -31.206705 L 5.019857 -32.163736 L 5.051107 -33.085611 L 5.078451 -33.976236 L 5.101889 -34.827799 L 5.12142 -35.644205 L 5.137045 -36.429361 L 5.15267 -37.175455 L 5.160482 -37.890299 L 5.168295 -38.569986 L 5.168295 -39.827799 L 5.164389 -40.40983 L 5.160482 -40.960611 L 5.15267 -41.476236 L 5.144857 -41.964518 L 5.140951 -42.425455 L 5.133139 -42.855143 L 5.125326 -43.257486 L 5.12142 -43.632486 L 5.117514 -43.984049 L 5.113607 -44.308268 L 5.113607 -44.609049 L 5.109701 -44.886393 L 5.109701 -45.382486 L 5.105795 -45.59733 L 5.101889 -45.796549 L 5.094076 -45.980143 L 5.086264 -46.144205 L 5.074545 -46.292643 L 5.062826 -46.425455 L 5.043295 -46.546549 L 5.023764 -46.655924 L 5.000326 -46.75358 L 4.976889 -46.839518 L 4.949545 -46.917643 L 4.922201 -46.987955 L 4.890951 -47.046549 L 4.863607 -47.09733 L 4.836264 -47.144205 L 4.80892 -47.183268 L 4.762045 -47.245768 L 4.742514 -47.269205 L 4.726889 -47.288736 L 4.711264 -47.304361 L 4.699545 -47.319986 L 4.691732 -47.331705 L 4.68392 -47.335611 L 4.676107 -47.351236 L 4.629232 -47.405924 L 4.484701 -47.581705 L 4.160482 -47.937174 L 3.62142 -48.433268 L 2.894857 -48.94108 L 2.047201 -49.304361 L 1.156576 -49.452799 L 0.285482 -49.413736 L -0.50358 -49.269205 L -1.171549 -49.101236 L -1.679361 -48.960611 L -2.015299 -48.855143 L -2.179361 -48.800455 L -2.198893 -48.792643 " transform="matrix(1, 0, 0, 1, 95.40983, 112.40983)"/>
<path fill-rule="evenodd" fill="rgb(100%, 100%, 100%)" fill-opacity="1" stroke-width="1" stroke-linecap="butt" stroke-linejoin="bevel" stroke="rgb(50.048876%, 50.048876%, 50.048876%)" stroke-opacity="1" stroke-miterlimit="10" d="M -11.777018 -25.004559 L -11.796549 -25.000652 L -11.960611 -24.949871 L -12.269205 -24.852215 L -12.679361 -24.699871 L -13.140299 -24.49284 L -13.605143 -24.227215 L -14.023111 -23.891277 L -14.366861 -23.473309 L -14.620768 -22.957684 L -14.78483 -22.320965 L -14.874674 -21.535809 L -14.913736 -20.567059 L -14.913736 -19.395184 L -14.902018 -17.988934 L -14.882486 -16.33659 L -14.866861 -14.434246 L -14.851236 -12.285809 L -14.839518 -9.922527 L -14.831705 -7.375652 L -14.827799 -4.692059 L -14.831705 -1.93034 L -14.839518 0.847004 L -14.84733 3.585285 L -14.855143 6.22591 L -14.851236 8.718098 L -14.831705 11.022785 L -14.788736 13.104816 L -14.726236 14.948566 L -14.644205 16.546223 L -14.546549 17.897785 L -14.448893 19.018879 L -14.34733 19.921223 L -14.257486 20.628254 L -14.179361 21.167316 L -14.116861 21.565754 L -14.073893 21.839191 L -14.027018 22.097004 L -14.027018 22.104816 L -14.023111 22.13216 L -13.980143 22.323566 L -13.866861 22.686848 L -13.616861 23.167316 L -13.144205 23.690754 L -12.335611 24.16341 L -11.077799 24.514973 L -9.300455 24.710285 L -6.991861 24.772785 L -4.245768 24.761066 L -1.234049 24.733723 L 1.816732 24.741535 L 4.656576 24.78841 L 7.101889 24.862629 L 9.035482 24.929035 L 10.426107 24.972004 L 11.305014 24.991535 L 11.722982 24.995441 L 11.961264 24.995441 L 12.265951 24.979816 L 12.664389 24.936848 L 13.109701 24.839191 L 13.551107 24.659504 L 13.945639 24.38216 L 14.273764 23.983723 L 14.531576 23.44466 L 14.722982 22.75716 L 14.859701 21.901691 L 14.961264 20.858723 L 15.035482 19.608723 L 15.09017 18.139973 L 15.12142 16.436848 L 15.133139 14.495441 L 15.12142 12.323566 L 15.09017 9.940754 L 15.039389 7.38216 L 14.980795 4.69466 L 14.930014 1.932941 L 14.898764 -0.848309 L 14.890951 -3.58659 L 14.914389 -6.227215 L 14.957357 -8.719402 L 15.019857 -11.02409 L 15.082357 -13.106121 L 15.133139 -14.949871 L 15.168295 -16.547527 L 15.180014 -17.89909 L 15.168295 -19.020184 L 15.129232 -19.922527 L 15.074545 -20.629559 L 15.008139 -21.168621 L 14.937826 -21.567059 L 14.875326 -21.840496 L 14.824545 -22.012371 L 14.797201 -22.098309 L 14.797201 -22.106121 L 14.785482 -22.137371 L 14.703451 -22.352215 L 14.512045 -22.731121 L 14.18392 -23.184246 L 13.703451 -23.61784 L 13.031576 -23.973309 L 12.078451 -24.238934 L 10.71517 -24.43034 L 8.793295 -24.582684 L 6.265951 -24.735027 L 3.222982 -24.914715 L -0.0895176 -25.113934 L -3.335611 -25.30534 L -6.214518 -25.426434 L -8.523111 -25.426434 L -10.183268 -25.313152 L -11.22233 -25.145184 L -11.714518 -25.02409 L -11.777018 -25.004559 " transform="matrix(1, 0, 0, 1, 105.40983, 251.68034)"/>
<path fill-rule="evenodd" fill="rgb(100%, 100%, 100%)" fill-opacity="1" stroke-width="1" stroke-linecap="butt" stroke-linejoin="bevel" stroke="rgb(50.048876%, 50.048876%, 50.048876%)" stroke-opacity="1" stroke-miterlimit="10" d="M -7.019857 -24.78304 L -7.02767 -24.78304 L -7.094076 -24.767415 L -7.226889 -24.740071 L -7.410482 -24.693196 L -7.644857 -24.630696 L -7.918295 -24.552571 L -8.219076 -24.451009 L -8.52767 -24.329915 L -8.84017 -24.185384 L -9.137045 -24.009603 L -9.418295 -23.806478 L -9.668295 -23.572103 L -9.890951 -23.298665 L -10.078451 -22.982259 L -10.234701 -22.615071 L -10.359701 -22.185384 L -10.449545 -21.68929 L -10.512045 -21.111165 L -10.539389 -20.435384 L -10.539389 -19.65804 L -10.508139 -18.767415 L -10.461264 -17.747884 L -10.398764 -16.607259 L -10.332357 -15.329915 L -10.269857 -13.931478 L -10.21517 -12.40804 L -10.180014 -10.779134 L -10.164389 -9.048665 L -10.160482 -7.236165 L -10.172201 -5.357259 L -10.191732 -3.435384 L -10.211264 -1.490071 L -10.230795 0.459147 L -10.242514 2.388835 L -10.250326 4.283366 L -10.24642 6.12321 L -10.234701 7.892741 L -10.211264 9.572429 L -10.180014 11.15446 L -10.137045 12.627116 L -10.082357 13.986491 L -10.019857 15.224772 L -9.941732 16.34196 L -9.855795 17.338054 L -9.762045 18.21696 L -9.664389 18.982585 L -9.570639 19.642741 L -9.480795 20.201335 L -9.398764 20.673991 L -9.336264 21.06071 L -9.285482 21.381022 L -9.254232 21.634929 L -9.238607 21.834147 L -9.230795 21.986491 L -9.234701 22.099772 L -9.238607 22.177897 L -9.24642 22.228679 L -9.250326 22.256022 L -9.254232 22.267741 L -9.258139 22.361491 L -9.21517 22.556804 L -9.055014 22.861491 L -8.691732 23.263835 L -8.05892 23.720866 L -7.125326 24.177897 L -5.883139 24.584147 L -4.359701 24.908366 L -2.62142 25.146647 L -0.769857 25.314616 L 1.069986 25.431804 L 2.773111 25.509929 L 4.234049 25.556804 L 5.386393 25.580241 L 6.214518 25.588054 L 6.737955 25.584147 L 6.987955 25.580241 L 7.027018 25.580241 L 7.089518 25.576335 L 7.210611 25.568522 L 7.382486 25.541179 L 7.601236 25.490397 L 7.84733 25.400554 L 8.116861 25.263835 L 8.394205 25.072429 L 8.671549 24.822429 L 8.94108 24.513835 L 9.198893 24.146647 L 9.433268 23.724772 L 9.648111 23.252116 L 9.831705 22.724772 L 9.980143 22.146647 L 10.089518 21.509929 L 10.155924 20.806804 L 10.179361 20.033366 L 10.155924 19.173991 L 10.09733 18.224772 L 10.007486 17.173991 L 9.902018 16.017741 L 9.788736 14.752116 L 9.683268 13.381022 L 9.59733 11.908366 L 9.538736 10.338054 L 9.511393 8.681804 L 9.515299 6.955241 L 9.546549 5.170085 L 9.601236 3.34196 L 9.667643 1.494304 L 9.741861 -0.361165 L 9.808268 -2.204915 L 9.870768 -4.021321 L 9.917643 -5.790853 L 9.956705 -7.497884 L 9.976236 -9.130696 L 9.987955 -10.677571 L 9.987955 -12.12679 L 9.980143 -13.474446 L 9.964518 -14.712728 L 9.94108 -15.841634 L 9.90983 -16.857259 L 9.87858 -17.763509 L 9.839518 -18.560384 L 9.800455 -19.259603 L 9.765299 -19.857259 L 9.734049 -20.368978 L 9.710611 -20.798665 L 9.69108 -21.154134 L 9.683268 -21.447103 L 9.683268 -21.865071 L 9.69108 -22.005696 L 9.702799 -22.111165 L 9.710611 -22.18929 L 9.718424 -22.236165 L 9.718424 -22.259603 L 9.72233 -22.259603 L 9.72233 -22.361165 L 9.671549 -22.53304 L 9.476236 -22.786946 L 9.058268 -23.118978 L 8.351236 -23.525228 L 7.331705 -23.978353 L 6.011393 -24.435384 L 4.429361 -24.84554 L 2.655924 -25.150228 L 0.78483 -25.326009 L -1.066732 -25.368978 L -2.773764 -25.31429 L -4.234701 -25.197103 L -5.387045 -25.060384 L -6.21517 -24.935384 L -6.738607 -24.841634 L -6.988607 -24.790853 L -7.019857 -24.78304 " transform="matrix(1, 0, 0, 1, 146.59017, 171.454915)"/>
<path fill-rule="evenodd" fill="rgb(100%, 100%, 100%)" fill-opacity="1" stroke-width="1" stroke-linecap="butt" stroke-linejoin="bevel" stroke="rgb(50.048876%, 50.048876%, 50.048876%)" stroke-opacity="1" stroke-miterlimit="10" d="M -2.198893 -25.233723 L -2.202799 -25.237629 L -2.226236 -25.249348 L -2.273111 -25.276691 L -2.339518 -25.315754 L -2.425455 -25.370441 L -2.530924 -25.436848 L -2.652018 -25.50716 L -2.78483 -25.573566 L -2.929361 -25.628254 L -3.085611 -25.66341 L -3.249674 -25.659504 L -3.413736 -25.608723 L -3.585611 -25.503254 L -3.75358 -25.339191 L -3.921549 -25.108723 L -4.081705 -24.81966 L -4.237955 -24.472004 L -4.382486 -24.073566 L -4.519205 -23.63216 L -4.640299 -23.151691 L -4.749674 -22.643879 L -4.843424 -22.10091 L -4.917643 -21.530598 L -4.976236 -20.929035 L -5.023111 -20.28841 L -5.050455 -19.608723 L -5.06608 -18.88216 L -5.069986 -18.104816 L -5.06608 -17.268879 L -5.058268 -16.370441 L -5.050455 -15.405598 L -5.046549 -14.378254 L -5.042643 -13.284504 L -5.046549 -12.13216 L -5.058268 -10.917316 L -5.073893 -9.651691 L -5.09733 -8.335285 L -5.124674 -6.979816 L -5.155924 -5.589191 L -5.187174 -4.171223 L -5.214518 -2.733723 L -5.241861 -1.28841 L -5.265299 0.160809 L -5.280924 1.602215 L -5.292643 3.027996 L -5.300455 4.43034 L -5.304361 5.801434 L -5.304361 7.137371 L -5.300455 8.43034 L -5.296549 9.668621 L -5.288736 10.856121 L -5.277018 11.985027 L -5.265299 13.051434 L -5.25358 14.051434 L -5.237955 14.988934 L -5.22233 15.856121 L -5.202799 16.656902 L -5.19108 17.391277 L -5.183268 18.059246 L -5.187174 18.660809 L -5.202799 19.203777 L -5.234049 19.688152 L -5.288736 20.113934 L -5.359049 20.488934 L -5.452799 20.817059 L -5.56608 21.098309 L -5.694986 21.340496 L -5.835611 21.543621 L -5.984049 21.715496 L -6.132486 21.860027 L -6.277018 21.977215 L -6.417643 22.070965 L -6.538736 22.14909 L -6.648111 22.207684 L -6.737955 22.250652 L -6.804361 22.281902 L -6.851236 22.301434 L -6.874674 22.313152 L -6.87858 22.313152 L -6.898111 22.320965 L -7.007486 22.402996 L -7.00358 22.602215 L -6.609049 22.965496 L -5.710611 23.473309 L -4.40983 24.05534 L -2.956705 24.606121 L -1.59733 25.039715 L -0.452799 25.328777 L 0.461264 25.504559 L 1.164389 25.61784 L 1.680014 25.707684 L 2.015951 25.777996 L 2.180014 25.820965 L 2.199545 25.824871 L 2.203451 25.828777 L 2.226889 25.832684 L 2.273764 25.848309 L 2.34017 25.86784 L 2.426107 25.895184 L 2.52767 25.926434 L 2.648764 25.957684 L 2.781576 25.981121 L 2.926107 25.988934 L 3.074545 25.973309 L 3.226889 25.922527 L 3.383139 25.824871 L 3.535482 25.672527 L 3.680014 25.465496 L 3.824545 25.199871 L 3.957357 24.879559 L 4.082357 24.508465 L 4.195639 24.094402 L 4.305014 23.637371 L 4.40267 23.152996 L 4.49642 22.633465 L 4.586264 22.090496 L 4.668295 21.520184 L 4.74642 20.918621 L 4.820639 20.281902 L 4.890951 19.606121 L 4.953451 18.879559 L 5.012045 18.102215 L 5.05892 17.266277 L 5.097982 16.36784 L 5.125326 15.406902 L 5.144857 14.379559 L 5.148764 13.285809 L 5.140951 12.133465 L 5.12142 10.918621 L 5.094076 9.652996 L 5.05892 8.33659 L 5.019857 6.981121 L 4.980795 5.590496 L 4.945639 4.172527 L 4.914389 2.735027 L 4.887045 1.289715 L 4.867514 -0.159504 L 4.855795 -1.60091 L 4.851889 -3.026691 L 4.847982 -4.429035 L 4.847982 -5.800129 L 4.851889 -7.136066 L 4.855795 -8.429035 L 4.863607 -9.667316 L 4.875326 -10.854816 L 4.890951 -11.983723 L 4.914389 -13.050129 L 4.945639 -14.050129 L 4.988607 -14.987629 L 5.039389 -15.854816 L 5.101889 -16.655598 L 5.172201 -17.389973 L 5.24642 -18.057941 L 5.316732 -18.659504 L 5.387045 -19.202473 L 5.445639 -19.686848 L 5.488607 -20.112629 L 5.512045 -20.487629 L 5.519857 -20.815754 L 5.508139 -21.097004 L 5.480795 -21.339191 L 5.441732 -21.542316 L 5.387045 -21.714191 L 5.332357 -21.858723 L 5.27767 -21.97591 L 5.222982 -22.06966 L 5.176107 -22.147785 L 5.137045 -22.206379 L 5.109701 -22.249348 L 5.086264 -22.280598 L 5.070639 -22.300129 L 5.066732 -22.311848 L 5.062826 -22.311848 L 5.05892 -22.323566 L 5.004232 -22.397785 L 4.906576 -22.534504 L 4.730795 -22.729816 L 4.383139 -23.00716 L 3.781576 -23.366535 L 2.922201 -23.75716 L 1.894857 -24.10091 L 0.844076 -24.354816 L -0.12858 -24.546223 L -0.944986 -24.737629 L -1.569986 -24.936848 L -1.976236 -25.116535 L -2.175455 -25.222004 L -2.198893 -25.233723 " transform="matrix(1, 0, 0, 1, 95.40983, 29.31966)"/>
<path fill-rule="evenodd" fill="rgb(100%, 100%, 100%)" fill-opacity="1" stroke-width="1" stroke-linecap="butt" stroke-linejoin="bevel" stroke="rgb(50.048876%, 50.048876%, 50.048876%)" stroke-opacity="1" stroke-miterlimit="10" d="M -2.199545 -4.573081 L -2.226889 -4.5848 L -2.410482 -4.670737 L -2.754232 -4.850425 L -3.203451 -5.0223 L -3.711264 -4.963706 L -4.230795 -4.4598 L -4.691732 -3.49105 L -5.012045 -2.252769 L -5.148764 -1.002769 L -5.094076 0.0792626 L -4.90267 0.938638 L -4.65267 1.567544 L -4.430014 1.9777 L -4.305014 2.176919 L -4.273764 2.223794 L -4.160482 2.38395 L -3.930014 2.692544 L -3.578451 3.114419 L -3.097982 3.559731 L -2.504232 3.942544 L -1.805014 4.192544 L -1.035482 4.313638 L -0.242514 4.344888 L 0.515299 4.344888 L 1.171549 4.337075 L 1.679361 4.329263 L 2.015299 4.313638 L 2.179361 4.301919 L 2.198893 4.298013 L 2.22233 4.298013 L 2.374674 4.266763 L 2.648111 4.153481 L 2.976236 3.88395 L 3.296549 3.4152 L 3.562174 2.75895 L 3.769205 1.969888 L 3.94108 1.122231 L 4.148111 0.274575 L 4.44108 -0.506675 L 4.84733 -1.170737 L 5.31608 -1.67855 L 5.741861 -2.014487 L 5.995768 -2.17855 L 6.027018 -2.198081 L 6.062174 -2.221519 L 6.269205 -2.381675 L 6.433268 -2.694175 L 6.230143 -3.11605 L 5.487955 -3.580894 L 4.300455 -3.987144 L 2.913736 -4.260581 L 1.581705 -4.381675 L 0.448893 -4.389487 L -0.461264 -4.36605 L -1.164389 -4.369956 L -1.680014 -4.42855 L -2.015951 -4.506675 L -2.180014 -4.565269 L -2.199545 -4.573081 " transform="matrix(1, 0, 0, 1, 141.59017, 265.725425)"/>
<path fill-rule="evenodd" fill="rgb(100%, 100%, 100%)" fill-opacity="1" stroke-width="1" stroke-linecap="butt" stroke-linejoin="bevel" stroke="rgb(50.048876%, 50.048876%, 50.048876%)" stroke-opacity="1" stroke-miterlimit="10" d="M -7.019857 -10.025554 L -7.051107 -10.02946 L -7.281576 -10.021647 L -7.68392 -9.955241 L -8.168295 -9.732585 L -8.640951 -9.271647 L -9.05892 -8.513835 L -9.410482 -7.447429 L -9.711264 -6.084147 L -9.969076 -4.470866 L -10.168295 -2.673991 L -10.27767 -0.791179 L -10.254232 1.06429 L -10.09017 2.775228 L -9.805014 4.236165 L -9.461264 5.388509 L -9.12142 6.216634 L -8.855795 6.740071 L -8.711264 6.990071 L -8.695639 7.021321 L -8.672201 7.056478 L -8.49642 7.333821 L -8.137045 7.826009 L -7.629232 8.435384 L -7.055014 9.040853 L -6.500326 9.53304 L -5.980795 9.861165 L -5.398764 10.029134 L -4.570639 10.091634 L -3.355795 10.091634 L -1.750326 10.06429 L 0.112955 10.013509 L 2.00358 9.962728 L 3.706705 9.93929 L 5.081705 9.974446 L 6.069986 10.068196 L 6.69108 10.18929 L 6.984049 10.275228 L 7.019205 10.286946 L 7.050455 10.294759 L 7.28483 10.357259 L 7.702799 10.380696 L 8.218424 10.236165 L 8.734049 9.794759 L 9.175455 8.986165 L 9.519205 7.81429 L 9.777018 6.333821 L 9.987955 4.615071 L 10.171549 2.747884 L 10.319986 0.822103 L 10.402018 -1.052897 L 10.398111 -2.767741 L 10.319986 -4.232585 L 10.214518 -5.384929 L 10.12858 -6.213054 L 10.073893 -6.736491 L 10.054361 -6.986491 L 10.054361 -7.017741 L 10.050455 -7.048991 L 10.023111 -7.283366 L 9.921549 -7.701335 L 9.667643 -8.220866 L 9.187174 -8.756022 L 8.429361 -9.232585 L 7.374674 -9.603679 L 6.030924 -9.861491 L 4.44108 -10.009929 L 2.65983 -10.068522 L 0.78483 -10.072429 L -1.066732 -10.045085 L -2.773764 -10.017741 L -4.234701 -10.002116 L -5.387045 -9.99821 L -6.21517 -10.006022 L -6.738607 -10.017741 L -6.988607 -10.025554 L -7.019857 -10.025554 " transform="matrix(1, 0, 0, 1, 146.59017, 214.545085)"/>
<path fill-rule="evenodd" fill="rgb(100%, 100%, 100%)" fill-opacity="1" stroke-width="1" stroke-linecap="butt" stroke-linejoin="bevel" stroke="rgb(50.048876%, 50.048876%, 50.048876%)" stroke-opacity="1" stroke-miterlimit="10" d="M -11.777018 -15.429688 L -11.827799 -15.433594 L -12.210611 -15.441406 L -12.851236 -15.382813 L -13.569986 -15.121094 L -14.187174 -14.523438 L -14.612955 -13.476563 L -14.839518 -11.921875 L -14.925455 -9.847656 L -14.925455 -7.300781 L -14.87858 -4.394531 L -14.78483 -1.292969 L -14.636393 1.796875 L -14.433268 4.652344 L -14.202799 7.101562 L -13.984049 9.035156 L -13.808268 10.425781 L -13.694986 11.304687 L -13.640299 11.722656 L -13.632486 11.777344 L -13.624674 11.835937 L -13.56608 12.296875 L -13.460611 13.117187 L -13.308268 14.121094 L -13.081705 15.078125 L -12.683268 15.78125 L -11.956705 16.136719 L -10.730143 16.195312 L -8.859049 16.082031 L -6.319986 15.941406 L -3.25358 15.847656 L 0.0745449 15.792969 L 3.332357 15.734375 L 6.21517 15.632812 L 8.523764 15.488281 L 10.18392 15.320312 L 11.222982 15.171875 L 11.71517 15.082031 L 11.77767 15.070312 L 11.836264 15.058594 L 12.297201 14.960937 L 13.12142 14.75 L 14.125326 14.40625 L 15.09017 13.90625 L 15.80892 13.207031 L 16.172201 12.226562 L 16.219076 10.824219 L 16.074545 8.867187 L 15.879232 6.304687 L 15.730795 3.238281 L 15.656576 -0.0820313 L 15.62142 -3.335938 L 15.582357 -6.214844 L 15.504232 -8.523438 L 15.390951 -10.183594 L 15.27767 -11.222656 L 15.203451 -11.714844 L 15.195639 -11.777344 L 15.18392 -11.835938 L 15.097982 -12.296875 L 14.898764 -13.117188 L 14.555014 -14.121094 L 14.039389 -15.070313 L 13.312826 -15.757813 L 12.297201 -16.078125 L 10.867514 -16.0625 L 8.887045 -15.835938 L 6.312826 -15.542969 L 3.242514 -15.300781 L -0.0817051 -15.15625 L -3.335611 -15.113281 L -6.214518 -15.15625 L -8.523111 -15.238281 L -10.183268 -15.328125 L -11.22233 -15.394531 L -11.714518 -15.425781 L -11.777018 -15.429688 " transform="matrix(1, 0, 0, 1, 105.40983, 185.5)"/>
<path fill-rule="evenodd" fill="rgb(100%, 100%, 100%)" fill-opacity="1" stroke-width="1" stroke-linecap="butt" stroke-linejoin="bevel" stroke="rgb(50.048876%, 50.048876%, 50.048876%)" stroke-opacity="1" stroke-miterlimit="10" d="M -32.202146 -14.640625 L -32.221678 -14.644531 L -32.362303 -14.683594 L -32.612303 -14.761719 L -32.920896 -14.847656 L -33.264646 -14.808594 L -33.620115 -14.445313 L -33.983396 -13.550781 L -34.334959 -11.96875 L -34.655271 -9.679688 L -34.936521 -6.777344 L -35.190428 -3.460938 L -35.41699 -0.000000000000028422 L -35.620115 3.3125 L -35.803709 6.210937 L -35.959959 8.523437 L -36.096678 10.183594 L -36.19824 11.222656 L -36.256834 11.714844 L -36.264646 11.777344 L -36.264646 11.789062 L -36.280271 11.902344 L -36.311521 12.117187 L -36.35449 12.429687 L -36.409178 12.820312 L -36.471678 13.265625 L -36.522459 13.742187 L -36.54199 14.21875 L -36.514646 14.664062 L -36.409178 15.050781 L -36.209959 15.355469 L -35.897459 15.566406 L -35.463865 15.675781 L -34.901365 15.695312 L -34.217771 15.628906 L -33.405271 15.5 L -32.475584 15.332031 L -31.428709 15.148437 L -30.26074 14.972656 L -28.959959 14.8125 L -27.522459 14.691406 L -25.936521 14.609375 L -24.194334 14.566406 L -22.288084 14.5625 L -20.221678 14.589844 L -17.991209 14.640625 L -15.612303 14.703125 L -13.096678 14.769531 L -10.471678 14.832031 L -7.752928 14.882812 L -4.967771 14.917969 L -2.155271 14.929687 L 0.665041 14.921875 L 3.461916 14.890625 L 6.204104 14.84375 L 8.86426 14.785156 L 11.422854 14.726562 L 13.852541 14.667969 L 16.141604 14.628906 L 18.274416 14.605469 L 20.23926 14.613281 L 22.028322 14.652344 L 23.64551 14.71875 L 25.086916 14.808594 L 26.360354 14.917969 L 27.465822 15.039062 L 28.422854 15.152344 L 29.231447 15.253906 L 29.915041 15.332031 L 30.477541 15.378906 L 30.934572 15.390625 L 31.30176 15.367187 L 31.590822 15.308594 L 31.813479 15.230469 L 31.977541 15.140625 L 32.090822 15.058594 L 32.165041 14.992187 L 32.200197 14.957031 L 32.204104 14.949219 L 32.219729 14.933594 L 32.348635 14.796875 L 32.586916 14.519531 L 32.907229 14.082031 L 33.262697 13.429687 L 33.606447 12.484375 L 33.89551 11.140625 L 34.122072 9.316406 L 34.290041 6.992187 L 34.411135 4.242187 L 34.497072 1.230469 L 34.540041 -1.816406 L 34.528322 -4.65625 L 34.473635 -7.101563 L 34.387697 -9.035156 L 34.30176 -10.425781 L 34.235354 -11.304688 L 34.200197 -11.722656 L 34.196291 -11.777344 L 34.196291 -11.789063 L 34.188479 -11.894531 L 34.165041 -12.089844 L 34.129885 -12.367188 L 34.075197 -12.699219 L 33.997072 -13.058594 L 33.887697 -13.421875 L 33.743166 -13.757813 L 33.559572 -14.050781 L 33.325197 -14.285156 L 33.036135 -14.453125 L 32.684572 -14.566406 L 32.258791 -14.625 L 31.750979 -14.644531 L 31.14551 -14.644531 L 30.42676 -14.636719 L 29.586916 -14.632813 L 28.606447 -14.644531 L 27.477541 -14.671875 L 26.184572 -14.714844 L 24.727541 -14.769531 L 23.098635 -14.832031 L 21.297854 -14.894531 L 19.336916 -14.953125 L 17.215822 -14.996094 L 14.950197 -15.023438 L 12.559572 -15.039063 L 10.063479 -15.035156 L 7.481447 -15.023438 L 4.840822 -15 L 2.165041 -14.976563 L -0.522459 -14.957031 L -3.190428 -14.941406 L -5.815428 -14.933594 L -8.374021 -14.9375 L -10.842771 -14.949219 L -13.206053 -14.964844 L -15.444334 -14.980469 L -17.54199 -14.988281 L -19.491209 -14.988281 L -21.284178 -14.976563 L -22.913084 -14.949219 L -24.38574 -14.910156 L -25.694334 -14.859375 L -26.850584 -14.804688 L -27.858396 -14.746094 L -28.72949 -14.691406 L -29.467771 -14.644531 L -30.088865 -14.605469 L -30.60449 -14.582031 L -31.026365 -14.566406 L -31.362303 -14.566406 L -31.631834 -14.574219 L -31.834959 -14.585938 L -31.987303 -14.605469 L -32.096678 -14.621094 L -32.16699 -14.632813 L -32.19824 -14.640625 L -32.202146 -14.640625 " transform="matrix(1, 0, 0, 1, 39.22949, 140.5)"/>
<path fill-rule="evenodd" fill="rgb(100%, 100%, 100%)" fill-opacity="1" stroke-width="1" stroke-linecap="butt" stroke-linejoin="bevel" stroke="rgb(50.048876%, 50.048876%, 50.048876%)" stroke-opacity="1" stroke-miterlimit="10" d="M -12.230795 -9.404786 L -12.24642 -9.381349 L -12.367514 -9.193849 L -12.578451 -8.748536 L -12.844076 -8.029786 L -13.129232 -7.135255 L -13.418295 -6.260255 L -13.703451 -5.541505 L -13.976889 -4.916505 L -14.219076 -4.18213 L -14.414389 -3.111817 L -14.566732 -1.627442 L -14.668295 0.16162 L -14.726889 2.017089 L -14.734701 3.712401 L -14.68392 5.083495 L -14.582357 6.071776 L -14.472982 6.69287 L -14.40267 6.985839 L -14.394857 7.020995 L -14.390951 7.03662 L -14.355795 7.145995 L -14.289389 7.353026 L -14.176107 7.642089 L -14.012045 7.989745 L -13.801107 8.360839 L -13.543295 8.720214 L -13.258139 9.040526 L -12.949545 9.294433 L -12.62142 9.47412 L -12.265951 9.587401 L -11.867514 9.642089 L -11.390951 9.665526 L -10.80892 9.677245 L -10.09017 9.69287 L -9.211264 9.720214 L -8.160482 9.767089 L -6.945639 9.829589 L -5.574545 9.899901 L -4.082357 9.97412 L -2.500326 10.044433 L -0.87142 10.110839 L 0.761393 10.169433 L 2.362955 10.220214 L 3.890299 10.263183 L 5.31608 10.294433 L 6.612955 10.31787 L 7.765299 10.337401 L 8.769205 10.356933 L 9.616861 10.376464 L 10.31608 10.395995 L 10.882486 10.407714 L 11.323893 10.407714 L 11.655924 10.384276 L 11.902018 10.345214 L 12.069986 10.298339 L 12.171549 10.25537 L 12.22233 10.228026 L 12.230143 10.22412 L 12.241861 10.216308 L 12.355143 10.145995 L 12.581705 9.97412 L 12.925455 9.649901 L 13.34733 9.118651 L 13.800455 8.341308 L 14.210611 7.290526 L 14.538736 5.970214 L 14.769205 4.399901 L 14.921549 2.642089 L 15.03483 0.778808 L 15.136393 -1.068849 L 15.237955 -2.771974 L 15.339518 -4.232911 L 15.433268 -5.385255 L 15.511393 -6.21338 L 15.56608 -6.736817 L 15.593424 -6.986817 L 15.59733 -7.018067 L 15.601236 -7.033692 L 15.609049 -7.131349 L 15.612955 -7.322755 L 15.585611 -7.592286 L 15.499674 -7.916505 L 15.327799 -8.268067 L 15.054361 -8.627442 L 14.671549 -8.96338 L 14.179361 -9.256349 L 13.585611 -9.502442 L 12.902018 -9.697755 L 12.12858 -9.850099 L 11.269205 -9.96338 L 10.319986 -10.045411 L 9.277018 -10.096192 L 8.12858 -10.11963 L 6.882486 -10.111817 L 5.53483 -10.072755 L 4.101236 -10.006349 L 2.605143 -9.916505 L 1.073893 -9.814942 L -0.469076 -9.717286 L -1.984701 -9.631349 L -3.445639 -9.564942 L -4.824545 -9.529786 L -6.097982 -9.533692 L -7.250326 -9.572755 L -8.269857 -9.639161 L -9.156576 -9.725099 L -9.90267 -9.80713 L -10.519857 -9.86963 L -11.019857 -9.893067 L -11.414389 -9.865724 L -11.711264 -9.791505 L -11.930014 -9.68213 L -12.082357 -9.564942 L -12.180014 -9.467286 L -12.222982 -9.412599 L -12.230795 -9.404786 " transform="matrix(1, 0, 0, 1, 151.59017, 242.635255)"/>
<path fill-rule="evenodd" fill="rgb(100%, 100%, 100%)" fill-opacity="1" stroke-width="1" stroke-linecap="butt" stroke-linejoin="bevel" stroke="rgb(50.048876%, 50.048876%, 50.048876%)" stroke-opacity="1" stroke-miterlimit="10" d="M -17.297854 -5.310384 L -17.313479 -5.337728 L -17.403322 -5.583821 L -17.559572 -6.076009 L -17.743166 -6.618978 L -17.969729 -6.78304 L -18.282229 -6.173665 L -18.700197 -4.78304 L -19.172854 -3.013509 L -19.563479 -1.337728 L -19.762697 -0.0252275 L -19.778322 0.916179 L -19.704104 1.564616 L -19.64551 1.974772 L -19.622072 2.173991 L -19.622072 2.232585 L -19.618166 2.291179 L -19.618166 2.486491 L -19.622072 2.615397 L -19.622072 2.763835 L -19.61426 2.923991 L -19.590822 3.09196 L -19.536135 3.267741 L -19.446291 3.443522 L -19.309572 3.615397 L -19.118166 3.787272 L -18.872072 3.959147 L -18.567385 4.119304 L -18.20801 4.275554 L -17.790041 4.420085 L -17.325197 4.552897 L -16.80176 4.673991 L -16.223635 4.775554 L -15.590822 4.861491 L -14.887697 4.927897 L -14.122072 4.974772 L -13.278322 5.006022 L -12.360354 5.025554 L -11.36426 5.033366 L -10.286135 5.037272 L 1.694334 5.037272 L 3.077146 5.041179 L 4.424803 5.045085 L 5.721678 5.056804 L 6.967771 5.072429 L 8.147459 5.09196 L 9.256834 5.115397 L 10.288084 5.138835 L 11.241209 5.166179 L 12.112303 5.189616 L 12.901365 5.21696 L 13.60449 5.240397 L 14.233396 5.263835 L 14.784178 5.283366 L 15.26074 5.295085 L 15.670896 5.295085 L 16.018553 5.287272 L 16.311521 5.259929 L 16.549803 5.21696 L 16.749021 5.158366 L 16.905271 5.088054 L 17.030271 5.006022 L 17.127928 4.923991 L 17.19824 4.845866 L 17.249021 4.775554 L 17.280271 4.728679 L 17.295896 4.701335 L 17.295896 4.697429 L 17.311521 4.677897 L 17.401365 4.486491 L 17.565428 4.06071 L 17.799803 3.416179 L 18.127928 2.697429 L 18.565428 2.064616 L 19.04199 1.556804 L 19.420896 1.068522 L 19.612303 0.470866 L 19.620115 -0.243978 L 19.561521 -0.97054 L 19.54199 -1.572103 L 19.588865 -1.978353 L 19.647459 -2.177571 L 19.655271 -2.201009 L 19.659178 -2.204915 L 19.66699 -2.232259 L 19.682615 -2.290853 L 19.69824 -2.372884 L 19.69824 -2.486165 L 19.674803 -2.622884 L 19.620115 -2.786946 L 19.522459 -2.97054 L 19.377928 -3.165853 L 19.186521 -3.372884 L 18.944334 -3.583821 L 18.663084 -3.786946 L 18.338865 -3.974446 L 17.975584 -4.146321 L 17.581053 -4.298665 L 17.147459 -4.423665 L 16.674803 -4.521321 L 16.159178 -4.599446 L 15.596678 -4.65804 L 14.97949 -4.704915 L 14.299803 -4.740071 L 13.553709 -4.771321 L 12.737303 -4.794759 L 11.850584 -4.818196 L 10.88574 -4.841634 L 9.850584 -4.857259 L 8.749021 -4.872884 L 7.581053 -4.880696 L 6.362303 -4.884603 L 5.092771 -4.880696 L 3.788084 -4.872884 L 2.456053 -4.865071 L 1.108396 -4.857259 L -0.243166 -4.84554 L -1.586916 -4.833821 L -2.911135 -4.822103 L -4.20801 -4.806478 L -5.461916 -4.786946 L -6.668947 -4.755696 L -7.821291 -4.716634 L -8.911135 -4.665853 L -9.930666 -4.607259 L -10.875979 -4.544759 L -11.750979 -4.478353 L -12.543947 -4.415853 L -13.266604 -4.357259 L -13.911135 -4.31429 L -14.481447 -4.286946 L -14.985354 -4.275228 L -15.422854 -4.286946 L -15.797854 -4.318196 L -16.11426 -4.372884 L -16.383791 -4.451009 L -16.606447 -4.544759 L -16.786135 -4.654134 L -16.934572 -4.771321 L -17.047854 -4.892415 L -17.137697 -5.013509 L -17.204104 -5.118978 L -17.250979 -5.208821 L -17.282229 -5.271321 L -17.297854 -5.306478 L -17.297854 -5.310384 " transform="matrix(1, 0, 0, 1, 192.77051, 171.454915)"/>
<path fill-rule="evenodd" fill="rgb(100%, 100%, 100%)" fill-opacity="1" stroke-width="1" stroke-linecap="butt" stroke-linejoin="bevel" stroke="rgb(50.048876%, 50.048876%, 50.048876%)" stroke-opacity="1" stroke-miterlimit="10" d="M -7.019857 -15.187174 L -7.035482 -15.187174 L -7.144857 -15.198893 L -7.351889 -15.22233 L -7.644857 -15.249674 L -8.000326 -15.280924 L -8.394857 -15.292643 L -8.801107 -15.257486 L -9.195639 -15.144205 L -9.551107 -14.925455 L -9.859701 -14.581705 L -10.101889 -14.09733 L -10.273764 -13.476236 L -10.37142 -12.72233 L -10.40267 -11.843424 L -10.367514 -10.843424 L -10.289389 -9.72233 L -10.172201 -8.487955 L -10.043295 -7.136393 L -9.910482 -5.683268 L -9.793295 -4.136393 L -9.695639 -2.527018 L -9.629232 -0.882486 L -9.597982 0.758139 L -9.597982 2.363607 L -9.625326 3.890951 L -9.664389 5.316732 L -9.711264 6.613607 L -9.742514 7.765951 L -9.750326 8.769857 L -9.734701 9.617514 L -9.691732 10.316732 L -9.637045 10.883139 L -9.586264 11.324545 L -9.547201 11.656576 L -9.531576 11.90267 L -9.531576 12.070639 L -9.539389 12.172201 L -9.551107 12.222982 L -9.551107 12.230795 L -9.555014 12.24642 L -9.59017 12.367514 L -9.68392 12.582357 L -9.828451 12.859701 L -9.898764 13.18392 L -9.71517 13.551107 L -9.09017 13.941732 L -7.941732 14.324545 L -6.316732 14.664389 L -4.347982 14.945639 L -2.203451 15.164389 L -0.0472012 15.320639 L 1.960611 15.414389 L 3.702799 15.430014 L 5.081705 15.387045 L 6.069986 15.30892 L 6.69108 15.234701 L 6.984049 15.191732 L 7.019205 15.18392 L 7.03483 15.18392 L 7.132486 15.164389 L 7.319986 15.12142 L 7.585611 15.039389 L 7.902018 14.906576 L 8.245768 14.707357 L 8.59733 14.43392 L 8.933268 14.078451 L 9.234049 13.644857 L 9.495768 13.125326 L 9.710611 12.52767 L 9.87858 11.84017 L 9.999674 11.05892 L 10.077799 10.176107 L 10.124674 9.18392 L 10.144205 8.070639 L 10.144205 4.094076 L 10.163736 2.601889 L 10.198893 1.070639 L 10.25358 -0.468424 L 10.319986 -1.984049 L 10.394205 -3.444986 L 10.464518 -4.823893 L 10.519205 -6.09733 L 10.562174 -7.249674 L 10.589518 -8.269205 L 10.612955 -9.155924 L 10.644205 -9.902018 L 10.687174 -10.519205 L 10.745768 -11.019205 L 10.819986 -11.413736 L 10.898111 -11.710611 L 10.97233 -11.929361 L 11.038736 -12.081705 L 11.085611 -12.179361 L 11.109049 -12.22233 L 11.112955 -12.230143 L 11.120768 -12.241861 L 11.155924 -12.351236 L 11.132486 -12.573893 L 10.905924 -12.898111 L 10.351236 -13.308268 L 9.40983 -13.757486 L 8.109049 -14.194986 L 6.515299 -14.558268 L 4.714518 -14.819986 L 2.792643 -14.968424 L 0.839518 -15.027018 L -1.051107 -15.038736 L -2.769857 -15.042643 L -4.234701 -15.054361 L -5.387045 -15.085611 L -6.21517 -15.124674 L -6.738607 -15.163736 L -6.988607 -15.183268 L -7.019857 -15.187174 " transform="matrix(1, 0, 0, 1, 126.59017, 112.40983)"/>
</svg>
