<?xml version="1.0" encoding="UTF-8"?>
<svg xmlns="http://www.w3.org/2000/svg" xmlns:xlink="http://www.w3.org/1999/xlink" width="217.013156pt" height="248.472136pt" viewBox="0 0 217.013156 248.472136" version="1.1">
<g id="surface6409">
<path style="fill-rule:evenodd;fill:rgb(100%,100%,100%);fill-opacity:1;stroke-width:1;stroke-linecap:butt;stroke-linejoin:bevel;stroke:rgb(50.048876%,50.048876%,50.048876%);stroke-opacity:1;stroke-miterlimit:10;" d="M -2.198893 -50.863281 L -2.202799 -50.863281 L -2.210611 -50.871094 L -2.234049 -50.882812 L -2.265299 -50.894531 L -2.308268 -50.910156 L -2.359049 -50.925781 L -2.421549 -50.929688 L -2.495768 -50.929688 L -2.577799 -50.910156 L -2.671549 -50.878906 L -2.773111 -50.828125 L -2.87858 -50.753906 L -2.995768 -50.65625 L -3.112955 -50.539062 L -3.237955 -50.398438 L -3.362955 -50.234375 L -3.487955 -50.054688 L -3.612955 -49.855469 L -3.737955 -49.644531 L -3.855143 -49.417969 L -3.97233 -49.183594 L -4.081705 -48.941406 L -4.187174 -48.699219 L -4.280924 -48.449219 L -4.370768 -48.203125 L -4.448893 -47.953125 L -4.519205 -47.703125 L -4.577799 -47.453125 L -4.62858 -47.199219 L -4.667643 -46.945312 L -4.698893 -46.6875 L -4.718424 -46.421875 L -4.734049 -46.148438 L -4.737955 -45.863281 L -4.737955 -45.566406 L -4.734049 -45.253906 L -4.72233 -44.925781 L -4.710611 -44.574219 L -4.698893 -44.203125 L -4.683268 -43.808594 L -4.671549 -43.386719 L -4.663736 -42.9375 L -4.652018 -42.460938 L -4.648111 -41.957031 L -4.644205 -41.417969 L -4.640299 -40.851562 L -4.640299 -39.613281 L -4.644205 -38.945312 L -4.644205 -35.917969 L -4.640299 -35.070312 L -4.640299 -34.191406 L -4.636393 -33.273438 L -4.632486 -32.324219 L -4.62858 -31.339844 L -4.624674 -30.320312 L -4.624674 -28.179688 L -4.632486 -27.0625 L -4.636393 -25.914062 L -4.648111 -24.734375 L -4.663736 -23.527344 L -4.683268 -22.289062 L -4.702799 -21.027344 L -4.730143 -19.738281 L -4.757486 -18.425781 L -4.788736 -17.089844 L -4.823893 -15.734375 L -4.855143 -14.359375 L -4.890299 -12.964844 L -4.925455 -11.554688 L -4.956705 -10.132812 L -4.984049 -8.695312 L -5.011393 -7.25 L -5.03483 -5.796875 L -5.054361 -4.335938 L -5.085611 -1.398438 L -5.093424 0.0703125 L -5.101236 1.535156 L -5.105143 3 L -5.109049 4.460938 L -5.112955 5.914062 L -5.120768 7.355469 L -5.124674 8.785156 L -5.132486 10.207031 L -5.140299 11.609375 L -5.152018 13 L -5.167643 14.367188 L -5.179361 15.71875 L -5.194986 17.050781 L -5.210611 18.355469 L -5.22233 19.640625 L -5.234049 20.898438 L -5.245768 22.128906 L -5.25358 23.332031 L -5.257486 24.507812 L -5.257486 26.765625 L -5.249674 27.851562 L -5.241861 28.902344 L -5.230143 29.921875 L -5.218424 30.910156 L -5.202799 31.863281 L -5.187174 32.78125 L -5.171549 33.667969 L -5.155924 34.519531 L -5.144205 35.339844 L -5.132486 36.121094 L -5.124674 36.875 L -5.120768 37.589844 L -5.120768 38.277344 L -5.124674 38.925781 L -5.12858 39.546875 L -5.140299 40.132812 L -5.152018 40.691406 L -5.163736 41.21875 L -5.179361 41.714844 L -5.194986 42.179688 L -5.206705 42.621094 L -5.22233 43.03125 L -5.230143 43.417969 L -5.237955 43.777344 L -5.241861 44.113281 L -5.241861 44.714844 L -5.234049 44.980469 L -5.226236 45.226562 L -5.218424 45.457031 L -5.206705 45.664062 L -5.194986 45.855469 L -5.183268 46.027344 L -5.171549 46.1875 L -5.155924 46.328125 L -5.144205 46.460938 L -5.132486 46.574219 L -5.120768 46.679688 L -5.105143 46.773438 L -5.089518 46.859375 L -5.073893 46.933594 L -5.054361 46.996094 L -5.030924 47.054688 L -5.00358 47.105469 L -4.976236 47.148438 L -4.944986 47.1875 L -4.874674 47.25 L -4.839518 47.273438 L -4.804361 47.292969 L -4.773111 47.308594 L -4.745768 47.320312 L -4.72233 47.332031 L -4.702799 47.339844 L -4.687174 47.34375 L -4.679361 47.34375 L -4.667643 47.351562 L -4.554361 47.398438 L -4.312174 47.539062 L -3.921549 47.824219 L -3.374674 48.246094 L -2.694986 48.730469 L -1.917643 49.175781 L -1.089518 49.484375 L -0.261393 49.648438 L 0.512045 49.722656 L 1.172201 49.796875 L 1.680014 49.910156 L 2.015951 50.046875 L 2.180014 50.144531 L 2.199545 50.15625 L 2.203451 50.160156 L 2.211264 50.164062 L 2.234701 50.179688 L 2.265951 50.195312 L 2.30892 50.214844 L 2.359701 50.234375 L 2.426107 50.25 L 2.500326 50.257812 L 2.586264 50.253906 L 2.680014 50.234375 L 2.785482 50.203125 L 2.898764 50.148438 L 3.019857 50.078125 L 3.148764 49.988281 L 3.281576 49.875 L 3.418295 49.746094 L 3.555014 49.597656 L 3.691732 49.433594 L 3.824545 49.253906 L 3.953451 49.066406 L 4.078451 48.867188 L 4.191732 48.660156 L 4.301107 48.445312 L 4.40267 48.230469 L 4.492514 48.007812 L 4.574545 47.785156 L 4.648764 47.5625 L 4.71517 47.332031 L 4.77767 47.101562 L 4.828451 46.863281 L 4.879232 46.617188 L 4.922201 46.367188 L 4.96517 46.101562 L 5.000326 45.828125 L 5.035482 45.539062 L 5.062826 45.230469 L 5.09017 44.90625 L 5.109701 44.5625 L 5.125326 44.191406 L 5.137045 43.800781 L 5.144857 43.378906 L 5.144857 42.933594 L 5.140951 42.460938 L 5.137045 41.953125 L 5.125326 41.417969 L 5.109701 40.847656 L 5.094076 40.246094 L 5.074545 39.613281 L 5.055014 38.941406 L 5.035482 38.238281 L 5.019857 37.5 L 5.000326 36.726562 L 4.980795 35.917969 L 4.96517 35.070312 L 4.949545 34.191406 L 4.93392 33.273438 L 4.918295 32.324219 L 4.898764 31.339844 L 4.883139 30.320312 L 4.863607 29.265625 L 4.84017 28.179688 L 4.816732 27.0625 L 4.793295 25.914062 L 4.765951 24.734375 L 4.734701 23.527344 L 4.707357 22.289062 L 4.676107 21.027344 L 4.648764 19.738281 L 4.62142 18.425781 L 4.594076 17.089844 L 4.574545 15.734375 L 4.55892 14.359375 L 4.547201 12.964844 L 4.543295 11.554688 L 4.543295 10.132812 L 4.551107 8.695312 L 4.566732 7.25 L 4.59017 5.796875 L 4.617514 4.335938 L 4.65267 2.867188 L 4.691732 1.398438 L 4.734701 -0.0703125 L 4.781576 -1.535156 L 4.832357 -3 L 4.879232 -4.460938 L 4.930014 -5.914062 L 4.976889 -7.355469 L 5.019857 -8.785156 L 5.055014 -10.207031 L 5.086264 -11.609375 L 5.109701 -13 L 5.12142 -14.367188 L 5.125326 -15.71875 L 5.12142 -17.050781 L 5.109701 -18.355469 L 5.09017 -19.640625 L 5.062826 -20.898438 L 5.02767 -22.128906 L 4.992514 -23.332031 L 4.953451 -24.507812 L 4.914389 -25.652344 L 4.879232 -26.765625 L 4.847982 -27.851562 L 4.820639 -28.902344 L 4.801107 -29.921875 L 4.785482 -30.910156 L 4.77767 -31.863281 L 4.773764 -32.78125 L 4.77767 -33.667969 L 4.789389 -34.519531 L 4.801107 -35.339844 L 4.820639 -36.121094 L 4.84017 -36.875 L 4.859701 -37.589844 L 4.883139 -38.277344 L 4.906576 -38.925781 L 4.930014 -39.546875 L 4.949545 -40.132812 L 4.972982 -40.691406 L 4.992514 -41.21875 L 5.015951 -41.714844 L 5.035482 -42.179688 L 5.055014 -42.621094 L 5.074545 -43.03125 L 5.094076 -43.417969 L 5.117514 -43.777344 L 5.140951 -44.113281 L 5.164389 -44.425781 L 5.191732 -44.714844 L 5.222982 -44.980469 L 5.250326 -45.226562 L 5.285482 -45.457031 L 5.320639 -45.664062 L 5.351889 -45.855469 L 5.387045 -46.027344 L 5.418295 -46.1875 L 5.445639 -46.328125 L 5.469076 -46.460938 L 5.488607 -46.574219 L 5.500326 -46.679688 L 5.500326 -46.773438 L 5.49642 -46.859375 L 5.480795 -46.933594 L 5.457357 -46.996094 L 5.422201 -47.054688 L 5.379232 -47.105469 L 5.332357 -47.148438 L 5.27767 -47.1875 L 5.21517 -47.21875 L 5.156576 -47.25 L 5.094076 -47.273438 L 5.031576 -47.292969 L 4.976889 -47.308594 L 4.926107 -47.320312 L 4.883139 -47.332031 L 4.847982 -47.339844 L 4.824545 -47.34375 L 4.812826 -47.34375 L 4.785482 -47.351562 L 4.543295 -47.390625 L 4.004232 -47.464844 L 3.211264 -47.582031 L 2.363607 -47.78125 L 1.691732 -48.128906 L 1.250326 -48.628906 L 0.875326 -49.210938 L 0.383139 -49.742188 L -0.269205 -50.136719 L -0.97233 -50.394531 L -1.569986 -50.585938 L -1.976236 -50.746094 L -2.175455 -50.847656 L -2.198893 -50.863281 " transform="matrix(1,0,0,1,95.40983,104)"/>
<path style="fill-rule:evenodd;fill:rgb(100%,100%,100%);fill-opacity:1;stroke-width:1;stroke-linecap:butt;stroke-linejoin:bevel;stroke:rgb(50.048876%,50.048876%,50.048876%);stroke-opacity:1;stroke-miterlimit:10;" d="M -11.777018 -24.066406 L -11.796549 -24.0625 L -11.960611 -24.046875 L -12.273111 -24.003906 L -12.694986 -23.933594 L -13.179361 -23.824219 L -13.671549 -23.664062 L -14.120768 -23.433594 L -14.491861 -23.117188 L -14.757486 -22.6875 L -14.917643 -22.125 L -14.980143 -21.394531 L -14.976236 -20.476562 L -14.929361 -19.335938 L -14.866861 -17.953125 L -14.800455 -16.316406 L -14.745768 -14.421875 L -14.710611 -12.28125 L -14.698893 -9.917969 L -14.718424 -7.371094 L -14.773111 -4.691406 L -14.862955 -1.929688 L -14.984049 0.847656 L -15.124674 3.585938 L -15.261393 6.226562 L -15.382486 8.71875 L -15.464518 11.023438 L -15.507486 13.105469 L -15.50358 14.949219 L -15.468424 16.546875 L -15.417643 17.898438 L -15.362955 19.019531 L -15.31608 19.921875 L -15.288736 20.628906 L -15.277018 21.167969 L -15.280924 21.566406 L -15.292643 21.839844 L -15.304361 22.011719 L -15.312174 22.097656 L -15.312174 22.105469 L -15.31608 22.136719 L -15.339518 22.351562 L -15.394205 22.734375 L -15.429361 23.195312 L -15.323893 23.652344 L -14.874674 24.054688 L -13.870768 24.363281 L -12.187174 24.566406 L -9.808268 24.679688 L -6.843424 24.730469 L -3.487955 24.777344 L -0.00748631 24.871094 L 3.312826 25.039062 L 6.211264 25.285156 L 8.523764 25.570312 L 10.18392 25.84375 L 11.222982 26.058594 L 11.71517 26.175781 L 11.77767 26.191406 L 11.797201 26.195312 L 11.961264 26.234375 L 12.269857 26.289062 L 12.687826 26.316406 L 13.168295 26.265625 L 13.656576 26.101562 L 14.12142 25.777344 L 14.52767 25.28125 L 14.855795 24.597656 L 15.109701 23.730469 L 15.293295 22.683594 L 15.422201 21.457031 L 15.515951 20.042969 L 15.586264 18.4375 L 15.640951 16.628906 L 15.680014 14.613281 L 15.711264 12.390625 L 15.726889 9.976562 L 15.730795 7.402344 L 15.730795 4.707031 L 15.722982 1.9375 L 15.711264 -0.84375 L 15.695639 -3.585938 L 15.676107 -6.226562 L 15.644857 -8.71875 L 15.609701 -11.023438 L 15.566732 -13.105469 L 15.523764 -14.949219 L 15.484701 -16.546875 L 15.449545 -17.898438 L 15.418295 -19.019531 L 15.387045 -19.921875 L 15.347982 -20.628906 L 15.297201 -21.167969 L 15.234701 -21.566406 L 15.172201 -21.839844 L 15.12142 -22.011719 L 15.09017 -22.097656 L 15.086264 -22.105469 L 15.078451 -22.132812 L 14.99642 -22.320312 L 14.797201 -22.664062 L 14.430014 -23.089844 L 13.801107 -23.523438 L 12.824545 -23.890625 L 11.410482 -24.152344 L 9.500326 -24.316406 L 7.101889 -24.40625 L 4.297201 -24.460938 L 1.250326 -24.492188 L -1.808268 -24.496094 L -4.655924 -24.464844 L -7.101236 -24.390625 L -9.03483 -24.292969 L -10.425455 -24.191406 L -11.304361 -24.113281 L -11.72233 -24.070312 L -11.777018 -24.066406 " transform="matrix(1,0,0,1,105.40983,219)"/>
<path style="fill-rule:evenodd;fill:rgb(100%,100%,100%);fill-opacity:1;stroke-width:1;stroke-linecap:butt;stroke-linejoin:bevel;stroke:rgb(50.048876%,50.048876%,50.048876%);stroke-opacity:1;stroke-miterlimit:10;" d="M -7.019857 -25.074219 L -7.02767 -25.074219 L -7.094076 -25.085938 L -7.222982 -25.113281 L -7.410482 -25.152344 L -7.644857 -25.207031 L -7.910482 -25.269531 L -8.199545 -25.332031 L -8.488607 -25.382812 L -8.765951 -25.398438 L -9.008139 -25.359375 L -9.21517 -25.25 L -9.37142 -25.050781 L -9.476889 -24.757812 L -9.539389 -24.363281 L -9.566732 -23.875 L -9.570639 -23.292969 L -9.566732 -22.621094 L -9.562826 -21.867188 L -9.570639 -21.027344 L -9.594076 -20.105469 L -9.637045 -19.085938 L -9.687826 -17.972656 L -9.74642 -16.753906 L -9.805014 -15.425781 L -9.859701 -13.988281 L -9.910482 -12.441406 L -9.949545 -10.796875 L -9.980795 -9.054688 L -10.000326 -7.238281 L -10.012045 -5.359375 L -10.015951 -3.4375 L -10.004232 -1.488281 L -9.980795 0.460938 L -9.941732 2.390625 L -9.883139 4.285156 L -9.80892 6.125 L -9.726889 7.894531 L -9.640951 9.574219 L -9.555014 11.15625 L -9.480795 12.628906 L -9.422201 13.988281 L -9.383139 15.226562 L -9.367514 16.34375 L -9.379232 17.339844 L -9.418295 18.21875 L -9.476889 18.984375 L -9.555014 19.644531 L -9.648764 20.203125 L -9.750326 20.675781 L -9.855795 21.0625 L -9.953451 21.382812 L -10.043295 21.636719 L -10.12142 21.835938 L -10.180014 21.988281 L -10.222982 22.101562 L -10.254232 22.179688 L -10.269857 22.230469 L -10.27767 22.257812 L -10.281576 22.257812 L -10.285482 22.273438 L -10.312826 22.371094 L -10.332357 22.546875 L -10.285482 22.78125 L -10.070639 23.082031 L -9.59017 23.449219 L -8.765951 23.863281 L -7.562826 24.269531 L -6.000326 24.597656 L -4.144857 24.808594 L -2.101889 24.90625 L -0.0120449 24.933594 L 1.97233 24.9375 L 3.702799 24.972656 L 5.081705 25.058594 L 6.069986 25.195312 L 6.69108 25.339844 L 6.984049 25.433594 L 7.019205 25.445312 L 7.027018 25.449219 L 7.093424 25.472656 L 7.226236 25.527344 L 7.40983 25.613281 L 7.648111 25.726562 L 7.921549 25.867188 L 8.22233 26.015625 L 8.53483 26.15625 L 8.84733 26.257812 L 9.148111 26.285156 L 9.425455 26.21875 L 9.663736 26.027344 L 9.859049 25.710938 L 10.007486 25.261719 L 10.105143 24.6875 L 10.155924 24 L 10.171549 23.21875 L 10.152018 22.347656 L 10.112955 21.402344 L 10.069986 20.386719 L 10.027018 19.289062 L 10.00358 18.113281 L 9.999674 16.847656 L 10.019205 15.488281 L 10.069986 14.027344 L 10.144205 12.464844 L 10.234049 10.808594 L 10.331705 9.0625 L 10.433268 7.242188 L 10.530924 5.359375 L 10.612955 3.4375 L 10.683268 1.488281 L 10.737955 -0.460938 L 10.780924 -2.390625 L 10.81608 -4.285156 L 10.843424 -6.125 L 10.859049 -7.894531 L 10.866861 -9.574219 L 10.866861 -11.15625 L 10.84733 -12.628906 L 10.808268 -13.988281 L 10.749674 -15.226562 L 10.671549 -16.34375 L 10.585611 -17.339844 L 10.491861 -18.21875 L 10.402018 -18.984375 L 10.327799 -19.644531 L 10.273111 -20.203125 L 10.237955 -20.675781 L 10.230143 -21.0625 L 10.241861 -21.382812 L 10.265299 -21.636719 L 10.296549 -21.835938 L 10.331705 -21.988281 L 10.362955 -22.101562 L 10.386393 -22.179688 L 10.402018 -22.230469 L 10.40983 -22.257812 L 10.413736 -22.269531 L 10.425455 -22.363281 L 10.374674 -22.558594 L 10.155924 -22.851562 L 9.663736 -23.222656 L 8.839518 -23.613281 L 7.687174 -23.957031 L 6.241861 -24.226562 L 4.558268 -24.414062 L 2.718424 -24.546875 L 0.808268 -24.644531 L -1.05892 -24.726562 L -2.769857 -24.789062 L -4.234701 -24.847656 L -5.387045 -24.902344 L -6.21517 -24.96875 L -6.738607 -25.027344 L -6.988607 -25.066406 L -7.019857 -25.074219 " transform="matrix(1,0,0,1,146.59017,159)"/>
<path style="fill-rule:evenodd;fill:rgb(100%,100%,100%);fill-opacity:1;stroke-width:1;stroke-linecap:butt;stroke-linejoin:bevel;stroke:rgb(50.048876%,50.048876%,50.048876%);stroke-opacity:1;stroke-miterlimit:10;" d="M -2.198893 -24 L -2.202799 -24 L -2.226236 -23.984375 L -2.269205 -23.953125 L -2.339518 -23.90625 L -2.429361 -23.847656 L -2.546549 -23.773438 L -2.69108 -23.683594 L -2.859049 -23.582031 L -3.046549 -23.472656 L -3.25358 -23.347656 L -3.468424 -23.210938 L -3.69108 -23.0625 L -3.90983 -22.902344 L -4.120768 -22.726562 L -4.312174 -22.535156 L -4.480143 -22.324219 L -4.620768 -22.089844 L -4.734049 -21.828125 L -4.819986 -21.53125 L -4.87858 -21.195312 L -4.913736 -20.820312 L -4.933268 -20.394531 L -4.937174 -19.914062 L -4.929361 -19.378906 L -4.917643 -18.777344 L -4.898111 -18.117188 L -4.87858 -17.386719 L -4.862955 -16.59375 L -4.84733 -15.730469 L -4.835611 -14.800781 L -4.827799 -13.804688 L -4.827799 -12.746094 L -4.835611 -11.628906 L -4.855143 -10.460938 L -4.882486 -9.238281 L -4.925455 -7.972656 L -4.976236 -6.667969 L -5.03483 -5.332031 L -5.105143 -3.96875 L -5.187174 -2.589844 L -5.269205 -1.203125 L -5.355143 0.191406 L -5.437174 1.578125 L -5.511393 2.949219 L -5.577799 4.304688 L -5.624674 5.632812 L -5.65983 6.925781 L -5.671549 8.183594 L -5.667643 9.394531 L -5.644205 10.554688 L -5.605143 11.664062 L -5.558268 12.714844 L -5.499674 13.710938 L -5.44108 14.640625 L -5.386393 15.507812 L -5.335611 16.3125 L -5.296549 17.054688 L -5.273111 17.734375 L -5.265299 18.355469 L -5.277018 18.914062 L -5.312174 19.414062 L -5.366861 19.863281 L -5.44108 20.257812 L -5.538736 20.609375 L -5.652018 20.910156 L -5.777018 21.171875 L -5.913736 21.398438 L -6.050455 21.589844 L -6.187174 21.75 L -6.31608 21.882812 L -6.437174 21.996094 L -6.538736 22.082031 L -6.624674 22.15625 L -6.694986 22.210938 L -6.749674 22.253906 L -6.78483 22.28125 L -6.808268 22.300781 L -6.819986 22.3125 L -6.831705 22.320312 L -6.870768 22.398438 L -6.769205 22.578125 L -6.312174 22.890625 L -5.40983 23.351562 L -4.167643 23.917969 L -2.804361 24.496094 L -1.519205 24.980469 L -0.421549 25.28125 L 0.469076 25.375 L 1.164389 25.285156 L 1.680014 25.101562 L 2.015951 24.914062 L 2.180014 24.796875 L 2.199545 24.78125 L 2.203451 24.78125 L 2.226889 24.761719 L 2.269857 24.730469 L 2.336264 24.675781 L 2.422201 24.605469 L 2.52767 24.515625 L 2.65267 24.40625 L 2.797201 24.277344 L 2.953451 24.128906 L 3.12142 23.960938 L 3.293295 23.777344 L 3.469076 23.578125 L 3.640951 23.359375 L 3.805014 23.128906 L 3.957357 22.878906 L 4.094076 22.613281 L 4.21517 22.328125 L 4.316732 22.019531 L 4.40267 21.683594 L 4.472982 21.316406 L 4.531576 20.910156 L 4.578451 20.460938 L 4.617514 19.964844 L 4.65267 19.414062 L 4.68392 18.804688 L 4.711264 18.132812 L 4.742514 17.398438 L 4.773764 16.597656 L 4.805014 15.734375 L 4.836264 14.800781 L 4.87142 13.804688 L 4.90267 12.75 L 4.930014 11.632812 L 4.957357 10.460938 L 4.976889 9.238281 L 4.992514 7.972656 L 5.000326 6.667969 L 5.000326 5.332031 L 4.99642 3.96875 L 4.984701 2.589844 L 4.972982 1.203125 L 4.961264 -0.191406 L 4.953451 -1.578125 L 4.957357 -2.949219 L 4.972982 -4.304688 L 5.004232 -5.632812 L 5.055014 -6.925781 L 5.12142 -8.183594 L 5.207357 -9.394531 L 5.301107 -10.554688 L 5.406576 -11.664062 L 5.508139 -12.714844 L 5.605795 -13.710938 L 5.687826 -14.640625 L 5.754232 -15.507812 L 5.793295 -16.3125 L 5.805014 -17.054688 L 5.793295 -17.734375 L 5.762045 -18.355469 L 5.707357 -18.914062 L 5.648764 -19.414062 L 5.582357 -19.863281 L 5.519857 -20.257812 L 5.46517 -20.609375 L 5.422201 -20.910156 L 5.394857 -21.171875 L 5.379232 -21.398438 L 5.375326 -21.589844 L 5.383139 -21.75 L 5.398764 -21.882812 L 5.414389 -21.996094 L 5.43392 -22.082031 L 5.453451 -22.15625 L 5.469076 -22.210938 L 5.484701 -22.253906 L 5.492514 -22.28125 L 5.500326 -22.300781 L 5.504232 -22.3125 L 5.508139 -22.320312 L 5.504232 -22.398438 L 5.387045 -22.570312 L 5.019857 -22.855469 L 4.344076 -23.21875 L 3.414389 -23.597656 L 2.355795 -23.925781 L 1.305014 -24.171875 L 0.344076 -24.328125 L -0.487955 -24.394531 L -1.167643 -24.363281 L -1.679361 -24.253906 L -2.015299 -24.113281 L -2.179361 -24.015625 L -2.198893 -24 " transform="matrix(1,0,0,1,95.40983,29)"/>
<path style="fill-rule:evenodd;fill:rgb(100%,100%,100%);fill-opacity:1;stroke-width:1;stroke-linecap:butt;stroke-linejoin:bevel;stroke:rgb(50.048876%,50.048876%,50.048876%);stroke-opacity:1;stroke-miterlimit:10;" d="M -2.199545 -4.25 L -2.226889 -4.21875 L -2.410482 -3.953125 L -2.750326 -3.386719 L -3.180014 -2.589844 L -3.648764 -1.792969 L -4.125326 -1.238281 L -4.582357 -0.945312 L -4.99642 -0.710938 L -5.30892 -0.316406 L -5.445639 0.289062 L -5.355795 0.976562 L -5.070639 1.570312 L -4.722982 1.976562 L -4.488607 2.175781 L -4.457357 2.199219 L -4.430014 2.222656 L -4.222982 2.386719 L -3.851889 2.726562 L -3.383139 3.214844 L -2.863607 3.769531 L -2.297201 4.257812 L -1.668295 4.570312 L -0.96517 4.671875 L -0.21517 4.640625 L 0.523111 4.597656 L 1.171549 4.640625 L 1.679361 4.789062 L 2.015299 4.976562 L 2.179361 5.105469 L 2.198893 5.125 L 2.22233 5.140625 L 2.382486 5.246094 L 2.702799 5.292969 L 3.171549 5.074219 L 3.745768 4.480469 L 4.34733 3.554688 L 4.855143 2.460938 L 5.15983 1.359375 L 5.241861 0.367188 L 5.175455 -0.480469 L 5.105143 -1.167969 L 5.12858 -1.679688 L 5.241861 -2.015625 L 5.343424 -2.179688 L 5.359049 -2.199219 L 5.37858 -2.226562 L 5.558268 -2.410156 L 5.976236 -2.757812 L 6.495768 -3.230469 L 6.69108 -3.796875 L 6.140299 -4.398438 L 4.792643 -4.933594 L 3.030924 -5.304688 L 1.351236 -5.453125 L 0.0270176 -5.398438 L -0.918295 -5.175781 L -1.566732 -4.84375 L -1.976889 -4.5 L -2.176107 -4.28125 L -2.199545 -4.25 " transform="matrix(1,0,0,1,141.59017,229)"/>
<path style="fill-rule:evenodd;fill:rgb(100%,100%,100%);fill-opacity:1;stroke-width:1;stroke-linecap:butt;stroke-linejoin:bevel;stroke:rgb(50.048876%,50.048876%,50.048876%);stroke-opacity:1;stroke-miterlimit:10;" d="M -7.019857 -9.039062 L -7.051107 -9.019531 L -7.289389 -8.878906 L -7.738607 -8.621094 L -8.328451 -8.265625 L -8.957357 -7.820312 L -9.512045 -7.246094 L -9.890951 -6.472656 L -10.066732 -5.433594 L -10.074545 -4.097656 L -9.992514 -2.492188 L -9.90267 -0.71875 L -9.851889 1.085938 L -9.84017 2.777344 L -9.832357 4.234375 L -9.801107 5.386719 L -9.734701 6.214844 L -9.660482 6.738281 L -9.609701 6.988281 L -9.601889 7.019531 L -9.594076 7.054688 L -9.523764 7.332031 L -9.351889 7.824219 L -9.051107 8.4375 L -8.617514 9.050781 L -8.055014 9.550781 L -7.351889 9.878906 L -6.441732 10.035156 L -5.250326 10.082031 L -3.726889 10.089844 L -1.914389 10.101562 L 0.0543613 10.113281 L 1.987955 10.085938 L 3.706705 9.996094 L 5.081705 9.847656 L 6.069986 9.683594 L 6.69108 9.546875 L 6.984049 9.472656 L 7.019205 9.460938 L 7.054361 9.453125 L 7.331705 9.375 L 7.823893 9.214844 L 8.429361 8.964844 L 9.027018 8.613281 L 9.50358 8.144531 L 9.796549 7.496094 L 9.917643 6.597656 L 9.913736 5.375 L 9.855143 3.804688 L 9.792643 1.953125 L 9.745768 -0.0429688 L 9.702799 -1.984375 L 9.640299 -3.707031 L 9.542643 -5.082031 L 9.413736 -6.070312 L 9.28483 -6.691406 L 9.198893 -6.984375 L 9.19108 -7.019531 L 9.179361 -7.050781 L 9.101236 -7.285156 L 8.933268 -7.699219 L 8.655924 -8.210938 L 8.237955 -8.738281 L 7.62858 -9.210938 L 6.777018 -9.589844 L 5.640299 -9.863281 L 4.218424 -10.039062 L 2.550455 -10.136719 L 0.741861 -10.164062 L -1.078451 -10.132812 L -2.77767 -10.046875 L -4.234701 -9.890625 L -5.387045 -9.671875 L -6.21517 -9.421875 L -6.738607 -9.195312 L -6.988607 -9.058594 L -7.019857 -9.039062 " transform="matrix(1,0,0,1,146.59017,194)"/>
<path style="fill-rule:evenodd;fill:rgb(100%,100%,100%);fill-opacity:1;stroke-width:1;stroke-linecap:butt;stroke-linejoin:bevel;stroke:rgb(50.048876%,50.048876%,50.048876%);stroke-opacity:1;stroke-miterlimit:10;" d="M -11.777018 -14.578125 L -11.835611 -14.566406 L -12.296549 -14.464844 L -13.116861 -14.234375 L -14.105143 -13.847656 L -15.027018 -13.300781 L -15.671549 -12.59375 L -15.952799 -11.667969 L -15.937174 -10.382812 L -15.757486 -8.566406 L -15.542643 -6.136719 L -15.34733 -3.164062 L -15.171549 0.109375 L -15.019205 3.34375 L -14.905924 6.21875 L -14.84733 8.523438 L -14.835611 10.183594 L -14.855143 11.222656 L -14.874674 11.714844 L -14.87858 11.777344 L -14.882486 11.835938 L -14.905924 12.296875 L -14.960611 13.117188 L -15.007486 14.121094 L -14.921549 15.0625 L -14.511393 15.722656 L -13.577799 15.992188 L -11.97233 15.898438 L -9.675455 15.59375 L -6.769205 15.265625 L -3.456705 15.042969 L 0.00423244 14.964844 L 3.312826 15.007812 L 6.211264 15.121094 L 8.523764 15.273438 L 10.18392 15.425781 L 11.222982 15.554688 L 11.71517 15.632812 L 11.77767 15.640625 L 11.828451 15.648438 L 12.211264 15.695312 L 12.855795 15.6875 L 13.582357 15.46875 L 14.219076 14.871094 L 14.668295 13.785156 L 14.910482 12.160156 L 14.988607 10.007812 L 14.961264 7.394531 L 14.898764 4.4375 L 14.855795 1.308594 L 14.867514 -1.789062 L 14.957357 -4.652344 L 15.109701 -7.101562 L 15.285482 -9.035156 L 15.441732 -10.425781 L 15.55892 -11.304688 L 15.613607 -11.722656 L 15.62142 -11.777344 L 15.629232 -11.835938 L 15.695639 -12.296875 L 15.801107 -13.117188 L 15.87142 -14.109375 L 15.750326 -15.019531 L 15.242514 -15.617188 L 14.148764 -15.789062 L 12.367514 -15.585938 L 9.910482 -15.199219 L 6.890951 -14.847656 L 3.508139 -14.675781 L 0.0120449 -14.691406 L -3.308268 -14.800781 L -6.210611 -14.886719 L -8.523111 -14.882812 L -10.183268 -14.792969 L -11.22233 -14.671875 L -11.714518 -14.589844 L -11.777018 -14.578125 " transform="matrix(1,0,0,1,105.40983,169)"/>
<path style="fill-rule:evenodd;fill:rgb(100%,100%,100%);fill-opacity:1;stroke-width:1;stroke-linecap:butt;stroke-linejoin:bevel;stroke:rgb(50.048876%,50.048876%,50.048876%);stroke-opacity:1;stroke-miterlimit:10;" d="M -32.202146 -15.507812 L -32.217771 -15.511719 L -32.342771 -15.523438 L -32.565428 -15.464844 L -32.85449 -15.203125 L -33.16699 -14.59375 L -33.483396 -13.535156 L -33.780271 -11.964844 L -34.057615 -9.875 L -34.311521 -7.316406 L -34.534178 -4.402344 L -34.721678 -1.292969 L -34.881834 1.796875 L -35.014646 4.652344 L -35.131834 7.101562 L -35.233396 9.035156 L -35.32324 10.425781 L -35.389646 11.304688 L -35.428709 11.722656 L -35.432615 11.777344 L -35.436521 11.789062 L -35.444334 11.902344 L -35.467771 12.117188 L -35.499021 12.429688 L -35.54199 12.820312 L -35.584959 13.269531 L -35.620115 13.746094 L -35.627928 14.226562 L -35.596678 14.679688 L -35.502928 15.078125 L -35.331053 15.398438 L -35.065428 15.632812 L -34.694334 15.773438 L -34.209959 15.824219 L -33.612303 15.808594 L -32.897459 15.738281 L -32.061521 15.640625 L -31.100584 15.535156 L -30.006834 15.441406 L -28.772459 15.375 L -27.389646 15.332031 L -25.846678 15.316406 L -24.13574 15.324219 L -22.252928 15.34375 L -20.19824 15.363281 L -17.97949 15.378906 L -15.60449 15.382812 L -13.092771 15.375 L -10.467771 15.355469 L -7.749021 15.324219 L -4.967771 15.292969 L -2.155271 15.261719 L 0.665041 15.242188 L 3.461916 15.230469 L 6.204104 15.234375 L 8.86426 15.25 L 11.422854 15.277344 L 13.852541 15.304688 L 16.141604 15.332031 L 18.274416 15.347656 L 20.23926 15.34375 L 22.028322 15.316406 L 23.64551 15.261719 L 25.086916 15.183594 L 26.360354 15.085938 L 27.465822 14.976562 L 28.422854 14.867188 L 29.231447 14.761719 L 29.915041 14.667969 L 30.477541 14.589844 L 30.934572 14.53125 L 31.30176 14.488281 L 31.590822 14.457031 L 31.813479 14.441406 L 31.977541 14.429688 L 32.090822 14.425781 L 32.165041 14.421875 L 32.219729 14.421875 L 32.352541 14.40625 L 32.61426 14.328125 L 32.997072 14.09375 L 33.45801 13.59375 L 33.92676 12.71875 L 34.329104 11.363281 L 34.602541 9.488281 L 34.735354 7.101562 L 34.754885 4.296875 L 34.715822 1.253906 L 34.665041 -1.808594 L 34.618166 -4.65625 L 34.579104 -7.101562 L 34.528322 -9.035156 L 34.465822 -10.425781 L 34.403322 -11.304688 L 34.36426 -11.722656 L 34.360354 -11.777344 L 34.360354 -11.789062 L 34.348635 -11.902344 L 34.321291 -12.117188 L 34.282229 -12.429688 L 34.223635 -12.820312 L 34.141604 -13.265625 L 34.036135 -13.742188 L 33.907229 -14.21875 L 33.750979 -14.667969 L 33.563479 -15.0625 L 33.348635 -15.378906 L 33.102541 -15.609375 L 32.809572 -15.753906 L 32.461916 -15.816406 L 32.043947 -15.808594 L 31.540041 -15.753906 L 30.930666 -15.671875 L 30.188479 -15.578125 L 29.30176 -15.492188 L 28.247072 -15.417969 L 27.012697 -15.371094 L 25.586916 -15.347656 L 23.961916 -15.34375 L 22.141604 -15.355469 L 20.129885 -15.378906 L 17.938479 -15.40625 L 15.58301 -15.433594 L 13.08301 -15.457031 L 10.461916 -15.472656 L 7.750979 -15.480469 L 4.969729 -15.480469 L 2.153322 -15.472656 L -0.663084 -15.460938 L -3.459959 -15.441406 L -6.202146 -15.421875 L -8.862303 -15.394531 L -11.420896 -15.367188 L -13.850584 -15.332031 L -16.139646 -15.292969 L -18.272459 -15.25 L -20.237303 -15.207031 L -22.026365 -15.164062 L -23.643553 -15.125 L -25.084959 -15.097656 L -26.358396 -15.085938 L -27.463865 -15.089844 L -28.420896 -15.109375 L -29.22949 -15.144531 L -29.913084 -15.1875 L -30.475584 -15.238281 L -30.932615 -15.289062 L -31.299803 -15.339844 L -31.588865 -15.386719 L -31.811521 -15.425781 L -31.975584 -15.457031 L -32.088865 -15.484375 L -32.163084 -15.5 L -32.19824 -15.507812 L -32.202146 -15.507812 " transform="matrix(1,0,0,1,39.22949,124)"/>
<path style="fill-rule:evenodd;fill:rgb(100%,100%,100%);fill-opacity:1;stroke-width:1;stroke-linecap:butt;stroke-linejoin:bevel;stroke:rgb(50.048876%,50.048876%,50.048876%);stroke-opacity:1;stroke-miterlimit:10;" d="M -12.230795 -10.511719 L -12.242514 -10.507812 L -12.355795 -10.46875 L -12.597982 -10.339844 L -12.969076 -10.042969 L -13.445639 -9.503906 L -13.96517 -8.671875 L -14.457357 -7.542969 L -14.855795 -6.136719 L -15.140951 -4.496094 L -15.320639 -2.6875 L -15.418295 -0.796875 L -15.469076 1.0625 L -15.476889 2.773438 L -15.461264 4.234375 L -15.426107 5.386719 L -15.383139 6.214844 L -15.347982 6.738281 L -15.324545 6.988281 L -15.324545 7.019531 L -15.320639 7.035156 L -15.312826 7.144531 L -15.289389 7.351562 L -15.254232 7.644531 L -15.195639 8 L -15.105795 8.390625 L -14.969076 8.792969 L -14.765951 9.175781 L -14.480795 9.523438 L -14.109701 9.816406 L -13.633139 10.039062 L -13.055014 10.1875 L -12.363607 10.265625 L -11.55892 10.273438 L -10.633139 10.222656 L -9.578451 10.125 L -8.394857 10.003906 L -7.082357 9.875 L -5.65267 9.761719 L -4.12142 9.675781 L -2.519857 9.636719 L -0.879232 9.640625 L 0.761393 9.6875 L 2.362955 9.761719 L 3.890299 9.847656 L 5.31608 9.929688 L 6.612955 9.988281 L 7.765299 10.015625 L 8.769205 10.007812 L 9.616861 9.964844 L 10.31608 9.898438 L 10.882486 9.8125 L 11.323893 9.710938 L 11.655924 9.605469 L 11.902018 9.5 L 12.069986 9.40625 L 12.171549 9.335938 L 12.22233 9.296875 L 12.230143 9.292969 L 12.245768 9.28125 L 12.366861 9.171875 L 12.577799 8.933594 L 12.831705 8.558594 L 13.089518 8.066406 L 13.331705 7.5 L 13.554361 6.855469 L 13.761393 6.0625 L 13.948893 5 L 14.093424 3.589844 L 14.183268 1.851562 L 14.226236 -0.078125 L 14.261393 -1.996094 L 14.343424 -3.707031 L 14.515299 -5.082031 L 14.757486 -6.070312 L 15.00358 -6.691406 L 15.155924 -6.984375 L 15.175455 -7.019531 L 15.187174 -7.035156 L 15.25358 -7.144531 L 15.394205 -7.351562 L 15.616861 -7.640625 L 15.90983 -7.984375 L 16.230143 -8.351562 L 16.519205 -8.707031 L 16.69108 -9.015625 L 16.667643 -9.25 L 16.394205 -9.402344 L 15.859049 -9.480469 L 15.06608 -9.492188 L 14.062174 -9.460938 L 12.898111 -9.410156 L 11.620768 -9.347656 L 10.257486 -9.292969 L 8.831705 -9.25 L 7.343424 -9.230469 L 5.796549 -9.238281 L 4.194986 -9.28125 L 2.554361 -9.359375 L 0.894205 -9.472656 L -0.754232 -9.609375 L -2.359701 -9.765625 L -3.890951 -9.925781 L -5.316732 -10.082031 L -6.613607 -10.226562 L -7.765951 -10.351562 L -8.769857 -10.453125 L -9.617514 -10.53125 L -10.316732 -10.582031 L -10.883139 -10.605469 L -11.324545 -10.605469 L -11.656576 -10.589844 L -11.90267 -10.566406 L -12.070639 -10.542969 L -12.172201 -10.523438 L -12.222982 -10.511719 L -12.230795 -10.511719 " transform="matrix(1,0,0,1,151.59017,214)"/>
<path style="fill-rule:evenodd;fill:rgb(100%,100%,100%);fill-opacity:1;stroke-width:1;stroke-linecap:butt;stroke-linejoin:bevel;stroke:rgb(50.048876%,50.048876%,50.048876%);stroke-opacity:1;stroke-miterlimit:10;" d="M -17.297854 -4.410156 L -17.309572 -4.410156 L -17.399416 -4.390625 L -17.602541 -4.289062 L -17.934572 -4.019531 L -18.368166 -3.53125 L -18.836916 -2.847656 L -19.254885 -2.023438 L -19.575197 -1.144531 L -19.786135 -0.285156 L -19.911135 0.503906 L -19.977541 1.171875 L -20.012697 1.679688 L -20.024416 2.015625 L -20.028322 2.179688 L -20.032229 2.199219 L -20.032229 2.230469 L -20.024416 2.289062 L -20.012697 2.371094 L -19.977541 2.484375 L -19.918947 2.621094 L -19.825197 2.777344 L -19.688479 2.953125 L -19.508791 3.136719 L -19.286135 3.324219 L -19.02051 3.507812 L -18.711916 3.683594 L -18.372072 3.839844 L -17.997072 3.980469 L -17.590822 4.105469 L -17.153322 4.207031 L -16.67676 4.292969 L -16.161135 4.371094 L -15.594729 4.4375 L -14.977541 4.5 L -14.30176 4.558594 L -13.555666 4.621094 L -12.73926 4.6875 L -11.852541 4.75 L -10.887697 4.816406 L -9.852541 4.875 L -8.750979 4.929688 L -7.58301 4.976562 L -6.36426 5.015625 L -5.094729 5.046875 L -3.790041 5.070312 L -2.45801 5.089844 L -1.110354 5.109375 L 0.241209 5.132812 L 1.584959 5.164062 L 2.909178 5.195312 L 4.206053 5.226562 L 5.459959 5.257812 L 6.66699 5.285156 L 7.819334 5.300781 L 8.909178 5.304688 L 9.928709 5.289062 L 10.874021 5.261719 L 11.749021 5.214844 L 12.54199 5.160156 L 13.264646 5.097656 L 13.909178 5.035156 L 14.47949 4.980469 L 14.983396 4.933594 L 15.420896 4.902344 L 15.795896 4.886719 L 16.112303 4.890625 L 16.381834 4.910156 L 16.60449 4.941406 L 16.784178 4.980469 L 16.932615 5.023438 L 17.045896 5.066406 L 17.13574 5.105469 L 17.202146 5.136719 L 17.295896 5.183594 L 17.307615 5.1875 L 17.393553 5.203125 L 17.581053 5.125 L 17.862303 4.8125 L 18.221678 4.195312 L 18.592771 3.316406 L 18.924803 2.304688 L 19.170896 1.28125 L 19.319334 0.335938 L 19.381834 -0.492188 L 19.381834 -1.167969 L 19.350584 -1.679688 L 19.303709 -2.015625 L 19.276365 -2.179688 L 19.272459 -2.199219 L 19.268553 -2.203125 L 19.264646 -2.234375 L 19.249021 -2.292969 L 19.22949 -2.378906 L 19.19824 -2.488281 L 19.155271 -2.621094 L 19.096678 -2.773438 L 19.022459 -2.941406 L 18.924803 -3.121094 L 18.811521 -3.316406 L 18.670896 -3.519531 L 18.506834 -3.726562 L 18.315428 -3.9375 L 18.092771 -4.144531 L 17.838865 -4.339844 L 17.549803 -4.515625 L 17.221678 -4.667969 L 16.842771 -4.792969 L 16.413084 -4.886719 L 15.920896 -4.953125 L 15.358396 -4.988281 L 14.721678 -5.003906 L 14.002928 -5.003906 L 13.19824 -4.992188 L 12.307615 -4.984375 L 11.327146 -4.972656 L 10.264646 -4.96875 L 9.124021 -4.96875 L 7.913084 -4.972656 L 6.63574 -4.984375 L 5.307615 -5 L 3.936521 -5.023438 L 2.538084 -5.050781 L 1.124021 -5.085938 L -0.290041 -5.125 L -1.696291 -5.164062 L -3.079104 -5.199219 L -4.42676 -5.234375 L -5.723635 -5.257812 L -6.969729 -5.273438 L -8.149416 -5.28125 L -9.258791 -5.277344 L -10.290041 -5.257812 L -11.243166 -5.230469 L -12.11426 -5.191406 L -12.903322 -5.136719 L -13.606447 -5.074219 L -14.235354 -5 L -14.786135 -4.917969 L -15.262697 -4.835938 L -15.672854 -4.753906 L -16.02051 -4.671875 L -16.313479 -4.601562 L -16.55176 -4.542969 L -16.750979 -4.496094 L -16.907229 -4.460938 L -17.032229 -4.4375 L -17.129885 -4.425781 L -17.200197 -4.417969 L -17.250979 -4.414062 L -17.282229 -4.410156 L -17.297854 -4.410156 " transform="matrix(1,0,0,1,192.77051,159)"/>
<path style="fill-rule:evenodd;fill:rgb(100%,100%,100%);fill-opacity:1;stroke-width:1;stroke-linecap:butt;stroke-linejoin:bevel;stroke:rgb(50.048876%,50.048876%,50.048876%);stroke-opacity:1;stroke-miterlimit:10;" d="M -7.019857 -14.949219 L -7.035482 -14.953125 L -7.144857 -14.976562 L -7.351889 -15.03125 L -7.644857 -15.109375 L -7.99642 -15.210938 L -8.383139 -15.3125 L -8.769857 -15.375 L -9.133139 -15.355469 L -9.437826 -15.210938 L -9.672201 -14.914062 L -9.820639 -14.445312 L -9.887045 -13.804688 L -9.883139 -13.007812 L -9.820639 -12.074219 L -9.730795 -11.015625 L -9.637045 -9.84375 L -9.555014 -8.566406 L -9.500326 -7.183594 L -9.472982 -5.707031 L -9.476889 -4.152344 L -9.49642 -2.535156 L -9.531576 -0.886719 L -9.570639 0.757812 L -9.617514 2.363281 L -9.672201 3.890625 L -9.722982 5.316406 L -9.773764 6.613281 L -9.80892 7.765625 L -9.820639 8.769531 L -9.793295 9.617188 L -9.719076 10.316406 L -9.586264 10.882812 L -9.398764 11.324219 L -9.172201 11.65625 L -8.926107 11.902344 L -8.699545 12.070312 L -8.523764 12.171875 L -8.430014 12.222656 L -8.414389 12.230469 L -8.387045 12.242188 L -8.180014 12.351562 L -7.832357 12.558594 L -7.422201 12.839844 L -7.000326 13.164062 L -6.535482 13.476562 L -5.93392 13.738281 L -5.074545 13.925781 L -3.890951 14.035156 L -2.394857 14.097656 L -0.680014 14.140625 L 1.101236 14.183594 L 2.780924 14.21875 L 4.234049 14.238281 L 5.386393 14.222656 L 6.214518 14.183594 L 6.737955 14.132812 L 6.987955 14.097656 L 7.019205 14.09375 L 7.03483 14.089844 L 7.132486 14.074219 L 7.31608 14.035156 L 7.569986 13.972656 L 7.866861 13.875 L 8.187174 13.730469 L 8.515299 13.539062 L 8.835611 13.289062 L 9.140299 12.96875 L 9.429361 12.578125 L 9.69108 12.097656 L 9.917643 11.519531 L 10.093424 10.832031 L 10.210611 10.023438 L 10.261393 9.082031 L 10.237955 8.011719 L 10.155924 6.8125 L 10.030924 5.496094 L 9.882486 4.082031 L 9.737955 2.597656 L 9.612955 1.070312 L 9.527018 -0.46875 L 9.480143 -1.984375 L 9.476236 -3.445312 L 9.50358 -4.824219 L 9.558268 -6.097656 L 9.620768 -7.25 L 9.679361 -8.269531 L 9.718424 -9.15625 L 9.730143 -9.902344 L 9.702799 -10.519531 L 9.640299 -11.019531 L 9.538736 -11.414062 L 9.413736 -11.710938 L 9.28483 -11.929688 L 9.163736 -12.082031 L 9.069986 -12.179688 L 9.019205 -12.222656 L 8.995768 -12.246094 L 8.835611 -12.367188 L 8.487955 -12.578125 L 7.948893 -12.832031 L 7.292643 -13.09375 L 6.632486 -13.335938 L 6.023111 -13.558594 L 5.37858 -13.773438 L 4.530924 -13.980469 L 3.323893 -14.175781 L 1.730143 -14.351562 L -0.12142 -14.484375 L -2.008139 -14.582031 L -3.711264 -14.652344 L -5.082357 -14.722656 L -6.070639 -14.804688 L -6.691732 -14.886719 L -6.984701 -14.941406 L -7.019857 -14.949219 " transform="matrix(1,0,0,1,126.59017,104)"/>
</g>
</svg>
