<?xml version="1.0" encoding="UTF-8"?>
<svg xmlns="http://www.w3.org/2000/svg" xmlns:xlink="http://www.w3.org/1999/xlink" width="168.472136pt" height="280.832816pt" viewBox="0 0 168.472136 280.832816" version="1.1">
<g id="surface431">
<path style="fill-rule:evenodd;fill:rgb(100%,100%,100%);fill-opacity:1;stroke-width:1;stroke-linecap:butt;stroke-linejoin:bevel;stroke:rgb(50.048876%,50.048876%,50.048876%);stroke-opacity:1;stroke-miterlimit:10;" d="M -2.199219 -49.542643 L -2.203125 -49.542643 L -2.210938 -49.538736 L -2.234375 -49.530924 L -2.265625 -49.519205 L -2.308594 -49.499674 L -2.363281 -49.480143 L -2.433594 -49.448893 L -2.515625 -49.40983 L -2.605469 -49.362955 L -2.710938 -49.308268 L -2.828125 -49.245768 L -2.957031 -49.171549 L -3.089844 -49.089518 L -3.234375 -48.995768 L -3.382812 -48.894205 L -3.53125 -48.78483 L -3.683594 -48.667643 L -3.832031 -48.542643 L -3.976562 -48.413736 L -4.113281 -48.277018 L -4.246094 -48.136393 L -4.371094 -47.991861 L -4.488281 -47.843424 L -4.59375 -47.69108 L -4.6875 -47.530924 L -4.777344 -47.366861 L -4.851562 -47.198893 L -4.921875 -47.023111 L -4.984375 -46.835611 L -5.039062 -46.640299 L -5.082031 -46.433268 L -5.125 -46.214518 L -5.160156 -45.980143 L -5.1875 -45.730143 L -5.210938 -45.460611 L -5.230469 -45.167643 L -5.246094 -44.859049 L -5.257812 -44.523111 L -5.265625 -44.163736 L -5.269531 -43.777018 L -5.269531 -43.362955 L -5.265625 -42.921549 L -5.257812 -42.448893 L -5.25 -41.948893 L -5.234375 -41.413736 L -5.21875 -40.84733 L -5.199219 -40.245768 L -5.183594 -39.609049 L -5.164062 -38.94108 L -5.144531 -38.237955 L -5.128906 -37.499674 L -5.117188 -36.726236 L -5.105469 -35.917643 L -5.097656 -35.069986 L -5.097656 -33.273111 L -5.101562 -32.323893 L -5.109375 -31.339518 L -5.121094 -30.319986 L -5.132812 -29.265299 L -5.144531 -28.179361 L -5.160156 -27.062174 L -5.171875 -25.913736 L -5.183594 -24.734049 L -5.195312 -23.527018 L -5.203125 -22.288736 L -5.207031 -21.027018 L -5.203125 -19.737955 L -5.199219 -18.425455 L -5.191406 -17.089518 L -5.179688 -15.734049 L -5.164062 -14.359049 L -5.144531 -12.964518 L -5.121094 -11.554361 L -5.09375 -10.132486 L -5.066406 -8.694986 L -5.039062 -7.249674 L -5.015625 -5.796549 L -4.988281 -4.335611 L -4.949219 -1.398111 L -4.933594 0.0706387 L -4.921875 1.535482 L -4.917969 3.000326 L -4.917969 4.461264 L -4.921875 5.914389 L -4.933594 7.355795 L -4.945312 8.785482 L -4.960938 10.207357 L -4.980469 11.609701 L -5 13.000326 L -5.019531 14.367514 L -5.042969 15.719076 L -5.0625 17.051107 L -5.082031 18.355795 L -5.097656 19.640951 L -5.109375 20.898764 L -5.121094 22.129232 L -5.128906 23.332357 L -5.132812 24.508139 L -5.136719 25.65267 L -5.132812 26.765951 L -5.128906 27.851889 L -5.121094 28.90267 L -5.109375 29.922201 L -5.09375 30.910482 L -5.078125 31.863607 L -5.054688 32.781576 L -5.03125 33.668295 L -5 34.519857 L -4.96875 35.34017 L -4.9375 36.12142 L -4.902344 36.875326 L -4.867188 37.59017 L -4.828125 38.27767 L -4.796875 38.926107 L -4.765625 39.547201 L -4.738281 40.133139 L -4.714844 40.691732 L -4.699219 41.219076 L -4.691406 41.71517 L -4.691406 42.180014 L -4.699219 42.62142 L -4.710938 43.031576 L -4.730469 43.418295 L -4.757812 43.77767 L -4.785156 44.113607 L -4.816406 44.426107 L -4.847656 44.71517 L -4.882812 44.980795 L -4.914062 45.226889 L -4.941406 45.457357 L -4.964844 45.664389 L -4.984375 45.855795 L -5 46.02767 L -5.011719 46.187826 L -5.015625 46.328451 L -5.015625 46.461264 L -5.011719 46.574545 L -5 46.680014 L -4.980469 46.773764 L -4.960938 46.859701 L -4.933594 46.93392 L -4.898438 46.99642 L -4.859375 47.055014 L -4.816406 47.105795 L -4.769531 47.148764 L -4.71875 47.187826 L -4.617188 47.250326 L -4.5625 47.273764 L -4.511719 47.293295 L -4.464844 47.30892 L -4.425781 47.320639 L -4.390625 47.332357 L -4.363281 47.34017 L -4.34375 47.344076 L -4.332031 47.344076 L -4.308594 47.351889 L -3.683594 47.476889 L -3.050781 47.629232 L -2.371094 47.914389 L -1.808594 48.332357 L -1.386719 48.801107 L -0.976562 49.180014 L -0.433594 49.383139 L 0.253906 49.398764 L 0.96875 49.265951 L 1.570312 49.039389 L 1.976562 48.789389 L 2.175781 48.617514 L 2.199219 48.594076 L 2.203125 48.594076 L 2.210938 48.582357 L 2.234375 48.562826 L 2.265625 48.535482 L 2.304688 48.49642 L 2.359375 48.449545 L 2.421875 48.394857 L 2.492188 48.336264 L 2.574219 48.273764 L 2.664062 48.207357 L 2.757812 48.137045 L 2.863281 48.066732 L 2.976562 47.992514 L 3.089844 47.922201 L 3.210938 47.847982 L 3.332031 47.77767 L 3.457031 47.707357 L 3.582031 47.633139 L 3.707031 47.562826 L 3.949219 47.414389 L 4.066406 47.336264 L 4.183594 47.254232 L 4.292969 47.168295 L 4.402344 47.070639 L 4.503906 46.96517 L 4.597656 46.851889 L 4.6875 46.726889 L 4.769531 46.586264 L 4.84375 46.43392 L 4.910156 46.262045 L 4.96875 46.074545 L 5.019531 45.863607 L 5.0625 45.637045 L 5.09375 45.387045 L 5.121094 45.113607 L 5.140625 44.812826 L 5.152344 44.488607 L 5.15625 44.137045 L 5.15625 43.347982 L 5.148438 42.910482 L 5.140625 42.441732 L 5.128906 41.941732 L 5.121094 41.410482 L 5.109375 40.844076 L 5.097656 40.242514 L 5.085938 39.609701 L 5.074219 38.941732 L 5.066406 38.238607 L 5.054688 37.500326 L 5.046875 36.726889 L 5.035156 35.914389 L 5.027344 35.070639 L 5.019531 34.191732 L 5.007812 33.273764 L 4.996094 32.324545 L 4.984375 31.34017 L 4.972656 30.320639 L 4.957031 29.265951 L 4.941406 28.180014 L 4.925781 27.062826 L 4.910156 25.914389 L 4.894531 24.734701 L 4.878906 23.52767 L 4.863281 22.289389 L 4.851562 21.02767 L 4.839844 19.738607 L 4.835938 18.426107 L 4.832031 17.09017 L 4.832031 15.734701 L 4.835938 14.359701 L 4.84375 12.96517 L 4.855469 11.555014 L 4.871094 10.133139 L 4.890625 8.695639 L 4.910156 7.250326 L 4.929688 5.797201 L 4.953125 4.336264 L 4.976562 2.867514 L 5.015625 -0.0699863 L 5.035156 -1.53483 L 5.050781 -2.999674 L 5.0625 -4.460611 L 5.070312 -5.913736 L 5.078125 -7.355143 L 5.078125 -10.206705 L 5.074219 -11.609049 L 5.066406 -12.999674 L 5.058594 -14.366861 L 5.046875 -15.718424 L 5.039062 -17.050455 L 5.027344 -18.355143 L 5.019531 -19.640299 L 5.011719 -20.898111 L 5.007812 -22.12858 L 5.003906 -23.331705 L 5.003906 -24.507486 L 5.007812 -25.652018 L 5.011719 -26.765299 L 5.015625 -27.851236 L 5.023438 -28.902018 L 5.03125 -29.921549 L 5.035156 -30.90983 L 5.042969 -31.862955 L 5.050781 -32.780924 L 5.054688 -33.667643 L 5.058594 -34.519205 L 5.0625 -35.339518 L 5.070312 -36.120768 L 5.074219 -36.874674 L 5.082031 -37.589518 L 5.09375 -38.277018 L 5.105469 -38.925455 L 5.117188 -39.546549 L 5.132812 -40.132486 L 5.148438 -40.69108 L 5.167969 -41.218424 L 5.1875 -41.714518 L 5.210938 -42.179361 L 5.230469 -42.620768 L 5.25 -43.030924 L 5.269531 -43.417643 L 5.285156 -43.777018 L 5.300781 -44.112955 L 5.316406 -44.425455 L 5.324219 -44.714518 L 5.332031 -44.980143 L 5.332031 -45.456705 L 5.328125 -45.663736 L 5.316406 -45.855143 L 5.304688 -46.027018 L 5.289062 -46.187174 L 5.269531 -46.327799 L 5.246094 -46.460611 L 5.222656 -46.573893 L 5.195312 -46.679361 L 5.167969 -46.773111 L 5.140625 -46.859049 L 5.117188 -46.933268 L 5.089844 -46.995768 L 5.066406 -47.054361 L 5.046875 -47.105143 L 5.03125 -47.148111 L 5.019531 -47.187174 L 5.007812 -47.218424 L 5 -47.249674 L 4.996094 -47.273111 L 4.996094 -47.319986 L 5 -47.331705 L 5 -47.339518 L 5.003906 -47.343424 L 5.003906 -47.351236 L 4.996094 -47.402018 L 4.886719 -47.558268 L 4.566406 -47.87858 L 3.976562 -48.355143 L 3.15625 -48.913736 L 2.207031 -49.421549 L 1.234375 -49.777018 L 0.316406 -49.937174 L -0.496094 -49.933268 L -1.167969 -49.835611 L -1.679688 -49.710611 L -2.015625 -49.605143 L -2.179688 -49.550455 L -2.199219 -49.542643 " transform="matrix(1,0,0,1,79,112.40983)"/>
<path style="fill-rule:evenodd;fill:rgb(100%,100%,100%);fill-opacity:1;stroke-width:1;stroke-linecap:butt;stroke-linejoin:bevel;stroke:rgb(50.048876%,50.048876%,50.048876%);stroke-opacity:1;stroke-miterlimit:10;" d="M -11.777344 -25.266277 L -11.796875 -25.266277 L -11.960938 -25.277996 L -12.265625 -25.285809 L -12.667969 -25.266277 L -13.121094 -25.188152 L -13.566406 -25.020184 L -13.960938 -24.735027 L -14.277344 -24.313152 L -14.507812 -23.74284 L -14.648438 -23.008465 L -14.726562 -22.106121 L -14.753906 -21.016277 L -14.757812 -19.723309 L -14.753906 -18.219402 L -14.753906 -16.488934 L -14.769531 -14.527996 L -14.792969 -12.340496 L -14.832031 -9.949871 L -14.875 -7.391277 L -14.925781 -4.699871 L -14.980469 -1.934246 L -15.035156 0.847004 L -15.101562 3.585285 L -15.167969 6.22591 L -15.238281 8.718098 L -15.304688 11.022785 L -15.363281 13.104816 L -15.398438 14.948566 L -15.414062 16.546223 L -15.410156 17.897785 L -15.394531 19.018879 L -15.382812 19.921223 L -15.378906 20.628254 L -15.390625 21.167316 L -15.421875 21.565754 L -15.457031 21.839191 L -15.492188 22.011066 L -15.515625 22.097004 L -15.519531 22.104816 L -15.527344 22.136066 L -15.601562 22.35091 L -15.773438 22.733723 L -16 23.19466 L -16.105469 23.66341 L -15.792969 24.085285 L -14.785156 24.44466 L -12.949219 24.737629 L -10.339844 24.987629 L -7.148438 25.210285 L -3.628906 25.417316 L -0.0585938 25.597004 L 3.296875 25.718098 L 6.210938 25.75716 L 8.523438 25.714191 L 10.183594 25.616535 L 11.222656 25.511066 L 11.714844 25.44466 L 11.777344 25.436848 L 11.796875 25.432941 L 11.960938 25.409504 L 12.261719 25.347004 L 12.652344 25.241535 L 13.074219 25.073566 L 13.484375 24.827473 L 13.835938 24.483723 L 14.109375 24.034504 L 14.304688 23.464191 L 14.441406 22.753254 L 14.53125 21.88216 L 14.601562 20.835285 L 14.660156 19.589191 L 14.71875 18.124348 L 14.769531 16.425129 L 14.820312 14.487629 L 14.863281 12.315754 L 14.898438 9.936848 L 14.933594 7.38216 L 14.96875 4.69466 L 15.007812 1.932941 L 15.042969 -0.848309 L 15.074219 -3.58659 L 15.09375 -6.227215 L 15.101562 -8.719402 L 15.089844 -11.02409 L 15.066406 -13.106121 L 15.035156 -14.949871 L 15.011719 -16.547527 L 15.011719 -17.89909 L 15.050781 -19.020184 L 15.140625 -19.922527 L 15.28125 -20.629559 L 15.464844 -21.168621 L 15.667969 -21.567059 L 15.859375 -21.840496 L 16.011719 -22.012371 L 16.09375 -22.098309 L 16.105469 -22.106121 L 16.132812 -22.133465 L 16.304688 -22.320965 L 16.480469 -22.668621 L 16.410156 -23.106121 L 15.851562 -23.574871 L 14.671875 -24.012371 L 12.855469 -24.375652 L 10.476562 -24.645184 L 7.667969 -24.824871 L 4.574219 -24.93034 L 1.363281 -24.985027 L -1.773438 -25.016277 L -4.648438 -25.035809 L -7.101562 -25.070965 L -9.035156 -25.11784 L -10.425781 -25.176434 L -11.304688 -25.227215 L -11.722656 -25.262371 L -11.777344 -25.266277 " transform="matrix(1,0,0,1,89,251.68034)"/>
<path style="fill-rule:evenodd;fill:rgb(100%,100%,100%);fill-opacity:1;stroke-width:1;stroke-linecap:butt;stroke-linejoin:bevel;stroke:rgb(50.048876%,50.048876%,50.048876%);stroke-opacity:1;stroke-miterlimit:10;" d="M -7.019531 -24.865071 L -7.089844 -24.865071 L -7.210938 -24.861165 L -7.375 -24.841634 L -7.578125 -24.806478 L -7.804688 -24.740071 L -8.042969 -24.634603 L -8.285156 -24.486165 L -8.515625 -24.28304 L -8.734375 -24.029134 L -8.941406 -23.724446 L -9.132812 -23.361165 L -9.308594 -22.951009 L -9.46875 -22.482259 L -9.617188 -21.954915 L -9.75 -21.365071 L -9.871094 -20.701009 L -9.972656 -19.954915 L -10.058594 -19.118978 L -10.128906 -18.18929 L -10.175781 -17.150228 L -10.210938 -16.00179 L -10.222656 -14.743978 L -10.226562 -13.380696 L -10.21875 -11.90804 L -10.199219 -10.337728 L -10.175781 -8.685384 L -10.144531 -6.958821 L -10.109375 -5.173665 L -10.066406 -3.34554 L -10.011719 -1.497884 L -9.953125 0.357585 L -9.882812 2.201335 L -9.808594 4.017741 L -9.726562 5.787272 L -9.644531 7.494304 L -9.566406 9.127116 L -9.492188 10.673991 L -9.425781 12.12321 L -9.371094 13.470866 L -9.328125 14.709147 L -9.296875 15.838054 L -9.273438 16.853679 L -9.265625 17.759929 L -9.269531 18.556804 L -9.292969 19.256022 L -9.332031 19.853679 L -9.398438 20.365397 L -9.492188 20.795085 L -9.617188 21.150554 L -9.769531 21.443522 L -9.945312 21.677897 L -10.140625 21.861491 L -10.335938 22.002116 L -10.515625 22.107585 L -10.671875 22.18571 L -10.785156 22.232585 L -10.847656 22.256022 L -10.855469 22.256022 L -10.882812 22.267741 L -11.082031 22.361491 L -11.3125 22.556804 L -11.328125 22.861491 L -10.917969 23.267741 L -9.996094 23.732585 L -8.605469 24.197429 L -6.867188 24.595866 L -4.925781 24.888835 L -2.898438 25.080241 L -0.882812 25.197429 L 1.035156 25.291179 L 2.765625 25.423991 L 4.234375 25.62321 L 5.386719 25.884929 L 6.214844 26.177897 L 6.738281 26.427897 L 6.988281 26.572429 L 7.019531 26.59196 L 7.027344 26.599772 L 7.089844 26.634929 L 7.207031 26.697429 L 7.375 26.767741 L 7.574219 26.814616 L 7.792969 26.81071 L 8.023438 26.736491 L 8.257812 26.564616 L 8.488281 26.291179 L 8.714844 25.916179 L 8.9375 25.443522 L 9.152344 24.884929 L 9.363281 24.256022 L 9.566406 23.568522 L 9.753906 22.834147 L 9.921875 22.048991 L 10.0625 21.21696 L 10.167969 20.334147 L 10.234375 19.388835 L 10.261719 18.37321 L 10.25 17.271647 L 10.203125 16.080241 L 10.136719 14.791179 L 10.050781 13.40446 L 9.96875 11.920085 L 9.890625 10.345866 L 9.832031 8.68571 L 9.796875 6.959147 L 9.789062 5.170085 L 9.804688 3.345866 L 9.84375 1.494304 L 9.898438 -0.361165 L 9.960938 -2.204915 L 10.023438 -4.021321 L 10.078125 -5.790853 L 10.128906 -7.497884 L 10.164062 -9.130696 L 10.1875 -10.677571 L 10.199219 -12.12679 L 10.203125 -13.474446 L 10.199219 -14.712728 L 10.183594 -15.841634 L 10.167969 -16.857259 L 10.144531 -17.763509 L 10.117188 -18.560384 L 10.089844 -19.259603 L 10.066406 -19.857259 L 10.050781 -20.368978 L 10.042969 -20.798665 L 10.050781 -21.154134 L 10.074219 -21.447103 L 10.105469 -21.681478 L 10.152344 -21.865071 L 10.203125 -22.005696 L 10.253906 -22.111165 L 10.296875 -22.18929 L 10.332031 -22.236165 L 10.347656 -22.259603 L 10.351562 -22.259603 L 10.363281 -22.275228 L 10.449219 -22.372884 L 10.636719 -22.544759 L 10.875 -22.779134 L 10.996094 -23.06429 L 10.765625 -23.411946 L 9.988281 -23.81429 L 8.613281 -24.22054 L 6.746094 -24.552571 L 4.578125 -24.759603 L 2.304688 -24.837728 L 0.0859375 -24.833821 L -1.953125 -24.810384 L -3.699219 -24.806478 L -5.082031 -24.822103 L -6.070312 -24.84554 L -6.691406 -24.861165 L -6.984375 -24.865071 L -7.019531 -24.865071 " transform="matrix(1,0,0,1,114,171.454915)"/>
<path style="fill-rule:evenodd;fill:rgb(100%,100%,100%);fill-opacity:1;stroke-width:1;stroke-linecap:butt;stroke-linejoin:bevel;stroke:rgb(50.048876%,50.048876%,50.048876%);stroke-opacity:1;stroke-miterlimit:10;" d="M -2.199219 -25.19466 L -2.203125 -25.19466 L -2.226562 -25.186848 L -2.269531 -25.171223 L -2.417969 -25.097004 L -2.523438 -25.030598 L -2.640625 -24.94466 L -2.777344 -24.827473 L -2.929688 -24.682941 L -3.089844 -24.50716 L -3.257812 -24.304035 L -3.429688 -24.077473 L -3.601562 -23.81966 L -3.773438 -23.546223 L -3.9375 -23.249348 L -4.09375 -22.932941 L -4.234375 -22.597004 L -4.363281 -22.241535 L -4.46875 -21.862629 L -4.558594 -21.456379 L -4.628906 -21.018879 L -4.683594 -20.542316 L -4.714844 -20.022785 L -4.734375 -19.456379 L -4.738281 -18.831379 L -4.734375 -18.151691 L -4.726562 -17.41341 L -4.714844 -16.608723 L -4.707031 -15.737629 L -4.707031 -14.804035 L -4.71875 -13.807941 L -4.738281 -12.749348 L -4.769531 -11.63216 L -4.816406 -10.460285 L -4.871094 -9.237629 L -4.929688 -7.972004 L -4.996094 -6.667316 L -5.058594 -5.331379 L -5.113281 -3.968098 L -5.160156 -2.589191 L -5.195312 -1.202473 L -5.210938 0.192059 L -5.210938 1.578777 L -5.195312 2.949871 L -5.164062 4.30534 L -5.121094 5.633465 L -5.066406 6.926434 L -5.007812 8.184246 L -4.945312 9.395184 L -4.886719 10.55534 L -4.828125 11.664715 L -4.773438 12.715496 L -4.726562 13.71159 L -4.683594 14.641277 L -4.648438 15.508465 L -4.617188 16.313152 L -4.59375 17.05534 L -4.570312 17.735027 L -4.554688 18.356121 L -4.539062 18.914715 L -4.53125 19.414715 L -4.527344 19.863934 L -4.523438 20.258465 L -4.523438 20.610027 L -4.527344 20.910809 L -4.535156 21.172527 L -4.539062 21.39909 L -4.539062 21.750652 L -4.535156 21.883465 L -4.527344 21.996746 L -4.515625 22.082684 L -4.496094 22.156902 L -4.480469 22.21159 L -4.464844 22.254559 L -4.449219 22.281902 L -4.4375 22.301434 L -4.421875 22.324871 L -4.359375 22.39909 L -4.191406 22.535809 L -3.890625 22.731121 L -3.453125 23.020184 L -2.898438 23.426434 L -2.242188 23.906902 L -1.492188 24.375652 L -0.660156 24.750652 L 0.183594 25.031902 L 0.957031 25.277996 L 1.570312 25.539715 L 1.976562 25.793621 L 2.175781 25.953777 L 2.199219 25.977215 L 2.203125 25.977215 L 2.226562 25.996746 L 2.269531 26.031902 L 2.335938 26.070965 L 2.421875 26.102215 L 2.527344 26.113934 L 2.648438 26.094402 L 2.789062 26.027996 L 2.941406 25.910809 L 3.105469 25.738934 L 3.273438 25.508465 L 3.445312 25.223309 L 3.617188 24.891277 L 3.785156 24.520184 L 3.945312 24.113934 L 4.09375 23.684246 L 4.238281 23.235027 L 4.367188 22.770184 L 4.484375 22.293621 L 4.589844 21.797527 L 4.679688 21.281902 L 4.761719 20.74284 L 4.828125 20.168621 L 4.882812 19.563152 L 4.925781 18.906902 L 4.957031 18.203777 L 4.980469 17.445965 L 4.996094 16.633465 L 5.003906 15.754559 L 5.003906 11.633465 L 5.007812 10.46159 L 5.015625 9.238934 L 5.023438 7.973309 L 5.035156 6.668621 L 5.050781 5.332684 L 5.066406 3.969402 L 5.082031 2.590496 L 5.097656 1.203777 L 5.109375 -0.190754 L 5.121094 -1.577473 L 5.128906 -2.948566 L 5.136719 -4.304035 L 5.136719 -6.925129 L 5.132812 -8.182941 L 5.125 -9.393879 L 5.117188 -10.554035 L 5.109375 -11.66341 L 5.09375 -12.714191 L 5.082031 -13.710285 L 5.066406 -14.639973 L 5.046875 -15.50716 L 5.03125 -16.311848 L 5.015625 -17.054035 L 5 -17.733723 L 4.984375 -18.354816 L 4.976562 -18.91341 L 4.976562 -19.41341 L 4.984375 -19.862629 L 5.003906 -20.25716 L 5.035156 -20.608723 L 5.082031 -20.909504 L 5.140625 -21.171223 L 5.210938 -21.397785 L 5.292969 -21.589191 L 5.378906 -21.749348 L 5.464844 -21.88216 L 5.546875 -21.995441 L 5.625 -22.081379 L 5.691406 -22.155598 L 5.75 -22.210285 L 5.792969 -22.253254 L 5.824219 -22.280598 L 5.945312 -22.401691 L 6.035156 -22.546223 L 5.996094 -22.792316 L 5.628906 -23.214191 L 4.816406 -23.827473 L 3.628906 -24.530598 L 2.28125 -25.128254 L 1 -25.479816 L -0.0820312 -25.56966 L -0.9375 -25.495441 L -1.570312 -25.370441 L -1.976562 -25.264973 L -2.175781 -25.202473 L -2.199219 -25.19466 " transform="matrix(1,0,0,1,79,29.31966)"/>
<path style="fill-rule:evenodd;fill:rgb(100%,100%,100%);fill-opacity:1;stroke-width:1;stroke-linecap:butt;stroke-linejoin:bevel;stroke:rgb(50.048876%,50.048876%,50.048876%);stroke-opacity:1;stroke-miterlimit:10;" d="M -2.199219 -5.037925 L -2.222656 -5.041831 L -2.386719 -5.057456 L -2.734375 -4.979331 L -3.253906 -4.674644 L -3.902344 -4.0848 L -4.566406 -3.24105 L -5.117188 -2.256675 L -5.460938 -1.256675 L -5.597656 -0.326987 L -5.605469 0.493325 L -5.597656 1.169106 L -5.652344 1.680825 L -5.753906 2.016763 L -5.832031 2.180825 L -5.84375 2.200356 L -5.855469 2.223794 L -5.914062 2.387856 L -5.871094 2.7277 L -5.53125 3.219888 L -4.804688 3.798013 L -3.757812 4.348794 L -2.570312 4.782388 L -1.410156 5.063638 L -0.382812 5.2277 L 0.476562 5.305825 L 1.164062 5.333169 L 1.679688 5.313638 L 2.015625 5.270669 L 2.179688 5.235513 L 2.199219 5.231606 L 2.226562 5.223794 L 2.410156 5.1652 L 2.757812 5.001138 L 3.21875 4.684731 L 3.746094 4.173013 L 4.261719 3.473794 L 4.644531 2.63395 L 4.804688 1.704263 L 4.75 0.751138 L 4.601562 -0.159019 L 4.507812 -0.951987 L 4.539062 -1.569175 L 4.652344 -1.975425 L 4.746094 -2.174644 L 4.761719 -2.198081 L 4.773438 -2.221519 L 4.835938 -2.381675 L 4.835938 -2.698081 L 4.613281 -3.1473 L 4.074219 -3.674644 L 3.257812 -4.194175 L 2.277344 -4.619956 L 1.273438 -4.889487 L 0.332031 -4.998862 L -0.492188 -5.002769 L -1.167969 -4.975425 L -1.679688 -4.971519 L -2.015625 -5.002769 L -2.179688 -5.034019 L -2.199219 -5.037925 " transform="matrix(1,0,0,1,109,265.725425)"/>
<path style="fill-rule:evenodd;fill:rgb(100%,100%,100%);fill-opacity:1;stroke-width:1;stroke-linecap:butt;stroke-linejoin:bevel;stroke:rgb(50.048876%,50.048876%,50.048876%);stroke-opacity:1;stroke-miterlimit:10;" d="M -7.019531 -10.853679 L -7.054688 -10.869304 L -7.332031 -10.978679 L -7.824219 -11.197429 L -8.433594 -11.443522 L -9.035156 -11.537272 L -9.5 -11.236491 L -9.75 -10.349772 L -9.777344 -8.861491 L -9.648438 -6.892741 L -9.464844 -4.650554 L -9.324219 -2.334147 L -9.261719 -0.09196 L -9.257812 1.951009 L -9.265625 3.701009 L -9.242188 5.083821 L -9.191406 6.072103 L -9.128906 6.693196 L -9.085938 6.986165 L -9.078125 7.021321 L -9.074219 7.056478 L -9.023438 7.333821 L -8.90625 7.829915 L -8.707031 8.454915 L -8.402344 9.111165 L -7.96875 9.701009 L -7.359375 10.150228 L -6.5 10.427571 L -5.3125 10.529134 L -3.769531 10.509603 L -1.9375 10.435384 L 0.046875 10.400228 L 1.988281 10.43929 L 3.707031 10.548665 L 5.082031 10.669759 L 6.070312 10.747884 L 6.691406 10.771321 L 6.984375 10.767415 L 7.019531 10.763509 L 7.054688 10.763509 L 7.332031 10.740071 L 7.824219 10.65804 L 8.429688 10.451009 L 9.027344 10.056478 L 9.511719 9.423665 L 9.835938 8.517415 L 10.015625 7.31429 L 10.101562 5.810384 L 10.136719 4.03304 L 10.148438 2.048665 L 10.140625 -0.00602247 L 10.125 -1.974772 L 10.125 -3.701335 L 10.148438 -5.080241 L 10.195312 -6.068522 L 10.242188 -6.689616 L 10.269531 -6.982585 L 10.277344 -7.052897 L 10.3125 -7.330241 L 10.375 -7.822429 L 10.421875 -8.439616 L 10.339844 -9.068522 L 9.976562 -9.595866 L 9.191406 -9.959147 L 7.945312 -10.146647 L 6.28125 -10.177897 L 4.3125 -10.119304 L 2.179688 -10.037272 L 0.0390625 -9.990397 L -1.964844 -10.025554 L -3.703125 -10.150554 L -5.082031 -10.34196 L -6.070312 -10.556804 L -6.691406 -10.736491 L -6.984375 -10.84196 L -7.019531 -10.853679 " transform="matrix(1,0,0,1,114,214.545085)"/>
<path style="fill-rule:evenodd;fill:rgb(100%,100%,100%);fill-opacity:1;stroke-width:1;stroke-linecap:butt;stroke-linejoin:bevel;stroke:rgb(50.048876%,50.048876%,50.048876%);stroke-opacity:1;stroke-miterlimit:10;" d="M -11.777344 -14.742188 L -11.828125 -14.730469 L -12.214844 -14.632812 L -12.894531 -14.417969 L -13.699219 -14.042969 L -14.449219 -13.445312 L -15.007812 -12.527344 L -15.324219 -11.191406 L -15.441406 -9.355469 L -15.449219 -7.019531 L -15.449219 -4.257812 L -15.484375 -1.234375 L -15.546875 1.8125 L -15.574219 4.65625 L -15.507812 7.101562 L -15.324219 9.035156 L -15.066406 10.425781 L -14.8125 11.304688 L -14.65625 11.722656 L -14.636719 11.777344 L -14.613281 11.828125 L -14.449219 12.210938 L -14.136719 12.871094 L -13.675781 13.617188 L -13.042969 14.269531 L -12.152344 14.703125 L -10.890625 14.902344 L -9.148438 14.933594 L -6.898438 14.890625 L -4.195312 14.839844 L -1.210938 14.785156 L 1.820312 14.691406 L 4.660156 14.539062 L 7.101562 14.34375 L 9.035156 14.164062 L 10.425781 14.042969 L 11.304688 13.992188 L 11.722656 13.980469 L 11.828125 13.980469 L 12.207031 13.96875 L 12.839844 13.902344 L 13.527344 13.699219 L 14.082031 13.253906 L 14.417969 12.445312 L 14.539062 11.171875 L 14.535156 9.367188 L 14.5 7.03125 L 14.511719 4.265625 L 14.59375 1.242188 L 14.738281 -1.8125 L 14.921875 -4.65625 L 15.136719 -7.101562 L 15.363281 -9.035156 L 15.585938 -10.425781 L 15.765625 -11.304688 L 15.871094 -11.722656 L 15.882812 -11.777344 L 15.898438 -11.835938 L 16.03125 -12.296875 L 16.296875 -13.121094 L 16.613281 -14.125 L 16.761719 -15.085938 L 16.421875 -15.78125 L 15.316406 -16.09375 L 13.339844 -16.039062 L 10.585938 -15.753906 L 7.277344 -15.417969 L 3.683594 -15.164062 L 0.078125 -15.058594 L -3.292969 -15.0625 L -6.207031 -15.097656 L -8.523438 -15.082031 L -10.183594 -14.988281 L -11.222656 -14.851562 L -11.714844 -14.757812 L -11.777344 -14.742188 " transform="matrix(1,0,0,1,89,185.5)"/>
<path style="fill-rule:evenodd;fill:rgb(100%,100%,100%);fill-opacity:1;stroke-width:1;stroke-linecap:butt;stroke-linejoin:bevel;stroke:rgb(50.048876%,50.048876%,50.048876%);stroke-opacity:1;stroke-miterlimit:10;" d="M -32.203125 -15.960938 L -32.21875 -15.976562 L -32.347656 -16.054688 L -32.59375 -16.09375 L -32.9375 -15.902344 L -33.347656 -15.292969 L -33.777344 -14.148438 L -34.179688 -12.4375 L -34.507812 -10.191406 L -34.75 -7.5 L -34.914062 -4.492188 L -35.03125 -1.332031 L -35.132812 1.785156 L -35.242188 4.648438 L -35.367188 7.101562 L -35.488281 9.035156 L -35.589844 10.425781 L -35.664062 11.304688 L -35.699219 11.722656 L -35.703125 11.777344 L -35.707031 11.789062 L -35.714844 11.902344 L -35.734375 12.117188 L -35.761719 12.429688 L -35.792969 12.820312 L -35.820312 13.265625 L -35.832031 13.742188 L -35.816406 14.222656 L -35.753906 14.671875 L -35.628906 15.066406 L -35.425781 15.390625 L -35.128906 15.632812 L -34.730469 15.789062 L -34.226562 15.871094 L -33.613281 15.882812 L -32.886719 15.847656 L -32.046875 15.78125 L -31.082031 15.699219 L -29.992188 15.609375 L -28.761719 15.519531 L -27.378906 15.441406 L -25.839844 15.367188 L -24.128906 15.304688 L -22.25 15.242188 L -20.195312 15.183594 L -17.976562 15.128906 L -15.605469 15.078125 L -13.09375 15.03125 L -10.46875 15 L -7.75 14.980469 L -4.96875 14.988281 L -2.15625 15.015625 L 0.664062 15.066406 L 3.460938 15.136719 L 6.203125 15.21875 L 8.863281 15.296875 L 11.421875 15.367188 L 13.851562 15.417969 L 16.140625 15.445312 L 18.273438 15.449219 L 20.238281 15.433594 L 22.027344 15.402344 L 23.644531 15.363281 L 25.085938 15.328125 L 26.359375 15.296875 L 27.464844 15.265625 L 28.421875 15.230469 L 29.230469 15.1875 L 29.914062 15.125 L 30.476562 15.039062 L 30.933594 14.929688 L 31.300781 14.796875 L 31.589844 14.65625 L 31.8125 14.507812 L 31.976562 14.371094 L 32.089844 14.257812 L 32.164062 14.175781 L 32.199219 14.132812 L 32.203125 14.128906 L 32.21875 14.109375 L 32.347656 13.953125 L 32.605469 13.664062 L 32.972656 13.25 L 33.410156 12.683594 L 33.867188 11.871094 L 34.277344 10.691406 L 34.613281 9.027344 L 34.867188 6.832031 L 35.054688 4.164062 L 35.191406 1.199219 L 35.289062 -1.824219 L 35.34375 -4.660156 L 35.359375 -7.101562 L 35.34375 -9.035156 L 35.3125 -10.425781 L 35.285156 -11.304688 L 35.269531 -11.722656 L 35.265625 -11.777344 L 35.265625 -11.789062 L 35.261719 -11.902344 L 35.253906 -12.117188 L 35.238281 -12.429688 L 35.214844 -12.820312 L 35.179688 -13.273438 L 35.125 -13.757812 L 35.046875 -14.25 L 34.933594 -14.726562 L 34.773438 -15.15625 L 34.554688 -15.523438 L 34.273438 -15.808594 L 33.917969 -16.011719 L 33.480469 -16.128906 L 32.949219 -16.164062 L 32.316406 -16.128906 L 31.574219 -16.042969 L 30.703125 -15.917969 L 29.699219 -15.777344 L 28.542969 -15.636719 L 27.222656 -15.503906 L 25.730469 -15.398438 L 24.058594 -15.320312 L 22.203125 -15.273438 L 20.167969 -15.25 L 17.960938 -15.25 L 15.59375 -15.257812 L 13.089844 -15.269531 L 10.464844 -15.28125 L 7.75 -15.28125 L 4.96875 -15.269531 L 2.152344 -15.242188 L -0.664062 -15.207031 L -3.460938 -15.15625 L -6.203125 -15.101562 L -8.863281 -15.042969 L -11.421875 -14.988281 L -13.851562 -14.941406 L -16.140625 -14.902344 L -18.273438 -14.875 L -20.238281 -14.859375 L -22.027344 -14.859375 L -23.644531 -14.875 L -25.085938 -14.898438 L -26.359375 -14.933594 L -27.464844 -14.980469 L -28.421875 -15.039062 L -29.230469 -15.105469 L -29.914062 -15.1875 L -30.476562 -15.28125 L -30.933594 -15.378906 L -31.300781 -15.488281 L -31.589844 -15.597656 L -31.8125 -15.699219 L -31.976562 -15.796875 L -32.089844 -15.875 L -32.164062 -15.929688 L -32.199219 -15.960938 L -32.203125 -15.960938 " transform="matrix(1,0,0,1,39,140.5)"/>
<path style="fill-rule:evenodd;fill:rgb(100%,100%,100%);fill-opacity:1;stroke-width:1;stroke-linecap:butt;stroke-linejoin:bevel;stroke:rgb(50.048876%,50.048876%,50.048876%);stroke-opacity:1;stroke-miterlimit:10;" d="M -12.230469 -8.740724 L -12.246094 -8.71338 L -12.367188 -8.455567 L -12.578125 -7.908692 L -12.851562 -7.092286 L -13.152344 -6.166505 L -13.464844 -5.354005 L -13.761719 -4.787599 L -14.011719 -4.36963 L -14.171875 -3.842286 L -14.257812 -2.93213 L -14.320312 -1.549317 L -14.433594 0.185058 L -14.660156 2.024901 L -14.984375 3.712401 L -15.351562 5.083495 L -15.671875 6.071776 L -15.894531 6.69287 L -16.003906 6.985839 L -16.019531 7.020995 L -16.023438 7.03662 L -16.058594 7.134276 L -16.101562 7.325683 L -16.125 7.603026 L -16.082031 7.94287 L -15.9375 8.321776 L -15.660156 8.716308 L -15.246094 9.09912 L -14.695312 9.435058 L -14.027344 9.704589 L -13.261719 9.892089 L -12.40625 9.989745 L -11.472656 10.009276 L -10.460938 9.966308 L -9.367188 9.892089 L -8.1875 9.806151 L -6.914062 9.735839 L -5.550781 9.696776 L -4.109375 9.69287 L -2.609375 9.72412 L -1.074219 9.78662 L 0.464844 9.860839 L 1.984375 9.94287 L 3.445312 10.020995 L 4.824219 10.087401 L 6.097656 10.142089 L 7.25 10.185058 L 8.269531 10.220214 L 9.15625 10.251464 L 9.902344 10.28662 L 10.519531 10.325683 L 11.019531 10.372558 L 11.414062 10.427245 L 11.710938 10.481933 L 11.929688 10.532714 L 12.082031 10.579589 L 12.179688 10.610839 L 12.222656 10.626464 L 12.230469 10.63037 L 12.242188 10.634276 L 12.351562 10.657714 L 12.574219 10.622558 L 12.894531 10.407714 L 13.289062 9.895995 L 13.695312 9.03662 L 14.066406 7.837401 L 14.355469 6.337401 L 14.539062 4.614745 L 14.636719 2.743651 L 14.660156 0.821776 L 14.636719 -1.053224 L 14.585938 -2.768067 L 14.523438 -4.232911 L 14.464844 -5.385255 L 14.417969 -6.21338 L 14.386719 -6.736817 L 14.371094 -6.986817 L 14.371094 -7.018067 L 14.367188 -7.033692 L 14.363281 -7.127442 L 14.339844 -7.30713 L 14.296875 -7.541505 L 14.210938 -7.799317 L 14.074219 -8.053224 L 13.871094 -8.287599 L 13.597656 -8.49463 L 13.246094 -8.674317 L 12.808594 -8.826661 L 12.285156 -8.96338 L 11.664062 -9.084474 L 10.933594 -9.189942 L 10.09375 -9.27588 L 9.128906 -9.346192 L 8.039062 -9.404786 L 6.828125 -9.459474 L 5.507812 -9.514161 L 4.089844 -9.576661 L 2.601562 -9.65088 L 1.070312 -9.729005 L -0.46875 -9.811036 L -1.984375 -9.893067 L -3.445312 -9.971192 L -4.824219 -10.037599 L -6.097656 -10.096192 L -7.25 -10.139161 L -8.269531 -10.162599 L -9.15625 -10.154786 L -9.902344 -10.104005 L -10.519531 -10.002442 L -11.019531 -9.850099 L -11.414062 -9.65088 L -11.710938 -9.424317 L -11.929688 -9.197755 L -12.082031 -8.990724 L -12.179688 -8.834474 L -12.222656 -8.752442 L -12.230469 -8.740724 " transform="matrix(1,0,0,1,119,242.635255)"/>
<path style="fill-rule:evenodd;fill:rgb(100%,100%,100%);fill-opacity:1;stroke-width:1;stroke-linecap:butt;stroke-linejoin:bevel;stroke:rgb(50.048876%,50.048876%,50.048876%);stroke-opacity:1;stroke-miterlimit:10;" d="M -17.296875 -4.326009 L -17.308594 -4.306478 L -17.394531 -4.146321 L -17.578125 -3.853353 L -17.875 -3.454915 L -18.292969 -2.962728 L -18.792969 -2.392415 L -19.28125 -1.732259 L -19.652344 -0.997884 L -19.839844 -0.228353 L -19.882812 0.517741 L -19.882812 1.170085 L -19.941406 1.677897 L -20.058594 2.013835 L -20.15625 2.177897 L -20.171875 2.197429 L -20.175781 2.201335 L -20.191406 2.228679 L -20.226562 2.287272 L -20.261719 2.37321 L -20.28125 2.486491 L -20.277344 2.627116 L -20.226562 2.795085 L -20.125 2.982585 L -19.964844 3.177897 L -19.742188 3.381022 L -19.457031 3.576335 L -19.121094 3.752116 L -18.742188 3.90446 L -18.316406 4.025554 L -17.859375 4.115397 L -17.371094 4.170085 L -16.851562 4.205241 L -16.292969 4.224772 L -15.695312 4.240397 L -15.046875 4.259929 L -14.347656 4.295085 L -13.589844 4.345866 L -12.761719 4.420085 L -11.863281 4.509929 L -10.894531 4.611491 L -9.859375 4.71696 L -8.753906 4.818522 L -7.585938 4.908366 L -6.363281 4.974772 L -5.09375 5.013835 L -3.789062 5.02946 L -2.457031 5.009929 L -1.109375 4.970866 L 0.242188 4.908366 L 1.585938 4.84196 L 2.910156 4.771647 L 4.207031 4.709147 L 5.460938 4.662272 L 6.667969 4.634929 L 7.820312 4.627116 L 8.910156 4.634929 L 9.929688 4.658366 L 10.875 4.689616 L 11.75 4.724772 L 12.542969 4.756022 L 13.265625 4.783366 L 13.910156 4.806804 L 14.480469 4.826335 L 14.984375 4.84196 L 15.421875 4.861491 L 15.796875 4.877116 L 16.113281 4.896647 L 16.382812 4.912272 L 16.605469 4.927897 L 16.785156 4.939616 L 16.933594 4.939616 L 17.046875 4.931804 L 17.136719 4.920085 L 17.203125 4.900554 L 17.25 4.881022 L 17.296875 4.857585 L 17.308594 4.849772 L 17.394531 4.783366 L 17.582031 4.599772 L 17.871094 4.236491 L 18.238281 3.662272 L 18.625 2.912272 L 18.945312 2.052897 L 19.140625 1.15446 L 19.210938 0.283366 L 19.210938 -0.505696 L 19.214844 -1.173665 L 19.265625 -1.681478 L 19.355469 -2.017415 L 19.421875 -2.181478 L 19.433594 -2.201009 L 19.433594 -2.204915 L 19.445312 -2.236165 L 19.46875 -2.290853 L 19.492188 -2.380696 L 19.503906 -2.50179 L 19.492188 -2.65804 L 19.453125 -2.84554 L 19.371094 -3.06429 L 19.246094 -3.302571 L 19.070312 -3.556478 L 18.847656 -3.818196 L 18.582031 -4.072103 L 18.273438 -4.310384 L 17.925781 -4.525228 L 17.539062 -4.708821 L 17.113281 -4.861165 L 16.652344 -4.974446 L 16.144531 -5.056478 L 15.585938 -5.107259 L 14.972656 -5.134603 L 14.296875 -5.138509 L 13.550781 -5.134603 L 12.738281 -5.122884 L 11.847656 -5.111165 L 10.886719 -5.099446 L 9.851562 -5.099446 L 8.75 -5.103353 L 7.582031 -5.118978 L 6.363281 -5.142415 L 5.09375 -5.169759 L 3.789062 -5.201009 L 2.457031 -5.232259 L 1.109375 -5.255696 L -0.242188 -5.275228 L -1.585938 -5.286946 L -2.910156 -5.286946 L -4.207031 -5.28304 L -5.460938 -5.271321 L -6.667969 -5.255696 L -7.820312 -5.240071 L -8.910156 -5.232259 L -9.929688 -5.228353 L -10.875 -5.232259 L -11.75 -5.243978 L -12.542969 -5.263509 L -13.265625 -5.28304 L -13.910156 -5.298665 L -14.480469 -5.302571 L -14.984375 -5.294759 L -15.421875 -5.271321 L -15.796875 -5.228353 L -16.113281 -5.165853 L -16.382812 -5.087728 L -16.605469 -4.997884 L -16.785156 -4.896321 L -16.933594 -4.786946 L -17.046875 -4.677571 L -17.136719 -4.576009 L -17.203125 -4.482259 L -17.25 -4.40804 L -17.28125 -4.357259 L -17.296875 -4.329915 L -17.296875 -4.326009 " transform="matrix(1,0,0,1,144,171.454915)"/>
<path style="fill-rule:evenodd;fill:rgb(100%,100%,100%);fill-opacity:1;stroke-width:1;stroke-linecap:butt;stroke-linejoin:bevel;stroke:rgb(50.048876%,50.048876%,50.048876%);stroke-opacity:1;stroke-miterlimit:10;" d="M -7.019531 -15.468424 L -7.035156 -15.47233 L -7.132812 -15.491861 L -7.316406 -15.511393 L -7.566406 -15.507486 L -7.855469 -15.444986 L -8.152344 -15.296549 L -8.4375 -15.042643 L -8.6875 -14.675455 L -8.894531 -14.19108 L -9.058594 -13.601236 L -9.183594 -12.917643 L -9.285156 -12.144205 L -9.367188 -11.28483 L -9.441406 -10.331705 L -9.515625 -9.28483 L -9.589844 -8.136393 L -9.671875 -6.882486 L -9.761719 -5.53483 L -9.859375 -4.101236 L -9.964844 -2.605143 L -10.070312 -1.073893 L -10.175781 0.469076 L -10.261719 1.984701 L -10.328125 3.445639 L -10.363281 4.824545 L -10.359375 6.097982 L -10.324219 7.250326 L -10.253906 8.269857 L -10.164062 9.156576 L -10.066406 9.90267 L -9.972656 10.519857 L -9.898438 11.019857 L -9.851562 11.414389 L -9.839844 11.711264 L -9.855469 11.930014 L -9.890625 12.082357 L -9.921875 12.180014 L -9.945312 12.222982 L -9.949219 12.230795 L -9.953125 12.242514 L -9.992188 12.347982 L -9.996094 12.535482 L -9.839844 12.781576 L -9.421875 13.070639 L -8.671875 13.410482 L -7.578125 13.789389 L -6.179688 14.18392 L -4.527344 14.543295 L -2.703125 14.80892 L -0.804688 14.961264 L 1.058594 15.012045 L 2.773438 15.000326 L 4.234375 14.976889 L 5.386719 14.969076 L 6.214844 14.980795 L 6.738281 15.000326 L 6.988281 15.015951 L 7.019531 15.015951 L 7.035156 15.019857 L 7.144531 15.02767 L 7.351562 15.043295 L 7.640625 15.062826 L 7.996094 15.086264 L 8.378906 15.094076 L 8.761719 15.05892 L 9.117188 14.953451 L 9.421875 14.74642 L 9.660156 14.418295 L 9.828125 13.961264 L 9.9375 13.363607 L 9.992188 12.637045 L 10.019531 11.77767 L 10.023438 10.797201 L 10.019531 9.695639 L 10.003906 8.469076 L 9.972656 7.129232 L 9.917969 5.676107 L 9.835938 4.133139 L 9.734375 2.52767 L 9.621094 0.883139 L 9.507812 -0.757486 L 9.414062 -2.362955 L 9.34375 -3.890299 L 9.308594 -5.31608 L 9.304688 -6.612955 L 9.335938 -7.765299 L 9.398438 -8.769205 L 9.492188 -9.616861 L 9.625 -10.31608 L 9.796875 -10.882486 L 10.011719 -11.323893 L 10.25 -11.655924 L 10.5 -11.902018 L 10.726562 -12.069986 L 10.902344 -12.171549 L 10.996094 -12.22233 L 11.007812 -12.230143 L 11.042969 -12.245768 L 11.316406 -12.366861 L 11.894531 -12.581705 L 12.6875 -12.862955 L 13.363281 -13.194986 L 13.449219 -13.569986 L 12.585938 -13.948893 L 10.738281 -14.280924 L 8.207031 -14.495768 L 5.40625 -14.589518 L 2.683594 -14.601236 L 0.21875 -14.624674 L -1.917969 -14.714518 L -3.691406 -14.882486 L -5.082031 -15.085611 L -6.070312 -15.273111 L -6.691406 -15.398111 L -6.984375 -15.460611 L -7.019531 -15.468424 " transform="matrix(1,0,0,1,94,112.40983)"/>
</g>
</svg>
