<?xml version="1.0" encoding="UTF-8"?>
<svg xmlns="http://www.w3.org/2000/svg" xmlns:xlink="http://www.w3.org/1999/xlink" width="168.472136pt" height="248.472136pt" viewBox="0 0 168.472136 248.472136" version="1.1">
<g id="surface419">
<path style="fill-rule:evenodd;fill:rgb(100%,100%,100%);fill-opacity:1;stroke-width:1;stroke-linecap:butt;stroke-linejoin:bevel;stroke:rgb(50.048876%,50.048876%,50.048876%);stroke-opacity:1;stroke-miterlimit:10;" d="M -2.199219 -49.542969 L -2.203125 -49.542969 L -2.210938 -49.539062 L -2.234375 -49.53125 L -2.265625 -49.519531 L -2.308594 -49.5 L -2.363281 -49.480469 L -2.433594 -49.449219 L -2.515625 -49.410156 L -2.605469 -49.363281 L -2.710938 -49.308594 L -2.828125 -49.246094 L -2.957031 -49.171875 L -3.089844 -49.089844 L -3.234375 -48.996094 L -3.382812 -48.894531 L -3.53125 -48.785156 L -3.683594 -48.667969 L -3.832031 -48.542969 L -3.976562 -48.414062 L -4.113281 -48.277344 L -4.246094 -48.136719 L -4.371094 -47.992188 L -4.488281 -47.84375 L -4.59375 -47.691406 L -4.6875 -47.53125 L -4.777344 -47.367188 L -4.851562 -47.199219 L -4.921875 -47.023438 L -4.984375 -46.835938 L -5.039062 -46.640625 L -5.082031 -46.433594 L -5.125 -46.214844 L -5.160156 -45.980469 L -5.1875 -45.730469 L -5.210938 -45.460938 L -5.230469 -45.167969 L -5.246094 -44.859375 L -5.257812 -44.523438 L -5.265625 -44.164062 L -5.269531 -43.777344 L -5.269531 -43.363281 L -5.265625 -42.921875 L -5.257812 -42.449219 L -5.25 -41.949219 L -5.234375 -41.414062 L -5.21875 -40.847656 L -5.199219 -40.246094 L -5.183594 -39.609375 L -5.164062 -38.941406 L -5.144531 -38.238281 L -5.128906 -37.5 L -5.117188 -36.726562 L -5.105469 -35.917969 L -5.097656 -35.070312 L -5.097656 -33.273438 L -5.101562 -32.324219 L -5.109375 -31.339844 L -5.121094 -30.320312 L -5.132812 -29.265625 L -5.144531 -28.179688 L -5.160156 -27.0625 L -5.171875 -25.914062 L -5.183594 -24.734375 L -5.195312 -23.527344 L -5.203125 -22.289062 L -5.207031 -21.027344 L -5.203125 -19.738281 L -5.199219 -18.425781 L -5.191406 -17.089844 L -5.179688 -15.734375 L -5.164062 -14.359375 L -5.144531 -12.964844 L -5.121094 -11.554688 L -5.09375 -10.132812 L -5.066406 -8.695312 L -5.039062 -7.25 L -5.015625 -5.796875 L -4.988281 -4.335938 L -4.949219 -1.398438 L -4.933594 0.0703125 L -4.921875 1.535156 L -4.917969 3 L -4.917969 4.460938 L -4.921875 5.914062 L -4.933594 7.355469 L -4.945312 8.785156 L -4.960938 10.207031 L -4.980469 11.609375 L -5 13 L -5.019531 14.367188 L -5.042969 15.71875 L -5.0625 17.050781 L -5.082031 18.355469 L -5.097656 19.640625 L -5.109375 20.898438 L -5.121094 22.128906 L -5.128906 23.332031 L -5.132812 24.507812 L -5.136719 25.652344 L -5.132812 26.765625 L -5.128906 27.851562 L -5.121094 28.902344 L -5.109375 29.921875 L -5.09375 30.910156 L -5.078125 31.863281 L -5.054688 32.78125 L -5.03125 33.667969 L -5 34.519531 L -4.96875 35.339844 L -4.9375 36.121094 L -4.902344 36.875 L -4.867188 37.589844 L -4.828125 38.277344 L -4.796875 38.925781 L -4.765625 39.546875 L -4.738281 40.132812 L -4.714844 40.691406 L -4.699219 41.21875 L -4.691406 41.714844 L -4.691406 42.179688 L -4.699219 42.621094 L -4.710938 43.03125 L -4.730469 43.417969 L -4.757812 43.777344 L -4.785156 44.113281 L -4.816406 44.425781 L -4.847656 44.714844 L -4.882812 44.980469 L -4.914062 45.226562 L -4.941406 45.457031 L -4.964844 45.664062 L -4.984375 45.855469 L -5 46.027344 L -5.011719 46.1875 L -5.015625 46.328125 L -5.015625 46.460938 L -5.011719 46.574219 L -5 46.679688 L -4.980469 46.773438 L -4.960938 46.859375 L -4.933594 46.933594 L -4.898438 46.996094 L -4.859375 47.054688 L -4.816406 47.105469 L -4.769531 47.148438 L -4.71875 47.1875 L -4.617188 47.25 L -4.5625 47.273438 L -4.511719 47.292969 L -4.464844 47.308594 L -4.425781 47.320312 L -4.390625 47.332031 L -4.363281 47.339844 L -4.34375 47.34375 L -4.332031 47.34375 L -4.308594 47.351562 L -3.683594 47.476562 L -3.050781 47.628906 L -2.371094 47.914062 L -1.808594 48.332031 L -1.386719 48.800781 L -0.976562 49.179688 L -0.433594 49.382812 L 0.253906 49.398438 L 0.96875 49.265625 L 1.570312 49.039062 L 1.976562 48.789062 L 2.175781 48.617188 L 2.199219 48.59375 L 2.203125 48.59375 L 2.210938 48.582031 L 2.234375 48.5625 L 2.265625 48.535156 L 2.304688 48.496094 L 2.359375 48.449219 L 2.421875 48.394531 L 2.492188 48.335938 L 2.574219 48.273438 L 2.664062 48.207031 L 2.757812 48.136719 L 2.863281 48.066406 L 2.976562 47.992188 L 3.089844 47.921875 L 3.210938 47.847656 L 3.332031 47.777344 L 3.457031 47.707031 L 3.582031 47.632812 L 3.707031 47.5625 L 3.949219 47.414062 L 4.066406 47.335938 L 4.183594 47.253906 L 4.292969 47.167969 L 4.402344 47.070312 L 4.503906 46.964844 L 4.597656 46.851562 L 4.6875 46.726562 L 4.769531 46.585938 L 4.84375 46.433594 L 4.910156 46.261719 L 4.96875 46.074219 L 5.019531 45.863281 L 5.0625 45.636719 L 5.09375 45.386719 L 5.121094 45.113281 L 5.140625 44.8125 L 5.152344 44.488281 L 5.15625 44.136719 L 5.15625 43.347656 L 5.148438 42.910156 L 5.140625 42.441406 L 5.128906 41.941406 L 5.121094 41.410156 L 5.109375 40.84375 L 5.097656 40.242188 L 5.085938 39.609375 L 5.074219 38.941406 L 5.066406 38.238281 L 5.054688 37.5 L 5.046875 36.726562 L 5.035156 35.914062 L 5.027344 35.070312 L 5.019531 34.191406 L 5.007812 33.273438 L 4.996094 32.324219 L 4.984375 31.339844 L 4.972656 30.320312 L 4.957031 29.265625 L 4.941406 28.179688 L 4.925781 27.0625 L 4.910156 25.914062 L 4.894531 24.734375 L 4.878906 23.527344 L 4.863281 22.289062 L 4.851562 21.027344 L 4.839844 19.738281 L 4.835938 18.425781 L 4.832031 17.089844 L 4.832031 15.734375 L 4.835938 14.359375 L 4.84375 12.964844 L 4.855469 11.554688 L 4.871094 10.132812 L 4.890625 8.695312 L 4.910156 7.25 L 4.929688 5.796875 L 4.953125 4.335938 L 4.976562 2.867188 L 5.015625 -0.0703125 L 5.035156 -1.535156 L 5.050781 -3 L 5.0625 -4.460938 L 5.070312 -5.914062 L 5.078125 -7.355469 L 5.078125 -10.207031 L 5.074219 -11.609375 L 5.066406 -13 L 5.058594 -14.367188 L 5.046875 -15.71875 L 5.039062 -17.050781 L 5.027344 -18.355469 L 5.019531 -19.640625 L 5.011719 -20.898438 L 5.007812 -22.128906 L 5.003906 -23.332031 L 5.003906 -24.507812 L 5.007812 -25.652344 L 5.011719 -26.765625 L 5.015625 -27.851562 L 5.023438 -28.902344 L 5.03125 -29.921875 L 5.035156 -30.910156 L 5.042969 -31.863281 L 5.050781 -32.78125 L 5.054688 -33.667969 L 5.058594 -34.519531 L 5.0625 -35.339844 L 5.070312 -36.121094 L 5.074219 -36.875 L 5.082031 -37.589844 L 5.09375 -38.277344 L 5.105469 -38.925781 L 5.117188 -39.546875 L 5.132812 -40.132812 L 5.148438 -40.691406 L 5.167969 -41.21875 L 5.1875 -41.714844 L 5.210938 -42.179688 L 5.230469 -42.621094 L 5.25 -43.03125 L 5.269531 -43.417969 L 5.285156 -43.777344 L 5.300781 -44.113281 L 5.316406 -44.425781 L 5.324219 -44.714844 L 5.332031 -44.980469 L 5.332031 -45.457031 L 5.328125 -45.664062 L 5.316406 -45.855469 L 5.304688 -46.027344 L 5.289062 -46.1875 L 5.269531 -46.328125 L 5.246094 -46.460938 L 5.222656 -46.574219 L 5.195312 -46.679688 L 5.167969 -46.773438 L 5.140625 -46.859375 L 5.117188 -46.933594 L 5.089844 -46.996094 L 5.066406 -47.054688 L 5.046875 -47.105469 L 5.03125 -47.148438 L 5.019531 -47.1875 L 5.007812 -47.21875 L 5 -47.25 L 4.996094 -47.273438 L 4.996094 -47.320312 L 5 -47.332031 L 5 -47.339844 L 5.003906 -47.34375 L 5.003906 -47.351562 L 4.996094 -47.402344 L 4.886719 -47.558594 L 4.566406 -47.878906 L 3.976562 -48.355469 L 3.15625 -48.914062 L 2.207031 -49.421875 L 1.234375 -49.777344 L 0.316406 -49.9375 L -0.496094 -49.933594 L -1.167969 -49.835938 L -1.679688 -49.710938 L -2.015625 -49.605469 L -2.179688 -49.550781 L -2.199219 -49.542969 " transform="matrix(1,0,0,1,79,104)"/>
<path style="fill-rule:evenodd;fill:rgb(100%,100%,100%);fill-opacity:1;stroke-width:1;stroke-linecap:butt;stroke-linejoin:bevel;stroke:rgb(50.048876%,50.048876%,50.048876%);stroke-opacity:1;stroke-miterlimit:10;" d="M -11.777344 -25.265625 L -11.796875 -25.265625 L -11.960938 -25.277344 L -12.265625 -25.285156 L -12.667969 -25.265625 L -13.121094 -25.1875 L -13.566406 -25.019531 L -13.960938 -24.734375 L -14.277344 -24.3125 L -14.507812 -23.742188 L -14.648438 -23.007812 L -14.726562 -22.105469 L -14.753906 -21.015625 L -14.757812 -19.722656 L -14.753906 -18.21875 L -14.753906 -16.488281 L -14.769531 -14.527344 L -14.792969 -12.339844 L -14.832031 -9.949219 L -14.875 -7.390625 L -14.925781 -4.699219 L -14.980469 -1.933594 L -15.035156 0.847656 L -15.101562 3.585938 L -15.167969 6.226562 L -15.238281 8.71875 L -15.304688 11.023438 L -15.363281 13.105469 L -15.398438 14.949219 L -15.414062 16.546875 L -15.410156 17.898438 L -15.394531 19.019531 L -15.382812 19.921875 L -15.378906 20.628906 L -15.390625 21.167969 L -15.421875 21.566406 L -15.457031 21.839844 L -15.492188 22.011719 L -15.515625 22.097656 L -15.519531 22.105469 L -15.527344 22.136719 L -15.601562 22.351562 L -15.773438 22.734375 L -16 23.195312 L -16.105469 23.664062 L -15.792969 24.085938 L -14.785156 24.445312 L -12.949219 24.738281 L -10.339844 24.988281 L -7.148438 25.210938 L -3.628906 25.417969 L -0.0585938 25.597656 L 3.296875 25.71875 L 6.210938 25.757812 L 8.523438 25.714844 L 10.183594 25.617188 L 11.222656 25.511719 L 11.714844 25.445312 L 11.777344 25.4375 L 11.796875 25.433594 L 11.960938 25.410156 L 12.261719 25.347656 L 12.652344 25.242188 L 13.074219 25.074219 L 13.484375 24.828125 L 13.835938 24.484375 L 14.109375 24.035156 L 14.304688 23.464844 L 14.441406 22.753906 L 14.53125 21.882812 L 14.601562 20.835938 L 14.660156 19.589844 L 14.71875 18.125 L 14.769531 16.425781 L 14.820312 14.488281 L 14.863281 12.316406 L 14.898438 9.9375 L 14.933594 7.382812 L 14.96875 4.695312 L 15.007812 1.933594 L 15.042969 -0.847656 L 15.074219 -3.585938 L 15.09375 -6.226562 L 15.101562 -8.71875 L 15.089844 -11.023438 L 15.066406 -13.105469 L 15.035156 -14.949219 L 15.011719 -16.546875 L 15.011719 -17.898438 L 15.050781 -19.019531 L 15.140625 -19.921875 L 15.28125 -20.628906 L 15.464844 -21.167969 L 15.667969 -21.566406 L 15.859375 -21.839844 L 16.011719 -22.011719 L 16.09375 -22.097656 L 16.105469 -22.105469 L 16.132812 -22.132812 L 16.304688 -22.320312 L 16.480469 -22.667969 L 16.410156 -23.105469 L 15.851562 -23.574219 L 14.671875 -24.011719 L 12.855469 -24.375 L 10.476562 -24.644531 L 7.667969 -24.824219 L 4.574219 -24.929688 L 1.363281 -24.984375 L -1.773438 -25.015625 L -4.648438 -25.035156 L -7.101562 -25.070312 L -9.035156 -25.117188 L -10.425781 -25.175781 L -11.304688 -25.226562 L -11.722656 -25.261719 L -11.777344 -25.265625 " transform="matrix(1,0,0,1,89,219)"/>
<path style="fill-rule:evenodd;fill:rgb(100%,100%,100%);fill-opacity:1;stroke-width:1;stroke-linecap:butt;stroke-linejoin:bevel;stroke:rgb(50.048876%,50.048876%,50.048876%);stroke-opacity:1;stroke-miterlimit:10;" d="M -7.019531 -24.863281 L -7.089844 -24.863281 L -7.210938 -24.859375 L -7.375 -24.839844 L -7.578125 -24.804688 L -7.804688 -24.738281 L -8.042969 -24.632812 L -8.285156 -24.484375 L -8.515625 -24.28125 L -8.734375 -24.027344 L -8.941406 -23.722656 L -9.132812 -23.359375 L -9.308594 -22.949219 L -9.46875 -22.480469 L -9.617188 -21.953125 L -9.75 -21.363281 L -9.871094 -20.699219 L -9.972656 -19.953125 L -10.058594 -19.117188 L -10.128906 -18.1875 L -10.175781 -17.148438 L -10.210938 -16 L -10.222656 -14.742188 L -10.226562 -13.378906 L -10.21875 -11.90625 L -10.199219 -10.335938 L -10.175781 -8.683594 L -10.144531 -6.957031 L -10.109375 -5.171875 L -10.066406 -3.34375 L -10.011719 -1.496094 L -9.953125 0.359375 L -9.882812 2.203125 L -9.808594 4.019531 L -9.726562 5.789062 L -9.644531 7.496094 L -9.566406 9.128906 L -9.492188 10.675781 L -9.425781 12.125 L -9.371094 13.472656 L -9.328125 14.710938 L -9.296875 15.839844 L -9.273438 16.855469 L -9.265625 17.761719 L -9.269531 18.558594 L -9.292969 19.257812 L -9.332031 19.855469 L -9.398438 20.367188 L -9.492188 20.796875 L -9.617188 21.152344 L -9.769531 21.445312 L -9.945312 21.679688 L -10.140625 21.863281 L -10.335938 22.003906 L -10.515625 22.109375 L -10.671875 22.1875 L -10.785156 22.234375 L -10.847656 22.257812 L -10.855469 22.257812 L -10.882812 22.269531 L -11.082031 22.363281 L -11.3125 22.558594 L -11.328125 22.863281 L -10.917969 23.269531 L -9.996094 23.734375 L -8.605469 24.199219 L -6.867188 24.597656 L -4.925781 24.890625 L -2.898438 25.082031 L -0.882812 25.199219 L 1.035156 25.292969 L 2.765625 25.425781 L 4.234375 25.625 L 5.386719 25.886719 L 6.214844 26.179688 L 6.738281 26.429688 L 6.988281 26.574219 L 7.019531 26.59375 L 7.027344 26.601562 L 7.089844 26.636719 L 7.207031 26.699219 L 7.375 26.769531 L 7.574219 26.816406 L 7.792969 26.8125 L 8.023438 26.738281 L 8.257812 26.566406 L 8.488281 26.292969 L 8.714844 25.917969 L 8.9375 25.445312 L 9.152344 24.886719 L 9.363281 24.257812 L 9.566406 23.570312 L 9.753906 22.835938 L 9.921875 22.050781 L 10.0625 21.21875 L 10.167969 20.335938 L 10.234375 19.390625 L 10.261719 18.375 L 10.25 17.273438 L 10.203125 16.082031 L 10.136719 14.792969 L 10.050781 13.40625 L 9.96875 11.921875 L 9.890625 10.347656 L 9.832031 8.6875 L 9.796875 6.960938 L 9.789062 5.171875 L 9.804688 3.347656 L 9.84375 1.496094 L 9.898438 -0.359375 L 9.960938 -2.203125 L 10.023438 -4.019531 L 10.078125 -5.789062 L 10.128906 -7.496094 L 10.164062 -9.128906 L 10.1875 -10.675781 L 10.199219 -12.125 L 10.203125 -13.472656 L 10.199219 -14.710938 L 10.183594 -15.839844 L 10.167969 -16.855469 L 10.144531 -17.761719 L 10.117188 -18.558594 L 10.089844 -19.257812 L 10.066406 -19.855469 L 10.050781 -20.367188 L 10.042969 -20.796875 L 10.050781 -21.152344 L 10.074219 -21.445312 L 10.105469 -21.679688 L 10.152344 -21.863281 L 10.203125 -22.003906 L 10.253906 -22.109375 L 10.296875 -22.1875 L 10.332031 -22.234375 L 10.347656 -22.257812 L 10.351562 -22.257812 L 10.363281 -22.273438 L 10.449219 -22.371094 L 10.636719 -22.542969 L 10.875 -22.777344 L 10.996094 -23.0625 L 10.765625 -23.410156 L 9.988281 -23.8125 L 8.613281 -24.21875 L 6.746094 -24.550781 L 4.578125 -24.757812 L 2.304688 -24.835938 L 0.0859375 -24.832031 L -1.953125 -24.808594 L -3.699219 -24.804688 L -5.082031 -24.820312 L -6.070312 -24.84375 L -6.691406 -24.859375 L -6.984375 -24.863281 L -7.019531 -24.863281 " transform="matrix(1,0,0,1,114,159)"/>
<path style="fill-rule:evenodd;fill:rgb(100%,100%,100%);fill-opacity:1;stroke-width:1;stroke-linecap:butt;stroke-linejoin:bevel;stroke:rgb(50.048876%,50.048876%,50.048876%);stroke-opacity:1;stroke-miterlimit:10;" d="M -2.199219 -25.195312 L -2.203125 -25.195312 L -2.226562 -25.1875 L -2.269531 -25.171875 L -2.417969 -25.097656 L -2.523438 -25.03125 L -2.640625 -24.945312 L -2.777344 -24.828125 L -2.929688 -24.683594 L -3.089844 -24.507812 L -3.257812 -24.304688 L -3.429688 -24.078125 L -3.601562 -23.820312 L -3.773438 -23.546875 L -3.9375 -23.25 L -4.09375 -22.933594 L -4.234375 -22.597656 L -4.363281 -22.242188 L -4.46875 -21.863281 L -4.558594 -21.457031 L -4.628906 -21.019531 L -4.683594 -20.542969 L -4.714844 -20.023438 L -4.734375 -19.457031 L -4.738281 -18.832031 L -4.734375 -18.152344 L -4.726562 -17.414062 L -4.714844 -16.609375 L -4.707031 -15.738281 L -4.707031 -14.804688 L -4.71875 -13.808594 L -4.738281 -12.75 L -4.769531 -11.632812 L -4.816406 -10.460938 L -4.871094 -9.238281 L -4.929688 -7.972656 L -4.996094 -6.667969 L -5.058594 -5.332031 L -5.113281 -3.96875 L -5.160156 -2.589844 L -5.195312 -1.203125 L -5.210938 0.191406 L -5.210938 1.578125 L -5.195312 2.949219 L -5.164062 4.304688 L -5.121094 5.632812 L -5.066406 6.925781 L -5.007812 8.183594 L -4.945312 9.394531 L -4.886719 10.554688 L -4.828125 11.664062 L -4.773438 12.714844 L -4.726562 13.710938 L -4.683594 14.640625 L -4.648438 15.507812 L -4.617188 16.3125 L -4.59375 17.054688 L -4.570312 17.734375 L -4.554688 18.355469 L -4.539062 18.914062 L -4.53125 19.414062 L -4.527344 19.863281 L -4.523438 20.257812 L -4.523438 20.609375 L -4.527344 20.910156 L -4.535156 21.171875 L -4.539062 21.398438 L -4.539062 21.75 L -4.535156 21.882812 L -4.527344 21.996094 L -4.515625 22.082031 L -4.496094 22.15625 L -4.480469 22.210938 L -4.464844 22.253906 L -4.449219 22.28125 L -4.4375 22.300781 L -4.421875 22.324219 L -4.359375 22.398438 L -4.191406 22.535156 L -3.890625 22.730469 L -3.453125 23.019531 L -2.898438 23.425781 L -2.242188 23.90625 L -1.492188 24.375 L -0.660156 24.75 L 0.183594 25.03125 L 0.957031 25.277344 L 1.570312 25.539062 L 1.976562 25.792969 L 2.175781 25.953125 L 2.199219 25.976562 L 2.203125 25.976562 L 2.226562 25.996094 L 2.269531 26.03125 L 2.335938 26.070312 L 2.421875 26.101562 L 2.527344 26.113281 L 2.648438 26.09375 L 2.789062 26.027344 L 2.941406 25.910156 L 3.105469 25.738281 L 3.273438 25.507812 L 3.445312 25.222656 L 3.617188 24.890625 L 3.785156 24.519531 L 3.945312 24.113281 L 4.09375 23.683594 L 4.238281 23.234375 L 4.367188 22.769531 L 4.484375 22.292969 L 4.589844 21.796875 L 4.679688 21.28125 L 4.761719 20.742188 L 4.828125 20.167969 L 4.882812 19.5625 L 4.925781 18.90625 L 4.957031 18.203125 L 4.980469 17.445312 L 4.996094 16.632812 L 5.003906 15.753906 L 5.003906 11.632812 L 5.007812 10.460938 L 5.015625 9.238281 L 5.023438 7.972656 L 5.035156 6.667969 L 5.050781 5.332031 L 5.066406 3.96875 L 5.082031 2.589844 L 5.097656 1.203125 L 5.109375 -0.191406 L 5.121094 -1.578125 L 5.128906 -2.949219 L 5.136719 -4.304688 L 5.136719 -6.925781 L 5.132812 -8.183594 L 5.125 -9.394531 L 5.117188 -10.554688 L 5.109375 -11.664062 L 5.09375 -12.714844 L 5.082031 -13.710938 L 5.066406 -14.640625 L 5.046875 -15.507812 L 5.03125 -16.3125 L 5.015625 -17.054688 L 5 -17.734375 L 4.984375 -18.355469 L 4.976562 -18.914062 L 4.976562 -19.414062 L 4.984375 -19.863281 L 5.003906 -20.257812 L 5.035156 -20.609375 L 5.082031 -20.910156 L 5.140625 -21.171875 L 5.210938 -21.398438 L 5.292969 -21.589844 L 5.378906 -21.75 L 5.464844 -21.882812 L 5.546875 -21.996094 L 5.625 -22.082031 L 5.691406 -22.15625 L 5.75 -22.210938 L 5.792969 -22.253906 L 5.824219 -22.28125 L 5.945312 -22.402344 L 6.035156 -22.546875 L 5.996094 -22.792969 L 5.628906 -23.214844 L 4.816406 -23.828125 L 3.628906 -24.53125 L 2.28125 -25.128906 L 1 -25.480469 L -0.0820312 -25.570312 L -0.9375 -25.496094 L -1.570312 -25.371094 L -1.976562 -25.265625 L -2.175781 -25.203125 L -2.199219 -25.195312 " transform="matrix(1,0,0,1,79,29)"/>
<path style="fill-rule:evenodd;fill:rgb(100%,100%,100%);fill-opacity:1;stroke-width:1;stroke-linecap:butt;stroke-linejoin:bevel;stroke:rgb(50.048876%,50.048876%,50.048876%);stroke-opacity:1;stroke-miterlimit:10;" d="M -2.199219 -5.039062 L -2.222656 -5.042969 L -2.386719 -5.058594 L -2.734375 -4.980469 L -3.253906 -4.675781 L -3.902344 -4.085938 L -4.566406 -3.242188 L -5.117188 -2.257812 L -5.460938 -1.257812 L -5.597656 -0.328125 L -5.605469 0.492188 L -5.597656 1.167969 L -5.652344 1.679688 L -5.753906 2.015625 L -5.832031 2.179688 L -5.84375 2.199219 L -5.855469 2.222656 L -5.914062 2.386719 L -5.871094 2.726562 L -5.53125 3.21875 L -4.804688 3.796875 L -3.757812 4.347656 L -2.570312 4.78125 L -1.410156 5.0625 L -0.382812 5.226562 L 0.476562 5.304688 L 1.164062 5.332031 L 1.679688 5.3125 L 2.015625 5.269531 L 2.179688 5.234375 L 2.199219 5.230469 L 2.226562 5.222656 L 2.410156 5.164062 L 2.757812 5 L 3.21875 4.683594 L 3.746094 4.171875 L 4.261719 3.472656 L 4.644531 2.632812 L 4.804688 1.703125 L 4.75 0.75 L 4.601562 -0.160156 L 4.507812 -0.953125 L 4.539062 -1.570312 L 4.652344 -1.976562 L 4.746094 -2.175781 L 4.761719 -2.199219 L 4.773438 -2.222656 L 4.835938 -2.382812 L 4.835938 -2.699219 L 4.613281 -3.148438 L 4.074219 -3.675781 L 3.257812 -4.195312 L 2.277344 -4.621094 L 1.273438 -4.890625 L 0.332031 -5 L -0.492188 -5.003906 L -1.167969 -4.976562 L -1.679688 -4.972656 L -2.015625 -5.003906 L -2.179688 -5.035156 L -2.199219 -5.039062 " transform="matrix(1,0,0,1,109,229)"/>
<path style="fill-rule:evenodd;fill:rgb(100%,100%,100%);fill-opacity:1;stroke-width:1;stroke-linecap:butt;stroke-linejoin:bevel;stroke:rgb(50.048876%,50.048876%,50.048876%);stroke-opacity:1;stroke-miterlimit:10;" d="M -7.019531 -10.855469 L -7.054688 -10.871094 L -7.332031 -10.980469 L -7.824219 -11.199219 L -8.433594 -11.445312 L -9.035156 -11.539062 L -9.5 -11.238281 L -9.75 -10.351562 L -9.777344 -8.863281 L -9.648438 -6.894531 L -9.464844 -4.652344 L -9.324219 -2.335938 L -9.261719 -0.09375 L -9.257812 1.949219 L -9.265625 3.699219 L -9.242188 5.082031 L -9.191406 6.070312 L -9.128906 6.691406 L -9.085938 6.984375 L -9.078125 7.019531 L -9.074219 7.054688 L -9.023438 7.332031 L -8.90625 7.828125 L -8.707031 8.453125 L -8.402344 9.109375 L -7.96875 9.699219 L -7.359375 10.148438 L -6.5 10.425781 L -5.3125 10.527344 L -3.769531 10.507812 L -1.9375 10.433594 L 0.046875 10.398438 L 1.988281 10.4375 L 3.707031 10.546875 L 5.082031 10.667969 L 6.070312 10.746094 L 6.691406 10.769531 L 6.984375 10.765625 L 7.019531 10.761719 L 7.054688 10.761719 L 7.332031 10.738281 L 7.824219 10.65625 L 8.429688 10.449219 L 9.027344 10.054688 L 9.511719 9.421875 L 9.835938 8.515625 L 10.015625 7.3125 L 10.101562 5.808594 L 10.136719 4.03125 L 10.148438 2.046875 L 10.140625 -0.0078125 L 10.125 -1.976562 L 10.125 -3.703125 L 10.148438 -5.082031 L 10.195312 -6.070312 L 10.242188 -6.691406 L 10.269531 -6.984375 L 10.277344 -7.054688 L 10.3125 -7.332031 L 10.375 -7.824219 L 10.421875 -8.441406 L 10.339844 -9.070312 L 9.976562 -9.597656 L 9.191406 -9.960938 L 7.945312 -10.148438 L 6.28125 -10.179688 L 4.3125 -10.121094 L 2.179688 -10.039062 L 0.0390625 -9.992188 L -1.964844 -10.027344 L -3.703125 -10.152344 L -5.082031 -10.34375 L -6.070312 -10.558594 L -6.691406 -10.738281 L -6.984375 -10.84375 L -7.019531 -10.855469 " transform="matrix(1,0,0,1,114,194)"/>
<path style="fill-rule:evenodd;fill:rgb(100%,100%,100%);fill-opacity:1;stroke-width:1;stroke-linecap:butt;stroke-linejoin:bevel;stroke:rgb(50.048876%,50.048876%,50.048876%);stroke-opacity:1;stroke-miterlimit:10;" d="M -11.777344 -14.742188 L -11.828125 -14.730469 L -12.214844 -14.632812 L -12.894531 -14.417969 L -13.699219 -14.042969 L -14.449219 -13.445312 L -15.007812 -12.527344 L -15.324219 -11.191406 L -15.441406 -9.355469 L -15.449219 -7.019531 L -15.449219 -4.257812 L -15.484375 -1.234375 L -15.546875 1.8125 L -15.574219 4.65625 L -15.507812 7.101562 L -15.324219 9.035156 L -15.066406 10.425781 L -14.8125 11.304688 L -14.65625 11.722656 L -14.636719 11.777344 L -14.613281 11.828125 L -14.449219 12.210938 L -14.136719 12.871094 L -13.675781 13.617188 L -13.042969 14.269531 L -12.152344 14.703125 L -10.890625 14.902344 L -9.148438 14.933594 L -6.898438 14.890625 L -4.195312 14.839844 L -1.210938 14.785156 L 1.820312 14.691406 L 4.660156 14.539062 L 7.101562 14.34375 L 9.035156 14.164062 L 10.425781 14.042969 L 11.304688 13.992188 L 11.722656 13.980469 L 11.828125 13.980469 L 12.207031 13.96875 L 12.839844 13.902344 L 13.527344 13.699219 L 14.082031 13.253906 L 14.417969 12.445312 L 14.539062 11.171875 L 14.535156 9.367188 L 14.5 7.03125 L 14.511719 4.265625 L 14.59375 1.242188 L 14.738281 -1.8125 L 14.921875 -4.65625 L 15.136719 -7.101562 L 15.363281 -9.035156 L 15.585938 -10.425781 L 15.765625 -11.304688 L 15.871094 -11.722656 L 15.882812 -11.777344 L 15.898438 -11.835938 L 16.03125 -12.296875 L 16.296875 -13.121094 L 16.613281 -14.125 L 16.761719 -15.085938 L 16.421875 -15.78125 L 15.316406 -16.09375 L 13.339844 -16.039062 L 10.585938 -15.753906 L 7.277344 -15.417969 L 3.683594 -15.164062 L 0.078125 -15.058594 L -3.292969 -15.0625 L -6.207031 -15.097656 L -8.523438 -15.082031 L -10.183594 -14.988281 L -11.222656 -14.851562 L -11.714844 -14.757812 L -11.777344 -14.742188 " transform="matrix(1,0,0,1,89,169)"/>
<path style="fill-rule:evenodd;fill:rgb(100%,100%,100%);fill-opacity:1;stroke-width:1;stroke-linecap:butt;stroke-linejoin:bevel;stroke:rgb(50.048876%,50.048876%,50.048876%);stroke-opacity:1;stroke-miterlimit:10;" d="M -32.203125 -15.960938 L -32.21875 -15.976562 L -32.347656 -16.054688 L -32.59375 -16.09375 L -32.9375 -15.902344 L -33.347656 -15.292969 L -33.777344 -14.148438 L -34.179688 -12.4375 L -34.507812 -10.191406 L -34.75 -7.5 L -34.914062 -4.492188 L -35.03125 -1.332031 L -35.132812 1.785156 L -35.242188 4.648438 L -35.367188 7.101562 L -35.488281 9.035156 L -35.589844 10.425781 L -35.664062 11.304688 L -35.699219 11.722656 L -35.703125 11.777344 L -35.707031 11.789062 L -35.714844 11.902344 L -35.734375 12.117188 L -35.761719 12.429688 L -35.792969 12.820312 L -35.820312 13.265625 L -35.832031 13.742188 L -35.816406 14.222656 L -35.753906 14.671875 L -35.628906 15.066406 L -35.425781 15.390625 L -35.128906 15.632812 L -34.730469 15.789062 L -34.226562 15.871094 L -33.613281 15.882812 L -32.886719 15.847656 L -32.046875 15.78125 L -31.082031 15.699219 L -29.992188 15.609375 L -28.761719 15.519531 L -27.378906 15.441406 L -25.839844 15.367188 L -24.128906 15.304688 L -22.25 15.242188 L -20.195312 15.183594 L -17.976562 15.128906 L -15.605469 15.078125 L -13.09375 15.03125 L -10.46875 15 L -7.75 14.980469 L -4.96875 14.988281 L -2.15625 15.015625 L 0.664062 15.066406 L 3.460938 15.136719 L 6.203125 15.21875 L 8.863281 15.296875 L 11.421875 15.367188 L 13.851562 15.417969 L 16.140625 15.445312 L 18.273438 15.449219 L 20.238281 15.433594 L 22.027344 15.402344 L 23.644531 15.363281 L 25.085938 15.328125 L 26.359375 15.296875 L 27.464844 15.265625 L 28.421875 15.230469 L 29.230469 15.1875 L 29.914062 15.125 L 30.476562 15.039062 L 30.933594 14.929688 L 31.300781 14.796875 L 31.589844 14.65625 L 31.8125 14.507812 L 31.976562 14.371094 L 32.089844 14.257812 L 32.164062 14.175781 L 32.199219 14.132812 L 32.203125 14.128906 L 32.21875 14.109375 L 32.347656 13.953125 L 32.605469 13.664062 L 32.972656 13.25 L 33.410156 12.683594 L 33.867188 11.871094 L 34.277344 10.691406 L 34.613281 9.027344 L 34.867188 6.832031 L 35.054688 4.164062 L 35.191406 1.199219 L 35.289062 -1.824219 L 35.34375 -4.660156 L 35.359375 -7.101562 L 35.34375 -9.035156 L 35.3125 -10.425781 L 35.285156 -11.304688 L 35.269531 -11.722656 L 35.265625 -11.777344 L 35.265625 -11.789062 L 35.261719 -11.902344 L 35.253906 -12.117188 L 35.238281 -12.429688 L 35.214844 -12.820312 L 35.179688 -13.273438 L 35.125 -13.757812 L 35.046875 -14.25 L 34.933594 -14.726562 L 34.773438 -15.15625 L 34.554688 -15.523438 L 34.273438 -15.808594 L 33.917969 -16.011719 L 33.480469 -16.128906 L 32.949219 -16.164062 L 32.316406 -16.128906 L 31.574219 -16.042969 L 30.703125 -15.917969 L 29.699219 -15.777344 L 28.542969 -15.636719 L 27.222656 -15.503906 L 25.730469 -15.398438 L 24.058594 -15.320312 L 22.203125 -15.273438 L 20.167969 -15.25 L 17.960938 -15.25 L 15.59375 -15.257812 L 13.089844 -15.269531 L 10.464844 -15.28125 L 7.75 -15.28125 L 4.96875 -15.269531 L 2.152344 -15.242188 L -0.664062 -15.207031 L -3.460938 -15.15625 L -6.203125 -15.101562 L -8.863281 -15.042969 L -11.421875 -14.988281 L -13.851562 -14.941406 L -16.140625 -14.902344 L -18.273438 -14.875 L -20.238281 -14.859375 L -22.027344 -14.859375 L -23.644531 -14.875 L -25.085938 -14.898438 L -26.359375 -14.933594 L -27.464844 -14.980469 L -28.421875 -15.039062 L -29.230469 -15.105469 L -29.914062 -15.1875 L -30.476562 -15.28125 L -30.933594 -15.378906 L -31.300781 -15.488281 L -31.589844 -15.597656 L -31.8125 -15.699219 L -31.976562 -15.796875 L -32.089844 -15.875 L -32.164062 -15.929688 L -32.199219 -15.960938 L -32.203125 -15.960938 " transform="matrix(1,0,0,1,39,124)"/>
<path style="fill-rule:evenodd;fill:rgb(100%,100%,100%);fill-opacity:1;stroke-width:1;stroke-linecap:butt;stroke-linejoin:bevel;stroke:rgb(50.048876%,50.048876%,50.048876%);stroke-opacity:1;stroke-miterlimit:10;" d="M -12.230469 -8.742188 L -12.246094 -8.714844 L -12.367188 -8.457031 L -12.578125 -7.910156 L -12.851562 -7.09375 L -13.152344 -6.167969 L -13.464844 -5.355469 L -13.761719 -4.789062 L -14.011719 -4.371094 L -14.171875 -3.84375 L -14.257812 -2.933594 L -14.320312 -1.550781 L -14.433594 0.183594 L -14.660156 2.023438 L -14.984375 3.710938 L -15.351562 5.082031 L -15.671875 6.070312 L -15.894531 6.691406 L -16.003906 6.984375 L -16.019531 7.019531 L -16.023438 7.035156 L -16.058594 7.132812 L -16.101562 7.324219 L -16.125 7.601562 L -16.082031 7.941406 L -15.9375 8.320312 L -15.660156 8.714844 L -15.246094 9.097656 L -14.695312 9.433594 L -14.027344 9.703125 L -13.261719 9.890625 L -12.40625 9.988281 L -11.472656 10.007812 L -10.460938 9.964844 L -9.367188 9.890625 L -8.1875 9.804688 L -6.914062 9.734375 L -5.550781 9.695312 L -4.109375 9.691406 L -2.609375 9.722656 L -1.074219 9.785156 L 0.464844 9.859375 L 1.984375 9.941406 L 3.445312 10.019531 L 4.824219 10.085938 L 6.097656 10.140625 L 7.25 10.183594 L 8.269531 10.21875 L 9.15625 10.25 L 9.902344 10.285156 L 10.519531 10.324219 L 11.019531 10.371094 L 11.414062 10.425781 L 11.710938 10.480469 L 11.929688 10.53125 L 12.082031 10.578125 L 12.179688 10.609375 L 12.222656 10.625 L 12.230469 10.628906 L 12.242188 10.632812 L 12.351562 10.65625 L 12.574219 10.621094 L 12.894531 10.40625 L 13.289062 9.894531 L 13.695312 9.035156 L 14.066406 7.835938 L 14.355469 6.335938 L 14.539062 4.613281 L 14.636719 2.742188 L 14.660156 0.820312 L 14.636719 -1.054688 L 14.585938 -2.769531 L 14.523438 -4.234375 L 14.464844 -5.386719 L 14.417969 -6.214844 L 14.386719 -6.738281 L 14.371094 -6.988281 L 14.371094 -7.019531 L 14.367188 -7.035156 L 14.363281 -7.128906 L 14.339844 -7.308594 L 14.296875 -7.542969 L 14.210938 -7.800781 L 14.074219 -8.054688 L 13.871094 -8.289062 L 13.597656 -8.496094 L 13.246094 -8.675781 L 12.808594 -8.828125 L 12.285156 -8.964844 L 11.664062 -9.085938 L 10.933594 -9.191406 L 10.09375 -9.277344 L 9.128906 -9.347656 L 8.039062 -9.40625 L 6.828125 -9.460938 L 5.507812 -9.515625 L 4.089844 -9.578125 L 2.601562 -9.652344 L 1.070312 -9.730469 L -0.46875 -9.8125 L -1.984375 -9.894531 L -3.445312 -9.972656 L -4.824219 -10.039062 L -6.097656 -10.097656 L -7.25 -10.140625 L -8.269531 -10.164062 L -9.15625 -10.15625 L -9.902344 -10.105469 L -10.519531 -10.003906 L -11.019531 -9.851562 L -11.414062 -9.652344 L -11.710938 -9.425781 L -11.929688 -9.199219 L -12.082031 -8.992188 L -12.179688 -8.835938 L -12.222656 -8.753906 L -12.230469 -8.742188 " transform="matrix(1,0,0,1,119,214)"/>
<path style="fill-rule:evenodd;fill:rgb(100%,100%,100%);fill-opacity:1;stroke-width:1;stroke-linecap:butt;stroke-linejoin:bevel;stroke:rgb(50.048876%,50.048876%,50.048876%);stroke-opacity:1;stroke-miterlimit:10;" d="M -17.296875 -4.324219 L -17.308594 -4.304688 L -17.394531 -4.144531 L -17.578125 -3.851562 L -17.875 -3.453125 L -18.292969 -2.960938 L -18.792969 -2.390625 L -19.28125 -1.730469 L -19.652344 -0.996094 L -19.839844 -0.226562 L -19.882812 0.519531 L -19.882812 1.171875 L -19.941406 1.679688 L -20.058594 2.015625 L -20.15625 2.179688 L -20.171875 2.199219 L -20.175781 2.203125 L -20.191406 2.230469 L -20.226562 2.289062 L -20.261719 2.375 L -20.28125 2.488281 L -20.277344 2.628906 L -20.226562 2.796875 L -20.125 2.984375 L -19.964844 3.179688 L -19.742188 3.382812 L -19.457031 3.578125 L -19.121094 3.753906 L -18.742188 3.90625 L -18.316406 4.027344 L -17.859375 4.117188 L -17.371094 4.171875 L -16.851562 4.207031 L -16.292969 4.226562 L -15.695312 4.242188 L -15.046875 4.261719 L -14.347656 4.296875 L -13.589844 4.347656 L -12.761719 4.421875 L -11.863281 4.511719 L -10.894531 4.613281 L -9.859375 4.71875 L -8.753906 4.820312 L -7.585938 4.910156 L -6.363281 4.976562 L -5.09375 5.015625 L -3.789062 5.03125 L -2.457031 5.011719 L -1.109375 4.972656 L 0.242188 4.910156 L 1.585938 4.84375 L 2.910156 4.773438 L 4.207031 4.710938 L 5.460938 4.664062 L 6.667969 4.636719 L 7.820312 4.628906 L 8.910156 4.636719 L 9.929688 4.660156 L 10.875 4.691406 L 11.75 4.726562 L 12.542969 4.757812 L 13.265625 4.785156 L 13.910156 4.808594 L 14.480469 4.828125 L 14.984375 4.84375 L 15.421875 4.863281 L 15.796875 4.878906 L 16.113281 4.898438 L 16.382812 4.914062 L 16.605469 4.929688 L 16.785156 4.941406 L 16.933594 4.941406 L 17.046875 4.933594 L 17.136719 4.921875 L 17.203125 4.902344 L 17.25 4.882812 L 17.296875 4.859375 L 17.308594 4.851562 L 17.394531 4.785156 L 17.582031 4.601562 L 17.871094 4.238281 L 18.238281 3.664062 L 18.625 2.914062 L 18.945312 2.054688 L 19.140625 1.15625 L 19.210938 0.285156 L 19.210938 -0.503906 L 19.214844 -1.171875 L 19.265625 -1.679688 L 19.355469 -2.015625 L 19.421875 -2.179688 L 19.433594 -2.199219 L 19.433594 -2.203125 L 19.445312 -2.234375 L 19.46875 -2.289062 L 19.492188 -2.378906 L 19.503906 -2.5 L 19.492188 -2.65625 L 19.453125 -2.84375 L 19.371094 -3.0625 L 19.246094 -3.300781 L 19.070312 -3.554688 L 18.847656 -3.816406 L 18.582031 -4.070312 L 18.273438 -4.308594 L 17.925781 -4.523438 L 17.539062 -4.707031 L 17.113281 -4.859375 L 16.652344 -4.972656 L 16.144531 -5.054688 L 15.585938 -5.105469 L 14.972656 -5.132812 L 14.296875 -5.136719 L 13.550781 -5.132812 L 12.738281 -5.121094 L 11.847656 -5.109375 L 10.886719 -5.097656 L 9.851562 -5.097656 L 8.75 -5.101562 L 7.582031 -5.117188 L 6.363281 -5.140625 L 5.09375 -5.167969 L 3.789062 -5.199219 L 2.457031 -5.230469 L 1.109375 -5.253906 L -0.242188 -5.273438 L -1.585938 -5.285156 L -2.910156 -5.285156 L -4.207031 -5.28125 L -5.460938 -5.269531 L -6.667969 -5.253906 L -7.820312 -5.238281 L -8.910156 -5.230469 L -9.929688 -5.226562 L -10.875 -5.230469 L -11.75 -5.242188 L -12.542969 -5.261719 L -13.265625 -5.28125 L -13.910156 -5.296875 L -14.480469 -5.300781 L -14.984375 -5.292969 L -15.421875 -5.269531 L -15.796875 -5.226562 L -16.113281 -5.164062 L -16.382812 -5.085938 L -16.605469 -4.996094 L -16.785156 -4.894531 L -16.933594 -4.785156 L -17.046875 -4.675781 L -17.136719 -4.574219 L -17.203125 -4.480469 L -17.25 -4.40625 L -17.28125 -4.355469 L -17.296875 -4.328125 L -17.296875 -4.324219 " transform="matrix(1,0,0,1,144,159)"/>
<path style="fill-rule:evenodd;fill:rgb(100%,100%,100%);fill-opacity:1;stroke-width:1;stroke-linecap:butt;stroke-linejoin:bevel;stroke:rgb(50.048876%,50.048876%,50.048876%);stroke-opacity:1;stroke-miterlimit:10;" d="M -7.019531 -15.46875 L -7.035156 -15.472656 L -7.132812 -15.492188 L -7.316406 -15.511719 L -7.566406 -15.507812 L -7.855469 -15.445312 L -8.152344 -15.296875 L -8.4375 -15.042969 L -8.6875 -14.675781 L -8.894531 -14.191406 L -9.058594 -13.601562 L -9.183594 -12.917969 L -9.285156 -12.144531 L -9.367188 -11.285156 L -9.441406 -10.332031 L -9.515625 -9.285156 L -9.589844 -8.136719 L -9.671875 -6.882812 L -9.761719 -5.535156 L -9.859375 -4.101562 L -9.964844 -2.605469 L -10.070312 -1.074219 L -10.175781 0.46875 L -10.261719 1.984375 L -10.328125 3.445312 L -10.363281 4.824219 L -10.359375 6.097656 L -10.324219 7.25 L -10.253906 8.269531 L -10.164062 9.15625 L -10.066406 9.902344 L -9.972656 10.519531 L -9.898438 11.019531 L -9.851562 11.414062 L -9.839844 11.710938 L -9.855469 11.929688 L -9.890625 12.082031 L -9.921875 12.179688 L -9.945312 12.222656 L -9.949219 12.230469 L -9.953125 12.242188 L -9.992188 12.347656 L -9.996094 12.535156 L -9.839844 12.78125 L -9.421875 13.070312 L -8.671875 13.410156 L -7.578125 13.789062 L -6.179688 14.183594 L -4.527344 14.542969 L -2.703125 14.808594 L -0.804688 14.960938 L 1.058594 15.011719 L 2.773438 15 L 4.234375 14.976562 L 5.386719 14.96875 L 6.214844 14.980469 L 6.738281 15 L 6.988281 15.015625 L 7.019531 15.015625 L 7.035156 15.019531 L 7.144531 15.027344 L 7.351562 15.042969 L 7.640625 15.0625 L 7.996094 15.085938 L 8.378906 15.09375 L 8.761719 15.058594 L 9.117188 14.953125 L 9.421875 14.746094 L 9.660156 14.417969 L 9.828125 13.960938 L 9.9375 13.363281 L 9.992188 12.636719 L 10.019531 11.777344 L 10.023438 10.796875 L 10.019531 9.695312 L 10.003906 8.46875 L 9.972656 7.128906 L 9.917969 5.675781 L 9.835938 4.132812 L 9.734375 2.527344 L 9.621094 0.882812 L 9.507812 -0.757812 L 9.414062 -2.363281 L 9.34375 -3.890625 L 9.308594 -5.316406 L 9.304688 -6.613281 L 9.335938 -7.765625 L 9.398438 -8.769531 L 9.492188 -9.617188 L 9.625 -10.316406 L 9.796875 -10.882812 L 10.011719 -11.324219 L 10.25 -11.65625 L 10.5 -11.902344 L 10.726562 -12.070312 L 10.902344 -12.171875 L 10.996094 -12.222656 L 11.007812 -12.230469 L 11.042969 -12.246094 L 11.316406 -12.367188 L 11.894531 -12.582031 L 12.6875 -12.863281 L 13.363281 -13.195312 L 13.449219 -13.570312 L 12.585938 -13.949219 L 10.738281 -14.28125 L 8.207031 -14.496094 L 5.40625 -14.589844 L 2.683594 -14.601562 L 0.21875 -14.625 L -1.917969 -14.714844 L -3.691406 -14.882812 L -5.082031 -15.085938 L -6.070312 -15.273438 L -6.691406 -15.398438 L -6.984375 -15.460938 L -7.019531 -15.46875 " transform="matrix(1,0,0,1,94,104)"/>
</g>
</svg>
