<?xml version="1.0" encoding="UTF-8"?>
<svg xmlns="http://www.w3.org/2000/svg" xmlns:xlink="http://www.w3.org/1999/xlink" width="168.472136pt" height="248.472136pt" viewBox="0 0 168.472136 248.472136" version="1.1">
<g id="surface4863">
<path style="fill-rule:evenodd;fill:rgb(100%,100%,100%);fill-opacity:1;stroke-width:1;stroke-linecap:butt;stroke-linejoin:bevel;stroke:rgb(50.048876%,50.048876%,50.048876%);stroke-opacity:1;stroke-miterlimit:10;" d="M -2.199219 -49.9375 L -2.203125 -49.9375 L -2.210938 -49.941406 L -2.234375 -49.949219 L -2.265625 -49.960938 L -2.308594 -49.972656 L -2.363281 -49.980469 L -2.425781 -49.988281 L -2.503906 -49.984375 L -2.589844 -49.972656 L -2.6875 -49.945312 L -2.796875 -49.90625 L -2.914062 -49.851562 L -3.042969 -49.78125 L -3.175781 -49.691406 L -3.316406 -49.585938 L -3.457031 -49.464844 L -3.601562 -49.328125 L -3.746094 -49.175781 L -3.882812 -49.011719 L -4.019531 -48.839844 L -4.144531 -48.65625 L -4.261719 -48.46875 L -4.371094 -48.277344 L -4.46875 -48.078125 L -4.550781 -47.875 L -4.621094 -47.667969 L -4.683594 -47.460938 L -4.730469 -47.246094 L -4.765625 -47.027344 L -4.792969 -46.800781 L -4.808594 -46.566406 L -4.816406 -46.324219 L -4.820312 -46.070312 L -4.816406 -45.800781 L -4.808594 -45.515625 L -4.796875 -45.214844 L -4.785156 -44.894531 L -4.773438 -44.550781 L -4.761719 -44.183594 L -4.75 -43.792969 L -4.746094 -43.375 L -4.742188 -42.929688 L -4.742188 -42.457031 L -4.75 -41.953125 L -4.757812 -41.417969 L -4.773438 -40.847656 L -4.789062 -40.246094 L -4.808594 -39.613281 L -4.832031 -38.941406 L -4.859375 -38.238281 L -4.886719 -37.5 L -4.914062 -36.726562 L -4.941406 -35.917969 L -4.972656 -35.070312 L -5 -34.191406 L -5.027344 -33.273438 L -5.054688 -32.324219 L -5.078125 -31.339844 L -5.101562 -30.320312 L -5.125 -29.265625 L -5.148438 -28.179688 L -5.164062 -27.0625 L -5.183594 -25.914062 L -5.195312 -24.734375 L -5.203125 -23.527344 L -5.210938 -22.289062 L -5.210938 -21.027344 L -5.207031 -19.738281 L -5.199219 -18.425781 L -5.1875 -17.089844 L -5.167969 -15.734375 L -5.148438 -14.359375 L -5.125 -12.964844 L -5.097656 -11.554688 L -5.074219 -10.132812 L -5.046875 -8.695312 L -5.023438 -7.25 L -5.003906 -5.796875 L -4.984375 -4.335938 L -4.96875 -2.867188 L -4.957031 -1.398438 L -4.949219 0.0703125 L -4.945312 1.535156 L -4.945312 3 L -4.949219 4.460938 L -4.953125 5.914062 L -4.960938 7.355469 L -4.96875 8.785156 L -4.980469 10.207031 L -4.988281 11.609375 L -5 13 L -5.011719 14.367188 L -5.019531 15.71875 L -5.03125 17.050781 L -5.039062 18.355469 L -5.050781 19.640625 L -5.058594 20.898438 L -5.066406 22.128906 L -5.070312 23.332031 L -5.078125 24.507812 L -5.082031 25.652344 L -5.082031 28.902344 L -5.078125 29.921875 L -5.070312 30.910156 L -5.0625 31.863281 L -5.050781 32.78125 L -5.035156 33.667969 L -5.019531 34.519531 L -5 35.339844 L -4.980469 36.121094 L -4.957031 36.875 L -4.9375 37.589844 L -4.914062 38.277344 L -4.890625 38.925781 L -4.867188 39.546875 L -4.84375 40.132812 L -4.824219 40.691406 L -4.808594 41.21875 L -4.792969 41.714844 L -4.78125 42.179688 L -4.773438 42.621094 L -4.769531 43.03125 L -4.765625 43.417969 L -4.769531 43.777344 L -4.773438 44.113281 L -4.78125 44.425781 L -4.792969 44.714844 L -4.808594 44.980469 L -4.832031 45.226562 L -4.855469 45.457031 L -4.886719 45.664062 L -4.917969 45.855469 L -4.960938 46.027344 L -5.003906 46.1875 L -5.058594 46.328125 L -5.117188 46.460938 L -5.179688 46.574219 L -5.25 46.679688 L -5.324219 46.773438 L -5.402344 46.859375 L -5.484375 46.933594 L -5.566406 46.996094 L -5.652344 47.054688 L -5.734375 47.105469 L -5.816406 47.148438 L -5.898438 47.1875 L -5.972656 47.21875 L -6.042969 47.25 L -6.105469 47.273438 L -6.164062 47.292969 L -6.214844 47.308594 L -6.257812 47.320312 L -6.289062 47.332031 L -6.316406 47.339844 L -6.335938 47.34375 L -6.34375 47.34375 L -6.359375 47.351562 L -6.445312 47.402344 L -6.429688 47.558594 L -6.070312 47.875 L -5.257812 48.332031 L -4.085938 48.84375 L -2.765625 49.316406 L -1.503906 49.683594 L -0.417969 49.949219 L 0.46875 50.140625 L 1.164062 50.28125 L 1.679688 50.378906 L 2.015625 50.429688 L 2.179688 50.449219 L 2.203125 50.449219 L 2.210938 50.453125 L 2.234375 50.453125 L 2.265625 50.457031 L 2.308594 50.460938 L 2.359375 50.460938 L 2.417969 50.464844 L 2.488281 50.460938 L 2.5625 50.457031 L 2.648438 50.449219 L 2.738281 50.433594 L 2.832031 50.410156 L 2.933594 50.378906 L 3.035156 50.332031 L 3.140625 50.273438 L 3.25 50.199219 L 3.359375 50.113281 L 3.464844 50.007812 L 3.570312 49.886719 L 3.675781 49.746094 L 3.773438 49.59375 L 3.871094 49.425781 L 3.960938 49.246094 L 4.046875 49.054688 L 4.125 48.851562 L 4.199219 48.640625 L 4.269531 48.421875 L 4.332031 48.199219 L 4.394531 47.96875 L 4.445312 47.730469 L 4.496094 47.488281 L 4.542969 47.242188 L 4.585938 46.984375 L 4.625 46.722656 L 4.664062 46.445312 L 4.695312 46.160156 L 4.726562 45.859375 L 4.757812 45.542969 L 4.78125 45.207031 L 4.804688 44.851562 L 4.824219 44.472656 L 4.84375 44.070312 L 4.859375 43.640625 L 4.875 43.179688 L 4.886719 42.691406 L 4.894531 42.171875 L 4.902344 41.617188 L 4.910156 41.03125 L 4.914062 40.40625 L 4.921875 39.75 L 4.925781 39.054688 L 4.925781 38.324219 L 4.929688 37.554688 L 4.933594 36.75 L 4.933594 35.90625 L 4.9375 35.023438 L 4.9375 30.066406 L 4.933594 28.96875 L 4.929688 27.835938 L 4.925781 26.671875 L 4.921875 25.472656 L 4.917969 24.246094 L 4.917969 22.984375 L 4.914062 21.699219 L 4.914062 20.386719 L 4.917969 19.046875 L 4.921875 17.683594 L 4.929688 16.300781 L 4.941406 14.894531 L 4.957031 13.46875 L 4.980469 12.027344 L 5.003906 10.574219 L 5.027344 9.105469 L 5.054688 7.625 L 5.085938 6.136719 L 5.113281 4.644531 L 5.140625 3.144531 L 5.164062 1.644531 L 5.183594 0.140625 L 5.199219 -1.359375 L 5.210938 -2.855469 L 5.21875 -4.347656 L 5.21875 -5.832031 L 5.214844 -7.304688 L 5.210938 -8.765625 L 5.199219 -10.214844 L 5.1875 -11.644531 L 5.175781 -13.058594 L 5.164062 -14.457031 L 5.152344 -15.828125 L 5.144531 -17.183594 L 5.132812 -18.511719 L 5.128906 -19.8125 L 5.121094 -21.089844 L 5.117188 -22.339844 L 5.113281 -23.558594 L 5.105469 -24.746094 L 5.101562 -25.90625 L 5.089844 -27.03125 L 5.078125 -28.125 L 5.0625 -29.1875 L 5.042969 -30.214844 L 5.019531 -31.207031 L 4.992188 -32.164062 L 4.960938 -33.085938 L 4.929688 -33.976562 L 4.898438 -34.828125 L 4.867188 -35.644531 L 4.835938 -36.429688 L 4.808594 -37.175781 L 4.785156 -37.890625 L 4.769531 -38.570312 L 4.753906 -39.214844 L 4.746094 -39.828125 L 4.746094 -40.410156 L 4.75 -40.960938 L 4.757812 -41.476562 L 4.769531 -41.964844 L 4.789062 -42.425781 L 4.808594 -42.855469 L 4.832031 -43.257812 L 4.855469 -43.632812 L 4.878906 -43.984375 L 4.902344 -44.308594 L 4.925781 -44.609375 L 4.949219 -44.886719 L 4.96875 -45.144531 L 4.984375 -45.382812 L 5 -45.597656 L 5.015625 -45.796875 L 5.03125 -45.980469 L 5.046875 -46.144531 L 5.0625 -46.292969 L 5.085938 -46.425781 L 5.113281 -46.546875 L 5.144531 -46.65625 L 5.183594 -46.753906 L 5.230469 -46.839844 L 5.289062 -46.917969 L 5.359375 -46.988281 L 5.433594 -47.046875 L 5.519531 -47.097656 L 5.613281 -47.144531 L 5.710938 -47.183594 L 5.914062 -47.246094 L 6.011719 -47.269531 L 6.105469 -47.289062 L 6.191406 -47.304688 L 6.269531 -47.320312 L 6.332031 -47.332031 L 6.382812 -47.335938 L 6.417969 -47.34375 L 6.4375 -47.34375 L 6.46875 -47.351562 L 6.667969 -47.398438 L 6.800781 -47.546875 L 6.542969 -47.847656 L 5.730469 -48.300781 L 4.464844 -48.828125 L 3.007812 -49.304688 L 1.625 -49.625 L 0.464844 -49.765625 L -0.457031 -49.785156 L -1.164062 -49.773438 L -1.679688 -49.800781 L -2.015625 -49.871094 L -2.179688 -49.929688 L -2.199219 -49.9375 " transform="matrix(1,0,0,1,79,104)"/>
<path style="fill-rule:evenodd;fill:rgb(100%,100%,100%);fill-opacity:1;stroke-width:1;stroke-linecap:butt;stroke-linejoin:bevel;stroke:rgb(50.048876%,50.048876%,50.048876%);stroke-opacity:1;stroke-miterlimit:10;" d="M -11.777344 -24.34375 L -11.796875 -24.339844 L -11.960938 -24.296875 L -12.265625 -24.210938 L -12.675781 -24.082031 L -13.132812 -23.910156 L -13.585938 -23.691406 L -13.996094 -23.410156 L -14.328125 -23.058594 L -14.570312 -22.609375 L -14.726562 -22.042969 L -14.820312 -21.320312 L -14.863281 -20.410156 L -14.882812 -19.28125 L -14.894531 -17.914062 L -14.90625 -16.289062 L -14.910156 -14.402344 L -14.910156 -12.269531 L -14.902344 -9.914062 L -14.882812 -7.371094 L -14.859375 -4.691406 L -14.839844 -1.929688 L -14.835938 0.847656 L -14.851562 3.585938 L -14.890625 6.226562 L -14.953125 8.71875 L -15.023438 11.023438 L -15.09375 13.105469 L -15.144531 14.949219 L -15.164062 16.546875 L -15.140625 17.898438 L -15.074219 19.019531 L -14.96875 19.921875 L -14.835938 20.628906 L -14.6875 21.167969 L -14.546875 21.566406 L -14.429688 21.839844 L -14.339844 22.011719 L -14.296875 22.097656 L -14.289062 22.105469 L -14.273438 22.136719 L -14.136719 22.351562 L -13.851562 22.734375 L -13.414062 23.207031 L -12.855469 23.703125 L -12.183594 24.171875 L -11.332031 24.574219 L -10.140625 24.878906 L -8.417969 25.050781 L -6.058594 25.085938 L -3.128906 25.011719 L 0.121094 24.898438 L 3.34375 24.796875 L 6.21875 24.765625 L 8.523438 24.8125 L 10.183594 24.921875 L 11.222656 25.039062 L 11.714844 25.117188 L 11.777344 25.128906 L 11.796875 25.132812 L 11.960938 25.160156 L 12.273438 25.195312 L 12.691406 25.214844 L 13.171875 25.171875 L 13.664062 25.039062 L 14.121094 24.785156 L 14.515625 24.382812 L 14.824219 23.816406 L 15.042969 23.085938 L 15.175781 22.171875 L 15.234375 21.070312 L 15.234375 19.765625 L 15.191406 18.25 L 15.117188 16.507812 L 15.027344 14.539062 L 14.929688 12.347656 L 14.835938 9.957031 L 14.75 7.390625 L 14.679688 4.699219 L 14.625 1.933594 L 14.585938 -0.847656 L 14.570312 -3.585938 L 14.574219 -6.226562 L 14.597656 -8.71875 L 14.640625 -11.023438 L 14.699219 -13.105469 L 14.769531 -14.949219 L 14.84375 -16.546875 L 14.90625 -17.898438 L 14.953125 -19.019531 L 14.976562 -19.921875 L 14.972656 -20.628906 L 14.945312 -21.167969 L 14.90625 -21.566406 L 14.859375 -21.839844 L 14.824219 -22.011719 L 14.800781 -22.097656 L 14.796875 -22.105469 L 14.792969 -22.132812 L 14.730469 -22.316406 L 14.570312 -22.644531 L 14.246094 -23.042969 L 13.667969 -23.4375 L 12.734375 -23.789062 L 11.355469 -24.074219 L 9.472656 -24.3125 L 7.085938 -24.511719 L 4.289062 -24.6875 L 1.25 -24.832031 L -1.808594 -24.933594 L -4.65625 -24.960938 L -7.101562 -24.910156 L -9.035156 -24.78125 L -10.425781 -24.613281 L -11.304688 -24.457031 L -11.722656 -24.359375 L -11.777344 -24.34375 " transform="matrix(1,0,0,1,89,219)"/>
<path style="fill-rule:evenodd;fill:rgb(100%,100%,100%);fill-opacity:1;stroke-width:1;stroke-linecap:butt;stroke-linejoin:bevel;stroke:rgb(50.048876%,50.048876%,50.048876%);stroke-opacity:1;stroke-miterlimit:10;" d="M -7.019531 -25.046875 L -7.027344 -25.050781 L -7.09375 -25.058594 L -7.222656 -25.070312 L -7.410156 -25.097656 L -7.644531 -25.128906 L -7.914062 -25.164062 L -8.210938 -25.195312 L -8.511719 -25.210938 L -8.808594 -25.195312 L -9.09375 -25.128906 L -9.351562 -24.996094 L -9.582031 -24.789062 L -9.777344 -24.496094 L -9.945312 -24.117188 L -10.078125 -23.648438 L -10.1875 -23.089844 L -10.269531 -22.453125 L -10.328125 -21.730469 L -10.363281 -20.921875 L -10.378906 -20.023438 L -10.378906 -19.027344 L -10.363281 -17.929688 L -10.332031 -16.726562 L -10.289062 -15.410156 L -10.242188 -13.976562 L -10.199219 -12.4375 L -10.160156 -10.792969 L -10.128906 -9.054688 L -10.117188 -7.238281 L -10.113281 -5.359375 L -10.125 -3.4375 L -10.140625 -1.488281 L -10.152344 0.460938 L -10.152344 2.390625 L -10.140625 4.285156 L -10.105469 6.125 L -10.054688 7.894531 L -9.988281 9.574219 L -9.914062 11.15625 L -9.839844 12.628906 L -9.773438 13.988281 L -9.714844 15.226562 L -9.667969 16.34375 L -9.632812 17.339844 L -9.601562 18.21875 L -9.578125 18.984375 L -9.550781 19.644531 L -9.519531 20.203125 L -9.484375 20.675781 L -9.445312 21.0625 L -9.398438 21.382812 L -9.351562 21.636719 L -9.300781 21.835938 L -9.25 21.988281 L -9.207031 22.101562 L -9.167969 22.179688 L -9.140625 22.230469 L -9.128906 22.257812 L -9.125 22.257812 L -9.117188 22.269531 L -9.0625 22.363281 L -8.929688 22.558594 L -8.6875 22.859375 L -8.292969 23.238281 L -7.691406 23.644531 L -6.832031 24.027344 L -5.679688 24.355469 L -4.242188 24.625 L -2.566406 24.84375 L -0.746094 25.011719 L 1.078125 25.117188 L 2.777344 25.167969 L 4.234375 25.179688 L 5.386719 25.183594 L 6.214844 25.210938 L 6.738281 25.253906 L 6.988281 25.289062 L 7.019531 25.296875 L 7.027344 25.296875 L 7.09375 25.308594 L 7.226562 25.335938 L 7.410156 25.378906 L 7.644531 25.441406 L 7.917969 25.515625 L 8.210938 25.597656 L 8.515625 25.667969 L 8.8125 25.703125 L 9.09375 25.683594 L 9.34375 25.582031 L 9.558594 25.386719 L 9.734375 25.085938 L 9.871094 24.675781 L 9.96875 24.15625 L 10.039062 23.539062 L 10.085938 22.832031 L 10.121094 22.035156 L 10.144531 21.160156 L 10.164062 20.203125 L 10.183594 19.160156 L 10.203125 18.023438 L 10.222656 16.789062 L 10.234375 15.449219 L 10.242188 14.003906 L 10.242188 12.453125 L 10.230469 10.800781 L 10.214844 9.058594 L 10.195312 7.238281 L 10.171875 5.359375 L 10.152344 3.4375 L 10.121094 -0.460938 L 10.109375 -2.390625 L 10.089844 -4.285156 L 10.070312 -6.125 L 10.046875 -7.894531 L 10.019531 -9.574219 L 9.992188 -11.15625 L 9.96875 -12.628906 L 9.949219 -13.988281 L 9.933594 -15.226562 L 9.921875 -16.34375 L 9.914062 -17.339844 L 9.910156 -18.21875 L 9.902344 -18.984375 L 9.894531 -19.644531 L 9.890625 -20.203125 L 9.890625 -20.675781 L 9.902344 -21.0625 L 9.925781 -21.382812 L 9.96875 -21.636719 L 10.023438 -21.835938 L 10.09375 -21.988281 L 10.164062 -22.101562 L 10.230469 -22.179688 L 10.308594 -22.257812 L 10.3125 -22.257812 L 10.328125 -22.273438 L 10.464844 -22.371094 L 10.765625 -22.542969 L 11.183594 -22.761719 L 11.511719 -23.007812 L 11.4375 -23.28125 L 10.691406 -23.578125 L 9.21875 -23.886719 L 7.175781 -24.1875 L 4.828125 -24.449219 L 2.421875 -24.660156 L 0.125 -24.804688 L -1.941406 -24.886719 L -3.699219 -24.929688 L -5.082031 -24.957031 L -6.070312 -24.984375 L -6.691406 -25.019531 L -6.984375 -25.046875 L -7.019531 -25.046875 " transform="matrix(1,0,0,1,114,159)"/>
<path style="fill-rule:evenodd;fill:rgb(100%,100%,100%);fill-opacity:1;stroke-width:1;stroke-linecap:butt;stroke-linejoin:bevel;stroke:rgb(50.048876%,50.048876%,50.048876%);stroke-opacity:1;stroke-miterlimit:10;" d="M -2.199219 -25.121094 L -2.203125 -25.125 L -2.226562 -25.132812 L -2.269531 -25.148438 L -2.339844 -25.164062 L -2.433594 -25.175781 L -2.558594 -25.167969 L -2.707031 -25.132812 L -2.878906 -25.070312 L -3.078125 -24.964844 L -3.292969 -24.820312 L -3.523438 -24.636719 L -3.757812 -24.410156 L -3.992188 -24.148438 L -4.21875 -23.851562 L -4.425781 -23.53125 L -4.613281 -23.183594 L -4.777344 -22.816406 L -4.914062 -22.425781 L -5.023438 -22.015625 L -5.105469 -21.578125 L -5.164062 -21.113281 L -5.203125 -20.617188 L -5.222656 -20.078125 L -5.230469 -19.496094 L -5.222656 -18.863281 L -5.210938 -18.171875 L -5.191406 -17.425781 L -5.167969 -16.617188 L -5.140625 -15.746094 L -5.105469 -14.808594 L -5.066406 -13.8125 L -5.027344 -12.75 L -4.980469 -11.632812 L -4.9375 -10.460938 L -4.890625 -9.238281 L -4.84375 -7.972656 L -4.804688 -6.667969 L -4.769531 -5.332031 L -4.746094 -3.96875 L -4.730469 -2.589844 L -4.722656 -1.203125 L -4.726562 0.191406 L -4.734375 1.578125 L -4.75 2.949219 L -4.765625 4.304688 L -4.785156 5.632812 L -4.800781 6.925781 L -4.816406 8.183594 L -4.828125 9.394531 L -4.839844 10.554688 L -4.851562 11.664062 L -4.859375 12.714844 L -4.867188 13.710938 L -4.878906 14.640625 L -4.890625 15.507812 L -4.902344 16.3125 L -4.910156 17.054688 L -4.921875 17.734375 L -4.925781 18.355469 L -4.929688 18.914062 L -4.921875 19.414062 L -4.90625 19.863281 L -4.886719 20.257812 L -4.855469 20.609375 L -4.816406 20.910156 L -4.777344 21.171875 L -4.730469 21.398438 L -4.683594 21.589844 L -4.640625 21.75 L -4.601562 21.882812 L -4.570312 21.996094 L -4.546875 22.082031 L -4.53125 22.15625 L -4.523438 22.210938 L -4.523438 22.300781 L -4.527344 22.3125 L -4.527344 22.320312 L -4.523438 22.40625 L -4.433594 22.621094 L -4.164062 23.019531 L -3.660156 23.566406 L -2.9375 24.152344 L -2.078125 24.625 L -1.171875 24.882812 L -0.292969 24.902344 L 0.5 24.757812 L 1.171875 24.539062 L 1.679688 24.335938 L 2.015625 24.1875 L 2.179688 24.113281 L 2.199219 24.105469 L 2.203125 24.105469 L 2.226562 24.09375 L 2.273438 24.074219 L 2.339844 24.042969 L 2.425781 24.003906 L 2.53125 23.953125 L 2.65625 23.894531 L 2.796875 23.828125 L 2.953125 23.75 L 3.121094 23.664062 L 3.304688 23.566406 L 3.5 23.460938 L 3.707031 23.339844 L 3.914062 23.207031 L 4.125 23.058594 L 4.332031 22.890625 L 4.527344 22.703125 L 4.703125 22.488281 L 4.859375 22.25 L 4.988281 21.976562 L 5.089844 21.664062 L 5.164062 21.3125 L 5.210938 20.90625 L 5.238281 20.449219 L 5.246094 19.929688 L 5.242188 19.347656 L 5.230469 18.699219 L 5.214844 17.976562 L 5.203125 17.179688 L 5.195312 16.3125 L 5.195312 14.355469 L 5.199219 13.273438 L 5.207031 12.125 L 5.210938 10.914062 L 5.210938 8.335938 L 5.203125 6.980469 L 5.191406 5.589844 L 5.175781 4.171875 L 5.15625 2.734375 L 5.136719 1.289062 L 5.117188 -0.160156 L 5.101562 -1.601562 L 5.089844 -3.027344 L 5.078125 -4.429688 L 5.078125 -7.136719 L 5.085938 -8.429688 L 5.101562 -9.667969 L 5.121094 -10.855469 L 5.144531 -11.984375 L 5.175781 -13.050781 L 5.207031 -14.050781 L 5.246094 -14.988281 L 5.289062 -15.855469 L 5.332031 -16.65625 L 5.378906 -17.390625 L 5.429688 -18.058594 L 5.476562 -18.660156 L 5.519531 -19.203125 L 5.558594 -19.6875 L 5.589844 -20.113281 L 5.609375 -20.488281 L 5.621094 -20.816406 L 5.621094 -21.097656 L 5.613281 -21.339844 L 5.59375 -21.542969 L 5.5625 -21.714844 L 5.527344 -21.859375 L 5.488281 -21.976562 L 5.449219 -22.070312 L 5.410156 -22.148438 L 5.371094 -22.207031 L 5.339844 -22.25 L 5.316406 -22.28125 L 5.296875 -22.300781 L 5.289062 -22.3125 L 5.277344 -22.320312 L 5.199219 -22.40625 L 4.988281 -22.640625 L 4.566406 -23.0625 L 3.917969 -23.640625 L 3.085938 -24.230469 L 2.152344 -24.6875 L 1.203125 -24.917969 L 0.304688 -24.964844 L -0.5 -24.925781 L -1.167969 -24.910156 L -1.679688 -24.960938 L -2.015625 -25.046875 L -2.179688 -25.113281 L -2.199219 -25.121094 " transform="matrix(1,0,0,1,79,29)"/>
<path style="fill-rule:evenodd;fill:rgb(100%,100%,100%);fill-opacity:1;stroke-width:1;stroke-linecap:butt;stroke-linejoin:bevel;stroke:rgb(50.048876%,50.048876%,50.048876%);stroke-opacity:1;stroke-miterlimit:10;" d="M -2.199219 -5.042969 L -2.226562 -5.03125 L -2.410156 -4.925781 L -2.75 -4.675781 L -3.175781 -4.257812 L -3.625 -3.691406 L -4.027344 -3.023438 L -4.335938 -2.292969 L -4.523438 -1.503906 L -4.621094 -0.664062 L -4.667969 0.183594 L -4.710938 0.957031 L -4.773438 1.570312 L -4.839844 1.976562 L -4.886719 2.175781 L -4.894531 2.199219 L -4.898438 2.222656 L -4.914062 2.382812 L -4.847656 2.695312 L -4.5625 3.132812 L -3.996094 3.625 L -3.179688 4.09375 L -2.226562 4.445312 L -1.242188 4.625 L -0.320312 4.640625 L 0.496094 4.539062 L 1.167969 4.402344 L 1.679688 4.289062 L 2.015625 4.21875 L 2.179688 4.1875 L 2.199219 4.183594 L 2.222656 4.179688 L 2.382812 4.144531 L 2.691406 4.019531 L 3.117188 3.753906 L 3.585938 3.304688 L 4.003906 2.679688 L 4.3125 1.921875 L 4.488281 1.097656 L 4.578125 0.265625 L 4.632812 -0.507812 L 4.695312 -1.171875 L 4.773438 -1.679688 L 4.847656 -2.015625 L 4.890625 -2.179688 L 4.898438 -2.199219 L 4.902344 -2.222656 L 4.925781 -2.386719 L 4.863281 -2.722656 L 4.582031 -3.207031 L 4.015625 -3.78125 L 3.199219 -4.347656 L 2.234375 -4.8125 L 1.25 -5.128906 L 0.324219 -5.300781 L -0.492188 -5.355469 L -1.167969 -5.320312 L -1.679688 -5.230469 L -2.015625 -5.121094 L -2.179688 -5.050781 L -2.199219 -5.042969 " transform="matrix(1,0,0,1,109,229)"/>
<path style="fill-rule:evenodd;fill:rgb(100%,100%,100%);fill-opacity:1;stroke-width:1;stroke-linecap:butt;stroke-linejoin:bevel;stroke:rgb(50.048876%,50.048876%,50.048876%);stroke-opacity:1;stroke-miterlimit:10;" d="M -7.019531 -10.117188 L -7.050781 -10.117188 L -7.285156 -10.105469 L -7.703125 -10.023438 L -8.222656 -9.789062 L -8.753906 -9.3125 L -9.222656 -8.542969 L -9.59375 -7.460938 L -9.863281 -6.09375 L -10.050781 -4.472656 L -10.183594 -2.675781 L -10.28125 -0.792969 L -10.347656 1.0625 L -10.382812 2.773438 L -10.382812 4.234375 L -10.351562 5.386719 L -10.304688 6.214844 L -10.257812 6.738281 L -10.230469 6.988281 L -10.222656 7.050781 L -10.179688 7.28125 L -10.054688 7.6875 L -9.769531 8.171875 L -9.257812 8.65625 L -8.472656 9.089844 L -7.402344 9.453125 L -6.046875 9.746094 L -4.445312 9.980469 L -2.660156 10.152344 L -0.785156 10.246094 L 1.066406 10.253906 L 2.773438 10.164062 L 4.234375 9.984375 L 5.386719 9.734375 L 6.214844 9.460938 L 6.738281 9.226562 L 6.988281 9.089844 L 7.019531 9.074219 L 7.054688 9.050781 L 7.332031 8.875 L 7.824219 8.492188 L 8.449219 7.921875 L 9.082031 7.242188 L 9.617188 6.570312 L 9.964844 5.964844 L 10.109375 5.335938 L 10.082031 4.503906 L 9.96875 3.308594 L 9.859375 1.722656 L 9.785156 -0.125 L 9.722656 -2.007812 L 9.625 -3.710938 L 9.457031 -5.082031 L 9.234375 -6.070312 L 9.015625 -6.691406 L 8.882812 -6.984375 L 8.867188 -7.019531 L 8.847656 -7.054688 L 8.695312 -7.332031 L 8.359375 -7.824219 L 7.847656 -8.4375 L 7.230469 -9.054688 L 6.609375 -9.566406 L 6.027344 -9.90625 L 5.402344 -10.066406 L 4.554688 -10.09375 L 3.339844 -10.054688 L 1.738281 -10.007812 L -0.117188 -9.988281 L -2.007812 -10.003906 L -3.710938 -10.039062 L -5.082031 -10.078125 L -6.070312 -10.101562 L -6.691406 -10.113281 L -6.984375 -10.117188 L -7.019531 -10.117188 " transform="matrix(1,0,0,1,114,194)"/>
<path style="fill-rule:evenodd;fill:rgb(100%,100%,100%);fill-opacity:1;stroke-width:1;stroke-linecap:butt;stroke-linejoin:bevel;stroke:rgb(50.048876%,50.048876%,50.048876%);stroke-opacity:1;stroke-miterlimit:10;" d="M -11.777344 -14.449219 L -11.828125 -14.441406 L -12.210938 -14.378906 L -12.855469 -14.222656 L -13.582031 -13.917969 L -14.226562 -13.378906 L -14.695312 -12.503906 L -14.984375 -11.1875 L -15.132812 -9.363281 L -15.179688 -7.027344 L -15.164062 -4.261719 L -15.109375 -1.238281 L -15.027344 1.8125 L -14.941406 4.65625 L -14.859375 7.101562 L -14.796875 9.035156 L -14.75 10.425781 L -14.71875 11.304688 L -14.703125 11.722656 L -14.699219 11.777344 L -14.695312 11.828125 L -14.667969 12.214844 L -14.5625 12.882812 L -14.292969 13.65625 L -13.75 14.347656 L -12.832031 14.824219 L -11.441406 15.050781 L -9.53125 15.074219 L -7.125 15 L -4.308594 14.929688 L -1.257812 14.921875 L 1.808594 14.972656 L 4.65625 15.070312 L 7.101562 15.179688 L 9.035156 15.296875 L 10.425781 15.414062 L 11.304688 15.507812 L 11.722656 15.566406 L 11.777344 15.574219 L 11.835938 15.582031 L 12.296875 15.65625 L 13.117188 15.808594 L 14.125 15.976562 L 15.078125 15.984375 L 15.769531 15.582031 L 16.078125 14.535156 L 16.023438 12.714844 L 15.71875 10.164062 L 15.316406 7.042969 L 14.945312 3.578125 L 14.675781 0.0390625 L 14.542969 -3.300781 L 14.542969 -6.210938 L 14.648438 -8.523438 L 14.816406 -10.183594 L 14.980469 -11.222656 L 15.082031 -11.714844 L 15.09375 -11.777344 L 15.105469 -11.828125 L 15.175781 -12.214844 L 15.214844 -12.894531 L 15.0625 -13.703125 L 14.546875 -14.480469 L 13.542969 -15.113281 L 12 -15.542969 L 9.910156 -15.769531 L 7.34375 -15.816406 L 4.414062 -15.730469 L 1.300781 -15.558594 L -1.792969 -15.347656 L -4.652344 -15.132812 L -7.101562 -14.933594 L -9.035156 -14.757812 L -10.425781 -14.617188 L -11.304688 -14.511719 L -11.722656 -14.457031 L -11.777344 -14.449219 " transform="matrix(1,0,0,1,89,169)"/>
<path style="fill-rule:evenodd;fill:rgb(100%,100%,100%);fill-opacity:1;stroke-width:1;stroke-linecap:butt;stroke-linejoin:bevel;stroke:rgb(50.048876%,50.048876%,50.048876%);stroke-opacity:1;stroke-miterlimit:10;" d="M -32.203125 -16.226562 L -32.21875 -16.234375 L -32.34375 -16.28125 L -32.5625 -16.265625 L -32.847656 -16.011719 L -33.15625 -15.347656 L -33.472656 -14.167969 L -33.769531 -12.433594 L -34.027344 -10.183594 L -34.21875 -7.492188 L -34.335938 -4.484375 L -34.402344 -1.328125 L -34.453125 1.785156 L -34.53125 4.652344 L -34.652344 7.101562 L -34.808594 9.035156 L -34.96875 10.425781 L -35.09375 11.304688 L -35.164062 11.722656 L -35.171875 11.777344 L -35.175781 11.789062 L -35.191406 11.894531 L -35.21875 12.09375 L -35.242188 12.371094 L -35.25 12.710938 L -35.222656 13.085938 L -35.140625 13.464844 L -34.992188 13.832031 L -34.773438 14.160156 L -34.472656 14.441406 L -34.085938 14.660156 L -33.617188 14.820312 L -33.0625 14.929688 L -32.421875 14.988281 L -31.6875 15.015625 L -30.851562 15.023438 L -29.910156 15.015625 L -28.84375 15.003906 L -27.644531 14.988281 L -26.300781 14.976562 L -24.804688 14.964844 L -23.148438 14.949219 L -21.328125 14.929688 L -19.351562 14.910156 L -17.222656 14.886719 L -14.957031 14.863281 L -12.5625 14.847656 L -10.0625 14.835938 L -7.480469 14.832031 L -4.839844 14.839844 L -2.164062 14.855469 L 0.523438 14.875 L 3.191406 14.898438 L 5.816406 14.921875 L 8.375 14.941406 L 10.84375 14.964844 L 13.207031 14.984375 L 15.445312 15 L 17.542969 15.015625 L 19.492188 15.027344 L 21.285156 15.03125 L 22.914062 15.03125 L 24.386719 15.023438 L 25.695312 15.007812 L 26.851562 14.980469 L 27.859375 14.941406 L 28.730469 14.890625 L 29.46875 14.835938 L 30.089844 14.777344 L 30.605469 14.722656 L 31.027344 14.667969 L 31.363281 14.625 L 31.632812 14.589844 L 31.835938 14.5625 L 31.988281 14.546875 L 32.097656 14.539062 L 32.167969 14.535156 L 32.21875 14.535156 L 32.347656 14.519531 L 32.605469 14.4375 L 32.96875 14.195312 L 33.398438 13.683594 L 33.824219 12.785156 L 34.191406 11.414062 L 34.46875 9.519531 L 34.664062 7.117188 L 34.8125 4.304688 L 34.933594 1.257812 L 35.019531 -1.808594 L 35.03125 -4.65625 L 34.929688 -7.101562 L 34.714844 -9.035156 L 34.429688 -10.425781 L 34.164062 -11.304688 L 34 -11.722656 L 33.980469 -11.777344 L 33.972656 -11.789062 L 33.921875 -11.902344 L 33.820312 -12.117188 L 33.660156 -12.429688 L 33.433594 -12.820312 L 33.144531 -13.265625 L 32.800781 -13.742188 L 32.421875 -14.21875 L 32.023438 -14.664062 L 31.640625 -15.050781 L 31.285156 -15.363281 L 30.972656 -15.578125 L 30.703125 -15.699219 L 30.457031 -15.726562 L 30.214844 -15.671875 L 29.933594 -15.558594 L 29.570312 -15.402344 L 29.085938 -15.226562 L 28.4375 -15.050781 L 27.597656 -14.894531 L 26.539062 -14.769531 L 25.257812 -14.679688 L 23.742188 -14.628906 L 22 -14.609375 L 20.042969 -14.621094 L 17.886719 -14.652344 L 15.554688 -14.699219 L 13.066406 -14.75 L 10.453125 -14.796875 L 7.742188 -14.839844 L 4.964844 -14.871094 L 2.152344 -14.886719 L -0.667969 -14.890625 L -3.460938 -14.878906 L -6.203125 -14.855469 L -8.863281 -14.824219 L -11.421875 -14.792969 L -13.851562 -14.765625 L -16.140625 -14.75 L -18.273438 -14.746094 L -20.238281 -14.761719 L -22.027344 -14.792969 L -23.644531 -14.847656 L -25.085938 -14.921875 L -26.359375 -15.011719 L -27.464844 -15.113281 L -28.421875 -15.230469 L -29.230469 -15.351562 L -29.914062 -15.476562 L -30.476562 -15.601562 L -30.933594 -15.722656 L -31.300781 -15.835938 L -31.589844 -15.941406 L -31.8125 -16.03125 L -31.976562 -16.105469 L -32.089844 -16.164062 L -32.164062 -16.203125 L -32.199219 -16.222656 L -32.203125 -16.226562 " transform="matrix(1,0,0,1,39,124)"/>
<path style="fill-rule:evenodd;fill:rgb(100%,100%,100%);fill-opacity:1;stroke-width:1;stroke-linecap:butt;stroke-linejoin:bevel;stroke:rgb(50.048876%,50.048876%,50.048876%);stroke-opacity:1;stroke-miterlimit:10;" d="M -12.230469 -11.101562 L -12.242188 -11.113281 L -12.351562 -11.175781 L -12.5625 -11.195312 L -12.855469 -11.003906 L -13.203125 -10.46875 L -13.558594 -9.527344 L -13.886719 -8.207031 L -14.15625 -6.582031 L -14.363281 -4.753906 L -14.515625 -2.8125 L -14.640625 -0.847656 L -14.757812 1.046875 L -14.90625 2.769531 L -15.101562 4.234375 L -15.351562 5.386719 L -15.632812 6.214844 L -15.878906 6.738281 L -16.023438 6.988281 L -16.042969 7.019531 L -16.054688 7.035156 L -16.113281 7.132812 L -16.203125 7.320312 L -16.28125 7.574219 L -16.296875 7.878906 L -16.195312 8.203125 L -15.945312 8.523438 L -15.535156 8.832031 L -14.972656 9.117188 L -14.273438 9.371094 L -13.464844 9.597656 L -12.566406 9.796875 L -11.59375 9.972656 L -10.546875 10.125 L -9.425781 10.253906 L -8.222656 10.355469 L -6.933594 10.4375 L -5.5625 10.488281 L -4.117188 10.515625 L -2.613281 10.519531 L -1.078125 10.496094 L 0.464844 10.453125 L 1.984375 10.398438 L 3.445312 10.335938 L 4.824219 10.277344 L 6.097656 10.234375 L 7.25 10.210938 L 8.269531 10.203125 L 9.15625 10.207031 L 9.902344 10.21875 L 10.519531 10.226562 L 11.019531 10.226562 L 11.414062 10.21875 L 11.710938 10.207031 L 11.929688 10.1875 L 12.082031 10.171875 L 12.179688 10.15625 L 12.222656 10.152344 L 12.230469 10.148438 L 12.246094 10.148438 L 12.367188 10.125 L 12.582031 10.078125 L 12.855469 9.964844 L 13.171875 9.722656 L 13.527344 9.261719 L 13.90625 8.496094 L 14.273438 7.375 L 14.574219 5.886719 L 14.757812 4.085938 L 14.808594 2.078125 L 14.757812 0.00390625 L 14.675781 -1.972656 L 14.65625 -3.703125 L 14.757812 -5.082031 L 14.972656 -6.070312 L 15.226562 -6.691406 L 15.394531 -6.984375 L 15.417969 -7.019531 L 15.425781 -7.035156 L 15.488281 -7.132812 L 15.585938 -7.320312 L 15.679688 -7.582031 L 15.714844 -7.894531 L 15.648438 -8.234375 L 15.449219 -8.574219 L 15.101562 -8.890625 L 14.605469 -9.171875 L 13.976562 -9.402344 L 13.234375 -9.582031 L 12.394531 -9.710938 L 11.46875 -9.796875 L 10.464844 -9.847656 L 9.371094 -9.875 L 8.1875 -9.882812 L 6.914062 -9.882812 L 5.554688 -9.886719 L 4.113281 -9.898438 L 2.609375 -9.925781 L 1.074219 -9.972656 L -0.464844 -10.035156 L -1.984375 -10.105469 L -3.445312 -10.175781 L -4.824219 -10.234375 L -6.097656 -10.28125 L -7.25 -10.3125 L -8.269531 -10.335938 L -9.15625 -10.363281 L -9.902344 -10.40625 L -10.519531 -10.46875 L -11.019531 -10.558594 L -11.414062 -10.664062 L -11.710938 -10.78125 L -11.929688 -10.894531 L -12.082031 -10.992188 L -12.179688 -11.058594 L -12.222656 -11.097656 L -12.230469 -11.101562 " transform="matrix(1,0,0,1,119,214)"/>
<path style="fill-rule:evenodd;fill:rgb(100%,100%,100%);fill-opacity:1;stroke-width:1;stroke-linecap:butt;stroke-linejoin:bevel;stroke:rgb(50.048876%,50.048876%,50.048876%);stroke-opacity:1;stroke-miterlimit:10;" d="M -17.296875 -4.804688 L -17.3125 -4.8125 L -17.402344 -4.882812 L -17.570312 -5.042969 L -17.816406 -5.195312 L -18.175781 -5.117188 L -18.671875 -4.582031 L -19.242188 -3.578125 L -19.765625 -2.300781 L -20.121094 -1.023438 L -20.265625 0.0703125 L -20.203125 0.9375 L -19.984375 1.566406 L -19.714844 1.976562 L -19.527344 2.175781 L -19.5 2.199219 L -19.496094 2.203125 L -19.464844 2.230469 L -19.40625 2.289062 L -19.316406 2.375 L -19.066406 2.625 L -18.910156 2.789062 L -18.734375 2.976562 L -18.546875 3.179688 L -18.34375 3.394531 L -18.125 3.617188 L -17.894531 3.839844 L -17.644531 4.054688 L -17.371094 4.257812 L -17.066406 4.441406 L -16.726562 4.601562 L -16.34375 4.734375 L -15.90625 4.832031 L -15.40625 4.894531 L -14.84375 4.925781 L -14.207031 4.925781 L -13.492188 4.898438 L -12.699219 4.851562 L -11.824219 4.792969 L -10.871094 4.734375 L -9.84375 4.679688 L -8.746094 4.632812 L -7.582031 4.605469 L -6.359375 4.597656 L -5.09375 4.605469 L -3.789062 4.628906 L -2.457031 4.664062 L -1.109375 4.707031 L 0.242188 4.753906 L 1.585938 4.796875 L 2.910156 4.839844 L 4.207031 4.875 L 5.460938 4.90625 L 6.667969 4.933594 L 7.820312 4.957031 L 8.910156 4.972656 L 9.929688 4.988281 L 10.875 5 L 11.75 5.007812 L 12.542969 5.015625 L 13.265625 5.019531 L 13.910156 5.023438 L 14.480469 5.027344 L 14.984375 5.035156 L 15.421875 5.046875 L 15.796875 5.0625 L 16.113281 5.089844 L 16.382812 5.125 L 16.605469 5.167969 L 16.785156 5.214844 L 16.933594 5.261719 L 17.046875 5.304688 L 17.136719 5.34375 L 17.203125 5.371094 L 17.296875 5.417969 L 17.308594 5.421875 L 17.394531 5.433594 L 17.570312 5.339844 L 17.847656 4.996094 L 18.210938 4.335938 L 18.621094 3.414062 L 19.015625 2.359375 L 19.332031 1.308594 L 19.5625 0.34375 L 19.75 -0.488281 L 19.976562 -1.167969 L 20.261719 -1.679688 L 20.554688 -2.015625 L 20.742188 -2.179688 L 20.769531 -2.199219 L 20.773438 -2.203125 L 20.808594 -2.230469 L 20.871094 -2.285156 L 20.941406 -2.367188 L 21.003906 -2.46875 L 21.027344 -2.585938 L 21 -2.71875 L 20.90625 -2.863281 L 20.726562 -3.011719 L 20.472656 -3.160156 L 20.136719 -3.3125 L 19.738281 -3.464844 L 19.28125 -3.621094 L 18.777344 -3.777344 L 18.242188 -3.941406 L 17.679688 -4.109375 L 17.089844 -4.285156 L 16.472656 -4.460938 L 15.828125 -4.632812 L 15.144531 -4.796875 L 14.414062 -4.941406 L 13.632812 -5.0625 L 12.789062 -5.152344 L 11.882812 -5.210938 L 10.90625 -5.234375 L 9.863281 -5.230469 L 8.757812 -5.203125 L 7.585938 -5.15625 L 6.363281 -5.105469 L 5.09375 -5.050781 L 3.789062 -5 L 2.457031 -4.960938 L 1.109375 -4.929688 L -0.242188 -4.910156 L -1.585938 -4.898438 L -2.910156 -4.894531 L -4.207031 -4.898438 L -5.460938 -4.902344 L -6.667969 -4.90625 L -7.820312 -4.910156 L -8.910156 -4.914062 L -9.929688 -4.921875 L -10.875 -4.925781 L -11.75 -4.929688 L -12.542969 -4.933594 L -13.265625 -4.929688 L -13.910156 -4.921875 L -14.480469 -4.910156 L -14.984375 -4.886719 L -15.421875 -4.855469 L -15.796875 -4.824219 L -16.113281 -4.789062 L -16.382812 -4.757812 L -16.605469 -4.734375 L -16.785156 -4.722656 L -16.933594 -4.71875 L -17.046875 -4.726562 L -17.136719 -4.742188 L -17.203125 -4.761719 L -17.25 -4.78125 L -17.28125 -4.792969 L -17.296875 -4.804688 " transform="matrix(1,0,0,1,144,159)"/>
<path style="fill-rule:evenodd;fill:rgb(100%,100%,100%);fill-opacity:1;stroke-width:1;stroke-linecap:butt;stroke-linejoin:bevel;stroke:rgb(50.048876%,50.048876%,50.048876%);stroke-opacity:1;stroke-miterlimit:10;" d="M -7.019531 -14.519531 L -7.035156 -14.519531 L -7.144531 -14.515625 L -7.351562 -14.5 L -7.644531 -14.480469 L -8 -14.441406 L -8.394531 -14.375 L -8.800781 -14.269531 L -9.183594 -14.113281 L -9.519531 -13.890625 L -9.785156 -13.589844 L -9.960938 -13.195312 L -10.050781 -12.695312 L -10.0625 -12.089844 L -10.019531 -11.355469 L -9.949219 -10.492188 L -9.878906 -9.488281 L -9.835938 -8.339844 L -9.828125 -7.050781 L -9.851562 -5.632812 L -9.894531 -4.113281 L -9.953125 -2.515625 L -10 -0.878906 L -10.035156 0.761719 L -10.050781 2.363281 L -10.042969 3.890625 L -10.011719 5.316406 L -9.964844 6.613281 L -9.902344 7.765625 L -9.832031 8.769531 L -9.761719 9.617188 L -9.699219 10.316406 L -9.667969 10.882812 L -9.675781 11.324219 L -9.722656 11.65625 L -9.804688 11.902344 L -9.902344 12.070312 L -9.988281 12.171875 L -10.046875 12.230469 L -10.0625 12.242188 L -10.160156 12.355469 L -10.246094 12.589844 L -10.167969 12.9375 L -9.777344 13.351562 L -9.003906 13.757812 L -7.84375 14.085938 L -6.359375 14.300781 L -4.632812 14.417969 L -2.757812 14.480469 L -0.824219 14.515625 L 1.054688 14.535156 L 2.769531 14.542969 L 4.234375 14.539062 L 5.386719 14.550781 L 6.214844 14.585938 L 6.738281 14.640625 L 6.988281 14.675781 L 7.035156 14.6875 L 7.144531 14.707031 L 7.351562 14.753906 L 7.640625 14.835938 L 7.992188 14.941406 L 8.375 15.058594 L 8.753906 15.144531 L 9.101562 15.160156 L 9.402344 15.050781 L 9.636719 14.792969 L 9.808594 14.355469 L 9.921875 13.746094 L 9.992188 12.972656 L 10.027344 12.054688 L 10.046875 11.003906 L 10.046875 9.839844 L 10.035156 8.566406 L 10.011719 7.183594 L 9.980469 5.710938 L 9.9375 4.152344 L 9.898438 2.535156 L 9.859375 0.886719 L 9.820312 -0.757812 L 9.78125 -2.363281 L 9.738281 -3.890625 L 9.6875 -5.316406 L 9.628906 -6.613281 L 9.574219 -7.765625 L 9.53125 -8.769531 L 9.53125 -9.617188 L 9.578125 -10.316406 L 9.683594 -10.882812 L 9.84375 -11.324219 L 10.042969 -11.65625 L 10.25 -11.902344 L 10.441406 -12.070312 L 10.589844 -12.171875 L 10.667969 -12.222656 L 10.675781 -12.230469 L 10.699219 -12.242188 L 10.847656 -12.351562 L 11.003906 -12.558594 L 10.957031 -12.859375 L 10.535156 -13.222656 L 9.648438 -13.625 L 8.332031 -14.019531 L 6.683594 -14.355469 L 4.816406 -14.59375 L 2.84375 -14.71875 L 0.859375 -14.742188 L -1.042969 -14.707031 L -2.765625 -14.652344 L -4.234375 -14.605469 L -5.386719 -14.570312 L -6.214844 -14.550781 L -6.738281 -14.53125 L -6.988281 -14.519531 L -7.019531 -14.519531 " transform="matrix(1,0,0,1,94,104)"/>
</g>
</svg>
