<?xml version="1.0" encoding="UTF-8"?>
<svg xmlns="http://www.w3.org/2000/svg" xmlns:xlink="http://www.w3.org/1999/xlink" width="168.472136" height="280.832816" viewBox="0 0 168.472136 280.832816">
<path fill-rule="evenodd" fill="rgb(100%, 100%, 100%)" fill-opacity="1" stroke-width="1" stroke-linecap="butt" stroke-linejoin="bevel" stroke="rgb(50.048876%, 50.048876%, 50.048876%)" stroke-opacity="1" stroke-miterlimit="10" d="M -2.199219 -48.792643 L -2.203125 -48.792643 L -2.210938 -48.788736 L -2.234375 -48.780924 L -2.265625 -48.769205 L -2.304688 -48.75358 L -2.355469 -48.734049 L -2.414062 -48.710611 L -2.480469 -48.679361 L -2.554688 -48.644205 L -2.640625 -48.601236 L -2.730469 -48.554361 L -2.828125 -48.499674 L -2.933594 -48.44108 L -3.046875 -48.374674 L -3.164062 -48.304361 L -3.285156 -48.226236 L -3.414062 -48.144205 L -3.542969 -48.058268 L -3.671875 -47.968424 L -3.800781 -47.870768 L -3.925781 -47.769205 L -4.050781 -47.663736 L -4.164062 -47.550455 L -4.273438 -47.433268 L -4.371094 -47.304361 L -4.460938 -47.171549 L -4.535156 -47.030924 L -4.601562 -46.87858 L -4.660156 -46.718424 L -4.703125 -46.542643 L -4.738281 -46.355143 L -4.765625 -46.148111 L -4.789062 -45.925455 L -4.804688 -45.687174 L -4.816406 -45.425455 L -4.824219 -45.144205 L -4.828125 -44.835611 L -4.835938 -44.507486 L -4.839844 -44.152018 L -4.84375 -43.769205 L -4.851562 -43.359049 L -4.855469 -42.917643 L -4.859375 -42.444986 L -4.867188 -41.944986 L -4.871094 -41.40983 L -4.875 -40.843424 L -4.882812 -40.245768 L -4.886719 -39.609049 L -4.890625 -38.94108 L -4.898438 -38.237955 L -4.90625 -37.499674 L -4.914062 -36.726236 L -4.921875 -35.917643 L -4.933594 -35.069986 L -4.945312 -34.19108 L -4.957031 -33.273111 L -4.96875 -32.323893 L -4.980469 -31.339518 L -4.992188 -30.319986 L -5.003906 -29.265299 L -5.015625 -28.179361 L -5.023438 -27.062174 L -5.03125 -25.913736 L -5.039062 -24.734049 L -5.042969 -23.527018 L -5.046875 -22.288736 L -5.050781 -21.027018 L -5.054688 -19.737955 L -5.054688 -18.425455 L -5.058594 -17.089518 L -5.058594 -15.734049 L -5.0625 -14.359049 L -5.070312 -12.964518 L -5.074219 -11.554361 L -5.082031 -10.132486 L -5.089844 -8.694986 L -5.101562 -7.249674 L -5.113281 -5.796549 L -5.125 -4.335611 L -5.136719 -2.866861 L -5.167969 0.0706387 L -5.199219 3.000326 L -5.21875 4.461264 L -5.234375 5.914389 L -5.253906 7.355795 L -5.269531 8.785482 L -5.285156 10.207357 L -5.296875 11.609701 L -5.308594 13.000326 L -5.320312 14.367514 L -5.324219 15.719076 L -5.324219 17.051107 L -5.320312 18.355795 L -5.3125 19.640951 L -5.300781 20.898764 L -5.28125 22.129232 L -5.261719 23.332357 L -5.234375 24.508139 L -5.207031 25.65267 L -5.179688 26.765951 L -5.148438 27.851889 L -5.121094 28.90267 L -5.097656 29.922201 L -5.074219 30.910482 L -5.054688 31.863607 L -5.042969 32.781576 L -5.035156 33.668295 L -5.03125 34.519857 L -5.035156 35.34017 L -5.042969 36.12142 L -5.054688 36.875326 L -5.074219 37.59017 L -5.097656 38.27767 L -5.125 38.926107 L -5.152344 39.547201 L -5.183594 40.133139 L -5.214844 40.691732 L -5.246094 41.219076 L -5.277344 41.71517 L -5.304688 42.180014 L -5.332031 42.62142 L -5.355469 43.031576 L -5.375 43.418295 L -5.386719 43.77767 L -5.398438 44.113607 L -5.402344 44.426107 L -5.402344 44.71517 L -5.398438 44.980795 L -5.386719 45.226889 L -5.371094 45.457357 L -5.347656 45.664389 L -5.324219 45.855795 L -5.292969 46.02767 L -5.261719 46.187826 L -5.222656 46.328451 L -5.179688 46.461264 L -5.132812 46.574545 L -5.082031 46.680014 L -5.027344 46.773764 L -4.96875 46.859701 L -4.90625 46.93392 L -4.835938 46.99642 L -4.765625 47.055014 L -4.691406 47.105795 L -4.613281 47.148764 L -4.535156 47.187826 L -4.457031 47.219076 L -4.382812 47.250326 L -4.308594 47.273764 L -4.238281 47.293295 L -4.175781 47.30892 L -4.121094 47.320639 L -4.078125 47.332357 L -4.042969 47.34017 L -4.019531 47.344076 L -4.003906 47.344076 L -3.976562 47.351889 L -3.734375 47.390951 L -3.222656 47.476889 L -2.515625 47.640951 L -1.8125 47.961264 L -1.316406 48.472982 L -1.03125 49.086264 L -0.773438 49.62142 L -0.347656 49.930014 L 0.28125 50.000326 L 0.976562 49.957357 L 1.570312 49.937826 L 1.976562 49.988607 L 2.175781 50.051107 L 2.199219 50.062826 L 2.203125 50.062826 L 2.210938 50.066732 L 2.234375 50.074545 L 2.265625 50.09017 L 2.308594 50.113607 L 2.359375 50.140951 L 2.417969 50.176107 L 2.488281 50.219076 L 2.566406 50.265951 L 2.65625 50.320639 L 2.75 50.379232 L 2.851562 50.43392 L 2.964844 50.488607 L 3.078125 50.531576 L 3.199219 50.562826 L 3.328125 50.578451 L 3.457031 50.570639 L 3.589844 50.543295 L 3.71875 50.484701 L 3.851562 50.398764 L 3.976562 50.285482 L 4.097656 50.144857 L 4.210938 49.972982 L 4.316406 49.77767 L 4.410156 49.55892 L 4.496094 49.320639 L 4.570312 49.066732 L 4.636719 48.797201 L 4.691406 48.519857 L 4.734375 48.230795 L 4.773438 47.93392 L 4.800781 47.633139 L 4.828125 47.328451 L 4.847656 47.015951 L 4.867188 46.695639 L 4.882812 46.367514 L 4.898438 46.031576 L 4.914062 45.68392 L 4.929688 45.320639 L 4.949219 44.941732 L 4.964844 44.543295 L 4.980469 44.125326 L 5 43.68392 L 5.015625 43.211264 L 5.03125 42.71517 L 5.046875 42.187826 L 5.058594 41.629232 L 5.074219 41.039389 L 5.082031 40.414389 L 5.09375 39.754232 L 5.101562 39.05892 L 5.109375 38.324545 L 5.117188 37.55892 L 5.125 36.750326 L 5.132812 35.906576 L 5.136719 35.02767 L 5.144531 34.105795 L 5.148438 33.15267 L 5.15625 32.160482 L 5.160156 31.133139 L 5.167969 30.066732 L 5.175781 28.969076 L 5.183594 27.836264 L 5.195312 26.672201 L 5.203125 25.472982 L 5.214844 24.24642 L 5.226562 22.984701 L 5.238281 21.699545 L 5.253906 20.387045 L 5.265625 19.047201 L 5.273438 17.68392 L 5.285156 16.301107 L 5.289062 14.894857 L 5.292969 13.469076 L 5.289062 12.02767 L 5.28125 10.574545 L 5.269531 9.105795 L 5.25 7.625326 L 5.226562 6.137045 L 5.195312 4.644857 L 5.160156 3.144857 L 5.121094 1.644857 L 5.074219 0.140951 L 5.027344 -1.359049 L 4.976562 -2.855143 L 4.929688 -4.34733 L 4.878906 -5.831705 L 4.832031 -7.304361 L 4.789062 -8.765299 L 4.75 -10.214518 L 4.71875 -11.644205 L 4.695312 -13.058268 L 4.675781 -14.456705 L 4.664062 -15.827799 L 4.660156 -17.183268 L 4.664062 -18.511393 L 4.675781 -19.812174 L 4.691406 -21.089518 L 4.714844 -22.339518 L 4.742188 -23.558268 L 4.773438 -24.745768 L 4.808594 -25.905924 L 4.84375 -27.030924 L 4.878906 -28.124674 L 4.914062 -29.187174 L 4.953125 -30.214518 L 4.988281 -31.206705 L 5.019531 -32.163736 L 5.050781 -33.085611 L 5.078125 -33.976236 L 5.101562 -34.827799 L 5.121094 -35.644205 L 5.136719 -36.429361 L 5.152344 -37.175455 L 5.160156 -37.890299 L 5.167969 -38.569986 L 5.167969 -39.827799 L 5.164062 -40.40983 L 5.160156 -40.960611 L 5.152344 -41.476236 L 5.144531 -41.964518 L 5.140625 -42.425455 L 5.132812 -42.855143 L 5.125 -43.257486 L 5.121094 -43.632486 L 5.117188 -43.984049 L 5.113281 -44.308268 L 5.113281 -44.609049 L 5.109375 -44.886393 L 5.109375 -45.382486 L 5.105469 -45.59733 L 5.101562 -45.796549 L 5.09375 -45.980143 L 5.085938 -46.144205 L 5.074219 -46.292643 L 5.0625 -46.425455 L 5.042969 -46.546549 L 5.023438 -46.655924 L 5 -46.75358 L 4.976562 -46.839518 L 4.949219 -46.917643 L 4.921875 -46.987955 L 4.890625 -47.046549 L 4.863281 -47.09733 L 4.835938 -47.144205 L 4.808594 -47.183268 L 4.761719 -47.245768 L 4.742188 -47.269205 L 4.726562 -47.288736 L 4.710938 -47.304361 L 4.699219 -47.319986 L 4.691406 -47.331705 L 4.683594 -47.335611 L 4.675781 -47.351236 L 4.628906 -47.405924 L 4.484375 -47.581705 L 4.160156 -47.937174 L 3.621094 -48.433268 L 2.894531 -48.94108 L 2.046875 -49.304361 L 1.15625 -49.452799 L 0.285156 -49.413736 L -0.503906 -49.269205 L -1.171875 -49.101236 L -1.679688 -48.960611 L -2.015625 -48.855143 L -2.179688 -48.800455 L -2.199219 -48.792643 " transform="matrix(1, 0, 0, 1, 79, 112.40983)"/>
<path fill-rule="evenodd" fill="rgb(100%, 100%, 100%)" fill-opacity="1" stroke-width="1" stroke-linecap="butt" stroke-linejoin="bevel" stroke="rgb(50.048876%, 50.048876%, 50.048876%)" stroke-opacity="1" stroke-miterlimit="10" d="M -11.777344 -25.004559 L -11.796875 -25.000652 L -11.960938 -24.949871 L -12.269531 -24.852215 L -12.679688 -24.699871 L -13.140625 -24.49284 L -13.605469 -24.227215 L -14.023438 -23.891277 L -14.367188 -23.473309 L -14.621094 -22.957684 L -14.785156 -22.320965 L -14.875 -21.535809 L -14.914062 -20.567059 L -14.914062 -19.395184 L -14.902344 -17.988934 L -14.882812 -16.33659 L -14.867188 -14.434246 L -14.851562 -12.285809 L -14.839844 -9.922527 L -14.832031 -7.375652 L -14.828125 -4.692059 L -14.832031 -1.93034 L -14.839844 0.847004 L -14.847656 3.585285 L -14.855469 6.22591 L -14.851562 8.718098 L -14.832031 11.022785 L -14.789062 13.104816 L -14.726562 14.948566 L -14.644531 16.546223 L -14.546875 17.897785 L -14.449219 19.018879 L -14.347656 19.921223 L -14.257812 20.628254 L -14.179688 21.167316 L -14.117188 21.565754 L -14.074219 21.839191 L -14.027344 22.097004 L -14.027344 22.104816 L -14.023438 22.13216 L -13.980469 22.323566 L -13.867188 22.686848 L -13.617188 23.167316 L -13.144531 23.690754 L -12.335938 24.16341 L -11.078125 24.514973 L -9.300781 24.710285 L -6.992188 24.772785 L -4.246094 24.761066 L -1.234375 24.733723 L 1.816406 24.741535 L 4.65625 24.78841 L 7.101562 24.862629 L 9.035156 24.929035 L 10.425781 24.972004 L 11.304688 24.991535 L 11.722656 24.995441 L 11.960938 24.995441 L 12.265625 24.979816 L 12.664062 24.936848 L 13.109375 24.839191 L 13.550781 24.659504 L 13.945312 24.38216 L 14.273438 23.983723 L 14.53125 23.44466 L 14.722656 22.75716 L 14.859375 21.901691 L 14.960938 20.858723 L 15.035156 19.608723 L 15.089844 18.139973 L 15.121094 16.436848 L 15.132812 14.495441 L 15.121094 12.323566 L 15.089844 9.940754 L 15.039062 7.38216 L 14.980469 4.69466 L 14.929688 1.932941 L 14.898438 -0.848309 L 14.890625 -3.58659 L 14.914062 -6.227215 L 14.957031 -8.719402 L 15.019531 -11.02409 L 15.082031 -13.106121 L 15.132812 -14.949871 L 15.167969 -16.547527 L 15.179688 -17.89909 L 15.167969 -19.020184 L 15.128906 -19.922527 L 15.074219 -20.629559 L 15.007812 -21.168621 L 14.9375 -21.567059 L 14.875 -21.840496 L 14.824219 -22.012371 L 14.796875 -22.098309 L 14.796875 -22.106121 L 14.785156 -22.137371 L 14.703125 -22.352215 L 14.511719 -22.731121 L 14.183594 -23.184246 L 13.703125 -23.61784 L 13.03125 -23.973309 L 12.078125 -24.238934 L 10.714844 -24.43034 L 8.792969 -24.582684 L 6.265625 -24.735027 L 3.222656 -24.914715 L -0.0898438 -25.113934 L -3.335938 -25.30534 L -6.214844 -25.426434 L -8.523438 -25.426434 L -10.183594 -25.313152 L -11.222656 -25.145184 L -11.714844 -25.02409 L -11.777344 -25.004559 " transform="matrix(1, 0, 0, 1, 89, 251.68034)"/>
<path fill-rule="evenodd" fill="rgb(100%, 100%, 100%)" fill-opacity="1" stroke-width="1" stroke-linecap="butt" stroke-linejoin="bevel" stroke="rgb(50.048876%, 50.048876%, 50.048876%)" stroke-opacity="1" stroke-miterlimit="10" d="M -7.019531 -24.78304 L -7.027344 -24.78304 L -7.09375 -24.767415 L -7.226562 -24.740071 L -7.410156 -24.693196 L -7.644531 -24.630696 L -7.917969 -24.552571 L -8.21875 -24.451009 L -8.527344 -24.329915 L -8.839844 -24.185384 L -9.136719 -24.009603 L -9.417969 -23.806478 L -9.667969 -23.572103 L -9.890625 -23.298665 L -10.078125 -22.982259 L -10.234375 -22.615071 L -10.359375 -22.185384 L -10.449219 -21.68929 L -10.511719 -21.111165 L -10.539062 -20.435384 L -10.539062 -19.65804 L -10.507812 -18.767415 L -10.460938 -17.747884 L -10.398438 -16.607259 L -10.332031 -15.329915 L -10.269531 -13.931478 L -10.214844 -12.40804 L -10.179688 -10.779134 L -10.164062 -9.048665 L -10.160156 -7.236165 L -10.171875 -5.357259 L -10.191406 -3.435384 L -10.210938 -1.490071 L -10.230469 0.459147 L -10.242188 2.388835 L -10.25 4.283366 L -10.246094 6.12321 L -10.234375 7.892741 L -10.210938 9.572429 L -10.179688 11.15446 L -10.136719 12.627116 L -10.082031 13.986491 L -10.019531 15.224772 L -9.941406 16.34196 L -9.855469 17.338054 L -9.761719 18.21696 L -9.664062 18.982585 L -9.570312 19.642741 L -9.480469 20.201335 L -9.398438 20.673991 L -9.335938 21.06071 L -9.285156 21.381022 L -9.253906 21.634929 L -9.238281 21.834147 L -9.230469 21.986491 L -9.234375 22.099772 L -9.238281 22.177897 L -9.246094 22.228679 L -9.25 22.256022 L -9.253906 22.267741 L -9.257812 22.361491 L -9.214844 22.556804 L -9.054688 22.861491 L -8.691406 23.263835 L -8.058594 23.720866 L -7.125 24.177897 L -5.882812 24.584147 L -4.359375 24.908366 L -2.621094 25.146647 L -0.769531 25.314616 L 1.070312 25.431804 L 2.773438 25.509929 L 4.234375 25.556804 L 5.386719 25.580241 L 6.214844 25.588054 L 6.738281 25.584147 L 6.988281 25.580241 L 7.027344 25.580241 L 7.089844 25.576335 L 7.210938 25.568522 L 7.382812 25.541179 L 7.601562 25.490397 L 7.847656 25.400554 L 8.117188 25.263835 L 8.394531 25.072429 L 8.671875 24.822429 L 8.941406 24.513835 L 9.199219 24.146647 L 9.433594 23.724772 L 9.648438 23.252116 L 9.832031 22.724772 L 9.980469 22.146647 L 10.089844 21.509929 L 10.15625 20.806804 L 10.179688 20.033366 L 10.15625 19.173991 L 10.097656 18.224772 L 10.007812 17.173991 L 9.902344 16.017741 L 9.789062 14.752116 L 9.683594 13.381022 L 9.597656 11.908366 L 9.539062 10.338054 L 9.511719 8.681804 L 9.515625 6.955241 L 9.546875 5.170085 L 9.601562 3.34196 L 9.667969 1.494304 L 9.742188 -0.361165 L 9.808594 -2.204915 L 9.871094 -4.021321 L 9.917969 -5.790853 L 9.957031 -7.497884 L 9.976562 -9.130696 L 9.988281 -10.677571 L 9.988281 -12.12679 L 9.980469 -13.474446 L 9.964844 -14.712728 L 9.941406 -15.841634 L 9.910156 -16.857259 L 9.878906 -17.763509 L 9.839844 -18.560384 L 9.800781 -19.259603 L 9.765625 -19.857259 L 9.734375 -20.368978 L 9.710938 -20.798665 L 9.691406 -21.154134 L 9.683594 -21.447103 L 9.683594 -21.865071 L 9.691406 -22.005696 L 9.703125 -22.111165 L 9.710938 -22.18929 L 9.71875 -22.236165 L 9.71875 -22.259603 L 9.722656 -22.259603 L 9.722656 -22.361165 L 9.671875 -22.53304 L 9.476562 -22.786946 L 9.058594 -23.118978 L 8.351562 -23.525228 L 7.332031 -23.978353 L 6.011719 -24.435384 L 4.429688 -24.84554 L 2.65625 -25.150228 L 0.785156 -25.326009 L -1.066406 -25.368978 L -2.773438 -25.31429 L -4.234375 -25.197103 L -5.386719 -25.060384 L -6.214844 -24.935384 L -6.738281 -24.841634 L -6.988281 -24.790853 L -7.019531 -24.78304 " transform="matrix(1, 0, 0, 1, 114, 171.454915)"/>
<path fill-rule="evenodd" fill="rgb(100%, 100%, 100%)" fill-opacity="1" stroke-width="1" stroke-linecap="butt" stroke-linejoin="bevel" stroke="rgb(50.048876%, 50.048876%, 50.048876%)" stroke-opacity="1" stroke-miterlimit="10" d="M -2.199219 -25.233723 L -2.203125 -25.237629 L -2.226562 -25.249348 L -2.273438 -25.276691 L -2.339844 -25.315754 L -2.425781 -25.370441 L -2.53125 -25.436848 L -2.652344 -25.50716 L -2.785156 -25.573566 L -2.929688 -25.628254 L -3.085938 -25.66341 L -3.25 -25.659504 L -3.414062 -25.608723 L -3.585938 -25.503254 L -3.753906 -25.339191 L -3.921875 -25.108723 L -4.082031 -24.81966 L -4.238281 -24.472004 L -4.382812 -24.073566 L -4.519531 -23.63216 L -4.640625 -23.151691 L -4.75 -22.643879 L -4.84375 -22.10091 L -4.917969 -21.530598 L -4.976562 -20.929035 L -5.023438 -20.28841 L -5.050781 -19.608723 L -5.066406 -18.88216 L -5.070312 -18.104816 L -5.066406 -17.268879 L -5.058594 -16.370441 L -5.050781 -15.405598 L -5.046875 -14.378254 L -5.042969 -13.284504 L -5.046875 -12.13216 L -5.058594 -10.917316 L -5.074219 -9.651691 L -5.097656 -8.335285 L -5.125 -6.979816 L -5.15625 -5.589191 L -5.1875 -4.171223 L -5.214844 -2.733723 L -5.242188 -1.28841 L -5.265625 0.160809 L -5.28125 1.602215 L -5.292969 3.027996 L -5.300781 4.43034 L -5.304688 5.801434 L -5.304688 7.137371 L -5.300781 8.43034 L -5.296875 9.668621 L -5.289062 10.856121 L -5.277344 11.985027 L -5.265625 13.051434 L -5.253906 14.051434 L -5.238281 14.988934 L -5.222656 15.856121 L -5.203125 16.656902 L -5.191406 17.391277 L -5.183594 18.059246 L -5.1875 18.660809 L -5.203125 19.203777 L -5.234375 19.688152 L -5.289062 20.113934 L -5.359375 20.488934 L -5.453125 20.817059 L -5.566406 21.098309 L -5.695312 21.340496 L -5.835938 21.543621 L -5.984375 21.715496 L -6.132812 21.860027 L -6.277344 21.977215 L -6.417969 22.070965 L -6.539062 22.14909 L -6.648438 22.207684 L -6.738281 22.250652 L -6.804688 22.281902 L -6.851562 22.301434 L -6.875 22.313152 L -6.878906 22.313152 L -6.898438 22.320965 L -7.007812 22.402996 L -7.003906 22.602215 L -6.609375 22.965496 L -5.710938 23.473309 L -4.410156 24.05534 L -2.957031 24.606121 L -1.597656 25.039715 L -0.453125 25.328777 L 0.460938 25.504559 L 1.164062 25.61784 L 1.679688 25.707684 L 2.015625 25.777996 L 2.179688 25.820965 L 2.199219 25.824871 L 2.203125 25.828777 L 2.226562 25.832684 L 2.273438 25.848309 L 2.339844 25.86784 L 2.425781 25.895184 L 2.527344 25.926434 L 2.648438 25.957684 L 2.78125 25.981121 L 2.925781 25.988934 L 3.074219 25.973309 L 3.226562 25.922527 L 3.382812 25.824871 L 3.535156 25.672527 L 3.679688 25.465496 L 3.824219 25.199871 L 3.957031 24.879559 L 4.082031 24.508465 L 4.195312 24.094402 L 4.304688 23.637371 L 4.402344 23.152996 L 4.496094 22.633465 L 4.585938 22.090496 L 4.667969 21.520184 L 4.746094 20.918621 L 4.820312 20.281902 L 4.890625 19.606121 L 4.953125 18.879559 L 5.011719 18.102215 L 5.058594 17.266277 L 5.097656 16.36784 L 5.125 15.406902 L 5.144531 14.379559 L 5.148438 13.285809 L 5.140625 12.133465 L 5.121094 10.918621 L 5.09375 9.652996 L 5.058594 8.33659 L 5.019531 6.981121 L 4.980469 5.590496 L 4.945312 4.172527 L 4.914062 2.735027 L 4.886719 1.289715 L 4.867188 -0.159504 L 4.855469 -1.60091 L 4.851562 -3.026691 L 4.847656 -4.429035 L 4.847656 -5.800129 L 4.851562 -7.136066 L 4.855469 -8.429035 L 4.863281 -9.667316 L 4.875 -10.854816 L 4.890625 -11.983723 L 4.914062 -13.050129 L 4.945312 -14.050129 L 4.988281 -14.987629 L 5.039062 -15.854816 L 5.101562 -16.655598 L 5.171875 -17.389973 L 5.246094 -18.057941 L 5.316406 -18.659504 L 5.386719 -19.202473 L 5.445312 -19.686848 L 5.488281 -20.112629 L 5.511719 -20.487629 L 5.519531 -20.815754 L 5.507812 -21.097004 L 5.480469 -21.339191 L 5.441406 -21.542316 L 5.386719 -21.714191 L 5.332031 -21.858723 L 5.277344 -21.97591 L 5.222656 -22.06966 L 5.175781 -22.147785 L 5.136719 -22.206379 L 5.109375 -22.249348 L 5.085938 -22.280598 L 5.070312 -22.300129 L 5.066406 -22.311848 L 5.0625 -22.311848 L 5.058594 -22.323566 L 5.003906 -22.397785 L 4.90625 -22.534504 L 4.730469 -22.729816 L 4.382812 -23.00716 L 3.78125 -23.366535 L 2.921875 -23.75716 L 1.894531 -24.10091 L 0.84375 -24.354816 L -0.128906 -24.546223 L -0.945312 -24.737629 L -1.570312 -24.936848 L -1.976562 -25.116535 L -2.175781 -25.222004 L -2.199219 -25.233723 " transform="matrix(1, 0, 0, 1, 79, 29.31966)"/>
<path fill-rule="evenodd" fill="rgb(100%, 100%, 100%)" fill-opacity="1" stroke-width="1" stroke-linecap="butt" stroke-linejoin="bevel" stroke="rgb(50.048876%, 50.048876%, 50.048876%)" stroke-opacity="1" stroke-miterlimit="10" d="M -2.199219 -4.573081 L -2.226562 -4.5848 L -2.410156 -4.670737 L -2.753906 -4.850425 L -3.203125 -5.0223 L -3.710938 -4.963706 L -4.230469 -4.4598 L -4.691406 -3.49105 L -5.011719 -2.252769 L -5.148438 -1.002769 L -5.09375 0.0792626 L -4.902344 0.938638 L -4.652344 1.567544 L -4.429688 1.9777 L -4.304688 2.176919 L -4.273438 2.223794 L -4.160156 2.38395 L -3.929688 2.692544 L -3.578125 3.114419 L -3.097656 3.559731 L -2.503906 3.942544 L -1.804688 4.192544 L -1.035156 4.313638 L -0.242188 4.344888 L 0.515625 4.344888 L 1.171875 4.337075 L 1.679688 4.329263 L 2.015625 4.313638 L 2.179688 4.301919 L 2.199219 4.298013 L 2.222656 4.298013 L 2.375 4.266763 L 2.648438 4.153481 L 2.976562 3.88395 L 3.296875 3.4152 L 3.5625 2.75895 L 3.769531 1.969888 L 3.941406 1.122231 L 4.148438 0.274575 L 4.441406 -0.506675 L 4.847656 -1.170737 L 5.316406 -1.67855 L 5.742188 -2.014487 L 5.996094 -2.17855 L 6.027344 -2.198081 L 6.0625 -2.221519 L 6.269531 -2.381675 L 6.433594 -2.694175 L 6.230469 -3.11605 L 5.488281 -3.580894 L 4.300781 -3.987144 L 2.914062 -4.260581 L 1.582031 -4.381675 L 0.449219 -4.389487 L -0.460938 -4.36605 L -1.164062 -4.369956 L -1.679688 -4.42855 L -2.015625 -4.506675 L -2.179688 -4.565269 L -2.199219 -4.573081 " transform="matrix(1, 0, 0, 1, 109, 265.725425)"/>
<path fill-rule="evenodd" fill="rgb(100%, 100%, 100%)" fill-opacity="1" stroke-width="1" stroke-linecap="butt" stroke-linejoin="bevel" stroke="rgb(50.048876%, 50.048876%, 50.048876%)" stroke-opacity="1" stroke-miterlimit="10" d="M -7.019531 -10.025554 L -7.050781 -10.02946 L -7.28125 -10.021647 L -7.683594 -9.955241 L -8.167969 -9.732585 L -8.640625 -9.271647 L -9.058594 -8.513835 L -9.410156 -7.447429 L -9.710938 -6.084147 L -9.96875 -4.470866 L -10.167969 -2.673991 L -10.277344 -0.791179 L -10.253906 1.06429 L -10.089844 2.775228 L -9.804688 4.236165 L -9.460938 5.388509 L -9.121094 6.216634 L -8.855469 6.740071 L -8.710938 6.990071 L -8.695312 7.021321 L -8.671875 7.056478 L -8.496094 7.333821 L -8.136719 7.826009 L -7.628906 8.435384 L -7.054688 9.040853 L -6.5 9.53304 L -5.980469 9.861165 L -5.398438 10.029134 L -4.570312 10.091634 L -3.355469 10.091634 L -1.75 10.06429 L 0.113281 10.013509 L 2.003906 9.962728 L 3.707031 9.93929 L 5.082031 9.974446 L 6.070312 10.068196 L 6.691406 10.18929 L 6.984375 10.275228 L 7.019531 10.286946 L 7.050781 10.294759 L 7.285156 10.357259 L 7.703125 10.380696 L 8.21875 10.236165 L 8.734375 9.794759 L 9.175781 8.986165 L 9.519531 7.81429 L 9.777344 6.333821 L 9.988281 4.615071 L 10.171875 2.747884 L 10.320312 0.822103 L 10.402344 -1.052897 L 10.398438 -2.767741 L 10.320312 -4.232585 L 10.214844 -5.384929 L 10.128906 -6.213054 L 10.074219 -6.736491 L 10.054688 -6.986491 L 10.054688 -7.017741 L 10.050781 -7.048991 L 10.023438 -7.283366 L 9.921875 -7.701335 L 9.667969 -8.220866 L 9.1875 -8.756022 L 8.429688 -9.232585 L 7.375 -9.603679 L 6.03125 -9.861491 L 4.441406 -10.009929 L 2.660156 -10.068522 L 0.785156 -10.072429 L -1.066406 -10.045085 L -2.773438 -10.017741 L -4.234375 -10.002116 L -5.386719 -9.99821 L -6.214844 -10.006022 L -6.738281 -10.017741 L -6.988281 -10.025554 L -7.019531 -10.025554 " transform="matrix(1, 0, 0, 1, 114, 214.545085)"/>
<path fill-rule="evenodd" fill="rgb(100%, 100%, 100%)" fill-opacity="1" stroke-width="1" stroke-linecap="butt" stroke-linejoin="bevel" stroke="rgb(50.048876%, 50.048876%, 50.048876%)" stroke-opacity="1" stroke-miterlimit="10" d="M -11.777344 -15.429688 L -11.828125 -15.433594 L -12.210938 -15.441406 L -12.851562 -15.382813 L -13.570312 -15.121094 L -14.1875 -14.523438 L -14.613281 -13.476563 L -14.839844 -11.921875 L -14.925781 -9.847656 L -14.925781 -7.300781 L -14.878906 -4.394531 L -14.785156 -1.292969 L -14.636719 1.796875 L -14.433594 4.652344 L -14.203125 7.101562 L -13.984375 9.035156 L -13.808594 10.425781 L -13.695312 11.304687 L -13.640625 11.722656 L -13.632812 11.777344 L -13.625 11.835937 L -13.566406 12.296875 L -13.460938 13.117187 L -13.308594 14.121094 L -13.082031 15.078125 L -12.683594 15.78125 L -11.957031 16.136719 L -10.730469 16.195312 L -8.859375 16.082031 L -6.320312 15.941406 L -3.253906 15.847656 L 0.0742188 15.792969 L 3.332031 15.734375 L 6.214844 15.632812 L 8.523438 15.488281 L 10.183594 15.320312 L 11.222656 15.171875 L 11.714844 15.082031 L 11.777344 15.070312 L 11.835938 15.058594 L 12.296875 14.960937 L 13.121094 14.75 L 14.125 14.40625 L 15.089844 13.90625 L 15.808594 13.207031 L 16.171875 12.226562 L 16.21875 10.824219 L 16.074219 8.867187 L 15.878906 6.304687 L 15.730469 3.238281 L 15.65625 -0.0820313 L 15.621094 -3.335938 L 15.582031 -6.214844 L 15.503906 -8.523438 L 15.390625 -10.183594 L 15.277344 -11.222656 L 15.203125 -11.714844 L 15.195312 -11.777344 L 15.183594 -11.835938 L 15.097656 -12.296875 L 14.898438 -13.117188 L 14.554688 -14.121094 L 14.039062 -15.070313 L 13.3125 -15.757813 L 12.296875 -16.078125 L 10.867188 -16.0625 L 8.886719 -15.835938 L 6.3125 -15.542969 L 3.242188 -15.300781 L -0.0820312 -15.15625 L -3.335938 -15.113281 L -6.214844 -15.15625 L -8.523438 -15.238281 L -10.183594 -15.328125 L -11.222656 -15.394531 L -11.714844 -15.425781 L -11.777344 -15.429688 " transform="matrix(1, 0, 0, 1, 89, 185.5)"/>
<path fill-rule="evenodd" fill="rgb(100%, 100%, 100%)" fill-opacity="1" stroke-width="1" stroke-linecap="butt" stroke-linejoin="bevel" stroke="rgb(50.048876%, 50.048876%, 50.048876%)" stroke-opacity="1" stroke-miterlimit="10" d="M -32.203125 -14.640625 L -32.222656 -14.644531 L -32.363281 -14.683594 L -32.613281 -14.761719 L -32.921875 -14.847656 L -33.265625 -14.808594 L -33.621094 -14.445313 L -33.984375 -13.550781 L -34.335938 -11.96875 L -34.65625 -9.679688 L -34.9375 -6.777344 L -35.191406 -3.460938 L -35.417969 -0.000000000000028422 L -35.621094 3.3125 L -35.804688 6.210937 L -35.960938 8.523437 L -36.097656 10.183594 L -36.199219 11.222656 L -36.257812 11.714844 L -36.265625 11.777344 L -36.265625 11.789062 L -36.28125 11.902344 L -36.3125 12.117187 L -36.355469 12.429687 L -36.410156 12.820312 L -36.472656 13.265625 L -36.523438 13.742187 L -36.542969 14.21875 L -36.515625 14.664062 L -36.410156 15.050781 L -36.210938 15.355469 L -35.898438 15.566406 L -35.464844 15.675781 L -34.902344 15.695312 L -34.21875 15.628906 L -33.40625 15.5 L -32.476562 15.332031 L -31.429688 15.148437 L -30.261719 14.972656 L -28.960938 14.8125 L -27.523438 14.691406 L -25.9375 14.609375 L -24.195312 14.566406 L -22.289062 14.5625 L -20.222656 14.589844 L -17.992188 14.640625 L -15.613281 14.703125 L -13.097656 14.769531 L -10.472656 14.832031 L -7.753906 14.882812 L -4.96875 14.917969 L -2.15625 14.929687 L 0.664062 14.921875 L 3.460938 14.890625 L 6.203125 14.84375 L 8.863281 14.785156 L 11.421875 14.726562 L 13.851562 14.667969 L 16.140625 14.628906 L 18.273438 14.605469 L 20.238281 14.613281 L 22.027344 14.652344 L 23.644531 14.71875 L 25.085938 14.808594 L 26.359375 14.917969 L 27.464844 15.039062 L 28.421875 15.152344 L 29.230469 15.253906 L 29.914062 15.332031 L 30.476562 15.378906 L 30.933594 15.390625 L 31.300781 15.367187 L 31.589844 15.308594 L 31.8125 15.230469 L 31.976562 15.140625 L 32.089844 15.058594 L 32.164062 14.992187 L 32.199219 14.957031 L 32.203125 14.949219 L 32.21875 14.933594 L 32.347656 14.796875 L 32.585938 14.519531 L 32.90625 14.082031 L 33.261719 13.429687 L 33.605469 12.484375 L 33.894531 11.140625 L 34.121094 9.316406 L 34.289062 6.992187 L 34.410156 4.242187 L 34.496094 1.230469 L 34.539062 -1.816406 L 34.527344 -4.65625 L 34.472656 -7.101563 L 34.386719 -9.035156 L 34.300781 -10.425781 L 34.234375 -11.304688 L 34.199219 -11.722656 L 34.195312 -11.777344 L 34.195312 -11.789063 L 34.1875 -11.894531 L 34.164062 -12.089844 L 34.128906 -12.367188 L 34.074219 -12.699219 L 33.996094 -13.058594 L 33.886719 -13.421875 L 33.742188 -13.757813 L 33.558594 -14.050781 L 33.324219 -14.285156 L 33.035156 -14.453125 L 32.683594 -14.566406 L 32.257812 -14.625 L 31.75 -14.644531 L 31.144531 -14.644531 L 30.425781 -14.636719 L 29.585938 -14.632813 L 28.605469 -14.644531 L 27.476562 -14.671875 L 26.183594 -14.714844 L 24.726562 -14.769531 L 23.097656 -14.832031 L 21.296875 -14.894531 L 19.335938 -14.953125 L 17.214844 -14.996094 L 14.949219 -15.023438 L 12.558594 -15.039063 L 10.0625 -15.035156 L 7.480469 -15.023438 L 4.839844 -15 L 2.164062 -14.976563 L -0.523438 -14.957031 L -3.191406 -14.941406 L -5.816406 -14.933594 L -8.375 -14.9375 L -10.84375 -14.949219 L -13.207031 -14.964844 L -15.445312 -14.980469 L -17.542969 -14.988281 L -19.492188 -14.988281 L -21.285156 -14.976563 L -22.914062 -14.949219 L -24.386719 -14.910156 L -25.695312 -14.859375 L -26.851562 -14.804688 L -27.859375 -14.746094 L -28.730469 -14.691406 L -29.46875 -14.644531 L -30.089844 -14.605469 L -30.605469 -14.582031 L -31.027344 -14.566406 L -31.363281 -14.566406 L -31.632812 -14.574219 L -31.835938 -14.585938 L -31.988281 -14.605469 L -32.097656 -14.621094 L -32.167969 -14.632813 L -32.199219 -14.640625 L -32.203125 -14.640625 " transform="matrix(1, 0, 0, 1, 39, 140.5)"/>
<path fill-rule="evenodd" fill="rgb(100%, 100%, 100%)" fill-opacity="1" stroke-width="1" stroke-linecap="butt" stroke-linejoin="bevel" stroke="rgb(50.048876%, 50.048876%, 50.048876%)" stroke-opacity="1" stroke-miterlimit="10" d="M -12.230469 -9.404786 L -12.246094 -9.381349 L -12.367188 -9.193849 L -12.578125 -8.748536 L -12.84375 -8.029786 L -13.128906 -7.135255 L -13.417969 -6.260255 L -13.703125 -5.541505 L -13.976562 -4.916505 L -14.21875 -4.18213 L -14.414062 -3.111817 L -14.566406 -1.627442 L -14.667969 0.16162 L -14.726562 2.017089 L -14.734375 3.712401 L -14.683594 5.083495 L -14.582031 6.071776 L -14.472656 6.69287 L -14.402344 6.985839 L -14.394531 7.020995 L -14.390625 7.03662 L -14.355469 7.145995 L -14.289062 7.353026 L -14.175781 7.642089 L -14.011719 7.989745 L -13.800781 8.360839 L -13.542969 8.720214 L -13.257812 9.040526 L -12.949219 9.294433 L -12.621094 9.47412 L -12.265625 9.587401 L -11.867188 9.642089 L -11.390625 9.665526 L -10.808594 9.677245 L -10.089844 9.69287 L -9.210938 9.720214 L -8.160156 9.767089 L -6.945312 9.829589 L -5.574219 9.899901 L -4.082031 9.97412 L -2.5 10.044433 L -0.871094 10.110839 L 0.761719 10.169433 L 2.363281 10.220214 L 3.890625 10.263183 L 5.316406 10.294433 L 6.613281 10.31787 L 7.765625 10.337401 L 8.769531 10.356933 L 9.617188 10.376464 L 10.316406 10.395995 L 10.882812 10.407714 L 11.324219 10.407714 L 11.65625 10.384276 L 11.902344 10.345214 L 12.070312 10.298339 L 12.171875 10.25537 L 12.222656 10.228026 L 12.230469 10.22412 L 12.242188 10.216308 L 12.355469 10.145995 L 12.582031 9.97412 L 12.925781 9.649901 L 13.347656 9.118651 L 13.800781 8.341308 L 14.210938 7.290526 L 14.539062 5.970214 L 14.769531 4.399901 L 14.921875 2.642089 L 15.035156 0.778808 L 15.136719 -1.068849 L 15.238281 -2.771974 L 15.339844 -4.232911 L 15.433594 -5.385255 L 15.511719 -6.21338 L 15.566406 -6.736817 L 15.59375 -6.986817 L 15.597656 -7.018067 L 15.601562 -7.033692 L 15.609375 -7.131349 L 15.613281 -7.322755 L 15.585938 -7.592286 L 15.5 -7.916505 L 15.328125 -8.268067 L 15.054688 -8.627442 L 14.671875 -8.96338 L 14.179688 -9.256349 L 13.585938 -9.502442 L 12.902344 -9.697755 L 12.128906 -9.850099 L 11.269531 -9.96338 L 10.320312 -10.045411 L 9.277344 -10.096192 L 8.128906 -10.11963 L 6.882812 -10.111817 L 5.535156 -10.072755 L 4.101562 -10.006349 L 2.605469 -9.916505 L 1.074219 -9.814942 L -0.46875 -9.717286 L -1.984375 -9.631349 L -3.445312 -9.564942 L -4.824219 -9.529786 L -6.097656 -9.533692 L -7.25 -9.572755 L -8.269531 -9.639161 L -9.15625 -9.725099 L -9.902344 -9.80713 L -10.519531 -9.86963 L -11.019531 -9.893067 L -11.414062 -9.865724 L -11.710938 -9.791505 L -11.929688 -9.68213 L -12.082031 -9.564942 L -12.179688 -9.467286 L -12.222656 -9.412599 L -12.230469 -9.404786 " transform="matrix(1, 0, 0, 1, 119, 242.635255)"/>
<path fill-rule="evenodd" fill="rgb(100%, 100%, 100%)" fill-opacity="1" stroke-width="1" stroke-linecap="butt" stroke-linejoin="bevel" stroke="rgb(50.048876%, 50.048876%, 50.048876%)" stroke-opacity="1" stroke-miterlimit="10" d="M -17.296875 -5.310384 L -17.3125 -5.337728 L -17.402344 -5.583821 L -17.558594 -6.076009 L -17.742188 -6.618978 L -17.96875 -6.78304 L -18.28125 -6.173665 L -18.699219 -4.78304 L -19.171875 -3.013509 L -19.5625 -1.337728 L -19.761719 -0.0252275 L -19.777344 0.916179 L -19.703125 1.564616 L -19.644531 1.974772 L -19.621094 2.173991 L -19.621094 2.232585 L -19.617188 2.291179 L -19.617188 2.486491 L -19.621094 2.615397 L -19.621094 2.763835 L -19.613281 2.923991 L -19.589844 3.09196 L -19.535156 3.267741 L -19.445312 3.443522 L -19.308594 3.615397 L -19.117188 3.787272 L -18.871094 3.959147 L -18.566406 4.119304 L -18.207031 4.275554 L -17.789062 4.420085 L -17.324219 4.552897 L -16.800781 4.673991 L -16.222656 4.775554 L -15.589844 4.861491 L -14.886719 4.927897 L -14.121094 4.974772 L -13.277344 5.006022 L -12.359375 5.025554 L -11.363281 5.033366 L -10.285156 5.037272 L 1.695312 5.037272 L 3.078125 5.041179 L 4.425781 5.045085 L 5.722656 5.056804 L 6.96875 5.072429 L 8.148438 5.09196 L 9.257812 5.115397 L 10.289062 5.138835 L 11.242188 5.166179 L 12.113281 5.189616 L 12.902344 5.21696 L 13.605469 5.240397 L 14.234375 5.263835 L 14.785156 5.283366 L 15.261719 5.295085 L 15.671875 5.295085 L 16.019531 5.287272 L 16.3125 5.259929 L 16.550781 5.21696 L 16.75 5.158366 L 16.90625 5.088054 L 17.03125 5.006022 L 17.128906 4.923991 L 17.199219 4.845866 L 17.25 4.775554 L 17.28125 4.728679 L 17.296875 4.701335 L 17.296875 4.697429 L 17.3125 4.677897 L 17.402344 4.486491 L 17.566406 4.06071 L 17.800781 3.416179 L 18.128906 2.697429 L 18.566406 2.064616 L 19.042969 1.556804 L 19.421875 1.068522 L 19.613281 0.470866 L 19.621094 -0.243978 L 19.5625 -0.97054 L 19.542969 -1.572103 L 19.589844 -1.978353 L 19.648438 -2.177571 L 19.65625 -2.201009 L 19.660156 -2.204915 L 19.667969 -2.232259 L 19.683594 -2.290853 L 19.699219 -2.372884 L 19.699219 -2.486165 L 19.675781 -2.622884 L 19.621094 -2.786946 L 19.523438 -2.97054 L 19.378906 -3.165853 L 19.1875 -3.372884 L 18.945312 -3.583821 L 18.664062 -3.786946 L 18.339844 -3.974446 L 17.976562 -4.146321 L 17.582031 -4.298665 L 17.148438 -4.423665 L 16.675781 -4.521321 L 16.160156 -4.599446 L 15.597656 -4.65804 L 14.980469 -4.704915 L 14.300781 -4.740071 L 13.554688 -4.771321 L 12.738281 -4.794759 L 11.851562 -4.818196 L 10.886719 -4.841634 L 9.851562 -4.857259 L 8.75 -4.872884 L 7.582031 -4.880696 L 6.363281 -4.884603 L 5.09375 -4.880696 L 3.789062 -4.872884 L 2.457031 -4.865071 L 1.109375 -4.857259 L -0.242188 -4.84554 L -1.585938 -4.833821 L -2.910156 -4.822103 L -4.207031 -4.806478 L -5.460938 -4.786946 L -6.667969 -4.755696 L -7.820312 -4.716634 L -8.910156 -4.665853 L -9.929688 -4.607259 L -10.875 -4.544759 L -11.75 -4.478353 L -12.542969 -4.415853 L -13.265625 -4.357259 L -13.910156 -4.31429 L -14.480469 -4.286946 L -14.984375 -4.275228 L -15.421875 -4.286946 L -15.796875 -4.318196 L -16.113281 -4.372884 L -16.382812 -4.451009 L -16.605469 -4.544759 L -16.785156 -4.654134 L -16.933594 -4.771321 L -17.046875 -4.892415 L -17.136719 -5.013509 L -17.203125 -5.118978 L -17.25 -5.208821 L -17.28125 -5.271321 L -17.296875 -5.306478 L -17.296875 -5.310384 " transform="matrix(1, 0, 0, 1, 144, 171.454915)"/>
<path fill-rule="evenodd" fill="rgb(100%, 100%, 100%)" fill-opacity="1" stroke-width="1" stroke-linecap="butt" stroke-linejoin="bevel" stroke="rgb(50.048876%, 50.048876%, 50.048876%)" stroke-opacity="1" stroke-miterlimit="10" d="M -7.019531 -15.187174 L -7.035156 -15.187174 L -7.144531 -15.198893 L -7.351562 -15.22233 L -7.644531 -15.249674 L -8 -15.280924 L -8.394531 -15.292643 L -8.800781 -15.257486 L -9.195312 -15.144205 L -9.550781 -14.925455 L -9.859375 -14.581705 L -10.101562 -14.09733 L -10.273438 -13.476236 L -10.371094 -12.72233 L -10.402344 -11.843424 L -10.367188 -10.843424 L -10.289062 -9.72233 L -10.171875 -8.487955 L -10.042969 -7.136393 L -9.910156 -5.683268 L -9.792969 -4.136393 L -9.695312 -2.527018 L -9.628906 -0.882486 L -9.597656 0.758139 L -9.597656 2.363607 L -9.625 3.890951 L -9.664062 5.316732 L -9.710938 6.613607 L -9.742188 7.765951 L -9.75 8.769857 L -9.734375 9.617514 L -9.691406 10.316732 L -9.636719 10.883139 L -9.585938 11.324545 L -9.546875 11.656576 L -9.53125 11.90267 L -9.53125 12.070639 L -9.539062 12.172201 L -9.550781 12.222982 L -9.550781 12.230795 L -9.554688 12.24642 L -9.589844 12.367514 L -9.683594 12.582357 L -9.828125 12.859701 L -9.898438 13.18392 L -9.714844 13.551107 L -9.089844 13.941732 L -7.941406 14.324545 L -6.316406 14.664389 L -4.347656 14.945639 L -2.203125 15.164389 L -0.046875 15.320639 L 1.960938 15.414389 L 3.703125 15.430014 L 5.082031 15.387045 L 6.070312 15.30892 L 6.691406 15.234701 L 6.984375 15.191732 L 7.019531 15.18392 L 7.035156 15.18392 L 7.132812 15.164389 L 7.320312 15.12142 L 7.585938 15.039389 L 7.902344 14.906576 L 8.246094 14.707357 L 8.597656 14.43392 L 8.933594 14.078451 L 9.234375 13.644857 L 9.496094 13.125326 L 9.710938 12.52767 L 9.878906 11.84017 L 10 11.05892 L 10.078125 10.176107 L 10.125 9.18392 L 10.144531 8.070639 L 10.144531 4.094076 L 10.164062 2.601889 L 10.199219 1.070639 L 10.253906 -0.468424 L 10.320312 -1.984049 L 10.394531 -3.444986 L 10.464844 -4.823893 L 10.519531 -6.09733 L 10.5625 -7.249674 L 10.589844 -8.269205 L 10.613281 -9.155924 L 10.644531 -9.902018 L 10.6875 -10.519205 L 10.746094 -11.019205 L 10.820312 -11.413736 L 10.898438 -11.710611 L 10.972656 -11.929361 L 11.039062 -12.081705 L 11.085938 -12.179361 L 11.109375 -12.22233 L 11.113281 -12.230143 L 11.121094 -12.241861 L 11.15625 -12.351236 L 11.132812 -12.573893 L 10.90625 -12.898111 L 10.351562 -13.308268 L 9.410156 -13.757486 L 8.109375 -14.194986 L 6.515625 -14.558268 L 4.714844 -14.819986 L 2.792969 -14.968424 L 0.839844 -15.027018 L -1.050781 -15.038736 L -2.769531 -15.042643 L -4.234375 -15.054361 L -5.386719 -15.085611 L -6.214844 -15.124674 L -6.738281 -15.163736 L -6.988281 -15.183268 L -7.019531 -15.187174 " transform="matrix(1, 0, 0, 1, 94, 112.40983)"/>
</svg>
