<?xml version="1.0" encoding="UTF-8"?>
<svg xmlns="http://www.w3.org/2000/svg" xmlns:xlink="http://www.w3.org/1999/xlink" width="168.472136pt" height="280.832816pt" viewBox="0 0 168.472136 280.832816" version="1.1">
<g id="surface4875">
<path style="fill-rule:evenodd;fill:rgb(100%,100%,100%);fill-opacity:1;stroke-width:1;stroke-linecap:butt;stroke-linejoin:bevel;stroke:rgb(50.048876%,50.048876%,50.048876%);stroke-opacity:1;stroke-miterlimit:10;" d="M -2.199219 -49.937174 L -2.203125 -49.937174 L -2.210938 -49.94108 L -2.234375 -49.948893 L -2.265625 -49.960611 L -2.308594 -49.97233 L -2.363281 -49.980143 L -2.425781 -49.987955 L -2.503906 -49.984049 L -2.589844 -49.97233 L -2.6875 -49.944986 L -2.796875 -49.905924 L -2.914062 -49.851236 L -3.042969 -49.780924 L -3.175781 -49.69108 L -3.316406 -49.585611 L -3.457031 -49.464518 L -3.601562 -49.327799 L -3.746094 -49.175455 L -3.882812 -49.011393 L -4.019531 -48.839518 L -4.144531 -48.655924 L -4.261719 -48.468424 L -4.371094 -48.277018 L -4.46875 -48.077799 L -4.550781 -47.874674 L -4.621094 -47.667643 L -4.683594 -47.460611 L -4.730469 -47.245768 L -4.765625 -47.027018 L -4.792969 -46.800455 L -4.808594 -46.56608 L -4.816406 -46.323893 L -4.820312 -46.069986 L -4.816406 -45.800455 L -4.808594 -45.515299 L -4.796875 -45.214518 L -4.785156 -44.894205 L -4.773438 -44.550455 L -4.761719 -44.183268 L -4.75 -43.792643 L -4.746094 -43.374674 L -4.742188 -42.929361 L -4.742188 -42.456705 L -4.75 -41.952799 L -4.757812 -41.417643 L -4.773438 -40.84733 L -4.789062 -40.245768 L -4.808594 -39.612955 L -4.832031 -38.94108 L -4.859375 -38.237955 L -4.886719 -37.499674 L -4.914062 -36.726236 L -4.941406 -35.917643 L -4.972656 -35.069986 L -5 -34.19108 L -5.027344 -33.273111 L -5.054688 -32.323893 L -5.078125 -31.339518 L -5.101562 -30.319986 L -5.125 -29.265299 L -5.148438 -28.179361 L -5.164062 -27.062174 L -5.183594 -25.913736 L -5.195312 -24.734049 L -5.203125 -23.527018 L -5.210938 -22.288736 L -5.210938 -21.027018 L -5.207031 -19.737955 L -5.199219 -18.425455 L -5.1875 -17.089518 L -5.167969 -15.734049 L -5.148438 -14.359049 L -5.125 -12.964518 L -5.097656 -11.554361 L -5.074219 -10.132486 L -5.046875 -8.694986 L -5.023438 -7.249674 L -5.003906 -5.796549 L -4.984375 -4.335611 L -4.96875 -2.866861 L -4.957031 -1.398111 L -4.949219 0.0706387 L -4.945312 1.535482 L -4.945312 3.000326 L -4.949219 4.461264 L -4.953125 5.914389 L -4.960938 7.355795 L -4.96875 8.785482 L -4.980469 10.207357 L -4.988281 11.609701 L -5 13.000326 L -5.011719 14.367514 L -5.019531 15.719076 L -5.03125 17.051107 L -5.039062 18.355795 L -5.050781 19.640951 L -5.058594 20.898764 L -5.066406 22.129232 L -5.070312 23.332357 L -5.078125 24.508139 L -5.082031 25.65267 L -5.082031 28.90267 L -5.078125 29.922201 L -5.070312 30.910482 L -5.0625 31.863607 L -5.050781 32.781576 L -5.035156 33.668295 L -5.019531 34.519857 L -5 35.34017 L -4.980469 36.12142 L -4.957031 36.875326 L -4.9375 37.59017 L -4.914062 38.27767 L -4.890625 38.926107 L -4.867188 39.547201 L -4.84375 40.133139 L -4.824219 40.691732 L -4.808594 41.219076 L -4.792969 41.71517 L -4.78125 42.180014 L -4.773438 42.62142 L -4.769531 43.031576 L -4.765625 43.418295 L -4.769531 43.77767 L -4.773438 44.113607 L -4.78125 44.426107 L -4.792969 44.71517 L -4.808594 44.980795 L -4.832031 45.226889 L -4.855469 45.457357 L -4.886719 45.664389 L -4.917969 45.855795 L -4.960938 46.02767 L -5.003906 46.187826 L -5.058594 46.328451 L -5.117188 46.461264 L -5.179688 46.574545 L -5.25 46.680014 L -5.324219 46.773764 L -5.402344 46.859701 L -5.484375 46.93392 L -5.566406 46.99642 L -5.652344 47.055014 L -5.734375 47.105795 L -5.816406 47.148764 L -5.898438 47.187826 L -5.972656 47.219076 L -6.042969 47.250326 L -6.105469 47.273764 L -6.164062 47.293295 L -6.214844 47.30892 L -6.257812 47.320639 L -6.289062 47.332357 L -6.316406 47.34017 L -6.335938 47.344076 L -6.34375 47.344076 L -6.359375 47.351889 L -6.445312 47.40267 L -6.429688 47.55892 L -6.070312 47.875326 L -5.257812 48.332357 L -4.085938 48.844076 L -2.765625 49.316732 L -1.503906 49.68392 L -0.417969 49.949545 L 0.46875 50.140951 L 1.164062 50.281576 L 1.679688 50.379232 L 2.015625 50.430014 L 2.179688 50.449545 L 2.203125 50.449545 L 2.210938 50.453451 L 2.234375 50.453451 L 2.265625 50.457357 L 2.308594 50.461264 L 2.359375 50.461264 L 2.417969 50.46517 L 2.488281 50.461264 L 2.5625 50.457357 L 2.648438 50.449545 L 2.738281 50.43392 L 2.832031 50.410482 L 2.933594 50.379232 L 3.035156 50.332357 L 3.140625 50.273764 L 3.25 50.199545 L 3.359375 50.113607 L 3.464844 50.008139 L 3.570312 49.887045 L 3.675781 49.74642 L 3.773438 49.594076 L 3.871094 49.426107 L 3.960938 49.24642 L 4.046875 49.055014 L 4.125 48.851889 L 4.199219 48.640951 L 4.269531 48.422201 L 4.332031 48.199545 L 4.394531 47.969076 L 4.445312 47.730795 L 4.496094 47.488607 L 4.542969 47.242514 L 4.585938 46.984701 L 4.625 46.722982 L 4.664062 46.445639 L 4.695312 46.160482 L 4.726562 45.859701 L 4.757812 45.543295 L 4.78125 45.207357 L 4.804688 44.851889 L 4.824219 44.472982 L 4.84375 44.070639 L 4.859375 43.640951 L 4.875 43.180014 L 4.886719 42.691732 L 4.894531 42.172201 L 4.902344 41.617514 L 4.910156 41.031576 L 4.914062 40.406576 L 4.921875 39.750326 L 4.925781 39.055014 L 4.925781 38.324545 L 4.929688 37.555014 L 4.933594 36.750326 L 4.933594 35.906576 L 4.9375 35.023764 L 4.9375 30.066732 L 4.933594 28.969076 L 4.929688 27.836264 L 4.925781 26.672201 L 4.921875 25.472982 L 4.917969 24.24642 L 4.917969 22.984701 L 4.914062 21.699545 L 4.914062 20.387045 L 4.917969 19.047201 L 4.921875 17.68392 L 4.929688 16.301107 L 4.941406 14.894857 L 4.957031 13.469076 L 4.980469 12.02767 L 5.003906 10.574545 L 5.027344 9.105795 L 5.054688 7.625326 L 5.085938 6.137045 L 5.113281 4.644857 L 5.140625 3.144857 L 5.164062 1.644857 L 5.183594 0.140951 L 5.199219 -1.359049 L 5.210938 -2.855143 L 5.21875 -4.34733 L 5.21875 -5.831705 L 5.214844 -7.304361 L 5.210938 -8.765299 L 5.199219 -10.214518 L 5.1875 -11.644205 L 5.175781 -13.058268 L 5.164062 -14.456705 L 5.152344 -15.827799 L 5.144531 -17.183268 L 5.132812 -18.511393 L 5.128906 -19.812174 L 5.121094 -21.089518 L 5.117188 -22.339518 L 5.113281 -23.558268 L 5.105469 -24.745768 L 5.101562 -25.905924 L 5.089844 -27.030924 L 5.078125 -28.124674 L 5.0625 -29.187174 L 5.042969 -30.214518 L 5.019531 -31.206705 L 4.992188 -32.163736 L 4.960938 -33.085611 L 4.929688 -33.976236 L 4.898438 -34.827799 L 4.867188 -35.644205 L 4.835938 -36.429361 L 4.808594 -37.175455 L 4.785156 -37.890299 L 4.769531 -38.569986 L 4.753906 -39.214518 L 4.746094 -39.827799 L 4.746094 -40.40983 L 4.75 -40.960611 L 4.757812 -41.476236 L 4.769531 -41.964518 L 4.789062 -42.425455 L 4.808594 -42.855143 L 4.832031 -43.257486 L 4.855469 -43.632486 L 4.878906 -43.984049 L 4.902344 -44.308268 L 4.925781 -44.609049 L 4.949219 -44.886393 L 4.96875 -45.144205 L 4.984375 -45.382486 L 5 -45.59733 L 5.015625 -45.796549 L 5.03125 -45.980143 L 5.046875 -46.144205 L 5.0625 -46.292643 L 5.085938 -46.425455 L 5.113281 -46.546549 L 5.144531 -46.655924 L 5.183594 -46.75358 L 5.230469 -46.839518 L 5.289062 -46.917643 L 5.359375 -46.987955 L 5.433594 -47.046549 L 5.519531 -47.09733 L 5.613281 -47.144205 L 5.710938 -47.183268 L 5.914062 -47.245768 L 6.011719 -47.269205 L 6.105469 -47.288736 L 6.191406 -47.304361 L 6.269531 -47.319986 L 6.332031 -47.331705 L 6.382812 -47.335611 L 6.417969 -47.343424 L 6.4375 -47.343424 L 6.46875 -47.351236 L 6.667969 -47.398111 L 6.800781 -47.546549 L 6.542969 -47.84733 L 5.730469 -48.300455 L 4.464844 -48.827799 L 3.007812 -49.304361 L 1.625 -49.624674 L 0.464844 -49.765299 L -0.457031 -49.78483 L -1.164062 -49.773111 L -1.679688 -49.800455 L -2.015625 -49.870768 L -2.179688 -49.929361 L -2.199219 -49.937174 " transform="matrix(1,0,0,1,79,112.40983)"/>
<path style="fill-rule:evenodd;fill:rgb(100%,100%,100%);fill-opacity:1;stroke-width:1;stroke-linecap:butt;stroke-linejoin:bevel;stroke:rgb(50.048876%,50.048876%,50.048876%);stroke-opacity:1;stroke-miterlimit:10;" d="M -11.777344 -24.344402 L -11.796875 -24.340496 L -11.960938 -24.297527 L -12.265625 -24.21159 L -12.675781 -24.082684 L -13.132812 -23.910809 L -13.585938 -23.692059 L -13.996094 -23.410809 L -14.328125 -23.059246 L -14.570312 -22.610027 L -14.726562 -22.043621 L -14.820312 -21.320965 L -14.863281 -20.410809 L -14.882812 -19.281902 L -14.894531 -17.914715 L -14.90625 -16.289715 L -14.910156 -14.402996 L -14.910156 -12.270184 L -14.902344 -9.914715 L -14.882812 -7.371746 L -14.859375 -4.692059 L -14.839844 -1.93034 L -14.835938 0.847004 L -14.851562 3.585285 L -14.890625 6.22591 L -14.953125 8.718098 L -15.023438 11.022785 L -15.09375 13.104816 L -15.144531 14.948566 L -15.164062 16.546223 L -15.140625 17.897785 L -15.074219 19.018879 L -14.96875 19.921223 L -14.835938 20.628254 L -14.6875 21.167316 L -14.546875 21.565754 L -14.429688 21.839191 L -14.339844 22.011066 L -14.296875 22.097004 L -14.289062 22.104816 L -14.273438 22.136066 L -14.136719 22.35091 L -13.851562 22.733723 L -13.414062 23.206379 L -12.855469 23.702473 L -12.183594 24.171223 L -11.332031 24.573566 L -10.140625 24.878254 L -8.417969 25.050129 L -6.058594 25.085285 L -3.128906 25.011066 L 0.121094 24.897785 L 3.34375 24.796223 L 6.21875 24.764973 L 8.523438 24.811848 L 10.183594 24.921223 L 11.222656 25.03841 L 11.714844 25.116535 L 11.777344 25.128254 L 11.796875 25.13216 L 11.960938 25.159504 L 12.273438 25.19466 L 12.691406 25.214191 L 13.171875 25.171223 L 13.664062 25.03841 L 14.121094 24.784504 L 14.515625 24.38216 L 14.824219 23.815754 L 15.042969 23.085285 L 15.175781 22.171223 L 15.234375 21.06966 L 15.234375 19.764973 L 15.191406 18.249348 L 15.117188 16.50716 L 15.027344 14.53841 L 14.929688 12.347004 L 14.835938 9.956379 L 14.75 7.389973 L 14.679688 4.698566 L 14.625 1.932941 L 14.585938 -0.848309 L 14.570312 -3.58659 L 14.574219 -6.227215 L 14.597656 -8.719402 L 14.640625 -11.02409 L 14.699219 -13.106121 L 14.769531 -14.949871 L 14.84375 -16.547527 L 14.90625 -17.89909 L 14.953125 -19.020184 L 14.976562 -19.922527 L 14.972656 -20.629559 L 14.945312 -21.168621 L 14.90625 -21.567059 L 14.859375 -21.840496 L 14.824219 -22.012371 L 14.800781 -22.098309 L 14.796875 -22.106121 L 14.792969 -22.133465 L 14.730469 -22.317059 L 14.570312 -22.645184 L 14.246094 -23.043621 L 13.667969 -23.438152 L 12.734375 -23.789715 L 11.355469 -24.074871 L 9.472656 -24.313152 L 7.085938 -24.512371 L 4.289062 -24.688152 L 1.25 -24.832684 L -1.808594 -24.934246 L -4.65625 -24.96159 L -7.101562 -24.910809 L -9.035156 -24.781902 L -10.425781 -24.613934 L -11.304688 -24.457684 L -11.722656 -24.360027 L -11.777344 -24.344402 " transform="matrix(1,0,0,1,89,251.68034)"/>
<path style="fill-rule:evenodd;fill:rgb(100%,100%,100%);fill-opacity:1;stroke-width:1;stroke-linecap:butt;stroke-linejoin:bevel;stroke:rgb(50.048876%,50.048876%,50.048876%);stroke-opacity:1;stroke-miterlimit:10;" d="M -7.019531 -25.048665 L -7.027344 -25.052571 L -7.09375 -25.060384 L -7.222656 -25.072103 L -7.410156 -25.099446 L -7.644531 -25.130696 L -7.914062 -25.165853 L -8.210938 -25.197103 L -8.511719 -25.212728 L -8.808594 -25.197103 L -9.09375 -25.130696 L -9.351562 -24.997884 L -9.582031 -24.790853 L -9.777344 -24.497884 L -9.945312 -24.118978 L -10.078125 -23.650228 L -10.1875 -23.091634 L -10.269531 -22.454915 L -10.328125 -21.732259 L -10.363281 -20.923665 L -10.378906 -20.025228 L -10.378906 -19.029134 L -10.363281 -17.931478 L -10.332031 -16.728353 L -10.289062 -15.411946 L -10.242188 -13.978353 L -10.199219 -12.43929 L -10.160156 -10.794759 L -10.128906 -9.056478 L -10.117188 -7.240071 L -10.113281 -5.361165 L -10.125 -3.43929 L -10.140625 -1.490071 L -10.152344 0.459147 L -10.152344 2.388835 L -10.140625 4.283366 L -10.105469 6.12321 L -10.054688 7.892741 L -9.988281 9.572429 L -9.914062 11.15446 L -9.839844 12.627116 L -9.773438 13.986491 L -9.714844 15.224772 L -9.667969 16.34196 L -9.632812 17.338054 L -9.601562 18.21696 L -9.578125 18.982585 L -9.550781 19.642741 L -9.519531 20.201335 L -9.484375 20.673991 L -9.445312 21.06071 L -9.398438 21.381022 L -9.351562 21.634929 L -9.300781 21.834147 L -9.25 21.986491 L -9.207031 22.099772 L -9.167969 22.177897 L -9.140625 22.228679 L -9.128906 22.256022 L -9.125 22.256022 L -9.117188 22.267741 L -9.0625 22.361491 L -8.929688 22.556804 L -8.6875 22.857585 L -8.292969 23.236491 L -7.691406 23.642741 L -6.832031 24.025554 L -5.679688 24.353679 L -4.242188 24.62321 L -2.566406 24.84196 L -0.746094 25.009929 L 1.078125 25.115397 L 2.777344 25.166179 L 4.234375 25.177897 L 5.386719 25.181804 L 6.214844 25.209147 L 6.738281 25.252116 L 6.988281 25.287272 L 7.019531 25.295085 L 7.027344 25.295085 L 7.09375 25.306804 L 7.226562 25.334147 L 7.410156 25.377116 L 7.644531 25.439616 L 7.917969 25.513835 L 8.210938 25.595866 L 8.515625 25.666179 L 8.8125 25.701335 L 9.09375 25.681804 L 9.34375 25.580241 L 9.558594 25.384929 L 9.734375 25.084147 L 9.871094 24.673991 L 9.96875 24.15446 L 10.039062 23.537272 L 10.085938 22.830241 L 10.121094 22.033366 L 10.144531 21.158366 L 10.164062 20.201335 L 10.183594 19.158366 L 10.203125 18.021647 L 10.222656 16.787272 L 10.234375 15.447429 L 10.242188 14.002116 L 10.242188 12.451335 L 10.230469 10.798991 L 10.214844 9.056804 L 10.195312 7.236491 L 10.171875 5.357585 L 10.152344 3.43571 L 10.121094 -0.462728 L 10.109375 -2.392415 L 10.089844 -4.286946 L 10.070312 -6.12679 L 10.046875 -7.896321 L 10.019531 -9.576009 L 9.992188 -11.15804 L 9.96875 -12.630696 L 9.949219 -13.990071 L 9.933594 -15.228353 L 9.921875 -16.34554 L 9.914062 -17.341634 L 9.910156 -18.22054 L 9.902344 -18.986165 L 9.894531 -19.646321 L 9.890625 -20.204915 L 9.890625 -20.677571 L 9.902344 -21.06429 L 9.925781 -21.384603 L 9.96875 -21.638509 L 10.023438 -21.837728 L 10.09375 -21.990071 L 10.164062 -22.103353 L 10.230469 -22.181478 L 10.308594 -22.259603 L 10.3125 -22.259603 L 10.328125 -22.275228 L 10.464844 -22.372884 L 10.765625 -22.544759 L 11.183594 -22.763509 L 11.511719 -23.009603 L 11.4375 -23.28304 L 10.691406 -23.579915 L 9.21875 -23.888509 L 7.175781 -24.18929 L 4.828125 -24.451009 L 2.421875 -24.661946 L 0.125 -24.806478 L -1.941406 -24.888509 L -3.699219 -24.931478 L -5.082031 -24.958821 L -6.070312 -24.986165 L -6.691406 -25.021321 L -6.984375 -25.048665 L -7.019531 -25.048665 " transform="matrix(1,0,0,1,114,171.454915)"/>
<path style="fill-rule:evenodd;fill:rgb(100%,100%,100%);fill-opacity:1;stroke-width:1;stroke-linecap:butt;stroke-linejoin:bevel;stroke:rgb(50.048876%,50.048876%,50.048876%);stroke-opacity:1;stroke-miterlimit:10;" d="M -2.199219 -25.120441 L -2.203125 -25.124348 L -2.226562 -25.13216 L -2.269531 -25.147785 L -2.339844 -25.16341 L -2.433594 -25.175129 L -2.558594 -25.167316 L -2.707031 -25.13216 L -2.878906 -25.06966 L -3.078125 -24.964191 L -3.292969 -24.81966 L -3.523438 -24.636066 L -3.757812 -24.409504 L -3.992188 -24.147785 L -4.21875 -23.85091 L -4.425781 -23.530598 L -4.613281 -23.182941 L -4.777344 -22.815754 L -4.914062 -22.425129 L -5.023438 -22.014973 L -5.105469 -21.577473 L -5.164062 -21.112629 L -5.203125 -20.616535 L -5.222656 -20.077473 L -5.230469 -19.495441 L -5.222656 -18.862629 L -5.210938 -18.171223 L -5.191406 -17.425129 L -5.167969 -16.616535 L -5.140625 -15.745441 L -5.105469 -14.807941 L -5.066406 -13.811848 L -5.027344 -12.749348 L -4.980469 -11.63216 L -4.9375 -10.460285 L -4.890625 -9.237629 L -4.84375 -7.972004 L -4.804688 -6.667316 L -4.769531 -5.331379 L -4.746094 -3.968098 L -4.730469 -2.589191 L -4.722656 -1.202473 L -4.726562 0.192059 L -4.734375 1.578777 L -4.75 2.949871 L -4.765625 4.30534 L -4.785156 5.633465 L -4.800781 6.926434 L -4.816406 8.184246 L -4.828125 9.395184 L -4.839844 10.55534 L -4.851562 11.664715 L -4.859375 12.715496 L -4.867188 13.71159 L -4.878906 14.641277 L -4.890625 15.508465 L -4.902344 16.313152 L -4.910156 17.05534 L -4.921875 17.735027 L -4.925781 18.356121 L -4.929688 18.914715 L -4.921875 19.414715 L -4.90625 19.863934 L -4.886719 20.258465 L -4.855469 20.610027 L -4.816406 20.910809 L -4.777344 21.172527 L -4.730469 21.39909 L -4.683594 21.590496 L -4.640625 21.750652 L -4.601562 21.883465 L -4.570312 21.996746 L -4.546875 22.082684 L -4.53125 22.156902 L -4.523438 22.21159 L -4.523438 22.301434 L -4.527344 22.313152 L -4.527344 22.320965 L -4.523438 22.406902 L -4.433594 22.621746 L -4.164062 23.020184 L -3.660156 23.567059 L -2.9375 24.152996 L -2.078125 24.625652 L -1.171875 24.883465 L -0.292969 24.902996 L 0.5 24.758465 L 1.171875 24.539715 L 1.679688 24.33659 L 2.015625 24.188152 L 2.179688 24.113934 L 2.199219 24.106121 L 2.203125 24.106121 L 2.226562 24.094402 L 2.273438 24.074871 L 2.339844 24.043621 L 2.425781 24.004559 L 2.53125 23.953777 L 2.65625 23.895184 L 2.796875 23.828777 L 2.953125 23.750652 L 3.121094 23.664715 L 3.304688 23.567059 L 3.5 23.46159 L 3.707031 23.340496 L 3.914062 23.207684 L 4.125 23.059246 L 4.332031 22.891277 L 4.527344 22.703777 L 4.703125 22.488934 L 4.859375 22.250652 L 4.988281 21.977215 L 5.089844 21.664715 L 5.164062 21.313152 L 5.210938 20.906902 L 5.238281 20.449871 L 5.246094 19.93034 L 5.242188 19.348309 L 5.230469 18.699871 L 5.214844 17.977215 L 5.203125 17.18034 L 5.195312 16.313152 L 5.195312 14.356121 L 5.199219 13.27409 L 5.207031 12.125652 L 5.210938 10.914715 L 5.210938 8.33659 L 5.203125 6.981121 L 5.191406 5.590496 L 5.175781 4.172527 L 5.15625 2.735027 L 5.136719 1.289715 L 5.117188 -0.159504 L 5.101562 -1.60091 L 5.089844 -3.026691 L 5.078125 -4.429035 L 5.078125 -7.136066 L 5.085938 -8.429035 L 5.101562 -9.667316 L 5.121094 -10.854816 L 5.144531 -11.983723 L 5.175781 -13.050129 L 5.207031 -14.050129 L 5.246094 -14.987629 L 5.289062 -15.854816 L 5.332031 -16.655598 L 5.378906 -17.389973 L 5.429688 -18.057941 L 5.476562 -18.659504 L 5.519531 -19.202473 L 5.558594 -19.686848 L 5.589844 -20.112629 L 5.609375 -20.487629 L 5.621094 -20.815754 L 5.621094 -21.097004 L 5.613281 -21.339191 L 5.59375 -21.542316 L 5.5625 -21.714191 L 5.527344 -21.858723 L 5.488281 -21.97591 L 5.449219 -22.06966 L 5.410156 -22.147785 L 5.371094 -22.206379 L 5.339844 -22.249348 L 5.316406 -22.280598 L 5.296875 -22.300129 L 5.289062 -22.311848 L 5.277344 -22.31966 L 5.199219 -22.405598 L 4.988281 -22.639973 L 4.566406 -23.061848 L 3.917969 -23.639973 L 3.085938 -24.229816 L 2.152344 -24.686848 L 1.203125 -24.917316 L 0.304688 -24.964191 L -0.5 -24.925129 L -1.167969 -24.909504 L -1.679688 -24.960285 L -2.015625 -25.046223 L -2.179688 -25.112629 L -2.199219 -25.120441 " transform="matrix(1,0,0,1,79,29.31966)"/>
<path style="fill-rule:evenodd;fill:rgb(100%,100%,100%);fill-opacity:1;stroke-width:1;stroke-linecap:butt;stroke-linejoin:bevel;stroke:rgb(50.048876%,50.048876%,50.048876%);stroke-opacity:1;stroke-miterlimit:10;" d="M -2.199219 -5.041831 L -2.226562 -5.030112 L -2.410156 -4.924644 L -2.75 -4.674644 L -3.175781 -4.256675 L -3.625 -3.690269 L -4.027344 -3.0223 L -4.335938 -2.291831 L -4.523438 -1.502769 L -4.621094 -0.662925 L -4.667969 0.184731 L -4.710938 0.958169 L -4.773438 1.57145 L -4.839844 1.9777 L -4.886719 2.176919 L -4.894531 2.200356 L -4.898438 2.223794 L -4.914062 2.38395 L -4.847656 2.69645 L -4.5625 3.13395 L -3.996094 3.626138 L -3.179688 4.094888 L -2.226562 4.44645 L -1.242188 4.626138 L -0.320312 4.641763 L 0.496094 4.5402 L 1.167969 4.403481 L 1.679688 4.2902 L 2.015625 4.219888 L 2.179688 4.188638 L 2.199219 4.184731 L 2.222656 4.180825 L 2.382812 4.145669 L 2.691406 4.020669 L 3.117188 3.755044 L 3.585938 3.305825 L 4.003906 2.680825 L 4.3125 1.923013 L 4.488281 1.098794 L 4.578125 0.266763 L 4.632812 -0.506675 L 4.695312 -1.170737 L 4.773438 -1.67855 L 4.847656 -2.014487 L 4.890625 -2.17855 L 4.898438 -2.198081 L 4.902344 -2.221519 L 4.925781 -2.385581 L 4.863281 -2.721519 L 4.582031 -3.205894 L 4.015625 -3.780112 L 3.199219 -4.346519 L 2.234375 -4.811362 L 1.25 -5.127769 L 0.324219 -5.299644 L -0.492188 -5.354331 L -1.167969 -5.319175 L -1.679688 -5.229331 L -2.015625 -5.119956 L -2.179688 -5.049644 L -2.199219 -5.041831 " transform="matrix(1,0,0,1,109,265.725425)"/>
<path style="fill-rule:evenodd;fill:rgb(100%,100%,100%);fill-opacity:1;stroke-width:1;stroke-linecap:butt;stroke-linejoin:bevel;stroke:rgb(50.048876%,50.048876%,50.048876%);stroke-opacity:1;stroke-miterlimit:10;" d="M -7.019531 -10.115397 L -7.050781 -10.115397 L -7.285156 -10.103679 L -7.703125 -10.021647 L -8.222656 -9.787272 L -8.753906 -9.31071 L -9.222656 -8.541179 L -9.59375 -7.459147 L -9.863281 -6.09196 L -10.050781 -4.470866 L -10.183594 -2.673991 L -10.28125 -0.791179 L -10.347656 1.06429 L -10.382812 2.775228 L -10.382812 4.236165 L -10.351562 5.388509 L -10.304688 6.216634 L -10.257812 6.740071 L -10.230469 6.990071 L -10.222656 7.052571 L -10.179688 7.28304 L -10.054688 7.68929 L -9.769531 8.173665 L -9.257812 8.65804 L -8.472656 9.091634 L -7.402344 9.454915 L -6.046875 9.747884 L -4.445312 9.982259 L -2.660156 10.154134 L -0.785156 10.247884 L 1.066406 10.255696 L 2.773438 10.165853 L 4.234375 9.986165 L 5.386719 9.736165 L 6.214844 9.462728 L 6.738281 9.228353 L 6.988281 9.091634 L 7.019531 9.076009 L 7.054688 9.052571 L 7.332031 8.87679 L 7.824219 8.493978 L 8.449219 7.923665 L 9.082031 7.243978 L 9.617188 6.572103 L 9.964844 5.966634 L 10.109375 5.337728 L 10.082031 4.505696 L 9.96875 3.310384 L 9.859375 1.724446 L 9.785156 -0.12321 L 9.722656 -2.006022 L 9.625 -3.709147 L 9.457031 -5.080241 L 9.234375 -6.068522 L 9.015625 -6.689616 L 8.882812 -6.982585 L 8.867188 -7.017741 L 8.847656 -7.052897 L 8.695312 -7.330241 L 8.359375 -7.822429 L 7.847656 -8.43571 L 7.230469 -9.052897 L 6.609375 -9.564616 L 6.027344 -9.90446 L 5.402344 -10.064616 L 4.554688 -10.09196 L 3.339844 -10.052897 L 1.738281 -10.006022 L -0.117188 -9.986491 L -2.007812 -10.002116 L -3.710938 -10.037272 L -5.082031 -10.076335 L -6.070312 -10.099772 L -6.691406 -10.111491 L -6.984375 -10.115397 L -7.019531 -10.115397 " transform="matrix(1,0,0,1,114,214.545085)"/>
<path style="fill-rule:evenodd;fill:rgb(100%,100%,100%);fill-opacity:1;stroke-width:1;stroke-linecap:butt;stroke-linejoin:bevel;stroke:rgb(50.048876%,50.048876%,50.048876%);stroke-opacity:1;stroke-miterlimit:10;" d="M -11.777344 -14.449219 L -11.828125 -14.441406 L -12.210938 -14.378906 L -12.855469 -14.222656 L -13.582031 -13.917969 L -14.226562 -13.378906 L -14.695312 -12.503906 L -14.984375 -11.1875 L -15.132812 -9.363281 L -15.179688 -7.027344 L -15.164062 -4.261719 L -15.109375 -1.238281 L -15.027344 1.8125 L -14.941406 4.65625 L -14.859375 7.101562 L -14.796875 9.035156 L -14.75 10.425781 L -14.71875 11.304688 L -14.703125 11.722656 L -14.699219 11.777344 L -14.695312 11.828125 L -14.667969 12.214844 L -14.5625 12.882812 L -14.292969 13.65625 L -13.75 14.347656 L -12.832031 14.824219 L -11.441406 15.050781 L -9.53125 15.074219 L -7.125 15 L -4.308594 14.929688 L -1.257812 14.921875 L 1.808594 14.972656 L 4.65625 15.070312 L 7.101562 15.179688 L 9.035156 15.296875 L 10.425781 15.414062 L 11.304688 15.507812 L 11.722656 15.566406 L 11.777344 15.574219 L 11.835938 15.582031 L 12.296875 15.65625 L 13.117188 15.808594 L 14.125 15.976562 L 15.078125 15.984375 L 15.769531 15.582031 L 16.078125 14.535156 L 16.023438 12.714844 L 15.71875 10.164062 L 15.316406 7.042969 L 14.945312 3.578125 L 14.675781 0.0390625 L 14.542969 -3.300781 L 14.542969 -6.210938 L 14.648438 -8.523438 L 14.816406 -10.183594 L 14.980469 -11.222656 L 15.082031 -11.714844 L 15.09375 -11.777344 L 15.105469 -11.828125 L 15.175781 -12.214844 L 15.214844 -12.894531 L 15.0625 -13.703125 L 14.546875 -14.480469 L 13.542969 -15.113281 L 12 -15.542969 L 9.910156 -15.769531 L 7.34375 -15.816406 L 4.414062 -15.730469 L 1.300781 -15.558594 L -1.792969 -15.347656 L -4.652344 -15.132812 L -7.101562 -14.933594 L -9.035156 -14.757812 L -10.425781 -14.617188 L -11.304688 -14.511719 L -11.722656 -14.457031 L -11.777344 -14.449219 " transform="matrix(1,0,0,1,89,185.5)"/>
<path style="fill-rule:evenodd;fill:rgb(100%,100%,100%);fill-opacity:1;stroke-width:1;stroke-linecap:butt;stroke-linejoin:bevel;stroke:rgb(50.048876%,50.048876%,50.048876%);stroke-opacity:1;stroke-miterlimit:10;" d="M -32.203125 -16.226562 L -32.21875 -16.234375 L -32.34375 -16.28125 L -32.5625 -16.265625 L -32.847656 -16.011719 L -33.15625 -15.347656 L -33.472656 -14.167969 L -33.769531 -12.433594 L -34.027344 -10.183594 L -34.21875 -7.492188 L -34.335938 -4.484375 L -34.402344 -1.328125 L -34.453125 1.785156 L -34.53125 4.652344 L -34.652344 7.101562 L -34.808594 9.035156 L -34.96875 10.425781 L -35.09375 11.304688 L -35.164062 11.722656 L -35.171875 11.777344 L -35.175781 11.789062 L -35.191406 11.894531 L -35.21875 12.09375 L -35.242188 12.371094 L -35.25 12.710938 L -35.222656 13.085938 L -35.140625 13.464844 L -34.992188 13.832031 L -34.773438 14.160156 L -34.472656 14.441406 L -34.085938 14.660156 L -33.617188 14.820312 L -33.0625 14.929688 L -32.421875 14.988281 L -31.6875 15.015625 L -30.851562 15.023438 L -29.910156 15.015625 L -28.84375 15.003906 L -27.644531 14.988281 L -26.300781 14.976562 L -24.804688 14.964844 L -23.148438 14.949219 L -21.328125 14.929688 L -19.351562 14.910156 L -17.222656 14.886719 L -14.957031 14.863281 L -12.5625 14.847656 L -10.0625 14.835938 L -7.480469 14.832031 L -4.839844 14.839844 L -2.164062 14.855469 L 0.523438 14.875 L 3.191406 14.898438 L 5.816406 14.921875 L 8.375 14.941406 L 10.84375 14.964844 L 13.207031 14.984375 L 15.445312 15 L 17.542969 15.015625 L 19.492188 15.027344 L 21.285156 15.03125 L 22.914062 15.03125 L 24.386719 15.023438 L 25.695312 15.007812 L 26.851562 14.980469 L 27.859375 14.941406 L 28.730469 14.890625 L 29.46875 14.835938 L 30.089844 14.777344 L 30.605469 14.722656 L 31.027344 14.667969 L 31.363281 14.625 L 31.632812 14.589844 L 31.835938 14.5625 L 31.988281 14.546875 L 32.097656 14.539062 L 32.167969 14.535156 L 32.21875 14.535156 L 32.347656 14.519531 L 32.605469 14.4375 L 32.96875 14.195312 L 33.398438 13.683594 L 33.824219 12.785156 L 34.191406 11.414062 L 34.46875 9.519531 L 34.664062 7.117188 L 34.8125 4.304688 L 34.933594 1.257812 L 35.019531 -1.808594 L 35.03125 -4.65625 L 34.929688 -7.101562 L 34.714844 -9.035156 L 34.429688 -10.425781 L 34.164062 -11.304688 L 34 -11.722656 L 33.980469 -11.777344 L 33.972656 -11.789062 L 33.921875 -11.902344 L 33.820312 -12.117188 L 33.660156 -12.429688 L 33.433594 -12.820312 L 33.144531 -13.265625 L 32.800781 -13.742188 L 32.421875 -14.21875 L 32.023438 -14.664062 L 31.640625 -15.050781 L 31.285156 -15.363281 L 30.972656 -15.578125 L 30.703125 -15.699219 L 30.457031 -15.726562 L 30.214844 -15.671875 L 29.933594 -15.558594 L 29.570312 -15.402344 L 29.085938 -15.226562 L 28.4375 -15.050781 L 27.597656 -14.894531 L 26.539062 -14.769531 L 25.257812 -14.679688 L 23.742188 -14.628906 L 22 -14.609375 L 20.042969 -14.621094 L 17.886719 -14.652344 L 15.554688 -14.699219 L 13.066406 -14.75 L 10.453125 -14.796875 L 7.742188 -14.839844 L 4.964844 -14.871094 L 2.152344 -14.886719 L -0.667969 -14.890625 L -3.460938 -14.878906 L -6.203125 -14.855469 L -8.863281 -14.824219 L -11.421875 -14.792969 L -13.851562 -14.765625 L -16.140625 -14.75 L -18.273438 -14.746094 L -20.238281 -14.761719 L -22.027344 -14.792969 L -23.644531 -14.847656 L -25.085938 -14.921875 L -26.359375 -15.011719 L -27.464844 -15.113281 L -28.421875 -15.230469 L -29.230469 -15.351562 L -29.914062 -15.476562 L -30.476562 -15.601562 L -30.933594 -15.722656 L -31.300781 -15.835938 L -31.589844 -15.941406 L -31.8125 -16.03125 L -31.976562 -16.105469 L -32.089844 -16.164062 L -32.164062 -16.203125 L -32.199219 -16.222656 L -32.203125 -16.226562 " transform="matrix(1,0,0,1,39,140.5)"/>
<path style="fill-rule:evenodd;fill:rgb(100%,100%,100%);fill-opacity:1;stroke-width:1;stroke-linecap:butt;stroke-linejoin:bevel;stroke:rgb(50.048876%,50.048876%,50.048876%);stroke-opacity:1;stroke-miterlimit:10;" d="M -12.230469 -11.100099 L -12.242188 -11.111817 L -12.351562 -11.174317 L -12.5625 -11.193849 L -12.855469 -11.002442 L -13.203125 -10.467286 L -13.558594 -9.52588 L -13.886719 -8.205567 L -14.15625 -6.580567 L -14.363281 -4.752442 L -14.515625 -2.811036 L -14.640625 -0.846192 L -14.757812 1.048339 L -14.90625 2.770995 L -15.101562 4.235839 L -15.351562 5.388183 L -15.632812 6.216308 L -15.878906 6.739745 L -16.023438 6.989745 L -16.042969 7.020995 L -16.054688 7.03662 L -16.113281 7.134276 L -16.203125 7.321776 L -16.28125 7.575683 L -16.296875 7.88037 L -16.195312 8.204589 L -15.945312 8.524901 L -15.535156 8.833495 L -14.972656 9.118651 L -14.273438 9.372558 L -13.464844 9.59912 L -12.566406 9.798339 L -11.59375 9.97412 L -10.546875 10.126464 L -9.425781 10.25537 L -8.222656 10.356933 L -6.933594 10.438964 L -5.5625 10.489745 L -4.117188 10.517089 L -2.613281 10.520995 L -1.078125 10.497558 L 0.464844 10.454589 L 1.984375 10.399901 L 3.445312 10.337401 L 4.824219 10.278808 L 6.097656 10.235839 L 7.25 10.212401 L 8.269531 10.204589 L 9.15625 10.208495 L 9.902344 10.220214 L 10.519531 10.228026 L 11.019531 10.228026 L 11.414062 10.220214 L 11.710938 10.208495 L 11.929688 10.188964 L 12.082031 10.173339 L 12.179688 10.157714 L 12.222656 10.153808 L 12.230469 10.149901 L 12.246094 10.149901 L 12.367188 10.126464 L 12.582031 10.079589 L 12.855469 9.966308 L 13.171875 9.72412 L 13.527344 9.263183 L 13.90625 8.497558 L 14.273438 7.376464 L 14.574219 5.888183 L 14.757812 4.087401 L 14.808594 2.079589 L 14.757812 0.00537008 L 14.675781 -1.971192 L 14.65625 -3.701661 L 14.757812 -5.080567 L 14.972656 -6.068849 L 15.226562 -6.689942 L 15.394531 -6.982911 L 15.417969 -7.018067 L 15.425781 -7.033692 L 15.488281 -7.131349 L 15.585938 -7.318849 L 15.679688 -7.580567 L 15.714844 -7.893067 L 15.648438 -8.232911 L 15.449219 -8.572755 L 15.101562 -8.889161 L 14.605469 -9.170411 L 13.976562 -9.40088 L 13.234375 -9.580567 L 12.394531 -9.709474 L 11.46875 -9.795411 L 10.464844 -9.846192 L 9.371094 -9.873536 L 8.1875 -9.881349 L 6.914062 -9.881349 L 5.554688 -9.885255 L 4.113281 -9.896974 L 2.609375 -9.924317 L 1.074219 -9.971192 L -0.464844 -10.033692 L -1.984375 -10.104005 L -3.445312 -10.174317 L -4.824219 -10.232911 L -6.097656 -10.279786 L -7.25 -10.311036 L -8.269531 -10.334474 L -9.15625 -10.361817 L -9.902344 -10.404786 L -10.519531 -10.467286 L -11.019531 -10.55713 L -11.414062 -10.662599 L -11.710938 -10.779786 L -11.929688 -10.893067 L -12.082031 -10.990724 L -12.179688 -11.05713 L -12.222656 -11.096192 L -12.230469 -11.100099 " transform="matrix(1,0,0,1,119,242.635255)"/>
<path style="fill-rule:evenodd;fill:rgb(100%,100%,100%);fill-opacity:1;stroke-width:1;stroke-linecap:butt;stroke-linejoin:bevel;stroke:rgb(50.048876%,50.048876%,50.048876%);stroke-opacity:1;stroke-miterlimit:10;" d="M -17.296875 -4.806478 L -17.3125 -4.81429 L -17.402344 -4.884603 L -17.570312 -5.044759 L -17.816406 -5.197103 L -18.175781 -5.118978 L -18.671875 -4.583821 L -19.242188 -3.579915 L -19.765625 -2.302571 L -20.121094 -1.025228 L -20.265625 0.0685225 L -20.203125 0.93571 L -19.984375 1.564616 L -19.714844 1.974772 L -19.527344 2.173991 L -19.5 2.197429 L -19.496094 2.201335 L -19.464844 2.228679 L -19.40625 2.287272 L -19.316406 2.37321 L -19.066406 2.62321 L -18.910156 2.787272 L -18.734375 2.974772 L -18.546875 3.177897 L -18.34375 3.392741 L -18.125 3.615397 L -17.894531 3.838054 L -17.644531 4.052897 L -17.371094 4.256022 L -17.066406 4.439616 L -16.726562 4.599772 L -16.34375 4.732585 L -15.90625 4.830241 L -15.40625 4.892741 L -14.84375 4.923991 L -14.207031 4.923991 L -13.492188 4.896647 L -12.699219 4.849772 L -11.824219 4.791179 L -10.871094 4.732585 L -9.84375 4.677897 L -8.746094 4.631022 L -7.582031 4.603679 L -6.359375 4.595866 L -5.09375 4.603679 L -3.789062 4.627116 L -2.457031 4.662272 L -1.109375 4.705241 L 0.242188 4.752116 L 1.585938 4.795085 L 2.910156 4.838054 L 4.207031 4.87321 L 5.460938 4.90446 L 6.667969 4.931804 L 7.820312 4.955241 L 8.910156 4.970866 L 9.929688 4.986491 L 10.875 4.99821 L 11.75 5.006022 L 12.542969 5.013835 L 13.265625 5.017741 L 13.910156 5.021647 L 14.480469 5.025554 L 14.984375 5.033366 L 15.421875 5.045085 L 15.796875 5.06071 L 16.113281 5.088054 L 16.382812 5.12321 L 16.605469 5.166179 L 16.785156 5.213054 L 16.933594 5.259929 L 17.046875 5.302897 L 17.136719 5.34196 L 17.203125 5.369304 L 17.296875 5.416179 L 17.308594 5.420085 L 17.394531 5.431804 L 17.570312 5.338054 L 17.847656 4.994304 L 18.210938 4.334147 L 18.621094 3.412272 L 19.015625 2.357585 L 19.332031 1.306804 L 19.5625 0.34196 L 19.75 -0.490071 L 19.976562 -1.169759 L 20.261719 -1.681478 L 20.554688 -2.017415 L 20.742188 -2.181478 L 20.769531 -2.201009 L 20.773438 -2.204915 L 20.808594 -2.232259 L 20.871094 -2.286946 L 20.941406 -2.368978 L 21.003906 -2.47054 L 21.027344 -2.587728 L 21 -2.72054 L 20.90625 -2.865071 L 20.726562 -3.013509 L 20.472656 -3.161946 L 20.136719 -3.31429 L 19.738281 -3.466634 L 19.28125 -3.622884 L 18.777344 -3.779134 L 18.242188 -3.943196 L 17.679688 -4.111165 L 17.089844 -4.286946 L 16.472656 -4.462728 L 15.828125 -4.634603 L 15.144531 -4.798665 L 14.414062 -4.943196 L 13.632812 -5.06429 L 12.789062 -5.154134 L 11.882812 -5.212728 L 10.90625 -5.236165 L 9.863281 -5.232259 L 8.757812 -5.204915 L 7.585938 -5.15804 L 6.363281 -5.107259 L 5.09375 -5.052571 L 3.789062 -5.00179 L 2.457031 -4.962728 L 1.109375 -4.931478 L -0.242188 -4.911946 L -1.585938 -4.900228 L -2.910156 -4.896321 L -4.207031 -4.900228 L -5.460938 -4.904134 L -6.667969 -4.90804 L -7.820312 -4.911946 L -8.910156 -4.915853 L -9.929688 -4.923665 L -10.875 -4.927571 L -11.75 -4.931478 L -12.542969 -4.935384 L -13.265625 -4.931478 L -13.910156 -4.923665 L -14.480469 -4.911946 L -14.984375 -4.888509 L -15.421875 -4.857259 L -15.796875 -4.826009 L -16.113281 -4.790853 L -16.382812 -4.759603 L -16.605469 -4.736165 L -16.785156 -4.724446 L -16.933594 -4.72054 L -17.046875 -4.728353 L -17.136719 -4.743978 L -17.203125 -4.763509 L -17.25 -4.78304 L -17.28125 -4.794759 L -17.296875 -4.806478 " transform="matrix(1,0,0,1,144,171.454915)"/>
<path style="fill-rule:evenodd;fill:rgb(100%,100%,100%);fill-opacity:1;stroke-width:1;stroke-linecap:butt;stroke-linejoin:bevel;stroke:rgb(50.048876%,50.048876%,50.048876%);stroke-opacity:1;stroke-miterlimit:10;" d="M -7.019531 -14.519205 L -7.035156 -14.519205 L -7.144531 -14.515299 L -7.351562 -14.499674 L -7.644531 -14.480143 L -8 -14.44108 L -8.394531 -14.374674 L -8.800781 -14.269205 L -9.183594 -14.112955 L -9.519531 -13.890299 L -9.785156 -13.589518 L -9.960938 -13.194986 L -10.050781 -12.694986 L -10.0625 -12.089518 L -10.019531 -11.355143 L -9.949219 -10.491861 L -9.878906 -9.487955 L -9.835938 -8.339518 L -9.828125 -7.050455 L -9.851562 -5.632486 L -9.894531 -4.112955 L -9.953125 -2.515299 L -10 -0.87858 L -10.035156 0.762045 L -10.050781 2.363607 L -10.042969 3.890951 L -10.011719 5.316732 L -9.964844 6.613607 L -9.902344 7.765951 L -9.832031 8.769857 L -9.761719 9.617514 L -9.699219 10.316732 L -9.667969 10.883139 L -9.675781 11.324545 L -9.722656 11.656576 L -9.804688 11.90267 L -9.902344 12.070639 L -9.988281 12.172201 L -10.046875 12.230795 L -10.0625 12.242514 L -10.160156 12.355795 L -10.246094 12.59017 L -10.167969 12.937826 L -9.777344 13.351889 L -9.003906 13.758139 L -7.84375 14.086264 L -6.359375 14.301107 L -4.632812 14.418295 L -2.757812 14.480795 L -0.824219 14.515951 L 1.054688 14.535482 L 2.769531 14.543295 L 4.234375 14.539389 L 5.386719 14.551107 L 6.214844 14.586264 L 6.738281 14.640951 L 6.988281 14.676107 L 7.035156 14.687826 L 7.144531 14.707357 L 7.351562 14.754232 L 7.640625 14.836264 L 7.992188 14.941732 L 8.375 15.05892 L 8.753906 15.144857 L 9.101562 15.160482 L 9.402344 15.051107 L 9.636719 14.793295 L 9.808594 14.355795 L 9.921875 13.74642 L 9.992188 12.972982 L 10.027344 12.055014 L 10.046875 11.004232 L 10.046875 9.84017 L 10.035156 8.566732 L 10.011719 7.18392 L 9.980469 5.711264 L 9.9375 4.15267 L 9.898438 2.535482 L 9.859375 0.887045 L 9.820312 -0.757486 L 9.78125 -2.362955 L 9.738281 -3.890299 L 9.6875 -5.31608 L 9.628906 -6.612955 L 9.574219 -7.765299 L 9.53125 -8.769205 L 9.53125 -9.616861 L 9.578125 -10.31608 L 9.683594 -10.882486 L 9.84375 -11.323893 L 10.042969 -11.655924 L 10.25 -11.902018 L 10.441406 -12.069986 L 10.589844 -12.171549 L 10.667969 -12.22233 L 10.675781 -12.230143 L 10.699219 -12.241861 L 10.847656 -12.351236 L 11.003906 -12.558268 L 10.957031 -12.859049 L 10.535156 -13.22233 L 9.648438 -13.624674 L 8.332031 -14.019205 L 6.683594 -14.355143 L 4.816406 -14.593424 L 2.84375 -14.718424 L 0.859375 -14.741861 L -1.042969 -14.706705 L -2.765625 -14.652018 L -4.234375 -14.605143 L -5.386719 -14.569986 L -6.214844 -14.550455 L -6.738281 -14.530924 L -6.988281 -14.519205 L -7.019531 -14.519205 " transform="matrix(1,0,0,1,94,112.40983)"/>
</g>
</svg>
