<?xml version="1.0" encoding="UTF-8"?>
<svg xmlns="http://www.w3.org/2000/svg" xmlns:xlink="http://www.w3.org/1999/xlink" width="168.472136" height="280.832816" viewBox="0 0 168.472136 280.832816">
<path fill-rule="evenodd" fill="rgb(100%, 100%, 100%)" fill-opacity="1" stroke-width="1" stroke-linecap="butt" stroke-linejoin="bevel" stroke="rgb(50.048876%, 50.048876%, 50.048876%)" stroke-opacity="1" stroke-miterlimit="10" d="M -2.199219 -50.06608 L -2.210938 -50.06608 L -2.234375 -50.069986 L -2.265625 -50.069986 L -2.308594 -50.073893 L -2.359375 -50.081705 L -2.417969 -50.085611 L -2.488281 -50.093424 L -2.566406 -50.09733 L -2.652344 -50.105143 L -2.75 -50.105143 L -2.851562 -50.101236 L -2.957031 -50.093424 L -3.074219 -50.077799 L -3.195312 -50.046549 L -3.320312 -50.00358 L -3.449219 -49.948893 L -3.578125 -49.874674 L -3.710938 -49.78483 L -3.84375 -49.675455 L -3.972656 -49.546549 L -4.097656 -49.402018 L -4.21875 -49.241861 L -4.328125 -49.06608 L -4.433594 -48.87858 L -4.527344 -48.679361 L -4.609375 -48.468424 L -4.683594 -48.245768 L -4.746094 -48.015299 L -4.796875 -47.780924 L -4.839844 -47.538736 L -4.871094 -47.28483 L -4.894531 -47.027018 L -4.914062 -46.757486 L -4.925781 -46.480143 L -4.933594 -46.187174 L -4.9375 -45.882486 L -4.941406 -45.562174 L -4.9375 -45.226236 L -4.9375 -44.866861 L -4.933594 -44.484049 L -4.929688 -44.077799 L -4.925781 -43.644205 L -4.921875 -43.183268 L -4.921875 -41.030924 L -4.925781 -40.40983 L -4.929688 -39.749674 L -4.9375 -39.054361 L -4.945312 -38.323893 L -4.953125 -37.554361 L -4.964844 -36.749674 L -4.976562 -35.905924 L -4.988281 -35.023111 L -5 -34.105143 L -5.011719 -33.152018 L -5.019531 -32.15983 L -5.03125 -31.132486 L -5.039062 -30.06608 L -5.042969 -28.968424 L -5.050781 -27.835611 L -5.054688 -26.671549 L -5.058594 -25.47233 L -5.0625 -24.245768 L -5.066406 -22.984049 L -5.070312 -21.698893 L -5.074219 -20.386393 L -5.074219 -14.894205 L -5.070312 -13.468424 L -5.0625 -12.027018 L -5.054688 -10.573893 L -5.042969 -9.105143 L -5.03125 -7.624674 L -5.011719 -6.136393 L -4.992188 -4.644205 L -4.972656 -3.144205 L -4.949219 -1.644205 L -4.929688 -0.140299 L -4.910156 1.359701 L -4.890625 2.855795 L -4.878906 4.347982 L -4.871094 5.832357 L -4.867188 7.305014 L -4.871094 8.765951 L -4.882812 10.21517 L -4.898438 11.644857 L -4.925781 13.05892 L -4.957031 14.457357 L -4.992188 15.828451 L -5.03125 17.18392 L -5.074219 18.512045 L -5.117188 19.812826 L -5.160156 21.09017 L -5.199219 22.34017 L -5.238281 23.55892 L -5.269531 24.74642 L -5.296875 25.906576 L -5.320312 27.031576 L -5.335938 28.125326 L -5.34375 29.187826 L -5.347656 30.21517 L -5.347656 31.207357 L -5.34375 32.164389 L -5.332031 33.086264 L -5.320312 33.976889 L -5.304688 34.828451 L -5.289062 35.644857 L -5.273438 36.430014 L -5.257812 37.176107 L -5.242188 37.890951 L -5.226562 38.570639 L -5.214844 39.21517 L -5.203125 39.828451 L -5.1875 40.410482 L -5.175781 40.961264 L -5.164062 41.476889 L -5.152344 41.96517 L -5.136719 42.426107 L -5.125 42.855795 L -5.109375 43.258139 L -5.09375 43.633139 L -5.082031 43.984701 L -5.066406 44.30892 L -5.054688 44.609701 L -5.046875 44.887045 L -5.035156 45.144857 L -5.03125 45.383139 L -5.027344 45.597982 L -5.023438 45.797201 L -5.023438 45.980795 L -5.027344 46.144857 L -5.027344 46.293295 L -5.03125 46.426107 L -5.03125 46.547201 L -5.027344 46.656576 L -5.023438 46.754232 L -5.011719 46.84017 L -5 46.918295 L -4.980469 46.988607 L -4.960938 47.047201 L -4.933594 47.097982 L -4.902344 47.144857 L -4.871094 47.18392 L -4.800781 47.24642 L -4.765625 47.269857 L -4.734375 47.289389 L -4.703125 47.305014 L -4.675781 47.320639 L -4.652344 47.332357 L -4.636719 47.336264 L -4.625 47.344076 L -4.617188 47.344076 L -4.601562 47.351889 L -4.480469 47.390951 L -4.21875 47.480795 L -3.804688 47.656576 L -3.28125 48.008139 L -2.703125 48.547201 L -2.082031 49.164389 L -1.390625 49.656576 L -0.617188 49.890951 L 0.199219 49.894857 L 0.960938 49.812826 L 1.570312 49.762045 L 1.976562 49.77767 L 2.175781 49.812826 L 2.199219 49.820639 L 2.210938 49.820639 L 2.234375 49.828451 L 2.265625 49.836264 L 2.308594 49.847982 L 2.359375 49.863607 L 2.417969 49.887045 L 2.488281 49.910482 L 2.5625 49.941732 L 2.734375 50.004232 L 2.828125 50.031576 L 2.929688 50.05892 L 3.027344 50.074545 L 3.132812 50.082357 L 3.234375 50.074545 L 3.339844 50.051107 L 3.441406 50.008139 L 3.542969 49.941732 L 3.640625 49.855795 L 3.734375 49.74642 L 3.828125 49.617514 L 3.914062 49.461264 L 3.996094 49.289389 L 4.074219 49.097982 L 4.148438 48.890951 L 4.214844 48.668295 L 4.277344 48.437826 L 4.335938 48.191732 L 4.386719 47.941732 L 4.4375 47.680014 L 4.484375 47.414389 L 4.523438 47.137045 L 4.5625 46.855795 L 4.597656 46.562826 L 4.632812 46.258139 L 4.664062 45.941732 L 4.695312 45.609701 L 4.726562 45.262045 L 4.753906 44.894857 L 4.78125 44.508139 L 4.804688 44.097982 L 4.824219 43.660482 L 4.84375 43.195639 L 4.859375 42.703451 L 4.875 42.180014 L 4.882812 41.625326 L 4.886719 41.035482 L 4.886719 39.750326 L 4.878906 39.055014 L 4.871094 38.324545 L 4.863281 37.555014 L 4.847656 36.750326 L 4.835938 35.906576 L 4.820312 35.023764 L 4.804688 34.105795 L 4.792969 33.15267 L 4.777344 32.160482 L 4.765625 31.133139 L 4.753906 30.066732 L 4.746094 28.969076 L 4.738281 27.836264 L 4.730469 26.672201 L 4.722656 25.472982 L 4.71875 24.24642 L 4.714844 22.984701 L 4.714844 20.387045 L 4.71875 19.047201 L 4.722656 17.68392 L 4.730469 16.301107 L 4.746094 14.894857 L 4.761719 13.469076 L 4.78125 12.02767 L 4.804688 10.574545 L 4.832031 9.105795 L 4.863281 7.625326 L 4.898438 6.137045 L 4.933594 4.644857 L 5.019531 1.644857 L 5.066406 0.140951 L 5.113281 -1.359049 L 5.160156 -2.855143 L 5.207031 -4.34733 L 5.25 -5.831705 L 5.292969 -7.304361 L 5.332031 -8.765299 L 5.367188 -10.214518 L 5.398438 -11.644205 L 5.421875 -13.058268 L 5.441406 -14.456705 L 5.449219 -15.827799 L 5.453125 -17.183268 L 5.449219 -18.511393 L 5.441406 -19.812174 L 5.425781 -21.089518 L 5.40625 -22.339518 L 5.382812 -23.558268 L 5.359375 -24.745768 L 5.332031 -25.905924 L 5.308594 -27.030924 L 5.285156 -28.124674 L 5.261719 -29.187174 L 5.246094 -30.214518 L 5.234375 -31.206705 L 5.226562 -32.163736 L 5.226562 -33.085611 L 5.234375 -33.976236 L 5.242188 -34.827799 L 5.261719 -35.644205 L 5.28125 -36.429361 L 5.304688 -37.175455 L 5.335938 -37.890299 L 5.363281 -38.569986 L 5.398438 -39.214518 L 5.429688 -39.827799 L 5.460938 -40.40983 L 5.492188 -40.960611 L 5.523438 -41.476236 L 5.550781 -41.964518 L 5.578125 -42.425455 L 5.601562 -42.855143 L 5.625 -43.257486 L 5.644531 -43.632486 L 5.660156 -43.984049 L 5.675781 -44.308268 L 5.683594 -44.609049 L 5.695312 -44.886393 L 5.699219 -45.144205 L 5.699219 -45.382486 L 5.695312 -45.59733 L 5.6875 -45.796549 L 5.671875 -45.980143 L 5.652344 -46.144205 L 5.625 -46.292643 L 5.589844 -46.425455 L 5.550781 -46.546549 L 5.503906 -46.655924 L 5.449219 -46.75358 L 5.394531 -46.839518 L 5.335938 -46.917643 L 5.273438 -46.987955 L 5.214844 -47.046549 L 5.15625 -47.09733 L 5.105469 -47.144205 L 5.058594 -47.183268 L 5.015625 -47.214518 L 4.980469 -47.245768 L 4.953125 -47.269205 L 4.917969 -47.304361 L 4.910156 -47.319986 L 4.902344 -47.331705 L 4.898438 -47.335611 L 4.898438 -47.343424 L 4.867188 -47.405924 L 4.734375 -47.581705 L 4.40625 -47.944986 L 3.832031 -48.484049 L 3.046875 -49.085611 L 2.140625 -49.605143 L 1.199219 -49.94108 L 0.304688 -50.085611 L -0.5 -50.101236 L -1.167969 -50.073893 L -1.679688 -50.058268 L -2.015625 -50.058268 L -2.179688 -50.06608 L -2.199219 -50.06608 " transform="matrix(1, 0, 0, 1, 79, 112.40983)"/>
<path fill-rule="evenodd" fill="rgb(100%, 100%, 100%)" fill-opacity="1" stroke-width="1" stroke-linecap="butt" stroke-linejoin="bevel" stroke="rgb(50.048876%, 50.048876%, 50.048876%)" stroke-opacity="1" stroke-miterlimit="10" d="M -11.777344 -24.613934 L -11.796875 -24.613934 L -11.960938 -24.629559 L -12.269531 -24.64909 L -12.679688 -24.645184 L -13.148438 -24.594402 L -13.625 -24.465496 L -14.0625 -24.235027 L -14.429688 -23.875652 L -14.714844 -23.371746 L -14.910156 -22.71159 L -15.023438 -21.871746 L -15.070312 -20.844402 L -15.070312 -19.602215 L -15.039062 -18.137371 L -14.996094 -16.438152 L -14.953125 -14.496746 L -14.917969 -12.324871 L -14.898438 -9.942059 L -14.890625 -7.383465 L -14.890625 -4.695965 L -14.898438 -1.934246 L -14.898438 0.847004 L -14.890625 3.585285 L -14.871094 6.22591 L -14.839844 8.718098 L -14.804688 11.022785 L -14.769531 13.104816 L -14.746094 14.948566 L -14.742188 16.546223 L -14.765625 17.897785 L -14.820312 19.018879 L -14.914062 19.921223 L -15.035156 20.628254 L -15.175781 21.167316 L -15.324219 21.565754 L -15.460938 21.839191 L -15.5625 22.011066 L -15.617188 22.097004 L -15.625 22.104816 L -15.644531 22.136066 L -15.820312 22.35091 L -16.183594 22.733723 L -16.660156 23.198566 L -16.996094 23.667316 L -16.808594 24.081379 L -15.765625 24.393879 L -13.746094 24.581379 L -10.882812 24.636066 L -7.453125 24.604816 L -3.769531 24.561848 L -0.109375 24.597004 L 3.285156 24.753254 L 6.207031 25.014973 L 8.523438 25.31966 L 10.183594 25.597004 L 11.222656 25.796223 L 11.714844 25.893879 L 11.777344 25.905598 L 11.800781 25.909504 L 11.980469 25.948566 L 12.328125 26.018879 L 12.816406 26.112629 L 13.402344 26.214191 L 14.035156 26.28841 L 14.65625 26.28841 L 15.21875 26.16341 L 15.675781 25.870441 L 16.003906 25.366535 L 16.199219 24.63216 L 16.273438 23.659504 L 16.25 22.448566 L 16.15625 20.999348 L 16.019531 19.311848 L 15.863281 17.386066 L 15.699219 15.222004 L 15.546875 12.831379 L 15.402344 10.233723 L 15.269531 7.460285 L 15.152344 4.557941 L 15.054688 1.593098 L 14.976562 -1.375652 L 14.917969 -4.270184 L 14.882812 -7.035809 L 14.875 -9.610027 L 14.890625 -11.957684 L 14.925781 -14.039715 L 14.976562 -15.852215 L 15.035156 -17.383465 L 15.101562 -18.64909 L 15.171875 -19.668621 L 15.246094 -20.465496 L 15.324219 -21.070965 L 15.398438 -21.512371 L 15.472656 -21.817059 L 15.527344 -22.004559 L 15.558594 -22.094402 L 15.5625 -22.106121 L 15.570312 -22.133465 L 15.621094 -22.320965 L 15.621094 -22.656902 L 15.40625 -23.074871 L 14.820312 -23.516277 L 13.75 -23.93034 L 12.136719 -24.293621 L 9.992188 -24.582684 L 7.386719 -24.777996 L 4.4375 -24.875652 L 1.308594 -24.86784 L -1.789062 -24.781902 L -4.652344 -24.664715 L -7.101562 -24.563152 L -9.035156 -24.516277 L -10.425781 -24.527996 L -11.304688 -24.570965 L -11.722656 -24.610027 L -11.777344 -24.613934 " transform="matrix(1, 0, 0, 1, 89, 251.68034)"/>
<path fill-rule="evenodd" fill="rgb(100%, 100%, 100%)" fill-opacity="1" stroke-width="1" stroke-linecap="butt" stroke-linejoin="bevel" stroke="rgb(50.048876%, 50.048876%, 50.048876%)" stroke-opacity="1" stroke-miterlimit="10" d="M -7.019531 -25.802571 L -7.027344 -25.806478 L -7.089844 -25.841634 L -7.210938 -25.896321 L -7.382812 -25.962728 L -7.589844 -26.009603 L -7.828125 -26.013509 L -8.078125 -25.958821 L -8.328125 -25.822103 L -8.566406 -25.59554 L -8.789062 -25.279134 L -8.984375 -24.87679 L -9.152344 -24.396321 L -9.292969 -23.841634 L -9.410156 -23.232259 L -9.503906 -22.56429 L -9.582031 -21.841634 L -9.644531 -21.06429 L -9.699219 -20.224446 L -9.75 -19.310384 L -9.792969 -18.318196 L -9.835938 -17.236165 L -9.875 -16.060384 L -9.910156 -14.779134 L -9.933594 -13.400228 L -9.949219 -11.919759 L -9.945312 -10.34554 L -9.929688 -8.68929 L -9.894531 -6.958821 L -9.847656 -5.173665 L -9.792969 -3.349446 L -9.734375 -1.497884 L -9.679688 0.357585 L -9.636719 2.201335 L -9.605469 4.017741 L -9.59375 5.787272 L -9.597656 7.494304 L -9.617188 9.127116 L -9.644531 10.673991 L -9.683594 12.12321 L -9.722656 13.470866 L -9.765625 14.709147 L -9.804688 15.838054 L -9.84375 16.853679 L -9.882812 17.759929 L -9.917969 18.556804 L -9.949219 19.256022 L -9.980469 19.853679 L -10.007812 20.365397 L -10.027344 20.795085 L -10.035156 21.150554 L -10.035156 21.443522 L -10.019531 21.677897 L -9.996094 21.861491 L -9.96875 22.002116 L -9.933594 22.107585 L -9.90625 22.18571 L -9.882812 22.232585 L -9.859375 22.267741 L -9.800781 22.361491 L -9.65625 22.568522 L -9.367188 22.90446 L -8.886719 23.369304 L -8.164062 23.920085 L -7.171875 24.474772 L -5.894531 24.927897 L -4.359375 25.201335 L -2.621094 25.267741 L -0.769531 25.142741 L 1.070312 24.90446 L 2.773438 24.631022 L 4.234375 24.392741 L 5.386719 24.21696 L 6.214844 24.107585 L 6.738281 24.052897 L 6.988281 24.02946 L 7.019531 24.025554 L 7.027344 24.025554 L 7.089844 24.017741 L 7.207031 24.006022 L 7.371094 23.978679 L 7.570312 23.939616 L 7.792969 23.877116 L 8.019531 23.787272 L 8.25 23.670085 L 8.46875 23.517741 L 8.679688 23.326335 L 8.875 23.09196 L 9.054688 22.814616 L 9.21875 22.482585 L 9.363281 22.099772 L 9.492188 21.646647 L 9.597656 21.12321 L 9.6875 20.517741 L 9.761719 19.822429 L 9.8125 19.025554 L 9.851562 18.12321 L 9.871094 17.103679 L 9.878906 15.974772 L 9.871094 14.724772 L 9.851562 13.365397 L 9.820312 11.896647 L 9.789062 10.334147 L 9.753906 8.681804 L 9.730469 6.955241 L 9.714844 5.170085 L 9.714844 3.34196 L 9.726562 1.494304 L 9.753906 -0.361165 L 9.789062 -2.204915 L 9.828125 -4.021321 L 9.867188 -5.790853 L 9.902344 -7.497884 L 9.921875 -9.130696 L 9.929688 -10.677571 L 9.929688 -12.12679 L 9.917969 -13.474446 L 9.902344 -14.712728 L 9.886719 -15.841634 L 9.882812 -16.857259 L 9.894531 -17.763509 L 9.929688 -18.560384 L 9.992188 -19.259603 L 10.082031 -19.857259 L 10.195312 -20.368978 L 10.324219 -20.798665 L 10.464844 -21.154134 L 10.609375 -21.447103 L 10.746094 -21.681478 L 10.871094 -21.865071 L 10.976562 -22.005696 L 11.058594 -22.111165 L 11.117188 -22.18929 L 11.175781 -22.259603 L 11.1875 -22.275228 L 11.265625 -22.372884 L 11.390625 -22.544759 L 11.46875 -22.763509 L 11.34375 -23.013509 L 10.851562 -23.310384 L 9.875 -23.665853 L 8.414062 -24.068196 L 6.5625 -24.462728 L 4.453125 -24.78304 L 2.242188 -24.966634 L 0.0585938 -25.029134 L -1.960938 -25.029134 L -3.699219 -25.06429 L -5.082031 -25.18929 L -6.070312 -25.404134 L -6.691406 -25.634603 L -6.984375 -25.78304 L -7.019531 -25.802571 " transform="matrix(1, 0, 0, 1, 114, 171.454915)"/>
<path fill-rule="evenodd" fill="rgb(100%, 100%, 100%)" fill-opacity="1" stroke-width="1" stroke-linecap="butt" stroke-linejoin="bevel" stroke="rgb(50.048876%, 50.048876%, 50.048876%)" stroke-opacity="1" stroke-miterlimit="10" d="M -2.199219 -24.534504 L -2.203125 -24.534504 L -2.226562 -24.530598 L -2.269531 -24.518879 L -2.335938 -24.499348 L -2.425781 -24.468098 L -2.535156 -24.421223 L -2.667969 -24.358723 L -2.820312 -24.268879 L -2.988281 -24.159504 L -3.164062 -24.022785 L -3.351562 -23.862629 L -3.535156 -23.679035 L -3.714844 -23.468098 L -3.882812 -23.237629 L -4.039062 -22.987629 L -4.171875 -22.714191 L -4.289062 -22.417316 L -4.382812 -22.097004 L -4.453125 -21.749348 L -4.511719 -21.370441 L -4.550781 -20.952473 L -4.578125 -20.491535 L -4.597656 -19.987629 L -4.613281 -19.429035 L -4.621094 -18.815754 L -4.632812 -18.139973 L -4.640625 -17.405598 L -4.652344 -16.604816 L -4.667969 -15.737629 L -4.683594 -14.804035 L -4.699219 -13.807941 L -4.71875 -12.749348 L -4.738281 -11.63216 L -4.761719 -10.460285 L -4.785156 -9.237629 L -4.8125 -7.972004 L -4.84375 -6.667316 L -4.875 -5.331379 L -4.910156 -3.968098 L -4.949219 -2.589191 L -4.988281 -1.202473 L -5.027344 0.192059 L -5.066406 1.578777 L -5.105469 2.949871 L -5.136719 4.30534 L -5.164062 5.633465 L -5.183594 6.926434 L -5.199219 8.184246 L -5.207031 9.395184 L -5.207031 10.55534 L -5.199219 11.664715 L -5.183594 12.715496 L -5.15625 13.71159 L -5.125 14.641277 L -5.089844 15.508465 L -5.046875 16.313152 L -5 17.05534 L -4.957031 17.735027 L -4.917969 18.356121 L -4.886719 18.914715 L -4.863281 19.414715 L -4.855469 19.863934 L -4.855469 20.258465 L -4.863281 20.610027 L -4.882812 20.910809 L -4.902344 21.172527 L -4.921875 21.39909 L -4.9375 21.590496 L -4.941406 21.750652 L -4.929688 21.883465 L -4.90625 21.996746 L -4.871094 22.082684 L -4.824219 22.156902 L -4.773438 22.21159 L -4.722656 22.254559 L -4.679688 22.281902 L -4.648438 22.301434 L -4.628906 22.313152 L -4.613281 22.320965 L -4.476562 22.402996 L -4.207031 22.606121 L -3.800781 22.973309 L -3.261719 23.508465 L -2.605469 24.129559 L -1.859375 24.703777 L -1.0625 25.113934 L -0.25 25.30534 L 0.511719 25.324871 L 1.171875 25.258465 L 1.679688 25.195965 L 2.015625 25.172527 L 2.179688 25.176434 L 2.203125 25.176434 L 2.226562 25.18034 L 2.273438 25.184246 L 2.339844 25.192059 L 2.425781 25.203777 L 2.53125 25.219402 L 2.65625 25.238934 L 2.796875 25.254559 L 2.949219 25.262371 L 3.117188 25.250652 L 3.296875 25.215496 L 3.480469 25.141277 L 3.667969 25.027996 L 3.851562 24.863934 L 4.03125 24.652996 L 4.203125 24.387371 L 4.355469 24.078777 L 4.488281 23.723309 L 4.597656 23.324871 L 4.6875 22.895184 L 4.753906 22.426434 L 4.804688 21.93034 L 4.835938 21.395184 L 4.855469 20.824871 L 4.867188 20.21159 L 4.875 19.55534 L 4.886719 18.844402 L 4.894531 18.078777 L 4.910156 17.250652 L 4.929688 16.356121 L 4.957031 15.39909 L 4.988281 14.375652 L 5.023438 13.285809 L 5.058594 12.129559 L 5.097656 10.918621 L 5.136719 9.652996 L 5.171875 8.33659 L 5.207031 6.981121 L 5.234375 5.590496 L 5.261719 4.172527 L 5.277344 2.735027 L 5.289062 1.289715 L 5.296875 -0.159504 L 5.300781 -1.60091 L 5.296875 -3.026691 L 5.292969 -4.429035 L 5.285156 -5.800129 L 5.277344 -7.136066 L 5.261719 -8.429035 L 5.246094 -9.667316 L 5.226562 -10.854816 L 5.199219 -11.983723 L 5.164062 -13.050129 L 5.121094 -14.050129 L 5.070312 -14.987629 L 5.007812 -15.854816 L 4.945312 -16.655598 L 4.878906 -17.389973 L 4.820312 -18.057941 L 4.765625 -18.659504 L 4.722656 -19.202473 L 4.695312 -19.686848 L 4.679688 -20.112629 L 4.683594 -20.487629 L 4.695312 -20.815754 L 4.71875 -21.097004 L 4.75 -21.339191 L 4.78125 -21.542316 L 4.8125 -21.714191 L 4.835938 -21.858723 L 4.855469 -21.97591 L 4.867188 -22.06966 L 4.875 -22.147785 L 4.878906 -22.206379 L 4.875 -22.249348 L 4.875 -22.280598 L 4.871094 -22.300129 L 4.871094 -22.311848 L 4.867188 -22.323566 L 4.847656 -22.397785 L 4.773438 -22.53841 L 4.578125 -22.737629 L 4.1875 -23.042316 L 3.566406 -23.47591 L 2.738281 -23.983723 L 1.777344 -24.448566 L 0.785156 -24.741535 L -0.148438 -24.831379 L -0.949219 -24.776691 L -1.570312 -24.667316 L -1.976562 -24.581379 L -2.175781 -24.542316 L -2.199219 -24.534504 " transform="matrix(1, 0, 0, 1, 79, 29.31966)"/>
<path fill-rule="evenodd" fill="rgb(100%, 100%, 100%)" fill-opacity="1" stroke-width="1" stroke-linecap="butt" stroke-linejoin="bevel" stroke="rgb(50.048876%, 50.048876%, 50.048876%)" stroke-opacity="1" stroke-miterlimit="10" d="M -2.199219 -3.823081 L -2.222656 -3.780112 L -2.386719 -3.49105 L -2.726562 -3.026206 L -3.214844 -2.541831 L -3.761719 -2.119956 L -4.234375 -1.744956 L -4.542969 -1.330894 L -4.679688 -0.795737 L -4.75 -0.151206 L -4.882812 0.5402 L -5.152344 1.176919 L -5.53125 1.680825 L -5.902344 2.016763 L -6.132812 2.180825 L -6.164062 2.200356 L -6.195312 2.223794 L -6.382812 2.38395 L -6.515625 2.69645 L -6.277344 3.13395 L -5.511719 3.622231 L -4.304688 4.087075 L -2.914062 4.469888 L -1.582031 4.755044 L -0.449219 4.965981 L 0.460938 5.118325 L 1.164062 5.208169 L 1.679688 5.239419 L 2.015625 5.2277 L 2.179688 5.204263 L 2.199219 5.204263 L 2.222656 5.200356 L 2.382812 5.149575 L 2.703125 4.981606 L 3.132812 4.6027 L 3.597656 3.973794 L 3.996094 3.137856 L 4.269531 2.188638 L 4.421875 1.219888 L 4.496094 0.313638 L 4.515625 -0.494956 L 4.46875 -1.166831 L 4.355469 -1.67855 L 4.203125 -2.014487 L 4.097656 -2.17855 L 4.082031 -2.198081 L 4.066406 -2.221519 L 3.941406 -2.377769 L 3.703125 -2.666831 L 3.359375 -3.057456 L 2.914062 -3.502769 L 2.371094 -3.975425 L 1.726562 -4.440269 L 0.996094 -4.846519 L 0.226562 -5.123862 L -0.519531 -5.17855 L -1.171875 -4.983237 L -1.679688 -4.588706 L -2.015625 -4.1473 L -2.179688 -3.862144 L -2.199219 -3.823081 " transform="matrix(1, 0, 0, 1, 109, 265.725425)"/>
<path fill-rule="evenodd" fill="rgb(100%, 100%, 100%)" fill-opacity="1" stroke-width="1" stroke-linecap="butt" stroke-linejoin="bevel" stroke="rgb(50.048876%, 50.048876%, 50.048876%)" stroke-opacity="1" stroke-miterlimit="10" d="M -7.019531 -9.517741 L -7.050781 -9.506022 L -7.28125 -9.408366 L -7.671875 -9.213054 L -8.128906 -8.892741 L -8.570312 -8.423991 L -8.949219 -7.763835 L -9.257812 -6.865397 L -9.5 -5.693522 L -9.671875 -4.244304 L -9.761719 -2.564616 L -9.769531 -0.744304 L -9.710938 1.079915 L -9.625 2.779134 L -9.53125 4.236165 L -9.449219 5.388509 L -9.390625 6.216634 L -9.347656 6.740071 L -9.324219 6.990071 L -9.316406 7.052571 L -9.285156 7.286946 L -9.191406 7.712728 L -8.976562 8.243978 L -8.582031 8.790853 L -7.941406 9.267415 L -7.023438 9.62679 L -5.808594 9.868978 L -4.316406 10.013509 L -2.601562 10.09554 L -0.761719 10.130696 L 1.074219 10.115071 L 2.773438 10.048665 L 4.234375 9.935384 L 5.386719 9.798665 L 6.214844 9.669759 L 6.738281 9.572103 L 6.988281 9.521321 L 7.050781 9.505696 L 7.285156 9.451009 L 7.707031 9.310384 L 8.230469 9.048665 L 8.761719 8.611165 L 9.21875 7.943196 L 9.5625 7.013509 L 9.789062 5.798665 L 9.917969 4.306478 L 9.976562 2.59554 L 9.96875 0.759603 L 9.921875 -1.072429 L 9.890625 -2.771647 L 9.953125 -4.232585 L 10.160156 -5.384929 L 10.492188 -6.213054 L 10.847656 -6.736491 L 11.078125 -6.986491 L 11.140625 -7.048991 L 11.355469 -7.287272 L 11.601562 -7.720866 L 11.625 -8.283366 L 11.199219 -8.865397 L 10.234375 -9.369304 L 8.78125 -9.71696 L 6.984375 -9.884929 L 4.992188 -9.916179 L 2.929688 -9.881022 L 0.894531 -9.849772 L -1.03125 -9.853679 L -2.765625 -9.884929 L -4.234375 -9.892741 L -5.386719 -9.845866 L -6.214844 -9.740397 L -6.738281 -9.611491 L -6.988281 -9.52946 L -7.019531 -9.517741 " transform="matrix(1, 0, 0, 1, 114, 214.545085)"/>
<path fill-rule="evenodd" fill="rgb(100%, 100%, 100%)" fill-opacity="1" stroke-width="1" stroke-linecap="butt" stroke-linejoin="bevel" stroke="rgb(50.048876%, 50.048876%, 50.048876%)" stroke-opacity="1" stroke-miterlimit="10" d="M -11.777344 -15.171875 L -11.828125 -15.179688 L -12.203125 -15.214844 L -12.820312 -15.195313 L -13.464844 -14.984375 L -13.957031 -14.433594 L -14.21875 -13.425781 L -14.273438 -11.894531 L -14.21875 -9.835938 L -14.160156 -7.296875 L -14.175781 -4.394531 L -14.300781 -1.292969 L -14.542969 1.796875 L -14.871094 4.652344 L -15.242188 7.101562 L -15.59375 9.035156 L -15.882812 10.425781 L -16.082031 11.304687 L -16.179688 11.722656 L -16.191406 11.777344 L -16.203125 11.835937 L -16.3125 12.296875 L -16.496094 13.117187 L -16.652344 14.113281 L -16.582031 15.046875 L -16.050781 15.710937 L -14.847656 16.003906 L -12.898438 15.972656 L -10.253906 15.746094 L -7.078125 15.464844 L -3.589844 15.234375 L -0.0429688 15.097656 L 3.300781 15.078125 L 6.210938 15.171875 L 8.523438 15.347656 L 10.183594 15.550781 L 11.222656 15.722656 L 11.714844 15.824219 L 11.777344 15.835937 L 11.828125 15.847656 L 12.214844 15.910156 L 12.878906 15.921875 L 13.644531 15.714844 L 14.324219 15.105469 L 14.78125 13.984375 L 14.984375 12.3125 L 14.996094 10.109375 L 14.925781 7.453125 L 14.882812 4.46875 L 14.921875 1.320312 L 15.027344 -1.785156 L 15.140625 -4.652344 L 15.207031 -7.101563 L 15.199219 -9.035156 L 15.136719 -10.425781 L 15.058594 -11.304688 L 15.007812 -11.722656 L 15 -11.777344 L 14.992188 -11.828125 L 14.925781 -12.210938 L 14.753906 -12.851563 L 14.414062 -13.566406 L 13.808594 -14.183594 L 12.84375 -14.613281 L 11.433594 -14.855469 L 9.519531 -14.972656 L 7.113281 -15.027344 L 4.300781 -15.058594 L 1.253906 -15.070313 L -1.808594 -15.058594 L -4.65625 -15.027344 L -7.101562 -15.003906 L -9.035156 -15.007813 L -10.425781 -15.054688 L -11.304688 -15.121094 L -11.722656 -15.167969 L -11.777344 -15.171875 " transform="matrix(1, 0, 0, 1, 89, 185.5)"/>
<path fill-rule="evenodd" fill="rgb(100%, 100%, 100%)" fill-opacity="1" stroke-width="1" stroke-linecap="butt" stroke-linejoin="bevel" stroke="rgb(50.048876%, 50.048876%, 50.048876%)" stroke-opacity="1" stroke-miterlimit="10" d="M -32.203125 -15.03125 L -32.222656 -15.019531 L -32.363281 -14.890625 L -32.613281 -14.59375 L -32.9375 -14.082031 L -33.304688 -13.382813 L -33.710938 -12.527344 L -34.121094 -11.507813 L -34.476562 -10.199219 L -34.710938 -8.417969 L -34.800781 -6.042969 L -34.765625 -3.117188 L -34.667969 0.125 L -34.570312 3.347656 L -34.511719 6.21875 L -34.503906 8.523437 L -34.539062 10.183594 L -34.585938 11.222656 L -34.617188 11.714844 L -34.621094 11.777344 L -34.625 11.789062 L -34.628906 11.894531 L -34.640625 12.089844 L -34.644531 12.363281 L -34.628906 12.695312 L -34.585938 13.054687 L -34.503906 13.421875 L -34.367188 13.777344 L -34.171875 14.109375 L -33.910156 14.410156 L -33.578125 14.675781 L -33.167969 14.902344 L -32.679688 15.097656 L -32.101562 15.257812 L -31.429688 15.386719 L -30.652344 15.484375 L -29.757812 15.550781 L -28.734375 15.589844 L -27.566406 15.597656 L -26.246094 15.582031 L -24.769531 15.542969 L -23.125 15.488281 L -21.316406 15.425781 L -19.34375 15.359375 L -17.21875 15.292969 L -14.953125 15.234375 L -12.5625 15.179687 L -10.0625 15.136719 L -7.480469 15.101562 L -4.839844 15.078125 L -2.164062 15.066406 L 0.523438 15.0625 L 3.191406 15.066406 L 5.816406 15.078125 L 8.375 15.09375 L 10.84375 15.117187 L 13.207031 15.136719 L 15.445312 15.160156 L 17.542969 15.179687 L 19.492188 15.195312 L 21.285156 15.203125 L 22.914062 15.203125 L 24.386719 15.191406 L 25.695312 15.171875 L 26.851562 15.140625 L 27.859375 15.105469 L 28.730469 15.066406 L 29.46875 15.03125 L 30.089844 15.003906 L 30.605469 14.996094 L 31.027344 15.007812 L 31.363281 15.050781 L 31.632812 15.113281 L 31.835938 15.191406 L 31.988281 15.28125 L 32.097656 15.359375 L 32.167969 15.425781 L 32.199219 15.457031 L 32.203125 15.464844 L 32.21875 15.480469 L 32.347656 15.589844 L 32.605469 15.683594 L 32.96875 15.5625 L 33.394531 15.035156 L 33.8125 13.96875 L 34.152344 12.320312 L 34.371094 10.125 L 34.460938 7.464844 L 34.441406 4.476562 L 34.351562 1.324219 L 34.214844 -1.785156 L 34.046875 -4.652344 L 33.867188 -7.101563 L 33.703125 -9.035156 L 33.566406 -10.425781 L 33.472656 -11.304688 L 33.425781 -11.722656 L 33.417969 -11.777344 L 33.417969 -11.789063 L 33.40625 -11.902344 L 33.378906 -12.117188 L 33.34375 -12.429688 L 33.296875 -12.820313 L 33.242188 -13.269531 L 33.175781 -13.746094 L 33.097656 -14.230469 L 33.007812 -14.6875 L 32.902344 -15.089844 L 32.777344 -15.421875 L 32.617188 -15.667969 L 32.410156 -15.828125 L 32.144531 -15.902344 L 31.800781 -15.90625 L 31.359375 -15.851563 L 30.796875 -15.761719 L 30.097656 -15.648438 L 29.242188 -15.527344 L 28.207031 -15.40625 L 26.988281 -15.292969 L 25.570312 -15.191406 L 23.953125 -15.089844 L 22.136719 -14.996094 L 20.128906 -14.898438 L 17.9375 -14.800781 L 15.582031 -14.703125 L 13.082031 -14.609375 L 10.460938 -14.519531 L 7.75 -14.441406 L 4.96875 -14.382813 L 2.152344 -14.347656 L -0.664062 -14.332031 L -3.460938 -14.34375 L -6.203125 -14.375 L -8.863281 -14.425781 L -11.421875 -14.488281 L -13.851562 -14.558594 L -16.140625 -14.632813 L -18.273438 -14.710938 L -20.238281 -14.792969 L -22.027344 -14.871094 L -23.644531 -14.949219 L -25.085938 -15.027344 L -26.359375 -15.105469 L -27.464844 -15.179688 L -28.421875 -15.246094 L -29.230469 -15.300781 L -29.914062 -15.34375 L -30.476562 -15.363281 L -30.933594 -15.363281 L -31.300781 -15.335938 L -31.589844 -15.292969 L -31.8125 -15.234375 L -31.976562 -15.167969 L -32.089844 -15.109375 L -32.164062 -15.0625 L -32.199219 -15.035156 L -32.203125 -15.03125 " transform="matrix(1, 0, 0, 1, 39, 140.5)"/>
<path fill-rule="evenodd" fill="rgb(100%, 100%, 100%)" fill-opacity="1" stroke-width="1" stroke-linecap="butt" stroke-linejoin="bevel" stroke="rgb(50.048876%, 50.048876%, 50.048876%)" stroke-opacity="1" stroke-miterlimit="10" d="M -12.230469 -9.107911 L -12.242188 -9.100099 L -12.355469 -9.041505 L -12.59375 -8.908692 L -12.960938 -8.666505 L -13.414062 -8.271974 L -13.878906 -7.674317 L -14.273438 -6.818849 L -14.539062 -5.670411 L -14.679688 -4.236817 L -14.730469 -2.561036 L -14.75 -0.74463 L -14.773438 1.079589 L -14.824219 2.778808 L -14.898438 4.235839 L -14.992188 5.388183 L -15.09375 6.216308 L -15.179688 6.739745 L -15.230469 6.989745 L -15.234375 7.020995 L -15.265625 7.145995 L -15.316406 7.353026 L -15.394531 7.642089 L -15.488281 7.993651 L -15.574219 8.372558 L -15.617188 8.747558 L -15.570312 9.091308 L -15.398438 9.376464 L -15.066406 9.587401 L -14.5625 9.728026 L -13.894531 9.806151 L -13.074219 9.833495 L -12.117188 9.833495 L -11.042969 9.81787 L -9.863281 9.798339 L -8.578125 9.782714 L -7.191406 9.770995 L -5.710938 9.767089 L -4.152344 9.763183 L -2.535156 9.767089 L -0.886719 9.778808 L 0.757812 9.802245 L 2.363281 9.837401 L 3.890625 9.884276 L 5.316406 9.935058 L 6.613281 9.993651 L 7.765625 10.040526 L 8.769531 10.075683 L 9.617188 10.091308 L 10.316406 10.075683 L 10.882812 10.03662 L 11.324219 9.970214 L 11.65625 9.892089 L 11.902344 9.810058 L 12.070312 9.735839 L 12.171875 9.685058 L 12.222656 9.653808 L 12.230469 9.649901 L 12.242188 9.642089 L 12.351562 9.571776 L 12.554688 9.41162 L 12.835938 9.122558 L 13.167969 8.657714 L 13.519531 7.970214 L 13.859375 7.024901 L 14.171875 5.802245 L 14.445312 4.310058 L 14.671875 2.595214 L 14.839844 0.759276 L 14.941406 -1.072755 L 14.972656 -2.771974 L 14.953125 -4.232911 L 14.902344 -5.385255 L 14.84375 -6.21338 L 14.800781 -6.736817 L 14.78125 -6.986817 L 14.777344 -7.018067 L 14.777344 -7.033692 L 14.765625 -7.143067 L 14.746094 -7.350099 L 14.714844 -7.639161 L 14.667969 -7.986817 L 14.597656 -8.354005 L 14.488281 -8.717286 L 14.324219 -9.037599 L 14.089844 -9.295411 L 13.773438 -9.486817 L 13.355469 -9.61963 L 12.835938 -9.705567 L 12.199219 -9.768067 L 11.441406 -9.818849 L 10.554688 -9.873536 L 9.527344 -9.93213 L 8.363281 -9.982911 L 7.066406 -10.014161 L 5.640625 -10.021974 L 4.117188 -9.99463 L 2.515625 -9.943849 L 0.878906 -9.873536 L -0.761719 -9.803224 L -2.363281 -9.74463 L -3.890625 -9.705567 L -5.316406 -9.686036 L -6.613281 -9.678224 L -7.765625 -9.666505 L -8.769531 -9.643067 L -9.617188 -9.604005 L -10.316406 -9.549317 L -10.882812 -9.479005 L -11.324219 -9.40088 L -11.65625 -9.318849 L -11.902344 -9.24463 L -12.070312 -9.18213 L -12.171875 -9.135255 L -12.222656 -9.107911 L -12.230469 -9.107911 " transform="matrix(1, 0, 0, 1, 119, 242.635255)"/>
<path fill-rule="evenodd" fill="rgb(100%, 100%, 100%)" fill-opacity="1" stroke-width="1" stroke-linecap="butt" stroke-linejoin="bevel" stroke="rgb(50.048876%, 50.048876%, 50.048876%)" stroke-opacity="1" stroke-miterlimit="10" d="M -17.296875 -5.150228 L -17.3125 -5.165853 L -17.402344 -5.286946 L -17.566406 -5.56429 L -17.792969 -5.880696 L -18.09375 -5.911946 L -18.480469 -5.353353 L -18.878906 -4.169759 L -19.203125 -2.654134 L -19.386719 -1.181478 L -19.457031 0.0216475 L -19.480469 0.923991 L -19.515625 1.564616 L -19.5625 1.974772 L -19.597656 2.173991 L -19.601562 2.197429 L -19.601562 2.201335 L -19.605469 2.228679 L -19.613281 2.287272 L -19.613281 2.369304 L -19.601562 2.478679 L -19.566406 2.607585 L -19.496094 2.759929 L -19.390625 2.927897 L -19.246094 3.107585 L -19.054688 3.295085 L -18.820312 3.482585 L -18.546875 3.666179 L -18.234375 3.84196 L -17.886719 4.006022 L -17.503906 4.15446 L -17.085938 4.287272 L -16.625 4.40446 L -16.121094 4.506022 L -15.570312 4.588054 L -14.960938 4.658366 L -14.289062 4.713054 L -13.546875 4.752116 L -12.734375 4.77946 L -11.847656 4.795085 L -10.886719 4.806804 L -9.851562 4.81071 L -8.75 4.81071 L -7.582031 4.818522 L -6.363281 4.822429 L -5.09375 4.830241 L -3.789062 4.84196 L -2.457031 4.845866 L -1.109375 4.849772 L 0.242188 4.845866 L 1.585938 4.830241 L 2.910156 4.802897 L 4.207031 4.771647 L 5.460938 4.728679 L 6.667969 4.68571 L 7.820312 4.638835 L 8.910156 4.595866 L 9.929688 4.556804 L 10.875 4.52946 L 11.75 4.513835 L 12.542969 4.506022 L 13.265625 4.513835 L 13.910156 4.52946 L 14.480469 4.56071 L 14.984375 4.595866 L 15.421875 4.638835 L 15.796875 4.68571 L 16.113281 4.732585 L 16.382812 4.77946 L 16.605469 4.818522 L 16.785156 4.853679 L 16.933594 4.881022 L 17.046875 4.900554 L 17.136719 4.912272 L 17.203125 4.920085 L 17.25 4.923991 L 17.308594 4.923991 L 17.394531 4.900554 L 17.574219 4.775554 L 17.84375 4.451335 L 18.171875 3.87321 L 18.527344 3.080241 L 18.882812 2.158366 L 19.21875 1.209147 L 19.5 0.306804 L 19.636719 -0.497884 L 19.546875 -1.169759 L 19.230469 -1.681478 L 18.820312 -2.017415 L 18.535156 -2.181478 L 18.492188 -2.201009 L 18.488281 -2.204915 L 18.429688 -2.232259 L 18.324219 -2.286946 L 18.179688 -2.368978 L 18.003906 -2.466634 L 17.816406 -2.583821 L 17.628906 -2.716634 L 17.449219 -2.857259 L 17.285156 -3.009603 L 17.140625 -3.165853 L 17.011719 -3.329915 L 16.886719 -3.493978 L 16.761719 -3.661946 L 16.617188 -3.829915 L 16.445312 -3.993978 L 16.226562 -4.150228 L 15.949219 -4.294759 L 15.609375 -4.423665 L 15.191406 -4.53304 L 14.6875 -4.618978 L 14.097656 -4.685384 L 13.417969 -4.728353 L 12.652344 -4.755696 L 11.796875 -4.767415 L 10.855469 -4.771321 L 9.832031 -4.779134 L 8.738281 -4.794759 L 7.578125 -4.818196 L 6.359375 -4.861165 L 5.09375 -4.915853 L 3.785156 -4.986165 L 2.457031 -5.068196 L 1.109375 -5.15804 L -0.242188 -5.247884 L -1.585938 -5.329915 L -2.910156 -5.396321 L -4.207031 -5.451009 L -5.460938 -5.482259 L -6.667969 -5.493978 L -7.820312 -5.486165 L -8.910156 -5.458821 L -9.929688 -5.419759 L -10.875 -5.372884 L -11.75 -5.322103 L -12.542969 -5.271321 L -13.265625 -5.224446 L -13.910156 -5.181478 L -14.480469 -5.142415 L -14.984375 -5.103353 L -15.421875 -5.072103 L -15.796875 -5.040853 L -16.113281 -5.013509 L -16.382812 -4.993978 L -16.605469 -4.978353 L -16.785156 -4.978353 L -16.933594 -4.990071 L -17.046875 -5.009603 L -17.136719 -5.040853 L -17.203125 -5.076009 L -17.28125 -5.134603 L -17.296875 -5.150228 " transform="matrix(1, 0, 0, 1, 144, 171.454915)"/>
<path fill-rule="evenodd" fill="rgb(100%, 100%, 100%)" fill-opacity="1" stroke-width="1" stroke-linecap="butt" stroke-linejoin="bevel" stroke="rgb(50.048876%, 50.048876%, 50.048876%)" stroke-opacity="1" stroke-miterlimit="10" d="M -7.019531 -15.734049 L -7.035156 -15.737955 L -7.144531 -15.777018 L -7.351562 -15.855143 L -7.644531 -15.968424 L -7.996094 -16.112955 L -8.386719 -16.257486 L -8.777344 -16.34733 L -9.148438 -16.331705 L -9.46875 -16.15983 L -9.722656 -15.792643 L -9.90625 -15.226236 L -10.019531 -14.464518 L -10.078125 -13.53483 L -10.105469 -12.47233 L -10.117188 -11.296549 L -10.136719 -10.03483 L -10.171875 -8.683268 L -10.234375 -7.25358 L -10.316406 -5.745768 L -10.414062 -4.167643 L -10.519531 -2.542643 L -10.613281 -0.890299 L -10.691406 0.758139 L -10.738281 2.363607 L -10.757812 3.890951 L -10.746094 5.316732 L -10.703125 6.613607 L -10.632812 7.765951 L -10.539062 8.769857 L -10.433594 9.617514 L -10.316406 10.316732 L -10.203125 10.883139 L -10.101562 11.324545 L -10.015625 11.656576 L -9.953125 11.90267 L -9.910156 12.070639 L -9.890625 12.172201 L -9.878906 12.222982 L -9.878906 12.230795 L -9.875 12.242514 L -9.847656 12.351889 L -9.746094 12.570639 L -9.5 12.875326 L -9.039062 13.226889 L -8.308594 13.566732 L -7.289062 13.844076 L -5.976562 14.035482 L -4.410156 14.160482 L -2.644531 14.265951 L -0.78125 14.40267 L 1.066406 14.566732 L 2.773438 14.738607 L 4.234375 14.859701 L 5.386719 14.898764 L 6.214844 14.863607 L 6.738281 14.785482 L 6.988281 14.730795 L 7.035156 14.719076 L 7.132812 14.691732 L 7.320312 14.629232 L 7.585938 14.535482 L 7.898438 14.390951 L 8.242188 14.199545 L 8.585938 13.945639 L 8.90625 13.633139 L 9.183594 13.250326 L 9.40625 12.797201 L 9.570312 12.265951 L 9.679688 11.640951 L 9.746094 10.914389 L 9.78125 10.078451 L 9.804688 9.117514 L 9.828125 8.031576 L 9.859375 6.824545 L 9.894531 5.504232 L 9.933594 4.086264 L 9.976562 2.597982 L 10.007812 1.070639 L 10.03125 -0.468424 L 10.035156 -1.984049 L 10.023438 -3.444986 L 9.992188 -4.823893 L 9.949219 -6.09733 L 9.898438 -7.249674 L 9.851562 -8.269205 L 9.808594 -9.155924 L 9.785156 -9.902018 L 9.777344 -10.519205 L 9.789062 -11.019205 L 9.816406 -11.413736 L 9.847656 -11.710611 L 9.882812 -11.929361 L 9.910156 -12.081705 L 9.933594 -12.179361 L 9.941406 -12.22233 L 9.945312 -12.230143 L 9.949219 -12.241861 L 9.960938 -12.351236 L 9.917969 -12.56608 L 9.726562 -12.882486 L 9.289062 -13.300455 L 8.542969 -13.800455 L 7.472656 -14.335611 L 6.105469 -14.827799 L 4.484375 -15.194986 L 2.683594 -15.390299 L 0.792969 -15.421549 L -1.0625 -15.362955 L -2.773438 -15.304361 L -4.234375 -15.308268 L -5.386719 -15.390299 L -6.214844 -15.523111 L -6.738281 -15.648111 L -6.988281 -15.72233 L -7.019531 -15.734049 " transform="matrix(1, 0, 0, 1, 94, 112.40983)"/>
</svg>
