<?xml version="1.0" encoding="UTF-8"?>
<svg xmlns="http://www.w3.org/2000/svg" xmlns:xlink="http://www.w3.org/1999/xlink" width="217.013156pt" height="280.832816pt" viewBox="0 0 217.013156 280.832816" version="1.1">
<g id="surface4881">
<path style="fill-rule:evenodd;fill:rgb(100%,100%,100%);fill-opacity:1;stroke-width:1;stroke-linecap:butt;stroke-linejoin:bevel;stroke:rgb(50.048876%,50.048876%,50.048876%);stroke-opacity:1;stroke-miterlimit:10;" d="M -2.198893 -49.937174 L -2.202799 -49.937174 L -2.210611 -49.94108 L -2.234049 -49.948893 L -2.265299 -49.960611 L -2.308268 -49.97233 L -2.362955 -49.980143 L -2.425455 -49.987955 L -2.50358 -49.984049 L -2.589518 -49.97233 L -2.687174 -49.944986 L -2.796549 -49.905924 L -2.913736 -49.851236 L -3.042643 -49.780924 L -3.175455 -49.69108 L -3.31608 -49.585611 L -3.456705 -49.464518 L -3.601236 -49.327799 L -3.745768 -49.175455 L -3.882486 -49.011393 L -4.019205 -48.839518 L -4.144205 -48.655924 L -4.261393 -48.468424 L -4.370768 -48.277018 L -4.468424 -48.077799 L -4.550455 -47.874674 L -4.620768 -47.667643 L -4.683268 -47.460611 L -4.730143 -47.245768 L -4.765299 -47.027018 L -4.792643 -46.800455 L -4.808268 -46.56608 L -4.81608 -46.323893 L -4.819986 -46.069986 L -4.81608 -45.800455 L -4.808268 -45.515299 L -4.796549 -45.214518 L -4.78483 -44.894205 L -4.773111 -44.550455 L -4.761393 -44.183268 L -4.749674 -43.792643 L -4.745768 -43.374674 L -4.741861 -42.929361 L -4.741861 -42.456705 L -4.749674 -41.952799 L -4.757486 -41.417643 L -4.773111 -40.84733 L -4.788736 -40.245768 L -4.808268 -39.612955 L -4.831705 -38.94108 L -4.859049 -38.237955 L -4.886393 -37.499674 L -4.913736 -36.726236 L -4.94108 -35.917643 L -4.97233 -35.069986 L -4.999674 -34.19108 L -5.027018 -33.273111 L -5.054361 -32.323893 L -5.077799 -31.339518 L -5.101236 -30.319986 L -5.124674 -29.265299 L -5.148111 -28.179361 L -5.163736 -27.062174 L -5.183268 -25.913736 L -5.194986 -24.734049 L -5.202799 -23.527018 L -5.210611 -22.288736 L -5.210611 -21.027018 L -5.206705 -19.737955 L -5.198893 -18.425455 L -5.187174 -17.089518 L -5.167643 -15.734049 L -5.148111 -14.359049 L -5.124674 -12.964518 L -5.09733 -11.554361 L -5.073893 -10.132486 L -5.046549 -8.694986 L -5.023111 -7.249674 L -5.00358 -5.796549 L -4.984049 -4.335611 L -4.968424 -2.866861 L -4.956705 -1.398111 L -4.948893 0.0706387 L -4.944986 1.535482 L -4.944986 3.000326 L -4.948893 4.461264 L -4.952799 5.914389 L -4.960611 7.355795 L -4.968424 8.785482 L -4.980143 10.207357 L -4.987955 11.609701 L -4.999674 13.000326 L -5.011393 14.367514 L -5.019205 15.719076 L -5.030924 17.051107 L -5.038736 18.355795 L -5.050455 19.640951 L -5.058268 20.898764 L -5.06608 22.129232 L -5.069986 23.332357 L -5.077799 24.508139 L -5.081705 25.65267 L -5.081705 28.90267 L -5.077799 29.922201 L -5.069986 30.910482 L -5.062174 31.863607 L -5.050455 32.781576 L -5.03483 33.668295 L -5.019205 34.519857 L -4.999674 35.34017 L -4.980143 36.12142 L -4.956705 36.875326 L -4.937174 37.59017 L -4.913736 38.27767 L -4.890299 38.926107 L -4.866861 39.547201 L -4.843424 40.133139 L -4.823893 40.691732 L -4.808268 41.219076 L -4.792643 41.71517 L -4.780924 42.180014 L -4.773111 42.62142 L -4.769205 43.031576 L -4.765299 43.418295 L -4.769205 43.77767 L -4.773111 44.113607 L -4.780924 44.426107 L -4.792643 44.71517 L -4.808268 44.980795 L -4.831705 45.226889 L -4.855143 45.457357 L -4.886393 45.664389 L -4.917643 45.855795 L -4.960611 46.02767 L -5.00358 46.187826 L -5.058268 46.328451 L -5.116861 46.461264 L -5.179361 46.574545 L -5.249674 46.680014 L -5.323893 46.773764 L -5.402018 46.859701 L -5.484049 46.93392 L -5.56608 46.99642 L -5.652018 47.055014 L -5.734049 47.105795 L -5.81608 47.148764 L -5.898111 47.187826 L -5.97233 47.219076 L -6.042643 47.250326 L -6.105143 47.273764 L -6.163736 47.293295 L -6.214518 47.30892 L -6.257486 47.320639 L -6.288736 47.332357 L -6.31608 47.34017 L -6.335611 47.344076 L -6.343424 47.344076 L -6.359049 47.351889 L -6.444986 47.40267 L -6.429361 47.55892 L -6.069986 47.875326 L -5.257486 48.332357 L -4.085611 48.844076 L -2.765299 49.316732 L -1.50358 49.68392 L -0.417643 49.949545 L 0.469076 50.140951 L 1.164389 50.281576 L 1.680014 50.379232 L 2.015951 50.430014 L 2.180014 50.449545 L 2.203451 50.449545 L 2.211264 50.453451 L 2.234701 50.453451 L 2.265951 50.457357 L 2.30892 50.461264 L 2.359701 50.461264 L 2.418295 50.46517 L 2.488607 50.461264 L 2.562826 50.457357 L 2.648764 50.449545 L 2.738607 50.43392 L 2.832357 50.410482 L 2.93392 50.379232 L 3.035482 50.332357 L 3.140951 50.273764 L 3.250326 50.199545 L 3.359701 50.113607 L 3.46517 50.008139 L 3.570639 49.887045 L 3.676107 49.74642 L 3.773764 49.594076 L 3.87142 49.426107 L 3.961264 49.24642 L 4.047201 49.055014 L 4.125326 48.851889 L 4.199545 48.640951 L 4.269857 48.422201 L 4.332357 48.199545 L 4.394857 47.969076 L 4.445639 47.730795 L 4.49642 47.488607 L 4.543295 47.242514 L 4.586264 46.984701 L 4.625326 46.722982 L 4.664389 46.445639 L 4.695639 46.160482 L 4.726889 45.859701 L 4.758139 45.543295 L 4.781576 45.207357 L 4.805014 44.851889 L 4.824545 44.472982 L 4.844076 44.070639 L 4.859701 43.640951 L 4.875326 43.180014 L 4.887045 42.691732 L 4.894857 42.172201 L 4.90267 41.617514 L 4.910482 41.031576 L 4.914389 40.406576 L 4.922201 39.750326 L 4.926107 39.055014 L 4.926107 38.324545 L 4.930014 37.555014 L 4.93392 36.750326 L 4.93392 35.906576 L 4.937826 35.023764 L 4.937826 30.066732 L 4.93392 28.969076 L 4.930014 27.836264 L 4.926107 26.672201 L 4.922201 25.472982 L 4.918295 24.24642 L 4.918295 22.984701 L 4.914389 21.699545 L 4.914389 20.387045 L 4.918295 19.047201 L 4.922201 17.68392 L 4.930014 16.301107 L 4.941732 14.894857 L 4.957357 13.469076 L 4.980795 12.02767 L 5.004232 10.574545 L 5.02767 9.105795 L 5.055014 7.625326 L 5.086264 6.137045 L 5.113607 4.644857 L 5.140951 3.144857 L 5.164389 1.644857 L 5.18392 0.140951 L 5.199545 -1.359049 L 5.211264 -2.855143 L 5.219076 -4.34733 L 5.219076 -5.831705 L 5.21517 -7.304361 L 5.211264 -8.765299 L 5.199545 -10.214518 L 5.187826 -11.644205 L 5.176107 -13.058268 L 5.164389 -14.456705 L 5.15267 -15.827799 L 5.144857 -17.183268 L 5.133139 -18.511393 L 5.129232 -19.812174 L 5.12142 -21.089518 L 5.117514 -22.339518 L 5.113607 -23.558268 L 5.105795 -24.745768 L 5.101889 -25.905924 L 5.09017 -27.030924 L 5.078451 -28.124674 L 5.062826 -29.187174 L 5.043295 -30.214518 L 5.019857 -31.206705 L 4.992514 -32.163736 L 4.961264 -33.085611 L 4.930014 -33.976236 L 4.898764 -34.827799 L 4.867514 -35.644205 L 4.836264 -36.429361 L 4.80892 -37.175455 L 4.785482 -37.890299 L 4.769857 -38.569986 L 4.754232 -39.214518 L 4.74642 -39.827799 L 4.74642 -40.40983 L 4.750326 -40.960611 L 4.758139 -41.476236 L 4.769857 -41.964518 L 4.789389 -42.425455 L 4.80892 -42.855143 L 4.832357 -43.257486 L 4.855795 -43.632486 L 4.879232 -43.984049 L 4.90267 -44.308268 L 4.926107 -44.609049 L 4.949545 -44.886393 L 4.969076 -45.144205 L 4.984701 -45.382486 L 5.000326 -45.59733 L 5.015951 -45.796549 L 5.031576 -45.980143 L 5.047201 -46.144205 L 5.062826 -46.292643 L 5.086264 -46.425455 L 5.113607 -46.546549 L 5.144857 -46.655924 L 5.18392 -46.75358 L 5.230795 -46.839518 L 5.289389 -46.917643 L 5.359701 -46.987955 L 5.43392 -47.046549 L 5.519857 -47.09733 L 5.613607 -47.144205 L 5.711264 -47.183268 L 5.914389 -47.245768 L 6.012045 -47.269205 L 6.105795 -47.288736 L 6.191732 -47.304361 L 6.269857 -47.319986 L 6.332357 -47.331705 L 6.383139 -47.335611 L 6.418295 -47.343424 L 6.437826 -47.343424 L 6.469076 -47.351236 L 6.668295 -47.398111 L 6.801107 -47.546549 L 6.543295 -47.84733 L 5.730795 -48.300455 L 4.46517 -48.827799 L 3.008139 -49.304361 L 1.625326 -49.624674 L 0.46517 -49.765299 L -0.456705 -49.78483 L -1.163736 -49.773111 L -1.679361 -49.800455 L -2.015299 -49.870768 L -2.179361 -49.929361 L -2.198893 -49.937174 " transform="matrix(1,0,0,1,95.40983,112.40983)"/>
<path style="fill-rule:evenodd;fill:rgb(100%,100%,100%);fill-opacity:1;stroke-width:1;stroke-linecap:butt;stroke-linejoin:bevel;stroke:rgb(50.048876%,50.048876%,50.048876%);stroke-opacity:1;stroke-miterlimit:10;" d="M -11.777018 -24.344402 L -11.796549 -24.340496 L -11.960611 -24.297527 L -12.265299 -24.21159 L -12.675455 -24.082684 L -13.132486 -23.910809 L -13.585611 -23.692059 L -13.995768 -23.410809 L -14.327799 -23.059246 L -14.569986 -22.610027 L -14.726236 -22.043621 L -14.819986 -21.320965 L -14.862955 -20.410809 L -14.882486 -19.281902 L -14.894205 -17.914715 L -14.905924 -16.289715 L -14.90983 -14.402996 L -14.90983 -12.270184 L -14.902018 -9.914715 L -14.882486 -7.371746 L -14.859049 -4.692059 L -14.839518 -1.93034 L -14.835611 0.847004 L -14.851236 3.585285 L -14.890299 6.22591 L -14.952799 8.718098 L -15.023111 11.022785 L -15.093424 13.104816 L -15.144205 14.948566 L -15.163736 16.546223 L -15.140299 17.897785 L -15.073893 19.018879 L -14.968424 19.921223 L -14.835611 20.628254 L -14.687174 21.167316 L -14.546549 21.565754 L -14.429361 21.839191 L -14.339518 22.011066 L -14.296549 22.097004 L -14.288736 22.104816 L -14.273111 22.136066 L -14.136393 22.35091 L -13.851236 22.733723 L -13.413736 23.206379 L -12.855143 23.702473 L -12.183268 24.171223 L -11.331705 24.573566 L -10.140299 24.878254 L -8.417643 25.050129 L -6.058268 25.085285 L -3.12858 25.011066 L 0.12142 24.897785 L 3.344076 24.796223 L 6.219076 24.764973 L 8.523764 24.811848 L 10.18392 24.921223 L 11.222982 25.03841 L 11.71517 25.116535 L 11.77767 25.128254 L 11.797201 25.13216 L 11.961264 25.159504 L 12.273764 25.19466 L 12.691732 25.214191 L 13.172201 25.171223 L 13.664389 25.03841 L 14.12142 24.784504 L 14.515951 24.38216 L 14.824545 23.815754 L 15.043295 23.085285 L 15.176107 22.171223 L 15.234701 21.06966 L 15.234701 19.764973 L 15.191732 18.249348 L 15.117514 16.50716 L 15.02767 14.53841 L 14.930014 12.347004 L 14.836264 9.956379 L 14.750326 7.389973 L 14.680014 4.698566 L 14.625326 1.932941 L 14.586264 -0.848309 L 14.570639 -3.58659 L 14.574545 -6.227215 L 14.597982 -8.719402 L 14.640951 -11.02409 L 14.699545 -13.106121 L 14.769857 -14.949871 L 14.844076 -16.547527 L 14.906576 -17.89909 L 14.953451 -19.020184 L 14.976889 -19.922527 L 14.972982 -20.629559 L 14.945639 -21.168621 L 14.906576 -21.567059 L 14.859701 -21.840496 L 14.824545 -22.012371 L 14.801107 -22.098309 L 14.797201 -22.106121 L 14.793295 -22.133465 L 14.730795 -22.317059 L 14.570639 -22.645184 L 14.24642 -23.043621 L 13.668295 -23.438152 L 12.734701 -23.789715 L 11.355795 -24.074871 L 9.472982 -24.313152 L 7.086264 -24.512371 L 4.289389 -24.688152 L 1.250326 -24.832684 L -1.808268 -24.934246 L -4.655924 -24.96159 L -7.101236 -24.910809 L -9.03483 -24.781902 L -10.425455 -24.613934 L -11.304361 -24.457684 L -11.72233 -24.360027 L -11.777018 -24.344402 " transform="matrix(1,0,0,1,105.40983,251.68034)"/>
<path style="fill-rule:evenodd;fill:rgb(100%,100%,100%);fill-opacity:1;stroke-width:1;stroke-linecap:butt;stroke-linejoin:bevel;stroke:rgb(50.048876%,50.048876%,50.048876%);stroke-opacity:1;stroke-miterlimit:10;" d="M -7.019857 -25.048665 L -7.02767 -25.052571 L -7.094076 -25.060384 L -7.222982 -25.072103 L -7.410482 -25.099446 L -7.644857 -25.130696 L -7.914389 -25.165853 L -8.211264 -25.197103 L -8.512045 -25.212728 L -8.80892 -25.197103 L -9.094076 -25.130696 L -9.351889 -24.997884 L -9.582357 -24.790853 L -9.77767 -24.497884 L -9.945639 -24.118978 L -10.078451 -23.650228 L -10.187826 -23.091634 L -10.269857 -22.454915 L -10.328451 -21.732259 L -10.363607 -20.923665 L -10.379232 -20.025228 L -10.379232 -19.029134 L -10.363607 -17.931478 L -10.332357 -16.728353 L -10.289389 -15.411946 L -10.242514 -13.978353 L -10.199545 -12.43929 L -10.160482 -10.794759 L -10.129232 -9.056478 L -10.117514 -7.240071 L -10.113607 -5.361165 L -10.125326 -3.43929 L -10.140951 -1.490071 L -10.15267 0.459147 L -10.15267 2.388835 L -10.140951 4.283366 L -10.105795 6.12321 L -10.055014 7.892741 L -9.988607 9.572429 L -9.914389 11.15446 L -9.84017 12.627116 L -9.773764 13.986491 L -9.71517 15.224772 L -9.668295 16.34196 L -9.633139 17.338054 L -9.601889 18.21696 L -9.578451 18.982585 L -9.551107 19.642741 L -9.519857 20.201335 L -9.484701 20.673991 L -9.445639 21.06071 L -9.398764 21.381022 L -9.351889 21.634929 L -9.301107 21.834147 L -9.250326 21.986491 L -9.207357 22.099772 L -9.168295 22.177897 L -9.140951 22.228679 L -9.129232 22.256022 L -9.125326 22.256022 L -9.117514 22.267741 L -9.062826 22.361491 L -8.930014 22.556804 L -8.687826 22.857585 L -8.293295 23.236491 L -7.691732 23.642741 L -6.832357 24.025554 L -5.680014 24.353679 L -4.242514 24.62321 L -2.566732 24.84196 L -0.74642 25.009929 L 1.077799 25.115397 L 2.777018 25.166179 L 4.234049 25.177897 L 5.386393 25.181804 L 6.214518 25.209147 L 6.737955 25.252116 L 6.987955 25.287272 L 7.019205 25.295085 L 7.027018 25.295085 L 7.093424 25.306804 L 7.226236 25.334147 L 7.40983 25.377116 L 7.644205 25.439616 L 7.917643 25.513835 L 8.210611 25.595866 L 8.515299 25.666179 L 8.812174 25.701335 L 9.093424 25.681804 L 9.343424 25.580241 L 9.558268 25.384929 L 9.734049 25.084147 L 9.870768 24.673991 L 9.968424 24.15446 L 10.038736 23.537272 L 10.085611 22.830241 L 10.120768 22.033366 L 10.144205 21.158366 L 10.163736 20.201335 L 10.183268 19.158366 L 10.202799 18.021647 L 10.22233 16.787272 L 10.234049 15.447429 L 10.241861 14.002116 L 10.241861 12.451335 L 10.230143 10.798991 L 10.214518 9.056804 L 10.194986 7.236491 L 10.171549 5.357585 L 10.152018 3.43571 L 10.120768 -0.462728 L 10.109049 -2.392415 L 10.089518 -4.286946 L 10.069986 -6.12679 L 10.046549 -7.896321 L 10.019205 -9.576009 L 9.991861 -11.15804 L 9.968424 -12.630696 L 9.948893 -13.990071 L 9.933268 -15.228353 L 9.921549 -16.34554 L 9.913736 -17.341634 L 9.90983 -18.22054 L 9.902018 -18.986165 L 9.894205 -19.646321 L 9.890299 -20.204915 L 9.890299 -20.677571 L 9.902018 -21.06429 L 9.925455 -21.384603 L 9.968424 -21.638509 L 10.023111 -21.837728 L 10.093424 -21.990071 L 10.163736 -22.103353 L 10.230143 -22.181478 L 10.308268 -22.259603 L 10.312174 -22.259603 L 10.327799 -22.275228 L 10.464518 -22.372884 L 10.765299 -22.544759 L 11.183268 -22.763509 L 11.511393 -23.009603 L 11.437174 -23.28304 L 10.69108 -23.579915 L 9.218424 -23.888509 L 7.175455 -24.18929 L 4.827799 -24.451009 L 2.421549 -24.661946 L 0.124674 -24.806478 L -1.941732 -24.888509 L -3.699545 -24.931478 L -5.082357 -24.958821 L -6.070639 -24.986165 L -6.691732 -25.021321 L -6.984701 -25.048665 L -7.019857 -25.048665 " transform="matrix(1,0,0,1,146.59017,171.454915)"/>
<path style="fill-rule:evenodd;fill:rgb(100%,100%,100%);fill-opacity:1;stroke-width:1;stroke-linecap:butt;stroke-linejoin:bevel;stroke:rgb(50.048876%,50.048876%,50.048876%);stroke-opacity:1;stroke-miterlimit:10;" d="M -2.198893 -25.120441 L -2.202799 -25.124348 L -2.226236 -25.13216 L -2.269205 -25.147785 L -2.339518 -25.16341 L -2.433268 -25.175129 L -2.558268 -25.167316 L -2.706705 -25.13216 L -2.87858 -25.06966 L -3.077799 -24.964191 L -3.292643 -24.81966 L -3.523111 -24.636066 L -3.757486 -24.409504 L -3.991861 -24.147785 L -4.218424 -23.85091 L -4.425455 -23.530598 L -4.612955 -23.182941 L -4.777018 -22.815754 L -4.913736 -22.425129 L -5.023111 -22.014973 L -5.105143 -21.577473 L -5.163736 -21.112629 L -5.202799 -20.616535 L -5.22233 -20.077473 L -5.230143 -19.495441 L -5.22233 -18.862629 L -5.210611 -18.171223 L -5.19108 -17.425129 L -5.167643 -16.616535 L -5.140299 -15.745441 L -5.105143 -14.807941 L -5.06608 -13.811848 L -5.027018 -12.749348 L -4.980143 -11.63216 L -4.937174 -10.460285 L -4.890299 -9.237629 L -4.843424 -7.972004 L -4.804361 -6.667316 L -4.769205 -5.331379 L -4.745768 -3.968098 L -4.730143 -2.589191 L -4.72233 -1.202473 L -4.726236 0.192059 L -4.734049 1.578777 L -4.749674 2.949871 L -4.765299 4.30534 L -4.78483 5.633465 L -4.800455 6.926434 L -4.81608 8.184246 L -4.827799 9.395184 L -4.839518 10.55534 L -4.851236 11.664715 L -4.859049 12.715496 L -4.866861 13.71159 L -4.87858 14.641277 L -4.890299 15.508465 L -4.902018 16.313152 L -4.90983 17.05534 L -4.921549 17.735027 L -4.925455 18.356121 L -4.929361 18.914715 L -4.921549 19.414715 L -4.905924 19.863934 L -4.886393 20.258465 L -4.855143 20.610027 L -4.81608 20.910809 L -4.777018 21.172527 L -4.730143 21.39909 L -4.683268 21.590496 L -4.640299 21.750652 L -4.601236 21.883465 L -4.569986 21.996746 L -4.546549 22.082684 L -4.530924 22.156902 L -4.523111 22.21159 L -4.523111 22.301434 L -4.527018 22.313152 L -4.527018 22.320965 L -4.523111 22.406902 L -4.433268 22.621746 L -4.163736 23.020184 L -3.65983 23.567059 L -2.937174 24.152996 L -2.077799 24.625652 L -1.171549 24.883465 L -0.292643 24.902996 L 0.500326 24.758465 L 1.172201 24.539715 L 1.680014 24.33659 L 2.015951 24.188152 L 2.180014 24.113934 L 2.199545 24.106121 L 2.203451 24.106121 L 2.226889 24.094402 L 2.273764 24.074871 L 2.34017 24.043621 L 2.426107 24.004559 L 2.531576 23.953777 L 2.656576 23.895184 L 2.797201 23.828777 L 2.953451 23.750652 L 3.12142 23.664715 L 3.305014 23.567059 L 3.500326 23.46159 L 3.707357 23.340496 L 3.914389 23.207684 L 4.125326 23.059246 L 4.332357 22.891277 L 4.52767 22.703777 L 4.703451 22.488934 L 4.859701 22.250652 L 4.988607 21.977215 L 5.09017 21.664715 L 5.164389 21.313152 L 5.211264 20.906902 L 5.238607 20.449871 L 5.24642 19.93034 L 5.242514 19.348309 L 5.230795 18.699871 L 5.21517 17.977215 L 5.203451 17.18034 L 5.195639 16.313152 L 5.195639 14.356121 L 5.199545 13.27409 L 5.207357 12.125652 L 5.211264 10.914715 L 5.211264 8.33659 L 5.203451 6.981121 L 5.191732 5.590496 L 5.176107 4.172527 L 5.156576 2.735027 L 5.137045 1.289715 L 5.117514 -0.159504 L 5.101889 -1.60091 L 5.09017 -3.026691 L 5.078451 -4.429035 L 5.078451 -7.136066 L 5.086264 -8.429035 L 5.101889 -9.667316 L 5.12142 -10.854816 L 5.144857 -11.983723 L 5.176107 -13.050129 L 5.207357 -14.050129 L 5.24642 -14.987629 L 5.289389 -15.854816 L 5.332357 -16.655598 L 5.379232 -17.389973 L 5.430014 -18.057941 L 5.476889 -18.659504 L 5.519857 -19.202473 L 5.55892 -19.686848 L 5.59017 -20.112629 L 5.609701 -20.487629 L 5.62142 -20.815754 L 5.62142 -21.097004 L 5.613607 -21.339191 L 5.594076 -21.542316 L 5.562826 -21.714191 L 5.52767 -21.858723 L 5.488607 -21.97591 L 5.449545 -22.06966 L 5.410482 -22.147785 L 5.37142 -22.206379 L 5.34017 -22.249348 L 5.316732 -22.280598 L 5.297201 -22.300129 L 5.289389 -22.311848 L 5.27767 -22.31966 L 5.199545 -22.405598 L 4.988607 -22.639973 L 4.566732 -23.061848 L 3.918295 -23.639973 L 3.086264 -24.229816 L 2.15267 -24.686848 L 1.203451 -24.917316 L 0.305014 -24.964191 L -0.499674 -24.925129 L -1.167643 -24.909504 L -1.679361 -24.960285 L -2.015299 -25.046223 L -2.179361 -25.112629 L -2.198893 -25.120441 " transform="matrix(1,0,0,1,95.40983,29.31966)"/>
<path style="fill-rule:evenodd;fill:rgb(100%,100%,100%);fill-opacity:1;stroke-width:1;stroke-linecap:butt;stroke-linejoin:bevel;stroke:rgb(50.048876%,50.048876%,50.048876%);stroke-opacity:1;stroke-miterlimit:10;" d="M -2.199545 -5.041831 L -2.226889 -5.030112 L -2.410482 -4.924644 L -2.750326 -4.674644 L -3.176107 -4.256675 L -3.625326 -3.690269 L -4.02767 -3.0223 L -4.336264 -2.291831 L -4.523764 -1.502769 L -4.62142 -0.662925 L -4.668295 0.184731 L -4.711264 0.958169 L -4.773764 1.57145 L -4.84017 1.9777 L -4.887045 2.176919 L -4.894857 2.200356 L -4.898764 2.223794 L -4.914389 2.38395 L -4.847982 2.69645 L -4.562826 3.13395 L -3.99642 3.626138 L -3.180014 4.094888 L -2.226889 4.44645 L -1.242514 4.626138 L -0.320639 4.641763 L 0.495768 4.5402 L 1.167643 4.403481 L 1.679361 4.2902 L 2.015299 4.219888 L 2.179361 4.188638 L 2.198893 4.184731 L 2.22233 4.180825 L 2.382486 4.145669 L 2.69108 4.020669 L 3.116861 3.755044 L 3.585611 3.305825 L 4.00358 2.680825 L 4.312174 1.923013 L 4.487955 1.098794 L 4.577799 0.266763 L 4.632486 -0.506675 L 4.694986 -1.170737 L 4.773111 -1.67855 L 4.84733 -2.014487 L 4.890299 -2.17855 L 4.898111 -2.198081 L 4.902018 -2.221519 L 4.925455 -2.385581 L 4.862955 -2.721519 L 4.581705 -3.205894 L 4.015299 -3.780112 L 3.198893 -4.346519 L 2.234049 -4.811362 L 1.249674 -5.127769 L 0.323893 -5.299644 L -0.492514 -5.354331 L -1.168295 -5.319175 L -1.680014 -5.229331 L -2.015951 -5.119956 L -2.180014 -5.049644 L -2.199545 -5.041831 " transform="matrix(1,0,0,1,141.59017,265.725425)"/>
<path style="fill-rule:evenodd;fill:rgb(100%,100%,100%);fill-opacity:1;stroke-width:1;stroke-linecap:butt;stroke-linejoin:bevel;stroke:rgb(50.048876%,50.048876%,50.048876%);stroke-opacity:1;stroke-miterlimit:10;" d="M -7.019857 -10.115397 L -7.051107 -10.115397 L -7.285482 -10.103679 L -7.703451 -10.021647 L -8.222982 -9.787272 L -8.754232 -9.31071 L -9.222982 -8.541179 L -9.594076 -7.459147 L -9.863607 -6.09196 L -10.051107 -4.470866 L -10.18392 -2.673991 L -10.281576 -0.791179 L -10.347982 1.06429 L -10.383139 2.775228 L -10.383139 4.236165 L -10.351889 5.388509 L -10.305014 6.216634 L -10.258139 6.740071 L -10.230795 6.990071 L -10.222982 7.052571 L -10.180014 7.28304 L -10.055014 7.68929 L -9.769857 8.173665 L -9.258139 8.65804 L -8.472982 9.091634 L -7.40267 9.454915 L -6.047201 9.747884 L -4.445639 9.982259 L -2.660482 10.154134 L -0.785482 10.247884 L 1.06608 10.255696 L 2.773111 10.165853 L 4.234049 9.986165 L 5.386393 9.736165 L 6.214518 9.462728 L 6.737955 9.228353 L 6.987955 9.091634 L 7.019205 9.076009 L 7.054361 9.052571 L 7.331705 8.87679 L 7.823893 8.493978 L 8.448893 7.923665 L 9.081705 7.243978 L 9.616861 6.572103 L 9.964518 5.966634 L 10.109049 5.337728 L 10.081705 4.505696 L 9.968424 3.310384 L 9.859049 1.724446 L 9.78483 -0.12321 L 9.72233 -2.006022 L 9.624674 -3.709147 L 9.456705 -5.080241 L 9.234049 -6.068522 L 9.015299 -6.689616 L 8.882486 -6.982585 L 8.866861 -7.017741 L 8.84733 -7.052897 L 8.694986 -7.330241 L 8.359049 -7.822429 L 7.84733 -8.43571 L 7.230143 -9.052897 L 6.609049 -9.564616 L 6.027018 -9.90446 L 5.402018 -10.064616 L 4.554361 -10.09196 L 3.339518 -10.052897 L 1.737955 -10.006022 L -0.117514 -9.986491 L -2.008139 -10.002116 L -3.711264 -10.037272 L -5.082357 -10.076335 L -6.070639 -10.099772 L -6.691732 -10.111491 L -6.984701 -10.115397 L -7.019857 -10.115397 " transform="matrix(1,0,0,1,146.59017,214.545085)"/>
<path style="fill-rule:evenodd;fill:rgb(100%,100%,100%);fill-opacity:1;stroke-width:1;stroke-linecap:butt;stroke-linejoin:bevel;stroke:rgb(50.048876%,50.048876%,50.048876%);stroke-opacity:1;stroke-miterlimit:10;" d="M -11.777018 -14.449219 L -11.827799 -14.441406 L -12.210611 -14.378906 L -12.855143 -14.222656 L -13.581705 -13.917969 L -14.226236 -13.378906 L -14.694986 -12.503906 L -14.984049 -11.1875 L -15.132486 -9.363281 L -15.179361 -7.027344 L -15.163736 -4.261719 L -15.109049 -1.238281 L -15.027018 1.8125 L -14.94108 4.65625 L -14.859049 7.101562 L -14.796549 9.035156 L -14.749674 10.425781 L -14.718424 11.304688 L -14.702799 11.722656 L -14.698893 11.777344 L -14.694986 11.828125 L -14.667643 12.214844 L -14.562174 12.882812 L -14.292643 13.65625 L -13.749674 14.347656 L -12.831705 14.824219 L -11.44108 15.050781 L -9.530924 15.074219 L -7.124674 15 L -4.308268 14.929688 L -1.257486 14.921875 L 1.80892 14.972656 L 4.656576 15.070312 L 7.101889 15.179688 L 9.035482 15.296875 L 10.426107 15.414062 L 11.305014 15.507812 L 11.722982 15.566406 L 11.77767 15.574219 L 11.836264 15.582031 L 12.297201 15.65625 L 13.117514 15.808594 L 14.125326 15.976562 L 15.078451 15.984375 L 15.769857 15.582031 L 16.078451 14.535156 L 16.023764 12.714844 L 15.719076 10.164062 L 15.316732 7.042969 L 14.945639 3.578125 L 14.676107 0.0390625 L 14.543295 -3.300781 L 14.543295 -6.210938 L 14.648764 -8.523438 L 14.816732 -10.183594 L 14.980795 -11.222656 L 15.082357 -11.714844 L 15.094076 -11.777344 L 15.105795 -11.828125 L 15.176107 -12.214844 L 15.21517 -12.894531 L 15.062826 -13.703125 L 14.547201 -14.480469 L 13.543295 -15.113281 L 12.000326 -15.542969 L 9.910482 -15.769531 L 7.344076 -15.816406 L 4.414389 -15.730469 L 1.301107 -15.558594 L -1.792643 -15.347656 L -4.652018 -15.132812 L -7.101236 -14.933594 L -9.03483 -14.757812 L -10.425455 -14.617188 L -11.304361 -14.511719 L -11.72233 -14.457031 L -11.777018 -14.449219 " transform="matrix(1,0,0,1,105.40983,185.5)"/>
<path style="fill-rule:evenodd;fill:rgb(100%,100%,100%);fill-opacity:1;stroke-width:1;stroke-linecap:butt;stroke-linejoin:bevel;stroke:rgb(50.048876%,50.048876%,50.048876%);stroke-opacity:1;stroke-miterlimit:10;" d="M -32.202146 -16.226562 L -32.217771 -16.234375 L -32.342771 -16.28125 L -32.561521 -16.265625 L -32.846678 -16.011719 L -33.155271 -15.347656 L -33.471678 -14.167969 L -33.768553 -12.433594 L -34.026365 -10.183594 L -34.217771 -7.492188 L -34.334959 -4.484375 L -34.401365 -1.328125 L -34.452146 1.785156 L -34.530271 4.652344 L -34.651365 7.101562 L -34.807615 9.035156 L -34.967771 10.425781 L -35.092771 11.304688 L -35.163084 11.722656 L -35.170896 11.777344 L -35.174803 11.789062 L -35.190428 11.894531 L -35.217771 12.09375 L -35.241209 12.371094 L -35.249021 12.710938 L -35.221678 13.085938 L -35.139646 13.464844 L -34.991209 13.832031 L -34.772459 14.160156 L -34.471678 14.441406 L -34.084959 14.660156 L -33.616209 14.820312 L -33.061521 14.929688 L -32.420896 14.988281 L -31.686521 15.015625 L -30.850584 15.023438 L -29.909178 15.015625 L -28.842771 15.003906 L -27.643553 14.988281 L -26.299803 14.976562 L -24.803709 14.964844 L -23.147459 14.949219 L -21.327146 14.929688 L -19.350584 14.910156 L -17.221678 14.886719 L -14.956053 14.863281 L -12.561521 14.847656 L -10.061521 14.835938 L -7.47949 14.832031 L -4.838865 14.839844 L -2.163084 14.855469 L 0.524416 14.875 L 3.192385 14.898438 L 5.817385 14.921875 L 8.375979 14.941406 L 10.844729 14.964844 L 13.20801 14.984375 L 15.446291 15 L 17.543947 15.015625 L 19.493166 15.027344 L 21.286135 15.03125 L 22.915041 15.03125 L 24.387697 15.023438 L 25.696291 15.007812 L 26.852541 14.980469 L 27.860354 14.941406 L 28.731447 14.890625 L 29.469729 14.835938 L 30.090822 14.777344 L 30.606447 14.722656 L 31.028322 14.667969 L 31.36426 14.625 L 31.633791 14.589844 L 31.836916 14.5625 L 31.98926 14.546875 L 32.098635 14.539062 L 32.168947 14.535156 L 32.219729 14.535156 L 32.348635 14.519531 L 32.606447 14.4375 L 32.969729 14.195312 L 33.399416 13.683594 L 33.825197 12.785156 L 34.192385 11.414062 L 34.469729 9.519531 L 34.665041 7.117188 L 34.813479 4.304688 L 34.934572 1.257812 L 35.02051 -1.808594 L 35.032229 -4.65625 L 34.930666 -7.101562 L 34.715822 -9.035156 L 34.430666 -10.425781 L 34.165041 -11.304688 L 34.000979 -11.722656 L 33.981447 -11.777344 L 33.973635 -11.789062 L 33.922854 -11.902344 L 33.821291 -12.117188 L 33.661135 -12.429688 L 33.434572 -12.820312 L 33.14551 -13.265625 L 32.80176 -13.742188 L 32.422854 -14.21875 L 32.024416 -14.664062 L 31.641604 -15.050781 L 31.286135 -15.363281 L 30.973635 -15.578125 L 30.704104 -15.699219 L 30.45801 -15.726562 L 30.215822 -15.671875 L 29.934572 -15.558594 L 29.571291 -15.402344 L 29.086916 -15.226562 L 28.438479 -15.050781 L 27.598635 -14.894531 L 26.540041 -14.769531 L 25.258791 -14.679688 L 23.743166 -14.628906 L 22.000979 -14.609375 L 20.043947 -14.621094 L 17.887697 -14.652344 L 15.555666 -14.699219 L 13.067385 -14.75 L 10.454104 -14.796875 L 7.743166 -14.839844 L 4.965822 -14.871094 L 2.153322 -14.886719 L -0.66699 -14.890625 L -3.459959 -14.878906 L -6.202146 -14.855469 L -8.862303 -14.824219 L -11.420896 -14.792969 L -13.850584 -14.765625 L -16.139646 -14.75 L -18.272459 -14.746094 L -20.237303 -14.761719 L -22.026365 -14.792969 L -23.643553 -14.847656 L -25.084959 -14.921875 L -26.358396 -15.011719 L -27.463865 -15.113281 L -28.420896 -15.230469 L -29.22949 -15.351562 L -29.913084 -15.476562 L -30.475584 -15.601562 L -30.932615 -15.722656 L -31.299803 -15.835938 L -31.588865 -15.941406 L -31.811521 -16.03125 L -31.975584 -16.105469 L -32.088865 -16.164062 L -32.163084 -16.203125 L -32.19824 -16.222656 L -32.202146 -16.226562 " transform="matrix(1,0,0,1,39.22949,140.5)"/>
<path style="fill-rule:evenodd;fill:rgb(100%,100%,100%);fill-opacity:1;stroke-width:1;stroke-linecap:butt;stroke-linejoin:bevel;stroke:rgb(50.048876%,50.048876%,50.048876%);stroke-opacity:1;stroke-miterlimit:10;" d="M -12.230795 -11.100099 L -12.242514 -11.111817 L -12.351889 -11.174317 L -12.562826 -11.193849 L -12.855795 -11.002442 L -13.203451 -10.467286 L -13.55892 -9.52588 L -13.887045 -8.205567 L -14.156576 -6.580567 L -14.363607 -4.752442 L -14.515951 -2.811036 L -14.640951 -0.846192 L -14.758139 1.048339 L -14.906576 2.770995 L -15.101889 4.235839 L -15.351889 5.388183 L -15.633139 6.216308 L -15.879232 6.739745 L -16.023764 6.989745 L -16.043295 7.020995 L -16.055014 7.03662 L -16.113607 7.134276 L -16.203451 7.321776 L -16.281576 7.575683 L -16.297201 7.88037 L -16.195639 8.204589 L -15.945639 8.524901 L -15.535482 8.833495 L -14.972982 9.118651 L -14.273764 9.372558 L -13.46517 9.59912 L -12.566732 9.798339 L -11.594076 9.97412 L -10.547201 10.126464 L -9.426107 10.25537 L -8.222982 10.356933 L -6.93392 10.438964 L -5.562826 10.489745 L -4.117514 10.517089 L -2.613607 10.520995 L -1.078451 10.497558 L 0.464518 10.454589 L 1.984049 10.399901 L 3.444986 10.337401 L 4.823893 10.278808 L 6.09733 10.235839 L 7.249674 10.212401 L 8.269205 10.204589 L 9.155924 10.208495 L 9.902018 10.220214 L 10.519205 10.228026 L 11.019205 10.228026 L 11.413736 10.220214 L 11.710611 10.208495 L 11.929361 10.188964 L 12.081705 10.173339 L 12.179361 10.157714 L 12.22233 10.153808 L 12.230143 10.149901 L 12.245768 10.149901 L 12.366861 10.126464 L 12.581705 10.079589 L 12.855143 9.966308 L 13.171549 9.72412 L 13.527018 9.263183 L 13.905924 8.497558 L 14.273111 7.376464 L 14.573893 5.888183 L 14.757486 4.087401 L 14.808268 2.079589 L 14.757486 0.00537008 L 14.675455 -1.971192 L 14.655924 -3.701661 L 14.757486 -5.080567 L 14.97233 -6.068849 L 15.226236 -6.689942 L 15.394205 -6.982911 L 15.417643 -7.018067 L 15.425455 -7.033692 L 15.487955 -7.131349 L 15.585611 -7.318849 L 15.679361 -7.580567 L 15.714518 -7.893067 L 15.648111 -8.232911 L 15.448893 -8.572755 L 15.101236 -8.889161 L 14.605143 -9.170411 L 13.976236 -9.40088 L 13.234049 -9.580567 L 12.394205 -9.709474 L 11.468424 -9.795411 L 10.464518 -9.846192 L 9.370768 -9.873536 L 8.187174 -9.881349 L 6.913736 -9.881349 L 5.554361 -9.885255 L 4.112955 -9.896974 L 2.609049 -9.924317 L 1.073893 -9.971192 L -0.46517 -10.033692 L -1.984701 -10.104005 L -3.445639 -10.174317 L -4.824545 -10.232911 L -6.097982 -10.279786 L -7.250326 -10.311036 L -8.269857 -10.334474 L -9.156576 -10.361817 L -9.90267 -10.404786 L -10.519857 -10.467286 L -11.019857 -10.55713 L -11.414389 -10.662599 L -11.711264 -10.779786 L -11.930014 -10.893067 L -12.082357 -10.990724 L -12.180014 -11.05713 L -12.222982 -11.096192 L -12.230795 -11.100099 " transform="matrix(1,0,0,1,151.59017,242.635255)"/>
<path style="fill-rule:evenodd;fill:rgb(100%,100%,100%);fill-opacity:1;stroke-width:1;stroke-linecap:butt;stroke-linejoin:bevel;stroke:rgb(50.048876%,50.048876%,50.048876%);stroke-opacity:1;stroke-miterlimit:10;" d="M -17.297854 -4.806478 L -17.313479 -4.81429 L -17.403322 -4.884603 L -17.571291 -5.044759 L -17.817385 -5.197103 L -18.17676 -5.118978 L -18.672854 -4.583821 L -19.243166 -3.579915 L -19.766604 -2.302571 L -20.122072 -1.025228 L -20.266604 0.0685225 L -20.204104 0.93571 L -19.985354 1.564616 L -19.715822 1.974772 L -19.528322 2.173991 L -19.500979 2.197429 L -19.497072 2.201335 L -19.465822 2.228679 L -19.407229 2.287272 L -19.317385 2.37321 L -19.067385 2.62321 L -18.911135 2.787272 L -18.735354 2.974772 L -18.547854 3.177897 L -18.344729 3.392741 L -18.125979 3.615397 L -17.89551 3.838054 L -17.64551 4.052897 L -17.372072 4.256022 L -17.067385 4.439616 L -16.727541 4.599772 L -16.344729 4.732585 L -15.907229 4.830241 L -15.407229 4.892741 L -14.844729 4.923991 L -14.20801 4.923991 L -13.493166 4.896647 L -12.700197 4.849772 L -11.825197 4.791179 L -10.872072 4.732585 L -9.844729 4.677897 L -8.747072 4.631022 L -7.58301 4.603679 L -6.360354 4.595866 L -5.094729 4.603679 L -3.790041 4.627116 L -2.45801 4.662272 L -1.110354 4.705241 L 0.241209 4.752116 L 1.584959 4.795085 L 2.909178 4.838054 L 4.206053 4.87321 L 5.459959 4.90446 L 6.66699 4.931804 L 7.819334 4.955241 L 8.909178 4.970866 L 9.928709 4.986491 L 10.874021 4.99821 L 11.749021 5.006022 L 12.54199 5.013835 L 13.264646 5.017741 L 13.909178 5.021647 L 14.47949 5.025554 L 14.983396 5.033366 L 15.420896 5.045085 L 15.795896 5.06071 L 16.112303 5.088054 L 16.381834 5.12321 L 16.60449 5.166179 L 16.784178 5.213054 L 16.932615 5.259929 L 17.045896 5.302897 L 17.13574 5.34196 L 17.202146 5.369304 L 17.295896 5.416179 L 17.307615 5.420085 L 17.393553 5.431804 L 17.569334 5.338054 L 17.846678 4.994304 L 18.209959 4.334147 L 18.620115 3.412272 L 19.014646 2.357585 L 19.331053 1.306804 L 19.561521 0.34196 L 19.749021 -0.490071 L 19.975584 -1.169759 L 20.26074 -1.681478 L 20.553709 -2.017415 L 20.741209 -2.181478 L 20.768553 -2.201009 L 20.772459 -2.204915 L 20.807615 -2.232259 L 20.870115 -2.286946 L 20.940428 -2.368978 L 21.002928 -2.47054 L 21.026365 -2.587728 L 20.999021 -2.72054 L 20.905271 -2.865071 L 20.725584 -3.013509 L 20.471678 -3.161946 L 20.13574 -3.31429 L 19.737303 -3.466634 L 19.280271 -3.622884 L 18.776365 -3.779134 L 18.241209 -3.943196 L 17.678709 -4.111165 L 17.088865 -4.286946 L 16.471678 -4.462728 L 15.827146 -4.634603 L 15.143553 -4.798665 L 14.413084 -4.943196 L 13.631834 -5.06429 L 12.788084 -5.154134 L 11.881834 -5.212728 L 10.905271 -5.236165 L 9.862303 -5.232259 L 8.756834 -5.204915 L 7.584959 -5.15804 L 6.362303 -5.107259 L 5.092771 -5.052571 L 3.788084 -5.00179 L 2.456053 -4.962728 L 1.108396 -4.931478 L -0.243166 -4.911946 L -1.586916 -4.900228 L -2.911135 -4.896321 L -4.20801 -4.900228 L -5.461916 -4.904134 L -6.668947 -4.90804 L -7.821291 -4.911946 L -8.911135 -4.915853 L -9.930666 -4.923665 L -10.875979 -4.927571 L -11.750979 -4.931478 L -12.543947 -4.935384 L -13.266604 -4.931478 L -13.911135 -4.923665 L -14.481447 -4.911946 L -14.985354 -4.888509 L -15.422854 -4.857259 L -15.797854 -4.826009 L -16.11426 -4.790853 L -16.383791 -4.759603 L -16.606447 -4.736165 L -16.786135 -4.724446 L -16.934572 -4.72054 L -17.047854 -4.728353 L -17.137697 -4.743978 L -17.204104 -4.763509 L -17.250979 -4.78304 L -17.282229 -4.794759 L -17.297854 -4.806478 " transform="matrix(1,0,0,1,192.77051,171.454915)"/>
<path style="fill-rule:evenodd;fill:rgb(100%,100%,100%);fill-opacity:1;stroke-width:1;stroke-linecap:butt;stroke-linejoin:bevel;stroke:rgb(50.048876%,50.048876%,50.048876%);stroke-opacity:1;stroke-miterlimit:10;" d="M -7.019857 -14.519205 L -7.035482 -14.519205 L -7.144857 -14.515299 L -7.351889 -14.499674 L -7.644857 -14.480143 L -8.000326 -14.44108 L -8.394857 -14.374674 L -8.801107 -14.269205 L -9.18392 -14.112955 L -9.519857 -13.890299 L -9.785482 -13.589518 L -9.961264 -13.194986 L -10.051107 -12.694986 L -10.062826 -12.089518 L -10.019857 -11.355143 L -9.949545 -10.491861 L -9.879232 -9.487955 L -9.836264 -8.339518 L -9.828451 -7.050455 L -9.851889 -5.632486 L -9.894857 -4.112955 L -9.953451 -2.515299 L -10.000326 -0.87858 L -10.035482 0.762045 L -10.051107 2.363607 L -10.043295 3.890951 L -10.012045 5.316732 L -9.96517 6.613607 L -9.90267 7.765951 L -9.832357 8.769857 L -9.762045 9.617514 L -9.699545 10.316732 L -9.668295 10.883139 L -9.676107 11.324545 L -9.722982 11.656576 L -9.805014 11.90267 L -9.90267 12.070639 L -9.988607 12.172201 L -10.047201 12.230795 L -10.062826 12.242514 L -10.160482 12.355795 L -10.24642 12.59017 L -10.168295 12.937826 L -9.77767 13.351889 L -9.004232 13.758139 L -7.844076 14.086264 L -6.359701 14.301107 L -4.633139 14.418295 L -2.758139 14.480795 L -0.824545 14.515951 L 1.054361 14.535482 L 2.769205 14.543295 L 4.234049 14.539389 L 5.386393 14.551107 L 6.214518 14.586264 L 6.737955 14.640951 L 6.987955 14.676107 L 7.03483 14.687826 L 7.144205 14.707357 L 7.351236 14.754232 L 7.640299 14.836264 L 7.991861 14.941732 L 8.374674 15.05892 L 8.75358 15.144857 L 9.101236 15.160482 L 9.402018 15.051107 L 9.636393 14.793295 L 9.808268 14.355795 L 9.921549 13.74642 L 9.991861 12.972982 L 10.027018 12.055014 L 10.046549 11.004232 L 10.046549 9.84017 L 10.03483 8.566732 L 10.011393 7.18392 L 9.980143 5.711264 L 9.937174 4.15267 L 9.898111 2.535482 L 9.859049 0.887045 L 9.819986 -0.757486 L 9.780924 -2.362955 L 9.737955 -3.890299 L 9.687174 -5.31608 L 9.62858 -6.612955 L 9.573893 -7.765299 L 9.530924 -8.769205 L 9.530924 -9.616861 L 9.577799 -10.31608 L 9.683268 -10.882486 L 9.843424 -11.323893 L 10.042643 -11.655924 L 10.249674 -11.902018 L 10.44108 -12.069986 L 10.589518 -12.171549 L 10.667643 -12.22233 L 10.675455 -12.230143 L 10.698893 -12.241861 L 10.84733 -12.351236 L 11.00358 -12.558268 L 10.956705 -12.859049 L 10.53483 -13.22233 L 9.648111 -13.624674 L 8.331705 -14.019205 L 6.683268 -14.355143 L 4.81608 -14.593424 L 2.843424 -14.718424 L 0.859049 -14.741861 L -1.043295 -14.706705 L -2.765951 -14.652018 L -4.234701 -14.605143 L -5.387045 -14.569986 L -6.21517 -14.550455 L -6.738607 -14.530924 L -6.988607 -14.519205 L -7.019857 -14.519205 " transform="matrix(1,0,0,1,126.59017,112.40983)"/>
</g>
</svg>
