<?xml version="1.0" encoding="UTF-8"?>
<svg xmlns="http://www.w3.org/2000/svg" xmlns:xlink="http://www.w3.org/1999/xlink" width="168.472136pt" height="280.832816pt" viewBox="0 0 168.472136 280.832816" version="1.1">
<g id="surface23763">
<path style="fill-rule:evenodd;fill:rgb(100%,100%,100%);fill-opacity:1;stroke-width:1;stroke-linecap:butt;stroke-linejoin:bevel;stroke:rgb(50.048876%,50.048876%,50.048876%);stroke-opacity:1;stroke-miterlimit:10;" d="M -2.199219 -50.765299 L -2.234375 -50.765299 L -2.265625 -50.761393 L -2.308594 -50.75358 L -2.363281 -50.741861 L -2.429688 -50.72233 L -2.511719 -50.69108 L -2.601562 -50.644205 L -2.707031 -50.585611 L -2.820312 -50.511393 L -2.945312 -50.417643 L -3.078125 -50.308268 L -3.21875 -50.179361 L -3.363281 -50.03483 L -3.507812 -49.870768 L -3.652344 -49.694986 L -3.796875 -49.507486 L -3.929688 -49.308268 L -4.058594 -49.101236 L -4.175781 -48.886393 L -4.28125 -48.671549 L -4.371094 -48.448893 L -4.449219 -48.226236 L -4.511719 -48.00358 L -4.5625 -47.777018 L -4.601562 -47.550455 L -4.625 -47.319986 L -4.640625 -47.089518 L -4.648438 -46.851236 L -4.648438 -46.609049 L -4.644531 -46.355143 L -4.636719 -46.093424 L -4.628906 -45.819986 L -4.617188 -45.530924 L -4.609375 -45.226236 L -4.601562 -44.902018 L -4.59375 -44.558268 L -4.589844 -44.19108 L -4.585938 -43.796549 L -4.582031 -43.37858 L -4.582031 -42.456705 L -4.585938 -41.952799 L -4.585938 -41.417643 L -4.589844 -40.84733 L -4.597656 -40.245768 L -4.605469 -39.612955 L -4.613281 -38.94108 L -4.625 -38.237955 L -4.636719 -37.499674 L -4.652344 -36.726236 L -4.671875 -35.917643 L -4.691406 -35.069986 L -4.714844 -34.19108 L -4.738281 -33.273111 L -4.761719 -32.323893 L -4.785156 -31.339518 L -4.808594 -30.319986 L -4.832031 -29.265299 L -4.847656 -28.179361 L -4.863281 -27.062174 L -4.871094 -25.913736 L -4.878906 -24.734049 L -4.878906 -23.527018 L -4.875 -22.288736 L -4.867188 -21.027018 L -4.855469 -19.737955 L -4.839844 -18.425455 L -4.820312 -17.089518 L -4.800781 -15.734049 L -4.78125 -14.359049 L -4.765625 -12.964518 L -4.746094 -11.554361 L -4.730469 -10.132486 L -4.71875 -8.694986 L -4.707031 -7.249674 L -4.699219 -5.796549 L -4.695312 -4.335611 L -4.695312 -1.398111 L -4.699219 0.0706387 L -4.714844 3.000326 L -4.722656 4.461264 L -4.730469 5.914389 L -4.742188 7.355795 L -4.753906 8.785482 L -4.765625 10.207357 L -4.78125 11.609701 L -4.792969 13.000326 L -4.804688 14.367514 L -4.816406 15.719076 L -4.832031 17.051107 L -4.84375 18.355795 L -4.855469 19.640951 L -4.867188 20.898764 L -4.878906 22.129232 L -4.890625 23.332357 L -4.902344 24.508139 L -4.914062 25.65267 L -4.925781 26.765951 L -4.9375 27.851889 L -4.949219 28.90267 L -4.960938 29.922201 L -4.972656 30.910482 L -4.984375 31.863607 L -5 32.781576 L -5.011719 33.668295 L -5.027344 34.519857 L -5.042969 35.34017 L -5.058594 36.12142 L -5.074219 36.875326 L -5.089844 37.59017 L -5.109375 38.27767 L -5.128906 38.926107 L -5.148438 39.547201 L -5.167969 40.133139 L -5.1875 40.691732 L -5.210938 41.219076 L -5.234375 41.71517 L -5.253906 42.180014 L -5.273438 42.62142 L -5.292969 43.031576 L -5.3125 43.418295 L -5.328125 43.77767 L -5.34375 44.113607 L -5.355469 44.426107 L -5.363281 44.71517 L -5.371094 44.980795 L -5.378906 45.226889 L -5.382812 45.457357 L -5.386719 45.664389 L -5.386719 46.187826 L -5.390625 46.328451 L -5.390625 46.680014 L -5.394531 46.773764 L -5.402344 46.859701 L -5.410156 46.93392 L -5.421875 46.99642 L -5.4375 47.055014 L -5.457031 47.105795 L -5.484375 47.148764 L -5.515625 47.187826 L -5.585938 47.250326 L -5.625 47.273764 L -5.667969 47.293295 L -5.707031 47.30892 L -5.800781 47.34017 L -5.820312 47.344076 L -5.832031 47.344076 L -5.847656 47.351889 L -5.949219 47.398764 L -5.964844 47.547201 L -5.667969 47.84017 L -4.949219 48.285482 L -3.878906 48.816732 L -2.648438 49.34017 L -1.449219 49.77767 L -0.398438 50.109701 L 0.472656 50.355795 L 1.164062 50.55892 L 1.679688 50.730795 L 2.015625 50.867514 L 2.179688 50.945639 L 2.199219 50.957357 L 2.203125 50.957357 L 2.234375 50.972982 L 2.265625 50.984701 L 2.308594 50.99642 L 2.363281 51.004232 L 2.429688 51.004232 L 2.507812 50.99642 L 2.59375 50.972982 L 2.695312 50.93392 L 2.800781 50.879232 L 2.917969 50.797201 L 3.042969 50.695639 L 3.171875 50.570639 L 3.304688 50.426107 L 3.441406 50.258139 L 3.574219 50.074545 L 3.707031 49.87142 L 3.832031 49.65267 L 3.953125 49.426107 L 4.066406 49.191732 L 4.171875 48.945639 L 4.269531 48.699545 L 4.359375 48.453451 L 4.4375 48.203451 L 4.511719 47.953451 L 4.574219 47.703451 L 4.632812 47.453451 L 4.683594 47.199545 L 4.730469 46.945639 L 4.773438 46.687826 L 4.816406 46.422201 L 4.855469 46.148764 L 4.894531 45.863607 L 4.929688 45.566732 L 4.964844 45.254232 L 5 44.922201 L 5.035156 44.574545 L 5.070312 44.203451 L 5.105469 43.80892 L 5.132812 43.387045 L 5.164062 42.937826 L 5.1875 42.461264 L 5.210938 41.957357 L 5.230469 41.418295 L 5.246094 40.851889 L 5.257812 40.250326 L 5.261719 39.613607 L 5.265625 38.945639 L 5.265625 38.238607 L 5.261719 37.500326 L 5.25 36.726889 L 5.242188 35.918295 L 5.226562 35.070639 L 5.210938 34.191732 L 5.191406 33.273764 L 5.171875 32.324545 L 5.148438 31.34017 L 5.128906 30.320639 L 5.109375 29.265951 L 5.089844 28.180014 L 5.070312 27.062826 L 5.050781 25.914389 L 5.035156 24.734701 L 5.019531 23.52767 L 5.007812 22.289389 L 4.996094 21.02767 L 4.988281 19.738607 L 4.980469 18.426107 L 4.972656 17.09017 L 4.96875 15.734701 L 4.960938 14.359701 L 4.953125 12.96517 L 4.945312 11.555014 L 4.9375 10.133139 L 4.929688 8.695639 L 4.917969 7.250326 L 4.910156 5.797201 L 4.898438 4.336264 L 4.863281 -0.0699863 L 4.839844 -2.999674 L 4.832031 -4.460611 L 4.824219 -5.913736 L 4.820312 -7.355143 L 4.816406 -8.78483 L 4.816406 -10.206705 L 4.820312 -11.609049 L 4.824219 -12.999674 L 4.828125 -14.366861 L 4.839844 -15.718424 L 4.847656 -17.050455 L 4.863281 -18.355143 L 4.878906 -19.640299 L 4.898438 -20.898111 L 4.921875 -22.12858 L 4.945312 -23.331705 L 4.972656 -24.507486 L 5.003906 -25.652018 L 5.039062 -26.765299 L 5.074219 -27.851236 L 5.113281 -28.902018 L 5.15625 -29.921549 L 5.199219 -30.90983 L 5.246094 -31.862955 L 5.296875 -32.780924 L 5.34375 -33.667643 L 5.390625 -34.519205 L 5.4375 -35.339518 L 5.484375 -36.120768 L 5.527344 -36.874674 L 5.566406 -37.589518 L 5.605469 -38.277018 L 5.636719 -38.925455 L 5.664062 -39.546549 L 5.683594 -40.132486 L 5.703125 -40.69108 L 5.714844 -41.218424 L 5.722656 -41.714518 L 5.726562 -42.179361 L 5.726562 -42.620768 L 5.71875 -43.030924 L 5.707031 -43.417643 L 5.695312 -43.777018 L 5.675781 -44.112955 L 5.652344 -44.425455 L 5.625 -44.714518 L 5.59375 -44.980143 L 5.5625 -45.226236 L 5.527344 -45.456705 L 5.488281 -45.663736 L 5.453125 -45.855143 L 5.414062 -46.027018 L 5.378906 -46.187174 L 5.347656 -46.327799 L 5.320312 -46.460611 L 5.296875 -46.573893 L 5.28125 -46.679361 L 5.277344 -46.773111 L 5.277344 -46.859049 L 5.285156 -46.933268 L 5.300781 -46.995768 L 5.324219 -47.054361 L 5.351562 -47.105143 L 5.386719 -47.148111 L 5.425781 -47.187174 L 5.464844 -47.218424 L 5.507812 -47.249674 L 5.546875 -47.273111 L 5.585938 -47.292643 L 5.625 -47.308268 L 5.65625 -47.319986 L 5.679688 -47.331705 L 5.714844 -47.343424 L 5.722656 -47.343424 L 5.738281 -47.351236 L 5.878906 -47.390299 L 6.136719 -47.468424 L 6.363281 -47.589518 L 6.246094 -47.792643 L 5.527344 -48.085611 L 4.230469 -48.456705 L 2.660156 -48.882486 L 1.175781 -49.355143 L -0.0273438 -49.851236 L -0.929688 -50.300455 L -1.566406 -50.609049 L -1.976562 -50.741861 L -2.175781 -50.765299 L -2.199219 -50.765299 " transform="matrix(1,0,0,1,79,112.40983)"/>
<path style="fill-rule:evenodd;fill:rgb(100%,100%,100%);fill-opacity:1;stroke-width:1;stroke-linecap:butt;stroke-linejoin:bevel;stroke:rgb(50.048876%,50.048876%,50.048876%);stroke-opacity:1;stroke-miterlimit:10;" d="M -11.777344 -25.262371 L -11.800781 -25.262371 L -11.980469 -25.250652 L -12.328125 -25.227215 L -12.816406 -25.188152 L -13.40625 -25.129559 L -14.042969 -25.035809 L -14.679688 -24.891277 L -15.253906 -24.672527 L -15.730469 -24.352215 L -16.078125 -23.902996 L -16.28125 -23.301434 L -16.351562 -22.516277 L -16.308594 -21.520184 L -16.1875 -20.289715 L -16.019531 -18.801434 L -15.839844 -17.043621 L -15.660156 -15.008465 L -15.5 -12.707684 L -15.359375 -10.164715 L -15.234375 -7.426434 L -15.132812 -4.543621 L -15.046875 -1.58659 L -14.988281 1.374348 L -14.957031 4.272785 L -14.949219 7.034504 L -14.96875 9.608723 L -15 11.956379 L -15.035156 14.03841 L -15.070312 15.85091 L -15.097656 17.38216 L -15.125 18.647785 L -15.160156 19.667316 L -15.203125 20.464191 L -15.253906 21.06966 L -15.3125 21.511066 L -15.367188 21.815754 L -15.410156 22.003254 L -15.433594 22.093098 L -15.4375 22.104816 L -15.445312 22.13216 L -15.480469 22.323566 L -15.457031 22.679035 L -15.230469 23.147785 L -14.648438 23.655598 L -13.597656 24.136066 L -12.019531 24.542316 L -9.914062 24.858723 L -7.34375 25.10091 L -4.414062 25.280598 L -1.300781 25.393879 L 1.792969 25.41341 L 4.652344 25.311848 L 7.101562 25.06966 L 9.035156 24.72591 L 10.425781 24.347004 L 11.304688 24.022785 L 11.722656 23.839191 L 11.777344 23.815754 L 11.796875 23.804035 L 11.960938 23.72591 L 12.269531 23.577473 L 12.691406 23.378254 L 13.171875 23.143879 L 13.664062 22.886066 L 14.132812 22.60091 L 14.539062 22.28841 L 14.871094 21.91341 L 15.121094 21.44466 L 15.292969 20.831379 L 15.398438 20.034504 L 15.445312 19.00716 L 15.449219 17.72591 L 15.410156 16.16341 L 15.34375 14.327473 L 15.253906 12.22591 L 15.15625 9.886066 L 15.058594 7.354816 L 14.976562 4.682941 L 14.921875 1.929035 L 14.902344 -0.848309 L 14.921875 -3.58659 L 14.964844 -6.227215 L 15.027344 -8.719402 L 15.097656 -11.02409 L 15.160156 -13.106121 L 15.210938 -14.949871 L 15.246094 -16.547527 L 15.261719 -17.89909 L 15.269531 -19.020184 L 15.269531 -19.922527 L 15.273438 -20.629559 L 15.273438 -21.168621 L 15.28125 -21.567059 L 15.289062 -21.840496 L 15.292969 -22.012371 L 15.296875 -22.098309 L 15.296875 -22.133465 L 15.292969 -22.324871 L 15.207031 -22.68034 L 14.929688 -23.145184 L 14.335938 -23.652996 L 13.3125 -24.121746 L 11.796875 -24.508465 L 9.765625 -24.801434 L 7.253906 -25.016277 L 4.371094 -25.18034 L 1.28125 -25.313152 L -1.800781 -25.406902 L -4.652344 -25.449871 L -7.101562 -25.442059 L -9.035156 -25.395184 L -10.425781 -25.340496 L -11.304688 -25.293621 L -11.722656 -25.266277 L -11.777344 -25.262371 " transform="matrix(1,0,0,1,89,251.68034)"/>
<path style="fill-rule:evenodd;fill:rgb(100%,100%,100%);fill-opacity:1;stroke-width:1;stroke-linecap:butt;stroke-linejoin:bevel;stroke:rgb(50.048876%,50.048876%,50.048876%);stroke-opacity:1;stroke-miterlimit:10;" d="M -7.019531 -25.232259 L -7.027344 -25.236165 L -7.089844 -25.259603 L -7.210938 -25.294759 L -7.382812 -25.333821 L -7.597656 -25.357259 L -7.84375 -25.34554 L -8.109375 -25.28304 L -8.378906 -25.154134 L -8.648438 -24.954915 L -8.898438 -24.677571 L -9.125 -24.329915 L -9.324219 -23.90804 L -9.492188 -23.427571 L -9.628906 -22.884603 L -9.730469 -22.28304 L -9.804688 -21.622884 L -9.855469 -20.896321 L -9.882812 -20.103353 L -9.894531 -19.224446 L -9.898438 -18.259603 L -9.894531 -17.197103 L -9.886719 -16.03304 L -9.878906 -14.763509 L -9.871094 -13.388509 L -9.867188 -11.915853 L -9.867188 -10.341634 L -9.875 -8.685384 L -9.886719 -6.958821 L -9.902344 -5.173665 L -9.921875 -3.34554 L -9.945312 -1.497884 L -9.964844 0.357585 L -9.980469 2.201335 L -9.988281 4.017741 L -9.988281 5.787272 L -9.976562 7.494304 L -9.957031 9.127116 L -9.929688 10.673991 L -9.894531 12.12321 L -9.855469 13.470866 L -9.820312 14.709147 L -9.78125 15.838054 L -9.75 16.853679 L -9.71875 17.759929 L -9.691406 18.556804 L -9.664062 19.256022 L -9.644531 19.853679 L -9.621094 20.365397 L -9.605469 20.795085 L -9.59375 21.150554 L -9.589844 21.443522 L -9.585938 21.677897 L -9.59375 21.861491 L -9.601562 22.002116 L -9.609375 22.107585 L -9.621094 22.18571 L -9.632812 22.256022 L -9.632812 22.267741 L -9.640625 22.357585 L -9.59375 22.548991 L -9.410156 22.838054 L -9.003906 23.21696 L -8.308594 23.646647 L -7.304688 24.072429 L -5.996094 24.423991 L -4.421875 24.658366 L -2.652344 24.771647 L -0.78125 24.802897 L 1.066406 24.798991 L 2.773438 24.802897 L 4.234375 24.830241 L 5.386719 24.869304 L 6.214844 24.892741 L 6.738281 24.90446 L 7.019531 24.90446 L 7.027344 24.900554 L 7.089844 24.900554 L 7.214844 24.892741 L 7.390625 24.87321 L 7.613281 24.834147 L 7.875 24.763835 L 8.164062 24.65446 L 8.46875 24.49821 L 8.773438 24.291179 L 9.0625 24.033366 L 9.328125 23.724772 L 9.554688 23.361491 L 9.730469 22.947429 L 9.855469 22.478679 L 9.925781 21.951335 L 9.945312 21.357585 L 9.921875 20.693522 L 9.867188 19.951335 L 9.800781 19.115397 L 9.730469 18.18571 L 9.671875 17.146647 L 9.636719 15.99821 L 9.632812 14.740397 L 9.65625 13.37321 L 9.707031 11.90446 L 9.777344 10.334147 L 9.863281 8.681804 L 9.949219 6.955241 L 10.027344 5.170085 L 10.089844 3.34196 L 10.128906 1.494304 L 10.136719 -0.361165 L 10.121094 -2.204915 L 10.074219 -4.021321 L 10.007812 -5.790853 L 9.921875 -7.497884 L 9.828125 -9.130696 L 9.734375 -10.677571 L 9.648438 -12.12679 L 9.574219 -13.474446 L 9.519531 -14.712728 L 9.492188 -15.841634 L 9.492188 -16.857259 L 9.523438 -17.763509 L 9.582031 -18.560384 L 9.667969 -19.259603 L 9.773438 -19.857259 L 9.894531 -20.368978 L 10.027344 -20.798665 L 10.167969 -21.154134 L 10.3125 -21.447103 L 10.457031 -21.681478 L 10.59375 -21.865071 L 10.726562 -22.005696 L 10.839844 -22.111165 L 10.933594 -22.18929 L 11 -22.236165 L 11.035156 -22.259603 L 11.039062 -22.259603 L 11.058594 -22.275228 L 11.226562 -22.372884 L 11.570312 -22.544759 L 12.007812 -22.775228 L 12.300781 -23.06429 L 12.125 -23.415853 L 11.230469 -23.829915 L 9.589844 -24.243978 L 7.398438 -24.576009 L 4.941406 -24.747884 L 2.46875 -24.75179 L 0.144531 -24.665853 L -1.9375 -24.59554 L -3.695312 -24.618978 L -5.082031 -24.75179 L -6.070312 -24.93929 L -6.691406 -25.115071 L -6.984375 -25.22054 L -7.019531 -25.232259 " transform="matrix(1,0,0,1,114,171.454915)"/>
<path style="fill-rule:evenodd;fill:rgb(100%,100%,100%);fill-opacity:1;stroke-width:1;stroke-linecap:butt;stroke-linejoin:bevel;stroke:rgb(50.048876%,50.048876%,50.048876%);stroke-opacity:1;stroke-miterlimit:10;" d="M -2.199219 -25.081379 L -2.226562 -25.081379 L -2.269531 -25.077473 L -2.339844 -25.06966 L -2.429688 -25.046223 L -2.546875 -25.00716 L -2.683594 -24.94466 L -2.84375 -24.85091 L -3.019531 -24.729816 L -3.207031 -24.56966 L -3.402344 -24.38216 L -3.597656 -24.159504 L -3.785156 -23.905598 L -3.960938 -23.628254 L -4.125 -23.327473 L -4.269531 -23.003254 L -4.402344 -22.66341 L -4.515625 -22.296223 L -4.613281 -21.909504 L -4.699219 -21.495441 L -4.773438 -21.046223 L -4.84375 -20.565754 L -4.898438 -20.03841 L -4.949219 -19.468098 L -4.992188 -18.843098 L -5.023438 -18.159504 L -5.046875 -17.417316 L -5.0625 -16.612629 L -5.070312 -15.741535 L -5.074219 -14.807941 L -5.078125 -13.807941 L -5.082031 -12.749348 L -5.089844 -11.63216 L -5.105469 -10.460285 L -5.125 -9.237629 L -5.148438 -7.972004 L -5.175781 -6.667316 L -5.207031 -5.331379 L -5.234375 -3.968098 L -5.257812 -2.589191 L -5.269531 -1.202473 L -5.277344 0.192059 L -5.273438 1.578777 L -5.257812 2.949871 L -5.234375 4.30534 L -5.199219 5.633465 L -5.160156 6.926434 L -5.117188 8.184246 L -5.066406 9.395184 L -5.015625 10.55534 L -4.964844 11.664715 L -4.914062 12.715496 L -4.867188 13.71159 L -4.828125 14.641277 L -4.796875 15.508465 L -4.777344 16.313152 L -4.773438 17.05534 L -4.777344 17.735027 L -4.800781 18.356121 L -4.835938 18.914715 L -4.878906 19.414715 L -4.925781 19.863934 L -4.96875 20.258465 L -5.003906 20.610027 L -5.019531 20.910809 L -5.007812 21.172527 L -4.964844 21.39909 L -4.878906 21.590496 L -4.753906 21.750652 L -4.59375 21.883465 L -4.398438 21.996746 L -4.179688 22.082684 L -3.949219 22.156902 L -3.726562 22.21159 L -3.523438 22.254559 L -3.355469 22.281902 L -3.234375 22.301434 L -3.171875 22.313152 L -3.164062 22.313152 L -3.105469 22.320965 L -2.691406 22.402996 L -2.074219 22.598309 L -1.527344 22.934246 L -1.207031 23.387371 L -1.058594 23.891277 L -0.90625 24.371746 L -0.589844 24.80534 L -0.0703125 25.184246 L 0.5625 25.485027 L 1.179688 25.672527 L 1.679688 25.719402 L 2.015625 25.664715 L 2.179688 25.602215 L 2.199219 25.590496 L 2.203125 25.590496 L 2.226562 25.578777 L 2.269531 25.551434 L 2.332031 25.512371 L 2.410156 25.449871 L 2.507812 25.363934 L 2.617188 25.254559 L 2.738281 25.113934 L 2.867188 24.942059 L 3.003906 24.74284 L 3.148438 24.512371 L 3.292969 24.254559 L 3.445312 23.977215 L 3.59375 23.676434 L 3.742188 23.356121 L 3.890625 23.020184 L 4.03125 22.668621 L 4.171875 22.297527 L 4.308594 21.906902 L 4.4375 21.488934 L 4.566406 21.043621 L 4.6875 20.563152 L 4.808594 20.035809 L 4.921875 19.465496 L 5.027344 18.840496 L 5.128906 18.156902 L 5.222656 17.414715 L 5.308594 16.610027 L 5.378906 15.74284 L 5.441406 14.80534 L 5.492188 13.809246 L 5.527344 12.750652 L 5.546875 11.633465 L 5.554688 10.46159 L 5.550781 9.238934 L 5.53125 7.973309 L 5.503906 6.668621 L 5.472656 5.332684 L 5.433594 3.969402 L 5.394531 2.590496 L 5.359375 1.203777 L 5.324219 -0.190754 L 5.296875 -1.577473 L 5.273438 -2.948566 L 5.253906 -4.304035 L 5.234375 -5.63216 L 5.214844 -6.925129 L 5.195312 -8.182941 L 5.171875 -9.393879 L 5.144531 -10.554035 L 5.117188 -11.66341 L 5.085938 -12.714191 L 5.058594 -13.710285 L 5.035156 -14.639973 L 5.015625 -15.50716 L 5.003906 -16.311848 L 5 -17.054035 L 5 -17.733723 L 5.007812 -18.354816 L 5.011719 -18.91341 L 5.019531 -19.41341 L 5.019531 -19.862629 L 5.015625 -20.25716 L 5 -20.608723 L 4.980469 -20.909504 L 4.957031 -21.171223 L 4.925781 -21.397785 L 4.898438 -21.589191 L 4.875 -21.749348 L 4.859375 -21.88216 L 4.855469 -21.995441 L 4.855469 -22.081379 L 4.867188 -22.155598 L 4.886719 -22.210285 L 4.910156 -22.253254 L 4.929688 -22.280598 L 4.949219 -22.300129 L 4.957031 -22.311848 L 4.96875 -22.323566 L 5.074219 -22.397785 L 5.316406 -22.542316 L 5.605469 -22.761066 L 5.636719 -23.112629 L 5.113281 -23.612629 L 4 -24.182941 L 2.558594 -24.675129 L 1.140625 -24.983723 L -0.0351562 -25.10091 L -0.929688 -25.112629 L -1.566406 -25.093098 L -1.976562 -25.081379 L -2.199219 -25.081379 " transform="matrix(1,0,0,1,79,29.31966)"/>
<path style="fill-rule:evenodd;fill:rgb(100%,100%,100%);fill-opacity:1;stroke-width:1;stroke-linecap:butt;stroke-linejoin:bevel;stroke:rgb(50.048876%,50.048876%,50.048876%);stroke-opacity:1;stroke-miterlimit:10;" d="M -2.199219 -5.026206 L -2.226562 -5.006675 L -2.410156 -4.854331 L -2.742188 -4.498862 L -3.144531 -3.932456 L -3.539062 -3.244956 L -3.890625 -2.561362 L -4.226562 -1.920737 L -4.5625 -1.276206 L -4.871094 -0.561362 L -5.070312 0.215981 L -5.09375 0.965981 L -4.964844 1.57145 L -4.78125 1.9777 L -4.652344 2.176919 L -4.632812 2.200356 L -4.617188 2.223794 L -4.496094 2.376138 L -4.238281 2.657388 L -3.839844 3.00895 L -3.296875 3.395669 L -2.636719 3.770669 L -1.878906 4.114419 L -1.070312 4.399575 L -0.253906 4.610513 L 0.511719 4.735513 L 1.171875 4.7902 L 1.679688 4.7902 L 2.015625 4.770669 L 2.179688 4.755044 L 2.199219 4.751138 L 2.222656 4.751138 L 2.386719 4.712075 L 2.726562 4.575356 L 3.210938 4.251138 L 3.742188 3.704263 L 4.199219 2.958169 L 4.507812 2.083169 L 4.667969 1.173013 L 4.746094 0.294106 L 4.78125 -0.498862 L 4.765625 -1.170737 L 4.679688 -1.67855 L 4.546875 -2.014487 L 4.445312 -2.17855 L 4.433594 -2.198081 L 4.414062 -2.225425 L 4.25 -2.409019 L 3.851562 -2.748862 L 3.226562 -3.17855 L 2.515625 -3.6473 L 1.902344 -4.104331 L 1.4375 -4.526206 L 0.996094 -4.893394 L 0.4375 -5.182456 L -0.253906 -5.36605 L -0.96875 -5.409019 L -1.570312 -5.319175 L -1.976562 -5.162925 L -2.175781 -5.041831 L -2.199219 -5.026206 " transform="matrix(1,0,0,1,109,265.725425)"/>
<path style="fill-rule:evenodd;fill:rgb(100%,100%,100%);fill-opacity:1;stroke-width:1;stroke-linecap:butt;stroke-linejoin:bevel;stroke:rgb(50.048876%,50.048876%,50.048876%);stroke-opacity:1;stroke-miterlimit:10;" d="M -7.019531 -9.056804 L -7.054688 -9.056804 L -7.332031 -9.052897 L -7.824219 -9.045085 L -8.441406 -9.021647 L -9.070312 -8.916179 L -9.605469 -8.631022 L -9.988281 -8.052897 L -10.210938 -7.09196 L -10.300781 -5.732585 L -10.296875 -4.013835 L -10.246094 -2.048991 L -10.167969 0.00569628 L -10.070312 1.978353 L -9.921875 3.704915 L -9.703125 5.083821 L -9.421875 6.072103 L -9.144531 6.693196 L -8.96875 6.986165 L -8.945312 7.021321 L -8.925781 7.052571 L -8.488281 7.708821 L -8.117188 8.228353 L -7.671875 8.755696 L -7.113281 9.22054 L -6.371094 9.59554 L -5.363281 9.892415 L -4.054688 10.146321 L -2.472656 10.380696 L -0.710938 10.579915 L 1.089844 10.712728 L 2.777344 10.743978 L 4.234375 10.677571 L 5.386719 10.548665 L 6.214844 10.415853 L 6.738281 10.310384 L 6.988281 10.255696 L 7.050781 10.240071 L 7.28125 10.177571 L 7.6875 10.017415 L 8.171875 9.701009 L 8.648438 9.169759 L 9.050781 8.388509 L 9.347656 7.329915 L 9.519531 5.993978 L 9.578125 4.415853 L 9.539062 2.646321 L 9.441406 0.78304 L 9.339844 -1.064616 L 9.277344 -2.771647 L 9.28125 -4.232585 L 9.351562 -5.384929 L 9.457031 -6.213054 L 9.558594 -6.736491 L 9.617188 -6.986491 L 9.625 -7.017741 L 9.636719 -7.052897 L 9.714844 -7.330241 L 9.871094 -7.822429 L 10.0625 -8.43571 L 10.152344 -9.048991 L 9.941406 -9.548991 L 9.261719 -9.87321 L 8.054688 -10.009929 L 6.378906 -9.994304 L 4.375 -9.881022 L 2.214844 -9.724772 L 0.0507812 -9.556804 L -1.960938 -9.396647 L -3.699219 -9.259929 L -5.082031 -9.158366 L -6.070312 -9.095866 L -6.691406 -9.068522 L -6.984375 -9.056804 L -7.019531 -9.056804 " transform="matrix(1,0,0,1,114,214.545085)"/>
<path style="fill-rule:evenodd;fill:rgb(100%,100%,100%);fill-opacity:1;stroke-width:1;stroke-linecap:butt;stroke-linejoin:bevel;stroke:rgb(50.048876%,50.048876%,50.048876%);stroke-opacity:1;stroke-miterlimit:10;" d="M -11.777344 -15 L -11.828125 -15.003906 L -12.210938 -15.019531 L -12.859375 -14.976562 L -13.59375 -14.75 L -14.230469 -14.203125 L -14.664062 -13.226562 L -14.871094 -11.742188 L -14.886719 -9.734375 L -14.789062 -7.242188 L -14.648438 -4.367188 L -14.527344 -1.28125 L -14.460938 1.800781 L -14.464844 4.652344 L -14.523438 7.101562 L -14.609375 9.035156 L -14.6875 10.425781 L -14.746094 11.304688 L -14.777344 11.722656 L -14.777344 11.777344 L -14.78125 11.828125 L -14.792969 12.210938 L -14.75 12.871094 L -14.535156 13.617188 L -14.011719 14.273438 L -13.074219 14.722656 L -11.632812 14.9375 L -9.664062 14.980469 L -7.199219 14.949219 L -4.347656 14.910156 L -1.273438 14.898438 L 1.800781 14.890625 L 4.65625 14.855469 L 7.101562 14.773438 L 9.035156 14.65625 L 10.425781 14.527344 L 11.304688 14.421875 L 11.722656 14.367188 L 11.777344 14.359375 L 11.828125 14.351562 L 12.214844 14.285156 L 12.875 14.132812 L 13.640625 13.832031 L 14.339844 13.304688 L 14.855469 12.441406 L 15.152344 11.144531 L 15.257812 9.335938 L 15.226562 7.011719 L 15.121094 4.253906 L 14.976562 1.234375 L 14.832031 -1.8125 L 14.726562 -4.65625 L 14.679688 -7.101562 L 14.710938 -9.035156 L 14.796875 -10.425781 L 14.898438 -11.304688 L 14.96875 -11.722656 L 14.976562 -11.777344 L 14.988281 -11.835938 L 15.085938 -12.296875 L 15.300781 -13.121094 L 15.582031 -14.136719 L 15.75 -15.121094 L 15.503906 -15.878906 L 14.566406 -16.28125 L 12.804688 -16.332031 L 10.253906 -16.117188 L 7.101562 -15.773438 L 3.609375 -15.410156 L 0.0507812 -15.117188 L -3.300781 -14.929688 L -6.210938 -14.851562 L -8.523438 -14.855469 L -10.183594 -14.90625 L -11.222656 -14.960938 L -11.714844 -14.996094 L -11.777344 -15 " transform="matrix(1,0,0,1,89,185.5)"/>
<path style="fill-rule:evenodd;fill:rgb(100%,100%,100%);fill-opacity:1;stroke-width:1;stroke-linecap:butt;stroke-linejoin:bevel;stroke:rgb(50.048876%,50.048876%,50.048876%);stroke-opacity:1;stroke-miterlimit:10;" d="M -32.203125 -14.742188 L -32.222656 -14.738281 L -32.363281 -14.699219 L -32.609375 -14.597656 L -32.910156 -14.394531 L -33.21875 -14.03125 L -33.527344 -13.429688 L -33.828125 -12.480469 L -34.113281 -11.046875 L -34.363281 -9.023438 L -34.535156 -6.394531 L -34.613281 -3.28125 L -34.605469 0.0664062 L -34.550781 3.332031 L -34.492188 6.214844 L -34.449219 8.523438 L -34.433594 10.183594 L -34.425781 11.222656 L -34.425781 12.117188 L -34.421875 12.429688 L -34.421875 12.820312 L -34.410156 13.273438 L -34.390625 13.753906 L -34.355469 14.246094 L -34.289062 14.71875 L -34.183594 15.144531 L -34.027344 15.507812 L -33.808594 15.796875 L -33.519531 16.007812 L -33.144531 16.140625 L -32.671875 16.210938 L -32.097656 16.226562 L -31.402344 16.203125 L -30.574219 16.152344 L -29.605469 16.082031 L -28.476562 15.996094 L -27.179688 15.90625 L -25.699219 15.808594 L -24.039062 15.707031 L -22.191406 15.601562 L -20.160156 15.496094 L -17.957031 15.386719 L -15.59375 15.285156 L -13.089844 15.183594 L -10.464844 15.09375 L -7.75 15.011719 L -4.96875 14.9375 L -2.152344 14.875 L 0.664062 14.824219 L 3.460938 14.785156 L 6.203125 14.761719 L 8.863281 14.753906 L 11.421875 14.761719 L 13.851562 14.785156 L 16.140625 14.820312 L 18.273438 14.867188 L 20.238281 14.921875 L 22.027344 14.980469 L 23.644531 15.042969 L 25.085938 15.105469 L 26.359375 15.167969 L 27.464844 15.230469 L 28.421875 15.289062 L 29.230469 15.339844 L 29.914062 15.382812 L 30.476562 15.410156 L 30.933594 15.429688 L 31.300781 15.429688 L 31.589844 15.421875 L 31.8125 15.402344 L 31.976562 15.378906 L 32.089844 15.355469 L 32.164062 15.335938 L 32.199219 15.328125 L 32.203125 15.324219 L 32.21875 15.320312 L 32.347656 15.269531 L 32.597656 15.121094 L 32.949219 14.78125 L 33.359375 14.152344 L 33.78125 13.132812 L 34.148438 11.644531 L 34.417969 9.65625 L 34.5625 7.191406 L 34.59375 4.339844 L 34.542969 1.269531 L 34.46875 -1.804688 L 34.453125 -4.65625 L 34.5625 -7.101562 L 34.820312 -9.035156 L 35.175781 -10.425781 L 35.523438 -11.304688 L 35.742188 -11.722656 L 35.769531 -11.777344 L 35.777344 -11.789062 L 35.84375 -11.902344 L 35.984375 -12.117188 L 36.203125 -12.429688 L 36.507812 -12.820312 L 36.882812 -13.261719 L 37.3125 -13.734375 L 37.742188 -14.199219 L 38.121094 -14.628906 L 38.382812 -15 L 38.472656 -15.289062 L 38.34375 -15.488281 L 37.972656 -15.601562 L 37.355469 -15.636719 L 36.503906 -15.609375 L 35.453125 -15.546875 L 34.230469 -15.464844 L 32.871094 -15.386719 L 31.398438 -15.320312 L 29.824219 -15.277344 L 28.152344 -15.253906 L 26.378906 -15.253906 L 24.492188 -15.269531 L 22.480469 -15.296875 L 20.339844 -15.328125 L 18.0625 -15.359375 L 15.652344 -15.386719 L 13.121094 -15.40625 L 10.480469 -15.417969 L 7.757812 -15.421875 L 4.972656 -15.417969 L 2.15625 -15.414062 L -0.664062 -15.40625 L -3.460938 -15.402344 L -6.203125 -15.402344 L -8.863281 -15.40625 L -11.421875 -15.410156 L -13.851562 -15.417969 L -16.140625 -15.417969 L -18.273438 -15.410156 L -20.238281 -15.386719 L -22.027344 -15.347656 L -23.644531 -15.292969 L -25.085938 -15.226562 L -26.359375 -15.15625 L -27.464844 -15.082031 L -28.421875 -15.011719 L -29.230469 -14.953125 L -29.914062 -14.90625 L -30.476562 -14.871094 L -30.933594 -14.847656 L -31.300781 -14.828125 L -31.589844 -14.8125 L -31.8125 -14.792969 L -31.976562 -14.777344 L -32.089844 -14.761719 L -32.164062 -14.75 L -32.199219 -14.742188 L -32.203125 -14.742188 " transform="matrix(1,0,0,1,39,140.5)"/>
<path style="fill-rule:evenodd;fill:rgb(100%,100%,100%);fill-opacity:1;stroke-width:1;stroke-linecap:butt;stroke-linejoin:bevel;stroke:rgb(50.048876%,50.048876%,50.048876%);stroke-opacity:1;stroke-miterlimit:10;" d="M -12.230469 -10.865724 L -12.242188 -10.885255 L -12.351562 -11.014161 L -12.558594 -11.139161 L -12.847656 -11.05713 L -13.210938 -10.596192 L -13.621094 -9.68213 L -14.046875 -8.346192 L -14.453125 -6.686036 L -14.792969 -4.814942 L -15.054688 -2.842286 L -15.234375 -0.857911 L -15.359375 1.044433 L -15.457031 2.767089 L -15.53125 4.235839 L -15.578125 5.388183 L -15.597656 6.216308 L -15.589844 6.739745 L -15.582031 6.989745 L -15.578125 7.020995 L -15.578125 7.03662 L -15.570312 7.145995 L -15.550781 7.353026 L -15.515625 7.642089 L -15.445312 7.993651 L -15.328125 8.368651 L -15.152344 8.735839 L -14.90625 9.063964 L -14.578125 9.325683 L -14.160156 9.50537 L -13.648438 9.606933 L -13.046875 9.642089 L -12.34375 9.634276 L -11.53125 9.614745 L -10.609375 9.59912 L -9.558594 9.606933 L -8.378906 9.649901 L -7.074219 9.720214 L -5.644531 9.813964 L -4.117188 9.91162 L -2.519531 10.009276 L -0.878906 10.087401 L 0.761719 10.145995 L 2.363281 10.177245 L 3.890625 10.185058 L 5.316406 10.177245 L 6.613281 10.153808 L 7.765625 10.126464 L 8.769531 10.091308 L 9.617188 10.060058 L 10.316406 10.03662 L 10.882812 10.028808 L 11.324219 10.03662 L 11.65625 10.063964 L 11.902344 10.103026 L 12.070312 10.149901 L 12.171875 10.188964 L 12.222656 10.212401 L 12.230469 10.216308 L 12.242188 10.220214 L 12.355469 10.259276 L 12.601562 10.247558 L 12.984375 10.075683 L 13.484375 9.622558 L 14.042969 8.829589 L 14.578125 7.69287 L 15.015625 6.247558 L 15.3125 4.56787 L 15.464844 2.72412 L 15.496094 0.810058 L 15.421875 -1.05713 L 15.28125 -2.768067 L 15.101562 -4.232911 L 14.914062 -5.385255 L 14.753906 -6.21338 L 14.640625 -6.736817 L 14.582031 -6.986817 L 14.542969 -7.143067 L 14.492188 -7.350099 L 14.414062 -7.643067 L 14.308594 -7.998536 L 14.175781 -8.389161 L 14.007812 -8.787599 L 13.804688 -9.166505 L 13.558594 -9.498536 L 13.253906 -9.771974 L 12.878906 -9.979005 L 12.421875 -10.115724 L 11.863281 -10.193849 L 11.183594 -10.229005 L 10.367188 -10.236817 L 9.402344 -10.229005 L 8.285156 -10.221192 L 7.019531 -10.21338 L 5.617188 -10.201661 L 4.105469 -10.18213 L 2.511719 -10.146974 L 0.875 -10.08838 L -0.761719 -10.010255 L -2.363281 -9.908692 L -3.890625 -9.799317 L -5.316406 -9.693849 L -6.613281 -9.615724 L -7.765625 -9.572755 L -8.769531 -9.576661 L -9.617188 -9.635255 L -10.316406 -9.74463 L -10.882812 -9.896974 L -11.324219 -10.080567 L -11.65625 -10.283692 L -11.902344 -10.482911 L -12.070312 -10.654786 L -12.171875 -10.787599 L -12.222656 -10.857911 L -12.230469 -10.865724 " transform="matrix(1,0,0,1,119,242.635255)"/>
<path style="fill-rule:evenodd;fill:rgb(100%,100%,100%);fill-opacity:1;stroke-width:1;stroke-linecap:butt;stroke-linejoin:bevel;stroke:rgb(50.048876%,50.048876%,50.048876%);stroke-opacity:1;stroke-miterlimit:10;" d="M -17.296875 -4.818196 L -17.3125 -4.81429 L -17.402344 -4.798665 L -17.566406 -4.755696 L -17.789062 -4.622884 L -18.097656 -4.302571 L -18.488281 -3.716634 L -18.90625 -2.872884 L -19.265625 -1.868978 L -19.496094 -0.829915 L -19.617188 0.131022 L -19.6875 0.947429 L -19.757812 1.568522 L -19.835938 1.974772 L -19.886719 2.173991 L -19.890625 2.197429 L -19.894531 2.201335 L -19.898438 2.228679 L -19.910156 2.287272 L -19.914062 2.37321 L -19.90625 2.486491 L -19.871094 2.631022 L -19.800781 2.798991 L -19.6875 2.990397 L -19.523438 3.201335 L -19.316406 3.420085 L -19.058594 3.646647 L -18.757812 3.877116 L -18.417969 4.099772 L -18.039062 4.31071 L -17.628906 4.506022 L -17.183594 4.681804 L -16.703125 4.830241 L -16.179688 4.955241 L -15.613281 5.048991 L -14.988281 5.111491 L -14.308594 5.142741 L -13.558594 5.146647 L -12.742188 5.127116 L -11.851562 5.09196 L -10.890625 5.045085 L -9.855469 4.990397 L -8.75 4.93571 L -7.585938 4.881022 L -6.363281 4.830241 L -5.09375 4.783366 L -3.789062 4.740397 L -2.457031 4.705241 L -1.109375 4.677897 L 0.242188 4.658366 L 1.585938 4.650554 L 2.910156 4.65446 L 4.207031 4.666179 L 5.460938 4.681804 L 6.667969 4.705241 L 7.820312 4.724772 L 8.910156 4.740397 L 9.929688 4.74821 L 12.542969 4.74821 L 13.265625 4.759929 L 13.910156 4.77946 L 14.480469 4.818522 L 14.984375 4.877116 L 15.421875 4.951335 L 15.796875 5.045085 L 16.113281 5.146647 L 16.382812 5.252116 L 16.605469 5.357585 L 16.785156 5.463054 L 16.933594 5.556804 L 17.046875 5.638835 L 17.136719 5.709147 L 17.203125 5.767741 L 17.25 5.81071 L 17.3125 5.87321 L 17.402344 5.970866 L 17.570312 6.138835 L 17.8125 6.21696 L 18.175781 5.959147 L 18.679688 5.181804 L 19.257812 3.931804 L 19.769531 2.470866 L 20.089844 1.088054 L 20.191406 -0.0564775 L 20.140625 -0.935384 L 20.039062 -1.568196 L 19.953125 -1.978353 L 19.910156 -2.177571 L 19.902344 -2.201009 L 19.902344 -2.204915 L 19.894531 -2.236165 L 19.882812 -2.294759 L 19.863281 -2.380696 L 19.835938 -2.490071 L 19.800781 -2.622884 L 19.753906 -2.779134 L 19.691406 -2.951009 L 19.605469 -3.134603 L 19.492188 -3.333821 L 19.34375 -3.540853 L 19.160156 -3.747884 L 18.933594 -3.958821 L 18.667969 -4.161946 L 18.359375 -4.357259 L 18.003906 -4.536946 L 17.605469 -4.701009 L 17.160156 -4.841634 L 16.664062 -4.962728 L 16.113281 -5.060384 L 15.503906 -5.138509 L 14.824219 -5.193196 L 14.074219 -5.228353 L 13.246094 -5.247884 L 12.339844 -5.255696 L 11.347656 -5.259603 L 10.277344 -5.263509 L 9.132812 -5.267415 L 7.917969 -5.271321 L 6.636719 -5.28304 L 5.308594 -5.298665 L 3.9375 -5.310384 L 2.539062 -5.322103 L 1.125 -5.329915 L -0.289062 -5.329915 L -1.695312 -5.318196 L -3.078125 -5.298665 L -4.425781 -5.267415 L -5.722656 -5.228353 L -6.96875 -5.181478 L -8.148438 -5.130696 L -9.257812 -5.072103 L -10.289062 -5.013509 L -11.242188 -4.958821 L -12.113281 -4.90804 L -12.902344 -4.868978 L -13.605469 -4.837728 L -14.234375 -4.818196 L -14.785156 -4.81429 L -15.261719 -4.818196 L -15.671875 -4.826009 L -16.019531 -4.837728 L -16.3125 -4.84554 L -16.550781 -4.853353 L -16.75 -4.853353 L -16.90625 -4.849446 L -17.03125 -4.84554 L -17.128906 -4.837728 L -17.199219 -4.829915 L -17.25 -4.822103 L -17.28125 -4.818196 L -17.296875 -4.818196 " transform="matrix(1,0,0,1,144,171.454915)"/>
<path style="fill-rule:evenodd;fill:rgb(100%,100%,100%);fill-opacity:1;stroke-width:1;stroke-linecap:butt;stroke-linejoin:bevel;stroke:rgb(50.048876%,50.048876%,50.048876%);stroke-opacity:1;stroke-miterlimit:10;" d="M -7.019531 -14.714518 L -7.035156 -14.702799 L -7.132812 -14.62858 L -7.3125 -14.480143 L -7.558594 -14.277018 L -7.839844 -14.027018 L -8.128906 -13.741861 L -8.402344 -13.437174 L -8.644531 -13.105143 L -8.855469 -12.745768 L -9.027344 -12.34733 L -9.160156 -11.886393 L -9.261719 -11.339518 L -9.335938 -10.69108 L -9.386719 -9.921549 L -9.429688 -9.015299 L -9.46875 -7.968424 L -9.515625 -6.788736 L -9.578125 -5.484049 L -9.652344 -4.077799 L -9.738281 -2.593424 L -9.832031 -1.06608 L -9.917969 0.469076 L -9.992188 1.984701 L -10.046875 3.445639 L -10.074219 4.824545 L -10.089844 6.097982 L -10.089844 8.269857 L -10.105469 9.156576 L -10.132812 9.90267 L -10.183594 10.519857 L -10.253906 11.019857 L -10.332031 11.414389 L -10.410156 11.711264 L -10.476562 11.930014 L -10.527344 12.082357 L -10.5625 12.180014 L -10.582031 12.222982 L -10.582031 12.230795 L -10.589844 12.24642 L -10.636719 12.367514 L -10.707031 12.582357 L -10.738281 12.859701 L -10.609375 13.18392 L -10.171875 13.551107 L -9.316406 13.953451 L -8.007812 14.347982 L -6.304688 14.680014 L -4.316406 14.890951 L -2.183594 14.96517 L -0.0390625 14.941732 L 1.964844 14.894857 L 3.703125 14.898764 L 5.082031 15.000326 L 6.070312 15.187826 L 6.691406 15.394857 L 6.984375 15.531576 L 7.019531 15.551107 L 7.035156 15.55892 L 7.144531 15.617514 L 7.351562 15.74642 L 7.640625 15.945639 L 7.992188 16.211264 L 8.371094 16.500326 L 8.75 16.754232 L 9.097656 16.887045 L 9.398438 16.828451 L 9.636719 16.523764 L 9.816406 15.953451 L 9.941406 15.133139 L 10.019531 14.109701 L 10.0625 12.930014 L 10.082031 11.640951 L 10.085938 10.269857 L 10.070312 8.836264 L 10.046875 7.347982 L 10.015625 5.797201 L 9.972656 4.195639 L 9.921875 2.555014 L 9.867188 0.894857 L 9.8125 -0.75358 L 9.769531 -2.359049 L 9.738281 -3.890299 L 9.730469 -5.31608 L 9.753906 -6.612955 L 9.8125 -7.765299 L 9.910156 -8.769205 L 10.039062 -9.616861 L 10.195312 -10.31608 L 10.359375 -10.882486 L 10.515625 -11.323893 L 10.644531 -11.655924 L 10.742188 -11.902018 L 10.804688 -12.069986 L 10.839844 -12.171549 L 10.855469 -12.22233 L 10.855469 -12.230143 L 10.859375 -12.245768 L 10.886719 -12.366861 L 10.898438 -12.581705 L 10.816406 -12.859049 L 10.539062 -13.179361 L 9.964844 -13.546549 L 9.039062 -13.944986 L 7.738281 -14.34733 L 6.097656 -14.72233 L 4.191406 -15.054361 L 2.121094 -15.339518 L 0.015625 -15.562174 L -1.972656 -15.698893 L -3.703125 -15.698893 L -5.082031 -15.538736 L -6.070312 -15.249674 L -6.691406 -14.94108 L -6.984375 -14.741861 L -7.019531 -14.714518 " transform="matrix(1,0,0,1,94,112.40983)"/>
</g>
</svg>
