<?xml version="1.0" encoding="UTF-8"?>
<svg xmlns="http://www.w3.org/2000/svg" xmlns:xlink="http://www.w3.org/1999/xlink" width="217.013156pt" height="248.472136pt" viewBox="0 0 217.013156 248.472136" version="1.1">
<g id="surface425">
<path style="fill-rule:evenodd;fill:rgb(100%,100%,100%);fill-opacity:1;stroke-width:1;stroke-linecap:butt;stroke-linejoin:bevel;stroke:rgb(50.048876%,50.048876%,50.048876%);stroke-opacity:1;stroke-miterlimit:10;" d="M -2.198893 -49.542969 L -2.202799 -49.542969 L -2.210611 -49.539062 L -2.234049 -49.53125 L -2.265299 -49.519531 L -2.308268 -49.5 L -2.362955 -49.480469 L -2.433268 -49.449219 L -2.515299 -49.410156 L -2.605143 -49.363281 L -2.710611 -49.308594 L -2.827799 -49.246094 L -2.956705 -49.171875 L -3.089518 -49.089844 L -3.234049 -48.996094 L -3.382486 -48.894531 L -3.530924 -48.785156 L -3.683268 -48.667969 L -3.831705 -48.542969 L -3.976236 -48.414062 L -4.112955 -48.277344 L -4.245768 -48.136719 L -4.370768 -47.992188 L -4.487955 -47.84375 L -4.593424 -47.691406 L -4.687174 -47.53125 L -4.777018 -47.367188 L -4.851236 -47.199219 L -4.921549 -47.023438 L -4.984049 -46.835938 L -5.038736 -46.640625 L -5.081705 -46.433594 L -5.124674 -46.214844 L -5.15983 -45.980469 L -5.187174 -45.730469 L -5.210611 -45.460938 L -5.230143 -45.167969 L -5.245768 -44.859375 L -5.257486 -44.523438 L -5.265299 -44.164062 L -5.269205 -43.777344 L -5.269205 -43.363281 L -5.265299 -42.921875 L -5.257486 -42.449219 L -5.249674 -41.949219 L -5.234049 -41.414062 L -5.218424 -40.847656 L -5.198893 -40.246094 L -5.183268 -39.609375 L -5.163736 -38.941406 L -5.144205 -38.238281 L -5.12858 -37.5 L -5.116861 -36.726562 L -5.105143 -35.917969 L -5.09733 -35.070312 L -5.09733 -33.273438 L -5.101236 -32.324219 L -5.109049 -31.339844 L -5.120768 -30.320312 L -5.132486 -29.265625 L -5.144205 -28.179688 L -5.15983 -27.0625 L -5.171549 -25.914062 L -5.183268 -24.734375 L -5.194986 -23.527344 L -5.202799 -22.289062 L -5.206705 -21.027344 L -5.202799 -19.738281 L -5.198893 -18.425781 L -5.19108 -17.089844 L -5.179361 -15.734375 L -5.163736 -14.359375 L -5.144205 -12.964844 L -5.120768 -11.554688 L -5.093424 -10.132812 L -5.06608 -8.695312 L -5.038736 -7.25 L -5.015299 -5.796875 L -4.987955 -4.335938 L -4.948893 -1.398438 L -4.933268 0.0703125 L -4.921549 1.535156 L -4.917643 3 L -4.917643 4.460938 L -4.921549 5.914062 L -4.933268 7.355469 L -4.944986 8.785156 L -4.960611 10.207031 L -4.980143 11.609375 L -4.999674 13 L -5.019205 14.367188 L -5.042643 15.71875 L -5.062174 17.050781 L -5.081705 18.355469 L -5.09733 19.640625 L -5.109049 20.898438 L -5.120768 22.128906 L -5.12858 23.332031 L -5.132486 24.507812 L -5.136393 25.652344 L -5.132486 26.765625 L -5.12858 27.851562 L -5.120768 28.902344 L -5.109049 29.921875 L -5.093424 30.910156 L -5.077799 31.863281 L -5.054361 32.78125 L -5.030924 33.667969 L -4.999674 34.519531 L -4.968424 35.339844 L -4.937174 36.121094 L -4.902018 36.875 L -4.866861 37.589844 L -4.827799 38.277344 L -4.796549 38.925781 L -4.765299 39.546875 L -4.737955 40.132812 L -4.714518 40.691406 L -4.698893 41.21875 L -4.69108 41.714844 L -4.69108 42.179688 L -4.698893 42.621094 L -4.710611 43.03125 L -4.730143 43.417969 L -4.757486 43.777344 L -4.78483 44.113281 L -4.81608 44.425781 L -4.84733 44.714844 L -4.882486 44.980469 L -4.913736 45.226562 L -4.94108 45.457031 L -4.964518 45.664062 L -4.984049 45.855469 L -4.999674 46.027344 L -5.011393 46.1875 L -5.015299 46.328125 L -5.015299 46.460938 L -5.011393 46.574219 L -4.999674 46.679688 L -4.980143 46.773438 L -4.960611 46.859375 L -4.933268 46.933594 L -4.898111 46.996094 L -4.859049 47.054688 L -4.81608 47.105469 L -4.769205 47.148438 L -4.718424 47.1875 L -4.616861 47.25 L -4.562174 47.273438 L -4.511393 47.292969 L -4.464518 47.308594 L -4.425455 47.320312 L -4.390299 47.332031 L -4.362955 47.339844 L -4.343424 47.34375 L -4.331705 47.34375 L -4.308268 47.351562 L -3.683268 47.476562 L -3.050455 47.628906 L -2.370768 47.914062 L -1.808268 48.332031 L -1.386393 48.800781 L -0.976236 49.179688 L -0.433268 49.382812 L 0.254232 49.398438 L 0.969076 49.265625 L 1.570639 49.039062 L 1.976889 48.789062 L 2.176107 48.617188 L 2.199545 48.59375 L 2.203451 48.59375 L 2.211264 48.582031 L 2.234701 48.5625 L 2.265951 48.535156 L 2.305014 48.496094 L 2.359701 48.449219 L 2.422201 48.394531 L 2.492514 48.335938 L 2.574545 48.273438 L 2.664389 48.207031 L 2.758139 48.136719 L 2.863607 48.066406 L 2.976889 47.992188 L 3.09017 47.921875 L 3.211264 47.847656 L 3.332357 47.777344 L 3.457357 47.707031 L 3.582357 47.632812 L 3.707357 47.5625 L 3.949545 47.414062 L 4.066732 47.335938 L 4.18392 47.253906 L 4.293295 47.167969 L 4.40267 47.070312 L 4.504232 46.964844 L 4.597982 46.851562 L 4.687826 46.726562 L 4.769857 46.585938 L 4.844076 46.433594 L 4.910482 46.261719 L 4.969076 46.074219 L 5.019857 45.863281 L 5.062826 45.636719 L 5.094076 45.386719 L 5.12142 45.113281 L 5.140951 44.8125 L 5.15267 44.488281 L 5.156576 44.136719 L 5.156576 43.347656 L 5.148764 42.910156 L 5.140951 42.441406 L 5.129232 41.941406 L 5.12142 41.410156 L 5.109701 40.84375 L 5.097982 40.242188 L 5.086264 39.609375 L 5.074545 38.941406 L 5.066732 38.238281 L 5.055014 37.5 L 5.047201 36.726562 L 5.035482 35.914062 L 5.02767 35.070312 L 5.019857 34.191406 L 5.008139 33.273438 L 4.99642 32.324219 L 4.984701 31.339844 L 4.972982 30.320312 L 4.957357 29.265625 L 4.941732 28.179688 L 4.926107 27.0625 L 4.910482 25.914062 L 4.894857 24.734375 L 4.879232 23.527344 L 4.863607 22.289062 L 4.851889 21.027344 L 4.84017 19.738281 L 4.836264 18.425781 L 4.832357 17.089844 L 4.832357 15.734375 L 4.836264 14.359375 L 4.844076 12.964844 L 4.855795 11.554688 L 4.87142 10.132812 L 4.890951 8.695312 L 4.910482 7.25 L 4.930014 5.796875 L 4.953451 4.335938 L 4.976889 2.867188 L 5.015951 -0.0703125 L 5.035482 -1.535156 L 5.051107 -3 L 5.062826 -4.460938 L 5.070639 -5.914062 L 5.078451 -7.355469 L 5.078451 -10.207031 L 5.074545 -11.609375 L 5.066732 -13 L 5.05892 -14.367188 L 5.047201 -15.71875 L 5.039389 -17.050781 L 5.02767 -18.355469 L 5.019857 -19.640625 L 5.012045 -20.898438 L 5.008139 -22.128906 L 5.004232 -23.332031 L 5.004232 -24.507812 L 5.008139 -25.652344 L 5.012045 -26.765625 L 5.015951 -27.851562 L 5.023764 -28.902344 L 5.031576 -29.921875 L 5.035482 -30.910156 L 5.043295 -31.863281 L 5.051107 -32.78125 L 5.055014 -33.667969 L 5.05892 -34.519531 L 5.062826 -35.339844 L 5.070639 -36.121094 L 5.074545 -36.875 L 5.082357 -37.589844 L 5.094076 -38.277344 L 5.105795 -38.925781 L 5.117514 -39.546875 L 5.133139 -40.132812 L 5.148764 -40.691406 L 5.168295 -41.21875 L 5.187826 -41.714844 L 5.211264 -42.179688 L 5.230795 -42.621094 L 5.250326 -43.03125 L 5.269857 -43.417969 L 5.285482 -43.777344 L 5.301107 -44.113281 L 5.316732 -44.425781 L 5.324545 -44.714844 L 5.332357 -44.980469 L 5.332357 -45.457031 L 5.328451 -45.664062 L 5.316732 -45.855469 L 5.305014 -46.027344 L 5.289389 -46.1875 L 5.269857 -46.328125 L 5.24642 -46.460938 L 5.222982 -46.574219 L 5.195639 -46.679688 L 5.168295 -46.773438 L 5.140951 -46.859375 L 5.117514 -46.933594 L 5.09017 -46.996094 L 5.066732 -47.054688 L 5.047201 -47.105469 L 5.031576 -47.148438 L 5.019857 -47.1875 L 5.008139 -47.21875 L 5.000326 -47.25 L 4.99642 -47.273438 L 4.99642 -47.320312 L 5.000326 -47.332031 L 5.000326 -47.339844 L 5.004232 -47.34375 L 5.004232 -47.351562 L 4.99642 -47.402344 L 4.887045 -47.558594 L 4.566732 -47.878906 L 3.976889 -48.355469 L 3.156576 -48.914062 L 2.207357 -49.421875 L 1.234701 -49.777344 L 0.316732 -49.9375 L -0.495768 -49.933594 L -1.167643 -49.835938 L -1.679361 -49.710938 L -2.015299 -49.605469 L -2.179361 -49.550781 L -2.198893 -49.542969 " transform="matrix(1,0,0,1,95.40983,104)"/>
<path style="fill-rule:evenodd;fill:rgb(100%,100%,100%);fill-opacity:1;stroke-width:1;stroke-linecap:butt;stroke-linejoin:bevel;stroke:rgb(50.048876%,50.048876%,50.048876%);stroke-opacity:1;stroke-miterlimit:10;" d="M -11.777018 -25.265625 L -11.796549 -25.265625 L -11.960611 -25.277344 L -12.265299 -25.285156 L -12.667643 -25.265625 L -13.120768 -25.1875 L -13.56608 -25.019531 L -13.960611 -24.734375 L -14.277018 -24.3125 L -14.507486 -23.742188 L -14.648111 -23.007812 L -14.726236 -22.105469 L -14.75358 -21.015625 L -14.757486 -19.722656 L -14.75358 -18.21875 L -14.75358 -16.488281 L -14.769205 -14.527344 L -14.792643 -12.339844 L -14.831705 -9.949219 L -14.874674 -7.390625 L -14.925455 -4.699219 L -14.980143 -1.933594 L -15.03483 0.847656 L -15.101236 3.585938 L -15.167643 6.226562 L -15.237955 8.71875 L -15.304361 11.023438 L -15.362955 13.105469 L -15.398111 14.949219 L -15.413736 16.546875 L -15.40983 17.898438 L -15.394205 19.019531 L -15.382486 19.921875 L -15.37858 20.628906 L -15.390299 21.167969 L -15.421549 21.566406 L -15.456705 21.839844 L -15.491861 22.011719 L -15.515299 22.097656 L -15.519205 22.105469 L -15.527018 22.136719 L -15.601236 22.351562 L -15.773111 22.734375 L -15.999674 23.195312 L -16.105143 23.664062 L -15.792643 24.085938 L -14.78483 24.445312 L -12.948893 24.738281 L -10.339518 24.988281 L -7.148111 25.210938 L -3.62858 25.417969 L -0.0582676 25.597656 L 3.297201 25.71875 L 6.211264 25.757812 L 8.523764 25.714844 L 10.18392 25.617188 L 11.222982 25.511719 L 11.71517 25.445312 L 11.77767 25.4375 L 11.797201 25.433594 L 11.961264 25.410156 L 12.262045 25.347656 L 12.65267 25.242188 L 13.074545 25.074219 L 13.484701 24.828125 L 13.836264 24.484375 L 14.109701 24.035156 L 14.305014 23.464844 L 14.441732 22.753906 L 14.531576 21.882812 L 14.601889 20.835938 L 14.660482 19.589844 L 14.719076 18.125 L 14.769857 16.425781 L 14.820639 14.488281 L 14.863607 12.316406 L 14.898764 9.9375 L 14.93392 7.382812 L 14.969076 4.695312 L 15.008139 1.933594 L 15.043295 -0.847656 L 15.074545 -3.585938 L 15.094076 -6.226562 L 15.101889 -8.71875 L 15.09017 -11.023438 L 15.066732 -13.105469 L 15.035482 -14.949219 L 15.012045 -16.546875 L 15.012045 -17.898438 L 15.051107 -19.019531 L 15.140951 -19.921875 L 15.281576 -20.628906 L 15.46517 -21.167969 L 15.668295 -21.566406 L 15.859701 -21.839844 L 16.012045 -22.011719 L 16.094076 -22.097656 L 16.105795 -22.105469 L 16.133139 -22.132812 L 16.305014 -22.320312 L 16.480795 -22.667969 L 16.410482 -23.105469 L 15.851889 -23.574219 L 14.672201 -24.011719 L 12.855795 -24.375 L 10.476889 -24.644531 L 7.668295 -24.824219 L 4.574545 -24.929688 L 1.363607 -24.984375 L -1.773111 -25.015625 L -4.648111 -25.035156 L -7.101236 -25.070312 L -9.03483 -25.117188 L -10.425455 -25.175781 L -11.304361 -25.226562 L -11.72233 -25.261719 L -11.777018 -25.265625 " transform="matrix(1,0,0,1,105.40983,219)"/>
<path style="fill-rule:evenodd;fill:rgb(100%,100%,100%);fill-opacity:1;stroke-width:1;stroke-linecap:butt;stroke-linejoin:bevel;stroke:rgb(50.048876%,50.048876%,50.048876%);stroke-opacity:1;stroke-miterlimit:10;" d="M -7.019857 -24.863281 L -7.09017 -24.863281 L -7.211264 -24.859375 L -7.375326 -24.839844 L -7.578451 -24.804688 L -7.805014 -24.738281 L -8.043295 -24.632812 L -8.285482 -24.484375 L -8.515951 -24.28125 L -8.734701 -24.027344 L -8.941732 -23.722656 L -9.133139 -23.359375 L -9.30892 -22.949219 L -9.469076 -22.480469 L -9.617514 -21.953125 L -9.750326 -21.363281 L -9.87142 -20.699219 L -9.972982 -19.953125 L -10.05892 -19.117188 L -10.129232 -18.1875 L -10.176107 -17.148438 L -10.211264 -16 L -10.222982 -14.742188 L -10.226889 -13.378906 L -10.219076 -11.90625 L -10.199545 -10.335938 L -10.176107 -8.683594 L -10.144857 -6.957031 L -10.109701 -5.171875 L -10.066732 -3.34375 L -10.012045 -1.496094 L -9.953451 0.359375 L -9.883139 2.203125 L -9.80892 4.019531 L -9.726889 5.789062 L -9.644857 7.496094 L -9.566732 9.128906 L -9.492514 10.675781 L -9.426107 12.125 L -9.37142 13.472656 L -9.328451 14.710938 L -9.297201 15.839844 L -9.273764 16.855469 L -9.265951 17.761719 L -9.269857 18.558594 L -9.293295 19.257812 L -9.332357 19.855469 L -9.398764 20.367188 L -9.492514 20.796875 L -9.617514 21.152344 L -9.769857 21.445312 L -9.945639 21.679688 L -10.140951 21.863281 L -10.336264 22.003906 L -10.515951 22.109375 L -10.672201 22.1875 L -10.785482 22.234375 L -10.847982 22.257812 L -10.855795 22.257812 L -10.883139 22.269531 L -11.082357 22.363281 L -11.312826 22.558594 L -11.328451 22.863281 L -10.918295 23.269531 L -9.99642 23.734375 L -8.605795 24.199219 L -6.867514 24.597656 L -4.926107 24.890625 L -2.898764 25.082031 L -0.883139 25.199219 L 1.03483 25.292969 L 2.765299 25.425781 L 4.234049 25.625 L 5.386393 25.886719 L 6.214518 26.179688 L 6.737955 26.429688 L 6.987955 26.574219 L 7.019205 26.59375 L 7.027018 26.601562 L 7.089518 26.636719 L 7.206705 26.699219 L 7.374674 26.769531 L 7.573893 26.816406 L 7.792643 26.8125 L 8.023111 26.738281 L 8.257486 26.566406 L 8.487955 26.292969 L 8.714518 25.917969 L 8.937174 25.445312 L 9.152018 24.886719 L 9.362955 24.257812 L 9.56608 23.570312 L 9.75358 22.835938 L 9.921549 22.050781 L 10.062174 21.21875 L 10.167643 20.335938 L 10.234049 19.390625 L 10.261393 18.375 L 10.249674 17.273438 L 10.202799 16.082031 L 10.136393 14.792969 L 10.050455 13.40625 L 9.968424 11.921875 L 9.890299 10.347656 L 9.831705 8.6875 L 9.796549 6.960938 L 9.788736 5.171875 L 9.804361 3.347656 L 9.843424 1.496094 L 9.898111 -0.359375 L 9.960611 -2.203125 L 10.023111 -4.019531 L 10.077799 -5.789062 L 10.12858 -7.496094 L 10.163736 -9.128906 L 10.187174 -10.675781 L 10.198893 -12.125 L 10.202799 -13.472656 L 10.198893 -14.710938 L 10.183268 -15.839844 L 10.167643 -16.855469 L 10.144205 -17.761719 L 10.116861 -18.558594 L 10.089518 -19.257812 L 10.06608 -19.855469 L 10.050455 -20.367188 L 10.042643 -20.796875 L 10.050455 -21.152344 L 10.073893 -21.445312 L 10.105143 -21.679688 L 10.152018 -21.863281 L 10.202799 -22.003906 L 10.25358 -22.109375 L 10.296549 -22.1875 L 10.331705 -22.234375 L 10.34733 -22.257812 L 10.351236 -22.257812 L 10.362955 -22.273438 L 10.448893 -22.371094 L 10.636393 -22.542969 L 10.874674 -22.777344 L 10.995768 -23.0625 L 10.765299 -23.410156 L 9.987955 -23.8125 L 8.612955 -24.21875 L 6.745768 -24.550781 L 4.577799 -24.757812 L 2.304361 -24.835938 L 0.0856113 -24.832031 L -1.953451 -24.808594 L -3.699545 -24.804688 L -5.082357 -24.820312 L -6.070639 -24.84375 L -6.691732 -24.859375 L -6.984701 -24.863281 L -7.019857 -24.863281 " transform="matrix(1,0,0,1,146.59017,159)"/>
<path style="fill-rule:evenodd;fill:rgb(100%,100%,100%);fill-opacity:1;stroke-width:1;stroke-linecap:butt;stroke-linejoin:bevel;stroke:rgb(50.048876%,50.048876%,50.048876%);stroke-opacity:1;stroke-miterlimit:10;" d="M -2.198893 -25.195312 L -2.202799 -25.195312 L -2.226236 -25.1875 L -2.269205 -25.171875 L -2.417643 -25.097656 L -2.523111 -25.03125 L -2.640299 -24.945312 L -2.777018 -24.828125 L -2.929361 -24.683594 L -3.089518 -24.507812 L -3.257486 -24.304688 L -3.429361 -24.078125 L -3.601236 -23.820312 L -3.773111 -23.546875 L -3.937174 -23.25 L -4.093424 -22.933594 L -4.234049 -22.597656 L -4.362955 -22.242188 L -4.468424 -21.863281 L -4.558268 -21.457031 L -4.62858 -21.019531 L -4.683268 -20.542969 L -4.714518 -20.023438 L -4.734049 -19.457031 L -4.737955 -18.832031 L -4.734049 -18.152344 L -4.726236 -17.414062 L -4.714518 -16.609375 L -4.706705 -15.738281 L -4.706705 -14.804688 L -4.718424 -13.808594 L -4.737955 -12.75 L -4.769205 -11.632812 L -4.81608 -10.460938 L -4.870768 -9.238281 L -4.929361 -7.972656 L -4.995768 -6.667969 L -5.058268 -5.332031 L -5.112955 -3.96875 L -5.15983 -2.589844 L -5.194986 -1.203125 L -5.210611 0.191406 L -5.210611 1.578125 L -5.194986 2.949219 L -5.163736 4.304688 L -5.120768 5.632812 L -5.06608 6.925781 L -5.007486 8.183594 L -4.944986 9.394531 L -4.886393 10.554688 L -4.827799 11.664062 L -4.773111 12.714844 L -4.726236 13.710938 L -4.683268 14.640625 L -4.648111 15.507812 L -4.616861 16.3125 L -4.593424 17.054688 L -4.569986 17.734375 L -4.554361 18.355469 L -4.538736 18.914062 L -4.530924 19.414062 L -4.527018 19.863281 L -4.523111 20.257812 L -4.523111 20.609375 L -4.527018 20.910156 L -4.53483 21.171875 L -4.538736 21.398438 L -4.538736 21.75 L -4.53483 21.882812 L -4.527018 21.996094 L -4.515299 22.082031 L -4.495768 22.15625 L -4.480143 22.210938 L -4.464518 22.253906 L -4.448893 22.28125 L -4.437174 22.300781 L -4.421549 22.324219 L -4.359049 22.398438 L -4.19108 22.535156 L -3.890299 22.730469 L -3.452799 23.019531 L -2.898111 23.425781 L -2.241861 23.90625 L -1.491861 24.375 L -0.65983 24.75 L 0.18392 25.03125 L 0.957357 25.277344 L 1.570639 25.539062 L 1.976889 25.792969 L 2.176107 25.953125 L 2.199545 25.976562 L 2.203451 25.976562 L 2.226889 25.996094 L 2.269857 26.03125 L 2.336264 26.070312 L 2.422201 26.101562 L 2.52767 26.113281 L 2.648764 26.09375 L 2.789389 26.027344 L 2.941732 25.910156 L 3.105795 25.738281 L 3.273764 25.507812 L 3.445639 25.222656 L 3.617514 24.890625 L 3.785482 24.519531 L 3.945639 24.113281 L 4.094076 23.683594 L 4.238607 23.234375 L 4.367514 22.769531 L 4.484701 22.292969 L 4.59017 21.796875 L 4.680014 21.28125 L 4.762045 20.742188 L 4.828451 20.167969 L 4.883139 19.5625 L 4.926107 18.90625 L 4.957357 18.203125 L 4.980795 17.445312 L 4.99642 16.632812 L 5.004232 15.753906 L 5.004232 11.632812 L 5.008139 10.460938 L 5.015951 9.238281 L 5.023764 7.972656 L 5.035482 6.667969 L 5.051107 5.332031 L 5.066732 3.96875 L 5.082357 2.589844 L 5.097982 1.203125 L 5.109701 -0.191406 L 5.12142 -1.578125 L 5.129232 -2.949219 L 5.137045 -4.304688 L 5.137045 -6.925781 L 5.133139 -8.183594 L 5.125326 -9.394531 L 5.117514 -10.554688 L 5.109701 -11.664062 L 5.094076 -12.714844 L 5.082357 -13.710938 L 5.066732 -14.640625 L 5.047201 -15.507812 L 5.031576 -16.3125 L 5.015951 -17.054688 L 5.000326 -17.734375 L 4.984701 -18.355469 L 4.976889 -18.914062 L 4.976889 -19.414062 L 4.984701 -19.863281 L 5.004232 -20.257812 L 5.035482 -20.609375 L 5.082357 -20.910156 L 5.140951 -21.171875 L 5.211264 -21.398438 L 5.293295 -21.589844 L 5.379232 -21.75 L 5.46517 -21.882812 L 5.547201 -21.996094 L 5.625326 -22.082031 L 5.691732 -22.15625 L 5.750326 -22.210938 L 5.793295 -22.253906 L 5.824545 -22.28125 L 5.945639 -22.402344 L 6.035482 -22.546875 L 5.99642 -22.792969 L 5.629232 -23.214844 L 4.816732 -23.828125 L 3.629232 -24.53125 L 2.281576 -25.128906 L 1.000326 -25.480469 L -0.0817051 -25.570312 L -0.937174 -25.496094 L -1.569986 -25.371094 L -1.976236 -25.265625 L -2.175455 -25.203125 L -2.198893 -25.195312 " transform="matrix(1,0,0,1,95.40983,29)"/>
<path style="fill-rule:evenodd;fill:rgb(100%,100%,100%);fill-opacity:1;stroke-width:1;stroke-linecap:butt;stroke-linejoin:bevel;stroke:rgb(50.048876%,50.048876%,50.048876%);stroke-opacity:1;stroke-miterlimit:10;" d="M -2.199545 -5.039062 L -2.222982 -5.042969 L -2.387045 -5.058594 L -2.734701 -4.980469 L -3.254232 -4.675781 L -3.90267 -4.085938 L -4.566732 -3.242188 L -5.117514 -2.257812 L -5.461264 -1.257812 L -5.597982 -0.328125 L -5.605795 0.492188 L -5.597982 1.167969 L -5.65267 1.679688 L -5.754232 2.015625 L -5.832357 2.179688 L -5.844076 2.199219 L -5.855795 2.222656 L -5.914389 2.386719 L -5.87142 2.726562 L -5.531576 3.21875 L -4.805014 3.796875 L -3.758139 4.347656 L -2.570639 4.78125 L -1.410482 5.0625 L -0.383139 5.226562 L 0.476236 5.304688 L 1.163736 5.332031 L 1.679361 5.3125 L 2.015299 5.269531 L 2.179361 5.234375 L 2.198893 5.230469 L 2.226236 5.222656 L 2.40983 5.164062 L 2.757486 5 L 3.218424 4.683594 L 3.745768 4.171875 L 4.261393 3.472656 L 4.644205 2.632812 L 4.804361 1.703125 L 4.749674 0.75 L 4.601236 -0.160156 L 4.507486 -0.953125 L 4.538736 -1.570312 L 4.652018 -1.976562 L 4.745768 -2.175781 L 4.761393 -2.199219 L 4.773111 -2.222656 L 4.835611 -2.382812 L 4.835611 -2.699219 L 4.612955 -3.148438 L 4.073893 -3.675781 L 3.257486 -4.195312 L 2.277018 -4.621094 L 1.273111 -4.890625 L 0.331705 -5 L -0.492514 -5.003906 L -1.168295 -4.976562 L -1.680014 -4.972656 L -2.015951 -5.003906 L -2.180014 -5.035156 L -2.199545 -5.039062 " transform="matrix(1,0,0,1,141.59017,229)"/>
<path style="fill-rule:evenodd;fill:rgb(100%,100%,100%);fill-opacity:1;stroke-width:1;stroke-linecap:butt;stroke-linejoin:bevel;stroke:rgb(50.048876%,50.048876%,50.048876%);stroke-opacity:1;stroke-miterlimit:10;" d="M -7.019857 -10.855469 L -7.055014 -10.871094 L -7.332357 -10.980469 L -7.824545 -11.199219 L -8.43392 -11.445312 L -9.035482 -11.539062 L -9.500326 -11.238281 L -9.750326 -10.351562 L -9.77767 -8.863281 L -9.648764 -6.894531 L -9.46517 -4.652344 L -9.324545 -2.335938 L -9.262045 -0.09375 L -9.258139 1.949219 L -9.265951 3.699219 L -9.242514 5.082031 L -9.191732 6.070312 L -9.129232 6.691406 L -9.086264 6.984375 L -9.078451 7.019531 L -9.074545 7.054688 L -9.023764 7.332031 L -8.906576 7.828125 L -8.707357 8.453125 L -8.40267 9.109375 L -7.969076 9.699219 L -7.359701 10.148438 L -6.500326 10.425781 L -5.312826 10.527344 L -3.769857 10.507812 L -1.937826 10.433594 L 0.0465488 10.398438 L 1.987955 10.4375 L 3.706705 10.546875 L 5.081705 10.667969 L 6.069986 10.746094 L 6.69108 10.769531 L 6.984049 10.765625 L 7.019205 10.761719 L 7.054361 10.761719 L 7.331705 10.738281 L 7.823893 10.65625 L 8.429361 10.449219 L 9.027018 10.054688 L 9.511393 9.421875 L 9.835611 8.515625 L 10.015299 7.3125 L 10.101236 5.808594 L 10.136393 4.03125 L 10.148111 2.046875 L 10.140299 -0.0078125 L 10.124674 -1.976562 L 10.124674 -3.703125 L 10.148111 -5.082031 L 10.194986 -6.070312 L 10.241861 -6.691406 L 10.269205 -6.984375 L 10.277018 -7.054688 L 10.312174 -7.332031 L 10.374674 -7.824219 L 10.421549 -8.441406 L 10.339518 -9.070312 L 9.976236 -9.597656 L 9.19108 -9.960938 L 7.944986 -10.148438 L 6.280924 -10.179688 L 4.312174 -10.121094 L 2.179361 -10.039062 L 0.0387363 -9.992188 L -1.96517 -10.027344 L -3.703451 -10.152344 L -5.082357 -10.34375 L -6.070639 -10.558594 L -6.691732 -10.738281 L -6.984701 -10.84375 L -7.019857 -10.855469 " transform="matrix(1,0,0,1,146.59017,194)"/>
<path style="fill-rule:evenodd;fill:rgb(100%,100%,100%);fill-opacity:1;stroke-width:1;stroke-linecap:butt;stroke-linejoin:bevel;stroke:rgb(50.048876%,50.048876%,50.048876%);stroke-opacity:1;stroke-miterlimit:10;" d="M -11.777018 -14.742188 L -11.827799 -14.730469 L -12.214518 -14.632812 L -12.894205 -14.417969 L -13.698893 -14.042969 L -14.448893 -13.445312 L -15.007486 -12.527344 L -15.323893 -11.191406 L -15.44108 -9.355469 L -15.448893 -7.019531 L -15.448893 -4.257812 L -15.484049 -1.234375 L -15.546549 1.8125 L -15.573893 4.65625 L -15.507486 7.101562 L -15.323893 9.035156 L -15.06608 10.425781 L -14.812174 11.304688 L -14.655924 11.722656 L -14.636393 11.777344 L -14.612955 11.828125 L -14.448893 12.210938 L -14.136393 12.871094 L -13.675455 13.617188 L -13.042643 14.269531 L -12.152018 14.703125 L -10.890299 14.902344 L -9.148111 14.933594 L -6.898111 14.890625 L -4.194986 14.839844 L -1.210611 14.785156 L 1.820639 14.691406 L 4.660482 14.539062 L 7.101889 14.34375 L 9.035482 14.164062 L 10.426107 14.042969 L 11.305014 13.992188 L 11.722982 13.980469 L 11.828451 13.980469 L 12.207357 13.96875 L 12.84017 13.902344 L 13.52767 13.699219 L 14.082357 13.253906 L 14.418295 12.445312 L 14.539389 11.171875 L 14.535482 9.367188 L 14.500326 7.03125 L 14.512045 4.265625 L 14.594076 1.242188 L 14.738607 -1.8125 L 14.922201 -4.65625 L 15.137045 -7.101562 L 15.363607 -9.035156 L 15.586264 -10.425781 L 15.765951 -11.304688 L 15.87142 -11.722656 L 15.883139 -11.777344 L 15.898764 -11.835938 L 16.031576 -12.296875 L 16.297201 -13.121094 L 16.613607 -14.125 L 16.762045 -15.085938 L 16.422201 -15.78125 L 15.316732 -16.09375 L 13.34017 -16.039062 L 10.586264 -15.753906 L 7.27767 -15.417969 L 3.68392 -15.164062 L 0.0784512 -15.058594 L -3.292643 -15.0625 L -6.206705 -15.097656 L -8.523111 -15.082031 L -10.183268 -14.988281 L -11.22233 -14.851562 L -11.714518 -14.757812 L -11.777018 -14.742188 " transform="matrix(1,0,0,1,105.40983,169)"/>
<path style="fill-rule:evenodd;fill:rgb(100%,100%,100%);fill-opacity:1;stroke-width:1;stroke-linecap:butt;stroke-linejoin:bevel;stroke:rgb(50.048876%,50.048876%,50.048876%);stroke-opacity:1;stroke-miterlimit:10;" d="M -32.202146 -15.960938 L -32.217771 -15.976562 L -32.346678 -16.054688 L -32.592771 -16.09375 L -32.936521 -15.902344 L -33.346678 -15.292969 L -33.776365 -14.148438 L -34.178709 -12.4375 L -34.506834 -10.191406 L -34.749021 -7.5 L -34.913084 -4.492188 L -35.030271 -1.332031 L -35.131834 1.785156 L -35.241209 4.648438 L -35.366209 7.101562 L -35.487303 9.035156 L -35.588865 10.425781 L -35.663084 11.304688 L -35.69824 11.722656 L -35.702146 11.777344 L -35.706053 11.789062 L -35.713865 11.902344 L -35.733396 12.117188 L -35.76074 12.429688 L -35.79199 12.820312 L -35.819334 13.265625 L -35.831053 13.742188 L -35.815428 14.222656 L -35.752928 14.671875 L -35.627928 15.066406 L -35.424803 15.390625 L -35.127928 15.632812 L -34.72949 15.789062 L -34.225584 15.871094 L -33.612303 15.882812 L -32.88574 15.847656 L -32.045896 15.78125 L -31.081053 15.699219 L -29.991209 15.609375 L -28.76074 15.519531 L -27.377928 15.441406 L -25.838865 15.367188 L -24.127928 15.304688 L -22.249021 15.242188 L -20.194334 15.183594 L -17.975584 15.128906 L -15.60449 15.078125 L -13.092771 15.03125 L -10.467771 15 L -7.749021 14.980469 L -4.967771 14.988281 L -2.155271 15.015625 L 0.665041 15.066406 L 3.461916 15.136719 L 6.204104 15.21875 L 8.86426 15.296875 L 11.422854 15.367188 L 13.852541 15.417969 L 16.141604 15.445312 L 18.274416 15.449219 L 20.23926 15.433594 L 22.028322 15.402344 L 23.64551 15.363281 L 25.086916 15.328125 L 26.360354 15.296875 L 27.465822 15.265625 L 28.422854 15.230469 L 29.231447 15.1875 L 29.915041 15.125 L 30.477541 15.039062 L 30.934572 14.929688 L 31.30176 14.796875 L 31.590822 14.65625 L 31.813479 14.507812 L 31.977541 14.371094 L 32.090822 14.257812 L 32.165041 14.175781 L 32.200197 14.132812 L 32.204104 14.128906 L 32.219729 14.109375 L 32.348635 13.953125 L 32.606447 13.664062 L 32.973635 13.25 L 33.411135 12.683594 L 33.868166 11.871094 L 34.278322 10.691406 L 34.61426 9.027344 L 34.868166 6.832031 L 35.055666 4.164062 L 35.192385 1.199219 L 35.290041 -1.824219 L 35.344729 -4.660156 L 35.360354 -7.101562 L 35.344729 -9.035156 L 35.313479 -10.425781 L 35.286135 -11.304688 L 35.27051 -11.722656 L 35.266604 -11.777344 L 35.266604 -11.789062 L 35.262697 -11.902344 L 35.254885 -12.117188 L 35.23926 -12.429688 L 35.215822 -12.820312 L 35.180666 -13.273438 L 35.125979 -13.757812 L 35.047854 -14.25 L 34.934572 -14.726562 L 34.774416 -15.15625 L 34.555666 -15.523438 L 34.274416 -15.808594 L 33.918947 -16.011719 L 33.481447 -16.128906 L 32.950197 -16.164062 L 32.317385 -16.128906 L 31.575197 -16.042969 L 30.704104 -15.917969 L 29.700197 -15.777344 L 28.543947 -15.636719 L 27.223635 -15.503906 L 25.731447 -15.398438 L 24.059572 -15.320312 L 22.204104 -15.273438 L 20.168947 -15.25 L 17.961916 -15.25 L 15.594729 -15.257812 L 13.090822 -15.269531 L 10.465822 -15.28125 L 7.750979 -15.28125 L 4.969729 -15.269531 L 2.153322 -15.242188 L -0.663084 -15.207031 L -3.459959 -15.15625 L -6.202146 -15.101562 L -8.862303 -15.042969 L -11.420896 -14.988281 L -13.850584 -14.941406 L -16.139646 -14.902344 L -18.272459 -14.875 L -20.237303 -14.859375 L -22.026365 -14.859375 L -23.643553 -14.875 L -25.084959 -14.898438 L -26.358396 -14.933594 L -27.463865 -14.980469 L -28.420896 -15.039062 L -29.22949 -15.105469 L -29.913084 -15.1875 L -30.475584 -15.28125 L -30.932615 -15.378906 L -31.299803 -15.488281 L -31.588865 -15.597656 L -31.811521 -15.699219 L -31.975584 -15.796875 L -32.088865 -15.875 L -32.163084 -15.929688 L -32.19824 -15.960938 L -32.202146 -15.960938 " transform="matrix(1,0,0,1,39.22949,124)"/>
<path style="fill-rule:evenodd;fill:rgb(100%,100%,100%);fill-opacity:1;stroke-width:1;stroke-linecap:butt;stroke-linejoin:bevel;stroke:rgb(50.048876%,50.048876%,50.048876%);stroke-opacity:1;stroke-miterlimit:10;" d="M -12.230795 -8.742188 L -12.24642 -8.714844 L -12.367514 -8.457031 L -12.578451 -7.910156 L -12.851889 -7.09375 L -13.15267 -6.167969 L -13.46517 -5.355469 L -13.762045 -4.789062 L -14.012045 -4.371094 L -14.172201 -3.84375 L -14.258139 -2.933594 L -14.320639 -1.550781 L -14.43392 0.183594 L -14.660482 2.023438 L -14.984701 3.710938 L -15.351889 5.082031 L -15.672201 6.070312 L -15.894857 6.691406 L -16.004232 6.984375 L -16.019857 7.019531 L -16.023764 7.035156 L -16.05892 7.132812 L -16.101889 7.324219 L -16.125326 7.601562 L -16.082357 7.941406 L -15.937826 8.320312 L -15.660482 8.714844 L -15.24642 9.097656 L -14.695639 9.433594 L -14.02767 9.703125 L -13.262045 9.890625 L -12.406576 9.988281 L -11.472982 10.007812 L -10.461264 9.964844 L -9.367514 9.890625 L -8.187826 9.804688 L -6.914389 9.734375 L -5.551107 9.695312 L -4.109701 9.691406 L -2.609701 9.722656 L -1.074545 9.785156 L 0.464518 9.859375 L 1.984049 9.941406 L 3.444986 10.019531 L 4.823893 10.085938 L 6.09733 10.140625 L 7.249674 10.183594 L 8.269205 10.21875 L 9.155924 10.25 L 9.902018 10.285156 L 10.519205 10.324219 L 11.019205 10.371094 L 11.413736 10.425781 L 11.710611 10.480469 L 11.929361 10.53125 L 12.081705 10.578125 L 12.179361 10.609375 L 12.22233 10.625 L 12.230143 10.628906 L 12.241861 10.632812 L 12.351236 10.65625 L 12.573893 10.621094 L 12.894205 10.40625 L 13.288736 9.894531 L 13.694986 9.035156 L 14.06608 7.835938 L 14.355143 6.335938 L 14.538736 4.613281 L 14.636393 2.742188 L 14.65983 0.820312 L 14.636393 -1.054688 L 14.585611 -2.769531 L 14.523111 -4.234375 L 14.464518 -5.386719 L 14.417643 -6.214844 L 14.386393 -6.738281 L 14.370768 -6.988281 L 14.370768 -7.019531 L 14.366861 -7.035156 L 14.362955 -7.128906 L 14.339518 -7.308594 L 14.296549 -7.542969 L 14.210611 -7.800781 L 14.073893 -8.054688 L 13.870768 -8.289062 L 13.59733 -8.496094 L 13.245768 -8.675781 L 12.808268 -8.828125 L 12.28483 -8.964844 L 11.663736 -9.085938 L 10.933268 -9.191406 L 10.093424 -9.277344 L 9.12858 -9.347656 L 8.038736 -9.40625 L 6.827799 -9.460938 L 5.507486 -9.515625 L 4.089518 -9.578125 L 2.601236 -9.652344 L 1.069986 -9.730469 L -0.469076 -9.8125 L -1.984701 -9.894531 L -3.445639 -9.972656 L -4.824545 -10.039062 L -6.097982 -10.097656 L -7.250326 -10.140625 L -8.269857 -10.164062 L -9.156576 -10.15625 L -9.90267 -10.105469 L -10.519857 -10.003906 L -11.019857 -9.851562 L -11.414389 -9.652344 L -11.711264 -9.425781 L -11.930014 -9.199219 L -12.082357 -8.992188 L -12.180014 -8.835938 L -12.222982 -8.753906 L -12.230795 -8.742188 " transform="matrix(1,0,0,1,151.59017,214)"/>
<path style="fill-rule:evenodd;fill:rgb(100%,100%,100%);fill-opacity:1;stroke-width:1;stroke-linecap:butt;stroke-linejoin:bevel;stroke:rgb(50.048876%,50.048876%,50.048876%);stroke-opacity:1;stroke-miterlimit:10;" d="M -17.297854 -4.324219 L -17.309572 -4.304688 L -17.39551 -4.144531 L -17.579104 -3.851562 L -17.875979 -3.453125 L -18.293947 -2.960938 L -18.793947 -2.390625 L -19.282229 -1.730469 L -19.653322 -0.996094 L -19.840822 -0.226562 L -19.883791 0.519531 L -19.883791 1.171875 L -19.942385 1.679688 L -20.059572 2.015625 L -20.157229 2.179688 L -20.172854 2.199219 L -20.17676 2.203125 L -20.192385 2.230469 L -20.227541 2.289062 L -20.262697 2.375 L -20.282229 2.488281 L -20.278322 2.628906 L -20.227541 2.796875 L -20.125979 2.984375 L -19.965822 3.179688 L -19.743166 3.382812 L -19.45801 3.578125 L -19.122072 3.753906 L -18.743166 3.90625 L -18.317385 4.027344 L -17.860354 4.117188 L -17.372072 4.171875 L -16.852541 4.207031 L -16.293947 4.226562 L -15.696291 4.242188 L -15.047854 4.261719 L -14.348635 4.296875 L -13.590822 4.347656 L -12.762697 4.421875 L -11.86426 4.511719 L -10.89551 4.613281 L -9.860354 4.71875 L -8.754885 4.820312 L -7.586916 4.910156 L -6.36426 4.976562 L -5.094729 5.015625 L -3.790041 5.03125 L -2.45801 5.011719 L -1.110354 4.972656 L 0.241209 4.910156 L 1.584959 4.84375 L 2.909178 4.773438 L 4.206053 4.710938 L 5.459959 4.664062 L 6.66699 4.636719 L 7.819334 4.628906 L 8.909178 4.636719 L 9.928709 4.660156 L 10.874021 4.691406 L 11.749021 4.726562 L 12.54199 4.757812 L 13.264646 4.785156 L 13.909178 4.808594 L 14.47949 4.828125 L 14.983396 4.84375 L 15.420896 4.863281 L 15.795896 4.878906 L 16.112303 4.898438 L 16.381834 4.914062 L 16.60449 4.929688 L 16.784178 4.941406 L 16.932615 4.941406 L 17.045896 4.933594 L 17.13574 4.921875 L 17.202146 4.902344 L 17.249021 4.882812 L 17.295896 4.859375 L 17.307615 4.851562 L 17.393553 4.785156 L 17.581053 4.601562 L 17.870115 4.238281 L 18.237303 3.664062 L 18.624021 2.914062 L 18.944334 2.054688 L 19.139646 1.15625 L 19.209959 0.285156 L 19.209959 -0.503906 L 19.213865 -1.171875 L 19.264646 -1.679688 L 19.35449 -2.015625 L 19.420896 -2.179688 L 19.432615 -2.199219 L 19.432615 -2.203125 L 19.444334 -2.234375 L 19.467771 -2.289062 L 19.491209 -2.378906 L 19.502928 -2.5 L 19.491209 -2.65625 L 19.452146 -2.84375 L 19.370115 -3.0625 L 19.245115 -3.300781 L 19.069334 -3.554688 L 18.846678 -3.816406 L 18.581053 -4.070312 L 18.272459 -4.308594 L 17.924803 -4.523438 L 17.538084 -4.707031 L 17.112303 -4.859375 L 16.651365 -4.972656 L 16.143553 -5.054688 L 15.584959 -5.105469 L 14.971678 -5.132812 L 14.295896 -5.136719 L 13.549803 -5.132812 L 12.737303 -5.121094 L 11.846678 -5.109375 L 10.88574 -5.097656 L 9.850584 -5.097656 L 8.749021 -5.101562 L 7.581053 -5.117188 L 6.362303 -5.140625 L 5.092771 -5.167969 L 3.788084 -5.199219 L 2.456053 -5.230469 L 1.108396 -5.253906 L -0.243166 -5.273438 L -1.586916 -5.285156 L -2.911135 -5.285156 L -4.20801 -5.28125 L -5.461916 -5.269531 L -6.668947 -5.253906 L -7.821291 -5.238281 L -8.911135 -5.230469 L -9.930666 -5.226562 L -10.875979 -5.230469 L -11.750979 -5.242188 L -12.543947 -5.261719 L -13.266604 -5.28125 L -13.911135 -5.296875 L -14.481447 -5.300781 L -14.985354 -5.292969 L -15.422854 -5.269531 L -15.797854 -5.226562 L -16.11426 -5.164062 L -16.383791 -5.085938 L -16.606447 -4.996094 L -16.786135 -4.894531 L -16.934572 -4.785156 L -17.047854 -4.675781 L -17.137697 -4.574219 L -17.204104 -4.480469 L -17.250979 -4.40625 L -17.282229 -4.355469 L -17.297854 -4.328125 L -17.297854 -4.324219 " transform="matrix(1,0,0,1,192.77051,159)"/>
<path style="fill-rule:evenodd;fill:rgb(100%,100%,100%);fill-opacity:1;stroke-width:1;stroke-linecap:butt;stroke-linejoin:bevel;stroke:rgb(50.048876%,50.048876%,50.048876%);stroke-opacity:1;stroke-miterlimit:10;" d="M -7.019857 -15.46875 L -7.035482 -15.472656 L -7.133139 -15.492188 L -7.316732 -15.511719 L -7.566732 -15.507812 L -7.855795 -15.445312 L -8.15267 -15.296875 L -8.437826 -15.042969 L -8.687826 -14.675781 L -8.894857 -14.191406 L -9.05892 -13.601562 L -9.18392 -12.917969 L -9.285482 -12.144531 L -9.367514 -11.285156 L -9.441732 -10.332031 L -9.515951 -9.285156 L -9.59017 -8.136719 L -9.672201 -6.882812 L -9.762045 -5.535156 L -9.859701 -4.101562 L -9.96517 -2.605469 L -10.070639 -1.074219 L -10.176107 0.46875 L -10.262045 1.984375 L -10.328451 3.445312 L -10.363607 4.824219 L -10.359701 6.097656 L -10.324545 7.25 L -10.254232 8.269531 L -10.164389 9.15625 L -10.066732 9.902344 L -9.972982 10.519531 L -9.898764 11.019531 L -9.851889 11.414062 L -9.84017 11.710938 L -9.855795 11.929688 L -9.890951 12.082031 L -9.922201 12.179688 L -9.945639 12.222656 L -9.949545 12.230469 L -9.953451 12.242188 L -9.992514 12.347656 L -9.99642 12.535156 L -9.84017 12.78125 L -9.422201 13.070312 L -8.672201 13.410156 L -7.578451 13.789062 L -6.180014 14.183594 L -4.52767 14.542969 L -2.703451 14.808594 L -0.805014 14.960938 L 1.058268 15.011719 L 2.773111 15 L 4.234049 14.976562 L 5.386393 14.96875 L 6.214518 14.980469 L 6.737955 15 L 6.987955 15.015625 L 7.019205 15.015625 L 7.03483 15.019531 L 7.144205 15.027344 L 7.351236 15.042969 L 7.640299 15.0625 L 7.995768 15.085938 L 8.37858 15.09375 L 8.761393 15.058594 L 9.116861 14.953125 L 9.421549 14.746094 L 9.65983 14.417969 L 9.827799 13.960938 L 9.937174 13.363281 L 9.991861 12.636719 L 10.019205 11.777344 L 10.023111 10.796875 L 10.019205 9.695312 L 10.00358 8.46875 L 9.97233 7.128906 L 9.917643 5.675781 L 9.835611 4.132812 L 9.734049 2.527344 L 9.620768 0.882812 L 9.507486 -0.757812 L 9.413736 -2.363281 L 9.343424 -3.890625 L 9.308268 -5.316406 L 9.304361 -6.613281 L 9.335611 -7.765625 L 9.398111 -8.769531 L 9.491861 -9.617188 L 9.624674 -10.316406 L 9.796549 -10.882812 L 10.011393 -11.324219 L 10.249674 -11.65625 L 10.499674 -11.902344 L 10.726236 -12.070312 L 10.902018 -12.171875 L 10.995768 -12.222656 L 11.007486 -12.230469 L 11.042643 -12.246094 L 11.31608 -12.367188 L 11.894205 -12.582031 L 12.687174 -12.863281 L 13.362955 -13.195312 L 13.448893 -13.570312 L 12.585611 -13.949219 L 10.737955 -14.28125 L 8.206705 -14.496094 L 5.405924 -14.589844 L 2.683268 -14.601562 L 0.218424 -14.625 L -1.918295 -14.714844 L -3.691732 -14.882812 L -5.082357 -15.085938 L -6.070639 -15.273438 L -6.691732 -15.398438 L -6.984701 -15.460938 L -7.019857 -15.46875 " transform="matrix(1,0,0,1,126.59017,104)"/>
</g>
</svg>
