<?xml version="1.0" encoding="UTF-8"?>
<svg xmlns="http://www.w3.org/2000/svg" xmlns:xlink="http://www.w3.org/1999/xlink" width="168.472136" height="248.472136" viewBox="0 0 168.472136 248.472136">
<path fill-rule="evenodd" fill="rgb(100%, 100%, 100%)" fill-opacity="1" stroke-width="1" stroke-linecap="butt" stroke-linejoin="bevel" stroke="rgb(50.048876%, 50.048876%, 50.048876%)" stroke-opacity="1" stroke-miterlimit="10" d="M -2.199219 -48.792969 L -2.203125 -48.792969 L -2.210938 -48.789062 L -2.234375 -48.78125 L -2.265625 -48.769531 L -2.304688 -48.753906 L -2.355469 -48.734375 L -2.414062 -48.710938 L -2.480469 -48.679688 L -2.554688 -48.644531 L -2.640625 -48.601562 L -2.730469 -48.554688 L -2.828125 -48.5 L -2.933594 -48.441406 L -3.046875 -48.375 L -3.164062 -48.304688 L -3.285156 -48.226562 L -3.414062 -48.144531 L -3.542969 -48.058594 L -3.671875 -47.96875 L -3.800781 -47.871094 L -3.925781 -47.769531 L -4.050781 -47.664062 L -4.164062 -47.550781 L -4.273438 -47.433594 L -4.371094 -47.304688 L -4.460938 -47.171875 L -4.535156 -47.03125 L -4.601562 -46.878906 L -4.660156 -46.71875 L -4.703125 -46.542969 L -4.738281 -46.355469 L -4.765625 -46.148438 L -4.789062 -45.925781 L -4.804688 -45.6875 L -4.816406 -45.425781 L -4.824219 -45.144531 L -4.828125 -44.835938 L -4.835938 -44.507812 L -4.839844 -44.152344 L -4.84375 -43.769531 L -4.851562 -43.359375 L -4.855469 -42.917969 L -4.859375 -42.445312 L -4.867188 -41.945312 L -4.871094 -41.410156 L -4.875 -40.84375 L -4.882812 -40.246094 L -4.886719 -39.609375 L -4.890625 -38.941406 L -4.898438 -38.238281 L -4.90625 -37.5 L -4.914062 -36.726562 L -4.921875 -35.917969 L -4.933594 -35.070312 L -4.945312 -34.191406 L -4.957031 -33.273438 L -4.96875 -32.324219 L -4.980469 -31.339844 L -4.992188 -30.320312 L -5.003906 -29.265625 L -5.015625 -28.179688 L -5.023438 -27.0625 L -5.03125 -25.914062 L -5.039062 -24.734375 L -5.042969 -23.527344 L -5.046875 -22.289062 L -5.050781 -21.027344 L -5.054688 -19.738281 L -5.054688 -18.425781 L -5.058594 -17.089844 L -5.058594 -15.734375 L -5.0625 -14.359375 L -5.070312 -12.964844 L -5.074219 -11.554688 L -5.082031 -10.132812 L -5.089844 -8.695312 L -5.101562 -7.25 L -5.113281 -5.796875 L -5.125 -4.335938 L -5.136719 -2.867188 L -5.167969 0.0703125 L -5.199219 3 L -5.21875 4.460938 L -5.234375 5.914062 L -5.253906 7.355469 L -5.269531 8.785156 L -5.285156 10.207031 L -5.296875 11.609375 L -5.308594 13 L -5.320312 14.367188 L -5.324219 15.71875 L -5.324219 17.050781 L -5.320312 18.355469 L -5.3125 19.640625 L -5.300781 20.898438 L -5.28125 22.128906 L -5.261719 23.332031 L -5.234375 24.507812 L -5.207031 25.652344 L -5.179688 26.765625 L -5.148438 27.851562 L -5.121094 28.902344 L -5.097656 29.921875 L -5.074219 30.910156 L -5.054688 31.863281 L -5.042969 32.78125 L -5.035156 33.667969 L -5.03125 34.519531 L -5.035156 35.339844 L -5.042969 36.121094 L -5.054688 36.875 L -5.074219 37.589844 L -5.097656 38.277344 L -5.125 38.925781 L -5.152344 39.546875 L -5.183594 40.132812 L -5.214844 40.691406 L -5.246094 41.21875 L -5.277344 41.714844 L -5.304688 42.179688 L -5.332031 42.621094 L -5.355469 43.03125 L -5.375 43.417969 L -5.386719 43.777344 L -5.398438 44.113281 L -5.402344 44.425781 L -5.402344 44.714844 L -5.398438 44.980469 L -5.386719 45.226562 L -5.371094 45.457031 L -5.347656 45.664062 L -5.324219 45.855469 L -5.292969 46.027344 L -5.261719 46.1875 L -5.222656 46.328125 L -5.179688 46.460938 L -5.132812 46.574219 L -5.082031 46.679688 L -5.027344 46.773438 L -4.96875 46.859375 L -4.90625 46.933594 L -4.835938 46.996094 L -4.765625 47.054688 L -4.691406 47.105469 L -4.613281 47.148438 L -4.535156 47.1875 L -4.457031 47.21875 L -4.382812 47.25 L -4.308594 47.273438 L -4.238281 47.292969 L -4.175781 47.308594 L -4.121094 47.320312 L -4.078125 47.332031 L -4.042969 47.339844 L -4.019531 47.34375 L -4.003906 47.34375 L -3.976562 47.351562 L -3.734375 47.390625 L -3.222656 47.476562 L -2.515625 47.640625 L -1.8125 47.960938 L -1.316406 48.472656 L -1.03125 49.085938 L -0.773438 49.621094 L -0.347656 49.929688 L 0.28125 50 L 0.976562 49.957031 L 1.570312 49.9375 L 1.976562 49.988281 L 2.175781 50.050781 L 2.199219 50.0625 L 2.203125 50.0625 L 2.210938 50.066406 L 2.234375 50.074219 L 2.265625 50.089844 L 2.308594 50.113281 L 2.359375 50.140625 L 2.417969 50.175781 L 2.488281 50.21875 L 2.566406 50.265625 L 2.65625 50.320312 L 2.75 50.378906 L 2.851562 50.433594 L 2.964844 50.488281 L 3.078125 50.53125 L 3.199219 50.5625 L 3.328125 50.578125 L 3.457031 50.570312 L 3.589844 50.542969 L 3.71875 50.484375 L 3.851562 50.398438 L 3.976562 50.285156 L 4.097656 50.144531 L 4.210938 49.972656 L 4.316406 49.777344 L 4.410156 49.558594 L 4.496094 49.320312 L 4.570312 49.066406 L 4.636719 48.796875 L 4.691406 48.519531 L 4.734375 48.230469 L 4.773438 47.933594 L 4.800781 47.632812 L 4.828125 47.328125 L 4.847656 47.015625 L 4.867188 46.695312 L 4.882812 46.367188 L 4.898438 46.03125 L 4.914062 45.683594 L 4.929688 45.320312 L 4.949219 44.941406 L 4.964844 44.542969 L 4.980469 44.125 L 5 43.683594 L 5.015625 43.210938 L 5.03125 42.714844 L 5.046875 42.1875 L 5.058594 41.628906 L 5.074219 41.039062 L 5.082031 40.414062 L 5.09375 39.753906 L 5.101562 39.058594 L 5.109375 38.324219 L 5.117188 37.558594 L 5.125 36.75 L 5.132812 35.90625 L 5.136719 35.027344 L 5.144531 34.105469 L 5.148438 33.152344 L 5.15625 32.160156 L 5.160156 31.132812 L 5.167969 30.066406 L 5.175781 28.96875 L 5.183594 27.835938 L 5.195312 26.671875 L 5.203125 25.472656 L 5.214844 24.246094 L 5.226562 22.984375 L 5.238281 21.699219 L 5.253906 20.386719 L 5.265625 19.046875 L 5.273438 17.683594 L 5.285156 16.300781 L 5.289062 14.894531 L 5.292969 13.46875 L 5.289062 12.027344 L 5.28125 10.574219 L 5.269531 9.105469 L 5.25 7.625 L 5.226562 6.136719 L 5.195312 4.644531 L 5.160156 3.144531 L 5.121094 1.644531 L 5.074219 0.140625 L 5.027344 -1.359375 L 4.976562 -2.855469 L 4.929688 -4.347656 L 4.878906 -5.832031 L 4.832031 -7.304688 L 4.789062 -8.765625 L 4.75 -10.214844 L 4.71875 -11.644531 L 4.695312 -13.058594 L 4.675781 -14.457031 L 4.664062 -15.828125 L 4.660156 -17.183594 L 4.664062 -18.511719 L 4.675781 -19.8125 L 4.691406 -21.089844 L 4.714844 -22.339844 L 4.742188 -23.558594 L 4.773438 -24.746094 L 4.808594 -25.90625 L 4.84375 -27.03125 L 4.878906 -28.125 L 4.914062 -29.1875 L 4.953125 -30.214844 L 4.988281 -31.207031 L 5.019531 -32.164062 L 5.050781 -33.085938 L 5.078125 -33.976562 L 5.101562 -34.828125 L 5.121094 -35.644531 L 5.136719 -36.429688 L 5.152344 -37.175781 L 5.160156 -37.890625 L 5.167969 -38.570312 L 5.167969 -39.828125 L 5.164062 -40.410156 L 5.160156 -40.960938 L 5.152344 -41.476562 L 5.144531 -41.964844 L 5.140625 -42.425781 L 5.132812 -42.855469 L 5.125 -43.257812 L 5.121094 -43.632812 L 5.117188 -43.984375 L 5.113281 -44.308594 L 5.113281 -44.609375 L 5.109375 -44.886719 L 5.109375 -45.382812 L 5.105469 -45.597656 L 5.101562 -45.796875 L 5.09375 -45.980469 L 5.085938 -46.144531 L 5.074219 -46.292969 L 5.0625 -46.425781 L 5.042969 -46.546875 L 5.023438 -46.65625 L 5 -46.753906 L 4.976562 -46.839844 L 4.949219 -46.917969 L 4.921875 -46.988281 L 4.890625 -47.046875 L 4.863281 -47.097656 L 4.835938 -47.144531 L 4.808594 -47.183594 L 4.761719 -47.246094 L 4.742188 -47.269531 L 4.726562 -47.289062 L 4.710938 -47.304688 L 4.699219 -47.320312 L 4.691406 -47.332031 L 4.683594 -47.335938 L 4.675781 -47.351562 L 4.628906 -47.40625 L 4.484375 -47.582031 L 4.160156 -47.9375 L 3.621094 -48.433594 L 2.894531 -48.941406 L 2.046875 -49.304688 L 1.15625 -49.453125 L 0.285156 -49.414062 L -0.503906 -49.269531 L -1.171875 -49.101562 L -1.679688 -48.960938 L -2.015625 -48.855469 L -2.179688 -48.800781 L -2.199219 -48.792969 " transform="matrix(1, 0, 0, 1, 79, 104)"/>
<path fill-rule="evenodd" fill="rgb(100%, 100%, 100%)" fill-opacity="1" stroke-width="1" stroke-linecap="butt" stroke-linejoin="bevel" stroke="rgb(50.048876%, 50.048876%, 50.048876%)" stroke-opacity="1" stroke-miterlimit="10" d="M -11.777344 -25.003906 L -11.796875 -25 L -11.960938 -24.949219 L -12.269531 -24.851562 L -12.679688 -24.699219 L -13.140625 -24.492188 L -13.605469 -24.226562 L -14.023438 -23.890625 L -14.367188 -23.472656 L -14.621094 -22.957031 L -14.785156 -22.320312 L -14.875 -21.535156 L -14.914062 -20.566406 L -14.914062 -19.394531 L -14.902344 -17.988281 L -14.882812 -16.335938 L -14.867188 -14.433594 L -14.851562 -12.285156 L -14.839844 -9.921875 L -14.832031 -7.375 L -14.828125 -4.691406 L -14.832031 -1.929688 L -14.839844 0.847656 L -14.847656 3.585938 L -14.855469 6.226562 L -14.851562 8.71875 L -14.832031 11.023438 L -14.789062 13.105469 L -14.726562 14.949219 L -14.644531 16.546875 L -14.546875 17.898438 L -14.449219 19.019531 L -14.347656 19.921875 L -14.257812 20.628906 L -14.179688 21.167969 L -14.117188 21.566406 L -14.074219 21.839844 L -14.027344 22.097656 L -14.027344 22.105469 L -14.023438 22.132812 L -13.980469 22.324219 L -13.867188 22.6875 L -13.617188 23.167969 L -13.144531 23.691406 L -12.335938 24.164062 L -11.078125 24.515625 L -9.300781 24.710938 L -6.992188 24.773438 L -4.246094 24.761719 L -1.234375 24.734375 L 1.816406 24.742188 L 4.65625 24.789062 L 7.101562 24.863281 L 9.035156 24.929688 L 10.425781 24.972656 L 11.304688 24.992188 L 11.722656 24.996094 L 11.960938 24.996094 L 12.265625 24.980469 L 12.664062 24.9375 L 13.109375 24.839844 L 13.550781 24.660156 L 13.945312 24.382812 L 14.273438 23.984375 L 14.53125 23.445312 L 14.722656 22.757812 L 14.859375 21.902344 L 14.960938 20.859375 L 15.035156 19.609375 L 15.089844 18.140625 L 15.121094 16.4375 L 15.132812 14.496094 L 15.121094 12.324219 L 15.089844 9.941406 L 15.039062 7.382812 L 14.980469 4.695312 L 14.929688 1.933594 L 14.898438 -0.847656 L 14.890625 -3.585938 L 14.914062 -6.226562 L 14.957031 -8.71875 L 15.019531 -11.023438 L 15.082031 -13.105469 L 15.132812 -14.949219 L 15.167969 -16.546875 L 15.179688 -17.898438 L 15.167969 -19.019531 L 15.128906 -19.921875 L 15.074219 -20.628906 L 15.007812 -21.167969 L 14.9375 -21.566406 L 14.875 -21.839844 L 14.824219 -22.011719 L 14.796875 -22.097656 L 14.796875 -22.105469 L 14.785156 -22.136719 L 14.703125 -22.351562 L 14.511719 -22.730469 L 14.183594 -23.183594 L 13.703125 -23.617188 L 13.03125 -23.972656 L 12.078125 -24.238281 L 10.714844 -24.429688 L 8.792969 -24.582031 L 6.265625 -24.734375 L 3.222656 -24.914062 L -0.0898438 -25.113281 L -3.335938 -25.304688 L -6.214844 -25.425781 L -8.523438 -25.425781 L -10.183594 -25.3125 L -11.222656 -25.144531 L -11.714844 -25.023438 L -11.777344 -25.003906 " transform="matrix(1, 0, 0, 1, 89, 219)"/>
<path fill-rule="evenodd" fill="rgb(100%, 100%, 100%)" fill-opacity="1" stroke-width="1" stroke-linecap="butt" stroke-linejoin="bevel" stroke="rgb(50.048876%, 50.048876%, 50.048876%)" stroke-opacity="1" stroke-miterlimit="10" d="M -7.019531 -24.78125 L -7.027344 -24.78125 L -7.09375 -24.765625 L -7.226562 -24.738281 L -7.410156 -24.691406 L -7.644531 -24.628906 L -7.917969 -24.550781 L -8.21875 -24.449219 L -8.527344 -24.328125 L -8.839844 -24.183594 L -9.136719 -24.007812 L -9.417969 -23.804688 L -9.667969 -23.570312 L -9.890625 -23.296875 L -10.078125 -22.980469 L -10.234375 -22.613281 L -10.359375 -22.183594 L -10.449219 -21.6875 L -10.511719 -21.109375 L -10.539062 -20.433594 L -10.539062 -19.65625 L -10.507812 -18.765625 L -10.460938 -17.746094 L -10.398438 -16.605469 L -10.332031 -15.328125 L -10.269531 -13.929688 L -10.214844 -12.40625 L -10.179688 -10.777344 L -10.164062 -9.046875 L -10.160156 -7.234375 L -10.171875 -5.355469 L -10.191406 -3.433594 L -10.210938 -1.488281 L -10.230469 0.460938 L -10.242188 2.390625 L -10.25 4.285156 L -10.246094 6.125 L -10.234375 7.894531 L -10.210938 9.574219 L -10.179688 11.15625 L -10.136719 12.628906 L -10.082031 13.988281 L -10.019531 15.226562 L -9.941406 16.34375 L -9.855469 17.339844 L -9.761719 18.21875 L -9.664062 18.984375 L -9.570312 19.644531 L -9.480469 20.203125 L -9.398438 20.675781 L -9.335938 21.0625 L -9.285156 21.382812 L -9.253906 21.636719 L -9.238281 21.835938 L -9.230469 21.988281 L -9.234375 22.101562 L -9.238281 22.179688 L -9.246094 22.230469 L -9.25 22.257812 L -9.253906 22.269531 L -9.257812 22.363281 L -9.214844 22.558594 L -9.054688 22.863281 L -8.691406 23.265625 L -8.058594 23.722656 L -7.125 24.179688 L -5.882812 24.585938 L -4.359375 24.910156 L -2.621094 25.148438 L -0.769531 25.316406 L 1.070312 25.433594 L 2.773438 25.511719 L 4.234375 25.558594 L 5.386719 25.582031 L 6.214844 25.589844 L 6.738281 25.585938 L 6.988281 25.582031 L 7.027344 25.582031 L 7.089844 25.578125 L 7.210938 25.570312 L 7.382812 25.542969 L 7.601562 25.492188 L 7.847656 25.402344 L 8.117188 25.265625 L 8.394531 25.074219 L 8.671875 24.824219 L 8.941406 24.515625 L 9.199219 24.148438 L 9.433594 23.726562 L 9.648438 23.253906 L 9.832031 22.726562 L 9.980469 22.148438 L 10.089844 21.511719 L 10.15625 20.808594 L 10.179688 20.035156 L 10.15625 19.175781 L 10.097656 18.226562 L 10.007812 17.175781 L 9.902344 16.019531 L 9.789062 14.753906 L 9.683594 13.382812 L 9.597656 11.910156 L 9.539062 10.339844 L 9.511719 8.683594 L 9.515625 6.957031 L 9.546875 5.171875 L 9.601562 3.34375 L 9.667969 1.496094 L 9.742188 -0.359375 L 9.808594 -2.203125 L 9.871094 -4.019531 L 9.917969 -5.789062 L 9.957031 -7.496094 L 9.976562 -9.128906 L 9.988281 -10.675781 L 9.988281 -12.125 L 9.980469 -13.472656 L 9.964844 -14.710938 L 9.941406 -15.839844 L 9.910156 -16.855469 L 9.878906 -17.761719 L 9.839844 -18.558594 L 9.800781 -19.257812 L 9.765625 -19.855469 L 9.734375 -20.367188 L 9.710938 -20.796875 L 9.691406 -21.152344 L 9.683594 -21.445312 L 9.683594 -21.863281 L 9.691406 -22.003906 L 9.703125 -22.109375 L 9.710938 -22.1875 L 9.71875 -22.234375 L 9.71875 -22.257812 L 9.722656 -22.257812 L 9.722656 -22.359375 L 9.671875 -22.53125 L 9.476562 -22.785156 L 9.058594 -23.117188 L 8.351562 -23.523438 L 7.332031 -23.976562 L 6.011719 -24.433594 L 4.429688 -24.84375 L 2.65625 -25.148438 L 0.785156 -25.324219 L -1.066406 -25.367188 L -2.773438 -25.3125 L -4.234375 -25.195312 L -5.386719 -25.058594 L -6.214844 -24.933594 L -6.738281 -24.839844 L -6.988281 -24.789062 L -7.019531 -24.78125 " transform="matrix(1, 0, 0, 1, 114, 159)"/>
<path fill-rule="evenodd" fill="rgb(100%, 100%, 100%)" fill-opacity="1" stroke-width="1" stroke-linecap="butt" stroke-linejoin="bevel" stroke="rgb(50.048876%, 50.048876%, 50.048876%)" stroke-opacity="1" stroke-miterlimit="10" d="M -2.199219 -25.234375 L -2.203125 -25.238281 L -2.226562 -25.25 L -2.273438 -25.277344 L -2.339844 -25.316406 L -2.425781 -25.371094 L -2.53125 -25.4375 L -2.652344 -25.507812 L -2.785156 -25.574219 L -2.929688 -25.628906 L -3.085938 -25.664062 L -3.25 -25.660156 L -3.414062 -25.609375 L -3.585938 -25.503906 L -3.753906 -25.339844 L -3.921875 -25.109375 L -4.082031 -24.820312 L -4.238281 -24.472656 L -4.382812 -24.074219 L -4.519531 -23.632812 L -4.640625 -23.152344 L -4.75 -22.644531 L -4.84375 -22.101562 L -4.917969 -21.53125 L -4.976562 -20.929688 L -5.023438 -20.289062 L -5.050781 -19.609375 L -5.066406 -18.882812 L -5.070312 -18.105469 L -5.066406 -17.269531 L -5.058594 -16.371094 L -5.050781 -15.40625 L -5.046875 -14.378906 L -5.042969 -13.285156 L -5.046875 -12.132812 L -5.058594 -10.917969 L -5.074219 -9.652344 L -5.097656 -8.335938 L -5.125 -6.980469 L -5.15625 -5.589844 L -5.1875 -4.171875 L -5.214844 -2.734375 L -5.242188 -1.289062 L -5.265625 0.160156 L -5.28125 1.601562 L -5.292969 3.027344 L -5.300781 4.429688 L -5.304688 5.800781 L -5.304688 7.136719 L -5.300781 8.429688 L -5.296875 9.667969 L -5.289062 10.855469 L -5.277344 11.984375 L -5.265625 13.050781 L -5.253906 14.050781 L -5.238281 14.988281 L -5.222656 15.855469 L -5.203125 16.65625 L -5.191406 17.390625 L -5.183594 18.058594 L -5.1875 18.660156 L -5.203125 19.203125 L -5.234375 19.6875 L -5.289062 20.113281 L -5.359375 20.488281 L -5.453125 20.816406 L -5.566406 21.097656 L -5.695312 21.339844 L -5.835938 21.542969 L -5.984375 21.714844 L -6.132812 21.859375 L -6.277344 21.976562 L -6.417969 22.070312 L -6.539062 22.148438 L -6.648438 22.207031 L -6.738281 22.25 L -6.804688 22.28125 L -6.851562 22.300781 L -6.875 22.3125 L -6.878906 22.3125 L -6.898438 22.320312 L -7.007812 22.402344 L -7.003906 22.601562 L -6.609375 22.964844 L -5.710938 23.472656 L -4.410156 24.054688 L -2.957031 24.605469 L -1.597656 25.039062 L -0.453125 25.328125 L 0.460938 25.503906 L 1.164062 25.617188 L 1.679688 25.707031 L 2.015625 25.777344 L 2.179688 25.820312 L 2.199219 25.824219 L 2.203125 25.828125 L 2.226562 25.832031 L 2.273438 25.847656 L 2.339844 25.867188 L 2.425781 25.894531 L 2.527344 25.925781 L 2.648438 25.957031 L 2.78125 25.980469 L 2.925781 25.988281 L 3.074219 25.972656 L 3.226562 25.921875 L 3.382812 25.824219 L 3.535156 25.671875 L 3.679688 25.464844 L 3.824219 25.199219 L 3.957031 24.878906 L 4.082031 24.507812 L 4.195312 24.09375 L 4.304688 23.636719 L 4.402344 23.152344 L 4.496094 22.632812 L 4.585938 22.089844 L 4.667969 21.519531 L 4.746094 20.917969 L 4.820312 20.28125 L 4.890625 19.605469 L 4.953125 18.878906 L 5.011719 18.101562 L 5.058594 17.265625 L 5.097656 16.367188 L 5.125 15.40625 L 5.144531 14.378906 L 5.148438 13.285156 L 5.140625 12.132812 L 5.121094 10.917969 L 5.09375 9.652344 L 5.058594 8.335938 L 5.019531 6.980469 L 4.980469 5.589844 L 4.945312 4.171875 L 4.914062 2.734375 L 4.886719 1.289062 L 4.867188 -0.160156 L 4.855469 -1.601562 L 4.851562 -3.027344 L 4.847656 -4.429688 L 4.847656 -5.800781 L 4.851562 -7.136719 L 4.855469 -8.429688 L 4.863281 -9.667969 L 4.875 -10.855469 L 4.890625 -11.984375 L 4.914062 -13.050781 L 4.945312 -14.050781 L 4.988281 -14.988281 L 5.039062 -15.855469 L 5.101562 -16.65625 L 5.171875 -17.390625 L 5.246094 -18.058594 L 5.316406 -18.660156 L 5.386719 -19.203125 L 5.445312 -19.6875 L 5.488281 -20.113281 L 5.511719 -20.488281 L 5.519531 -20.816406 L 5.507812 -21.097656 L 5.480469 -21.339844 L 5.441406 -21.542969 L 5.386719 -21.714844 L 5.332031 -21.859375 L 5.277344 -21.976562 L 5.222656 -22.070312 L 5.175781 -22.148438 L 5.136719 -22.207031 L 5.109375 -22.25 L 5.085938 -22.28125 L 5.070312 -22.300781 L 5.066406 -22.3125 L 5.0625 -22.3125 L 5.058594 -22.324219 L 5.003906 -22.398438 L 4.90625 -22.535156 L 4.730469 -22.730469 L 4.382812 -23.007812 L 3.78125 -23.367188 L 2.921875 -23.757812 L 1.894531 -24.101562 L 0.84375 -24.355469 L -0.128906 -24.546875 L -0.945312 -24.738281 L -1.570312 -24.9375 L -1.976562 -25.117188 L -2.175781 -25.222656 L -2.199219 -25.234375 " transform="matrix(1, 0, 0, 1, 79, 29)"/>
<path fill-rule="evenodd" fill="rgb(100%, 100%, 100%)" fill-opacity="1" stroke-width="1" stroke-linecap="butt" stroke-linejoin="bevel" stroke="rgb(50.048876%, 50.048876%, 50.048876%)" stroke-opacity="1" stroke-miterlimit="10" d="M -2.199219 -4.574219 L -2.226562 -4.585938 L -2.410156 -4.671875 L -2.753906 -4.851562 L -3.203125 -5.023438 L -3.710938 -4.964844 L -4.230469 -4.460938 L -4.691406 -3.492188 L -5.011719 -2.253906 L -5.148438 -1.003906 L -5.09375 0.078125 L -4.902344 0.9375 L -4.652344 1.566406 L -4.429688 1.976562 L -4.304688 2.175781 L -4.273438 2.222656 L -4.160156 2.382812 L -3.929688 2.691406 L -3.578125 3.113281 L -3.097656 3.558594 L -2.503906 3.941406 L -1.804688 4.191406 L -1.035156 4.3125 L -0.242188 4.34375 L 0.515625 4.34375 L 1.171875 4.335938 L 1.679688 4.328125 L 2.015625 4.3125 L 2.179688 4.300781 L 2.199219 4.296875 L 2.222656 4.296875 L 2.375 4.265625 L 2.648438 4.152344 L 2.976562 3.882812 L 3.296875 3.414062 L 3.5625 2.757812 L 3.769531 1.96875 L 3.941406 1.121094 L 4.148438 0.273438 L 4.441406 -0.507812 L 4.847656 -1.171875 L 5.316406 -1.679688 L 5.742188 -2.015625 L 5.996094 -2.179688 L 6.027344 -2.199219 L 6.0625 -2.222656 L 6.269531 -2.382812 L 6.433594 -2.695312 L 6.230469 -3.117188 L 5.488281 -3.582031 L 4.300781 -3.988281 L 2.914062 -4.261719 L 1.582031 -4.382812 L 0.449219 -4.390625 L -0.460938 -4.367188 L -1.164062 -4.371094 L -1.679688 -4.429688 L -2.015625 -4.507812 L -2.179688 -4.566406 L -2.199219 -4.574219 " transform="matrix(1, 0, 0, 1, 109, 229)"/>
<path fill-rule="evenodd" fill="rgb(100%, 100%, 100%)" fill-opacity="1" stroke-width="1" stroke-linecap="butt" stroke-linejoin="bevel" stroke="rgb(50.048876%, 50.048876%, 50.048876%)" stroke-opacity="1" stroke-miterlimit="10" d="M -7.019531 -10.027344 L -7.050781 -10.03125 L -7.28125 -10.023438 L -7.683594 -9.957031 L -8.167969 -9.734375 L -8.640625 -9.273438 L -9.058594 -8.515625 L -9.410156 -7.449219 L -9.710938 -6.085938 L -9.96875 -4.472656 L -10.167969 -2.675781 L -10.277344 -0.792969 L -10.253906 1.0625 L -10.089844 2.773438 L -9.804688 4.234375 L -9.460938 5.386719 L -9.121094 6.214844 L -8.855469 6.738281 L -8.710938 6.988281 L -8.695312 7.019531 L -8.671875 7.054688 L -8.496094 7.332031 L -8.136719 7.824219 L -7.628906 8.433594 L -7.054688 9.039062 L -6.5 9.53125 L -5.980469 9.859375 L -5.398438 10.027344 L -4.570312 10.089844 L -3.355469 10.089844 L -1.75 10.0625 L 0.113281 10.011719 L 2.003906 9.960938 L 3.707031 9.9375 L 5.082031 9.972656 L 6.070312 10.066406 L 6.691406 10.1875 L 6.984375 10.273438 L 7.019531 10.285156 L 7.050781 10.292969 L 7.285156 10.355469 L 7.703125 10.378906 L 8.21875 10.234375 L 8.734375 9.792969 L 9.175781 8.984375 L 9.519531 7.8125 L 9.777344 6.332031 L 9.988281 4.613281 L 10.171875 2.746094 L 10.320312 0.820312 L 10.402344 -1.054688 L 10.398438 -2.769531 L 10.320312 -4.234375 L 10.214844 -5.386719 L 10.128906 -6.214844 L 10.074219 -6.738281 L 10.054688 -6.988281 L 10.054688 -7.019531 L 10.050781 -7.050781 L 10.023438 -7.285156 L 9.921875 -7.703125 L 9.667969 -8.222656 L 9.1875 -8.757812 L 8.429688 -9.234375 L 7.375 -9.605469 L 6.03125 -9.863281 L 4.441406 -10.011719 L 2.660156 -10.070312 L 0.785156 -10.074219 L -1.066406 -10.046875 L -2.773438 -10.019531 L -4.234375 -10.003906 L -5.386719 -10 L -6.214844 -10.007812 L -6.738281 -10.019531 L -6.988281 -10.027344 L -7.019531 -10.027344 " transform="matrix(1, 0, 0, 1, 114, 194)"/>
<path fill-rule="evenodd" fill="rgb(100%, 100%, 100%)" fill-opacity="1" stroke-width="1" stroke-linecap="butt" stroke-linejoin="bevel" stroke="rgb(50.048876%, 50.048876%, 50.048876%)" stroke-opacity="1" stroke-miterlimit="10" d="M -11.777344 -15.429688 L -11.828125 -15.433594 L -12.210938 -15.441406 L -12.851562 -15.382812 L -13.570312 -15.121094 L -14.1875 -14.523438 L -14.613281 -13.476562 L -14.839844 -11.921875 L -14.925781 -9.847656 L -14.925781 -7.300781 L -14.878906 -4.394531 L -14.785156 -1.292969 L -14.636719 1.796875 L -14.433594 4.652344 L -14.203125 7.101562 L -13.984375 9.035156 L -13.808594 10.425781 L -13.695312 11.304688 L -13.640625 11.722656 L -13.632812 11.777344 L -13.625 11.835938 L -13.566406 12.296875 L -13.460938 13.117188 L -13.308594 14.121094 L -13.082031 15.078125 L -12.683594 15.78125 L -11.957031 16.136719 L -10.730469 16.195312 L -8.859375 16.082031 L -6.320312 15.941406 L -3.253906 15.847656 L 0.0742188 15.792969 L 3.332031 15.734375 L 6.214844 15.632812 L 8.523438 15.488281 L 10.183594 15.320312 L 11.222656 15.171875 L 11.714844 15.082031 L 11.777344 15.070312 L 11.835938 15.058594 L 12.296875 14.960938 L 13.121094 14.75 L 14.125 14.40625 L 15.089844 13.90625 L 15.808594 13.207031 L 16.171875 12.226562 L 16.21875 10.824219 L 16.074219 8.867188 L 15.878906 6.304688 L 15.730469 3.238281 L 15.65625 -0.0820312 L 15.621094 -3.335938 L 15.582031 -6.214844 L 15.503906 -8.523438 L 15.390625 -10.183594 L 15.277344 -11.222656 L 15.203125 -11.714844 L 15.195312 -11.777344 L 15.183594 -11.835938 L 15.097656 -12.296875 L 14.898438 -13.117188 L 14.554688 -14.121094 L 14.039062 -15.070312 L 13.3125 -15.757812 L 12.296875 -16.078125 L 10.867188 -16.0625 L 8.886719 -15.835938 L 6.3125 -15.542969 L 3.242188 -15.300781 L -0.0820312 -15.15625 L -3.335938 -15.113281 L -6.214844 -15.15625 L -8.523438 -15.238281 L -10.183594 -15.328125 L -11.222656 -15.394531 L -11.714844 -15.425781 L -11.777344 -15.429688 " transform="matrix(1, 0, 0, 1, 89, 169)"/>
<path fill-rule="evenodd" fill="rgb(100%, 100%, 100%)" fill-opacity="1" stroke-width="1" stroke-linecap="butt" stroke-linejoin="bevel" stroke="rgb(50.048876%, 50.048876%, 50.048876%)" stroke-opacity="1" stroke-miterlimit="10" d="M -32.203125 -14.640625 L -32.222656 -14.644531 L -32.363281 -14.683594 L -32.613281 -14.761719 L -32.921875 -14.847656 L -33.265625 -14.808594 L -33.621094 -14.445312 L -33.984375 -13.550781 L -34.335938 -11.96875 L -34.65625 -9.679688 L -34.9375 -6.777344 L -35.191406 -3.460938 L -35.417969 0 L -35.621094 3.3125 L -35.804688 6.210938 L -35.960938 8.523438 L -36.097656 10.183594 L -36.199219 11.222656 L -36.257812 11.714844 L -36.265625 11.777344 L -36.265625 11.789062 L -36.28125 11.902344 L -36.3125 12.117188 L -36.355469 12.429688 L -36.410156 12.820312 L -36.472656 13.265625 L -36.523438 13.742188 L -36.542969 14.21875 L -36.515625 14.664062 L -36.410156 15.050781 L -36.210938 15.355469 L -35.898438 15.566406 L -35.464844 15.675781 L -34.902344 15.695312 L -34.21875 15.628906 L -33.40625 15.5 L -32.476562 15.332031 L -31.429688 15.148438 L -30.261719 14.972656 L -28.960938 14.8125 L -27.523438 14.691406 L -25.9375 14.609375 L -24.195312 14.566406 L -22.289062 14.5625 L -20.222656 14.589844 L -17.992188 14.640625 L -15.613281 14.703125 L -13.097656 14.769531 L -10.472656 14.832031 L -7.753906 14.882812 L -4.96875 14.917969 L -2.15625 14.929688 L 0.664062 14.921875 L 3.460938 14.890625 L 6.203125 14.84375 L 8.863281 14.785156 L 11.421875 14.726562 L 13.851562 14.667969 L 16.140625 14.628906 L 18.273438 14.605469 L 20.238281 14.613281 L 22.027344 14.652344 L 23.644531 14.71875 L 25.085938 14.808594 L 26.359375 14.917969 L 27.464844 15.039062 L 28.421875 15.152344 L 29.230469 15.253906 L 29.914062 15.332031 L 30.476562 15.378906 L 30.933594 15.390625 L 31.300781 15.367188 L 31.589844 15.308594 L 31.8125 15.230469 L 31.976562 15.140625 L 32.089844 15.058594 L 32.164062 14.992188 L 32.199219 14.957031 L 32.203125 14.949219 L 32.21875 14.933594 L 32.347656 14.796875 L 32.585938 14.519531 L 32.90625 14.082031 L 33.261719 13.429688 L 33.605469 12.484375 L 33.894531 11.140625 L 34.121094 9.316406 L 34.289062 6.992188 L 34.410156 4.242188 L 34.496094 1.230469 L 34.539062 -1.816406 L 34.527344 -4.65625 L 34.472656 -7.101562 L 34.386719 -9.035156 L 34.300781 -10.425781 L 34.234375 -11.304688 L 34.199219 -11.722656 L 34.195312 -11.777344 L 34.195312 -11.789062 L 34.1875 -11.894531 L 34.164062 -12.089844 L 34.128906 -12.367188 L 34.074219 -12.699219 L 33.996094 -13.058594 L 33.886719 -13.421875 L 33.742188 -13.757812 L 33.558594 -14.050781 L 33.324219 -14.285156 L 33.035156 -14.453125 L 32.683594 -14.566406 L 32.257812 -14.625 L 31.75 -14.644531 L 31.144531 -14.644531 L 30.425781 -14.636719 L 29.585938 -14.632812 L 28.605469 -14.644531 L 27.476562 -14.671875 L 26.183594 -14.714844 L 24.726562 -14.769531 L 23.097656 -14.832031 L 21.296875 -14.894531 L 19.335938 -14.953125 L 17.214844 -14.996094 L 14.949219 -15.023438 L 12.558594 -15.039062 L 10.0625 -15.035156 L 7.480469 -15.023438 L 4.839844 -15 L 2.164062 -14.976562 L -0.523438 -14.957031 L -3.191406 -14.941406 L -5.816406 -14.933594 L -8.375 -14.9375 L -10.84375 -14.949219 L -13.207031 -14.964844 L -15.445312 -14.980469 L -17.542969 -14.988281 L -19.492188 -14.988281 L -21.285156 -14.976562 L -22.914062 -14.949219 L -24.386719 -14.910156 L -25.695312 -14.859375 L -26.851562 -14.804688 L -27.859375 -14.746094 L -28.730469 -14.691406 L -29.46875 -14.644531 L -30.089844 -14.605469 L -30.605469 -14.582031 L -31.027344 -14.566406 L -31.363281 -14.566406 L -31.632812 -14.574219 L -31.835938 -14.585938 L -31.988281 -14.605469 L -32.097656 -14.621094 L -32.167969 -14.632812 L -32.199219 -14.640625 L -32.203125 -14.640625 " transform="matrix(1, 0, 0, 1, 39, 124)"/>
<path fill-rule="evenodd" fill="rgb(100%, 100%, 100%)" fill-opacity="1" stroke-width="1" stroke-linecap="butt" stroke-linejoin="bevel" stroke="rgb(50.048876%, 50.048876%, 50.048876%)" stroke-opacity="1" stroke-miterlimit="10" d="M -12.230469 -9.40625 L -12.246094 -9.382812 L -12.367188 -9.195312 L -12.578125 -8.75 L -12.84375 -8.03125 L -13.128906 -7.136719 L -13.417969 -6.261719 L -13.703125 -5.542969 L -13.976562 -4.917969 L -14.21875 -4.183594 L -14.414062 -3.113281 L -14.566406 -1.628906 L -14.667969 0.160156 L -14.726562 2.015625 L -14.734375 3.710938 L -14.683594 5.082031 L -14.582031 6.070312 L -14.472656 6.691406 L -14.402344 6.984375 L -14.394531 7.019531 L -14.390625 7.035156 L -14.355469 7.144531 L -14.289062 7.351562 L -14.175781 7.640625 L -14.011719 7.988281 L -13.800781 8.359375 L -13.542969 8.71875 L -13.257812 9.039062 L -12.949219 9.292969 L -12.621094 9.472656 L -12.265625 9.585938 L -11.867188 9.640625 L -11.390625 9.664062 L -10.808594 9.675781 L -10.089844 9.691406 L -9.210938 9.71875 L -8.160156 9.765625 L -6.945312 9.828125 L -5.574219 9.898438 L -4.082031 9.972656 L -2.5 10.042969 L -0.871094 10.109375 L 0.761719 10.167969 L 2.363281 10.21875 L 3.890625 10.261719 L 5.316406 10.292969 L 6.613281 10.316406 L 7.765625 10.335938 L 8.769531 10.355469 L 9.617188 10.375 L 10.316406 10.394531 L 10.882812 10.40625 L 11.324219 10.40625 L 11.65625 10.382812 L 11.902344 10.34375 L 12.070312 10.296875 L 12.171875 10.253906 L 12.222656 10.226562 L 12.230469 10.222656 L 12.242188 10.214844 L 12.355469 10.144531 L 12.582031 9.972656 L 12.925781 9.648438 L 13.347656 9.117188 L 13.800781 8.339844 L 14.210938 7.289062 L 14.539062 5.96875 L 14.769531 4.398438 L 14.921875 2.640625 L 15.035156 0.777344 L 15.136719 -1.070312 L 15.238281 -2.773438 L 15.339844 -4.234375 L 15.433594 -5.386719 L 15.511719 -6.214844 L 15.566406 -6.738281 L 15.59375 -6.988281 L 15.597656 -7.019531 L 15.601562 -7.035156 L 15.609375 -7.132812 L 15.613281 -7.324219 L 15.585938 -7.59375 L 15.5 -7.917969 L 15.328125 -8.269531 L 15.054688 -8.628906 L 14.671875 -8.964844 L 14.179688 -9.257812 L 13.585938 -9.503906 L 12.902344 -9.699219 L 12.128906 -9.851562 L 11.269531 -9.964844 L 10.320312 -10.046875 L 9.277344 -10.097656 L 8.128906 -10.121094 L 6.882812 -10.113281 L 5.535156 -10.074219 L 4.101562 -10.007812 L 2.605469 -9.917969 L 1.074219 -9.816406 L -0.46875 -9.71875 L -1.984375 -9.632812 L -3.445312 -9.566406 L -4.824219 -9.53125 L -6.097656 -9.535156 L -7.25 -9.574219 L -8.269531 -9.640625 L -9.15625 -9.726562 L -9.902344 -9.808594 L -10.519531 -9.871094 L -11.019531 -9.894531 L -11.414062 -9.867188 L -11.710938 -9.792969 L -11.929688 -9.683594 L -12.082031 -9.566406 L -12.179688 -9.46875 L -12.222656 -9.414062 L -12.230469 -9.40625 " transform="matrix(1, 0, 0, 1, 119, 214)"/>
<path fill-rule="evenodd" fill="rgb(100%, 100%, 100%)" fill-opacity="1" stroke-width="1" stroke-linecap="butt" stroke-linejoin="bevel" stroke="rgb(50.048876%, 50.048876%, 50.048876%)" stroke-opacity="1" stroke-miterlimit="10" d="M -17.296875 -5.308594 L -17.3125 -5.335938 L -17.402344 -5.582031 L -17.558594 -6.074219 L -17.742188 -6.617188 L -17.96875 -6.78125 L -18.28125 -6.171875 L -18.699219 -4.78125 L -19.171875 -3.011719 L -19.5625 -1.335938 L -19.761719 -0.0234375 L -19.777344 0.917969 L -19.703125 1.566406 L -19.644531 1.976562 L -19.621094 2.175781 L -19.621094 2.234375 L -19.617188 2.292969 L -19.617188 2.488281 L -19.621094 2.617188 L -19.621094 2.765625 L -19.613281 2.925781 L -19.589844 3.09375 L -19.535156 3.269531 L -19.445312 3.445312 L -19.308594 3.617188 L -19.117188 3.789062 L -18.871094 3.960938 L -18.566406 4.121094 L -18.207031 4.277344 L -17.789062 4.421875 L -17.324219 4.554688 L -16.800781 4.675781 L -16.222656 4.777344 L -15.589844 4.863281 L -14.886719 4.929688 L -14.121094 4.976562 L -13.277344 5.007812 L -12.359375 5.027344 L -11.363281 5.035156 L -10.285156 5.039062 L 1.695312 5.039062 L 3.078125 5.042969 L 4.425781 5.046875 L 5.722656 5.058594 L 6.96875 5.074219 L 8.148438 5.09375 L 9.257812 5.117188 L 10.289062 5.140625 L 11.242188 5.167969 L 12.113281 5.191406 L 12.902344 5.21875 L 13.605469 5.242188 L 14.234375 5.265625 L 14.785156 5.285156 L 15.261719 5.296875 L 15.671875 5.296875 L 16.019531 5.289062 L 16.3125 5.261719 L 16.550781 5.21875 L 16.75 5.160156 L 16.90625 5.089844 L 17.03125 5.007812 L 17.128906 4.925781 L 17.199219 4.847656 L 17.25 4.777344 L 17.28125 4.730469 L 17.296875 4.703125 L 17.296875 4.699219 L 17.3125 4.679688 L 17.402344 4.488281 L 17.566406 4.0625 L 17.800781 3.417969 L 18.128906 2.699219 L 18.566406 2.066406 L 19.042969 1.558594 L 19.421875 1.070312 L 19.613281 0.472656 L 19.621094 -0.242188 L 19.5625 -0.96875 L 19.542969 -1.570312 L 19.589844 -1.976562 L 19.648438 -2.175781 L 19.65625 -2.199219 L 19.660156 -2.203125 L 19.667969 -2.230469 L 19.683594 -2.289062 L 19.699219 -2.371094 L 19.699219 -2.484375 L 19.675781 -2.621094 L 19.621094 -2.785156 L 19.523438 -2.96875 L 19.378906 -3.164062 L 19.1875 -3.371094 L 18.945312 -3.582031 L 18.664062 -3.785156 L 18.339844 -3.972656 L 17.976562 -4.144531 L 17.582031 -4.296875 L 17.148438 -4.421875 L 16.675781 -4.519531 L 16.160156 -4.597656 L 15.597656 -4.65625 L 14.980469 -4.703125 L 14.300781 -4.738281 L 13.554688 -4.769531 L 12.738281 -4.792969 L 11.851562 -4.816406 L 10.886719 -4.839844 L 9.851562 -4.855469 L 8.75 -4.871094 L 7.582031 -4.878906 L 6.363281 -4.882812 L 5.09375 -4.878906 L 3.789062 -4.871094 L 2.457031 -4.863281 L 1.109375 -4.855469 L -0.242188 -4.84375 L -1.585938 -4.832031 L -2.910156 -4.820312 L -4.207031 -4.804688 L -5.460938 -4.785156 L -6.667969 -4.753906 L -7.820312 -4.714844 L -8.910156 -4.664062 L -9.929688 -4.605469 L -10.875 -4.542969 L -11.75 -4.476562 L -12.542969 -4.414062 L -13.265625 -4.355469 L -13.910156 -4.3125 L -14.480469 -4.285156 L -14.984375 -4.273438 L -15.421875 -4.285156 L -15.796875 -4.316406 L -16.113281 -4.371094 L -16.382812 -4.449219 L -16.605469 -4.542969 L -16.785156 -4.652344 L -16.933594 -4.769531 L -17.046875 -4.890625 L -17.136719 -5.011719 L -17.203125 -5.117188 L -17.25 -5.207031 L -17.28125 -5.269531 L -17.296875 -5.304688 L -17.296875 -5.308594 " transform="matrix(1, 0, 0, 1, 144, 159)"/>
<path fill-rule="evenodd" fill="rgb(100%, 100%, 100%)" fill-opacity="1" stroke-width="1" stroke-linecap="butt" stroke-linejoin="bevel" stroke="rgb(50.048876%, 50.048876%, 50.048876%)" stroke-opacity="1" stroke-miterlimit="10" d="M -7.019531 -15.1875 L -7.035156 -15.1875 L -7.144531 -15.199219 L -7.351562 -15.222656 L -7.644531 -15.25 L -8 -15.28125 L -8.394531 -15.292969 L -8.800781 -15.257812 L -9.195312 -15.144531 L -9.550781 -14.925781 L -9.859375 -14.582031 L -10.101562 -14.097656 L -10.273438 -13.476562 L -10.371094 -12.722656 L -10.402344 -11.84375 L -10.367188 -10.84375 L -10.289062 -9.722656 L -10.171875 -8.488281 L -10.042969 -7.136719 L -9.910156 -5.683594 L -9.792969 -4.136719 L -9.695312 -2.527344 L -9.628906 -0.882812 L -9.597656 0.757812 L -9.597656 2.363281 L -9.625 3.890625 L -9.664062 5.316406 L -9.710938 6.613281 L -9.742188 7.765625 L -9.75 8.769531 L -9.734375 9.617188 L -9.691406 10.316406 L -9.636719 10.882812 L -9.585938 11.324219 L -9.546875 11.65625 L -9.53125 11.902344 L -9.53125 12.070312 L -9.539062 12.171875 L -9.550781 12.222656 L -9.550781 12.230469 L -9.554688 12.246094 L -9.589844 12.367188 L -9.683594 12.582031 L -9.828125 12.859375 L -9.898438 13.183594 L -9.714844 13.550781 L -9.089844 13.941406 L -7.941406 14.324219 L -6.316406 14.664062 L -4.347656 14.945312 L -2.203125 15.164062 L -0.046875 15.320312 L 1.960938 15.414062 L 3.703125 15.429688 L 5.082031 15.386719 L 6.070312 15.308594 L 6.691406 15.234375 L 6.984375 15.191406 L 7.019531 15.183594 L 7.035156 15.183594 L 7.132812 15.164062 L 7.320312 15.121094 L 7.585938 15.039062 L 7.902344 14.90625 L 8.246094 14.707031 L 8.597656 14.433594 L 8.933594 14.078125 L 9.234375 13.644531 L 9.496094 13.125 L 9.710938 12.527344 L 9.878906 11.839844 L 10 11.058594 L 10.078125 10.175781 L 10.125 9.183594 L 10.144531 8.070312 L 10.144531 4.09375 L 10.164062 2.601562 L 10.199219 1.070312 L 10.253906 -0.46875 L 10.320312 -1.984375 L 10.394531 -3.445312 L 10.464844 -4.824219 L 10.519531 -6.097656 L 10.5625 -7.25 L 10.589844 -8.269531 L 10.613281 -9.15625 L 10.644531 -9.902344 L 10.6875 -10.519531 L 10.746094 -11.019531 L 10.820312 -11.414062 L 10.898438 -11.710938 L 10.972656 -11.929688 L 11.039062 -12.082031 L 11.085938 -12.179688 L 11.109375 -12.222656 L 11.113281 -12.230469 L 11.121094 -12.242188 L 11.15625 -12.351562 L 11.132812 -12.574219 L 10.90625 -12.898438 L 10.351562 -13.308594 L 9.410156 -13.757812 L 8.109375 -14.195312 L 6.515625 -14.558594 L 4.714844 -14.820312 L 2.792969 -14.96875 L 0.839844 -15.027344 L -1.050781 -15.039062 L -2.769531 -15.042969 L -4.234375 -15.054688 L -5.386719 -15.085938 L -6.214844 -15.125 L -6.738281 -15.164062 L -6.988281 -15.183594 L -7.019531 -15.1875 " transform="matrix(1, 0, 0, 1, 94, 104)"/>
</svg>
