<?xml version="1.0" encoding="UTF-8"?>
<svg xmlns="http://www.w3.org/2000/svg" xmlns:xlink="http://www.w3.org/1999/xlink" width="217.013156" height="280.832816" viewBox="0 0 217.013156 280.832816">
<path fill-rule="evenodd" fill="rgb(100%, 100%, 100%)" fill-opacity="1" stroke-width="1" stroke-linecap="butt" stroke-linejoin="bevel" stroke="rgb(50.048876%, 50.048876%, 50.048876%)" stroke-opacity="1" stroke-miterlimit="10" d="M -2.198893 -50.06608 L -2.210611 -50.06608 L -2.234049 -50.069986 L -2.265299 -50.069986 L -2.308268 -50.073893 L -2.359049 -50.081705 L -2.417643 -50.085611 L -2.487955 -50.093424 L -2.56608 -50.09733 L -2.652018 -50.105143 L -2.749674 -50.105143 L -2.851236 -50.101236 L -2.956705 -50.093424 L -3.073893 -50.077799 L -3.194986 -50.046549 L -3.319986 -50.00358 L -3.448893 -49.948893 L -3.577799 -49.874674 L -3.710611 -49.78483 L -3.843424 -49.675455 L -3.97233 -49.546549 L -4.09733 -49.402018 L -4.218424 -49.241861 L -4.327799 -49.06608 L -4.433268 -48.87858 L -4.527018 -48.679361 L -4.609049 -48.468424 L -4.683268 -48.245768 L -4.745768 -48.015299 L -4.796549 -47.780924 L -4.839518 -47.538736 L -4.870768 -47.28483 L -4.894205 -47.027018 L -4.913736 -46.757486 L -4.925455 -46.480143 L -4.933268 -46.187174 L -4.937174 -45.882486 L -4.94108 -45.562174 L -4.937174 -45.226236 L -4.937174 -44.866861 L -4.933268 -44.484049 L -4.929361 -44.077799 L -4.925455 -43.644205 L -4.921549 -43.183268 L -4.921549 -41.030924 L -4.925455 -40.40983 L -4.929361 -39.749674 L -4.937174 -39.054361 L -4.944986 -38.323893 L -4.952799 -37.554361 L -4.964518 -36.749674 L -4.976236 -35.905924 L -4.987955 -35.023111 L -4.999674 -34.105143 L -5.011393 -33.152018 L -5.019205 -32.15983 L -5.030924 -31.132486 L -5.038736 -30.06608 L -5.042643 -28.968424 L -5.050455 -27.835611 L -5.054361 -26.671549 L -5.058268 -25.47233 L -5.062174 -24.245768 L -5.06608 -22.984049 L -5.069986 -21.698893 L -5.073893 -20.386393 L -5.073893 -14.894205 L -5.069986 -13.468424 L -5.062174 -12.027018 L -5.054361 -10.573893 L -5.042643 -9.105143 L -5.030924 -7.624674 L -5.011393 -6.136393 L -4.991861 -4.644205 L -4.97233 -3.144205 L -4.948893 -1.644205 L -4.929361 -0.140299 L -4.90983 1.359701 L -4.890299 2.855795 L -4.87858 4.347982 L -4.870768 5.832357 L -4.866861 7.305014 L -4.870768 8.765951 L -4.882486 10.21517 L -4.898111 11.644857 L -4.925455 13.05892 L -4.956705 14.457357 L -4.991861 15.828451 L -5.030924 17.18392 L -5.073893 18.512045 L -5.116861 19.812826 L -5.15983 21.09017 L -5.198893 22.34017 L -5.237955 23.55892 L -5.269205 24.74642 L -5.296549 25.906576 L -5.319986 27.031576 L -5.335611 28.125326 L -5.343424 29.187826 L -5.34733 30.21517 L -5.34733 31.207357 L -5.343424 32.164389 L -5.331705 33.086264 L -5.319986 33.976889 L -5.304361 34.828451 L -5.288736 35.644857 L -5.273111 36.430014 L -5.257486 37.176107 L -5.241861 37.890951 L -5.226236 38.570639 L -5.214518 39.21517 L -5.202799 39.828451 L -5.187174 40.410482 L -5.175455 40.961264 L -5.163736 41.476889 L -5.152018 41.96517 L -5.136393 42.426107 L -5.124674 42.855795 L -5.109049 43.258139 L -5.093424 43.633139 L -5.081705 43.984701 L -5.06608 44.30892 L -5.054361 44.609701 L -5.046549 44.887045 L -5.03483 45.144857 L -5.030924 45.383139 L -5.027018 45.597982 L -5.023111 45.797201 L -5.023111 45.980795 L -5.027018 46.144857 L -5.027018 46.293295 L -5.030924 46.426107 L -5.030924 46.547201 L -5.027018 46.656576 L -5.023111 46.754232 L -5.011393 46.84017 L -4.999674 46.918295 L -4.980143 46.988607 L -4.960611 47.047201 L -4.933268 47.097982 L -4.902018 47.144857 L -4.870768 47.18392 L -4.800455 47.24642 L -4.765299 47.269857 L -4.734049 47.289389 L -4.702799 47.305014 L -4.675455 47.320639 L -4.652018 47.332357 L -4.636393 47.336264 L -4.624674 47.344076 L -4.616861 47.344076 L -4.601236 47.351889 L -4.480143 47.390951 L -4.218424 47.480795 L -3.804361 47.656576 L -3.280924 48.008139 L -2.702799 48.547201 L -2.081705 49.164389 L -1.390299 49.656576 L -0.616861 49.890951 L 0.199545 49.894857 L 0.961264 49.812826 L 1.570639 49.762045 L 1.976889 49.77767 L 2.176107 49.812826 L 2.199545 49.820639 L 2.211264 49.820639 L 2.234701 49.828451 L 2.265951 49.836264 L 2.30892 49.847982 L 2.359701 49.863607 L 2.418295 49.887045 L 2.488607 49.910482 L 2.562826 49.941732 L 2.734701 50.004232 L 2.828451 50.031576 L 2.930014 50.05892 L 3.02767 50.074545 L 3.133139 50.082357 L 3.234701 50.074545 L 3.34017 50.051107 L 3.441732 50.008139 L 3.543295 49.941732 L 3.640951 49.855795 L 3.734701 49.74642 L 3.828451 49.617514 L 3.914389 49.461264 L 3.99642 49.289389 L 4.074545 49.097982 L 4.148764 48.890951 L 4.21517 48.668295 L 4.27767 48.437826 L 4.336264 48.191732 L 4.387045 47.941732 L 4.437826 47.680014 L 4.484701 47.414389 L 4.523764 47.137045 L 4.562826 46.855795 L 4.597982 46.562826 L 4.633139 46.258139 L 4.664389 45.941732 L 4.695639 45.609701 L 4.726889 45.262045 L 4.754232 44.894857 L 4.781576 44.508139 L 4.805014 44.097982 L 4.824545 43.660482 L 4.844076 43.195639 L 4.859701 42.703451 L 4.875326 42.180014 L 4.883139 41.625326 L 4.887045 41.035482 L 4.887045 39.750326 L 4.879232 39.055014 L 4.87142 38.324545 L 4.863607 37.555014 L 4.847982 36.750326 L 4.836264 35.906576 L 4.820639 35.023764 L 4.805014 34.105795 L 4.793295 33.15267 L 4.77767 32.160482 L 4.765951 31.133139 L 4.754232 30.066732 L 4.74642 28.969076 L 4.738607 27.836264 L 4.730795 26.672201 L 4.722982 25.472982 L 4.719076 24.24642 L 4.71517 22.984701 L 4.71517 20.387045 L 4.719076 19.047201 L 4.722982 17.68392 L 4.730795 16.301107 L 4.74642 14.894857 L 4.762045 13.469076 L 4.781576 12.02767 L 4.805014 10.574545 L 4.832357 9.105795 L 4.863607 7.625326 L 4.898764 6.137045 L 4.93392 4.644857 L 5.019857 1.644857 L 5.066732 0.140951 L 5.113607 -1.359049 L 5.160482 -2.855143 L 5.207357 -4.34733 L 5.250326 -5.831705 L 5.293295 -7.304361 L 5.332357 -8.765299 L 5.367514 -10.214518 L 5.398764 -11.644205 L 5.422201 -13.058268 L 5.441732 -14.456705 L 5.449545 -15.827799 L 5.453451 -17.183268 L 5.449545 -18.511393 L 5.441732 -19.812174 L 5.426107 -21.089518 L 5.406576 -22.339518 L 5.383139 -23.558268 L 5.359701 -24.745768 L 5.332357 -25.905924 L 5.30892 -27.030924 L 5.285482 -28.124674 L 5.262045 -29.187174 L 5.24642 -30.214518 L 5.234701 -31.206705 L 5.226889 -32.163736 L 5.226889 -33.085611 L 5.234701 -33.976236 L 5.242514 -34.827799 L 5.262045 -35.644205 L 5.281576 -36.429361 L 5.305014 -37.175455 L 5.336264 -37.890299 L 5.363607 -38.569986 L 5.398764 -39.214518 L 5.430014 -39.827799 L 5.461264 -40.40983 L 5.492514 -40.960611 L 5.523764 -41.476236 L 5.551107 -41.964518 L 5.578451 -42.425455 L 5.601889 -42.855143 L 5.625326 -43.257486 L 5.644857 -43.632486 L 5.660482 -43.984049 L 5.676107 -44.308268 L 5.68392 -44.609049 L 5.695639 -44.886393 L 5.699545 -45.144205 L 5.699545 -45.382486 L 5.695639 -45.59733 L 5.687826 -45.796549 L 5.672201 -45.980143 L 5.65267 -46.144205 L 5.625326 -46.292643 L 5.59017 -46.425455 L 5.551107 -46.546549 L 5.504232 -46.655924 L 5.449545 -46.75358 L 5.394857 -46.839518 L 5.336264 -46.917643 L 5.273764 -46.987955 L 5.21517 -47.046549 L 5.156576 -47.09733 L 5.105795 -47.144205 L 5.05892 -47.183268 L 5.015951 -47.214518 L 4.980795 -47.245768 L 4.953451 -47.269205 L 4.918295 -47.304361 L 4.910482 -47.319986 L 4.90267 -47.331705 L 4.898764 -47.335611 L 4.898764 -47.343424 L 4.867514 -47.405924 L 4.734701 -47.581705 L 4.406576 -47.944986 L 3.832357 -48.484049 L 3.047201 -49.085611 L 2.140951 -49.605143 L 1.199545 -49.94108 L 0.305014 -50.085611 L -0.499674 -50.101236 L -1.167643 -50.073893 L -1.679361 -50.058268 L -2.015299 -50.058268 L -2.179361 -50.06608 L -2.198893 -50.06608 " transform="matrix(1, 0, 0, 1, 95.40983, 112.40983)"/>
<path fill-rule="evenodd" fill="rgb(100%, 100%, 100%)" fill-opacity="1" stroke-width="1" stroke-linecap="butt" stroke-linejoin="bevel" stroke="rgb(50.048876%, 50.048876%, 50.048876%)" stroke-opacity="1" stroke-miterlimit="10" d="M -11.777018 -24.613934 L -11.796549 -24.613934 L -11.960611 -24.629559 L -12.269205 -24.64909 L -12.679361 -24.645184 L -13.148111 -24.594402 L -13.624674 -24.465496 L -14.062174 -24.235027 L -14.429361 -23.875652 L -14.714518 -23.371746 L -14.90983 -22.71159 L -15.023111 -21.871746 L -15.069986 -20.844402 L -15.069986 -19.602215 L -15.038736 -18.137371 L -14.995768 -16.438152 L -14.952799 -14.496746 L -14.917643 -12.324871 L -14.898111 -9.942059 L -14.890299 -7.383465 L -14.890299 -4.695965 L -14.898111 -1.934246 L -14.898111 0.847004 L -14.890299 3.585285 L -14.870768 6.22591 L -14.839518 8.718098 L -14.804361 11.022785 L -14.769205 13.104816 L -14.745768 14.948566 L -14.741861 16.546223 L -14.765299 17.897785 L -14.819986 19.018879 L -14.913736 19.921223 L -15.03483 20.628254 L -15.175455 21.167316 L -15.323893 21.565754 L -15.460611 21.839191 L -15.562174 22.011066 L -15.616861 22.097004 L -15.624674 22.104816 L -15.644205 22.136066 L -15.819986 22.35091 L -16.183268 22.733723 L -16.65983 23.198566 L -16.995768 23.667316 L -16.808268 24.081379 L -15.765299 24.393879 L -13.745768 24.581379 L -10.882486 24.636066 L -7.452799 24.604816 L -3.769205 24.561848 L -0.109049 24.597004 L 3.285482 24.753254 L 6.207357 25.014973 L 8.523764 25.31966 L 10.18392 25.597004 L 11.222982 25.796223 L 11.71517 25.893879 L 11.77767 25.905598 L 11.801107 25.909504 L 11.980795 25.948566 L 12.328451 26.018879 L 12.816732 26.112629 L 13.40267 26.214191 L 14.035482 26.28841 L 14.656576 26.28841 L 15.219076 26.16341 L 15.676107 25.870441 L 16.004232 25.366535 L 16.199545 24.63216 L 16.273764 23.659504 L 16.250326 22.448566 L 16.156576 20.999348 L 16.019857 19.311848 L 15.863607 17.386066 L 15.699545 15.222004 L 15.547201 12.831379 L 15.40267 10.233723 L 15.269857 7.460285 L 15.15267 4.557941 L 15.055014 1.593098 L 14.976889 -1.375652 L 14.918295 -4.270184 L 14.883139 -7.035809 L 14.875326 -9.610027 L 14.890951 -11.957684 L 14.926107 -14.039715 L 14.976889 -15.852215 L 15.035482 -17.383465 L 15.101889 -18.64909 L 15.172201 -19.668621 L 15.24642 -20.465496 L 15.324545 -21.070965 L 15.398764 -21.512371 L 15.472982 -21.817059 L 15.52767 -22.004559 L 15.55892 -22.094402 L 15.562826 -22.106121 L 15.570639 -22.133465 L 15.62142 -22.320965 L 15.62142 -22.656902 L 15.406576 -23.074871 L 14.820639 -23.516277 L 13.750326 -23.93034 L 12.137045 -24.293621 L 9.992514 -24.582684 L 7.387045 -24.777996 L 4.437826 -24.875652 L 1.30892 -24.86784 L -1.788736 -24.781902 L -4.652018 -24.664715 L -7.101236 -24.563152 L -9.03483 -24.516277 L -10.425455 -24.527996 L -11.304361 -24.570965 L -11.72233 -24.610027 L -11.777018 -24.613934 " transform="matrix(1, 0, 0, 1, 105.40983, 251.68034)"/>
<path fill-rule="evenodd" fill="rgb(100%, 100%, 100%)" fill-opacity="1" stroke-width="1" stroke-linecap="butt" stroke-linejoin="bevel" stroke="rgb(50.048876%, 50.048876%, 50.048876%)" stroke-opacity="1" stroke-miterlimit="10" d="M -7.019857 -25.802571 L -7.02767 -25.806478 L -7.09017 -25.841634 L -7.211264 -25.896321 L -7.383139 -25.962728 L -7.59017 -26.009603 L -7.828451 -26.013509 L -8.078451 -25.958821 L -8.328451 -25.822103 L -8.566732 -25.59554 L -8.789389 -25.279134 L -8.984701 -24.87679 L -9.15267 -24.396321 L -9.293295 -23.841634 L -9.410482 -23.232259 L -9.504232 -22.56429 L -9.582357 -21.841634 L -9.644857 -21.06429 L -9.699545 -20.224446 L -9.750326 -19.310384 L -9.793295 -18.318196 L -9.836264 -17.236165 L -9.875326 -16.060384 L -9.910482 -14.779134 L -9.93392 -13.400228 L -9.949545 -11.919759 L -9.945639 -10.34554 L -9.930014 -8.68929 L -9.894857 -6.958821 L -9.847982 -5.173665 L -9.793295 -3.349446 L -9.734701 -1.497884 L -9.680014 0.357585 L -9.637045 2.201335 L -9.605795 4.017741 L -9.594076 5.787272 L -9.597982 7.494304 L -9.617514 9.127116 L -9.644857 10.673991 L -9.68392 12.12321 L -9.722982 13.470866 L -9.765951 14.709147 L -9.805014 15.838054 L -9.844076 16.853679 L -9.883139 17.759929 L -9.918295 18.556804 L -9.949545 19.256022 L -9.980795 19.853679 L -10.008139 20.365397 L -10.02767 20.795085 L -10.035482 21.150554 L -10.035482 21.443522 L -10.019857 21.677897 L -9.99642 21.861491 L -9.969076 22.002116 L -9.93392 22.107585 L -9.906576 22.18571 L -9.883139 22.232585 L -9.859701 22.267741 L -9.801107 22.361491 L -9.656576 22.568522 L -9.367514 22.90446 L -8.887045 23.369304 L -8.164389 23.920085 L -7.172201 24.474772 L -5.894857 24.927897 L -4.359701 25.201335 L -2.62142 25.267741 L -0.769857 25.142741 L 1.069986 24.90446 L 2.773111 24.631022 L 4.234049 24.392741 L 5.386393 24.21696 L 6.214518 24.107585 L 6.737955 24.052897 L 6.987955 24.02946 L 7.019205 24.025554 L 7.027018 24.025554 L 7.089518 24.017741 L 7.206705 24.006022 L 7.370768 23.978679 L 7.569986 23.939616 L 7.792643 23.877116 L 8.019205 23.787272 L 8.249674 23.670085 L 8.468424 23.517741 L 8.679361 23.326335 L 8.874674 23.09196 L 9.054361 22.814616 L 9.218424 22.482585 L 9.362955 22.099772 L 9.491861 21.646647 L 9.59733 21.12321 L 9.687174 20.517741 L 9.761393 19.822429 L 9.812174 19.025554 L 9.851236 18.12321 L 9.870768 17.103679 L 9.87858 15.974772 L 9.870768 14.724772 L 9.851236 13.365397 L 9.819986 11.896647 L 9.788736 10.334147 L 9.75358 8.681804 L 9.730143 6.955241 L 9.714518 5.170085 L 9.714518 3.34196 L 9.726236 1.494304 L 9.75358 -0.361165 L 9.788736 -2.204915 L 9.827799 -4.021321 L 9.866861 -5.790853 L 9.902018 -7.497884 L 9.921549 -9.130696 L 9.929361 -10.677571 L 9.929361 -12.12679 L 9.917643 -13.474446 L 9.902018 -14.712728 L 9.886393 -15.841634 L 9.882486 -16.857259 L 9.894205 -17.763509 L 9.929361 -18.560384 L 9.991861 -19.259603 L 10.081705 -19.857259 L 10.194986 -20.368978 L 10.323893 -20.798665 L 10.464518 -21.154134 L 10.609049 -21.447103 L 10.745768 -21.681478 L 10.870768 -21.865071 L 10.976236 -22.005696 L 11.058268 -22.111165 L 11.116861 -22.18929 L 11.175455 -22.259603 L 11.187174 -22.275228 L 11.265299 -22.372884 L 11.390299 -22.544759 L 11.468424 -22.763509 L 11.343424 -23.013509 L 10.851236 -23.310384 L 9.874674 -23.665853 L 8.413736 -24.068196 L 6.562174 -24.462728 L 4.452799 -24.78304 L 2.241861 -24.966634 L 0.0582676 -25.029134 L -1.961264 -25.029134 L -3.699545 -25.06429 L -5.082357 -25.18929 L -6.070639 -25.404134 L -6.691732 -25.634603 L -6.984701 -25.78304 L -7.019857 -25.802571 " transform="matrix(1, 0, 0, 1, 146.59017, 171.454915)"/>
<path fill-rule="evenodd" fill="rgb(100%, 100%, 100%)" fill-opacity="1" stroke-width="1" stroke-linecap="butt" stroke-linejoin="bevel" stroke="rgb(50.048876%, 50.048876%, 50.048876%)" stroke-opacity="1" stroke-miterlimit="10" d="M -2.198893 -24.534504 L -2.202799 -24.534504 L -2.226236 -24.530598 L -2.269205 -24.518879 L -2.335611 -24.499348 L -2.425455 -24.468098 L -2.53483 -24.421223 L -2.667643 -24.358723 L -2.819986 -24.268879 L -2.987955 -24.159504 L -3.163736 -24.022785 L -3.351236 -23.862629 L -3.53483 -23.679035 L -3.714518 -23.468098 L -3.882486 -23.237629 L -4.038736 -22.987629 L -4.171549 -22.714191 L -4.288736 -22.417316 L -4.382486 -22.097004 L -4.452799 -21.749348 L -4.511393 -21.370441 L -4.550455 -20.952473 L -4.577799 -20.491535 L -4.59733 -19.987629 L -4.612955 -19.429035 L -4.620768 -18.815754 L -4.632486 -18.139973 L -4.640299 -17.405598 L -4.652018 -16.604816 L -4.667643 -15.737629 L -4.683268 -14.804035 L -4.698893 -13.807941 L -4.718424 -12.749348 L -4.737955 -11.63216 L -4.761393 -10.460285 L -4.78483 -9.237629 L -4.812174 -7.972004 L -4.843424 -6.667316 L -4.874674 -5.331379 L -4.90983 -3.968098 L -4.948893 -2.589191 L -4.987955 -1.202473 L -5.027018 0.192059 L -5.06608 1.578777 L -5.105143 2.949871 L -5.136393 4.30534 L -5.163736 5.633465 L -5.183268 6.926434 L -5.198893 8.184246 L -5.206705 9.395184 L -5.206705 10.55534 L -5.198893 11.664715 L -5.183268 12.715496 L -5.155924 13.71159 L -5.124674 14.641277 L -5.089518 15.508465 L -5.046549 16.313152 L -4.999674 17.05534 L -4.956705 17.735027 L -4.917643 18.356121 L -4.886393 18.914715 L -4.862955 19.414715 L -4.855143 19.863934 L -4.855143 20.258465 L -4.862955 20.610027 L -4.882486 20.910809 L -4.902018 21.172527 L -4.921549 21.39909 L -4.937174 21.590496 L -4.94108 21.750652 L -4.929361 21.883465 L -4.905924 21.996746 L -4.870768 22.082684 L -4.823893 22.156902 L -4.773111 22.21159 L -4.72233 22.254559 L -4.679361 22.281902 L -4.648111 22.301434 L -4.62858 22.313152 L -4.612955 22.320965 L -4.476236 22.402996 L -4.206705 22.606121 L -3.800455 22.973309 L -3.261393 23.508465 L -2.605143 24.129559 L -1.859049 24.703777 L -1.062174 25.113934 L -0.249674 25.30534 L 0.512045 25.324871 L 1.172201 25.258465 L 1.680014 25.195965 L 2.015951 25.172527 L 2.180014 25.176434 L 2.203451 25.176434 L 2.226889 25.18034 L 2.273764 25.184246 L 2.34017 25.192059 L 2.426107 25.203777 L 2.531576 25.219402 L 2.656576 25.238934 L 2.797201 25.254559 L 2.949545 25.262371 L 3.117514 25.250652 L 3.297201 25.215496 L 3.480795 25.141277 L 3.668295 25.027996 L 3.851889 24.863934 L 4.031576 24.652996 L 4.203451 24.387371 L 4.355795 24.078777 L 4.488607 23.723309 L 4.597982 23.324871 L 4.687826 22.895184 L 4.754232 22.426434 L 4.805014 21.93034 L 4.836264 21.395184 L 4.855795 20.824871 L 4.867514 20.21159 L 4.875326 19.55534 L 4.887045 18.844402 L 4.894857 18.078777 L 4.910482 17.250652 L 4.930014 16.356121 L 4.957357 15.39909 L 4.988607 14.375652 L 5.023764 13.285809 L 5.05892 12.129559 L 5.097982 10.918621 L 5.137045 9.652996 L 5.172201 8.33659 L 5.207357 6.981121 L 5.234701 5.590496 L 5.262045 4.172527 L 5.27767 2.735027 L 5.289389 1.289715 L 5.297201 -0.159504 L 5.301107 -1.60091 L 5.297201 -3.026691 L 5.293295 -4.429035 L 5.285482 -5.800129 L 5.27767 -7.136066 L 5.262045 -8.429035 L 5.24642 -9.667316 L 5.226889 -10.854816 L 5.199545 -11.983723 L 5.164389 -13.050129 L 5.12142 -14.050129 L 5.070639 -14.987629 L 5.008139 -15.854816 L 4.945639 -16.655598 L 4.879232 -17.389973 L 4.820639 -18.057941 L 4.765951 -18.659504 L 4.722982 -19.202473 L 4.695639 -19.686848 L 4.680014 -20.112629 L 4.68392 -20.487629 L 4.695639 -20.815754 L 4.719076 -21.097004 L 4.750326 -21.339191 L 4.781576 -21.542316 L 4.812826 -21.714191 L 4.836264 -21.858723 L 4.855795 -21.97591 L 4.867514 -22.06966 L 4.875326 -22.147785 L 4.879232 -22.206379 L 4.875326 -22.249348 L 4.875326 -22.280598 L 4.87142 -22.300129 L 4.87142 -22.311848 L 4.867514 -22.323566 L 4.847982 -22.397785 L 4.773764 -22.53841 L 4.578451 -22.737629 L 4.187826 -23.042316 L 3.566732 -23.47591 L 2.738607 -23.983723 L 1.77767 -24.448566 L 0.785482 -24.741535 L -0.148111 -24.831379 L -0.948893 -24.776691 L -1.569986 -24.667316 L -1.976236 -24.581379 L -2.175455 -24.542316 L -2.198893 -24.534504 " transform="matrix(1, 0, 0, 1, 95.40983, 29.31966)"/>
<path fill-rule="evenodd" fill="rgb(100%, 100%, 100%)" fill-opacity="1" stroke-width="1" stroke-linecap="butt" stroke-linejoin="bevel" stroke="rgb(50.048876%, 50.048876%, 50.048876%)" stroke-opacity="1" stroke-miterlimit="10" d="M -2.199545 -3.823081 L -2.222982 -3.780112 L -2.387045 -3.49105 L -2.726889 -3.026206 L -3.21517 -2.541831 L -3.762045 -2.119956 L -4.234701 -1.744956 L -4.543295 -1.330894 L -4.680014 -0.795737 L -4.750326 -0.151206 L -4.883139 0.5402 L -5.15267 1.176919 L -5.531576 1.680825 L -5.90267 2.016763 L -6.133139 2.180825 L -6.164389 2.200356 L -6.195639 2.223794 L -6.383139 2.38395 L -6.515951 2.69645 L -6.27767 3.13395 L -5.512045 3.622231 L -4.305014 4.087075 L -2.914389 4.469888 L -1.582357 4.755044 L -0.449545 4.965981 L 0.460611 5.118325 L 1.163736 5.208169 L 1.679361 5.239419 L 2.015299 5.2277 L 2.179361 5.204263 L 2.198893 5.204263 L 2.22233 5.200356 L 2.382486 5.149575 L 2.702799 4.981606 L 3.132486 4.6027 L 3.59733 3.973794 L 3.995768 3.137856 L 4.269205 2.188638 L 4.421549 1.219888 L 4.495768 0.313638 L 4.515299 -0.494956 L 4.468424 -1.166831 L 4.355143 -1.67855 L 4.202799 -2.014487 L 4.09733 -2.17855 L 4.081705 -2.198081 L 4.06608 -2.221519 L 3.94108 -2.377769 L 3.702799 -2.666831 L 3.359049 -3.057456 L 2.913736 -3.502769 L 2.370768 -3.975425 L 1.726236 -4.440269 L 0.995768 -4.846519 L 0.226236 -5.123862 L -0.519857 -5.17855 L -1.172201 -4.983237 L -1.680014 -4.588706 L -2.015951 -4.1473 L -2.180014 -3.862144 L -2.199545 -3.823081 " transform="matrix(1, 0, 0, 1, 141.59017, 265.725425)"/>
<path fill-rule="evenodd" fill="rgb(100%, 100%, 100%)" fill-opacity="1" stroke-width="1" stroke-linecap="butt" stroke-linejoin="bevel" stroke="rgb(50.048876%, 50.048876%, 50.048876%)" stroke-opacity="1" stroke-miterlimit="10" d="M -7.019857 -9.517741 L -7.051107 -9.506022 L -7.281576 -9.408366 L -7.672201 -9.213054 L -8.129232 -8.892741 L -8.570639 -8.423991 L -8.949545 -7.763835 L -9.258139 -6.865397 L -9.500326 -5.693522 L -9.672201 -4.244304 L -9.762045 -2.564616 L -9.769857 -0.744304 L -9.711264 1.079915 L -9.625326 2.779134 L -9.531576 4.236165 L -9.449545 5.388509 L -9.390951 6.216634 L -9.347982 6.740071 L -9.324545 6.990071 L -9.316732 7.052571 L -9.285482 7.286946 L -9.191732 7.712728 L -8.976889 8.243978 L -8.582357 8.790853 L -7.941732 9.267415 L -7.023764 9.62679 L -5.80892 9.868978 L -4.316732 10.013509 L -2.601889 10.09554 L -0.762045 10.130696 L 1.073893 10.115071 L 2.773111 10.048665 L 4.234049 9.935384 L 5.386393 9.798665 L 6.214518 9.669759 L 6.737955 9.572103 L 6.987955 9.521321 L 7.050455 9.505696 L 7.28483 9.451009 L 7.706705 9.310384 L 8.230143 9.048665 L 8.761393 8.611165 L 9.218424 7.943196 L 9.562174 7.013509 L 9.788736 5.798665 L 9.917643 4.306478 L 9.976236 2.59554 L 9.968424 0.759603 L 9.921549 -1.072429 L 9.890299 -2.771647 L 9.952799 -4.232585 L 10.15983 -5.384929 L 10.491861 -6.213054 L 10.84733 -6.736491 L 11.077799 -6.986491 L 11.140299 -7.048991 L 11.355143 -7.287272 L 11.601236 -7.720866 L 11.624674 -8.283366 L 11.198893 -8.865397 L 10.234049 -9.369304 L 8.780924 -9.71696 L 6.984049 -9.884929 L 4.991861 -9.916179 L 2.929361 -9.881022 L 0.894205 -9.849772 L -1.031576 -9.853679 L -2.765951 -9.884929 L -4.234701 -9.892741 L -5.387045 -9.845866 L -6.21517 -9.740397 L -6.738607 -9.611491 L -6.988607 -9.52946 L -7.019857 -9.517741 " transform="matrix(1, 0, 0, 1, 146.59017, 214.545085)"/>
<path fill-rule="evenodd" fill="rgb(100%, 100%, 100%)" fill-opacity="1" stroke-width="1" stroke-linecap="butt" stroke-linejoin="bevel" stroke="rgb(50.048876%, 50.048876%, 50.048876%)" stroke-opacity="1" stroke-miterlimit="10" d="M -11.777018 -15.171875 L -11.827799 -15.179688 L -12.202799 -15.214844 L -12.819986 -15.195313 L -13.464518 -14.984375 L -13.956705 -14.433594 L -14.218424 -13.425781 L -14.273111 -11.894531 L -14.218424 -9.835938 L -14.15983 -7.296875 L -14.175455 -4.394531 L -14.300455 -1.292969 L -14.542643 1.796875 L -14.870768 4.652344 L -15.241861 7.101562 L -15.593424 9.035156 L -15.882486 10.425781 L -16.081705 11.304687 L -16.179361 11.722656 L -16.19108 11.777344 L -16.202799 11.835937 L -16.312174 12.296875 L -16.495768 13.117187 L -16.652018 14.113281 L -16.581705 15.046875 L -16.050455 15.710937 L -14.84733 16.003906 L -12.898111 15.972656 L -10.25358 15.746094 L -7.077799 15.464844 L -3.589518 15.234375 L -0.0426426 15.097656 L 3.301107 15.078125 L 6.211264 15.171875 L 8.523764 15.347656 L 10.18392 15.550781 L 11.222982 15.722656 L 11.71517 15.824219 L 11.77767 15.835937 L 11.828451 15.847656 L 12.21517 15.910156 L 12.879232 15.921875 L 13.644857 15.714844 L 14.324545 15.105469 L 14.781576 13.984375 L 14.984701 12.3125 L 14.99642 10.109375 L 14.926107 7.453125 L 14.883139 4.46875 L 14.922201 1.320312 L 15.02767 -1.785156 L 15.140951 -4.652344 L 15.207357 -7.101563 L 15.199545 -9.035156 L 15.137045 -10.425781 L 15.05892 -11.304688 L 15.008139 -11.722656 L 15.000326 -11.777344 L 14.992514 -11.828125 L 14.926107 -12.210938 L 14.754232 -12.851563 L 14.414389 -13.566406 L 13.80892 -14.183594 L 12.844076 -14.613281 L 11.43392 -14.855469 L 9.519857 -14.972656 L 7.113607 -15.027344 L 4.301107 -15.058594 L 1.254232 -15.070313 L -1.808268 -15.058594 L -4.655924 -15.027344 L -7.101236 -15.003906 L -9.03483 -15.007813 L -10.425455 -15.054688 L -11.304361 -15.121094 L -11.72233 -15.167969 L -11.777018 -15.171875 " transform="matrix(1, 0, 0, 1, 105.40983, 185.5)"/>
<path fill-rule="evenodd" fill="rgb(100%, 100%, 100%)" fill-opacity="1" stroke-width="1" stroke-linecap="butt" stroke-linejoin="bevel" stroke="rgb(50.048876%, 50.048876%, 50.048876%)" stroke-opacity="1" stroke-miterlimit="10" d="M -32.202146 -15.03125 L -32.221678 -15.019531 L -32.362303 -14.890625 L -32.612303 -14.59375 L -32.936521 -14.082031 L -33.303709 -13.382813 L -33.709959 -12.527344 L -34.120115 -11.507813 L -34.475584 -10.199219 L -34.709959 -8.417969 L -34.799803 -6.042969 L -34.764646 -3.117188 L -34.66699 0.125 L -34.569334 3.347656 L -34.51074 6.21875 L -34.502928 8.523437 L -34.538084 10.183594 L -34.584959 11.222656 L -34.616209 11.714844 L -34.620115 11.777344 L -34.624021 11.789062 L -34.627928 11.894531 L -34.639646 12.089844 L -34.643553 12.363281 L -34.627928 12.695312 L -34.584959 13.054687 L -34.502928 13.421875 L -34.366209 13.777344 L -34.170896 14.109375 L -33.909178 14.410156 L -33.577146 14.675781 L -33.16699 14.902344 L -32.678709 15.097656 L -32.100584 15.257812 L -31.428709 15.386719 L -30.651365 15.484375 L -29.756834 15.550781 L -28.733396 15.589844 L -27.565428 15.597656 L -26.245115 15.582031 L -24.768553 15.542969 L -23.124021 15.488281 L -21.315428 15.425781 L -19.342771 15.359375 L -17.217771 15.292969 L -14.952146 15.234375 L -12.561521 15.179687 L -10.061521 15.136719 L -7.47949 15.101562 L -4.838865 15.078125 L -2.163084 15.066406 L 0.524416 15.0625 L 3.192385 15.066406 L 5.817385 15.078125 L 8.375979 15.09375 L 10.844729 15.117187 L 13.20801 15.136719 L 15.446291 15.160156 L 17.543947 15.179687 L 19.493166 15.195312 L 21.286135 15.203125 L 22.915041 15.203125 L 24.387697 15.191406 L 25.696291 15.171875 L 26.852541 15.140625 L 27.860354 15.105469 L 28.731447 15.066406 L 29.469729 15.03125 L 30.090822 15.003906 L 30.606447 14.996094 L 31.028322 15.007812 L 31.36426 15.050781 L 31.633791 15.113281 L 31.836916 15.191406 L 31.98926 15.28125 L 32.098635 15.359375 L 32.168947 15.425781 L 32.200197 15.457031 L 32.204104 15.464844 L 32.219729 15.480469 L 32.348635 15.589844 L 32.606447 15.683594 L 32.969729 15.5625 L 33.39551 15.035156 L 33.813479 13.96875 L 34.153322 12.320312 L 34.372072 10.125 L 34.461916 7.464844 L 34.442385 4.476562 L 34.352541 1.324219 L 34.215822 -1.785156 L 34.047854 -4.652344 L 33.868166 -7.101563 L 33.704104 -9.035156 L 33.567385 -10.425781 L 33.473635 -11.304688 L 33.42676 -11.722656 L 33.418947 -11.777344 L 33.418947 -11.789063 L 33.407229 -11.902344 L 33.379885 -12.117188 L 33.344729 -12.429688 L 33.297854 -12.820313 L 33.243166 -13.269531 L 33.17676 -13.746094 L 33.098635 -14.230469 L 33.008791 -14.6875 L 32.903322 -15.089844 L 32.778322 -15.421875 L 32.618166 -15.667969 L 32.411135 -15.828125 L 32.14551 -15.902344 L 31.80176 -15.90625 L 31.360354 -15.851563 L 30.797854 -15.761719 L 30.098635 -15.648438 L 29.243166 -15.527344 L 28.20801 -15.40625 L 26.98926 -15.292969 L 25.571291 -15.191406 L 23.954104 -15.089844 L 22.137697 -14.996094 L 20.129885 -14.898438 L 17.938479 -14.800781 L 15.58301 -14.703125 L 13.08301 -14.609375 L 10.461916 -14.519531 L 7.750979 -14.441406 L 4.969729 -14.382813 L 2.153322 -14.347656 L -0.663084 -14.332031 L -3.459959 -14.34375 L -6.202146 -14.375 L -8.862303 -14.425781 L -11.420896 -14.488281 L -13.850584 -14.558594 L -16.139646 -14.632813 L -18.272459 -14.710938 L -20.237303 -14.792969 L -22.026365 -14.871094 L -23.643553 -14.949219 L -25.084959 -15.027344 L -26.358396 -15.105469 L -27.463865 -15.179688 L -28.420896 -15.246094 L -29.22949 -15.300781 L -29.913084 -15.34375 L -30.475584 -15.363281 L -30.932615 -15.363281 L -31.299803 -15.335938 L -31.588865 -15.292969 L -31.811521 -15.234375 L -31.975584 -15.167969 L -32.088865 -15.109375 L -32.163084 -15.0625 L -32.19824 -15.035156 L -32.202146 -15.03125 " transform="matrix(1, 0, 0, 1, 39.22949, 140.5)"/>
<path fill-rule="evenodd" fill="rgb(100%, 100%, 100%)" fill-opacity="1" stroke-width="1" stroke-linecap="butt" stroke-linejoin="bevel" stroke="rgb(50.048876%, 50.048876%, 50.048876%)" stroke-opacity="1" stroke-miterlimit="10" d="M -12.230795 -9.107911 L -12.242514 -9.100099 L -12.355795 -9.041505 L -12.594076 -8.908692 L -12.961264 -8.666505 L -13.414389 -8.271974 L -13.879232 -7.674317 L -14.273764 -6.818849 L -14.539389 -5.670411 L -14.680014 -4.236817 L -14.730795 -2.561036 L -14.750326 -0.74463 L -14.773764 1.079589 L -14.824545 2.778808 L -14.898764 4.235839 L -14.992514 5.388183 L -15.094076 6.216308 L -15.180014 6.739745 L -15.230795 6.989745 L -15.234701 7.020995 L -15.265951 7.145995 L -15.316732 7.353026 L -15.394857 7.642089 L -15.488607 7.993651 L -15.574545 8.372558 L -15.617514 8.747558 L -15.570639 9.091308 L -15.398764 9.376464 L -15.066732 9.587401 L -14.562826 9.728026 L -13.894857 9.806151 L -13.074545 9.833495 L -12.117514 9.833495 L -11.043295 9.81787 L -9.863607 9.798339 L -8.578451 9.782714 L -7.191732 9.770995 L -5.711264 9.767089 L -4.15267 9.763183 L -2.535482 9.767089 L -0.887045 9.778808 L 0.757486 9.802245 L 2.362955 9.837401 L 3.890299 9.884276 L 5.31608 9.935058 L 6.612955 9.993651 L 7.765299 10.040526 L 8.769205 10.075683 L 9.616861 10.091308 L 10.31608 10.075683 L 10.882486 10.03662 L 11.323893 9.970214 L 11.655924 9.892089 L 11.902018 9.810058 L 12.069986 9.735839 L 12.171549 9.685058 L 12.22233 9.653808 L 12.230143 9.649901 L 12.241861 9.642089 L 12.351236 9.571776 L 12.554361 9.41162 L 12.835611 9.122558 L 13.167643 8.657714 L 13.519205 7.970214 L 13.859049 7.024901 L 14.171549 5.802245 L 14.444986 4.310058 L 14.671549 2.595214 L 14.839518 0.759276 L 14.94108 -1.072755 L 14.97233 -2.771974 L 14.952799 -4.232911 L 14.902018 -5.385255 L 14.843424 -6.21338 L 14.800455 -6.736817 L 14.780924 -6.986817 L 14.777018 -7.018067 L 14.777018 -7.033692 L 14.765299 -7.143067 L 14.745768 -7.350099 L 14.714518 -7.639161 L 14.667643 -7.986817 L 14.59733 -8.354005 L 14.487955 -8.717286 L 14.323893 -9.037599 L 14.089518 -9.295411 L 13.773111 -9.486817 L 13.355143 -9.61963 L 12.835611 -9.705567 L 12.198893 -9.768067 L 11.44108 -9.818849 L 10.554361 -9.873536 L 9.527018 -9.93213 L 8.362955 -9.982911 L 7.06608 -10.014161 L 5.640299 -10.021974 L 4.116861 -9.99463 L 2.515299 -9.943849 L 0.87858 -9.873536 L -0.762045 -9.803224 L -2.363607 -9.74463 L -3.890951 -9.705567 L -5.316732 -9.686036 L -6.613607 -9.678224 L -7.765951 -9.666505 L -8.769857 -9.643067 L -9.617514 -9.604005 L -10.316732 -9.549317 L -10.883139 -9.479005 L -11.324545 -9.40088 L -11.656576 -9.318849 L -11.90267 -9.24463 L -12.070639 -9.18213 L -12.172201 -9.135255 L -12.222982 -9.107911 L -12.230795 -9.107911 " transform="matrix(1, 0, 0, 1, 151.59017, 242.635255)"/>
<path fill-rule="evenodd" fill="rgb(100%, 100%, 100%)" fill-opacity="1" stroke-width="1" stroke-linecap="butt" stroke-linejoin="bevel" stroke="rgb(50.048876%, 50.048876%, 50.048876%)" stroke-opacity="1" stroke-miterlimit="10" d="M -17.297854 -5.150228 L -17.313479 -5.165853 L -17.403322 -5.286946 L -17.567385 -5.56429 L -17.793947 -5.880696 L -18.094729 -5.911946 L -18.481447 -5.353353 L -18.879885 -4.169759 L -19.204104 -2.654134 L -19.387697 -1.181478 L -19.45801 0.0216475 L -19.481447 0.923991 L -19.516604 1.564616 L -19.563479 1.974772 L -19.598635 2.173991 L -19.602541 2.197429 L -19.602541 2.201335 L -19.606447 2.228679 L -19.61426 2.287272 L -19.61426 2.369304 L -19.602541 2.478679 L -19.567385 2.607585 L -19.497072 2.759929 L -19.391604 2.927897 L -19.247072 3.107585 L -19.055666 3.295085 L -18.821291 3.482585 L -18.547854 3.666179 L -18.235354 3.84196 L -17.887697 4.006022 L -17.504885 4.15446 L -17.086916 4.287272 L -16.625979 4.40446 L -16.122072 4.506022 L -15.571291 4.588054 L -14.961916 4.658366 L -14.290041 4.713054 L -13.547854 4.752116 L -12.735354 4.77946 L -11.848635 4.795085 L -10.887697 4.806804 L -9.852541 4.81071 L -8.750979 4.81071 L -7.58301 4.818522 L -6.36426 4.822429 L -5.094729 4.830241 L -3.790041 4.84196 L -2.45801 4.845866 L -1.110354 4.849772 L 0.241209 4.845866 L 1.584959 4.830241 L 2.909178 4.802897 L 4.206053 4.771647 L 5.459959 4.728679 L 6.66699 4.68571 L 7.819334 4.638835 L 8.909178 4.595866 L 9.928709 4.556804 L 10.874021 4.52946 L 11.749021 4.513835 L 12.54199 4.506022 L 13.264646 4.513835 L 13.909178 4.52946 L 14.47949 4.56071 L 14.983396 4.595866 L 15.420896 4.638835 L 15.795896 4.68571 L 16.112303 4.732585 L 16.381834 4.77946 L 16.60449 4.818522 L 16.784178 4.853679 L 16.932615 4.881022 L 17.045896 4.900554 L 17.13574 4.912272 L 17.202146 4.920085 L 17.249021 4.923991 L 17.307615 4.923991 L 17.393553 4.900554 L 17.57324 4.775554 L 17.842771 4.451335 L 18.170896 3.87321 L 18.526365 3.080241 L 18.881834 2.158366 L 19.217771 1.209147 L 19.499021 0.306804 L 19.63574 -0.497884 L 19.545896 -1.169759 L 19.22949 -1.681478 L 18.819334 -2.017415 L 18.534178 -2.181478 L 18.491209 -2.201009 L 18.487303 -2.204915 L 18.428709 -2.232259 L 18.32324 -2.286946 L 18.178709 -2.368978 L 18.002928 -2.466634 L 17.815428 -2.583821 L 17.627928 -2.716634 L 17.44824 -2.857259 L 17.284178 -3.009603 L 17.139646 -3.165853 L 17.01074 -3.329915 L 16.88574 -3.493978 L 16.76074 -3.661946 L 16.616209 -3.829915 L 16.444334 -3.993978 L 16.225584 -4.150228 L 15.94824 -4.294759 L 15.608396 -4.423665 L 15.190428 -4.53304 L 14.686521 -4.618978 L 14.096678 -4.685384 L 13.41699 -4.728353 L 12.651365 -4.755696 L 11.795896 -4.767415 L 10.85449 -4.771321 L 9.831053 -4.779134 L 8.737303 -4.794759 L 7.577146 -4.818196 L 6.358396 -4.861165 L 5.092771 -4.915853 L 3.784178 -4.986165 L 2.456053 -5.068196 L 1.108396 -5.15804 L -0.243166 -5.247884 L -1.586916 -5.329915 L -2.911135 -5.396321 L -4.20801 -5.451009 L -5.461916 -5.482259 L -6.668947 -5.493978 L -7.821291 -5.486165 L -8.911135 -5.458821 L -9.930666 -5.419759 L -10.875979 -5.372884 L -11.750979 -5.322103 L -12.543947 -5.271321 L -13.266604 -5.224446 L -13.911135 -5.181478 L -14.481447 -5.142415 L -14.985354 -5.103353 L -15.422854 -5.072103 L -15.797854 -5.040853 L -16.11426 -5.013509 L -16.383791 -4.993978 L -16.606447 -4.978353 L -16.786135 -4.978353 L -16.934572 -4.990071 L -17.047854 -5.009603 L -17.137697 -5.040853 L -17.204104 -5.076009 L -17.282229 -5.134603 L -17.297854 -5.150228 " transform="matrix(1, 0, 0, 1, 192.77051, 171.454915)"/>
<path fill-rule="evenodd" fill="rgb(100%, 100%, 100%)" fill-opacity="1" stroke-width="1" stroke-linecap="butt" stroke-linejoin="bevel" stroke="rgb(50.048876%, 50.048876%, 50.048876%)" stroke-opacity="1" stroke-miterlimit="10" d="M -7.019857 -15.734049 L -7.035482 -15.737955 L -7.144857 -15.777018 L -7.351889 -15.855143 L -7.644857 -15.968424 L -7.99642 -16.112955 L -8.387045 -16.257486 L -8.77767 -16.34733 L -9.148764 -16.331705 L -9.469076 -16.15983 L -9.722982 -15.792643 L -9.906576 -15.226236 L -10.019857 -14.464518 L -10.078451 -13.53483 L -10.105795 -12.47233 L -10.117514 -11.296549 L -10.137045 -10.03483 L -10.172201 -8.683268 L -10.234701 -7.25358 L -10.316732 -5.745768 L -10.414389 -4.167643 L -10.519857 -2.542643 L -10.613607 -0.890299 L -10.691732 0.758139 L -10.738607 2.363607 L -10.758139 3.890951 L -10.74642 5.316732 L -10.703451 6.613607 L -10.633139 7.765951 L -10.539389 8.769857 L -10.43392 9.617514 L -10.316732 10.316732 L -10.203451 10.883139 L -10.101889 11.324545 L -10.015951 11.656576 L -9.953451 11.90267 L -9.910482 12.070639 L -9.890951 12.172201 L -9.879232 12.222982 L -9.879232 12.230795 L -9.875326 12.242514 L -9.847982 12.351889 L -9.74642 12.570639 L -9.500326 12.875326 L -9.039389 13.226889 L -8.30892 13.566732 L -7.289389 13.844076 L -5.976889 14.035482 L -4.410482 14.160482 L -2.644857 14.265951 L -0.781576 14.40267 L 1.06608 14.566732 L 2.773111 14.738607 L 4.234049 14.859701 L 5.386393 14.898764 L 6.214518 14.863607 L 6.737955 14.785482 L 6.987955 14.730795 L 7.03483 14.719076 L 7.132486 14.691732 L 7.319986 14.629232 L 7.585611 14.535482 L 7.898111 14.390951 L 8.241861 14.199545 L 8.585611 13.945639 L 8.905924 13.633139 L 9.183268 13.250326 L 9.405924 12.797201 L 9.569986 12.265951 L 9.679361 11.640951 L 9.745768 10.914389 L 9.780924 10.078451 L 9.804361 9.117514 L 9.827799 8.031576 L 9.859049 6.824545 L 9.894205 5.504232 L 9.933268 4.086264 L 9.976236 2.597982 L 10.007486 1.070639 L 10.030924 -0.468424 L 10.03483 -1.984049 L 10.023111 -3.444986 L 9.991861 -4.823893 L 9.948893 -6.09733 L 9.898111 -7.249674 L 9.851236 -8.269205 L 9.808268 -9.155924 L 9.78483 -9.902018 L 9.777018 -10.519205 L 9.788736 -11.019205 L 9.81608 -11.413736 L 9.84733 -11.710611 L 9.882486 -11.929361 L 9.90983 -12.081705 L 9.933268 -12.179361 L 9.94108 -12.22233 L 9.944986 -12.230143 L 9.948893 -12.241861 L 9.960611 -12.351236 L 9.917643 -12.56608 L 9.726236 -12.882486 L 9.288736 -13.300455 L 8.542643 -13.800455 L 7.47233 -14.335611 L 6.105143 -14.827799 L 4.484049 -15.194986 L 2.683268 -15.390299 L 0.792643 -15.421549 L -1.062826 -15.362955 L -2.773764 -15.304361 L -4.234701 -15.308268 L -5.387045 -15.390299 L -6.21517 -15.523111 L -6.738607 -15.648111 L -6.988607 -15.72233 L -7.019857 -15.734049 " transform="matrix(1, 0, 0, 1, 126.59017, 112.40983)"/>
</svg>
