<?xml version="1.0" encoding="UTF-8"?>
<svg xmlns="http://www.w3.org/2000/svg" xmlns:xlink="http://www.w3.org/1999/xlink" width="217.013156pt" height="248.472136pt" viewBox="0 0 217.013156 248.472136" version="1.1">
<g id="surface4869">
<path style="fill-rule:evenodd;fill:rgb(100%,100%,100%);fill-opacity:1;stroke-width:1;stroke-linecap:butt;stroke-linejoin:bevel;stroke:rgb(50.048876%,50.048876%,50.048876%);stroke-opacity:1;stroke-miterlimit:10;" d="M -2.198893 -49.9375 L -2.202799 -49.9375 L -2.210611 -49.941406 L -2.234049 -49.949219 L -2.265299 -49.960938 L -2.308268 -49.972656 L -2.362955 -49.980469 L -2.425455 -49.988281 L -2.50358 -49.984375 L -2.589518 -49.972656 L -2.687174 -49.945312 L -2.796549 -49.90625 L -2.913736 -49.851562 L -3.042643 -49.78125 L -3.175455 -49.691406 L -3.31608 -49.585938 L -3.456705 -49.464844 L -3.601236 -49.328125 L -3.745768 -49.175781 L -3.882486 -49.011719 L -4.019205 -48.839844 L -4.144205 -48.65625 L -4.261393 -48.46875 L -4.370768 -48.277344 L -4.468424 -48.078125 L -4.550455 -47.875 L -4.620768 -47.667969 L -4.683268 -47.460938 L -4.730143 -47.246094 L -4.765299 -47.027344 L -4.792643 -46.800781 L -4.808268 -46.566406 L -4.81608 -46.324219 L -4.819986 -46.070312 L -4.81608 -45.800781 L -4.808268 -45.515625 L -4.796549 -45.214844 L -4.78483 -44.894531 L -4.773111 -44.550781 L -4.761393 -44.183594 L -4.749674 -43.792969 L -4.745768 -43.375 L -4.741861 -42.929688 L -4.741861 -42.457031 L -4.749674 -41.953125 L -4.757486 -41.417969 L -4.773111 -40.847656 L -4.788736 -40.246094 L -4.808268 -39.613281 L -4.831705 -38.941406 L -4.859049 -38.238281 L -4.886393 -37.5 L -4.913736 -36.726562 L -4.94108 -35.917969 L -4.97233 -35.070312 L -4.999674 -34.191406 L -5.027018 -33.273438 L -5.054361 -32.324219 L -5.077799 -31.339844 L -5.101236 -30.320312 L -5.124674 -29.265625 L -5.148111 -28.179688 L -5.163736 -27.0625 L -5.183268 -25.914062 L -5.194986 -24.734375 L -5.202799 -23.527344 L -5.210611 -22.289062 L -5.210611 -21.027344 L -5.206705 -19.738281 L -5.198893 -18.425781 L -5.187174 -17.089844 L -5.167643 -15.734375 L -5.148111 -14.359375 L -5.124674 -12.964844 L -5.09733 -11.554688 L -5.073893 -10.132812 L -5.046549 -8.695312 L -5.023111 -7.25 L -5.00358 -5.796875 L -4.984049 -4.335938 L -4.968424 -2.867188 L -4.956705 -1.398438 L -4.948893 0.0703125 L -4.944986 1.535156 L -4.944986 3 L -4.948893 4.460938 L -4.952799 5.914062 L -4.960611 7.355469 L -4.968424 8.785156 L -4.980143 10.207031 L -4.987955 11.609375 L -4.999674 13 L -5.011393 14.367188 L -5.019205 15.71875 L -5.030924 17.050781 L -5.038736 18.355469 L -5.050455 19.640625 L -5.058268 20.898438 L -5.06608 22.128906 L -5.069986 23.332031 L -5.077799 24.507812 L -5.081705 25.652344 L -5.081705 28.902344 L -5.077799 29.921875 L -5.069986 30.910156 L -5.062174 31.863281 L -5.050455 32.78125 L -5.03483 33.667969 L -5.019205 34.519531 L -4.999674 35.339844 L -4.980143 36.121094 L -4.956705 36.875 L -4.937174 37.589844 L -4.913736 38.277344 L -4.890299 38.925781 L -4.866861 39.546875 L -4.843424 40.132812 L -4.823893 40.691406 L -4.808268 41.21875 L -4.792643 41.714844 L -4.780924 42.179688 L -4.773111 42.621094 L -4.769205 43.03125 L -4.765299 43.417969 L -4.769205 43.777344 L -4.773111 44.113281 L -4.780924 44.425781 L -4.792643 44.714844 L -4.808268 44.980469 L -4.831705 45.226562 L -4.855143 45.457031 L -4.886393 45.664062 L -4.917643 45.855469 L -4.960611 46.027344 L -5.00358 46.1875 L -5.058268 46.328125 L -5.116861 46.460938 L -5.179361 46.574219 L -5.249674 46.679688 L -5.323893 46.773438 L -5.402018 46.859375 L -5.484049 46.933594 L -5.56608 46.996094 L -5.652018 47.054688 L -5.734049 47.105469 L -5.81608 47.148438 L -5.898111 47.1875 L -5.97233 47.21875 L -6.042643 47.25 L -6.105143 47.273438 L -6.163736 47.292969 L -6.214518 47.308594 L -6.257486 47.320312 L -6.288736 47.332031 L -6.31608 47.339844 L -6.335611 47.34375 L -6.343424 47.34375 L -6.359049 47.351562 L -6.444986 47.402344 L -6.429361 47.558594 L -6.069986 47.875 L -5.257486 48.332031 L -4.085611 48.84375 L -2.765299 49.316406 L -1.50358 49.683594 L -0.417643 49.949219 L 0.469076 50.140625 L 1.164389 50.28125 L 1.680014 50.378906 L 2.015951 50.429688 L 2.180014 50.449219 L 2.203451 50.449219 L 2.211264 50.453125 L 2.234701 50.453125 L 2.265951 50.457031 L 2.30892 50.460938 L 2.359701 50.460938 L 2.418295 50.464844 L 2.488607 50.460938 L 2.562826 50.457031 L 2.648764 50.449219 L 2.738607 50.433594 L 2.832357 50.410156 L 2.93392 50.378906 L 3.035482 50.332031 L 3.140951 50.273438 L 3.250326 50.199219 L 3.359701 50.113281 L 3.46517 50.007812 L 3.570639 49.886719 L 3.676107 49.746094 L 3.773764 49.59375 L 3.87142 49.425781 L 3.961264 49.246094 L 4.047201 49.054688 L 4.125326 48.851562 L 4.199545 48.640625 L 4.269857 48.421875 L 4.332357 48.199219 L 4.394857 47.96875 L 4.445639 47.730469 L 4.49642 47.488281 L 4.543295 47.242188 L 4.586264 46.984375 L 4.625326 46.722656 L 4.664389 46.445312 L 4.695639 46.160156 L 4.726889 45.859375 L 4.758139 45.542969 L 4.781576 45.207031 L 4.805014 44.851562 L 4.824545 44.472656 L 4.844076 44.070312 L 4.859701 43.640625 L 4.875326 43.179688 L 4.887045 42.691406 L 4.894857 42.171875 L 4.90267 41.617188 L 4.910482 41.03125 L 4.914389 40.40625 L 4.922201 39.75 L 4.926107 39.054688 L 4.926107 38.324219 L 4.930014 37.554688 L 4.93392 36.75 L 4.93392 35.90625 L 4.937826 35.023438 L 4.937826 30.066406 L 4.93392 28.96875 L 4.930014 27.835938 L 4.926107 26.671875 L 4.922201 25.472656 L 4.918295 24.246094 L 4.918295 22.984375 L 4.914389 21.699219 L 4.914389 20.386719 L 4.918295 19.046875 L 4.922201 17.683594 L 4.930014 16.300781 L 4.941732 14.894531 L 4.957357 13.46875 L 4.980795 12.027344 L 5.004232 10.574219 L 5.02767 9.105469 L 5.055014 7.625 L 5.086264 6.136719 L 5.113607 4.644531 L 5.140951 3.144531 L 5.164389 1.644531 L 5.18392 0.140625 L 5.199545 -1.359375 L 5.211264 -2.855469 L 5.219076 -4.347656 L 5.219076 -5.832031 L 5.21517 -7.304688 L 5.211264 -8.765625 L 5.199545 -10.214844 L 5.187826 -11.644531 L 5.176107 -13.058594 L 5.164389 -14.457031 L 5.15267 -15.828125 L 5.144857 -17.183594 L 5.133139 -18.511719 L 5.129232 -19.8125 L 5.12142 -21.089844 L 5.117514 -22.339844 L 5.113607 -23.558594 L 5.105795 -24.746094 L 5.101889 -25.90625 L 5.09017 -27.03125 L 5.078451 -28.125 L 5.062826 -29.1875 L 5.043295 -30.214844 L 5.019857 -31.207031 L 4.992514 -32.164062 L 4.961264 -33.085938 L 4.930014 -33.976562 L 4.898764 -34.828125 L 4.867514 -35.644531 L 4.836264 -36.429688 L 4.80892 -37.175781 L 4.785482 -37.890625 L 4.769857 -38.570312 L 4.754232 -39.214844 L 4.74642 -39.828125 L 4.74642 -40.410156 L 4.750326 -40.960938 L 4.758139 -41.476562 L 4.769857 -41.964844 L 4.789389 -42.425781 L 4.80892 -42.855469 L 4.832357 -43.257812 L 4.855795 -43.632812 L 4.879232 -43.984375 L 4.90267 -44.308594 L 4.926107 -44.609375 L 4.949545 -44.886719 L 4.969076 -45.144531 L 4.984701 -45.382812 L 5.000326 -45.597656 L 5.015951 -45.796875 L 5.031576 -45.980469 L 5.047201 -46.144531 L 5.062826 -46.292969 L 5.086264 -46.425781 L 5.113607 -46.546875 L 5.144857 -46.65625 L 5.18392 -46.753906 L 5.230795 -46.839844 L 5.289389 -46.917969 L 5.359701 -46.988281 L 5.43392 -47.046875 L 5.519857 -47.097656 L 5.613607 -47.144531 L 5.711264 -47.183594 L 5.914389 -47.246094 L 6.012045 -47.269531 L 6.105795 -47.289062 L 6.191732 -47.304688 L 6.269857 -47.320312 L 6.332357 -47.332031 L 6.383139 -47.335938 L 6.418295 -47.34375 L 6.437826 -47.34375 L 6.469076 -47.351562 L 6.668295 -47.398438 L 6.801107 -47.546875 L 6.543295 -47.847656 L 5.730795 -48.300781 L 4.46517 -48.828125 L 3.008139 -49.304688 L 1.625326 -49.625 L 0.46517 -49.765625 L -0.456705 -49.785156 L -1.163736 -49.773438 L -1.679361 -49.800781 L -2.015299 -49.871094 L -2.179361 -49.929688 L -2.198893 -49.9375 " transform="matrix(1,0,0,1,95.40983,104)"/>
<path style="fill-rule:evenodd;fill:rgb(100%,100%,100%);fill-opacity:1;stroke-width:1;stroke-linecap:butt;stroke-linejoin:bevel;stroke:rgb(50.048876%,50.048876%,50.048876%);stroke-opacity:1;stroke-miterlimit:10;" d="M -11.777018 -24.34375 L -11.796549 -24.339844 L -11.960611 -24.296875 L -12.265299 -24.210938 L -12.675455 -24.082031 L -13.132486 -23.910156 L -13.585611 -23.691406 L -13.995768 -23.410156 L -14.327799 -23.058594 L -14.569986 -22.609375 L -14.726236 -22.042969 L -14.819986 -21.320312 L -14.862955 -20.410156 L -14.882486 -19.28125 L -14.894205 -17.914062 L -14.905924 -16.289062 L -14.90983 -14.402344 L -14.90983 -12.269531 L -14.902018 -9.914062 L -14.882486 -7.371094 L -14.859049 -4.691406 L -14.839518 -1.929688 L -14.835611 0.847656 L -14.851236 3.585938 L -14.890299 6.226562 L -14.952799 8.71875 L -15.023111 11.023438 L -15.093424 13.105469 L -15.144205 14.949219 L -15.163736 16.546875 L -15.140299 17.898438 L -15.073893 19.019531 L -14.968424 19.921875 L -14.835611 20.628906 L -14.687174 21.167969 L -14.546549 21.566406 L -14.429361 21.839844 L -14.339518 22.011719 L -14.296549 22.097656 L -14.288736 22.105469 L -14.273111 22.136719 L -14.136393 22.351562 L -13.851236 22.734375 L -13.413736 23.207031 L -12.855143 23.703125 L -12.183268 24.171875 L -11.331705 24.574219 L -10.140299 24.878906 L -8.417643 25.050781 L -6.058268 25.085938 L -3.12858 25.011719 L 0.12142 24.898438 L 3.344076 24.796875 L 6.219076 24.765625 L 8.523764 24.8125 L 10.18392 24.921875 L 11.222982 25.039062 L 11.71517 25.117188 L 11.77767 25.128906 L 11.797201 25.132812 L 11.961264 25.160156 L 12.273764 25.195312 L 12.691732 25.214844 L 13.172201 25.171875 L 13.664389 25.039062 L 14.12142 24.785156 L 14.515951 24.382812 L 14.824545 23.816406 L 15.043295 23.085938 L 15.176107 22.171875 L 15.234701 21.070312 L 15.234701 19.765625 L 15.191732 18.25 L 15.117514 16.507812 L 15.02767 14.539062 L 14.930014 12.347656 L 14.836264 9.957031 L 14.750326 7.390625 L 14.680014 4.699219 L 14.625326 1.933594 L 14.586264 -0.847656 L 14.570639 -3.585938 L 14.574545 -6.226562 L 14.597982 -8.71875 L 14.640951 -11.023438 L 14.699545 -13.105469 L 14.769857 -14.949219 L 14.844076 -16.546875 L 14.906576 -17.898438 L 14.953451 -19.019531 L 14.976889 -19.921875 L 14.972982 -20.628906 L 14.945639 -21.167969 L 14.906576 -21.566406 L 14.859701 -21.839844 L 14.824545 -22.011719 L 14.801107 -22.097656 L 14.797201 -22.105469 L 14.793295 -22.132812 L 14.730795 -22.316406 L 14.570639 -22.644531 L 14.24642 -23.042969 L 13.668295 -23.4375 L 12.734701 -23.789062 L 11.355795 -24.074219 L 9.472982 -24.3125 L 7.086264 -24.511719 L 4.289389 -24.6875 L 1.250326 -24.832031 L -1.808268 -24.933594 L -4.655924 -24.960938 L -7.101236 -24.910156 L -9.03483 -24.78125 L -10.425455 -24.613281 L -11.304361 -24.457031 L -11.72233 -24.359375 L -11.777018 -24.34375 " transform="matrix(1,0,0,1,105.40983,219)"/>
<path style="fill-rule:evenodd;fill:rgb(100%,100%,100%);fill-opacity:1;stroke-width:1;stroke-linecap:butt;stroke-linejoin:bevel;stroke:rgb(50.048876%,50.048876%,50.048876%);stroke-opacity:1;stroke-miterlimit:10;" d="M -7.019857 -25.046875 L -7.02767 -25.050781 L -7.094076 -25.058594 L -7.222982 -25.070312 L -7.410482 -25.097656 L -7.644857 -25.128906 L -7.914389 -25.164062 L -8.211264 -25.195312 L -8.512045 -25.210938 L -8.80892 -25.195312 L -9.094076 -25.128906 L -9.351889 -24.996094 L -9.582357 -24.789062 L -9.77767 -24.496094 L -9.945639 -24.117188 L -10.078451 -23.648438 L -10.187826 -23.089844 L -10.269857 -22.453125 L -10.328451 -21.730469 L -10.363607 -20.921875 L -10.379232 -20.023438 L -10.379232 -19.027344 L -10.363607 -17.929688 L -10.332357 -16.726562 L -10.289389 -15.410156 L -10.242514 -13.976562 L -10.199545 -12.4375 L -10.160482 -10.792969 L -10.129232 -9.054688 L -10.117514 -7.238281 L -10.113607 -5.359375 L -10.125326 -3.4375 L -10.140951 -1.488281 L -10.15267 0.460938 L -10.15267 2.390625 L -10.140951 4.285156 L -10.105795 6.125 L -10.055014 7.894531 L -9.988607 9.574219 L -9.914389 11.15625 L -9.84017 12.628906 L -9.773764 13.988281 L -9.71517 15.226562 L -9.668295 16.34375 L -9.633139 17.339844 L -9.601889 18.21875 L -9.578451 18.984375 L -9.551107 19.644531 L -9.519857 20.203125 L -9.484701 20.675781 L -9.445639 21.0625 L -9.398764 21.382812 L -9.351889 21.636719 L -9.301107 21.835938 L -9.250326 21.988281 L -9.207357 22.101562 L -9.168295 22.179688 L -9.140951 22.230469 L -9.129232 22.257812 L -9.125326 22.257812 L -9.117514 22.269531 L -9.062826 22.363281 L -8.930014 22.558594 L -8.687826 22.859375 L -8.293295 23.238281 L -7.691732 23.644531 L -6.832357 24.027344 L -5.680014 24.355469 L -4.242514 24.625 L -2.566732 24.84375 L -0.74642 25.011719 L 1.077799 25.117188 L 2.777018 25.167969 L 4.234049 25.179688 L 5.386393 25.183594 L 6.214518 25.210938 L 6.737955 25.253906 L 6.987955 25.289062 L 7.019205 25.296875 L 7.027018 25.296875 L 7.093424 25.308594 L 7.226236 25.335938 L 7.40983 25.378906 L 7.644205 25.441406 L 7.917643 25.515625 L 8.210611 25.597656 L 8.515299 25.667969 L 8.812174 25.703125 L 9.093424 25.683594 L 9.343424 25.582031 L 9.558268 25.386719 L 9.734049 25.085938 L 9.870768 24.675781 L 9.968424 24.15625 L 10.038736 23.539062 L 10.085611 22.832031 L 10.120768 22.035156 L 10.144205 21.160156 L 10.163736 20.203125 L 10.183268 19.160156 L 10.202799 18.023438 L 10.22233 16.789062 L 10.234049 15.449219 L 10.241861 14.003906 L 10.241861 12.453125 L 10.230143 10.800781 L 10.214518 9.058594 L 10.194986 7.238281 L 10.171549 5.359375 L 10.152018 3.4375 L 10.120768 -0.460938 L 10.109049 -2.390625 L 10.089518 -4.285156 L 10.069986 -6.125 L 10.046549 -7.894531 L 10.019205 -9.574219 L 9.991861 -11.15625 L 9.968424 -12.628906 L 9.948893 -13.988281 L 9.933268 -15.226562 L 9.921549 -16.34375 L 9.913736 -17.339844 L 9.90983 -18.21875 L 9.902018 -18.984375 L 9.894205 -19.644531 L 9.890299 -20.203125 L 9.890299 -20.675781 L 9.902018 -21.0625 L 9.925455 -21.382812 L 9.968424 -21.636719 L 10.023111 -21.835938 L 10.093424 -21.988281 L 10.163736 -22.101562 L 10.230143 -22.179688 L 10.308268 -22.257812 L 10.312174 -22.257812 L 10.327799 -22.273438 L 10.464518 -22.371094 L 10.765299 -22.542969 L 11.183268 -22.761719 L 11.511393 -23.007812 L 11.437174 -23.28125 L 10.69108 -23.578125 L 9.218424 -23.886719 L 7.175455 -24.1875 L 4.827799 -24.449219 L 2.421549 -24.660156 L 0.124674 -24.804688 L -1.941732 -24.886719 L -3.699545 -24.929688 L -5.082357 -24.957031 L -6.070639 -24.984375 L -6.691732 -25.019531 L -6.984701 -25.046875 L -7.019857 -25.046875 " transform="matrix(1,0,0,1,146.59017,159)"/>
<path style="fill-rule:evenodd;fill:rgb(100%,100%,100%);fill-opacity:1;stroke-width:1;stroke-linecap:butt;stroke-linejoin:bevel;stroke:rgb(50.048876%,50.048876%,50.048876%);stroke-opacity:1;stroke-miterlimit:10;" d="M -2.198893 -25.121094 L -2.202799 -25.125 L -2.226236 -25.132812 L -2.269205 -25.148438 L -2.339518 -25.164062 L -2.433268 -25.175781 L -2.558268 -25.167969 L -2.706705 -25.132812 L -2.87858 -25.070312 L -3.077799 -24.964844 L -3.292643 -24.820312 L -3.523111 -24.636719 L -3.757486 -24.410156 L -3.991861 -24.148438 L -4.218424 -23.851562 L -4.425455 -23.53125 L -4.612955 -23.183594 L -4.777018 -22.816406 L -4.913736 -22.425781 L -5.023111 -22.015625 L -5.105143 -21.578125 L -5.163736 -21.113281 L -5.202799 -20.617188 L -5.22233 -20.078125 L -5.230143 -19.496094 L -5.22233 -18.863281 L -5.210611 -18.171875 L -5.19108 -17.425781 L -5.167643 -16.617188 L -5.140299 -15.746094 L -5.105143 -14.808594 L -5.06608 -13.8125 L -5.027018 -12.75 L -4.980143 -11.632812 L -4.937174 -10.460938 L -4.890299 -9.238281 L -4.843424 -7.972656 L -4.804361 -6.667969 L -4.769205 -5.332031 L -4.745768 -3.96875 L -4.730143 -2.589844 L -4.72233 -1.203125 L -4.726236 0.191406 L -4.734049 1.578125 L -4.749674 2.949219 L -4.765299 4.304688 L -4.78483 5.632812 L -4.800455 6.925781 L -4.81608 8.183594 L -4.827799 9.394531 L -4.839518 10.554688 L -4.851236 11.664062 L -4.859049 12.714844 L -4.866861 13.710938 L -4.87858 14.640625 L -4.890299 15.507812 L -4.902018 16.3125 L -4.90983 17.054688 L -4.921549 17.734375 L -4.925455 18.355469 L -4.929361 18.914062 L -4.921549 19.414062 L -4.905924 19.863281 L -4.886393 20.257812 L -4.855143 20.609375 L -4.81608 20.910156 L -4.777018 21.171875 L -4.730143 21.398438 L -4.683268 21.589844 L -4.640299 21.75 L -4.601236 21.882812 L -4.569986 21.996094 L -4.546549 22.082031 L -4.530924 22.15625 L -4.523111 22.210938 L -4.523111 22.300781 L -4.527018 22.3125 L -4.527018 22.320312 L -4.523111 22.40625 L -4.433268 22.621094 L -4.163736 23.019531 L -3.65983 23.566406 L -2.937174 24.152344 L -2.077799 24.625 L -1.171549 24.882812 L -0.292643 24.902344 L 0.500326 24.757812 L 1.172201 24.539062 L 1.680014 24.335938 L 2.015951 24.1875 L 2.180014 24.113281 L 2.199545 24.105469 L 2.203451 24.105469 L 2.226889 24.09375 L 2.273764 24.074219 L 2.34017 24.042969 L 2.426107 24.003906 L 2.531576 23.953125 L 2.656576 23.894531 L 2.797201 23.828125 L 2.953451 23.75 L 3.12142 23.664062 L 3.305014 23.566406 L 3.500326 23.460938 L 3.707357 23.339844 L 3.914389 23.207031 L 4.125326 23.058594 L 4.332357 22.890625 L 4.52767 22.703125 L 4.703451 22.488281 L 4.859701 22.25 L 4.988607 21.976562 L 5.09017 21.664062 L 5.164389 21.3125 L 5.211264 20.90625 L 5.238607 20.449219 L 5.24642 19.929688 L 5.242514 19.347656 L 5.230795 18.699219 L 5.21517 17.976562 L 5.203451 17.179688 L 5.195639 16.3125 L 5.195639 14.355469 L 5.199545 13.273438 L 5.207357 12.125 L 5.211264 10.914062 L 5.211264 8.335938 L 5.203451 6.980469 L 5.191732 5.589844 L 5.176107 4.171875 L 5.156576 2.734375 L 5.137045 1.289062 L 5.117514 -0.160156 L 5.101889 -1.601562 L 5.09017 -3.027344 L 5.078451 -4.429688 L 5.078451 -7.136719 L 5.086264 -8.429688 L 5.101889 -9.667969 L 5.12142 -10.855469 L 5.144857 -11.984375 L 5.176107 -13.050781 L 5.207357 -14.050781 L 5.24642 -14.988281 L 5.289389 -15.855469 L 5.332357 -16.65625 L 5.379232 -17.390625 L 5.430014 -18.058594 L 5.476889 -18.660156 L 5.519857 -19.203125 L 5.55892 -19.6875 L 5.59017 -20.113281 L 5.609701 -20.488281 L 5.62142 -20.816406 L 5.62142 -21.097656 L 5.613607 -21.339844 L 5.594076 -21.542969 L 5.562826 -21.714844 L 5.52767 -21.859375 L 5.488607 -21.976562 L 5.449545 -22.070312 L 5.410482 -22.148438 L 5.37142 -22.207031 L 5.34017 -22.25 L 5.316732 -22.28125 L 5.297201 -22.300781 L 5.289389 -22.3125 L 5.27767 -22.320312 L 5.199545 -22.40625 L 4.988607 -22.640625 L 4.566732 -23.0625 L 3.918295 -23.640625 L 3.086264 -24.230469 L 2.15267 -24.6875 L 1.203451 -24.917969 L 0.305014 -24.964844 L -0.499674 -24.925781 L -1.167643 -24.910156 L -1.679361 -24.960938 L -2.015299 -25.046875 L -2.179361 -25.113281 L -2.198893 -25.121094 " transform="matrix(1,0,0,1,95.40983,29)"/>
<path style="fill-rule:evenodd;fill:rgb(100%,100%,100%);fill-opacity:1;stroke-width:1;stroke-linecap:butt;stroke-linejoin:bevel;stroke:rgb(50.048876%,50.048876%,50.048876%);stroke-opacity:1;stroke-miterlimit:10;" d="M -2.199545 -5.042969 L -2.226889 -5.03125 L -2.410482 -4.925781 L -2.750326 -4.675781 L -3.176107 -4.257812 L -3.625326 -3.691406 L -4.02767 -3.023438 L -4.336264 -2.292969 L -4.523764 -1.503906 L -4.62142 -0.664062 L -4.668295 0.183594 L -4.711264 0.957031 L -4.773764 1.570312 L -4.84017 1.976562 L -4.887045 2.175781 L -4.894857 2.199219 L -4.898764 2.222656 L -4.914389 2.382812 L -4.847982 2.695312 L -4.562826 3.132812 L -3.99642 3.625 L -3.180014 4.09375 L -2.226889 4.445312 L -1.242514 4.625 L -0.320639 4.640625 L 0.495768 4.539062 L 1.167643 4.402344 L 1.679361 4.289062 L 2.015299 4.21875 L 2.179361 4.1875 L 2.198893 4.183594 L 2.22233 4.179688 L 2.382486 4.144531 L 2.69108 4.019531 L 3.116861 3.753906 L 3.585611 3.304688 L 4.00358 2.679688 L 4.312174 1.921875 L 4.487955 1.097656 L 4.577799 0.265625 L 4.632486 -0.507812 L 4.694986 -1.171875 L 4.773111 -1.679688 L 4.84733 -2.015625 L 4.890299 -2.179688 L 4.898111 -2.199219 L 4.902018 -2.222656 L 4.925455 -2.386719 L 4.862955 -2.722656 L 4.581705 -3.207031 L 4.015299 -3.78125 L 3.198893 -4.347656 L 2.234049 -4.8125 L 1.249674 -5.128906 L 0.323893 -5.300781 L -0.492514 -5.355469 L -1.168295 -5.320312 L -1.680014 -5.230469 L -2.015951 -5.121094 L -2.180014 -5.050781 L -2.199545 -5.042969 " transform="matrix(1,0,0,1,141.59017,229)"/>
<path style="fill-rule:evenodd;fill:rgb(100%,100%,100%);fill-opacity:1;stroke-width:1;stroke-linecap:butt;stroke-linejoin:bevel;stroke:rgb(50.048876%,50.048876%,50.048876%);stroke-opacity:1;stroke-miterlimit:10;" d="M -7.019857 -10.117188 L -7.051107 -10.117188 L -7.285482 -10.105469 L -7.703451 -10.023438 L -8.222982 -9.789062 L -8.754232 -9.3125 L -9.222982 -8.542969 L -9.594076 -7.460938 L -9.863607 -6.09375 L -10.051107 -4.472656 L -10.18392 -2.675781 L -10.281576 -0.792969 L -10.347982 1.0625 L -10.383139 2.773438 L -10.383139 4.234375 L -10.351889 5.386719 L -10.305014 6.214844 L -10.258139 6.738281 L -10.230795 6.988281 L -10.222982 7.050781 L -10.180014 7.28125 L -10.055014 7.6875 L -9.769857 8.171875 L -9.258139 8.65625 L -8.472982 9.089844 L -7.40267 9.453125 L -6.047201 9.746094 L -4.445639 9.980469 L -2.660482 10.152344 L -0.785482 10.246094 L 1.06608 10.253906 L 2.773111 10.164062 L 4.234049 9.984375 L 5.386393 9.734375 L 6.214518 9.460938 L 6.737955 9.226562 L 6.987955 9.089844 L 7.019205 9.074219 L 7.054361 9.050781 L 7.331705 8.875 L 7.823893 8.492188 L 8.448893 7.921875 L 9.081705 7.242188 L 9.616861 6.570312 L 9.964518 5.964844 L 10.109049 5.335938 L 10.081705 4.503906 L 9.968424 3.308594 L 9.859049 1.722656 L 9.78483 -0.125 L 9.72233 -2.007812 L 9.624674 -3.710938 L 9.456705 -5.082031 L 9.234049 -6.070312 L 9.015299 -6.691406 L 8.882486 -6.984375 L 8.866861 -7.019531 L 8.84733 -7.054688 L 8.694986 -7.332031 L 8.359049 -7.824219 L 7.84733 -8.4375 L 7.230143 -9.054688 L 6.609049 -9.566406 L 6.027018 -9.90625 L 5.402018 -10.066406 L 4.554361 -10.09375 L 3.339518 -10.054688 L 1.737955 -10.007812 L -0.117514 -9.988281 L -2.008139 -10.003906 L -3.711264 -10.039062 L -5.082357 -10.078125 L -6.070639 -10.101562 L -6.691732 -10.113281 L -6.984701 -10.117188 L -7.019857 -10.117188 " transform="matrix(1,0,0,1,146.59017,194)"/>
<path style="fill-rule:evenodd;fill:rgb(100%,100%,100%);fill-opacity:1;stroke-width:1;stroke-linecap:butt;stroke-linejoin:bevel;stroke:rgb(50.048876%,50.048876%,50.048876%);stroke-opacity:1;stroke-miterlimit:10;" d="M -11.777018 -14.449219 L -11.827799 -14.441406 L -12.210611 -14.378906 L -12.855143 -14.222656 L -13.581705 -13.917969 L -14.226236 -13.378906 L -14.694986 -12.503906 L -14.984049 -11.1875 L -15.132486 -9.363281 L -15.179361 -7.027344 L -15.163736 -4.261719 L -15.109049 -1.238281 L -15.027018 1.8125 L -14.94108 4.65625 L -14.859049 7.101562 L -14.796549 9.035156 L -14.749674 10.425781 L -14.718424 11.304688 L -14.702799 11.722656 L -14.698893 11.777344 L -14.694986 11.828125 L -14.667643 12.214844 L -14.562174 12.882812 L -14.292643 13.65625 L -13.749674 14.347656 L -12.831705 14.824219 L -11.44108 15.050781 L -9.530924 15.074219 L -7.124674 15 L -4.308268 14.929688 L -1.257486 14.921875 L 1.80892 14.972656 L 4.656576 15.070312 L 7.101889 15.179688 L 9.035482 15.296875 L 10.426107 15.414062 L 11.305014 15.507812 L 11.722982 15.566406 L 11.77767 15.574219 L 11.836264 15.582031 L 12.297201 15.65625 L 13.117514 15.808594 L 14.125326 15.976562 L 15.078451 15.984375 L 15.769857 15.582031 L 16.078451 14.535156 L 16.023764 12.714844 L 15.719076 10.164062 L 15.316732 7.042969 L 14.945639 3.578125 L 14.676107 0.0390625 L 14.543295 -3.300781 L 14.543295 -6.210938 L 14.648764 -8.523438 L 14.816732 -10.183594 L 14.980795 -11.222656 L 15.082357 -11.714844 L 15.094076 -11.777344 L 15.105795 -11.828125 L 15.176107 -12.214844 L 15.21517 -12.894531 L 15.062826 -13.703125 L 14.547201 -14.480469 L 13.543295 -15.113281 L 12.000326 -15.542969 L 9.910482 -15.769531 L 7.344076 -15.816406 L 4.414389 -15.730469 L 1.301107 -15.558594 L -1.792643 -15.347656 L -4.652018 -15.132812 L -7.101236 -14.933594 L -9.03483 -14.757812 L -10.425455 -14.617188 L -11.304361 -14.511719 L -11.72233 -14.457031 L -11.777018 -14.449219 " transform="matrix(1,0,0,1,105.40983,169)"/>
<path style="fill-rule:evenodd;fill:rgb(100%,100%,100%);fill-opacity:1;stroke-width:1;stroke-linecap:butt;stroke-linejoin:bevel;stroke:rgb(50.048876%,50.048876%,50.048876%);stroke-opacity:1;stroke-miterlimit:10;" d="M -32.202146 -16.226562 L -32.217771 -16.234375 L -32.342771 -16.28125 L -32.561521 -16.265625 L -32.846678 -16.011719 L -33.155271 -15.347656 L -33.471678 -14.167969 L -33.768553 -12.433594 L -34.026365 -10.183594 L -34.217771 -7.492188 L -34.334959 -4.484375 L -34.401365 -1.328125 L -34.452146 1.785156 L -34.530271 4.652344 L -34.651365 7.101562 L -34.807615 9.035156 L -34.967771 10.425781 L -35.092771 11.304688 L -35.163084 11.722656 L -35.170896 11.777344 L -35.174803 11.789062 L -35.190428 11.894531 L -35.217771 12.09375 L -35.241209 12.371094 L -35.249021 12.710938 L -35.221678 13.085938 L -35.139646 13.464844 L -34.991209 13.832031 L -34.772459 14.160156 L -34.471678 14.441406 L -34.084959 14.660156 L -33.616209 14.820312 L -33.061521 14.929688 L -32.420896 14.988281 L -31.686521 15.015625 L -30.850584 15.023438 L -29.909178 15.015625 L -28.842771 15.003906 L -27.643553 14.988281 L -26.299803 14.976562 L -24.803709 14.964844 L -23.147459 14.949219 L -21.327146 14.929688 L -19.350584 14.910156 L -17.221678 14.886719 L -14.956053 14.863281 L -12.561521 14.847656 L -10.061521 14.835938 L -7.47949 14.832031 L -4.838865 14.839844 L -2.163084 14.855469 L 0.524416 14.875 L 3.192385 14.898438 L 5.817385 14.921875 L 8.375979 14.941406 L 10.844729 14.964844 L 13.20801 14.984375 L 15.446291 15 L 17.543947 15.015625 L 19.493166 15.027344 L 21.286135 15.03125 L 22.915041 15.03125 L 24.387697 15.023438 L 25.696291 15.007812 L 26.852541 14.980469 L 27.860354 14.941406 L 28.731447 14.890625 L 29.469729 14.835938 L 30.090822 14.777344 L 30.606447 14.722656 L 31.028322 14.667969 L 31.36426 14.625 L 31.633791 14.589844 L 31.836916 14.5625 L 31.98926 14.546875 L 32.098635 14.539062 L 32.168947 14.535156 L 32.219729 14.535156 L 32.348635 14.519531 L 32.606447 14.4375 L 32.969729 14.195312 L 33.399416 13.683594 L 33.825197 12.785156 L 34.192385 11.414062 L 34.469729 9.519531 L 34.665041 7.117188 L 34.813479 4.304688 L 34.934572 1.257812 L 35.02051 -1.808594 L 35.032229 -4.65625 L 34.930666 -7.101562 L 34.715822 -9.035156 L 34.430666 -10.425781 L 34.165041 -11.304688 L 34.000979 -11.722656 L 33.981447 -11.777344 L 33.973635 -11.789062 L 33.922854 -11.902344 L 33.821291 -12.117188 L 33.661135 -12.429688 L 33.434572 -12.820312 L 33.14551 -13.265625 L 32.80176 -13.742188 L 32.422854 -14.21875 L 32.024416 -14.664062 L 31.641604 -15.050781 L 31.286135 -15.363281 L 30.973635 -15.578125 L 30.704104 -15.699219 L 30.45801 -15.726562 L 30.215822 -15.671875 L 29.934572 -15.558594 L 29.571291 -15.402344 L 29.086916 -15.226562 L 28.438479 -15.050781 L 27.598635 -14.894531 L 26.540041 -14.769531 L 25.258791 -14.679688 L 23.743166 -14.628906 L 22.000979 -14.609375 L 20.043947 -14.621094 L 17.887697 -14.652344 L 15.555666 -14.699219 L 13.067385 -14.75 L 10.454104 -14.796875 L 7.743166 -14.839844 L 4.965822 -14.871094 L 2.153322 -14.886719 L -0.66699 -14.890625 L -3.459959 -14.878906 L -6.202146 -14.855469 L -8.862303 -14.824219 L -11.420896 -14.792969 L -13.850584 -14.765625 L -16.139646 -14.75 L -18.272459 -14.746094 L -20.237303 -14.761719 L -22.026365 -14.792969 L -23.643553 -14.847656 L -25.084959 -14.921875 L -26.358396 -15.011719 L -27.463865 -15.113281 L -28.420896 -15.230469 L -29.22949 -15.351562 L -29.913084 -15.476562 L -30.475584 -15.601562 L -30.932615 -15.722656 L -31.299803 -15.835938 L -31.588865 -15.941406 L -31.811521 -16.03125 L -31.975584 -16.105469 L -32.088865 -16.164062 L -32.163084 -16.203125 L -32.19824 -16.222656 L -32.202146 -16.226562 " transform="matrix(1,0,0,1,39.22949,124)"/>
<path style="fill-rule:evenodd;fill:rgb(100%,100%,100%);fill-opacity:1;stroke-width:1;stroke-linecap:butt;stroke-linejoin:bevel;stroke:rgb(50.048876%,50.048876%,50.048876%);stroke-opacity:1;stroke-miterlimit:10;" d="M -12.230795 -11.101562 L -12.242514 -11.113281 L -12.351889 -11.175781 L -12.562826 -11.195312 L -12.855795 -11.003906 L -13.203451 -10.46875 L -13.55892 -9.527344 L -13.887045 -8.207031 L -14.156576 -6.582031 L -14.363607 -4.753906 L -14.515951 -2.8125 L -14.640951 -0.847656 L -14.758139 1.046875 L -14.906576 2.769531 L -15.101889 4.234375 L -15.351889 5.386719 L -15.633139 6.214844 L -15.879232 6.738281 L -16.023764 6.988281 L -16.043295 7.019531 L -16.055014 7.035156 L -16.113607 7.132812 L -16.203451 7.320312 L -16.281576 7.574219 L -16.297201 7.878906 L -16.195639 8.203125 L -15.945639 8.523438 L -15.535482 8.832031 L -14.972982 9.117188 L -14.273764 9.371094 L -13.46517 9.597656 L -12.566732 9.796875 L -11.594076 9.972656 L -10.547201 10.125 L -9.426107 10.253906 L -8.222982 10.355469 L -6.93392 10.4375 L -5.562826 10.488281 L -4.117514 10.515625 L -2.613607 10.519531 L -1.078451 10.496094 L 0.464518 10.453125 L 1.984049 10.398438 L 3.444986 10.335938 L 4.823893 10.277344 L 6.09733 10.234375 L 7.249674 10.210938 L 8.269205 10.203125 L 9.155924 10.207031 L 9.902018 10.21875 L 10.519205 10.226562 L 11.019205 10.226562 L 11.413736 10.21875 L 11.710611 10.207031 L 11.929361 10.1875 L 12.081705 10.171875 L 12.179361 10.15625 L 12.22233 10.152344 L 12.230143 10.148438 L 12.245768 10.148438 L 12.366861 10.125 L 12.581705 10.078125 L 12.855143 9.964844 L 13.171549 9.722656 L 13.527018 9.261719 L 13.905924 8.496094 L 14.273111 7.375 L 14.573893 5.886719 L 14.757486 4.085938 L 14.808268 2.078125 L 14.757486 0.00390625 L 14.675455 -1.972656 L 14.655924 -3.703125 L 14.757486 -5.082031 L 14.97233 -6.070312 L 15.226236 -6.691406 L 15.394205 -6.984375 L 15.417643 -7.019531 L 15.425455 -7.035156 L 15.487955 -7.132812 L 15.585611 -7.320312 L 15.679361 -7.582031 L 15.714518 -7.894531 L 15.648111 -8.234375 L 15.448893 -8.574219 L 15.101236 -8.890625 L 14.605143 -9.171875 L 13.976236 -9.402344 L 13.234049 -9.582031 L 12.394205 -9.710938 L 11.468424 -9.796875 L 10.464518 -9.847656 L 9.370768 -9.875 L 8.187174 -9.882812 L 6.913736 -9.882812 L 5.554361 -9.886719 L 4.112955 -9.898438 L 2.609049 -9.925781 L 1.073893 -9.972656 L -0.46517 -10.035156 L -1.984701 -10.105469 L -3.445639 -10.175781 L -4.824545 -10.234375 L -6.097982 -10.28125 L -7.250326 -10.3125 L -8.269857 -10.335938 L -9.156576 -10.363281 L -9.90267 -10.40625 L -10.519857 -10.46875 L -11.019857 -10.558594 L -11.414389 -10.664062 L -11.711264 -10.78125 L -11.930014 -10.894531 L -12.082357 -10.992188 L -12.180014 -11.058594 L -12.222982 -11.097656 L -12.230795 -11.101562 " transform="matrix(1,0,0,1,151.59017,214)"/>
<path style="fill-rule:evenodd;fill:rgb(100%,100%,100%);fill-opacity:1;stroke-width:1;stroke-linecap:butt;stroke-linejoin:bevel;stroke:rgb(50.048876%,50.048876%,50.048876%);stroke-opacity:1;stroke-miterlimit:10;" d="M -17.297854 -4.804688 L -17.313479 -4.8125 L -17.403322 -4.882812 L -17.571291 -5.042969 L -17.817385 -5.195312 L -18.17676 -5.117188 L -18.672854 -4.582031 L -19.243166 -3.578125 L -19.766604 -2.300781 L -20.122072 -1.023438 L -20.266604 0.0703125 L -20.204104 0.9375 L -19.985354 1.566406 L -19.715822 1.976562 L -19.528322 2.175781 L -19.500979 2.199219 L -19.497072 2.203125 L -19.465822 2.230469 L -19.407229 2.289062 L -19.317385 2.375 L -19.067385 2.625 L -18.911135 2.789062 L -18.735354 2.976562 L -18.547854 3.179688 L -18.344729 3.394531 L -18.125979 3.617188 L -17.89551 3.839844 L -17.64551 4.054688 L -17.372072 4.257812 L -17.067385 4.441406 L -16.727541 4.601562 L -16.344729 4.734375 L -15.907229 4.832031 L -15.407229 4.894531 L -14.844729 4.925781 L -14.20801 4.925781 L -13.493166 4.898438 L -12.700197 4.851562 L -11.825197 4.792969 L -10.872072 4.734375 L -9.844729 4.679688 L -8.747072 4.632812 L -7.58301 4.605469 L -6.360354 4.597656 L -5.094729 4.605469 L -3.790041 4.628906 L -2.45801 4.664062 L -1.110354 4.707031 L 0.241209 4.753906 L 1.584959 4.796875 L 2.909178 4.839844 L 4.206053 4.875 L 5.459959 4.90625 L 6.66699 4.933594 L 7.819334 4.957031 L 8.909178 4.972656 L 9.928709 4.988281 L 10.874021 5 L 11.749021 5.007812 L 12.54199 5.015625 L 13.264646 5.019531 L 13.909178 5.023438 L 14.47949 5.027344 L 14.983396 5.035156 L 15.420896 5.046875 L 15.795896 5.0625 L 16.112303 5.089844 L 16.381834 5.125 L 16.60449 5.167969 L 16.784178 5.214844 L 16.932615 5.261719 L 17.045896 5.304688 L 17.13574 5.34375 L 17.202146 5.371094 L 17.295896 5.417969 L 17.307615 5.421875 L 17.393553 5.433594 L 17.569334 5.339844 L 17.846678 4.996094 L 18.209959 4.335938 L 18.620115 3.414062 L 19.014646 2.359375 L 19.331053 1.308594 L 19.561521 0.34375 L 19.749021 -0.488281 L 19.975584 -1.167969 L 20.26074 -1.679688 L 20.553709 -2.015625 L 20.741209 -2.179688 L 20.768553 -2.199219 L 20.772459 -2.203125 L 20.807615 -2.230469 L 20.870115 -2.285156 L 20.940428 -2.367188 L 21.002928 -2.46875 L 21.026365 -2.585938 L 20.999021 -2.71875 L 20.905271 -2.863281 L 20.725584 -3.011719 L 20.471678 -3.160156 L 20.13574 -3.3125 L 19.737303 -3.464844 L 19.280271 -3.621094 L 18.776365 -3.777344 L 18.241209 -3.941406 L 17.678709 -4.109375 L 17.088865 -4.285156 L 16.471678 -4.460938 L 15.827146 -4.632812 L 15.143553 -4.796875 L 14.413084 -4.941406 L 13.631834 -5.0625 L 12.788084 -5.152344 L 11.881834 -5.210938 L 10.905271 -5.234375 L 9.862303 -5.230469 L 8.756834 -5.203125 L 7.584959 -5.15625 L 6.362303 -5.105469 L 5.092771 -5.050781 L 3.788084 -5 L 2.456053 -4.960938 L 1.108396 -4.929688 L -0.243166 -4.910156 L -1.586916 -4.898438 L -2.911135 -4.894531 L -4.20801 -4.898438 L -5.461916 -4.902344 L -6.668947 -4.90625 L -7.821291 -4.910156 L -8.911135 -4.914062 L -9.930666 -4.921875 L -10.875979 -4.925781 L -11.750979 -4.929688 L -12.543947 -4.933594 L -13.266604 -4.929688 L -13.911135 -4.921875 L -14.481447 -4.910156 L -14.985354 -4.886719 L -15.422854 -4.855469 L -15.797854 -4.824219 L -16.11426 -4.789062 L -16.383791 -4.757812 L -16.606447 -4.734375 L -16.786135 -4.722656 L -16.934572 -4.71875 L -17.047854 -4.726562 L -17.137697 -4.742188 L -17.204104 -4.761719 L -17.250979 -4.78125 L -17.282229 -4.792969 L -17.297854 -4.804688 " transform="matrix(1,0,0,1,192.77051,159)"/>
<path style="fill-rule:evenodd;fill:rgb(100%,100%,100%);fill-opacity:1;stroke-width:1;stroke-linecap:butt;stroke-linejoin:bevel;stroke:rgb(50.048876%,50.048876%,50.048876%);stroke-opacity:1;stroke-miterlimit:10;" d="M -7.019857 -14.519531 L -7.035482 -14.519531 L -7.144857 -14.515625 L -7.351889 -14.5 L -7.644857 -14.480469 L -8.000326 -14.441406 L -8.394857 -14.375 L -8.801107 -14.269531 L -9.18392 -14.113281 L -9.519857 -13.890625 L -9.785482 -13.589844 L -9.961264 -13.195312 L -10.051107 -12.695312 L -10.062826 -12.089844 L -10.019857 -11.355469 L -9.949545 -10.492188 L -9.879232 -9.488281 L -9.836264 -8.339844 L -9.828451 -7.050781 L -9.851889 -5.632812 L -9.894857 -4.113281 L -9.953451 -2.515625 L -10.000326 -0.878906 L -10.035482 0.761719 L -10.051107 2.363281 L -10.043295 3.890625 L -10.012045 5.316406 L -9.96517 6.613281 L -9.90267 7.765625 L -9.832357 8.769531 L -9.762045 9.617188 L -9.699545 10.316406 L -9.668295 10.882812 L -9.676107 11.324219 L -9.722982 11.65625 L -9.805014 11.902344 L -9.90267 12.070312 L -9.988607 12.171875 L -10.047201 12.230469 L -10.062826 12.242188 L -10.160482 12.355469 L -10.24642 12.589844 L -10.168295 12.9375 L -9.77767 13.351562 L -9.004232 13.757812 L -7.844076 14.085938 L -6.359701 14.300781 L -4.633139 14.417969 L -2.758139 14.480469 L -0.824545 14.515625 L 1.054361 14.535156 L 2.769205 14.542969 L 4.234049 14.539062 L 5.386393 14.550781 L 6.214518 14.585938 L 6.737955 14.640625 L 6.987955 14.675781 L 7.03483 14.6875 L 7.144205 14.707031 L 7.351236 14.753906 L 7.640299 14.835938 L 7.991861 14.941406 L 8.374674 15.058594 L 8.75358 15.144531 L 9.101236 15.160156 L 9.402018 15.050781 L 9.636393 14.792969 L 9.808268 14.355469 L 9.921549 13.746094 L 9.991861 12.972656 L 10.027018 12.054688 L 10.046549 11.003906 L 10.046549 9.839844 L 10.03483 8.566406 L 10.011393 7.183594 L 9.980143 5.710938 L 9.937174 4.152344 L 9.898111 2.535156 L 9.859049 0.886719 L 9.819986 -0.757812 L 9.780924 -2.363281 L 9.737955 -3.890625 L 9.687174 -5.316406 L 9.62858 -6.613281 L 9.573893 -7.765625 L 9.530924 -8.769531 L 9.530924 -9.617188 L 9.577799 -10.316406 L 9.683268 -10.882812 L 9.843424 -11.324219 L 10.042643 -11.65625 L 10.249674 -11.902344 L 10.44108 -12.070312 L 10.589518 -12.171875 L 10.667643 -12.222656 L 10.675455 -12.230469 L 10.698893 -12.242188 L 10.84733 -12.351562 L 11.00358 -12.558594 L 10.956705 -12.859375 L 10.53483 -13.222656 L 9.648111 -13.625 L 8.331705 -14.019531 L 6.683268 -14.355469 L 4.81608 -14.59375 L 2.843424 -14.71875 L 0.859049 -14.742188 L -1.043295 -14.707031 L -2.765951 -14.652344 L -4.234701 -14.605469 L -5.387045 -14.570312 L -6.21517 -14.550781 L -6.738607 -14.53125 L -6.988607 -14.519531 L -7.019857 -14.519531 " transform="matrix(1,0,0,1,126.59017,104)"/>
</g>
</svg>
