<?xml version="1.0" encoding="UTF-8"?>
<svg xmlns="http://www.w3.org/2000/svg" xmlns:xlink="http://www.w3.org/1999/xlink" width="217.013156pt" height="280.832816pt" viewBox="0 0 217.013156 280.832816" version="1.1">
<g id="surface23769">
<path style="fill-rule:evenodd;fill:rgb(100%,100%,100%);fill-opacity:1;stroke-width:1;stroke-linecap:butt;stroke-linejoin:bevel;stroke:rgb(50.048876%,50.048876%,50.048876%);stroke-opacity:1;stroke-miterlimit:10;" d="M -2.198893 -50.765299 L -2.234049 -50.765299 L -2.265299 -50.761393 L -2.308268 -50.75358 L -2.362955 -50.741861 L -2.429361 -50.72233 L -2.511393 -50.69108 L -2.601236 -50.644205 L -2.706705 -50.585611 L -2.819986 -50.511393 L -2.944986 -50.417643 L -3.077799 -50.308268 L -3.218424 -50.179361 L -3.362955 -50.03483 L -3.507486 -49.870768 L -3.652018 -49.694986 L -3.796549 -49.507486 L -3.929361 -49.308268 L -4.058268 -49.101236 L -4.175455 -48.886393 L -4.280924 -48.671549 L -4.370768 -48.448893 L -4.448893 -48.226236 L -4.511393 -48.00358 L -4.562174 -47.777018 L -4.601236 -47.550455 L -4.624674 -47.319986 L -4.640299 -47.089518 L -4.648111 -46.851236 L -4.648111 -46.609049 L -4.644205 -46.355143 L -4.636393 -46.093424 L -4.62858 -45.819986 L -4.616861 -45.530924 L -4.609049 -45.226236 L -4.601236 -44.902018 L -4.593424 -44.558268 L -4.589518 -44.19108 L -4.585611 -43.796549 L -4.581705 -43.37858 L -4.581705 -42.456705 L -4.585611 -41.952799 L -4.585611 -41.417643 L -4.589518 -40.84733 L -4.59733 -40.245768 L -4.605143 -39.612955 L -4.612955 -38.94108 L -4.624674 -38.237955 L -4.636393 -37.499674 L -4.652018 -36.726236 L -4.671549 -35.917643 L -4.69108 -35.069986 L -4.714518 -34.19108 L -4.737955 -33.273111 L -4.761393 -32.323893 L -4.78483 -31.339518 L -4.808268 -30.319986 L -4.831705 -29.265299 L -4.84733 -28.179361 L -4.862955 -27.062174 L -4.870768 -25.913736 L -4.87858 -24.734049 L -4.87858 -23.527018 L -4.874674 -22.288736 L -4.866861 -21.027018 L -4.855143 -19.737955 L -4.839518 -18.425455 L -4.819986 -17.089518 L -4.800455 -15.734049 L -4.780924 -14.359049 L -4.765299 -12.964518 L -4.745768 -11.554361 L -4.730143 -10.132486 L -4.718424 -8.694986 L -4.706705 -7.249674 L -4.698893 -5.796549 L -4.694986 -4.335611 L -4.694986 -1.398111 L -4.698893 0.0706387 L -4.714518 3.000326 L -4.72233 4.461264 L -4.730143 5.914389 L -4.741861 7.355795 L -4.75358 8.785482 L -4.765299 10.207357 L -4.780924 11.609701 L -4.792643 13.000326 L -4.804361 14.367514 L -4.81608 15.719076 L -4.831705 17.051107 L -4.843424 18.355795 L -4.855143 19.640951 L -4.866861 20.898764 L -4.87858 22.129232 L -4.890299 23.332357 L -4.902018 24.508139 L -4.913736 25.65267 L -4.925455 26.765951 L -4.937174 27.851889 L -4.948893 28.90267 L -4.960611 29.922201 L -4.97233 30.910482 L -4.984049 31.863607 L -4.999674 32.781576 L -5.011393 33.668295 L -5.027018 34.519857 L -5.042643 35.34017 L -5.058268 36.12142 L -5.073893 36.875326 L -5.089518 37.59017 L -5.109049 38.27767 L -5.12858 38.926107 L -5.148111 39.547201 L -5.167643 40.133139 L -5.187174 40.691732 L -5.210611 41.219076 L -5.234049 41.71517 L -5.25358 42.180014 L -5.273111 42.62142 L -5.292643 43.031576 L -5.312174 43.418295 L -5.327799 43.77767 L -5.343424 44.113607 L -5.355143 44.426107 L -5.362955 44.71517 L -5.370768 44.980795 L -5.37858 45.226889 L -5.382486 45.457357 L -5.386393 45.664389 L -5.386393 46.187826 L -5.390299 46.328451 L -5.390299 46.680014 L -5.394205 46.773764 L -5.402018 46.859701 L -5.40983 46.93392 L -5.421549 46.99642 L -5.437174 47.055014 L -5.456705 47.105795 L -5.484049 47.148764 L -5.515299 47.187826 L -5.585611 47.250326 L -5.624674 47.273764 L -5.667643 47.293295 L -5.706705 47.30892 L -5.800455 47.34017 L -5.819986 47.344076 L -5.831705 47.344076 L -5.84733 47.351889 L -5.948893 47.398764 L -5.964518 47.547201 L -5.667643 47.84017 L -4.948893 48.285482 L -3.87858 48.816732 L -2.648111 49.34017 L -1.448893 49.77767 L -0.398111 50.109701 L 0.472982 50.355795 L 1.164389 50.55892 L 1.680014 50.730795 L 2.015951 50.867514 L 2.180014 50.945639 L 2.199545 50.957357 L 2.203451 50.957357 L 2.234701 50.972982 L 2.265951 50.984701 L 2.30892 50.99642 L 2.363607 51.004232 L 2.430014 51.004232 L 2.508139 50.99642 L 2.594076 50.972982 L 2.695639 50.93392 L 2.801107 50.879232 L 2.918295 50.797201 L 3.043295 50.695639 L 3.172201 50.570639 L 3.305014 50.426107 L 3.441732 50.258139 L 3.574545 50.074545 L 3.707357 49.87142 L 3.832357 49.65267 L 3.953451 49.426107 L 4.066732 49.191732 L 4.172201 48.945639 L 4.269857 48.699545 L 4.359701 48.453451 L 4.437826 48.203451 L 4.512045 47.953451 L 4.574545 47.703451 L 4.633139 47.453451 L 4.68392 47.199545 L 4.730795 46.945639 L 4.773764 46.687826 L 4.816732 46.422201 L 4.855795 46.148764 L 4.894857 45.863607 L 4.930014 45.566732 L 4.96517 45.254232 L 5.000326 44.922201 L 5.035482 44.574545 L 5.070639 44.203451 L 5.105795 43.80892 L 5.133139 43.387045 L 5.164389 42.937826 L 5.187826 42.461264 L 5.211264 41.957357 L 5.230795 41.418295 L 5.24642 40.851889 L 5.258139 40.250326 L 5.262045 39.613607 L 5.265951 38.945639 L 5.265951 38.238607 L 5.262045 37.500326 L 5.250326 36.726889 L 5.242514 35.918295 L 5.226889 35.070639 L 5.211264 34.191732 L 5.191732 33.273764 L 5.172201 32.324545 L 5.148764 31.34017 L 5.129232 30.320639 L 5.109701 29.265951 L 5.09017 28.180014 L 5.070639 27.062826 L 5.051107 25.914389 L 5.035482 24.734701 L 5.019857 23.52767 L 5.008139 22.289389 L 4.99642 21.02767 L 4.988607 19.738607 L 4.980795 18.426107 L 4.972982 17.09017 L 4.969076 15.734701 L 4.961264 14.359701 L 4.953451 12.96517 L 4.945639 11.555014 L 4.937826 10.133139 L 4.930014 8.695639 L 4.918295 7.250326 L 4.910482 5.797201 L 4.898764 4.336264 L 4.863607 -0.0699863 L 4.84017 -2.999674 L 4.832357 -4.460611 L 4.824545 -5.913736 L 4.820639 -7.355143 L 4.816732 -8.78483 L 4.816732 -10.206705 L 4.820639 -11.609049 L 4.824545 -12.999674 L 4.828451 -14.366861 L 4.84017 -15.718424 L 4.847982 -17.050455 L 4.863607 -18.355143 L 4.879232 -19.640299 L 4.898764 -20.898111 L 4.922201 -22.12858 L 4.945639 -23.331705 L 4.972982 -24.507486 L 5.004232 -25.652018 L 5.039389 -26.765299 L 5.074545 -27.851236 L 5.113607 -28.902018 L 5.156576 -29.921549 L 5.199545 -30.90983 L 5.24642 -31.862955 L 5.297201 -32.780924 L 5.344076 -33.667643 L 5.390951 -34.519205 L 5.437826 -35.339518 L 5.484701 -36.120768 L 5.52767 -36.874674 L 5.566732 -37.589518 L 5.605795 -38.277018 L 5.637045 -38.925455 L 5.664389 -39.546549 L 5.68392 -40.132486 L 5.703451 -40.69108 L 5.71517 -41.218424 L 5.722982 -41.714518 L 5.726889 -42.179361 L 5.726889 -42.620768 L 5.719076 -43.030924 L 5.707357 -43.417643 L 5.695639 -43.777018 L 5.676107 -44.112955 L 5.65267 -44.425455 L 5.625326 -44.714518 L 5.594076 -44.980143 L 5.562826 -45.226236 L 5.52767 -45.456705 L 5.488607 -45.663736 L 5.453451 -45.855143 L 5.414389 -46.027018 L 5.379232 -46.187174 L 5.347982 -46.327799 L 5.320639 -46.460611 L 5.297201 -46.573893 L 5.281576 -46.679361 L 5.27767 -46.773111 L 5.27767 -46.859049 L 5.285482 -46.933268 L 5.301107 -46.995768 L 5.324545 -47.054361 L 5.351889 -47.105143 L 5.387045 -47.148111 L 5.426107 -47.187174 L 5.46517 -47.218424 L 5.508139 -47.249674 L 5.547201 -47.273111 L 5.586264 -47.292643 L 5.625326 -47.308268 L 5.656576 -47.319986 L 5.680014 -47.331705 L 5.71517 -47.343424 L 5.722982 -47.343424 L 5.738607 -47.351236 L 5.879232 -47.390299 L 6.137045 -47.468424 L 6.363607 -47.589518 L 6.24642 -47.792643 L 5.52767 -48.085611 L 4.230795 -48.456705 L 2.660482 -48.882486 L 1.176107 -49.355143 L -0.0270176 -49.851236 L -0.929361 -50.300455 L -1.56608 -50.609049 L -1.976236 -50.741861 L -2.175455 -50.765299 L -2.198893 -50.765299 " transform="matrix(1,0,0,1,95.40983,112.40983)"/>
<path style="fill-rule:evenodd;fill:rgb(100%,100%,100%);fill-opacity:1;stroke-width:1;stroke-linecap:butt;stroke-linejoin:bevel;stroke:rgb(50.048876%,50.048876%,50.048876%);stroke-opacity:1;stroke-miterlimit:10;" d="M -11.777018 -25.262371 L -11.800455 -25.262371 L -11.980143 -25.250652 L -12.327799 -25.227215 L -12.81608 -25.188152 L -13.405924 -25.129559 L -14.042643 -25.035809 L -14.679361 -24.891277 L -15.25358 -24.672527 L -15.730143 -24.352215 L -16.077799 -23.902996 L -16.280924 -23.301434 L -16.351236 -22.516277 L -16.308268 -21.520184 L -16.187174 -20.289715 L -16.019205 -18.801434 L -15.839518 -17.043621 L -15.65983 -15.008465 L -15.499674 -12.707684 L -15.359049 -10.164715 L -15.234049 -7.426434 L -15.132486 -4.543621 L -15.046549 -1.58659 L -14.987955 1.374348 L -14.956705 4.272785 L -14.948893 7.034504 L -14.968424 9.608723 L -14.999674 11.956379 L -15.03483 14.03841 L -15.069986 15.85091 L -15.09733 17.38216 L -15.124674 18.647785 L -15.15983 19.667316 L -15.202799 20.464191 L -15.25358 21.06966 L -15.312174 21.511066 L -15.366861 21.815754 L -15.40983 22.003254 L -15.433268 22.093098 L -15.437174 22.104816 L -15.444986 22.13216 L -15.480143 22.323566 L -15.456705 22.679035 L -15.230143 23.147785 L -14.648111 23.655598 L -13.59733 24.136066 L -12.019205 24.542316 L -9.913736 24.858723 L -7.343424 25.10091 L -4.413736 25.280598 L -1.300455 25.393879 L 1.793295 25.41341 L 4.65267 25.311848 L 7.101889 25.06966 L 9.035482 24.72591 L 10.426107 24.347004 L 11.305014 24.022785 L 11.722982 23.839191 L 11.77767 23.815754 L 11.797201 23.804035 L 11.961264 23.72591 L 12.269857 23.577473 L 12.691732 23.378254 L 13.172201 23.143879 L 13.664389 22.886066 L 14.133139 22.60091 L 14.539389 22.28841 L 14.87142 21.91341 L 15.12142 21.44466 L 15.293295 20.831379 L 15.398764 20.034504 L 15.445639 19.00716 L 15.449545 17.72591 L 15.410482 16.16341 L 15.344076 14.327473 L 15.254232 12.22591 L 15.156576 9.886066 L 15.05892 7.354816 L 14.976889 4.682941 L 14.922201 1.929035 L 14.90267 -0.848309 L 14.922201 -3.58659 L 14.96517 -6.227215 L 15.02767 -8.719402 L 15.097982 -11.02409 L 15.160482 -13.106121 L 15.211264 -14.949871 L 15.24642 -16.547527 L 15.262045 -17.89909 L 15.269857 -19.020184 L 15.269857 -19.922527 L 15.273764 -20.629559 L 15.273764 -21.168621 L 15.281576 -21.567059 L 15.289389 -21.840496 L 15.293295 -22.012371 L 15.297201 -22.098309 L 15.297201 -22.133465 L 15.293295 -22.324871 L 15.207357 -22.68034 L 14.930014 -23.145184 L 14.336264 -23.652996 L 13.312826 -24.121746 L 11.797201 -24.508465 L 9.765951 -24.801434 L 7.254232 -25.016277 L 4.37142 -25.18034 L 1.281576 -25.313152 L -1.800455 -25.406902 L -4.652018 -25.449871 L -7.101236 -25.442059 L -9.03483 -25.395184 L -10.425455 -25.340496 L -11.304361 -25.293621 L -11.72233 -25.266277 L -11.777018 -25.262371 " transform="matrix(1,0,0,1,105.40983,251.68034)"/>
<path style="fill-rule:evenodd;fill:rgb(100%,100%,100%);fill-opacity:1;stroke-width:1;stroke-linecap:butt;stroke-linejoin:bevel;stroke:rgb(50.048876%,50.048876%,50.048876%);stroke-opacity:1;stroke-miterlimit:10;" d="M -7.019857 -25.232259 L -7.02767 -25.236165 L -7.09017 -25.259603 L -7.211264 -25.294759 L -7.383139 -25.333821 L -7.597982 -25.357259 L -7.844076 -25.34554 L -8.109701 -25.28304 L -8.379232 -25.154134 L -8.648764 -24.954915 L -8.898764 -24.677571 L -9.125326 -24.329915 L -9.324545 -23.90804 L -9.492514 -23.427571 L -9.629232 -22.884603 L -9.730795 -22.28304 L -9.805014 -21.622884 L -9.855795 -20.896321 L -9.883139 -20.103353 L -9.894857 -19.224446 L -9.898764 -18.259603 L -9.894857 -17.197103 L -9.887045 -16.03304 L -9.879232 -14.763509 L -9.87142 -13.388509 L -9.867514 -11.915853 L -9.867514 -10.341634 L -9.875326 -8.685384 L -9.887045 -6.958821 L -9.90267 -5.173665 L -9.922201 -3.34554 L -9.945639 -1.497884 L -9.96517 0.357585 L -9.980795 2.201335 L -9.988607 4.017741 L -9.988607 5.787272 L -9.976889 7.494304 L -9.957357 9.127116 L -9.930014 10.673991 L -9.894857 12.12321 L -9.855795 13.470866 L -9.820639 14.709147 L -9.781576 15.838054 L -9.750326 16.853679 L -9.719076 17.759929 L -9.691732 18.556804 L -9.664389 19.256022 L -9.644857 19.853679 L -9.62142 20.365397 L -9.605795 20.795085 L -9.594076 21.150554 L -9.59017 21.443522 L -9.586264 21.677897 L -9.594076 21.861491 L -9.601889 22.002116 L -9.609701 22.107585 L -9.62142 22.18571 L -9.633139 22.256022 L -9.633139 22.267741 L -9.640951 22.357585 L -9.594076 22.548991 L -9.410482 22.838054 L -9.004232 23.21696 L -8.30892 23.646647 L -7.305014 24.072429 L -5.99642 24.423991 L -4.422201 24.658366 L -2.65267 24.771647 L -0.781576 24.802897 L 1.06608 24.798991 L 2.773111 24.802897 L 4.234049 24.830241 L 5.386393 24.869304 L 6.214518 24.892741 L 6.737955 24.90446 L 7.019205 24.90446 L 7.027018 24.900554 L 7.089518 24.900554 L 7.214518 24.892741 L 7.390299 24.87321 L 7.612955 24.834147 L 7.874674 24.763835 L 8.163736 24.65446 L 8.468424 24.49821 L 8.773111 24.291179 L 9.062174 24.033366 L 9.327799 23.724772 L 9.554361 23.361491 L 9.730143 22.947429 L 9.855143 22.478679 L 9.925455 21.951335 L 9.944986 21.357585 L 9.921549 20.693522 L 9.866861 19.951335 L 9.800455 19.115397 L 9.730143 18.18571 L 9.671549 17.146647 L 9.636393 15.99821 L 9.632486 14.740397 L 9.655924 13.37321 L 9.706705 11.90446 L 9.777018 10.334147 L 9.862955 8.681804 L 9.948893 6.955241 L 10.027018 5.170085 L 10.089518 3.34196 L 10.12858 1.494304 L 10.136393 -0.361165 L 10.120768 -2.204915 L 10.073893 -4.021321 L 10.007486 -5.790853 L 9.921549 -7.497884 L 9.827799 -9.130696 L 9.734049 -10.677571 L 9.648111 -12.12679 L 9.573893 -13.474446 L 9.519205 -14.712728 L 9.491861 -15.841634 L 9.491861 -16.857259 L 9.523111 -17.763509 L 9.581705 -18.560384 L 9.667643 -19.259603 L 9.773111 -19.857259 L 9.894205 -20.368978 L 10.027018 -20.798665 L 10.167643 -21.154134 L 10.312174 -21.447103 L 10.456705 -21.681478 L 10.593424 -21.865071 L 10.726236 -22.005696 L 10.839518 -22.111165 L 10.933268 -22.18929 L 10.999674 -22.236165 L 11.03483 -22.259603 L 11.038736 -22.259603 L 11.058268 -22.275228 L 11.226236 -22.372884 L 11.569986 -22.544759 L 12.007486 -22.775228 L 12.300455 -23.06429 L 12.124674 -23.415853 L 11.230143 -23.829915 L 9.589518 -24.243978 L 7.398111 -24.576009 L 4.94108 -24.747884 L 2.468424 -24.75179 L 0.144205 -24.665853 L -1.937826 -24.59554 L -3.695639 -24.618978 L -5.082357 -24.75179 L -6.070639 -24.93929 L -6.691732 -25.115071 L -6.984701 -25.22054 L -7.019857 -25.232259 " transform="matrix(1,0,0,1,146.59017,171.454915)"/>
<path style="fill-rule:evenodd;fill:rgb(100%,100%,100%);fill-opacity:1;stroke-width:1;stroke-linecap:butt;stroke-linejoin:bevel;stroke:rgb(50.048876%,50.048876%,50.048876%);stroke-opacity:1;stroke-miterlimit:10;" d="M -2.198893 -25.081379 L -2.226236 -25.081379 L -2.269205 -25.077473 L -2.339518 -25.06966 L -2.429361 -25.046223 L -2.546549 -25.00716 L -2.683268 -24.94466 L -2.843424 -24.85091 L -3.019205 -24.729816 L -3.206705 -24.56966 L -3.402018 -24.38216 L -3.59733 -24.159504 L -3.78483 -23.905598 L -3.960611 -23.628254 L -4.124674 -23.327473 L -4.269205 -23.003254 L -4.402018 -22.66341 L -4.515299 -22.296223 L -4.612955 -21.909504 L -4.698893 -21.495441 L -4.773111 -21.046223 L -4.843424 -20.565754 L -4.898111 -20.03841 L -4.948893 -19.468098 L -4.991861 -18.843098 L -5.023111 -18.159504 L -5.046549 -17.417316 L -5.062174 -16.612629 L -5.069986 -15.741535 L -5.073893 -14.807941 L -5.077799 -13.807941 L -5.081705 -12.749348 L -5.089518 -11.63216 L -5.105143 -10.460285 L -5.124674 -9.237629 L -5.148111 -7.972004 L -5.175455 -6.667316 L -5.206705 -5.331379 L -5.234049 -3.968098 L -5.257486 -2.589191 L -5.269205 -1.202473 L -5.277018 0.192059 L -5.273111 1.578777 L -5.257486 2.949871 L -5.234049 4.30534 L -5.198893 5.633465 L -5.15983 6.926434 L -5.116861 8.184246 L -5.06608 9.395184 L -5.015299 10.55534 L -4.964518 11.664715 L -4.913736 12.715496 L -4.866861 13.71159 L -4.827799 14.641277 L -4.796549 15.508465 L -4.777018 16.313152 L -4.773111 17.05534 L -4.777018 17.735027 L -4.800455 18.356121 L -4.835611 18.914715 L -4.87858 19.414715 L -4.925455 19.863934 L -4.968424 20.258465 L -5.00358 20.610027 L -5.019205 20.910809 L -5.007486 21.172527 L -4.964518 21.39909 L -4.87858 21.590496 L -4.75358 21.750652 L -4.593424 21.883465 L -4.398111 21.996746 L -4.179361 22.082684 L -3.948893 22.156902 L -3.726236 22.21159 L -3.523111 22.254559 L -3.355143 22.281902 L -3.234049 22.301434 L -3.171549 22.313152 L -3.163736 22.313152 L -3.105143 22.320965 L -2.69108 22.402996 L -2.073893 22.598309 L -1.527018 22.934246 L -1.206705 23.387371 L -1.058268 23.891277 L -0.905924 24.371746 L -0.589518 24.80534 L -0.0699863 25.184246 L 0.562826 25.485027 L 1.180014 25.672527 L 1.680014 25.719402 L 2.015951 25.664715 L 2.180014 25.602215 L 2.199545 25.590496 L 2.203451 25.590496 L 2.226889 25.578777 L 2.269857 25.551434 L 2.332357 25.512371 L 2.410482 25.449871 L 2.508139 25.363934 L 2.617514 25.254559 L 2.738607 25.113934 L 2.867514 24.942059 L 3.004232 24.74284 L 3.148764 24.512371 L 3.293295 24.254559 L 3.445639 23.977215 L 3.594076 23.676434 L 3.742514 23.356121 L 3.890951 23.020184 L 4.031576 22.668621 L 4.172201 22.297527 L 4.30892 21.906902 L 4.437826 21.488934 L 4.566732 21.043621 L 4.687826 20.563152 L 4.80892 20.035809 L 4.922201 19.465496 L 5.02767 18.840496 L 5.129232 18.156902 L 5.222982 17.414715 L 5.30892 16.610027 L 5.379232 15.74284 L 5.441732 14.80534 L 5.492514 13.809246 L 5.52767 12.750652 L 5.547201 11.633465 L 5.555014 10.46159 L 5.551107 9.238934 L 5.531576 7.973309 L 5.504232 6.668621 L 5.472982 5.332684 L 5.43392 3.969402 L 5.394857 2.590496 L 5.359701 1.203777 L 5.324545 -0.190754 L 5.297201 -1.577473 L 5.273764 -2.948566 L 5.254232 -4.304035 L 5.234701 -5.63216 L 5.21517 -6.925129 L 5.195639 -8.182941 L 5.172201 -9.393879 L 5.144857 -10.554035 L 5.117514 -11.66341 L 5.086264 -12.714191 L 5.05892 -13.710285 L 5.035482 -14.639973 L 5.015951 -15.50716 L 5.004232 -16.311848 L 5.000326 -17.054035 L 5.000326 -17.733723 L 5.008139 -18.354816 L 5.012045 -18.91341 L 5.019857 -19.41341 L 5.019857 -19.862629 L 5.015951 -20.25716 L 5.000326 -20.608723 L 4.980795 -20.909504 L 4.957357 -21.171223 L 4.926107 -21.397785 L 4.898764 -21.589191 L 4.875326 -21.749348 L 4.859701 -21.88216 L 4.855795 -21.995441 L 4.855795 -22.081379 L 4.867514 -22.155598 L 4.887045 -22.210285 L 4.910482 -22.253254 L 4.930014 -22.280598 L 4.949545 -22.300129 L 4.957357 -22.311848 L 4.969076 -22.323566 L 5.074545 -22.397785 L 5.316732 -22.542316 L 5.605795 -22.761066 L 5.637045 -23.112629 L 5.113607 -23.612629 L 4.000326 -24.182941 L 2.55892 -24.675129 L 1.140951 -24.983723 L -0.0348301 -25.10091 L -0.929361 -25.112629 L -1.56608 -25.093098 L -1.976236 -25.081379 L -2.198893 -25.081379 " transform="matrix(1,0,0,1,95.40983,29.31966)"/>
<path style="fill-rule:evenodd;fill:rgb(100%,100%,100%);fill-opacity:1;stroke-width:1;stroke-linecap:butt;stroke-linejoin:bevel;stroke:rgb(50.048876%,50.048876%,50.048876%);stroke-opacity:1;stroke-miterlimit:10;" d="M -2.199545 -5.026206 L -2.226889 -5.006675 L -2.410482 -4.854331 L -2.742514 -4.498862 L -3.144857 -3.932456 L -3.539389 -3.244956 L -3.890951 -2.561362 L -4.226889 -1.920737 L -4.562826 -1.276206 L -4.87142 -0.561362 L -5.070639 0.215981 L -5.094076 0.965981 L -4.96517 1.57145 L -4.781576 1.9777 L -4.65267 2.176919 L -4.633139 2.200356 L -4.617514 2.223794 L -4.49642 2.376138 L -4.238607 2.657388 L -3.84017 3.00895 L -3.297201 3.395669 L -2.637045 3.770669 L -1.879232 4.114419 L -1.070639 4.399575 L -0.254232 4.610513 L 0.511393 4.735513 L 1.171549 4.7902 L 1.679361 4.7902 L 2.015299 4.770669 L 2.179361 4.755044 L 2.198893 4.751138 L 2.22233 4.751138 L 2.386393 4.712075 L 2.726236 4.575356 L 3.210611 4.251138 L 3.741861 3.704263 L 4.198893 2.958169 L 4.507486 2.083169 L 4.667643 1.173013 L 4.745768 0.294106 L 4.780924 -0.498862 L 4.765299 -1.170737 L 4.679361 -1.67855 L 4.546549 -2.014487 L 4.444986 -2.17855 L 4.433268 -2.198081 L 4.413736 -2.225425 L 4.249674 -2.409019 L 3.851236 -2.748862 L 3.226236 -3.17855 L 2.515299 -3.6473 L 1.902018 -4.104331 L 1.437174 -4.526206 L 0.995768 -4.893394 L 0.437174 -5.182456 L -0.254232 -5.36605 L -0.969076 -5.409019 L -1.570639 -5.319175 L -1.976889 -5.162925 L -2.176107 -5.041831 L -2.199545 -5.026206 " transform="matrix(1,0,0,1,141.59017,265.725425)"/>
<path style="fill-rule:evenodd;fill:rgb(100%,100%,100%);fill-opacity:1;stroke-width:1;stroke-linecap:butt;stroke-linejoin:bevel;stroke:rgb(50.048876%,50.048876%,50.048876%);stroke-opacity:1;stroke-miterlimit:10;" d="M -7.019857 -9.056804 L -7.055014 -9.056804 L -7.332357 -9.052897 L -7.824545 -9.045085 L -8.441732 -9.021647 L -9.070639 -8.916179 L -9.605795 -8.631022 L -9.988607 -8.052897 L -10.211264 -7.09196 L -10.301107 -5.732585 L -10.297201 -4.013835 L -10.24642 -2.048991 L -10.168295 0.00569628 L -10.070639 1.978353 L -9.922201 3.704915 L -9.703451 5.083821 L -9.422201 6.072103 L -9.144857 6.693196 L -8.969076 6.986165 L -8.945639 7.021321 L -8.926107 7.052571 L -8.488607 7.708821 L -8.117514 8.228353 L -7.672201 8.755696 L -7.113607 9.22054 L -6.37142 9.59554 L -5.363607 9.892415 L -4.055014 10.146321 L -2.472982 10.380696 L -0.711264 10.579915 L 1.089518 10.712728 L 2.777018 10.743978 L 4.234049 10.677571 L 5.386393 10.548665 L 6.214518 10.415853 L 6.737955 10.310384 L 6.987955 10.255696 L 7.050455 10.240071 L 7.280924 10.177571 L 7.687174 10.017415 L 8.171549 9.701009 L 8.648111 9.169759 L 9.050455 8.388509 L 9.34733 7.329915 L 9.519205 5.993978 L 9.577799 4.415853 L 9.538736 2.646321 L 9.44108 0.78304 L 9.339518 -1.064616 L 9.277018 -2.771647 L 9.280924 -4.232585 L 9.351236 -5.384929 L 9.456705 -6.213054 L 9.558268 -6.736491 L 9.616861 -6.986491 L 9.624674 -7.017741 L 9.636393 -7.052897 L 9.714518 -7.330241 L 9.870768 -7.822429 L 10.062174 -8.43571 L 10.152018 -9.048991 L 9.94108 -9.548991 L 9.261393 -9.87321 L 8.054361 -10.009929 L 6.37858 -9.994304 L 4.374674 -9.881022 L 2.214518 -9.724772 L 0.0504551 -9.556804 L -1.961264 -9.396647 L -3.699545 -9.259929 L -5.082357 -9.158366 L -6.070639 -9.095866 L -6.691732 -9.068522 L -6.984701 -9.056804 L -7.019857 -9.056804 " transform="matrix(1,0,0,1,146.59017,214.545085)"/>
<path style="fill-rule:evenodd;fill:rgb(100%,100%,100%);fill-opacity:1;stroke-width:1;stroke-linecap:butt;stroke-linejoin:bevel;stroke:rgb(50.048876%,50.048876%,50.048876%);stroke-opacity:1;stroke-miterlimit:10;" d="M -11.777018 -15 L -11.827799 -15.003906 L -12.210611 -15.019531 L -12.859049 -14.976562 L -13.593424 -14.75 L -14.230143 -14.203125 L -14.663736 -13.226562 L -14.870768 -11.742188 L -14.886393 -9.734375 L -14.788736 -7.242188 L -14.648111 -4.367188 L -14.527018 -1.28125 L -14.460611 1.800781 L -14.464518 4.652344 L -14.523111 7.101562 L -14.609049 9.035156 L -14.687174 10.425781 L -14.745768 11.304688 L -14.777018 11.722656 L -14.777018 11.777344 L -14.780924 11.828125 L -14.792643 12.210938 L -14.749674 12.871094 L -14.53483 13.617188 L -14.011393 14.273438 L -13.073893 14.722656 L -11.632486 14.9375 L -9.663736 14.980469 L -7.198893 14.949219 L -4.34733 14.910156 L -1.273111 14.898438 L 1.801107 14.890625 L 4.656576 14.855469 L 7.101889 14.773438 L 9.035482 14.65625 L 10.426107 14.527344 L 11.305014 14.421875 L 11.722982 14.367188 L 11.77767 14.359375 L 11.828451 14.351562 L 12.21517 14.285156 L 12.875326 14.132812 L 13.640951 13.832031 L 14.34017 13.304688 L 14.855795 12.441406 L 15.15267 11.144531 L 15.258139 9.335938 L 15.226889 7.011719 L 15.12142 4.253906 L 14.976889 1.234375 L 14.832357 -1.8125 L 14.726889 -4.65625 L 14.680014 -7.101562 L 14.711264 -9.035156 L 14.797201 -10.425781 L 14.898764 -11.304688 L 14.969076 -11.722656 L 14.976889 -11.777344 L 14.988607 -11.835938 L 15.086264 -12.296875 L 15.301107 -13.121094 L 15.582357 -14.136719 L 15.750326 -15.121094 L 15.504232 -15.878906 L 14.566732 -16.28125 L 12.805014 -16.332031 L 10.254232 -16.117188 L 7.101889 -15.773438 L 3.609701 -15.410156 L 0.0511074 -15.117188 L -3.300455 -14.929688 L -6.210611 -14.851562 L -8.523111 -14.855469 L -10.183268 -14.90625 L -11.22233 -14.960938 L -11.714518 -14.996094 L -11.777018 -15 " transform="matrix(1,0,0,1,105.40983,185.5)"/>
<path style="fill-rule:evenodd;fill:rgb(100%,100%,100%);fill-opacity:1;stroke-width:1;stroke-linecap:butt;stroke-linejoin:bevel;stroke:rgb(50.048876%,50.048876%,50.048876%);stroke-opacity:1;stroke-miterlimit:10;" d="M -32.202146 -14.742188 L -32.221678 -14.738281 L -32.362303 -14.699219 L -32.608396 -14.597656 L -32.909178 -14.394531 L -33.217771 -14.03125 L -33.526365 -13.429688 L -33.827146 -12.480469 L -34.112303 -11.046875 L -34.362303 -9.023438 L -34.534178 -6.394531 L -34.612303 -3.28125 L -34.60449 0.0664062 L -34.549803 3.332031 L -34.491209 6.214844 L -34.44824 8.523438 L -34.432615 10.183594 L -34.424803 11.222656 L -34.424803 12.117188 L -34.420896 12.429688 L -34.420896 12.820312 L -34.409178 13.273438 L -34.389646 13.753906 L -34.35449 14.246094 L -34.288084 14.71875 L -34.182615 15.144531 L -34.026365 15.507812 L -33.807615 15.796875 L -33.518553 16.007812 L -33.143553 16.140625 L -32.670896 16.210938 L -32.096678 16.226562 L -31.401365 16.203125 L -30.57324 16.152344 L -29.60449 16.082031 L -28.475584 15.996094 L -27.178709 15.90625 L -25.69824 15.808594 L -24.038084 15.707031 L -22.190428 15.601562 L -20.159178 15.496094 L -17.956053 15.386719 L -15.592771 15.285156 L -13.088865 15.183594 L -10.463865 15.09375 L -7.749021 15.011719 L -4.967771 14.9375 L -2.151365 14.875 L 0.665041 14.824219 L 3.461916 14.785156 L 6.204104 14.761719 L 8.86426 14.753906 L 11.422854 14.761719 L 13.852541 14.785156 L 16.141604 14.820312 L 18.274416 14.867188 L 20.23926 14.921875 L 22.028322 14.980469 L 23.64551 15.042969 L 25.086916 15.105469 L 26.360354 15.167969 L 27.465822 15.230469 L 28.422854 15.289062 L 29.231447 15.339844 L 29.915041 15.382812 L 30.477541 15.410156 L 30.934572 15.429688 L 31.30176 15.429688 L 31.590822 15.421875 L 31.813479 15.402344 L 31.977541 15.378906 L 32.090822 15.355469 L 32.165041 15.335938 L 32.200197 15.328125 L 32.204104 15.324219 L 32.219729 15.320312 L 32.348635 15.269531 L 32.598635 15.121094 L 32.950197 14.78125 L 33.360354 14.152344 L 33.782229 13.132812 L 34.149416 11.644531 L 34.418947 9.65625 L 34.563479 7.191406 L 34.594729 4.339844 L 34.543947 1.269531 L 34.469729 -1.804688 L 34.454104 -4.65625 L 34.563479 -7.101562 L 34.821291 -9.035156 L 35.17676 -10.425781 L 35.524416 -11.304688 L 35.743166 -11.722656 L 35.77051 -11.777344 L 35.778322 -11.789062 L 35.844729 -11.902344 L 35.985354 -12.117188 L 36.204104 -12.429688 L 36.508791 -12.820312 L 36.883791 -13.261719 L 37.313479 -13.734375 L 37.743166 -14.199219 L 38.122072 -14.628906 L 38.383791 -15 L 38.473635 -15.289062 L 38.344729 -15.488281 L 37.973635 -15.601562 L 37.356447 -15.636719 L 36.504885 -15.609375 L 35.454104 -15.546875 L 34.231447 -15.464844 L 32.872072 -15.386719 L 31.399416 -15.320312 L 29.825197 -15.277344 L 28.153322 -15.253906 L 26.379885 -15.253906 L 24.493166 -15.269531 L 22.481447 -15.296875 L 20.340822 -15.328125 L 18.063479 -15.359375 L 15.653322 -15.386719 L 13.122072 -15.40625 L 10.481447 -15.417969 L 7.758791 -15.421875 L 4.973635 -15.417969 L 2.157229 -15.414062 L -0.663084 -15.40625 L -3.459959 -15.402344 L -6.202146 -15.402344 L -8.862303 -15.40625 L -11.420896 -15.410156 L -13.850584 -15.417969 L -16.139646 -15.417969 L -18.272459 -15.410156 L -20.237303 -15.386719 L -22.026365 -15.347656 L -23.643553 -15.292969 L -25.084959 -15.226562 L -26.358396 -15.15625 L -27.463865 -15.082031 L -28.420896 -15.011719 L -29.22949 -14.953125 L -29.913084 -14.90625 L -30.475584 -14.871094 L -30.932615 -14.847656 L -31.299803 -14.828125 L -31.588865 -14.8125 L -31.811521 -14.792969 L -31.975584 -14.777344 L -32.088865 -14.761719 L -32.163084 -14.75 L -32.19824 -14.742188 L -32.202146 -14.742188 " transform="matrix(1,0,0,1,39.22949,140.5)"/>
<path style="fill-rule:evenodd;fill:rgb(100%,100%,100%);fill-opacity:1;stroke-width:1;stroke-linecap:butt;stroke-linejoin:bevel;stroke:rgb(50.048876%,50.048876%,50.048876%);stroke-opacity:1;stroke-miterlimit:10;" d="M -12.230795 -10.865724 L -12.242514 -10.885255 L -12.351889 -11.014161 L -12.55892 -11.139161 L -12.847982 -11.05713 L -13.211264 -10.596192 L -13.62142 -9.68213 L -14.047201 -8.346192 L -14.453451 -6.686036 L -14.793295 -4.814942 L -15.055014 -2.842286 L -15.234701 -0.857911 L -15.359701 1.044433 L -15.457357 2.767089 L -15.531576 4.235839 L -15.578451 5.388183 L -15.597982 6.216308 L -15.59017 6.739745 L -15.582357 6.989745 L -15.578451 7.020995 L -15.578451 7.03662 L -15.570639 7.145995 L -15.551107 7.353026 L -15.515951 7.642089 L -15.445639 7.993651 L -15.328451 8.368651 L -15.15267 8.735839 L -14.906576 9.063964 L -14.578451 9.325683 L -14.160482 9.50537 L -13.648764 9.606933 L -13.047201 9.642089 L -12.344076 9.634276 L -11.531576 9.614745 L -10.609701 9.59912 L -9.55892 9.606933 L -8.379232 9.649901 L -7.074545 9.720214 L -5.644857 9.813964 L -4.117514 9.91162 L -2.519857 10.009276 L -0.879232 10.087401 L 0.761393 10.145995 L 2.362955 10.177245 L 3.890299 10.185058 L 5.31608 10.177245 L 6.612955 10.153808 L 7.765299 10.126464 L 8.769205 10.091308 L 9.616861 10.060058 L 10.31608 10.03662 L 10.882486 10.028808 L 11.323893 10.03662 L 11.655924 10.063964 L 11.902018 10.103026 L 12.069986 10.149901 L 12.171549 10.188964 L 12.22233 10.212401 L 12.230143 10.216308 L 12.241861 10.220214 L 12.355143 10.259276 L 12.601236 10.247558 L 12.984049 10.075683 L 13.484049 9.622558 L 14.042643 8.829589 L 14.577799 7.69287 L 15.015299 6.247558 L 15.312174 4.56787 L 15.464518 2.72412 L 15.495768 0.810058 L 15.421549 -1.05713 L 15.280924 -2.768067 L 15.101236 -4.232911 L 14.913736 -5.385255 L 14.75358 -6.21338 L 14.640299 -6.736817 L 14.581705 -6.986817 L 14.542643 -7.143067 L 14.491861 -7.350099 L 14.413736 -7.643067 L 14.308268 -7.998536 L 14.175455 -8.389161 L 14.007486 -8.787599 L 13.804361 -9.166505 L 13.558268 -9.498536 L 13.25358 -9.771974 L 12.87858 -9.979005 L 12.421549 -10.115724 L 11.862955 -10.193849 L 11.183268 -10.229005 L 10.366861 -10.236817 L 9.402018 -10.229005 L 8.28483 -10.221192 L 7.019205 -10.21338 L 5.616861 -10.201661 L 4.105143 -10.18213 L 2.511393 -10.146974 L 0.874674 -10.08838 L -0.762045 -10.010255 L -2.363607 -9.908692 L -3.890951 -9.799317 L -5.316732 -9.693849 L -6.613607 -9.615724 L -7.765951 -9.572755 L -8.769857 -9.576661 L -9.617514 -9.635255 L -10.316732 -9.74463 L -10.883139 -9.896974 L -11.324545 -10.080567 L -11.656576 -10.283692 L -11.90267 -10.482911 L -12.070639 -10.654786 L -12.172201 -10.787599 L -12.222982 -10.857911 L -12.230795 -10.865724 " transform="matrix(1,0,0,1,151.59017,242.635255)"/>
<path style="fill-rule:evenodd;fill:rgb(100%,100%,100%);fill-opacity:1;stroke-width:1;stroke-linecap:butt;stroke-linejoin:bevel;stroke:rgb(50.048876%,50.048876%,50.048876%);stroke-opacity:1;stroke-miterlimit:10;" d="M -17.297854 -4.818196 L -17.313479 -4.81429 L -17.403322 -4.798665 L -17.567385 -4.755696 L -17.790041 -4.622884 L -18.098635 -4.302571 L -18.48926 -3.716634 L -18.907229 -2.872884 L -19.266604 -1.868978 L -19.497072 -0.829915 L -19.618166 0.131022 L -19.688479 0.947429 L -19.758791 1.568522 L -19.836916 1.974772 L -19.887697 2.173991 L -19.891604 2.197429 L -19.89551 2.201335 L -19.899416 2.228679 L -19.911135 2.287272 L -19.915041 2.37321 L -19.907229 2.486491 L -19.872072 2.631022 L -19.80176 2.798991 L -19.688479 2.990397 L -19.524416 3.201335 L -19.317385 3.420085 L -19.059572 3.646647 L -18.758791 3.877116 L -18.418947 4.099772 L -18.040041 4.31071 L -17.629885 4.506022 L -17.184572 4.681804 L -16.704104 4.830241 L -16.180666 4.955241 L -15.61426 5.048991 L -14.98926 5.111491 L -14.309572 5.142741 L -13.559572 5.146647 L -12.743166 5.127116 L -11.852541 5.09196 L -10.891604 5.045085 L -9.856447 4.990397 L -8.750979 4.93571 L -7.586916 4.881022 L -6.36426 4.830241 L -5.094729 4.783366 L -3.790041 4.740397 L -2.45801 4.705241 L -1.110354 4.677897 L 0.241209 4.658366 L 1.584959 4.650554 L 2.909178 4.65446 L 4.206053 4.666179 L 5.459959 4.681804 L 6.66699 4.705241 L 7.819334 4.724772 L 8.909178 4.740397 L 9.928709 4.74821 L 12.54199 4.74821 L 13.264646 4.759929 L 13.909178 4.77946 L 14.47949 4.818522 L 14.983396 4.877116 L 15.420896 4.951335 L 15.795896 5.045085 L 16.112303 5.146647 L 16.381834 5.252116 L 16.60449 5.357585 L 16.784178 5.463054 L 16.932615 5.556804 L 17.045896 5.638835 L 17.13574 5.709147 L 17.202146 5.767741 L 17.249021 5.81071 L 17.311521 5.87321 L 17.401365 5.970866 L 17.569334 6.138835 L 17.811521 6.21696 L 18.174803 5.959147 L 18.678709 5.181804 L 19.256834 3.931804 L 19.768553 2.470866 L 20.088865 1.088054 L 20.190428 -0.0564775 L 20.139646 -0.935384 L 20.038084 -1.568196 L 19.952146 -1.978353 L 19.909178 -2.177571 L 19.901365 -2.201009 L 19.901365 -2.204915 L 19.893553 -2.236165 L 19.881834 -2.294759 L 19.862303 -2.380696 L 19.834959 -2.490071 L 19.799803 -2.622884 L 19.752928 -2.779134 L 19.690428 -2.951009 L 19.60449 -3.134603 L 19.491209 -3.333821 L 19.342771 -3.540853 L 19.159178 -3.747884 L 18.932615 -3.958821 L 18.66699 -4.161946 L 18.358396 -4.357259 L 18.002928 -4.536946 L 17.60449 -4.701009 L 17.159178 -4.841634 L 16.663084 -4.962728 L 16.112303 -5.060384 L 15.502928 -5.138509 L 14.82324 -5.193196 L 14.07324 -5.228353 L 13.245115 -5.247884 L 12.338865 -5.255696 L 11.346678 -5.259603 L 10.276365 -5.263509 L 9.131834 -5.267415 L 7.91699 -5.271321 L 6.63574 -5.28304 L 5.307615 -5.298665 L 3.936521 -5.310384 L 2.538084 -5.322103 L 1.124021 -5.329915 L -0.290041 -5.329915 L -1.696291 -5.318196 L -3.079104 -5.298665 L -4.42676 -5.267415 L -5.723635 -5.228353 L -6.969729 -5.181478 L -8.149416 -5.130696 L -9.258791 -5.072103 L -10.290041 -5.013509 L -11.243166 -4.958821 L -12.11426 -4.90804 L -12.903322 -4.868978 L -13.606447 -4.837728 L -14.235354 -4.818196 L -14.786135 -4.81429 L -15.262697 -4.818196 L -15.672854 -4.826009 L -16.02051 -4.837728 L -16.313479 -4.84554 L -16.55176 -4.853353 L -16.750979 -4.853353 L -16.907229 -4.849446 L -17.032229 -4.84554 L -17.129885 -4.837728 L -17.200197 -4.829915 L -17.250979 -4.822103 L -17.282229 -4.818196 L -17.297854 -4.818196 " transform="matrix(1,0,0,1,192.77051,171.454915)"/>
<path style="fill-rule:evenodd;fill:rgb(100%,100%,100%);fill-opacity:1;stroke-width:1;stroke-linecap:butt;stroke-linejoin:bevel;stroke:rgb(50.048876%,50.048876%,50.048876%);stroke-opacity:1;stroke-miterlimit:10;" d="M -7.019857 -14.714518 L -7.035482 -14.702799 L -7.133139 -14.62858 L -7.312826 -14.480143 L -7.55892 -14.277018 L -7.84017 -14.027018 L -8.129232 -13.741861 L -8.40267 -13.437174 L -8.644857 -13.105143 L -8.855795 -12.745768 L -9.02767 -12.34733 L -9.160482 -11.886393 L -9.262045 -11.339518 L -9.336264 -10.69108 L -9.387045 -9.921549 L -9.430014 -9.015299 L -9.469076 -7.968424 L -9.515951 -6.788736 L -9.578451 -5.484049 L -9.65267 -4.077799 L -9.738607 -2.593424 L -9.832357 -1.06608 L -9.918295 0.469076 L -9.992514 1.984701 L -10.047201 3.445639 L -10.074545 4.824545 L -10.09017 6.097982 L -10.09017 8.269857 L -10.105795 9.156576 L -10.133139 9.90267 L -10.18392 10.519857 L -10.254232 11.019857 L -10.332357 11.414389 L -10.410482 11.711264 L -10.476889 11.930014 L -10.52767 12.082357 L -10.562826 12.180014 L -10.582357 12.222982 L -10.582357 12.230795 L -10.59017 12.24642 L -10.637045 12.367514 L -10.707357 12.582357 L -10.738607 12.859701 L -10.609701 13.18392 L -10.172201 13.551107 L -9.316732 13.953451 L -8.008139 14.347982 L -6.305014 14.680014 L -4.316732 14.890951 L -2.18392 14.96517 L -0.0393887 14.941732 L 1.964518 14.894857 L 3.702799 14.898764 L 5.081705 15.000326 L 6.069986 15.187826 L 6.69108 15.394857 L 6.984049 15.531576 L 7.019205 15.551107 L 7.03483 15.55892 L 7.144205 15.617514 L 7.351236 15.74642 L 7.640299 15.945639 L 7.991861 16.211264 L 8.370768 16.500326 L 8.749674 16.754232 L 9.09733 16.887045 L 9.398111 16.828451 L 9.636393 16.523764 L 9.81608 15.953451 L 9.94108 15.133139 L 10.019205 14.109701 L 10.062174 12.930014 L 10.081705 11.640951 L 10.085611 10.269857 L 10.069986 8.836264 L 10.046549 7.347982 L 10.015299 5.797201 L 9.97233 4.195639 L 9.921549 2.555014 L 9.866861 0.894857 L 9.812174 -0.75358 L 9.769205 -2.359049 L 9.737955 -3.890299 L 9.730143 -5.31608 L 9.75358 -6.612955 L 9.812174 -7.765299 L 9.90983 -8.769205 L 10.038736 -9.616861 L 10.194986 -10.31608 L 10.359049 -10.882486 L 10.515299 -11.323893 L 10.644205 -11.655924 L 10.741861 -11.902018 L 10.804361 -12.069986 L 10.839518 -12.171549 L 10.855143 -12.22233 L 10.855143 -12.230143 L 10.859049 -12.245768 L 10.886393 -12.366861 L 10.898111 -12.581705 L 10.81608 -12.859049 L 10.538736 -13.179361 L 9.964518 -13.546549 L 9.038736 -13.944986 L 7.737955 -14.34733 L 6.09733 -14.72233 L 4.19108 -15.054361 L 2.120768 -15.339518 L 0.0152988 -15.562174 L -1.972982 -15.698893 L -3.703451 -15.698893 L -5.082357 -15.538736 L -6.070639 -15.249674 L -6.691732 -14.94108 L -6.984701 -14.741861 L -7.019857 -14.714518 " transform="matrix(1,0,0,1,126.59017,112.40983)"/>
</g>
</svg>
