<?xml version="1.0" encoding="UTF-8"?>
<svg xmlns="http://www.w3.org/2000/svg" xmlns:xlink="http://www.w3.org/1999/xlink" width="168.472136pt" height="280.832816pt" viewBox="0 0 168.472136 280.832816" version="1.1">
<g id="surface6415">
<path style="fill-rule:evenodd;fill:rgb(100%,100%,100%);fill-opacity:1;stroke-width:1;stroke-linecap:butt;stroke-linejoin:bevel;stroke:rgb(50.048876%,50.048876%,50.048876%);stroke-opacity:1;stroke-miterlimit:10;" d="M -2.199219 -50.862955 L -2.203125 -50.862955 L -2.210938 -50.870768 L -2.234375 -50.882486 L -2.265625 -50.894205 L -2.308594 -50.90983 L -2.359375 -50.925455 L -2.421875 -50.929361 L -2.496094 -50.929361 L -2.578125 -50.90983 L -2.671875 -50.87858 L -2.773438 -50.827799 L -2.878906 -50.75358 L -2.996094 -50.655924 L -3.113281 -50.538736 L -3.238281 -50.398111 L -3.363281 -50.234049 L -3.488281 -50.054361 L -3.613281 -49.855143 L -3.738281 -49.644205 L -3.855469 -49.417643 L -3.972656 -49.183268 L -4.082031 -48.94108 L -4.1875 -48.698893 L -4.28125 -48.448893 L -4.371094 -48.202799 L -4.449219 -47.952799 L -4.519531 -47.702799 L -4.578125 -47.452799 L -4.628906 -47.198893 L -4.667969 -46.944986 L -4.699219 -46.687174 L -4.71875 -46.421549 L -4.734375 -46.148111 L -4.738281 -45.862955 L -4.738281 -45.56608 L -4.734375 -45.25358 L -4.722656 -44.925455 L -4.710938 -44.573893 L -4.699219 -44.202799 L -4.683594 -43.808268 L -4.671875 -43.386393 L -4.664062 -42.937174 L -4.652344 -42.460611 L -4.648438 -41.956705 L -4.644531 -41.417643 L -4.640625 -40.851236 L -4.640625 -39.612955 L -4.644531 -38.944986 L -4.644531 -35.917643 L -4.640625 -35.069986 L -4.640625 -34.19108 L -4.636719 -33.273111 L -4.632812 -32.323893 L -4.628906 -31.339518 L -4.625 -30.319986 L -4.625 -28.179361 L -4.632812 -27.062174 L -4.636719 -25.913736 L -4.648438 -24.734049 L -4.664062 -23.527018 L -4.683594 -22.288736 L -4.703125 -21.027018 L -4.730469 -19.737955 L -4.757812 -18.425455 L -4.789062 -17.089518 L -4.824219 -15.734049 L -4.855469 -14.359049 L -4.890625 -12.964518 L -4.925781 -11.554361 L -4.957031 -10.132486 L -4.984375 -8.694986 L -5.011719 -7.249674 L -5.035156 -5.796549 L -5.054688 -4.335611 L -5.085938 -1.398111 L -5.09375 0.0706387 L -5.101562 1.535482 L -5.105469 3.000326 L -5.109375 4.461264 L -5.113281 5.914389 L -5.121094 7.355795 L -5.125 8.785482 L -5.132812 10.207357 L -5.140625 11.609701 L -5.152344 13.000326 L -5.167969 14.367514 L -5.179688 15.719076 L -5.195312 17.051107 L -5.210938 18.355795 L -5.222656 19.640951 L -5.234375 20.898764 L -5.246094 22.129232 L -5.253906 23.332357 L -5.257812 24.508139 L -5.257812 26.765951 L -5.25 27.851889 L -5.242188 28.90267 L -5.230469 29.922201 L -5.21875 30.910482 L -5.203125 31.863607 L -5.1875 32.781576 L -5.171875 33.668295 L -5.15625 34.519857 L -5.144531 35.34017 L -5.132812 36.12142 L -5.125 36.875326 L -5.121094 37.59017 L -5.121094 38.27767 L -5.125 38.926107 L -5.128906 39.547201 L -5.140625 40.133139 L -5.152344 40.691732 L -5.164062 41.219076 L -5.179688 41.71517 L -5.195312 42.180014 L -5.207031 42.62142 L -5.222656 43.031576 L -5.230469 43.418295 L -5.238281 43.77767 L -5.242188 44.113607 L -5.242188 44.71517 L -5.234375 44.980795 L -5.226562 45.226889 L -5.21875 45.457357 L -5.207031 45.664389 L -5.195312 45.855795 L -5.183594 46.02767 L -5.171875 46.187826 L -5.15625 46.328451 L -5.144531 46.461264 L -5.132812 46.574545 L -5.121094 46.680014 L -5.105469 46.773764 L -5.089844 46.859701 L -5.074219 46.93392 L -5.054688 46.99642 L -5.03125 47.055014 L -5.003906 47.105795 L -4.976562 47.148764 L -4.945312 47.187826 L -4.875 47.250326 L -4.839844 47.273764 L -4.804688 47.293295 L -4.773438 47.30892 L -4.746094 47.320639 L -4.722656 47.332357 L -4.703125 47.34017 L -4.6875 47.344076 L -4.679688 47.344076 L -4.667969 47.351889 L -4.554688 47.398764 L -4.3125 47.539389 L -3.921875 47.824545 L -3.375 48.24642 L -2.695312 48.730795 L -1.917969 49.176107 L -1.089844 49.484701 L -0.261719 49.648764 L 0.511719 49.722982 L 1.171875 49.797201 L 1.679688 49.910482 L 2.015625 50.047201 L 2.179688 50.144857 L 2.199219 50.156576 L 2.203125 50.160482 L 2.210938 50.164389 L 2.234375 50.180014 L 2.265625 50.195639 L 2.308594 50.21517 L 2.359375 50.234701 L 2.425781 50.250326 L 2.5 50.258139 L 2.585938 50.254232 L 2.679688 50.234701 L 2.785156 50.203451 L 2.898438 50.148764 L 3.019531 50.078451 L 3.148438 49.988607 L 3.28125 49.875326 L 3.417969 49.74642 L 3.554688 49.597982 L 3.691406 49.43392 L 3.824219 49.254232 L 3.953125 49.066732 L 4.078125 48.867514 L 4.191406 48.660482 L 4.300781 48.445639 L 4.402344 48.230795 L 4.492188 48.008139 L 4.574219 47.785482 L 4.648438 47.562826 L 4.714844 47.332357 L 4.777344 47.101889 L 4.828125 46.863607 L 4.878906 46.617514 L 4.921875 46.367514 L 4.964844 46.101889 L 5 45.828451 L 5.035156 45.539389 L 5.0625 45.230795 L 5.089844 44.906576 L 5.109375 44.562826 L 5.125 44.191732 L 5.136719 43.801107 L 5.144531 43.379232 L 5.144531 42.93392 L 5.140625 42.461264 L 5.136719 41.953451 L 5.125 41.418295 L 5.109375 40.847982 L 5.09375 40.24642 L 5.074219 39.613607 L 5.054688 38.941732 L 5.035156 38.238607 L 5.019531 37.500326 L 5 36.726889 L 4.980469 35.918295 L 4.964844 35.070639 L 4.949219 34.191732 L 4.933594 33.273764 L 4.917969 32.324545 L 4.898438 31.34017 L 4.882812 30.320639 L 4.863281 29.265951 L 4.839844 28.180014 L 4.816406 27.062826 L 4.792969 25.914389 L 4.765625 24.734701 L 4.734375 23.52767 L 4.707031 22.289389 L 4.675781 21.02767 L 4.648438 19.738607 L 4.621094 18.426107 L 4.59375 17.09017 L 4.574219 15.734701 L 4.558594 14.359701 L 4.546875 12.96517 L 4.542969 11.555014 L 4.542969 10.133139 L 4.550781 8.695639 L 4.566406 7.250326 L 4.589844 5.797201 L 4.617188 4.336264 L 4.652344 2.867514 L 4.691406 1.398764 L 4.734375 -0.0699863 L 4.78125 -1.53483 L 4.832031 -2.999674 L 4.878906 -4.460611 L 4.929688 -5.913736 L 4.976562 -7.355143 L 5.019531 -8.78483 L 5.054688 -10.206705 L 5.085938 -11.609049 L 5.109375 -12.999674 L 5.121094 -14.366861 L 5.125 -15.718424 L 5.121094 -17.050455 L 5.109375 -18.355143 L 5.089844 -19.640299 L 5.0625 -20.898111 L 5.027344 -22.12858 L 4.992188 -23.331705 L 4.953125 -24.507486 L 4.914062 -25.652018 L 4.878906 -26.765299 L 4.847656 -27.851236 L 4.820312 -28.902018 L 4.800781 -29.921549 L 4.785156 -30.90983 L 4.777344 -31.862955 L 4.773438 -32.780924 L 4.777344 -33.667643 L 4.789062 -34.519205 L 4.800781 -35.339518 L 4.820312 -36.120768 L 4.839844 -36.874674 L 4.859375 -37.589518 L 4.882812 -38.277018 L 4.90625 -38.925455 L 4.929688 -39.546549 L 4.949219 -40.132486 L 4.972656 -40.69108 L 4.992188 -41.218424 L 5.015625 -41.714518 L 5.035156 -42.179361 L 5.054688 -42.620768 L 5.074219 -43.030924 L 5.09375 -43.417643 L 5.117188 -43.777018 L 5.140625 -44.112955 L 5.164062 -44.425455 L 5.191406 -44.714518 L 5.222656 -44.980143 L 5.25 -45.226236 L 5.285156 -45.456705 L 5.320312 -45.663736 L 5.351562 -45.855143 L 5.386719 -46.027018 L 5.417969 -46.187174 L 5.445312 -46.327799 L 5.46875 -46.460611 L 5.488281 -46.573893 L 5.5 -46.679361 L 5.5 -46.773111 L 5.496094 -46.859049 L 5.480469 -46.933268 L 5.457031 -46.995768 L 5.421875 -47.054361 L 5.378906 -47.105143 L 5.332031 -47.148111 L 5.277344 -47.187174 L 5.214844 -47.218424 L 5.15625 -47.249674 L 5.09375 -47.273111 L 5.03125 -47.292643 L 4.976562 -47.308268 L 4.925781 -47.319986 L 4.882812 -47.331705 L 4.847656 -47.339518 L 4.824219 -47.343424 L 4.8125 -47.343424 L 4.785156 -47.351236 L 4.542969 -47.390299 L 4.003906 -47.464518 L 3.210938 -47.581705 L 2.363281 -47.780924 L 1.691406 -48.12858 L 1.25 -48.62858 L 0.875 -49.210611 L 0.382812 -49.741861 L -0.269531 -50.136393 L -0.972656 -50.394205 L -1.570312 -50.585611 L -1.976562 -50.745768 L -2.175781 -50.84733 L -2.199219 -50.862955 " transform="matrix(1,0,0,1,79,112.40983)"/>
<path style="fill-rule:evenodd;fill:rgb(100%,100%,100%);fill-opacity:1;stroke-width:1;stroke-linecap:butt;stroke-linejoin:bevel;stroke:rgb(50.048876%,50.048876%,50.048876%);stroke-opacity:1;stroke-miterlimit:10;" d="M -11.777344 -24.067059 L -11.796875 -24.063152 L -11.960938 -24.047527 L -12.273438 -24.004559 L -12.695312 -23.934246 L -13.179688 -23.824871 L -13.671875 -23.664715 L -14.121094 -23.434246 L -14.492188 -23.11784 L -14.757812 -22.688152 L -14.917969 -22.125652 L -14.980469 -21.395184 L -14.976562 -20.477215 L -14.929688 -19.33659 L -14.867188 -17.953777 L -14.800781 -16.317059 L -14.746094 -14.422527 L -14.710938 -12.281902 L -14.699219 -9.918621 L -14.71875 -7.371746 L -14.773438 -4.692059 L -14.863281 -1.93034 L -14.984375 0.847004 L -15.125 3.585285 L -15.261719 6.22591 L -15.382812 8.718098 L -15.464844 11.022785 L -15.507812 13.104816 L -15.503906 14.948566 L -15.46875 16.546223 L -15.417969 17.897785 L -15.363281 19.018879 L -15.316406 19.921223 L -15.289062 20.628254 L -15.277344 21.167316 L -15.28125 21.565754 L -15.292969 21.839191 L -15.304688 22.011066 L -15.3125 22.097004 L -15.3125 22.104816 L -15.316406 22.136066 L -15.339844 22.35091 L -15.394531 22.733723 L -15.429688 23.19466 L -15.324219 23.651691 L -14.875 24.054035 L -13.871094 24.362629 L -12.1875 24.565754 L -9.808594 24.679035 L -6.84375 24.729816 L -3.488281 24.776691 L -0.0078125 24.870441 L 3.3125 25.03841 L 6.210938 25.284504 L 8.523438 25.56966 L 10.183594 25.843098 L 11.222656 26.057941 L 11.714844 26.175129 L 11.777344 26.190754 L 11.796875 26.19466 L 11.960938 26.233723 L 12.269531 26.28841 L 12.6875 26.315754 L 13.167969 26.264973 L 13.65625 26.10091 L 14.121094 25.776691 L 14.527344 25.280598 L 14.855469 24.597004 L 15.109375 23.729816 L 15.292969 22.682941 L 15.421875 21.456379 L 15.515625 20.042316 L 15.585938 18.436848 L 15.640625 16.628254 L 15.679688 14.612629 L 15.710938 12.389973 L 15.726562 9.97591 L 15.730469 7.401691 L 15.730469 4.706379 L 15.722656 1.936848 L 15.710938 -0.844402 L 15.695312 -3.58659 L 15.675781 -6.227215 L 15.644531 -8.719402 L 15.609375 -11.02409 L 15.566406 -13.106121 L 15.523438 -14.949871 L 15.484375 -16.547527 L 15.449219 -17.89909 L 15.417969 -19.020184 L 15.386719 -19.922527 L 15.347656 -20.629559 L 15.296875 -21.168621 L 15.234375 -21.567059 L 15.171875 -21.840496 L 15.121094 -22.012371 L 15.089844 -22.098309 L 15.085938 -22.106121 L 15.078125 -22.133465 L 14.996094 -22.320965 L 14.796875 -22.664715 L 14.429688 -23.090496 L 13.800781 -23.52409 L 12.824219 -23.891277 L 11.410156 -24.152996 L 9.5 -24.317059 L 7.101562 -24.406902 L 4.296875 -24.46159 L 1.25 -24.49284 L -1.808594 -24.496746 L -4.65625 -24.465496 L -7.101562 -24.391277 L -9.035156 -24.293621 L -10.425781 -24.192059 L -11.304688 -24.113934 L -11.722656 -24.070965 L -11.777344 -24.067059 " transform="matrix(1,0,0,1,89,251.68034)"/>
<path style="fill-rule:evenodd;fill:rgb(100%,100%,100%);fill-opacity:1;stroke-width:1;stroke-linecap:butt;stroke-linejoin:bevel;stroke:rgb(50.048876%,50.048876%,50.048876%);stroke-opacity:1;stroke-miterlimit:10;" d="M -7.019531 -25.076009 L -7.027344 -25.076009 L -7.09375 -25.087728 L -7.222656 -25.115071 L -7.410156 -25.154134 L -7.644531 -25.208821 L -7.910156 -25.271321 L -8.199219 -25.333821 L -8.488281 -25.384603 L -8.765625 -25.400228 L -9.007812 -25.361165 L -9.214844 -25.25179 L -9.371094 -25.052571 L -9.476562 -24.759603 L -9.539062 -24.365071 L -9.566406 -23.87679 L -9.570312 -23.294759 L -9.566406 -22.622884 L -9.5625 -21.868978 L -9.570312 -21.029134 L -9.59375 -20.107259 L -9.636719 -19.087728 L -9.6875 -17.974446 L -9.746094 -16.755696 L -9.804688 -15.427571 L -9.859375 -13.990071 L -9.910156 -12.443196 L -9.949219 -10.798665 L -9.980469 -9.056478 L -10 -7.240071 L -10.011719 -5.361165 L -10.015625 -3.43929 L -10.003906 -1.490071 L -9.980469 0.459147 L -9.941406 2.388835 L -9.882812 4.283366 L -9.808594 6.12321 L -9.726562 7.892741 L -9.640625 9.572429 L -9.554688 11.15446 L -9.480469 12.627116 L -9.421875 13.986491 L -9.382812 15.224772 L -9.367188 16.34196 L -9.378906 17.338054 L -9.417969 18.21696 L -9.476562 18.982585 L -9.554688 19.642741 L -9.648438 20.201335 L -9.75 20.673991 L -9.855469 21.06071 L -9.953125 21.381022 L -10.042969 21.634929 L -10.121094 21.834147 L -10.179688 21.986491 L -10.222656 22.099772 L -10.253906 22.177897 L -10.269531 22.228679 L -10.277344 22.256022 L -10.28125 22.256022 L -10.285156 22.271647 L -10.3125 22.369304 L -10.332031 22.545085 L -10.285156 22.77946 L -10.070312 23.080241 L -9.589844 23.447429 L -8.765625 23.861491 L -7.5625 24.267741 L -6 24.595866 L -4.144531 24.806804 L -2.101562 24.90446 L -0.0117188 24.931804 L 1.972656 24.93571 L 3.703125 24.970866 L 5.082031 25.056804 L 6.070312 25.193522 L 6.691406 25.338054 L 6.984375 25.431804 L 7.019531 25.443522 L 7.027344 25.447429 L 7.09375 25.470866 L 7.226562 25.525554 L 7.410156 25.611491 L 7.648438 25.724772 L 7.921875 25.865397 L 8.222656 26.013835 L 8.535156 26.15446 L 8.847656 26.256022 L 9.148438 26.283366 L 9.425781 26.21696 L 9.664062 26.025554 L 9.859375 25.709147 L 10.007812 25.259929 L 10.105469 24.68571 L 10.15625 23.99821 L 10.171875 23.21696 L 10.152344 22.345866 L 10.113281 21.400554 L 10.070312 20.384929 L 10.027344 19.287272 L 10.003906 18.111491 L 10 16.845866 L 10.019531 15.486491 L 10.070312 14.025554 L 10.144531 12.463054 L 10.234375 10.806804 L 10.332031 9.06071 L 10.433594 7.240397 L 10.53125 5.357585 L 10.613281 3.43571 L 10.683594 1.486491 L 10.738281 -0.462728 L 10.78125 -2.392415 L 10.816406 -4.286946 L 10.84375 -6.12679 L 10.859375 -7.896321 L 10.867188 -9.576009 L 10.867188 -11.15804 L 10.847656 -12.630696 L 10.808594 -13.990071 L 10.75 -15.228353 L 10.671875 -16.34554 L 10.585938 -17.341634 L 10.492188 -18.22054 L 10.402344 -18.986165 L 10.328125 -19.646321 L 10.273438 -20.204915 L 10.238281 -20.677571 L 10.230469 -21.06429 L 10.242188 -21.384603 L 10.265625 -21.638509 L 10.296875 -21.837728 L 10.332031 -21.990071 L 10.363281 -22.103353 L 10.386719 -22.181478 L 10.402344 -22.232259 L 10.410156 -22.259603 L 10.414062 -22.271321 L 10.425781 -22.365071 L 10.375 -22.560384 L 10.15625 -22.853353 L 9.664062 -23.224446 L 8.839844 -23.615071 L 7.6875 -23.958821 L 6.242188 -24.228353 L 4.558594 -24.415853 L 2.71875 -24.548665 L 0.808594 -24.646321 L -1.058594 -24.728353 L -2.769531 -24.790853 L -4.234375 -24.849446 L -5.386719 -24.904134 L -6.214844 -24.97054 L -6.738281 -25.029134 L -6.988281 -25.068196 L -7.019531 -25.076009 " transform="matrix(1,0,0,1,114,171.454915)"/>
<path style="fill-rule:evenodd;fill:rgb(100%,100%,100%);fill-opacity:1;stroke-width:1;stroke-linecap:butt;stroke-linejoin:bevel;stroke:rgb(50.048876%,50.048876%,50.048876%);stroke-opacity:1;stroke-miterlimit:10;" d="M -2.199219 -23.999348 L -2.203125 -23.999348 L -2.226562 -23.983723 L -2.269531 -23.952473 L -2.339844 -23.905598 L -2.429688 -23.847004 L -2.546875 -23.772785 L -2.691406 -23.682941 L -2.859375 -23.581379 L -3.046875 -23.472004 L -3.253906 -23.347004 L -3.46875 -23.210285 L -3.691406 -23.061848 L -3.910156 -22.901691 L -4.121094 -22.72591 L -4.3125 -22.534504 L -4.480469 -22.323566 L -4.621094 -22.089191 L -4.734375 -21.827473 L -4.820312 -21.530598 L -4.878906 -21.19466 L -4.914062 -20.81966 L -4.933594 -20.393879 L -4.9375 -19.91341 L -4.929688 -19.378254 L -4.917969 -18.776691 L -4.898438 -18.116535 L -4.878906 -17.386066 L -4.863281 -16.593098 L -4.847656 -15.729816 L -4.835938 -14.800129 L -4.828125 -13.804035 L -4.828125 -12.745441 L -4.835938 -11.628254 L -4.855469 -10.460285 L -4.882812 -9.237629 L -4.925781 -7.972004 L -4.976562 -6.667316 L -5.035156 -5.331379 L -5.105469 -3.968098 L -5.1875 -2.589191 L -5.269531 -1.202473 L -5.355469 0.192059 L -5.4375 1.578777 L -5.511719 2.949871 L -5.578125 4.30534 L -5.625 5.633465 L -5.660156 6.926434 L -5.671875 8.184246 L -5.667969 9.395184 L -5.644531 10.55534 L -5.605469 11.664715 L -5.558594 12.715496 L -5.5 13.71159 L -5.441406 14.641277 L -5.386719 15.508465 L -5.335938 16.313152 L -5.296875 17.05534 L -5.273438 17.735027 L -5.265625 18.356121 L -5.277344 18.914715 L -5.3125 19.414715 L -5.367188 19.863934 L -5.441406 20.258465 L -5.539062 20.610027 L -5.652344 20.910809 L -5.777344 21.172527 L -5.914062 21.39909 L -6.050781 21.590496 L -6.1875 21.750652 L -6.316406 21.883465 L -6.4375 21.996746 L -6.539062 22.082684 L -6.625 22.156902 L -6.695312 22.21159 L -6.75 22.254559 L -6.785156 22.281902 L -6.808594 22.301434 L -6.820312 22.313152 L -6.832031 22.320965 L -6.871094 22.39909 L -6.769531 22.578777 L -6.3125 22.891277 L -5.410156 23.352215 L -4.167969 23.918621 L -2.804688 24.496746 L -1.519531 24.981121 L -0.421875 25.281902 L 0.46875 25.375652 L 1.164062 25.285809 L 1.679688 25.102215 L 2.015625 24.914715 L 2.179688 24.797527 L 2.199219 24.781902 L 2.203125 24.781902 L 2.226562 24.762371 L 2.269531 24.731121 L 2.335938 24.676434 L 2.421875 24.606121 L 2.527344 24.516277 L 2.652344 24.406902 L 2.796875 24.277996 L 2.953125 24.129559 L 3.121094 23.96159 L 3.292969 23.777996 L 3.46875 23.578777 L 3.640625 23.360027 L 3.804688 23.129559 L 3.957031 22.879559 L 4.09375 22.613934 L 4.214844 22.328777 L 4.316406 22.020184 L 4.402344 21.684246 L 4.472656 21.317059 L 4.53125 20.910809 L 4.578125 20.46159 L 4.617188 19.965496 L 4.652344 19.414715 L 4.683594 18.80534 L 4.710938 18.133465 L 4.742188 17.39909 L 4.773438 16.598309 L 4.804688 15.735027 L 4.835938 14.801434 L 4.871094 13.80534 L 4.902344 12.750652 L 4.929688 11.633465 L 4.957031 10.46159 L 4.976562 9.238934 L 4.992188 7.973309 L 5 6.668621 L 5 5.332684 L 4.996094 3.969402 L 4.984375 2.590496 L 4.972656 1.203777 L 4.960938 -0.190754 L 4.953125 -1.577473 L 4.957031 -2.948566 L 4.972656 -4.304035 L 5.003906 -5.63216 L 5.054688 -6.925129 L 5.121094 -8.182941 L 5.207031 -9.393879 L 5.300781 -10.554035 L 5.40625 -11.66341 L 5.507812 -12.714191 L 5.605469 -13.710285 L 5.6875 -14.639973 L 5.753906 -15.50716 L 5.792969 -16.311848 L 5.804688 -17.054035 L 5.792969 -17.733723 L 5.761719 -18.354816 L 5.707031 -18.91341 L 5.648438 -19.41341 L 5.582031 -19.862629 L 5.519531 -20.25716 L 5.464844 -20.608723 L 5.421875 -20.909504 L 5.394531 -21.171223 L 5.378906 -21.397785 L 5.375 -21.589191 L 5.382812 -21.749348 L 5.398438 -21.88216 L 5.414062 -21.995441 L 5.433594 -22.081379 L 5.453125 -22.155598 L 5.46875 -22.210285 L 5.484375 -22.253254 L 5.492188 -22.280598 L 5.5 -22.300129 L 5.503906 -22.311848 L 5.507812 -22.31966 L 5.503906 -22.397785 L 5.386719 -22.56966 L 5.019531 -22.854816 L 4.34375 -23.218098 L 3.414062 -23.597004 L 2.355469 -23.925129 L 1.304688 -24.171223 L 0.34375 -24.327473 L -0.488281 -24.393879 L -1.167969 -24.362629 L -1.679688 -24.253254 L -2.015625 -24.112629 L -2.179688 -24.014973 L -2.199219 -23.999348 " transform="matrix(1,0,0,1,79,29.31966)"/>
<path style="fill-rule:evenodd;fill:rgb(100%,100%,100%);fill-opacity:1;stroke-width:1;stroke-linecap:butt;stroke-linejoin:bevel;stroke:rgb(50.048876%,50.048876%,50.048876%);stroke-opacity:1;stroke-miterlimit:10;" d="M -2.199219 -4.248862 L -2.226562 -4.217612 L -2.410156 -3.951987 L -2.75 -3.385581 L -3.179688 -2.588706 L -3.648438 -1.791831 L -4.125 -1.237144 L -4.582031 -0.944175 L -4.996094 -0.7098 L -5.308594 -0.315269 L -5.445312 0.2902 L -5.355469 0.9777 L -5.070312 1.57145 L -4.722656 1.9777 L -4.488281 2.176919 L -4.457031 2.200356 L -4.429688 2.223794 L -4.222656 2.387856 L -3.851562 2.7277 L -3.382812 3.215981 L -2.863281 3.770669 L -2.296875 4.25895 L -1.667969 4.57145 L -0.964844 4.673013 L -0.214844 4.641763 L 0.523438 4.598794 L 1.171875 4.641763 L 1.679688 4.7902 L 2.015625 4.9777 L 2.179688 5.106606 L 2.199219 5.126138 L 2.222656 5.141763 L 2.382812 5.247231 L 2.703125 5.294106 L 3.171875 5.075356 L 3.746094 4.481606 L 4.347656 3.555825 L 4.855469 2.462075 L 5.160156 1.360513 L 5.242188 0.368325 L 5.175781 -0.479331 L 5.105469 -1.166831 L 5.128906 -1.67855 L 5.242188 -2.014487 L 5.34375 -2.17855 L 5.359375 -2.198081 L 5.378906 -2.225425 L 5.558594 -2.409019 L 5.976562 -2.756675 L 6.496094 -3.229331 L 6.691406 -3.795737 L 6.140625 -4.3973 L 4.792969 -4.932456 L 3.03125 -5.30355 L 1.351562 -5.451987 L 0.0273438 -5.3973 L -0.917969 -5.174644 L -1.566406 -4.842612 L -1.976562 -4.498862 L -2.175781 -4.280112 L -2.199219 -4.248862 " transform="matrix(1,0,0,1,109,265.725425)"/>
<path style="fill-rule:evenodd;fill:rgb(100%,100%,100%);fill-opacity:1;stroke-width:1;stroke-linecap:butt;stroke-linejoin:bevel;stroke:rgb(50.048876%,50.048876%,50.048876%);stroke-opacity:1;stroke-miterlimit:10;" d="M -7.019531 -9.037272 L -7.050781 -9.017741 L -7.289062 -8.877116 L -7.738281 -8.619304 L -8.328125 -8.263835 L -8.957031 -7.818522 L -9.511719 -7.244304 L -9.890625 -6.470866 L -10.066406 -5.431804 L -10.074219 -4.095866 L -9.992188 -2.490397 L -9.902344 -0.71696 L -9.851562 1.087728 L -9.839844 2.779134 L -9.832031 4.236165 L -9.800781 5.388509 L -9.734375 6.216634 L -9.660156 6.740071 L -9.609375 6.990071 L -9.601562 7.021321 L -9.59375 7.056478 L -9.523438 7.333821 L -9.351562 7.826009 L -9.050781 8.43929 L -8.617188 9.052571 L -8.054688 9.552571 L -7.351562 9.880696 L -6.441406 10.036946 L -5.25 10.083821 L -3.726562 10.091634 L -1.914062 10.103353 L 0.0546875 10.115071 L 1.988281 10.087728 L 3.707031 9.997884 L 5.082031 9.849446 L 6.070312 9.685384 L 6.691406 9.548665 L 6.984375 9.474446 L 7.019531 9.462728 L 7.054688 9.454915 L 7.332031 9.37679 L 7.824219 9.216634 L 8.429688 8.966634 L 9.027344 8.615071 L 9.503906 8.146321 L 9.796875 7.497884 L 9.917969 6.599446 L 9.914062 5.37679 L 9.855469 3.806478 L 9.792969 1.954915 L 9.746094 -0.0411787 L 9.703125 -1.982585 L 9.640625 -3.705241 L 9.542969 -5.080241 L 9.414062 -6.068522 L 9.285156 -6.689616 L 9.199219 -6.982585 L 9.191406 -7.017741 L 9.179688 -7.048991 L 9.101562 -7.283366 L 8.933594 -7.697429 L 8.65625 -8.209147 L 8.238281 -8.736491 L 7.628906 -9.209147 L 6.777344 -9.588054 L 5.640625 -9.861491 L 4.21875 -10.037272 L 2.550781 -10.134929 L 0.742188 -10.162272 L -1.078125 -10.131022 L -2.777344 -10.045085 L -4.234375 -9.888835 L -5.386719 -9.670085 L -6.214844 -9.420085 L -6.738281 -9.193522 L -6.988281 -9.056804 L -7.019531 -9.037272 " transform="matrix(1,0,0,1,114,214.545085)"/>
<path style="fill-rule:evenodd;fill:rgb(100%,100%,100%);fill-opacity:1;stroke-width:1;stroke-linecap:butt;stroke-linejoin:bevel;stroke:rgb(50.048876%,50.048876%,50.048876%);stroke-opacity:1;stroke-miterlimit:10;" d="M -11.777344 -14.578125 L -11.835938 -14.566406 L -12.296875 -14.464844 L -13.117188 -14.234375 L -14.105469 -13.847656 L -15.027344 -13.300781 L -15.671875 -12.59375 L -15.953125 -11.667969 L -15.9375 -10.382812 L -15.757812 -8.566406 L -15.542969 -6.136719 L -15.347656 -3.164062 L -15.171875 0.109375 L -15.019531 3.34375 L -14.90625 6.21875 L -14.847656 8.523438 L -14.835938 10.183594 L -14.855469 11.222656 L -14.875 11.714844 L -14.878906 11.777344 L -14.882812 11.835938 L -14.90625 12.296875 L -14.960938 13.117188 L -15.007812 14.121094 L -14.921875 15.0625 L -14.511719 15.722656 L -13.578125 15.992188 L -11.972656 15.898438 L -9.675781 15.59375 L -6.769531 15.265625 L -3.457031 15.042969 L 0.00390625 14.964844 L 3.3125 15.007812 L 6.210938 15.121094 L 8.523438 15.273438 L 10.183594 15.425781 L 11.222656 15.554688 L 11.714844 15.632812 L 11.777344 15.640625 L 11.828125 15.648438 L 12.210938 15.695312 L 12.855469 15.6875 L 13.582031 15.46875 L 14.21875 14.871094 L 14.667969 13.785156 L 14.910156 12.160156 L 14.988281 10.007812 L 14.960938 7.394531 L 14.898438 4.4375 L 14.855469 1.308594 L 14.867188 -1.789062 L 14.957031 -4.652344 L 15.109375 -7.101562 L 15.285156 -9.035156 L 15.441406 -10.425781 L 15.558594 -11.304688 L 15.613281 -11.722656 L 15.621094 -11.777344 L 15.628906 -11.835938 L 15.695312 -12.296875 L 15.800781 -13.117188 L 15.871094 -14.109375 L 15.75 -15.019531 L 15.242188 -15.617188 L 14.148438 -15.789062 L 12.367188 -15.585938 L 9.910156 -15.199219 L 6.890625 -14.847656 L 3.507812 -14.675781 L 0.0117188 -14.691406 L -3.308594 -14.800781 L -6.210938 -14.886719 L -8.523438 -14.882812 L -10.183594 -14.792969 L -11.222656 -14.671875 L -11.714844 -14.589844 L -11.777344 -14.578125 " transform="matrix(1,0,0,1,89,185.5)"/>
<path style="fill-rule:evenodd;fill:rgb(100%,100%,100%);fill-opacity:1;stroke-width:1;stroke-linecap:butt;stroke-linejoin:bevel;stroke:rgb(50.048876%,50.048876%,50.048876%);stroke-opacity:1;stroke-miterlimit:10;" d="M -32.203125 -15.507812 L -32.21875 -15.511719 L -32.34375 -15.523438 L -32.566406 -15.464844 L -32.855469 -15.203125 L -33.167969 -14.59375 L -33.484375 -13.535156 L -33.78125 -11.964844 L -34.058594 -9.875 L -34.3125 -7.316406 L -34.535156 -4.402344 L -34.722656 -1.292969 L -34.882812 1.796875 L -35.015625 4.652344 L -35.132812 7.101562 L -35.234375 9.035156 L -35.324219 10.425781 L -35.390625 11.304688 L -35.429688 11.722656 L -35.433594 11.777344 L -35.4375 11.789062 L -35.445312 11.902344 L -35.46875 12.117188 L -35.5 12.429688 L -35.542969 12.820312 L -35.585938 13.269531 L -35.621094 13.746094 L -35.628906 14.226562 L -35.597656 14.679688 L -35.503906 15.078125 L -35.332031 15.398438 L -35.066406 15.632812 L -34.695312 15.773438 L -34.210938 15.824219 L -33.613281 15.808594 L -32.898438 15.738281 L -32.0625 15.640625 L -31.101562 15.535156 L -30.007812 15.441406 L -28.773438 15.375 L -27.390625 15.332031 L -25.847656 15.316406 L -24.136719 15.324219 L -22.253906 15.34375 L -20.199219 15.363281 L -17.980469 15.378906 L -15.605469 15.382812 L -13.09375 15.375 L -10.46875 15.355469 L -7.75 15.324219 L -4.96875 15.292969 L -2.15625 15.261719 L 0.664062 15.242188 L 3.460938 15.230469 L 6.203125 15.234375 L 8.863281 15.25 L 11.421875 15.277344 L 13.851562 15.304688 L 16.140625 15.332031 L 18.273438 15.347656 L 20.238281 15.34375 L 22.027344 15.316406 L 23.644531 15.261719 L 25.085938 15.183594 L 26.359375 15.085938 L 27.464844 14.976562 L 28.421875 14.867188 L 29.230469 14.761719 L 29.914062 14.667969 L 30.476562 14.589844 L 30.933594 14.53125 L 31.300781 14.488281 L 31.589844 14.457031 L 31.8125 14.441406 L 31.976562 14.429688 L 32.089844 14.425781 L 32.164062 14.421875 L 32.21875 14.421875 L 32.351562 14.40625 L 32.613281 14.328125 L 32.996094 14.09375 L 33.457031 13.59375 L 33.925781 12.71875 L 34.328125 11.363281 L 34.601562 9.488281 L 34.734375 7.101562 L 34.753906 4.296875 L 34.714844 1.253906 L 34.664062 -1.808594 L 34.617188 -4.65625 L 34.578125 -7.101562 L 34.527344 -9.035156 L 34.464844 -10.425781 L 34.402344 -11.304688 L 34.363281 -11.722656 L 34.359375 -11.777344 L 34.359375 -11.789062 L 34.347656 -11.902344 L 34.320312 -12.117188 L 34.28125 -12.429688 L 34.222656 -12.820312 L 34.140625 -13.265625 L 34.035156 -13.742188 L 33.90625 -14.21875 L 33.75 -14.667969 L 33.5625 -15.0625 L 33.347656 -15.378906 L 33.101562 -15.609375 L 32.808594 -15.753906 L 32.460938 -15.816406 L 32.042969 -15.808594 L 31.539062 -15.753906 L 30.929688 -15.671875 L 30.1875 -15.578125 L 29.300781 -15.492188 L 28.246094 -15.417969 L 27.011719 -15.371094 L 25.585938 -15.347656 L 23.960938 -15.34375 L 22.140625 -15.355469 L 20.128906 -15.378906 L 17.9375 -15.40625 L 15.582031 -15.433594 L 13.082031 -15.457031 L 10.460938 -15.472656 L 7.75 -15.480469 L 4.96875 -15.480469 L 2.152344 -15.472656 L -0.664062 -15.460938 L -3.460938 -15.441406 L -6.203125 -15.421875 L -8.863281 -15.394531 L -11.421875 -15.367188 L -13.851562 -15.332031 L -16.140625 -15.292969 L -18.273438 -15.25 L -20.238281 -15.207031 L -22.027344 -15.164062 L -23.644531 -15.125 L -25.085938 -15.097656 L -26.359375 -15.085938 L -27.464844 -15.089844 L -28.421875 -15.109375 L -29.230469 -15.144531 L -29.914062 -15.1875 L -30.476562 -15.238281 L -30.933594 -15.289062 L -31.300781 -15.339844 L -31.589844 -15.386719 L -31.8125 -15.425781 L -31.976562 -15.457031 L -32.089844 -15.484375 L -32.164062 -15.5 L -32.199219 -15.507812 L -32.203125 -15.507812 " transform="matrix(1,0,0,1,39,140.5)"/>
<path style="fill-rule:evenodd;fill:rgb(100%,100%,100%);fill-opacity:1;stroke-width:1;stroke-linecap:butt;stroke-linejoin:bevel;stroke:rgb(50.048876%,50.048876%,50.048876%);stroke-opacity:1;stroke-miterlimit:10;" d="M -12.230469 -10.510255 L -12.242188 -10.506349 L -12.355469 -10.467286 L -12.597656 -10.33838 L -12.96875 -10.041505 L -13.445312 -9.502442 L -13.964844 -8.670411 L -14.457031 -7.541505 L -14.855469 -6.135255 L -15.140625 -4.49463 L -15.320312 -2.686036 L -15.417969 -0.795411 L -15.46875 1.063964 L -15.476562 2.774901 L -15.460938 4.235839 L -15.425781 5.388183 L -15.382812 6.216308 L -15.347656 6.739745 L -15.324219 6.989745 L -15.324219 7.020995 L -15.320312 7.03662 L -15.3125 7.145995 L -15.289062 7.353026 L -15.253906 7.645995 L -15.195312 8.001464 L -15.105469 8.392089 L -14.96875 8.794433 L -14.765625 9.177245 L -14.480469 9.524901 L -14.109375 9.81787 L -13.632812 10.040526 L -13.054688 10.188964 L -12.363281 10.267089 L -11.558594 10.274901 L -10.632812 10.22412 L -9.578125 10.126464 L -8.394531 10.00537 L -7.082031 9.876464 L -5.652344 9.763183 L -4.121094 9.677245 L -2.519531 9.638183 L -0.878906 9.642089 L 0.761719 9.688964 L 2.363281 9.763183 L 3.890625 9.84912 L 5.316406 9.931151 L 6.613281 9.989745 L 7.765625 10.017089 L 8.769531 10.009276 L 9.617188 9.966308 L 10.316406 9.899901 L 10.882812 9.813964 L 11.324219 9.712401 L 11.65625 9.606933 L 11.902344 9.501464 L 12.070312 9.407714 L 12.171875 9.337401 L 12.222656 9.298339 L 12.230469 9.294433 L 12.246094 9.282714 L 12.367188 9.173339 L 12.578125 8.935058 L 12.832031 8.560058 L 13.089844 8.06787 L 13.332031 7.501464 L 13.554688 6.856933 L 13.761719 6.063964 L 13.949219 5.001464 L 14.09375 3.591308 L 14.183594 1.853026 L 14.226562 -0.0766612 L 14.261719 -1.99463 L 14.34375 -3.705567 L 14.515625 -5.080567 L 14.757812 -6.068849 L 15.003906 -6.689942 L 15.15625 -6.982911 L 15.175781 -7.018067 L 15.1875 -7.033692 L 15.253906 -7.143067 L 15.394531 -7.350099 L 15.617188 -7.639161 L 15.910156 -7.982911 L 16.230469 -8.350099 L 16.519531 -8.705567 L 16.691406 -9.014161 L 16.667969 -9.248536 L 16.394531 -9.40088 L 15.859375 -9.479005 L 15.066406 -9.490724 L 14.0625 -9.459474 L 12.898438 -9.408692 L 11.621094 -9.346192 L 10.257812 -9.291505 L 8.832031 -9.248536 L 7.34375 -9.229005 L 5.796875 -9.236817 L 4.195312 -9.279786 L 2.554688 -9.357911 L 0.894531 -9.471192 L -0.753906 -9.607911 L -2.359375 -9.764161 L -3.890625 -9.924317 L -5.316406 -10.080567 L -6.613281 -10.225099 L -7.765625 -10.350099 L -8.769531 -10.451661 L -9.617188 -10.529786 L -10.316406 -10.580567 L -10.882812 -10.604005 L -11.324219 -10.604005 L -11.65625 -10.58838 L -11.902344 -10.564942 L -12.070312 -10.541505 L -12.171875 -10.521974 L -12.222656 -10.510255 L -12.230469 -10.510255 " transform="matrix(1,0,0,1,119,242.635255)"/>
<path style="fill-rule:evenodd;fill:rgb(100%,100%,100%);fill-opacity:1;stroke-width:1;stroke-linecap:butt;stroke-linejoin:bevel;stroke:rgb(50.048876%,50.048876%,50.048876%);stroke-opacity:1;stroke-miterlimit:10;" d="M -17.296875 -4.411946 L -17.308594 -4.411946 L -17.398438 -4.392415 L -17.601562 -4.290853 L -17.933594 -4.021321 L -18.367188 -3.53304 L -18.835938 -2.849446 L -19.253906 -2.025228 L -19.574219 -1.146321 L -19.785156 -0.286946 L -19.910156 0.502116 L -19.976562 1.170085 L -20.011719 1.677897 L -20.023438 2.013835 L -20.027344 2.177897 L -20.03125 2.197429 L -20.03125 2.228679 L -20.023438 2.287272 L -20.011719 2.369304 L -19.976562 2.482585 L -19.917969 2.619304 L -19.824219 2.775554 L -19.6875 2.951335 L -19.507812 3.134929 L -19.285156 3.322429 L -19.019531 3.506022 L -18.710938 3.681804 L -18.371094 3.838054 L -17.996094 3.978679 L -17.589844 4.103679 L -17.152344 4.205241 L -16.675781 4.291179 L -16.160156 4.369304 L -15.59375 4.43571 L -14.976562 4.49821 L -14.300781 4.556804 L -13.554688 4.619304 L -12.738281 4.68571 L -11.851562 4.74821 L -10.886719 4.814616 L -9.851562 4.87321 L -8.75 4.927897 L -7.582031 4.974772 L -6.363281 5.013835 L -5.09375 5.045085 L -3.789062 5.068522 L -2.457031 5.088054 L -1.109375 5.107585 L 0.242188 5.131022 L 1.585938 5.162272 L 2.910156 5.193522 L 4.207031 5.224772 L 5.460938 5.256022 L 6.667969 5.283366 L 7.820312 5.298991 L 8.910156 5.302897 L 9.929688 5.287272 L 10.875 5.259929 L 11.75 5.213054 L 12.542969 5.158366 L 13.265625 5.095866 L 13.910156 5.033366 L 14.480469 4.978679 L 14.984375 4.931804 L 15.421875 4.900554 L 15.796875 4.884929 L 16.113281 4.888835 L 16.382812 4.908366 L 16.605469 4.939616 L 16.785156 4.978679 L 16.933594 5.021647 L 17.046875 5.064616 L 17.136719 5.103679 L 17.203125 5.134929 L 17.296875 5.181804 L 17.308594 5.18571 L 17.394531 5.201335 L 17.582031 5.12321 L 17.863281 4.81071 L 18.222656 4.193522 L 18.59375 3.314616 L 18.925781 2.302897 L 19.171875 1.27946 L 19.320312 0.334147 L 19.382812 -0.493978 L 19.382812 -1.169759 L 19.351562 -1.681478 L 19.304688 -2.017415 L 19.277344 -2.181478 L 19.273438 -2.201009 L 19.269531 -2.204915 L 19.265625 -2.236165 L 19.25 -2.294759 L 19.230469 -2.380696 L 19.199219 -2.490071 L 19.15625 -2.622884 L 19.097656 -2.775228 L 19.023438 -2.943196 L 18.925781 -3.122884 L 18.8125 -3.318196 L 18.671875 -3.521321 L 18.507812 -3.728353 L 18.316406 -3.93929 L 18.09375 -4.146321 L 17.839844 -4.341634 L 17.550781 -4.517415 L 17.222656 -4.669759 L 16.84375 -4.794759 L 16.414062 -4.888509 L 15.921875 -4.954915 L 15.359375 -4.990071 L 14.722656 -5.005696 L 14.003906 -5.005696 L 13.199219 -4.993978 L 12.308594 -4.986165 L 11.328125 -4.974446 L 10.265625 -4.97054 L 9.125 -4.97054 L 7.914062 -4.974446 L 6.636719 -4.986165 L 5.308594 -5.00179 L 3.9375 -5.025228 L 2.539062 -5.052571 L 1.125 -5.087728 L -0.289062 -5.12679 L -1.695312 -5.165853 L -3.078125 -5.201009 L -4.425781 -5.236165 L -5.722656 -5.259603 L -6.96875 -5.275228 L -8.148438 -5.28304 L -9.257812 -5.279134 L -10.289062 -5.259603 L -11.242188 -5.232259 L -12.113281 -5.193196 L -12.902344 -5.138509 L -13.605469 -5.076009 L -14.234375 -5.00179 L -14.785156 -4.919759 L -15.261719 -4.837728 L -15.671875 -4.755696 L -16.019531 -4.673665 L -16.3125 -4.603353 L -16.550781 -4.544759 L -16.75 -4.497884 L -16.90625 -4.462728 L -17.03125 -4.43929 L -17.128906 -4.427571 L -17.199219 -4.419759 L -17.25 -4.415853 L -17.28125 -4.411946 L -17.296875 -4.411946 " transform="matrix(1,0,0,1,144,171.454915)"/>
<path style="fill-rule:evenodd;fill:rgb(100%,100%,100%);fill-opacity:1;stroke-width:1;stroke-linecap:butt;stroke-linejoin:bevel;stroke:rgb(50.048876%,50.048876%,50.048876%);stroke-opacity:1;stroke-miterlimit:10;" d="M -7.019531 -14.948893 L -7.035156 -14.952799 L -7.144531 -14.976236 L -7.351562 -15.030924 L -7.644531 -15.109049 L -7.996094 -15.210611 L -8.382812 -15.312174 L -8.769531 -15.374674 L -9.132812 -15.355143 L -9.4375 -15.210611 L -9.671875 -14.913736 L -9.820312 -14.444986 L -9.886719 -13.804361 L -9.882812 -13.007486 L -9.820312 -12.073893 L -9.730469 -11.015299 L -9.636719 -9.843424 L -9.554688 -8.56608 L -9.5 -7.183268 L -9.472656 -5.706705 L -9.476562 -4.152018 L -9.496094 -2.53483 L -9.53125 -0.886393 L -9.570312 0.758139 L -9.617188 2.363607 L -9.671875 3.890951 L -9.722656 5.316732 L -9.773438 6.613607 L -9.808594 7.765951 L -9.820312 8.769857 L -9.792969 9.617514 L -9.71875 10.316732 L -9.585938 10.883139 L -9.398438 11.324545 L -9.171875 11.656576 L -8.925781 11.90267 L -8.699219 12.070639 L -8.523438 12.172201 L -8.429688 12.222982 L -8.414062 12.230795 L -8.386719 12.242514 L -8.179688 12.351889 L -7.832031 12.55892 L -7.421875 12.84017 L -7 13.164389 L -6.535156 13.476889 L -5.933594 13.738607 L -5.074219 13.926107 L -3.890625 14.035482 L -2.394531 14.097982 L -0.679688 14.140951 L 1.101562 14.18392 L 2.78125 14.219076 L 4.234375 14.238607 L 5.386719 14.222982 L 6.214844 14.18392 L 6.738281 14.133139 L 6.988281 14.097982 L 7.019531 14.094076 L 7.035156 14.09017 L 7.132812 14.074545 L 7.316406 14.035482 L 7.570312 13.972982 L 7.867188 13.875326 L 8.1875 13.730795 L 8.515625 13.539389 L 8.835938 13.289389 L 9.140625 12.969076 L 9.429688 12.578451 L 9.691406 12.097982 L 9.917969 11.519857 L 10.09375 10.832357 L 10.210938 10.023764 L 10.261719 9.082357 L 10.238281 8.012045 L 10.15625 6.812826 L 10.03125 5.49642 L 9.882812 4.082357 L 9.738281 2.597982 L 9.613281 1.070639 L 9.527344 -0.468424 L 9.480469 -1.984049 L 9.476562 -3.444986 L 9.503906 -4.823893 L 9.558594 -6.09733 L 9.621094 -7.249674 L 9.679688 -8.269205 L 9.71875 -9.155924 L 9.730469 -9.902018 L 9.703125 -10.519205 L 9.640625 -11.019205 L 9.539062 -11.413736 L 9.414062 -11.710611 L 9.285156 -11.929361 L 9.164062 -12.081705 L 9.070312 -12.179361 L 9.019531 -12.22233 L 8.996094 -12.245768 L 8.835938 -12.366861 L 8.488281 -12.577799 L 7.949219 -12.831705 L 7.292969 -13.093424 L 6.632812 -13.335611 L 6.023438 -13.558268 L 5.378906 -13.773111 L 4.53125 -13.980143 L 3.324219 -14.175455 L 1.730469 -14.351236 L -0.121094 -14.484049 L -2.007812 -14.581705 L -3.710938 -14.652018 L -5.082031 -14.72233 L -6.070312 -14.804361 L -6.691406 -14.886393 L -6.984375 -14.94108 L -7.019531 -14.948893 " transform="matrix(1,0,0,1,94,112.40983)"/>
</g>
</svg>
