<?xml version="1.0" encoding="UTF-8"?>
<svg xmlns="http://www.w3.org/2000/svg" xmlns:xlink="http://www.w3.org/1999/xlink" width="168.472136pt" height="248.472136pt" viewBox="0 0 168.472136 248.472136" version="1.1">
<g id="surface6403">
<path style="fill-rule:evenodd;fill:rgb(100%,100%,100%);fill-opacity:1;stroke-width:1;stroke-linecap:butt;stroke-linejoin:bevel;stroke:rgb(50.048876%,50.048876%,50.048876%);stroke-opacity:1;stroke-miterlimit:10;" d="M -2.199219 -50.863281 L -2.203125 -50.863281 L -2.210938 -50.871094 L -2.234375 -50.882812 L -2.265625 -50.894531 L -2.308594 -50.910156 L -2.359375 -50.925781 L -2.421875 -50.929688 L -2.496094 -50.929688 L -2.578125 -50.910156 L -2.671875 -50.878906 L -2.773438 -50.828125 L -2.878906 -50.753906 L -2.996094 -50.65625 L -3.113281 -50.539062 L -3.238281 -50.398438 L -3.363281 -50.234375 L -3.488281 -50.054688 L -3.613281 -49.855469 L -3.738281 -49.644531 L -3.855469 -49.417969 L -3.972656 -49.183594 L -4.082031 -48.941406 L -4.1875 -48.699219 L -4.28125 -48.449219 L -4.371094 -48.203125 L -4.449219 -47.953125 L -4.519531 -47.703125 L -4.578125 -47.453125 L -4.628906 -47.199219 L -4.667969 -46.945312 L -4.699219 -46.6875 L -4.71875 -46.421875 L -4.734375 -46.148438 L -4.738281 -45.863281 L -4.738281 -45.566406 L -4.734375 -45.253906 L -4.722656 -44.925781 L -4.710938 -44.574219 L -4.699219 -44.203125 L -4.683594 -43.808594 L -4.671875 -43.386719 L -4.664062 -42.9375 L -4.652344 -42.460938 L -4.648438 -41.957031 L -4.644531 -41.417969 L -4.640625 -40.851562 L -4.640625 -39.613281 L -4.644531 -38.945312 L -4.644531 -35.917969 L -4.640625 -35.070312 L -4.640625 -34.191406 L -4.636719 -33.273438 L -4.632812 -32.324219 L -4.628906 -31.339844 L -4.625 -30.320312 L -4.625 -28.179688 L -4.632812 -27.0625 L -4.636719 -25.914062 L -4.648438 -24.734375 L -4.664062 -23.527344 L -4.683594 -22.289062 L -4.703125 -21.027344 L -4.730469 -19.738281 L -4.757812 -18.425781 L -4.789062 -17.089844 L -4.824219 -15.734375 L -4.855469 -14.359375 L -4.890625 -12.964844 L -4.925781 -11.554688 L -4.957031 -10.132812 L -4.984375 -8.695312 L -5.011719 -7.25 L -5.035156 -5.796875 L -5.054688 -4.335938 L -5.085938 -1.398438 L -5.09375 0.0703125 L -5.101562 1.535156 L -5.105469 3 L -5.109375 4.460938 L -5.113281 5.914062 L -5.121094 7.355469 L -5.125 8.785156 L -5.132812 10.207031 L -5.140625 11.609375 L -5.152344 13 L -5.167969 14.367188 L -5.179688 15.71875 L -5.195312 17.050781 L -5.210938 18.355469 L -5.222656 19.640625 L -5.234375 20.898438 L -5.246094 22.128906 L -5.253906 23.332031 L -5.257812 24.507812 L -5.257812 26.765625 L -5.25 27.851562 L -5.242188 28.902344 L -5.230469 29.921875 L -5.21875 30.910156 L -5.203125 31.863281 L -5.1875 32.78125 L -5.171875 33.667969 L -5.15625 34.519531 L -5.144531 35.339844 L -5.132812 36.121094 L -5.125 36.875 L -5.121094 37.589844 L -5.121094 38.277344 L -5.125 38.925781 L -5.128906 39.546875 L -5.140625 40.132812 L -5.152344 40.691406 L -5.164062 41.21875 L -5.179688 41.714844 L -5.195312 42.179688 L -5.207031 42.621094 L -5.222656 43.03125 L -5.230469 43.417969 L -5.238281 43.777344 L -5.242188 44.113281 L -5.242188 44.714844 L -5.234375 44.980469 L -5.226562 45.226562 L -5.21875 45.457031 L -5.207031 45.664062 L -5.195312 45.855469 L -5.183594 46.027344 L -5.171875 46.1875 L -5.15625 46.328125 L -5.144531 46.460938 L -5.132812 46.574219 L -5.121094 46.679688 L -5.105469 46.773438 L -5.089844 46.859375 L -5.074219 46.933594 L -5.054688 46.996094 L -5.03125 47.054688 L -5.003906 47.105469 L -4.976562 47.148438 L -4.945312 47.1875 L -4.875 47.25 L -4.839844 47.273438 L -4.804688 47.292969 L -4.773438 47.308594 L -4.746094 47.320312 L -4.722656 47.332031 L -4.703125 47.339844 L -4.6875 47.34375 L -4.679688 47.34375 L -4.667969 47.351562 L -4.554688 47.398438 L -4.3125 47.539062 L -3.921875 47.824219 L -3.375 48.246094 L -2.695312 48.730469 L -1.917969 49.175781 L -1.089844 49.484375 L -0.261719 49.648438 L 0.511719 49.722656 L 1.171875 49.796875 L 1.679688 49.910156 L 2.015625 50.046875 L 2.179688 50.144531 L 2.199219 50.15625 L 2.203125 50.160156 L 2.210938 50.164062 L 2.234375 50.179688 L 2.265625 50.195312 L 2.308594 50.214844 L 2.359375 50.234375 L 2.425781 50.25 L 2.5 50.257812 L 2.585938 50.253906 L 2.679688 50.234375 L 2.785156 50.203125 L 2.898438 50.148438 L 3.019531 50.078125 L 3.148438 49.988281 L 3.28125 49.875 L 3.417969 49.746094 L 3.554688 49.597656 L 3.691406 49.433594 L 3.824219 49.253906 L 3.953125 49.066406 L 4.078125 48.867188 L 4.191406 48.660156 L 4.300781 48.445312 L 4.402344 48.230469 L 4.492188 48.007812 L 4.574219 47.785156 L 4.648438 47.5625 L 4.714844 47.332031 L 4.777344 47.101562 L 4.828125 46.863281 L 4.878906 46.617188 L 4.921875 46.367188 L 4.964844 46.101562 L 5 45.828125 L 5.035156 45.539062 L 5.0625 45.230469 L 5.089844 44.90625 L 5.109375 44.5625 L 5.125 44.191406 L 5.136719 43.800781 L 5.144531 43.378906 L 5.144531 42.933594 L 5.140625 42.460938 L 5.136719 41.953125 L 5.125 41.417969 L 5.109375 40.847656 L 5.09375 40.246094 L 5.074219 39.613281 L 5.054688 38.941406 L 5.035156 38.238281 L 5.019531 37.5 L 5 36.726562 L 4.980469 35.917969 L 4.964844 35.070312 L 4.949219 34.191406 L 4.933594 33.273438 L 4.917969 32.324219 L 4.898438 31.339844 L 4.882812 30.320312 L 4.863281 29.265625 L 4.839844 28.179688 L 4.816406 27.0625 L 4.792969 25.914062 L 4.765625 24.734375 L 4.734375 23.527344 L 4.707031 22.289062 L 4.675781 21.027344 L 4.648438 19.738281 L 4.621094 18.425781 L 4.59375 17.089844 L 4.574219 15.734375 L 4.558594 14.359375 L 4.546875 12.964844 L 4.542969 11.554688 L 4.542969 10.132812 L 4.550781 8.695312 L 4.566406 7.25 L 4.589844 5.796875 L 4.617188 4.335938 L 4.652344 2.867188 L 4.691406 1.398438 L 4.734375 -0.0703125 L 4.78125 -1.535156 L 4.832031 -3 L 4.878906 -4.460938 L 4.929688 -5.914062 L 4.976562 -7.355469 L 5.019531 -8.785156 L 5.054688 -10.207031 L 5.085938 -11.609375 L 5.109375 -13 L 5.121094 -14.367188 L 5.125 -15.71875 L 5.121094 -17.050781 L 5.109375 -18.355469 L 5.089844 -19.640625 L 5.0625 -20.898438 L 5.027344 -22.128906 L 4.992188 -23.332031 L 4.953125 -24.507812 L 4.914062 -25.652344 L 4.878906 -26.765625 L 4.847656 -27.851562 L 4.820312 -28.902344 L 4.800781 -29.921875 L 4.785156 -30.910156 L 4.777344 -31.863281 L 4.773438 -32.78125 L 4.777344 -33.667969 L 4.789062 -34.519531 L 4.800781 -35.339844 L 4.820312 -36.121094 L 4.839844 -36.875 L 4.859375 -37.589844 L 4.882812 -38.277344 L 4.90625 -38.925781 L 4.929688 -39.546875 L 4.949219 -40.132812 L 4.972656 -40.691406 L 4.992188 -41.21875 L 5.015625 -41.714844 L 5.035156 -42.179688 L 5.054688 -42.621094 L 5.074219 -43.03125 L 5.09375 -43.417969 L 5.117188 -43.777344 L 5.140625 -44.113281 L 5.164062 -44.425781 L 5.191406 -44.714844 L 5.222656 -44.980469 L 5.25 -45.226562 L 5.285156 -45.457031 L 5.320312 -45.664062 L 5.351562 -45.855469 L 5.386719 -46.027344 L 5.417969 -46.1875 L 5.445312 -46.328125 L 5.46875 -46.460938 L 5.488281 -46.574219 L 5.5 -46.679688 L 5.5 -46.773438 L 5.496094 -46.859375 L 5.480469 -46.933594 L 5.457031 -46.996094 L 5.421875 -47.054688 L 5.378906 -47.105469 L 5.332031 -47.148438 L 5.277344 -47.1875 L 5.214844 -47.21875 L 5.15625 -47.25 L 5.09375 -47.273438 L 5.03125 -47.292969 L 4.976562 -47.308594 L 4.925781 -47.320312 L 4.882812 -47.332031 L 4.847656 -47.339844 L 4.824219 -47.34375 L 4.8125 -47.34375 L 4.785156 -47.351562 L 4.542969 -47.390625 L 4.003906 -47.464844 L 3.210938 -47.582031 L 2.363281 -47.78125 L 1.691406 -48.128906 L 1.25 -48.628906 L 0.875 -49.210938 L 0.382812 -49.742188 L -0.269531 -50.136719 L -0.972656 -50.394531 L -1.570312 -50.585938 L -1.976562 -50.746094 L -2.175781 -50.847656 L -2.199219 -50.863281 " transform="matrix(1,0,0,1,79,104)"/>
<path style="fill-rule:evenodd;fill:rgb(100%,100%,100%);fill-opacity:1;stroke-width:1;stroke-linecap:butt;stroke-linejoin:bevel;stroke:rgb(50.048876%,50.048876%,50.048876%);stroke-opacity:1;stroke-miterlimit:10;" d="M -11.777344 -24.066406 L -11.796875 -24.0625 L -11.960938 -24.046875 L -12.273438 -24.003906 L -12.695312 -23.933594 L -13.179688 -23.824219 L -13.671875 -23.664062 L -14.121094 -23.433594 L -14.492188 -23.117188 L -14.757812 -22.6875 L -14.917969 -22.125 L -14.980469 -21.394531 L -14.976562 -20.476562 L -14.929688 -19.335938 L -14.867188 -17.953125 L -14.800781 -16.316406 L -14.746094 -14.421875 L -14.710938 -12.28125 L -14.699219 -9.917969 L -14.71875 -7.371094 L -14.773438 -4.691406 L -14.863281 -1.929688 L -14.984375 0.847656 L -15.125 3.585938 L -15.261719 6.226562 L -15.382812 8.71875 L -15.464844 11.023438 L -15.507812 13.105469 L -15.503906 14.949219 L -15.46875 16.546875 L -15.417969 17.898438 L -15.363281 19.019531 L -15.316406 19.921875 L -15.289062 20.628906 L -15.277344 21.167969 L -15.28125 21.566406 L -15.292969 21.839844 L -15.304688 22.011719 L -15.3125 22.097656 L -15.3125 22.105469 L -15.316406 22.136719 L -15.339844 22.351562 L -15.394531 22.734375 L -15.429688 23.195312 L -15.324219 23.652344 L -14.875 24.054688 L -13.871094 24.363281 L -12.1875 24.566406 L -9.808594 24.679688 L -6.84375 24.730469 L -3.488281 24.777344 L -0.0078125 24.871094 L 3.3125 25.039062 L 6.210938 25.285156 L 8.523438 25.570312 L 10.183594 25.84375 L 11.222656 26.058594 L 11.714844 26.175781 L 11.777344 26.191406 L 11.796875 26.195312 L 11.960938 26.234375 L 12.269531 26.289062 L 12.6875 26.316406 L 13.167969 26.265625 L 13.65625 26.101562 L 14.121094 25.777344 L 14.527344 25.28125 L 14.855469 24.597656 L 15.109375 23.730469 L 15.292969 22.683594 L 15.421875 21.457031 L 15.515625 20.042969 L 15.585938 18.4375 L 15.640625 16.628906 L 15.679688 14.613281 L 15.710938 12.390625 L 15.726562 9.976562 L 15.730469 7.402344 L 15.730469 4.707031 L 15.722656 1.9375 L 15.710938 -0.84375 L 15.695312 -3.585938 L 15.675781 -6.226562 L 15.644531 -8.71875 L 15.609375 -11.023438 L 15.566406 -13.105469 L 15.523438 -14.949219 L 15.484375 -16.546875 L 15.449219 -17.898438 L 15.417969 -19.019531 L 15.386719 -19.921875 L 15.347656 -20.628906 L 15.296875 -21.167969 L 15.234375 -21.566406 L 15.171875 -21.839844 L 15.121094 -22.011719 L 15.089844 -22.097656 L 15.085938 -22.105469 L 15.078125 -22.132812 L 14.996094 -22.320312 L 14.796875 -22.664062 L 14.429688 -23.089844 L 13.800781 -23.523438 L 12.824219 -23.890625 L 11.410156 -24.152344 L 9.5 -24.316406 L 7.101562 -24.40625 L 4.296875 -24.460938 L 1.25 -24.492188 L -1.808594 -24.496094 L -4.65625 -24.464844 L -7.101562 -24.390625 L -9.035156 -24.292969 L -10.425781 -24.191406 L -11.304688 -24.113281 L -11.722656 -24.070312 L -11.777344 -24.066406 " transform="matrix(1,0,0,1,89,219)"/>
<path style="fill-rule:evenodd;fill:rgb(100%,100%,100%);fill-opacity:1;stroke-width:1;stroke-linecap:butt;stroke-linejoin:bevel;stroke:rgb(50.048876%,50.048876%,50.048876%);stroke-opacity:1;stroke-miterlimit:10;" d="M -7.019531 -25.074219 L -7.027344 -25.074219 L -7.09375 -25.085938 L -7.222656 -25.113281 L -7.410156 -25.152344 L -7.644531 -25.207031 L -7.910156 -25.269531 L -8.199219 -25.332031 L -8.488281 -25.382812 L -8.765625 -25.398438 L -9.007812 -25.359375 L -9.214844 -25.25 L -9.371094 -25.050781 L -9.476562 -24.757812 L -9.539062 -24.363281 L -9.566406 -23.875 L -9.570312 -23.292969 L -9.566406 -22.621094 L -9.5625 -21.867188 L -9.570312 -21.027344 L -9.59375 -20.105469 L -9.636719 -19.085938 L -9.6875 -17.972656 L -9.746094 -16.753906 L -9.804688 -15.425781 L -9.859375 -13.988281 L -9.910156 -12.441406 L -9.949219 -10.796875 L -9.980469 -9.054688 L -10 -7.238281 L -10.011719 -5.359375 L -10.015625 -3.4375 L -10.003906 -1.488281 L -9.980469 0.460938 L -9.941406 2.390625 L -9.882812 4.285156 L -9.808594 6.125 L -9.726562 7.894531 L -9.640625 9.574219 L -9.554688 11.15625 L -9.480469 12.628906 L -9.421875 13.988281 L -9.382812 15.226562 L -9.367188 16.34375 L -9.378906 17.339844 L -9.417969 18.21875 L -9.476562 18.984375 L -9.554688 19.644531 L -9.648438 20.203125 L -9.75 20.675781 L -9.855469 21.0625 L -9.953125 21.382812 L -10.042969 21.636719 L -10.121094 21.835938 L -10.179688 21.988281 L -10.222656 22.101562 L -10.253906 22.179688 L -10.269531 22.230469 L -10.277344 22.257812 L -10.28125 22.257812 L -10.285156 22.273438 L -10.3125 22.371094 L -10.332031 22.546875 L -10.285156 22.78125 L -10.070312 23.082031 L -9.589844 23.449219 L -8.765625 23.863281 L -7.5625 24.269531 L -6 24.597656 L -4.144531 24.808594 L -2.101562 24.90625 L -0.0117188 24.933594 L 1.972656 24.9375 L 3.703125 24.972656 L 5.082031 25.058594 L 6.070312 25.195312 L 6.691406 25.339844 L 6.984375 25.433594 L 7.019531 25.445312 L 7.027344 25.449219 L 7.09375 25.472656 L 7.226562 25.527344 L 7.410156 25.613281 L 7.648438 25.726562 L 7.921875 25.867188 L 8.222656 26.015625 L 8.535156 26.15625 L 8.847656 26.257812 L 9.148438 26.285156 L 9.425781 26.21875 L 9.664062 26.027344 L 9.859375 25.710938 L 10.007812 25.261719 L 10.105469 24.6875 L 10.15625 24 L 10.171875 23.21875 L 10.152344 22.347656 L 10.113281 21.402344 L 10.070312 20.386719 L 10.027344 19.289062 L 10.003906 18.113281 L 10 16.847656 L 10.019531 15.488281 L 10.070312 14.027344 L 10.144531 12.464844 L 10.234375 10.808594 L 10.332031 9.0625 L 10.433594 7.242188 L 10.53125 5.359375 L 10.613281 3.4375 L 10.683594 1.488281 L 10.738281 -0.460938 L 10.78125 -2.390625 L 10.816406 -4.285156 L 10.84375 -6.125 L 10.859375 -7.894531 L 10.867188 -9.574219 L 10.867188 -11.15625 L 10.847656 -12.628906 L 10.808594 -13.988281 L 10.75 -15.226562 L 10.671875 -16.34375 L 10.585938 -17.339844 L 10.492188 -18.21875 L 10.402344 -18.984375 L 10.328125 -19.644531 L 10.273438 -20.203125 L 10.238281 -20.675781 L 10.230469 -21.0625 L 10.242188 -21.382812 L 10.265625 -21.636719 L 10.296875 -21.835938 L 10.332031 -21.988281 L 10.363281 -22.101562 L 10.386719 -22.179688 L 10.402344 -22.230469 L 10.410156 -22.257812 L 10.414062 -22.269531 L 10.425781 -22.363281 L 10.375 -22.558594 L 10.15625 -22.851562 L 9.664062 -23.222656 L 8.839844 -23.613281 L 7.6875 -23.957031 L 6.242188 -24.226562 L 4.558594 -24.414062 L 2.71875 -24.546875 L 0.808594 -24.644531 L -1.058594 -24.726562 L -2.769531 -24.789062 L -4.234375 -24.847656 L -5.386719 -24.902344 L -6.214844 -24.96875 L -6.738281 -25.027344 L -6.988281 -25.066406 L -7.019531 -25.074219 " transform="matrix(1,0,0,1,114,159)"/>
<path style="fill-rule:evenodd;fill:rgb(100%,100%,100%);fill-opacity:1;stroke-width:1;stroke-linecap:butt;stroke-linejoin:bevel;stroke:rgb(50.048876%,50.048876%,50.048876%);stroke-opacity:1;stroke-miterlimit:10;" d="M -2.199219 -24 L -2.203125 -24 L -2.226562 -23.984375 L -2.269531 -23.953125 L -2.339844 -23.90625 L -2.429688 -23.847656 L -2.546875 -23.773438 L -2.691406 -23.683594 L -2.859375 -23.582031 L -3.046875 -23.472656 L -3.253906 -23.347656 L -3.46875 -23.210938 L -3.691406 -23.0625 L -3.910156 -22.902344 L -4.121094 -22.726562 L -4.3125 -22.535156 L -4.480469 -22.324219 L -4.621094 -22.089844 L -4.734375 -21.828125 L -4.820312 -21.53125 L -4.878906 -21.195312 L -4.914062 -20.820312 L -4.933594 -20.394531 L -4.9375 -19.914062 L -4.929688 -19.378906 L -4.917969 -18.777344 L -4.898438 -18.117188 L -4.878906 -17.386719 L -4.863281 -16.59375 L -4.847656 -15.730469 L -4.835938 -14.800781 L -4.828125 -13.804688 L -4.828125 -12.746094 L -4.835938 -11.628906 L -4.855469 -10.460938 L -4.882812 -9.238281 L -4.925781 -7.972656 L -4.976562 -6.667969 L -5.035156 -5.332031 L -5.105469 -3.96875 L -5.1875 -2.589844 L -5.269531 -1.203125 L -5.355469 0.191406 L -5.4375 1.578125 L -5.511719 2.949219 L -5.578125 4.304688 L -5.625 5.632812 L -5.660156 6.925781 L -5.671875 8.183594 L -5.667969 9.394531 L -5.644531 10.554688 L -5.605469 11.664062 L -5.558594 12.714844 L -5.5 13.710938 L -5.441406 14.640625 L -5.386719 15.507812 L -5.335938 16.3125 L -5.296875 17.054688 L -5.273438 17.734375 L -5.265625 18.355469 L -5.277344 18.914062 L -5.3125 19.414062 L -5.367188 19.863281 L -5.441406 20.257812 L -5.539062 20.609375 L -5.652344 20.910156 L -5.777344 21.171875 L -5.914062 21.398438 L -6.050781 21.589844 L -6.1875 21.75 L -6.316406 21.882812 L -6.4375 21.996094 L -6.539062 22.082031 L -6.625 22.15625 L -6.695312 22.210938 L -6.75 22.253906 L -6.785156 22.28125 L -6.808594 22.300781 L -6.820312 22.3125 L -6.832031 22.320312 L -6.871094 22.398438 L -6.769531 22.578125 L -6.3125 22.890625 L -5.410156 23.351562 L -4.167969 23.917969 L -2.804688 24.496094 L -1.519531 24.980469 L -0.421875 25.28125 L 0.46875 25.375 L 1.164062 25.285156 L 1.679688 25.101562 L 2.015625 24.914062 L 2.179688 24.796875 L 2.199219 24.78125 L 2.203125 24.78125 L 2.226562 24.761719 L 2.269531 24.730469 L 2.335938 24.675781 L 2.421875 24.605469 L 2.527344 24.515625 L 2.652344 24.40625 L 2.796875 24.277344 L 2.953125 24.128906 L 3.121094 23.960938 L 3.292969 23.777344 L 3.46875 23.578125 L 3.640625 23.359375 L 3.804688 23.128906 L 3.957031 22.878906 L 4.09375 22.613281 L 4.214844 22.328125 L 4.316406 22.019531 L 4.402344 21.683594 L 4.472656 21.316406 L 4.53125 20.910156 L 4.578125 20.460938 L 4.617188 19.964844 L 4.652344 19.414062 L 4.683594 18.804688 L 4.710938 18.132812 L 4.742188 17.398438 L 4.773438 16.597656 L 4.804688 15.734375 L 4.835938 14.800781 L 4.871094 13.804688 L 4.902344 12.75 L 4.929688 11.632812 L 4.957031 10.460938 L 4.976562 9.238281 L 4.992188 7.972656 L 5 6.667969 L 5 5.332031 L 4.996094 3.96875 L 4.984375 2.589844 L 4.972656 1.203125 L 4.960938 -0.191406 L 4.953125 -1.578125 L 4.957031 -2.949219 L 4.972656 -4.304688 L 5.003906 -5.632812 L 5.054688 -6.925781 L 5.121094 -8.183594 L 5.207031 -9.394531 L 5.300781 -10.554688 L 5.40625 -11.664062 L 5.507812 -12.714844 L 5.605469 -13.710938 L 5.6875 -14.640625 L 5.753906 -15.507812 L 5.792969 -16.3125 L 5.804688 -17.054688 L 5.792969 -17.734375 L 5.761719 -18.355469 L 5.707031 -18.914062 L 5.648438 -19.414062 L 5.582031 -19.863281 L 5.519531 -20.257812 L 5.464844 -20.609375 L 5.421875 -20.910156 L 5.394531 -21.171875 L 5.378906 -21.398438 L 5.375 -21.589844 L 5.382812 -21.75 L 5.398438 -21.882812 L 5.414062 -21.996094 L 5.433594 -22.082031 L 5.453125 -22.15625 L 5.46875 -22.210938 L 5.484375 -22.253906 L 5.492188 -22.28125 L 5.5 -22.300781 L 5.503906 -22.3125 L 5.507812 -22.320312 L 5.503906 -22.398438 L 5.386719 -22.570312 L 5.019531 -22.855469 L 4.34375 -23.21875 L 3.414062 -23.597656 L 2.355469 -23.925781 L 1.304688 -24.171875 L 0.34375 -24.328125 L -0.488281 -24.394531 L -1.167969 -24.363281 L -1.679688 -24.253906 L -2.015625 -24.113281 L -2.179688 -24.015625 L -2.199219 -24 " transform="matrix(1,0,0,1,79,29)"/>
<path style="fill-rule:evenodd;fill:rgb(100%,100%,100%);fill-opacity:1;stroke-width:1;stroke-linecap:butt;stroke-linejoin:bevel;stroke:rgb(50.048876%,50.048876%,50.048876%);stroke-opacity:1;stroke-miterlimit:10;" d="M -2.199219 -4.25 L -2.226562 -4.21875 L -2.410156 -3.953125 L -2.75 -3.386719 L -3.179688 -2.589844 L -3.648438 -1.792969 L -4.125 -1.238281 L -4.582031 -0.945312 L -4.996094 -0.710938 L -5.308594 -0.316406 L -5.445312 0.289062 L -5.355469 0.976562 L -5.070312 1.570312 L -4.722656 1.976562 L -4.488281 2.175781 L -4.457031 2.199219 L -4.429688 2.222656 L -4.222656 2.386719 L -3.851562 2.726562 L -3.382812 3.214844 L -2.863281 3.769531 L -2.296875 4.257812 L -1.667969 4.570312 L -0.964844 4.671875 L -0.214844 4.640625 L 0.523438 4.597656 L 1.171875 4.640625 L 1.679688 4.789062 L 2.015625 4.976562 L 2.179688 5.105469 L 2.199219 5.125 L 2.222656 5.140625 L 2.382812 5.246094 L 2.703125 5.292969 L 3.171875 5.074219 L 3.746094 4.480469 L 4.347656 3.554688 L 4.855469 2.460938 L 5.160156 1.359375 L 5.242188 0.367188 L 5.175781 -0.480469 L 5.105469 -1.167969 L 5.128906 -1.679688 L 5.242188 -2.015625 L 5.34375 -2.179688 L 5.359375 -2.199219 L 5.378906 -2.226562 L 5.558594 -2.410156 L 5.976562 -2.757812 L 6.496094 -3.230469 L 6.691406 -3.796875 L 6.140625 -4.398438 L 4.792969 -4.933594 L 3.03125 -5.304688 L 1.351562 -5.453125 L 0.0273438 -5.398438 L -0.917969 -5.175781 L -1.566406 -4.84375 L -1.976562 -4.5 L -2.175781 -4.28125 L -2.199219 -4.25 " transform="matrix(1,0,0,1,109,229)"/>
<path style="fill-rule:evenodd;fill:rgb(100%,100%,100%);fill-opacity:1;stroke-width:1;stroke-linecap:butt;stroke-linejoin:bevel;stroke:rgb(50.048876%,50.048876%,50.048876%);stroke-opacity:1;stroke-miterlimit:10;" d="M -7.019531 -9.039062 L -7.050781 -9.019531 L -7.289062 -8.878906 L -7.738281 -8.621094 L -8.328125 -8.265625 L -8.957031 -7.820312 L -9.511719 -7.246094 L -9.890625 -6.472656 L -10.066406 -5.433594 L -10.074219 -4.097656 L -9.992188 -2.492188 L -9.902344 -0.71875 L -9.851562 1.085938 L -9.839844 2.777344 L -9.832031 4.234375 L -9.800781 5.386719 L -9.734375 6.214844 L -9.660156 6.738281 L -9.609375 6.988281 L -9.601562 7.019531 L -9.59375 7.054688 L -9.523438 7.332031 L -9.351562 7.824219 L -9.050781 8.4375 L -8.617188 9.050781 L -8.054688 9.550781 L -7.351562 9.878906 L -6.441406 10.035156 L -5.25 10.082031 L -3.726562 10.089844 L -1.914062 10.101562 L 0.0546875 10.113281 L 1.988281 10.085938 L 3.707031 9.996094 L 5.082031 9.847656 L 6.070312 9.683594 L 6.691406 9.546875 L 6.984375 9.472656 L 7.019531 9.460938 L 7.054688 9.453125 L 7.332031 9.375 L 7.824219 9.214844 L 8.429688 8.964844 L 9.027344 8.613281 L 9.503906 8.144531 L 9.796875 7.496094 L 9.917969 6.597656 L 9.914062 5.375 L 9.855469 3.804688 L 9.792969 1.953125 L 9.746094 -0.0429688 L 9.703125 -1.984375 L 9.640625 -3.707031 L 9.542969 -5.082031 L 9.414062 -6.070312 L 9.285156 -6.691406 L 9.199219 -6.984375 L 9.191406 -7.019531 L 9.179688 -7.050781 L 9.101562 -7.285156 L 8.933594 -7.699219 L 8.65625 -8.210938 L 8.238281 -8.738281 L 7.628906 -9.210938 L 6.777344 -9.589844 L 5.640625 -9.863281 L 4.21875 -10.039062 L 2.550781 -10.136719 L 0.742188 -10.164062 L -1.078125 -10.132812 L -2.777344 -10.046875 L -4.234375 -9.890625 L -5.386719 -9.671875 L -6.214844 -9.421875 L -6.738281 -9.195312 L -6.988281 -9.058594 L -7.019531 -9.039062 " transform="matrix(1,0,0,1,114,194)"/>
<path style="fill-rule:evenodd;fill:rgb(100%,100%,100%);fill-opacity:1;stroke-width:1;stroke-linecap:butt;stroke-linejoin:bevel;stroke:rgb(50.048876%,50.048876%,50.048876%);stroke-opacity:1;stroke-miterlimit:10;" d="M -11.777344 -14.578125 L -11.835938 -14.566406 L -12.296875 -14.464844 L -13.117188 -14.234375 L -14.105469 -13.847656 L -15.027344 -13.300781 L -15.671875 -12.59375 L -15.953125 -11.667969 L -15.9375 -10.382812 L -15.757812 -8.566406 L -15.542969 -6.136719 L -15.347656 -3.164062 L -15.171875 0.109375 L -15.019531 3.34375 L -14.90625 6.21875 L -14.847656 8.523438 L -14.835938 10.183594 L -14.855469 11.222656 L -14.875 11.714844 L -14.878906 11.777344 L -14.882812 11.835938 L -14.90625 12.296875 L -14.960938 13.117188 L -15.007812 14.121094 L -14.921875 15.0625 L -14.511719 15.722656 L -13.578125 15.992188 L -11.972656 15.898438 L -9.675781 15.59375 L -6.769531 15.265625 L -3.457031 15.042969 L 0.00390625 14.964844 L 3.3125 15.007812 L 6.210938 15.121094 L 8.523438 15.273438 L 10.183594 15.425781 L 11.222656 15.554688 L 11.714844 15.632812 L 11.777344 15.640625 L 11.828125 15.648438 L 12.210938 15.695312 L 12.855469 15.6875 L 13.582031 15.46875 L 14.21875 14.871094 L 14.667969 13.785156 L 14.910156 12.160156 L 14.988281 10.007812 L 14.960938 7.394531 L 14.898438 4.4375 L 14.855469 1.308594 L 14.867188 -1.789062 L 14.957031 -4.652344 L 15.109375 -7.101562 L 15.285156 -9.035156 L 15.441406 -10.425781 L 15.558594 -11.304688 L 15.613281 -11.722656 L 15.621094 -11.777344 L 15.628906 -11.835938 L 15.695312 -12.296875 L 15.800781 -13.117188 L 15.871094 -14.109375 L 15.75 -15.019531 L 15.242188 -15.617188 L 14.148438 -15.789062 L 12.367188 -15.585938 L 9.910156 -15.199219 L 6.890625 -14.847656 L 3.507812 -14.675781 L 0.0117188 -14.691406 L -3.308594 -14.800781 L -6.210938 -14.886719 L -8.523438 -14.882812 L -10.183594 -14.792969 L -11.222656 -14.671875 L -11.714844 -14.589844 L -11.777344 -14.578125 " transform="matrix(1,0,0,1,89,169)"/>
<path style="fill-rule:evenodd;fill:rgb(100%,100%,100%);fill-opacity:1;stroke-width:1;stroke-linecap:butt;stroke-linejoin:bevel;stroke:rgb(50.048876%,50.048876%,50.048876%);stroke-opacity:1;stroke-miterlimit:10;" d="M -32.203125 -15.507812 L -32.21875 -15.511719 L -32.34375 -15.523438 L -32.566406 -15.464844 L -32.855469 -15.203125 L -33.167969 -14.59375 L -33.484375 -13.535156 L -33.78125 -11.964844 L -34.058594 -9.875 L -34.3125 -7.316406 L -34.535156 -4.402344 L -34.722656 -1.292969 L -34.882812 1.796875 L -35.015625 4.652344 L -35.132812 7.101562 L -35.234375 9.035156 L -35.324219 10.425781 L -35.390625 11.304688 L -35.429688 11.722656 L -35.433594 11.777344 L -35.4375 11.789062 L -35.445312 11.902344 L -35.46875 12.117188 L -35.5 12.429688 L -35.542969 12.820312 L -35.585938 13.269531 L -35.621094 13.746094 L -35.628906 14.226562 L -35.597656 14.679688 L -35.503906 15.078125 L -35.332031 15.398438 L -35.066406 15.632812 L -34.695312 15.773438 L -34.210938 15.824219 L -33.613281 15.808594 L -32.898438 15.738281 L -32.0625 15.640625 L -31.101562 15.535156 L -30.007812 15.441406 L -28.773438 15.375 L -27.390625 15.332031 L -25.847656 15.316406 L -24.136719 15.324219 L -22.253906 15.34375 L -20.199219 15.363281 L -17.980469 15.378906 L -15.605469 15.382812 L -13.09375 15.375 L -10.46875 15.355469 L -7.75 15.324219 L -4.96875 15.292969 L -2.15625 15.261719 L 0.664062 15.242188 L 3.460938 15.230469 L 6.203125 15.234375 L 8.863281 15.25 L 11.421875 15.277344 L 13.851562 15.304688 L 16.140625 15.332031 L 18.273438 15.347656 L 20.238281 15.34375 L 22.027344 15.316406 L 23.644531 15.261719 L 25.085938 15.183594 L 26.359375 15.085938 L 27.464844 14.976562 L 28.421875 14.867188 L 29.230469 14.761719 L 29.914062 14.667969 L 30.476562 14.589844 L 30.933594 14.53125 L 31.300781 14.488281 L 31.589844 14.457031 L 31.8125 14.441406 L 31.976562 14.429688 L 32.089844 14.425781 L 32.164062 14.421875 L 32.21875 14.421875 L 32.351562 14.40625 L 32.613281 14.328125 L 32.996094 14.09375 L 33.457031 13.59375 L 33.925781 12.71875 L 34.328125 11.363281 L 34.601562 9.488281 L 34.734375 7.101562 L 34.753906 4.296875 L 34.714844 1.253906 L 34.664062 -1.808594 L 34.617188 -4.65625 L 34.578125 -7.101562 L 34.527344 -9.035156 L 34.464844 -10.425781 L 34.402344 -11.304688 L 34.363281 -11.722656 L 34.359375 -11.777344 L 34.359375 -11.789062 L 34.347656 -11.902344 L 34.320312 -12.117188 L 34.28125 -12.429688 L 34.222656 -12.820312 L 34.140625 -13.265625 L 34.035156 -13.742188 L 33.90625 -14.21875 L 33.75 -14.667969 L 33.5625 -15.0625 L 33.347656 -15.378906 L 33.101562 -15.609375 L 32.808594 -15.753906 L 32.460938 -15.816406 L 32.042969 -15.808594 L 31.539062 -15.753906 L 30.929688 -15.671875 L 30.1875 -15.578125 L 29.300781 -15.492188 L 28.246094 -15.417969 L 27.011719 -15.371094 L 25.585938 -15.347656 L 23.960938 -15.34375 L 22.140625 -15.355469 L 20.128906 -15.378906 L 17.9375 -15.40625 L 15.582031 -15.433594 L 13.082031 -15.457031 L 10.460938 -15.472656 L 7.75 -15.480469 L 4.96875 -15.480469 L 2.152344 -15.472656 L -0.664062 -15.460938 L -3.460938 -15.441406 L -6.203125 -15.421875 L -8.863281 -15.394531 L -11.421875 -15.367188 L -13.851562 -15.332031 L -16.140625 -15.292969 L -18.273438 -15.25 L -20.238281 -15.207031 L -22.027344 -15.164062 L -23.644531 -15.125 L -25.085938 -15.097656 L -26.359375 -15.085938 L -27.464844 -15.089844 L -28.421875 -15.109375 L -29.230469 -15.144531 L -29.914062 -15.1875 L -30.476562 -15.238281 L -30.933594 -15.289062 L -31.300781 -15.339844 L -31.589844 -15.386719 L -31.8125 -15.425781 L -31.976562 -15.457031 L -32.089844 -15.484375 L -32.164062 -15.5 L -32.199219 -15.507812 L -32.203125 -15.507812 " transform="matrix(1,0,0,1,39,124)"/>
<path style="fill-rule:evenodd;fill:rgb(100%,100%,100%);fill-opacity:1;stroke-width:1;stroke-linecap:butt;stroke-linejoin:bevel;stroke:rgb(50.048876%,50.048876%,50.048876%);stroke-opacity:1;stroke-miterlimit:10;" d="M -12.230469 -10.511719 L -12.242188 -10.507812 L -12.355469 -10.46875 L -12.597656 -10.339844 L -12.96875 -10.042969 L -13.445312 -9.503906 L -13.964844 -8.671875 L -14.457031 -7.542969 L -14.855469 -6.136719 L -15.140625 -4.496094 L -15.320312 -2.6875 L -15.417969 -0.796875 L -15.46875 1.0625 L -15.476562 2.773438 L -15.460938 4.234375 L -15.425781 5.386719 L -15.382812 6.214844 L -15.347656 6.738281 L -15.324219 6.988281 L -15.324219 7.019531 L -15.320312 7.035156 L -15.3125 7.144531 L -15.289062 7.351562 L -15.253906 7.644531 L -15.195312 8 L -15.105469 8.390625 L -14.96875 8.792969 L -14.765625 9.175781 L -14.480469 9.523438 L -14.109375 9.816406 L -13.632812 10.039062 L -13.054688 10.1875 L -12.363281 10.265625 L -11.558594 10.273438 L -10.632812 10.222656 L -9.578125 10.125 L -8.394531 10.003906 L -7.082031 9.875 L -5.652344 9.761719 L -4.121094 9.675781 L -2.519531 9.636719 L -0.878906 9.640625 L 0.761719 9.6875 L 2.363281 9.761719 L 3.890625 9.847656 L 5.316406 9.929688 L 6.613281 9.988281 L 7.765625 10.015625 L 8.769531 10.007812 L 9.617188 9.964844 L 10.316406 9.898438 L 10.882812 9.8125 L 11.324219 9.710938 L 11.65625 9.605469 L 11.902344 9.5 L 12.070312 9.40625 L 12.171875 9.335938 L 12.222656 9.296875 L 12.230469 9.292969 L 12.246094 9.28125 L 12.367188 9.171875 L 12.578125 8.933594 L 12.832031 8.558594 L 13.089844 8.066406 L 13.332031 7.5 L 13.554688 6.855469 L 13.761719 6.0625 L 13.949219 5 L 14.09375 3.589844 L 14.183594 1.851562 L 14.226562 -0.078125 L 14.261719 -1.996094 L 14.34375 -3.707031 L 14.515625 -5.082031 L 14.757812 -6.070312 L 15.003906 -6.691406 L 15.15625 -6.984375 L 15.175781 -7.019531 L 15.1875 -7.035156 L 15.253906 -7.144531 L 15.394531 -7.351562 L 15.617188 -7.640625 L 15.910156 -7.984375 L 16.230469 -8.351562 L 16.519531 -8.707031 L 16.691406 -9.015625 L 16.667969 -9.25 L 16.394531 -9.402344 L 15.859375 -9.480469 L 15.066406 -9.492188 L 14.0625 -9.460938 L 12.898438 -9.410156 L 11.621094 -9.347656 L 10.257812 -9.292969 L 8.832031 -9.25 L 7.34375 -9.230469 L 5.796875 -9.238281 L 4.195312 -9.28125 L 2.554688 -9.359375 L 0.894531 -9.472656 L -0.753906 -9.609375 L -2.359375 -9.765625 L -3.890625 -9.925781 L -5.316406 -10.082031 L -6.613281 -10.226562 L -7.765625 -10.351562 L -8.769531 -10.453125 L -9.617188 -10.53125 L -10.316406 -10.582031 L -10.882812 -10.605469 L -11.324219 -10.605469 L -11.65625 -10.589844 L -11.902344 -10.566406 L -12.070312 -10.542969 L -12.171875 -10.523438 L -12.222656 -10.511719 L -12.230469 -10.511719 " transform="matrix(1,0,0,1,119,214)"/>
<path style="fill-rule:evenodd;fill:rgb(100%,100%,100%);fill-opacity:1;stroke-width:1;stroke-linecap:butt;stroke-linejoin:bevel;stroke:rgb(50.048876%,50.048876%,50.048876%);stroke-opacity:1;stroke-miterlimit:10;" d="M -17.296875 -4.410156 L -17.308594 -4.410156 L -17.398438 -4.390625 L -17.601562 -4.289062 L -17.933594 -4.019531 L -18.367188 -3.53125 L -18.835938 -2.847656 L -19.253906 -2.023438 L -19.574219 -1.144531 L -19.785156 -0.285156 L -19.910156 0.503906 L -19.976562 1.171875 L -20.011719 1.679688 L -20.023438 2.015625 L -20.027344 2.179688 L -20.03125 2.199219 L -20.03125 2.230469 L -20.023438 2.289062 L -20.011719 2.371094 L -19.976562 2.484375 L -19.917969 2.621094 L -19.824219 2.777344 L -19.6875 2.953125 L -19.507812 3.136719 L -19.285156 3.324219 L -19.019531 3.507812 L -18.710938 3.683594 L -18.371094 3.839844 L -17.996094 3.980469 L -17.589844 4.105469 L -17.152344 4.207031 L -16.675781 4.292969 L -16.160156 4.371094 L -15.59375 4.4375 L -14.976562 4.5 L -14.300781 4.558594 L -13.554688 4.621094 L -12.738281 4.6875 L -11.851562 4.75 L -10.886719 4.816406 L -9.851562 4.875 L -8.75 4.929688 L -7.582031 4.976562 L -6.363281 5.015625 L -5.09375 5.046875 L -3.789062 5.070312 L -2.457031 5.089844 L -1.109375 5.109375 L 0.242188 5.132812 L 1.585938 5.164062 L 2.910156 5.195312 L 4.207031 5.226562 L 5.460938 5.257812 L 6.667969 5.285156 L 7.820312 5.300781 L 8.910156 5.304688 L 9.929688 5.289062 L 10.875 5.261719 L 11.75 5.214844 L 12.542969 5.160156 L 13.265625 5.097656 L 13.910156 5.035156 L 14.480469 4.980469 L 14.984375 4.933594 L 15.421875 4.902344 L 15.796875 4.886719 L 16.113281 4.890625 L 16.382812 4.910156 L 16.605469 4.941406 L 16.785156 4.980469 L 16.933594 5.023438 L 17.046875 5.066406 L 17.136719 5.105469 L 17.203125 5.136719 L 17.296875 5.183594 L 17.308594 5.1875 L 17.394531 5.203125 L 17.582031 5.125 L 17.863281 4.8125 L 18.222656 4.195312 L 18.59375 3.316406 L 18.925781 2.304688 L 19.171875 1.28125 L 19.320312 0.335938 L 19.382812 -0.492188 L 19.382812 -1.167969 L 19.351562 -1.679688 L 19.304688 -2.015625 L 19.277344 -2.179688 L 19.273438 -2.199219 L 19.269531 -2.203125 L 19.265625 -2.234375 L 19.25 -2.292969 L 19.230469 -2.378906 L 19.199219 -2.488281 L 19.15625 -2.621094 L 19.097656 -2.773438 L 19.023438 -2.941406 L 18.925781 -3.121094 L 18.8125 -3.316406 L 18.671875 -3.519531 L 18.507812 -3.726562 L 18.316406 -3.9375 L 18.09375 -4.144531 L 17.839844 -4.339844 L 17.550781 -4.515625 L 17.222656 -4.667969 L 16.84375 -4.792969 L 16.414062 -4.886719 L 15.921875 -4.953125 L 15.359375 -4.988281 L 14.722656 -5.003906 L 14.003906 -5.003906 L 13.199219 -4.992188 L 12.308594 -4.984375 L 11.328125 -4.972656 L 10.265625 -4.96875 L 9.125 -4.96875 L 7.914062 -4.972656 L 6.636719 -4.984375 L 5.308594 -5 L 3.9375 -5.023438 L 2.539062 -5.050781 L 1.125 -5.085938 L -0.289062 -5.125 L -1.695312 -5.164062 L -3.078125 -5.199219 L -4.425781 -5.234375 L -5.722656 -5.257812 L -6.96875 -5.273438 L -8.148438 -5.28125 L -9.257812 -5.277344 L -10.289062 -5.257812 L -11.242188 -5.230469 L -12.113281 -5.191406 L -12.902344 -5.136719 L -13.605469 -5.074219 L -14.234375 -5 L -14.785156 -4.917969 L -15.261719 -4.835938 L -15.671875 -4.753906 L -16.019531 -4.671875 L -16.3125 -4.601562 L -16.550781 -4.542969 L -16.75 -4.496094 L -16.90625 -4.460938 L -17.03125 -4.4375 L -17.128906 -4.425781 L -17.199219 -4.417969 L -17.25 -4.414062 L -17.28125 -4.410156 L -17.296875 -4.410156 " transform="matrix(1,0,0,1,144,159)"/>
<path style="fill-rule:evenodd;fill:rgb(100%,100%,100%);fill-opacity:1;stroke-width:1;stroke-linecap:butt;stroke-linejoin:bevel;stroke:rgb(50.048876%,50.048876%,50.048876%);stroke-opacity:1;stroke-miterlimit:10;" d="M -7.019531 -14.949219 L -7.035156 -14.953125 L -7.144531 -14.976562 L -7.351562 -15.03125 L -7.644531 -15.109375 L -7.996094 -15.210938 L -8.382812 -15.3125 L -8.769531 -15.375 L -9.132812 -15.355469 L -9.4375 -15.210938 L -9.671875 -14.914062 L -9.820312 -14.445312 L -9.886719 -13.804688 L -9.882812 -13.007812 L -9.820312 -12.074219 L -9.730469 -11.015625 L -9.636719 -9.84375 L -9.554688 -8.566406 L -9.5 -7.183594 L -9.472656 -5.707031 L -9.476562 -4.152344 L -9.496094 -2.535156 L -9.53125 -0.886719 L -9.570312 0.757812 L -9.617188 2.363281 L -9.671875 3.890625 L -9.722656 5.316406 L -9.773438 6.613281 L -9.808594 7.765625 L -9.820312 8.769531 L -9.792969 9.617188 L -9.71875 10.316406 L -9.585938 10.882812 L -9.398438 11.324219 L -9.171875 11.65625 L -8.925781 11.902344 L -8.699219 12.070312 L -8.523438 12.171875 L -8.429688 12.222656 L -8.414062 12.230469 L -8.386719 12.242188 L -8.179688 12.351562 L -7.832031 12.558594 L -7.421875 12.839844 L -7 13.164062 L -6.535156 13.476562 L -5.933594 13.738281 L -5.074219 13.925781 L -3.890625 14.035156 L -2.394531 14.097656 L -0.679688 14.140625 L 1.101562 14.183594 L 2.78125 14.21875 L 4.234375 14.238281 L 5.386719 14.222656 L 6.214844 14.183594 L 6.738281 14.132812 L 6.988281 14.097656 L 7.019531 14.09375 L 7.035156 14.089844 L 7.132812 14.074219 L 7.316406 14.035156 L 7.570312 13.972656 L 7.867188 13.875 L 8.1875 13.730469 L 8.515625 13.539062 L 8.835938 13.289062 L 9.140625 12.96875 L 9.429688 12.578125 L 9.691406 12.097656 L 9.917969 11.519531 L 10.09375 10.832031 L 10.210938 10.023438 L 10.261719 9.082031 L 10.238281 8.011719 L 10.15625 6.8125 L 10.03125 5.496094 L 9.882812 4.082031 L 9.738281 2.597656 L 9.613281 1.070312 L 9.527344 -0.46875 L 9.480469 -1.984375 L 9.476562 -3.445312 L 9.503906 -4.824219 L 9.558594 -6.097656 L 9.621094 -7.25 L 9.679688 -8.269531 L 9.71875 -9.15625 L 9.730469 -9.902344 L 9.703125 -10.519531 L 9.640625 -11.019531 L 9.539062 -11.414062 L 9.414062 -11.710938 L 9.285156 -11.929688 L 9.164062 -12.082031 L 9.070312 -12.179688 L 9.019531 -12.222656 L 8.996094 -12.246094 L 8.835938 -12.367188 L 8.488281 -12.578125 L 7.949219 -12.832031 L 7.292969 -13.09375 L 6.632812 -13.335938 L 6.023438 -13.558594 L 5.378906 -13.773438 L 4.53125 -13.980469 L 3.324219 -14.175781 L 1.730469 -14.351562 L -0.121094 -14.484375 L -2.007812 -14.582031 L -3.710938 -14.652344 L -5.082031 -14.722656 L -6.070312 -14.804688 L -6.691406 -14.886719 L -6.984375 -14.941406 L -7.019531 -14.949219 " transform="matrix(1,0,0,1,94,104)"/>
</g>
</svg>
