<?xml version="1.0" encoding="UTF-8"?>
<svg xmlns="http://www.w3.org/2000/svg" xmlns:xlink="http://www.w3.org/1999/xlink" width="1488.928136pt" height="619328.747136pt" viewBox="0 0 1488.928136 619328.747136" version="1.1">
<g id="surface5823">
<path style="fill-rule:evenodd;fill:rgb(100%,100%,100%);fill-opacity:1;stroke-width:1;stroke-linecap:butt;stroke-linejoin:bevel;stroke:rgb(50.048876%,50.048876%,50.048876%);stroke-opacity:1;stroke-miterlimit:10;" d="M -124.721698 -10.498437 L 124.723615 -10.498437 C 126.168927 -10.498437 127.340802 -9.326562 127.340802 -7.88125 L 127.340802 7.880469 C 127.340802 9.329688 126.168927 10.501563 124.723615 10.501563 L -124.721698 10.501563 C -126.16701 10.501563 -127.338885 9.329688 -127.338885 7.880469 L -127.338885 -7.88125 C -127.338885 -9.326562 -126.16701 -10.498437 -124.721698 -10.498437 Z M -124.721698 -10.498437 " transform="matrix(1,0,0,1,1208.014667,553183.7875)"/>
<path style="fill-rule:evenodd;fill:rgb(100%,100%,100%);fill-opacity:1;stroke-width:1;stroke-linecap:butt;stroke-linejoin:bevel;stroke:rgb(50.048876%,50.048876%,50.048876%);stroke-opacity:1;stroke-miterlimit:10;" d="M -129.303448 -10.501562 L 129.302021 -10.501562 C 130.747333 -10.501562 131.919208 -9.329687 131.919208 -7.880469 L 131.919208 7.88125 C 131.919208 9.326563 130.747333 10.498438 129.302021 10.498438 L -129.303448 10.498438 C -130.74876 10.498438 -131.920635 9.326563 -131.920635 7.88125 L -131.920635 -7.880469 C -131.920635 -9.329687 -130.74876 -10.501562 -129.303448 -10.501562 Z M -129.303448 -10.501562 " transform="matrix(1,0,0,1,1068.002667,166813.5875)"/>
<path style="fill-rule:evenodd;fill:rgb(100%,100%,100%);fill-opacity:1;stroke-width:1;stroke-linecap:butt;stroke-linejoin:bevel;stroke:rgb(50.048876%,50.048876%,50.048876%);stroke-opacity:1;stroke-miterlimit:10;" d="M -129.603573 -10.498438 L 129.603458 -10.498438 C 131.048771 -10.498438 132.220646 -9.326563 132.220646 -7.88125 L 132.220646 7.880469 C 132.220646 9.329687 131.048771 10.501562 129.603458 10.501562 L -129.603573 10.501562 C -131.048885 10.501562 -132.22076 9.329687 -132.22076 7.880469 L -132.22076 -7.88125 C -132.22076 -9.326563 -131.048885 -10.498438 -129.603573 -10.498438 Z M -129.603573 -10.498438 " transform="matrix(1,0,0,1,1154.974667,450153.7875)"/>
<path style="fill-rule:evenodd;fill:rgb(100%,100%,100%);fill-opacity:1;stroke-width:1;stroke-linecap:butt;stroke-linejoin:bevel;stroke:rgb(50.048876%,50.048876%,50.048876%);stroke-opacity:1;stroke-miterlimit:10;" d="M -127.923448 -10.501562 L 127.920302 -10.501562 C 129.369521 -10.501562 130.541396 -9.329687 130.541396 -7.880469 L 130.541396 7.88125 C 130.541396 9.326563 129.369521 10.498438 127.920302 10.498438 L -127.923448 10.498438 C -129.36876 10.498438 -130.540635 9.326563 -130.540635 7.88125 L -130.540635 -7.880469 C -130.540635 -9.329687 -129.36876 -10.501562 -127.923448 -10.501562 Z M -127.923448 -10.501562 " transform="matrix(1,0,0,1,1066.622667,80077.5875)"/>
</g>
</svg>
