<?xml version="1.0" encoding="UTF-8"?>
<svg xmlns="http://www.w3.org/2000/svg" xmlns:xlink="http://www.w3.org/1999/xlink" width="168.472136pt" height="248.472136pt" viewBox="0 0 168.472136 248.472136" version="1.1">
<g id="surface23751">
<path style="fill-rule:evenodd;fill:rgb(100%,100%,100%);fill-opacity:1;stroke-width:1;stroke-linecap:butt;stroke-linejoin:bevel;stroke:rgb(50.048876%,50.048876%,50.048876%);stroke-opacity:1;stroke-miterlimit:10;" d="M -2.199219 -50.765625 L -2.234375 -50.765625 L -2.265625 -50.761719 L -2.308594 -50.753906 L -2.363281 -50.742188 L -2.429688 -50.722656 L -2.511719 -50.691406 L -2.601562 -50.644531 L -2.707031 -50.585938 L -2.820312 -50.511719 L -2.945312 -50.417969 L -3.078125 -50.308594 L -3.21875 -50.179688 L -3.363281 -50.035156 L -3.507812 -49.871094 L -3.652344 -49.695312 L -3.796875 -49.507812 L -3.929688 -49.308594 L -4.058594 -49.101562 L -4.175781 -48.886719 L -4.28125 -48.671875 L -4.371094 -48.449219 L -4.449219 -48.226562 L -4.511719 -48.003906 L -4.5625 -47.777344 L -4.601562 -47.550781 L -4.625 -47.320312 L -4.640625 -47.089844 L -4.648438 -46.851562 L -4.648438 -46.609375 L -4.644531 -46.355469 L -4.636719 -46.09375 L -4.628906 -45.820312 L -4.617188 -45.53125 L -4.609375 -45.226562 L -4.601562 -44.902344 L -4.59375 -44.558594 L -4.589844 -44.191406 L -4.585938 -43.796875 L -4.582031 -43.378906 L -4.582031 -42.457031 L -4.585938 -41.953125 L -4.585938 -41.417969 L -4.589844 -40.847656 L -4.597656 -40.246094 L -4.605469 -39.613281 L -4.613281 -38.941406 L -4.625 -38.238281 L -4.636719 -37.5 L -4.652344 -36.726562 L -4.671875 -35.917969 L -4.691406 -35.070312 L -4.714844 -34.191406 L -4.738281 -33.273438 L -4.761719 -32.324219 L -4.785156 -31.339844 L -4.808594 -30.320312 L -4.832031 -29.265625 L -4.847656 -28.179688 L -4.863281 -27.0625 L -4.871094 -25.914062 L -4.878906 -24.734375 L -4.878906 -23.527344 L -4.875 -22.289062 L -4.867188 -21.027344 L -4.855469 -19.738281 L -4.839844 -18.425781 L -4.820312 -17.089844 L -4.800781 -15.734375 L -4.78125 -14.359375 L -4.765625 -12.964844 L -4.746094 -11.554688 L -4.730469 -10.132812 L -4.71875 -8.695312 L -4.707031 -7.25 L -4.699219 -5.796875 L -4.695312 -4.335938 L -4.695312 -1.398438 L -4.699219 0.0703125 L -4.714844 3 L -4.722656 4.460938 L -4.730469 5.914062 L -4.742188 7.355469 L -4.753906 8.785156 L -4.765625 10.207031 L -4.78125 11.609375 L -4.792969 13 L -4.804688 14.367188 L -4.816406 15.71875 L -4.832031 17.050781 L -4.84375 18.355469 L -4.855469 19.640625 L -4.867188 20.898438 L -4.878906 22.128906 L -4.890625 23.332031 L -4.902344 24.507812 L -4.914062 25.652344 L -4.925781 26.765625 L -4.9375 27.851562 L -4.949219 28.902344 L -4.960938 29.921875 L -4.972656 30.910156 L -4.984375 31.863281 L -5 32.78125 L -5.011719 33.667969 L -5.027344 34.519531 L -5.042969 35.339844 L -5.058594 36.121094 L -5.074219 36.875 L -5.089844 37.589844 L -5.109375 38.277344 L -5.128906 38.925781 L -5.148438 39.546875 L -5.167969 40.132812 L -5.1875 40.691406 L -5.210938 41.21875 L -5.234375 41.714844 L -5.253906 42.179688 L -5.273438 42.621094 L -5.292969 43.03125 L -5.3125 43.417969 L -5.328125 43.777344 L -5.34375 44.113281 L -5.355469 44.425781 L -5.363281 44.714844 L -5.371094 44.980469 L -5.378906 45.226562 L -5.382812 45.457031 L -5.386719 45.664062 L -5.386719 46.1875 L -5.390625 46.328125 L -5.390625 46.679688 L -5.394531 46.773438 L -5.402344 46.859375 L -5.410156 46.933594 L -5.421875 46.996094 L -5.4375 47.054688 L -5.457031 47.105469 L -5.484375 47.148438 L -5.515625 47.1875 L -5.585938 47.25 L -5.625 47.273438 L -5.667969 47.292969 L -5.707031 47.308594 L -5.800781 47.339844 L -5.820312 47.34375 L -5.832031 47.34375 L -5.847656 47.351562 L -5.949219 47.398438 L -5.964844 47.546875 L -5.667969 47.839844 L -4.949219 48.285156 L -3.878906 48.816406 L -2.648438 49.339844 L -1.449219 49.777344 L -0.398438 50.109375 L 0.472656 50.355469 L 1.164062 50.558594 L 1.679688 50.730469 L 2.015625 50.867188 L 2.179688 50.945312 L 2.199219 50.957031 L 2.203125 50.957031 L 2.234375 50.972656 L 2.265625 50.984375 L 2.308594 50.996094 L 2.363281 51.003906 L 2.429688 51.003906 L 2.507812 50.996094 L 2.59375 50.972656 L 2.695312 50.933594 L 2.800781 50.878906 L 2.917969 50.796875 L 3.042969 50.695312 L 3.171875 50.570312 L 3.304688 50.425781 L 3.441406 50.257812 L 3.574219 50.074219 L 3.707031 49.871094 L 3.832031 49.652344 L 3.953125 49.425781 L 4.066406 49.191406 L 4.171875 48.945312 L 4.269531 48.699219 L 4.359375 48.453125 L 4.4375 48.203125 L 4.511719 47.953125 L 4.574219 47.703125 L 4.632812 47.453125 L 4.683594 47.199219 L 4.730469 46.945312 L 4.773438 46.6875 L 4.816406 46.421875 L 4.855469 46.148438 L 4.894531 45.863281 L 4.929688 45.566406 L 4.964844 45.253906 L 5 44.921875 L 5.035156 44.574219 L 5.070312 44.203125 L 5.105469 43.808594 L 5.132812 43.386719 L 5.164062 42.9375 L 5.1875 42.460938 L 5.210938 41.957031 L 5.230469 41.417969 L 5.246094 40.851562 L 5.257812 40.25 L 5.261719 39.613281 L 5.265625 38.945312 L 5.265625 38.238281 L 5.261719 37.5 L 5.25 36.726562 L 5.242188 35.917969 L 5.226562 35.070312 L 5.210938 34.191406 L 5.191406 33.273438 L 5.171875 32.324219 L 5.148438 31.339844 L 5.128906 30.320312 L 5.109375 29.265625 L 5.089844 28.179688 L 5.070312 27.0625 L 5.050781 25.914062 L 5.035156 24.734375 L 5.019531 23.527344 L 5.007812 22.289062 L 4.996094 21.027344 L 4.988281 19.738281 L 4.980469 18.425781 L 4.972656 17.089844 L 4.96875 15.734375 L 4.960938 14.359375 L 4.953125 12.964844 L 4.945312 11.554688 L 4.9375 10.132812 L 4.929688 8.695312 L 4.917969 7.25 L 4.910156 5.796875 L 4.898438 4.335938 L 4.863281 -0.0703125 L 4.839844 -3 L 4.832031 -4.460938 L 4.824219 -5.914062 L 4.820312 -7.355469 L 4.816406 -8.785156 L 4.816406 -10.207031 L 4.820312 -11.609375 L 4.824219 -13 L 4.828125 -14.367188 L 4.839844 -15.71875 L 4.847656 -17.050781 L 4.863281 -18.355469 L 4.878906 -19.640625 L 4.898438 -20.898438 L 4.921875 -22.128906 L 4.945312 -23.332031 L 4.972656 -24.507812 L 5.003906 -25.652344 L 5.039062 -26.765625 L 5.074219 -27.851562 L 5.113281 -28.902344 L 5.15625 -29.921875 L 5.199219 -30.910156 L 5.246094 -31.863281 L 5.296875 -32.78125 L 5.34375 -33.667969 L 5.390625 -34.519531 L 5.4375 -35.339844 L 5.484375 -36.121094 L 5.527344 -36.875 L 5.566406 -37.589844 L 5.605469 -38.277344 L 5.636719 -38.925781 L 5.664062 -39.546875 L 5.683594 -40.132812 L 5.703125 -40.691406 L 5.714844 -41.21875 L 5.722656 -41.714844 L 5.726562 -42.179688 L 5.726562 -42.621094 L 5.71875 -43.03125 L 5.707031 -43.417969 L 5.695312 -43.777344 L 5.675781 -44.113281 L 5.652344 -44.425781 L 5.625 -44.714844 L 5.59375 -44.980469 L 5.5625 -45.226562 L 5.527344 -45.457031 L 5.488281 -45.664062 L 5.453125 -45.855469 L 5.414062 -46.027344 L 5.378906 -46.1875 L 5.347656 -46.328125 L 5.320312 -46.460938 L 5.296875 -46.574219 L 5.28125 -46.679688 L 5.277344 -46.773438 L 5.277344 -46.859375 L 5.285156 -46.933594 L 5.300781 -46.996094 L 5.324219 -47.054688 L 5.351562 -47.105469 L 5.386719 -47.148438 L 5.425781 -47.1875 L 5.464844 -47.21875 L 5.507812 -47.25 L 5.546875 -47.273438 L 5.585938 -47.292969 L 5.625 -47.308594 L 5.65625 -47.320312 L 5.679688 -47.332031 L 5.714844 -47.34375 L 5.722656 -47.34375 L 5.738281 -47.351562 L 5.878906 -47.390625 L 6.136719 -47.46875 L 6.363281 -47.589844 L 6.246094 -47.792969 L 5.527344 -48.085938 L 4.230469 -48.457031 L 2.660156 -48.882812 L 1.175781 -49.355469 L -0.0273438 -49.851562 L -0.929688 -50.300781 L -1.566406 -50.609375 L -1.976562 -50.742188 L -2.175781 -50.765625 L -2.199219 -50.765625 " transform="matrix(1,0,0,1,79,104)"/>
<path style="fill-rule:evenodd;fill:rgb(100%,100%,100%);fill-opacity:1;stroke-width:1;stroke-linecap:butt;stroke-linejoin:bevel;stroke:rgb(50.048876%,50.048876%,50.048876%);stroke-opacity:1;stroke-miterlimit:10;" d="M -11.777344 -25.261719 L -11.800781 -25.261719 L -11.980469 -25.25 L -12.328125 -25.226562 L -12.816406 -25.1875 L -13.40625 -25.128906 L -14.042969 -25.035156 L -14.679688 -24.890625 L -15.253906 -24.671875 L -15.730469 -24.351562 L -16.078125 -23.902344 L -16.28125 -23.300781 L -16.351562 -22.515625 L -16.308594 -21.519531 L -16.1875 -20.289062 L -16.019531 -18.800781 L -15.839844 -17.042969 L -15.660156 -15.007812 L -15.5 -12.707031 L -15.359375 -10.164062 L -15.234375 -7.425781 L -15.132812 -4.542969 L -15.046875 -1.585938 L -14.988281 1.375 L -14.957031 4.273438 L -14.949219 7.035156 L -14.96875 9.609375 L -15 11.957031 L -15.035156 14.039062 L -15.070312 15.851562 L -15.097656 17.382812 L -15.125 18.648438 L -15.160156 19.667969 L -15.203125 20.464844 L -15.253906 21.070312 L -15.3125 21.511719 L -15.367188 21.816406 L -15.410156 22.003906 L -15.433594 22.09375 L -15.4375 22.105469 L -15.445312 22.132812 L -15.480469 22.324219 L -15.457031 22.679688 L -15.230469 23.148438 L -14.648438 23.65625 L -13.597656 24.136719 L -12.019531 24.542969 L -9.914062 24.859375 L -7.34375 25.101562 L -4.414062 25.28125 L -1.300781 25.394531 L 1.792969 25.414062 L 4.652344 25.3125 L 7.101562 25.070312 L 9.035156 24.726562 L 10.425781 24.347656 L 11.304688 24.023438 L 11.722656 23.839844 L 11.777344 23.816406 L 11.796875 23.804688 L 11.960938 23.726562 L 12.269531 23.578125 L 12.691406 23.378906 L 13.171875 23.144531 L 13.664062 22.886719 L 14.132812 22.601562 L 14.539062 22.289062 L 14.871094 21.914062 L 15.121094 21.445312 L 15.292969 20.832031 L 15.398438 20.035156 L 15.445312 19.007812 L 15.449219 17.726562 L 15.410156 16.164062 L 15.34375 14.328125 L 15.253906 12.226562 L 15.15625 9.886719 L 15.058594 7.355469 L 14.976562 4.683594 L 14.921875 1.929688 L 14.902344 -0.847656 L 14.921875 -3.585938 L 14.964844 -6.226562 L 15.027344 -8.71875 L 15.097656 -11.023438 L 15.160156 -13.105469 L 15.210938 -14.949219 L 15.246094 -16.546875 L 15.261719 -17.898438 L 15.269531 -19.019531 L 15.269531 -19.921875 L 15.273438 -20.628906 L 15.273438 -21.167969 L 15.28125 -21.566406 L 15.289062 -21.839844 L 15.292969 -22.011719 L 15.296875 -22.097656 L 15.296875 -22.132812 L 15.292969 -22.324219 L 15.207031 -22.679688 L 14.929688 -23.144531 L 14.335938 -23.652344 L 13.3125 -24.121094 L 11.796875 -24.507812 L 9.765625 -24.800781 L 7.253906 -25.015625 L 4.371094 -25.179688 L 1.28125 -25.3125 L -1.800781 -25.40625 L -4.652344 -25.449219 L -7.101562 -25.441406 L -9.035156 -25.394531 L -10.425781 -25.339844 L -11.304688 -25.292969 L -11.722656 -25.265625 L -11.777344 -25.261719 " transform="matrix(1,0,0,1,89,219)"/>
<path style="fill-rule:evenodd;fill:rgb(100%,100%,100%);fill-opacity:1;stroke-width:1;stroke-linecap:butt;stroke-linejoin:bevel;stroke:rgb(50.048876%,50.048876%,50.048876%);stroke-opacity:1;stroke-miterlimit:10;" d="M -7.019531 -25.230469 L -7.027344 -25.234375 L -7.089844 -25.257812 L -7.210938 -25.292969 L -7.382812 -25.332031 L -7.597656 -25.355469 L -7.84375 -25.34375 L -8.109375 -25.28125 L -8.378906 -25.152344 L -8.648438 -24.953125 L -8.898438 -24.675781 L -9.125 -24.328125 L -9.324219 -23.90625 L -9.492188 -23.425781 L -9.628906 -22.882812 L -9.730469 -22.28125 L -9.804688 -21.621094 L -9.855469 -20.894531 L -9.882812 -20.101562 L -9.894531 -19.222656 L -9.898438 -18.257812 L -9.894531 -17.195312 L -9.886719 -16.03125 L -9.878906 -14.761719 L -9.871094 -13.386719 L -9.867188 -11.914062 L -9.867188 -10.339844 L -9.875 -8.683594 L -9.886719 -6.957031 L -9.902344 -5.171875 L -9.921875 -3.34375 L -9.945312 -1.496094 L -9.964844 0.359375 L -9.980469 2.203125 L -9.988281 4.019531 L -9.988281 5.789062 L -9.976562 7.496094 L -9.957031 9.128906 L -9.929688 10.675781 L -9.894531 12.125 L -9.855469 13.472656 L -9.820312 14.710938 L -9.78125 15.839844 L -9.75 16.855469 L -9.71875 17.761719 L -9.691406 18.558594 L -9.664062 19.257812 L -9.644531 19.855469 L -9.621094 20.367188 L -9.605469 20.796875 L -9.59375 21.152344 L -9.589844 21.445312 L -9.585938 21.679688 L -9.59375 21.863281 L -9.601562 22.003906 L -9.609375 22.109375 L -9.621094 22.1875 L -9.632812 22.257812 L -9.632812 22.269531 L -9.640625 22.359375 L -9.59375 22.550781 L -9.410156 22.839844 L -9.003906 23.21875 L -8.308594 23.648438 L -7.304688 24.074219 L -5.996094 24.425781 L -4.421875 24.660156 L -2.652344 24.773438 L -0.78125 24.804688 L 1.066406 24.800781 L 2.773438 24.804688 L 4.234375 24.832031 L 5.386719 24.871094 L 6.214844 24.894531 L 6.738281 24.90625 L 7.019531 24.90625 L 7.027344 24.902344 L 7.089844 24.902344 L 7.214844 24.894531 L 7.390625 24.875 L 7.613281 24.835938 L 7.875 24.765625 L 8.164062 24.65625 L 8.46875 24.5 L 8.773438 24.292969 L 9.0625 24.035156 L 9.328125 23.726562 L 9.554688 23.363281 L 9.730469 22.949219 L 9.855469 22.480469 L 9.925781 21.953125 L 9.945312 21.359375 L 9.921875 20.695312 L 9.867188 19.953125 L 9.800781 19.117188 L 9.730469 18.1875 L 9.671875 17.148438 L 9.636719 16 L 9.632812 14.742188 L 9.65625 13.375 L 9.707031 11.90625 L 9.777344 10.335938 L 9.863281 8.683594 L 9.949219 6.957031 L 10.027344 5.171875 L 10.089844 3.34375 L 10.128906 1.496094 L 10.136719 -0.359375 L 10.121094 -2.203125 L 10.074219 -4.019531 L 10.007812 -5.789062 L 9.921875 -7.496094 L 9.828125 -9.128906 L 9.734375 -10.675781 L 9.648438 -12.125 L 9.574219 -13.472656 L 9.519531 -14.710938 L 9.492188 -15.839844 L 9.492188 -16.855469 L 9.523438 -17.761719 L 9.582031 -18.558594 L 9.667969 -19.257812 L 9.773438 -19.855469 L 9.894531 -20.367188 L 10.027344 -20.796875 L 10.167969 -21.152344 L 10.3125 -21.445312 L 10.457031 -21.679688 L 10.59375 -21.863281 L 10.726562 -22.003906 L 10.839844 -22.109375 L 10.933594 -22.1875 L 11 -22.234375 L 11.035156 -22.257812 L 11.039062 -22.257812 L 11.058594 -22.273438 L 11.226562 -22.371094 L 11.570312 -22.542969 L 12.007812 -22.773438 L 12.300781 -23.0625 L 12.125 -23.414062 L 11.230469 -23.828125 L 9.589844 -24.242188 L 7.398438 -24.574219 L 4.941406 -24.746094 L 2.46875 -24.75 L 0.144531 -24.664062 L -1.9375 -24.59375 L -3.695312 -24.617188 L -5.082031 -24.75 L -6.070312 -24.9375 L -6.691406 -25.113281 L -6.984375 -25.21875 L -7.019531 -25.230469 " transform="matrix(1,0,0,1,114,159)"/>
<path style="fill-rule:evenodd;fill:rgb(100%,100%,100%);fill-opacity:1;stroke-width:1;stroke-linecap:butt;stroke-linejoin:bevel;stroke:rgb(50.048876%,50.048876%,50.048876%);stroke-opacity:1;stroke-miterlimit:10;" d="M -2.199219 -25.082031 L -2.226562 -25.082031 L -2.269531 -25.078125 L -2.339844 -25.070312 L -2.429688 -25.046875 L -2.546875 -25.007812 L -2.683594 -24.945312 L -2.84375 -24.851562 L -3.019531 -24.730469 L -3.207031 -24.570312 L -3.402344 -24.382812 L -3.597656 -24.160156 L -3.785156 -23.90625 L -3.960938 -23.628906 L -4.125 -23.328125 L -4.269531 -23.003906 L -4.402344 -22.664062 L -4.515625 -22.296875 L -4.613281 -21.910156 L -4.699219 -21.496094 L -4.773438 -21.046875 L -4.84375 -20.566406 L -4.898438 -20.039062 L -4.949219 -19.46875 L -4.992188 -18.84375 L -5.023438 -18.160156 L -5.046875 -17.417969 L -5.0625 -16.613281 L -5.070312 -15.742188 L -5.074219 -14.808594 L -5.078125 -13.808594 L -5.082031 -12.75 L -5.089844 -11.632812 L -5.105469 -10.460938 L -5.125 -9.238281 L -5.148438 -7.972656 L -5.175781 -6.667969 L -5.207031 -5.332031 L -5.234375 -3.96875 L -5.257812 -2.589844 L -5.269531 -1.203125 L -5.277344 0.191406 L -5.273438 1.578125 L -5.257812 2.949219 L -5.234375 4.304688 L -5.199219 5.632812 L -5.160156 6.925781 L -5.117188 8.183594 L -5.066406 9.394531 L -5.015625 10.554688 L -4.964844 11.664062 L -4.914062 12.714844 L -4.867188 13.710938 L -4.828125 14.640625 L -4.796875 15.507812 L -4.777344 16.3125 L -4.773438 17.054688 L -4.777344 17.734375 L -4.800781 18.355469 L -4.835938 18.914062 L -4.878906 19.414062 L -4.925781 19.863281 L -4.96875 20.257812 L -5.003906 20.609375 L -5.019531 20.910156 L -5.007812 21.171875 L -4.964844 21.398438 L -4.878906 21.589844 L -4.753906 21.75 L -4.59375 21.882812 L -4.398438 21.996094 L -4.179688 22.082031 L -3.949219 22.15625 L -3.726562 22.210938 L -3.523438 22.253906 L -3.355469 22.28125 L -3.234375 22.300781 L -3.171875 22.3125 L -3.164062 22.3125 L -3.105469 22.320312 L -2.691406 22.402344 L -2.074219 22.597656 L -1.527344 22.933594 L -1.207031 23.386719 L -1.058594 23.890625 L -0.90625 24.371094 L -0.589844 24.804688 L -0.0703125 25.183594 L 0.5625 25.484375 L 1.179688 25.671875 L 1.679688 25.71875 L 2.015625 25.664062 L 2.179688 25.601562 L 2.199219 25.589844 L 2.203125 25.589844 L 2.226562 25.578125 L 2.269531 25.550781 L 2.332031 25.511719 L 2.410156 25.449219 L 2.507812 25.363281 L 2.617188 25.253906 L 2.738281 25.113281 L 2.867188 24.941406 L 3.003906 24.742188 L 3.148438 24.511719 L 3.292969 24.253906 L 3.445312 23.976562 L 3.59375 23.675781 L 3.742188 23.355469 L 3.890625 23.019531 L 4.03125 22.667969 L 4.171875 22.296875 L 4.308594 21.90625 L 4.4375 21.488281 L 4.566406 21.042969 L 4.6875 20.5625 L 4.808594 20.035156 L 4.921875 19.464844 L 5.027344 18.839844 L 5.128906 18.15625 L 5.222656 17.414062 L 5.308594 16.609375 L 5.378906 15.742188 L 5.441406 14.804688 L 5.492188 13.808594 L 5.527344 12.75 L 5.546875 11.632812 L 5.554688 10.460938 L 5.550781 9.238281 L 5.53125 7.972656 L 5.503906 6.667969 L 5.472656 5.332031 L 5.433594 3.96875 L 5.394531 2.589844 L 5.359375 1.203125 L 5.324219 -0.191406 L 5.296875 -1.578125 L 5.273438 -2.949219 L 5.253906 -4.304688 L 5.234375 -5.632812 L 5.214844 -6.925781 L 5.195312 -8.183594 L 5.171875 -9.394531 L 5.144531 -10.554688 L 5.117188 -11.664062 L 5.085938 -12.714844 L 5.058594 -13.710938 L 5.035156 -14.640625 L 5.015625 -15.507812 L 5.003906 -16.3125 L 5 -17.054688 L 5 -17.734375 L 5.007812 -18.355469 L 5.011719 -18.914062 L 5.019531 -19.414062 L 5.019531 -19.863281 L 5.015625 -20.257812 L 5 -20.609375 L 4.980469 -20.910156 L 4.957031 -21.171875 L 4.925781 -21.398438 L 4.898438 -21.589844 L 4.875 -21.75 L 4.859375 -21.882812 L 4.855469 -21.996094 L 4.855469 -22.082031 L 4.867188 -22.15625 L 4.886719 -22.210938 L 4.910156 -22.253906 L 4.929688 -22.28125 L 4.949219 -22.300781 L 4.957031 -22.3125 L 4.96875 -22.324219 L 5.074219 -22.398438 L 5.316406 -22.542969 L 5.605469 -22.761719 L 5.636719 -23.113281 L 5.113281 -23.613281 L 4 -24.183594 L 2.558594 -24.675781 L 1.140625 -24.984375 L -0.0351562 -25.101562 L -0.929688 -25.113281 L -1.566406 -25.09375 L -1.976562 -25.082031 L -2.199219 -25.082031 " transform="matrix(1,0,0,1,79,29)"/>
<path style="fill-rule:evenodd;fill:rgb(100%,100%,100%);fill-opacity:1;stroke-width:1;stroke-linecap:butt;stroke-linejoin:bevel;stroke:rgb(50.048876%,50.048876%,50.048876%);stroke-opacity:1;stroke-miterlimit:10;" d="M -2.199219 -5.027344 L -2.226562 -5.007812 L -2.410156 -4.855469 L -2.742188 -4.5 L -3.144531 -3.933594 L -3.539062 -3.246094 L -3.890625 -2.5625 L -4.226562 -1.921875 L -4.5625 -1.277344 L -4.871094 -0.5625 L -5.070312 0.214844 L -5.09375 0.964844 L -4.964844 1.570312 L -4.78125 1.976562 L -4.652344 2.175781 L -4.632812 2.199219 L -4.617188 2.222656 L -4.496094 2.375 L -4.238281 2.65625 L -3.839844 3.007812 L -3.296875 3.394531 L -2.636719 3.769531 L -1.878906 4.113281 L -1.070312 4.398438 L -0.253906 4.609375 L 0.511719 4.734375 L 1.171875 4.789062 L 1.679688 4.789062 L 2.015625 4.769531 L 2.179688 4.753906 L 2.199219 4.75 L 2.222656 4.75 L 2.386719 4.710938 L 2.726562 4.574219 L 3.210938 4.25 L 3.742188 3.703125 L 4.199219 2.957031 L 4.507812 2.082031 L 4.667969 1.171875 L 4.746094 0.292969 L 4.78125 -0.5 L 4.765625 -1.171875 L 4.679688 -1.679688 L 4.546875 -2.015625 L 4.445312 -2.179688 L 4.433594 -2.199219 L 4.414062 -2.226562 L 4.25 -2.410156 L 3.851562 -2.75 L 3.226562 -3.179688 L 2.515625 -3.648438 L 1.902344 -4.105469 L 1.4375 -4.527344 L 0.996094 -4.894531 L 0.4375 -5.183594 L -0.253906 -5.367188 L -0.96875 -5.410156 L -1.570312 -5.320312 L -1.976562 -5.164062 L -2.175781 -5.042969 L -2.199219 -5.027344 " transform="matrix(1,0,0,1,109,229)"/>
<path style="fill-rule:evenodd;fill:rgb(100%,100%,100%);fill-opacity:1;stroke-width:1;stroke-linecap:butt;stroke-linejoin:bevel;stroke:rgb(50.048876%,50.048876%,50.048876%);stroke-opacity:1;stroke-miterlimit:10;" d="M -7.019531 -9.058594 L -7.054688 -9.058594 L -7.332031 -9.054688 L -7.824219 -9.046875 L -8.441406 -9.023438 L -9.070312 -8.917969 L -9.605469 -8.632812 L -9.988281 -8.054688 L -10.210938 -7.09375 L -10.300781 -5.734375 L -10.296875 -4.015625 L -10.246094 -2.050781 L -10.167969 0.00390625 L -10.070312 1.976562 L -9.921875 3.703125 L -9.703125 5.082031 L -9.421875 6.070312 L -9.144531 6.691406 L -8.96875 6.984375 L -8.945312 7.019531 L -8.925781 7.050781 L -8.488281 7.707031 L -8.117188 8.226562 L -7.671875 8.753906 L -7.113281 9.21875 L -6.371094 9.59375 L -5.363281 9.890625 L -4.054688 10.144531 L -2.472656 10.378906 L -0.710938 10.578125 L 1.089844 10.710938 L 2.777344 10.742188 L 4.234375 10.675781 L 5.386719 10.546875 L 6.214844 10.414062 L 6.738281 10.308594 L 6.988281 10.253906 L 7.050781 10.238281 L 7.28125 10.175781 L 7.6875 10.015625 L 8.171875 9.699219 L 8.648438 9.167969 L 9.050781 8.386719 L 9.347656 7.328125 L 9.519531 5.992188 L 9.578125 4.414062 L 9.539062 2.644531 L 9.441406 0.78125 L 9.339844 -1.066406 L 9.277344 -2.773438 L 9.28125 -4.234375 L 9.351562 -5.386719 L 9.457031 -6.214844 L 9.558594 -6.738281 L 9.617188 -6.988281 L 9.625 -7.019531 L 9.636719 -7.054688 L 9.714844 -7.332031 L 9.871094 -7.824219 L 10.0625 -8.4375 L 10.152344 -9.050781 L 9.941406 -9.550781 L 9.261719 -9.875 L 8.054688 -10.011719 L 6.378906 -9.996094 L 4.375 -9.882812 L 2.214844 -9.726562 L 0.0507812 -9.558594 L -1.960938 -9.398438 L -3.699219 -9.261719 L -5.082031 -9.160156 L -6.070312 -9.097656 L -6.691406 -9.070312 L -6.984375 -9.058594 L -7.019531 -9.058594 " transform="matrix(1,0,0,1,114,194)"/>
<path style="fill-rule:evenodd;fill:rgb(100%,100%,100%);fill-opacity:1;stroke-width:1;stroke-linecap:butt;stroke-linejoin:bevel;stroke:rgb(50.048876%,50.048876%,50.048876%);stroke-opacity:1;stroke-miterlimit:10;" d="M -11.777344 -15 L -11.828125 -15.003906 L -12.210938 -15.019531 L -12.859375 -14.976562 L -13.59375 -14.75 L -14.230469 -14.203125 L -14.664062 -13.226562 L -14.871094 -11.742188 L -14.886719 -9.734375 L -14.789062 -7.242188 L -14.648438 -4.367188 L -14.527344 -1.28125 L -14.460938 1.800781 L -14.464844 4.652344 L -14.523438 7.101562 L -14.609375 9.035156 L -14.6875 10.425781 L -14.746094 11.304688 L -14.777344 11.722656 L -14.777344 11.777344 L -14.78125 11.828125 L -14.792969 12.210938 L -14.75 12.871094 L -14.535156 13.617188 L -14.011719 14.273438 L -13.074219 14.722656 L -11.632812 14.9375 L -9.664062 14.980469 L -7.199219 14.949219 L -4.347656 14.910156 L -1.273438 14.898438 L 1.800781 14.890625 L 4.65625 14.855469 L 7.101562 14.773438 L 9.035156 14.65625 L 10.425781 14.527344 L 11.304688 14.421875 L 11.722656 14.367188 L 11.777344 14.359375 L 11.828125 14.351562 L 12.214844 14.285156 L 12.875 14.132812 L 13.640625 13.832031 L 14.339844 13.304688 L 14.855469 12.441406 L 15.152344 11.144531 L 15.257812 9.335938 L 15.226562 7.011719 L 15.121094 4.253906 L 14.976562 1.234375 L 14.832031 -1.8125 L 14.726562 -4.65625 L 14.679688 -7.101562 L 14.710938 -9.035156 L 14.796875 -10.425781 L 14.898438 -11.304688 L 14.96875 -11.722656 L 14.976562 -11.777344 L 14.988281 -11.835938 L 15.085938 -12.296875 L 15.300781 -13.121094 L 15.582031 -14.136719 L 15.75 -15.121094 L 15.503906 -15.878906 L 14.566406 -16.28125 L 12.804688 -16.332031 L 10.253906 -16.117188 L 7.101562 -15.773438 L 3.609375 -15.410156 L 0.0507812 -15.117188 L -3.300781 -14.929688 L -6.210938 -14.851562 L -8.523438 -14.855469 L -10.183594 -14.90625 L -11.222656 -14.960938 L -11.714844 -14.996094 L -11.777344 -15 " transform="matrix(1,0,0,1,89,169)"/>
<path style="fill-rule:evenodd;fill:rgb(100%,100%,100%);fill-opacity:1;stroke-width:1;stroke-linecap:butt;stroke-linejoin:bevel;stroke:rgb(50.048876%,50.048876%,50.048876%);stroke-opacity:1;stroke-miterlimit:10;" d="M -32.203125 -14.742188 L -32.222656 -14.738281 L -32.363281 -14.699219 L -32.609375 -14.597656 L -32.910156 -14.394531 L -33.21875 -14.03125 L -33.527344 -13.429688 L -33.828125 -12.480469 L -34.113281 -11.046875 L -34.363281 -9.023438 L -34.535156 -6.394531 L -34.613281 -3.28125 L -34.605469 0.0664062 L -34.550781 3.332031 L -34.492188 6.214844 L -34.449219 8.523438 L -34.433594 10.183594 L -34.425781 11.222656 L -34.425781 12.117188 L -34.421875 12.429688 L -34.421875 12.820312 L -34.410156 13.273438 L -34.390625 13.753906 L -34.355469 14.246094 L -34.289062 14.71875 L -34.183594 15.144531 L -34.027344 15.507812 L -33.808594 15.796875 L -33.519531 16.007812 L -33.144531 16.140625 L -32.671875 16.210938 L -32.097656 16.226562 L -31.402344 16.203125 L -30.574219 16.152344 L -29.605469 16.082031 L -28.476562 15.996094 L -27.179688 15.90625 L -25.699219 15.808594 L -24.039062 15.707031 L -22.191406 15.601562 L -20.160156 15.496094 L -17.957031 15.386719 L -15.59375 15.285156 L -13.089844 15.183594 L -10.464844 15.09375 L -7.75 15.011719 L -4.96875 14.9375 L -2.152344 14.875 L 0.664062 14.824219 L 3.460938 14.785156 L 6.203125 14.761719 L 8.863281 14.753906 L 11.421875 14.761719 L 13.851562 14.785156 L 16.140625 14.820312 L 18.273438 14.867188 L 20.238281 14.921875 L 22.027344 14.980469 L 23.644531 15.042969 L 25.085938 15.105469 L 26.359375 15.167969 L 27.464844 15.230469 L 28.421875 15.289062 L 29.230469 15.339844 L 29.914062 15.382812 L 30.476562 15.410156 L 30.933594 15.429688 L 31.300781 15.429688 L 31.589844 15.421875 L 31.8125 15.402344 L 31.976562 15.378906 L 32.089844 15.355469 L 32.164062 15.335938 L 32.199219 15.328125 L 32.203125 15.324219 L 32.21875 15.320312 L 32.347656 15.269531 L 32.597656 15.121094 L 32.949219 14.78125 L 33.359375 14.152344 L 33.78125 13.132812 L 34.148438 11.644531 L 34.417969 9.65625 L 34.5625 7.191406 L 34.59375 4.339844 L 34.542969 1.269531 L 34.46875 -1.804688 L 34.453125 -4.65625 L 34.5625 -7.101562 L 34.820312 -9.035156 L 35.175781 -10.425781 L 35.523438 -11.304688 L 35.742188 -11.722656 L 35.769531 -11.777344 L 35.777344 -11.789062 L 35.84375 -11.902344 L 35.984375 -12.117188 L 36.203125 -12.429688 L 36.507812 -12.820312 L 36.882812 -13.261719 L 37.3125 -13.734375 L 37.742188 -14.199219 L 38.121094 -14.628906 L 38.382812 -15 L 38.472656 -15.289062 L 38.34375 -15.488281 L 37.972656 -15.601562 L 37.355469 -15.636719 L 36.503906 -15.609375 L 35.453125 -15.546875 L 34.230469 -15.464844 L 32.871094 -15.386719 L 31.398438 -15.320312 L 29.824219 -15.277344 L 28.152344 -15.253906 L 26.378906 -15.253906 L 24.492188 -15.269531 L 22.480469 -15.296875 L 20.339844 -15.328125 L 18.0625 -15.359375 L 15.652344 -15.386719 L 13.121094 -15.40625 L 10.480469 -15.417969 L 7.757812 -15.421875 L 4.972656 -15.417969 L 2.15625 -15.414062 L -0.664062 -15.40625 L -3.460938 -15.402344 L -6.203125 -15.402344 L -8.863281 -15.40625 L -11.421875 -15.410156 L -13.851562 -15.417969 L -16.140625 -15.417969 L -18.273438 -15.410156 L -20.238281 -15.386719 L -22.027344 -15.347656 L -23.644531 -15.292969 L -25.085938 -15.226562 L -26.359375 -15.15625 L -27.464844 -15.082031 L -28.421875 -15.011719 L -29.230469 -14.953125 L -29.914062 -14.90625 L -30.476562 -14.871094 L -30.933594 -14.847656 L -31.300781 -14.828125 L -31.589844 -14.8125 L -31.8125 -14.792969 L -31.976562 -14.777344 L -32.089844 -14.761719 L -32.164062 -14.75 L -32.199219 -14.742188 L -32.203125 -14.742188 " transform="matrix(1,0,0,1,39,124)"/>
<path style="fill-rule:evenodd;fill:rgb(100%,100%,100%);fill-opacity:1;stroke-width:1;stroke-linecap:butt;stroke-linejoin:bevel;stroke:rgb(50.048876%,50.048876%,50.048876%);stroke-opacity:1;stroke-miterlimit:10;" d="M -12.230469 -10.867188 L -12.242188 -10.886719 L -12.351562 -11.015625 L -12.558594 -11.140625 L -12.847656 -11.058594 L -13.210938 -10.597656 L -13.621094 -9.683594 L -14.046875 -8.347656 L -14.453125 -6.6875 L -14.792969 -4.816406 L -15.054688 -2.84375 L -15.234375 -0.859375 L -15.359375 1.042969 L -15.457031 2.765625 L -15.53125 4.234375 L -15.578125 5.386719 L -15.597656 6.214844 L -15.589844 6.738281 L -15.582031 6.988281 L -15.578125 7.019531 L -15.578125 7.035156 L -15.570312 7.144531 L -15.550781 7.351562 L -15.515625 7.640625 L -15.445312 7.992188 L -15.328125 8.367188 L -15.152344 8.734375 L -14.90625 9.0625 L -14.578125 9.324219 L -14.160156 9.503906 L -13.648438 9.605469 L -13.046875 9.640625 L -12.34375 9.632812 L -11.53125 9.613281 L -10.609375 9.597656 L -9.558594 9.605469 L -8.378906 9.648438 L -7.074219 9.71875 L -5.644531 9.8125 L -4.117188 9.910156 L -2.519531 10.007812 L -0.878906 10.085938 L 0.761719 10.144531 L 2.363281 10.175781 L 3.890625 10.183594 L 5.316406 10.175781 L 6.613281 10.152344 L 7.765625 10.125 L 8.769531 10.089844 L 9.617188 10.058594 L 10.316406 10.035156 L 10.882812 10.027344 L 11.324219 10.035156 L 11.65625 10.0625 L 11.902344 10.101562 L 12.070312 10.148438 L 12.171875 10.1875 L 12.222656 10.210938 L 12.230469 10.214844 L 12.242188 10.21875 L 12.355469 10.257812 L 12.601562 10.246094 L 12.984375 10.074219 L 13.484375 9.621094 L 14.042969 8.828125 L 14.578125 7.691406 L 15.015625 6.246094 L 15.3125 4.566406 L 15.464844 2.722656 L 15.496094 0.808594 L 15.421875 -1.058594 L 15.28125 -2.769531 L 15.101562 -4.234375 L 14.914062 -5.386719 L 14.753906 -6.214844 L 14.640625 -6.738281 L 14.582031 -6.988281 L 14.542969 -7.144531 L 14.492188 -7.351562 L 14.414062 -7.644531 L 14.308594 -8 L 14.175781 -8.390625 L 14.007812 -8.789062 L 13.804688 -9.167969 L 13.558594 -9.5 L 13.253906 -9.773438 L 12.878906 -9.980469 L 12.421875 -10.117188 L 11.863281 -10.195312 L 11.183594 -10.230469 L 10.367188 -10.238281 L 9.402344 -10.230469 L 8.285156 -10.222656 L 7.019531 -10.214844 L 5.617188 -10.203125 L 4.105469 -10.183594 L 2.511719 -10.148438 L 0.875 -10.089844 L -0.761719 -10.011719 L -2.363281 -9.910156 L -3.890625 -9.800781 L -5.316406 -9.695312 L -6.613281 -9.617188 L -7.765625 -9.574219 L -8.769531 -9.578125 L -9.617188 -9.636719 L -10.316406 -9.746094 L -10.882812 -9.898438 L -11.324219 -10.082031 L -11.65625 -10.285156 L -11.902344 -10.484375 L -12.070312 -10.65625 L -12.171875 -10.789062 L -12.222656 -10.859375 L -12.230469 -10.867188 " transform="matrix(1,0,0,1,119,214)"/>
<path style="fill-rule:evenodd;fill:rgb(100%,100%,100%);fill-opacity:1;stroke-width:1;stroke-linecap:butt;stroke-linejoin:bevel;stroke:rgb(50.048876%,50.048876%,50.048876%);stroke-opacity:1;stroke-miterlimit:10;" d="M -17.296875 -4.816406 L -17.3125 -4.8125 L -17.402344 -4.796875 L -17.566406 -4.753906 L -17.789062 -4.621094 L -18.097656 -4.300781 L -18.488281 -3.714844 L -18.90625 -2.871094 L -19.265625 -1.867188 L -19.496094 -0.828125 L -19.617188 0.132812 L -19.6875 0.949219 L -19.757812 1.570312 L -19.835938 1.976562 L -19.886719 2.175781 L -19.890625 2.199219 L -19.894531 2.203125 L -19.898438 2.230469 L -19.910156 2.289062 L -19.914062 2.375 L -19.90625 2.488281 L -19.871094 2.632812 L -19.800781 2.800781 L -19.6875 2.992188 L -19.523438 3.203125 L -19.316406 3.421875 L -19.058594 3.648438 L -18.757812 3.878906 L -18.417969 4.101562 L -18.039062 4.3125 L -17.628906 4.507812 L -17.183594 4.683594 L -16.703125 4.832031 L -16.179688 4.957031 L -15.613281 5.050781 L -14.988281 5.113281 L -14.308594 5.144531 L -13.558594 5.148438 L -12.742188 5.128906 L -11.851562 5.09375 L -10.890625 5.046875 L -9.855469 4.992188 L -8.75 4.9375 L -7.585938 4.882812 L -6.363281 4.832031 L -5.09375 4.785156 L -3.789062 4.742188 L -2.457031 4.707031 L -1.109375 4.679688 L 0.242188 4.660156 L 1.585938 4.652344 L 2.910156 4.65625 L 4.207031 4.667969 L 5.460938 4.683594 L 6.667969 4.707031 L 7.820312 4.726562 L 8.910156 4.742188 L 9.929688 4.75 L 12.542969 4.75 L 13.265625 4.761719 L 13.910156 4.78125 L 14.480469 4.820312 L 14.984375 4.878906 L 15.421875 4.953125 L 15.796875 5.046875 L 16.113281 5.148438 L 16.382812 5.253906 L 16.605469 5.359375 L 16.785156 5.464844 L 16.933594 5.558594 L 17.046875 5.640625 L 17.136719 5.710938 L 17.203125 5.769531 L 17.25 5.8125 L 17.3125 5.875 L 17.402344 5.972656 L 17.570312 6.140625 L 17.8125 6.21875 L 18.175781 5.960938 L 18.679688 5.183594 L 19.257812 3.933594 L 19.769531 2.472656 L 20.089844 1.089844 L 20.191406 -0.0546875 L 20.140625 -0.933594 L 20.039062 -1.566406 L 19.953125 -1.976562 L 19.910156 -2.175781 L 19.902344 -2.199219 L 19.902344 -2.203125 L 19.894531 -2.234375 L 19.882812 -2.292969 L 19.863281 -2.378906 L 19.835938 -2.488281 L 19.800781 -2.621094 L 19.753906 -2.777344 L 19.691406 -2.949219 L 19.605469 -3.132812 L 19.492188 -3.332031 L 19.34375 -3.539062 L 19.160156 -3.746094 L 18.933594 -3.957031 L 18.667969 -4.160156 L 18.359375 -4.355469 L 18.003906 -4.535156 L 17.605469 -4.699219 L 17.160156 -4.839844 L 16.664062 -4.960938 L 16.113281 -5.058594 L 15.503906 -5.136719 L 14.824219 -5.191406 L 14.074219 -5.226562 L 13.246094 -5.246094 L 12.339844 -5.253906 L 11.347656 -5.257812 L 10.277344 -5.261719 L 9.132812 -5.265625 L 7.917969 -5.269531 L 6.636719 -5.28125 L 5.308594 -5.296875 L 3.9375 -5.308594 L 2.539062 -5.320312 L 1.125 -5.328125 L -0.289062 -5.328125 L -1.695312 -5.316406 L -3.078125 -5.296875 L -4.425781 -5.265625 L -5.722656 -5.226562 L -6.96875 -5.179688 L -8.148438 -5.128906 L -9.257812 -5.070312 L -10.289062 -5.011719 L -11.242188 -4.957031 L -12.113281 -4.90625 L -12.902344 -4.867188 L -13.605469 -4.835938 L -14.234375 -4.816406 L -14.785156 -4.8125 L -15.261719 -4.816406 L -15.671875 -4.824219 L -16.019531 -4.835938 L -16.3125 -4.84375 L -16.550781 -4.851562 L -16.75 -4.851562 L -16.90625 -4.847656 L -17.03125 -4.84375 L -17.128906 -4.835938 L -17.199219 -4.828125 L -17.25 -4.820312 L -17.28125 -4.816406 L -17.296875 -4.816406 " transform="matrix(1,0,0,1,144,159)"/>
<path style="fill-rule:evenodd;fill:rgb(100%,100%,100%);fill-opacity:1;stroke-width:1;stroke-linecap:butt;stroke-linejoin:bevel;stroke:rgb(50.048876%,50.048876%,50.048876%);stroke-opacity:1;stroke-miterlimit:10;" d="M -7.019531 -14.714844 L -7.035156 -14.703125 L -7.132812 -14.628906 L -7.3125 -14.480469 L -7.558594 -14.277344 L -7.839844 -14.027344 L -8.128906 -13.742188 L -8.402344 -13.4375 L -8.644531 -13.105469 L -8.855469 -12.746094 L -9.027344 -12.347656 L -9.160156 -11.886719 L -9.261719 -11.339844 L -9.335938 -10.691406 L -9.386719 -9.921875 L -9.429688 -9.015625 L -9.46875 -7.96875 L -9.515625 -6.789062 L -9.578125 -5.484375 L -9.652344 -4.078125 L -9.738281 -2.59375 L -9.832031 -1.066406 L -9.917969 0.46875 L -9.992188 1.984375 L -10.046875 3.445312 L -10.074219 4.824219 L -10.089844 6.097656 L -10.089844 8.269531 L -10.105469 9.15625 L -10.132812 9.902344 L -10.183594 10.519531 L -10.253906 11.019531 L -10.332031 11.414062 L -10.410156 11.710938 L -10.476562 11.929688 L -10.527344 12.082031 L -10.5625 12.179688 L -10.582031 12.222656 L -10.582031 12.230469 L -10.589844 12.246094 L -10.636719 12.367188 L -10.707031 12.582031 L -10.738281 12.859375 L -10.609375 13.183594 L -10.171875 13.550781 L -9.316406 13.953125 L -8.007812 14.347656 L -6.304688 14.679688 L -4.316406 14.890625 L -2.183594 14.964844 L -0.0390625 14.941406 L 1.964844 14.894531 L 3.703125 14.898438 L 5.082031 15 L 6.070312 15.1875 L 6.691406 15.394531 L 6.984375 15.53125 L 7.019531 15.550781 L 7.035156 15.558594 L 7.144531 15.617188 L 7.351562 15.746094 L 7.640625 15.945312 L 7.992188 16.210938 L 8.371094 16.5 L 8.75 16.753906 L 9.097656 16.886719 L 9.398438 16.828125 L 9.636719 16.523438 L 9.816406 15.953125 L 9.941406 15.132812 L 10.019531 14.109375 L 10.0625 12.929688 L 10.082031 11.640625 L 10.085938 10.269531 L 10.070312 8.835938 L 10.046875 7.347656 L 10.015625 5.796875 L 9.972656 4.195312 L 9.921875 2.554688 L 9.867188 0.894531 L 9.8125 -0.753906 L 9.769531 -2.359375 L 9.738281 -3.890625 L 9.730469 -5.316406 L 9.753906 -6.613281 L 9.8125 -7.765625 L 9.910156 -8.769531 L 10.039062 -9.617188 L 10.195312 -10.316406 L 10.359375 -10.882812 L 10.515625 -11.324219 L 10.644531 -11.65625 L 10.742188 -11.902344 L 10.804688 -12.070312 L 10.839844 -12.171875 L 10.855469 -12.222656 L 10.855469 -12.230469 L 10.859375 -12.246094 L 10.886719 -12.367188 L 10.898438 -12.582031 L 10.816406 -12.859375 L 10.539062 -13.179688 L 9.964844 -13.546875 L 9.039062 -13.945312 L 7.738281 -14.347656 L 6.097656 -14.722656 L 4.191406 -15.054688 L 2.121094 -15.339844 L 0.015625 -15.5625 L -1.972656 -15.699219 L -3.703125 -15.699219 L -5.082031 -15.539062 L -6.070312 -15.25 L -6.691406 -14.941406 L -6.984375 -14.742188 L -7.019531 -14.714844 " transform="matrix(1,0,0,1,94,104)"/>
</g>
</svg>
