<?xml version="1.0" encoding="UTF-8"?>
<svg xmlns="http://www.w3.org/2000/svg" xmlns:xlink="http://www.w3.org/1999/xlink" width="217.013156" height="248.472136" viewBox="0 0 217.013156 248.472136">
<path fill-rule="evenodd" fill="rgb(100%, 100%, 100%)" fill-opacity="1" stroke-width="1" stroke-linecap="butt" stroke-linejoin="bevel" stroke="rgb(50.048876%, 50.048876%, 50.048876%)" stroke-opacity="1" stroke-miterlimit="10" d="M -2.198893 -50.066406 L -2.210611 -50.066406 L -2.234049 -50.070312 L -2.265299 -50.070312 L -2.308268 -50.074219 L -2.359049 -50.082031 L -2.417643 -50.085938 L -2.487955 -50.09375 L -2.56608 -50.097656 L -2.652018 -50.105469 L -2.749674 -50.105469 L -2.851236 -50.101562 L -2.956705 -50.09375 L -3.073893 -50.078125 L -3.194986 -50.046875 L -3.319986 -50.003906 L -3.448893 -49.949219 L -3.577799 -49.875 L -3.710611 -49.785156 L -3.843424 -49.675781 L -3.97233 -49.546875 L -4.09733 -49.402344 L -4.218424 -49.242188 L -4.327799 -49.066406 L -4.433268 -48.878906 L -4.527018 -48.679688 L -4.609049 -48.46875 L -4.683268 -48.246094 L -4.745768 -48.015625 L -4.796549 -47.78125 L -4.839518 -47.539062 L -4.870768 -47.285156 L -4.894205 -47.027344 L -4.913736 -46.757812 L -4.925455 -46.480469 L -4.933268 -46.1875 L -4.937174 -45.882812 L -4.94108 -45.5625 L -4.937174 -45.226562 L -4.937174 -44.867188 L -4.933268 -44.484375 L -4.929361 -44.078125 L -4.925455 -43.644531 L -4.921549 -43.183594 L -4.921549 -41.03125 L -4.925455 -40.410156 L -4.929361 -39.75 L -4.937174 -39.054688 L -4.944986 -38.324219 L -4.952799 -37.554688 L -4.964518 -36.75 L -4.976236 -35.90625 L -4.987955 -35.023438 L -4.999674 -34.105469 L -5.011393 -33.152344 L -5.019205 -32.160156 L -5.030924 -31.132812 L -5.038736 -30.066406 L -5.042643 -28.96875 L -5.050455 -27.835938 L -5.054361 -26.671875 L -5.058268 -25.472656 L -5.062174 -24.246094 L -5.06608 -22.984375 L -5.069986 -21.699219 L -5.073893 -20.386719 L -5.073893 -14.894531 L -5.069986 -13.46875 L -5.062174 -12.027344 L -5.054361 -10.574219 L -5.042643 -9.105469 L -5.030924 -7.625 L -5.011393 -6.136719 L -4.991861 -4.644531 L -4.97233 -3.144531 L -4.948893 -1.644531 L -4.929361 -0.140625 L -4.90983 1.359375 L -4.890299 2.855469 L -4.87858 4.347656 L -4.870768 5.832031 L -4.866861 7.304688 L -4.870768 8.765625 L -4.882486 10.214844 L -4.898111 11.644531 L -4.925455 13.058594 L -4.956705 14.457031 L -4.991861 15.828125 L -5.030924 17.183594 L -5.073893 18.511719 L -5.116861 19.8125 L -5.15983 21.089844 L -5.198893 22.339844 L -5.237955 23.558594 L -5.269205 24.746094 L -5.296549 25.90625 L -5.319986 27.03125 L -5.335611 28.125 L -5.343424 29.1875 L -5.34733 30.214844 L -5.34733 31.207031 L -5.343424 32.164062 L -5.331705 33.085938 L -5.319986 33.976562 L -5.304361 34.828125 L -5.288736 35.644531 L -5.273111 36.429688 L -5.257486 37.175781 L -5.241861 37.890625 L -5.226236 38.570312 L -5.214518 39.214844 L -5.202799 39.828125 L -5.187174 40.410156 L -5.175455 40.960938 L -5.163736 41.476562 L -5.152018 41.964844 L -5.136393 42.425781 L -5.124674 42.855469 L -5.109049 43.257812 L -5.093424 43.632812 L -5.081705 43.984375 L -5.06608 44.308594 L -5.054361 44.609375 L -5.046549 44.886719 L -5.03483 45.144531 L -5.030924 45.382812 L -5.027018 45.597656 L -5.023111 45.796875 L -5.023111 45.980469 L -5.027018 46.144531 L -5.027018 46.292969 L -5.030924 46.425781 L -5.030924 46.546875 L -5.027018 46.65625 L -5.023111 46.753906 L -5.011393 46.839844 L -4.999674 46.917969 L -4.980143 46.988281 L -4.960611 47.046875 L -4.933268 47.097656 L -4.902018 47.144531 L -4.870768 47.183594 L -4.800455 47.246094 L -4.765299 47.269531 L -4.734049 47.289062 L -4.702799 47.304688 L -4.675455 47.320312 L -4.652018 47.332031 L -4.636393 47.335938 L -4.624674 47.34375 L -4.616861 47.34375 L -4.601236 47.351562 L -4.480143 47.390625 L -4.218424 47.480469 L -3.804361 47.65625 L -3.280924 48.007812 L -2.702799 48.546875 L -2.081705 49.164062 L -1.390299 49.65625 L -0.616861 49.890625 L 0.199545 49.894531 L 0.961264 49.8125 L 1.570639 49.761719 L 1.976889 49.777344 L 2.176107 49.8125 L 2.199545 49.820312 L 2.211264 49.820312 L 2.234701 49.828125 L 2.265951 49.835938 L 2.30892 49.847656 L 2.359701 49.863281 L 2.418295 49.886719 L 2.488607 49.910156 L 2.562826 49.941406 L 2.734701 50.003906 L 2.828451 50.03125 L 2.930014 50.058594 L 3.02767 50.074219 L 3.133139 50.082031 L 3.234701 50.074219 L 3.34017 50.050781 L 3.441732 50.007812 L 3.543295 49.941406 L 3.640951 49.855469 L 3.734701 49.746094 L 3.828451 49.617188 L 3.914389 49.460938 L 3.99642 49.289062 L 4.074545 49.097656 L 4.148764 48.890625 L 4.21517 48.667969 L 4.27767 48.4375 L 4.336264 48.191406 L 4.387045 47.941406 L 4.437826 47.679688 L 4.484701 47.414062 L 4.523764 47.136719 L 4.562826 46.855469 L 4.597982 46.5625 L 4.633139 46.257812 L 4.664389 45.941406 L 4.695639 45.609375 L 4.726889 45.261719 L 4.754232 44.894531 L 4.781576 44.507812 L 4.805014 44.097656 L 4.824545 43.660156 L 4.844076 43.195312 L 4.859701 42.703125 L 4.875326 42.179688 L 4.883139 41.625 L 4.887045 41.035156 L 4.887045 39.75 L 4.879232 39.054688 L 4.87142 38.324219 L 4.863607 37.554688 L 4.847982 36.75 L 4.836264 35.90625 L 4.820639 35.023438 L 4.805014 34.105469 L 4.793295 33.152344 L 4.77767 32.160156 L 4.765951 31.132812 L 4.754232 30.066406 L 4.74642 28.96875 L 4.738607 27.835938 L 4.730795 26.671875 L 4.722982 25.472656 L 4.719076 24.246094 L 4.71517 22.984375 L 4.71517 20.386719 L 4.719076 19.046875 L 4.722982 17.683594 L 4.730795 16.300781 L 4.74642 14.894531 L 4.762045 13.46875 L 4.781576 12.027344 L 4.805014 10.574219 L 4.832357 9.105469 L 4.863607 7.625 L 4.898764 6.136719 L 4.93392 4.644531 L 5.019857 1.644531 L 5.066732 0.140625 L 5.113607 -1.359375 L 5.160482 -2.855469 L 5.207357 -4.347656 L 5.250326 -5.832031 L 5.293295 -7.304688 L 5.332357 -8.765625 L 5.367514 -10.214844 L 5.398764 -11.644531 L 5.422201 -13.058594 L 5.441732 -14.457031 L 5.449545 -15.828125 L 5.453451 -17.183594 L 5.449545 -18.511719 L 5.441732 -19.8125 L 5.426107 -21.089844 L 5.406576 -22.339844 L 5.383139 -23.558594 L 5.359701 -24.746094 L 5.332357 -25.90625 L 5.30892 -27.03125 L 5.285482 -28.125 L 5.262045 -29.1875 L 5.24642 -30.214844 L 5.234701 -31.207031 L 5.226889 -32.164062 L 5.226889 -33.085938 L 5.234701 -33.976562 L 5.242514 -34.828125 L 5.262045 -35.644531 L 5.281576 -36.429688 L 5.305014 -37.175781 L 5.336264 -37.890625 L 5.363607 -38.570312 L 5.398764 -39.214844 L 5.430014 -39.828125 L 5.461264 -40.410156 L 5.492514 -40.960938 L 5.523764 -41.476562 L 5.551107 -41.964844 L 5.578451 -42.425781 L 5.601889 -42.855469 L 5.625326 -43.257812 L 5.644857 -43.632812 L 5.660482 -43.984375 L 5.676107 -44.308594 L 5.68392 -44.609375 L 5.695639 -44.886719 L 5.699545 -45.144531 L 5.699545 -45.382812 L 5.695639 -45.597656 L 5.687826 -45.796875 L 5.672201 -45.980469 L 5.65267 -46.144531 L 5.625326 -46.292969 L 5.59017 -46.425781 L 5.551107 -46.546875 L 5.504232 -46.65625 L 5.449545 -46.753906 L 5.394857 -46.839844 L 5.336264 -46.917969 L 5.273764 -46.988281 L 5.21517 -47.046875 L 5.156576 -47.097656 L 5.105795 -47.144531 L 5.05892 -47.183594 L 5.015951 -47.214844 L 4.980795 -47.246094 L 4.953451 -47.269531 L 4.918295 -47.304688 L 4.910482 -47.320312 L 4.90267 -47.332031 L 4.898764 -47.335938 L 4.898764 -47.34375 L 4.867514 -47.40625 L 4.734701 -47.582031 L 4.406576 -47.945312 L 3.832357 -48.484375 L 3.047201 -49.085938 L 2.140951 -49.605469 L 1.199545 -49.941406 L 0.305014 -50.085938 L -0.499674 -50.101562 L -1.167643 -50.074219 L -1.679361 -50.058594 L -2.015299 -50.058594 L -2.179361 -50.066406 L -2.198893 -50.066406 " transform="matrix(1, 0, 0, 1, 95.40983, 104)"/>
<path fill-rule="evenodd" fill="rgb(100%, 100%, 100%)" fill-opacity="1" stroke-width="1" stroke-linecap="butt" stroke-linejoin="bevel" stroke="rgb(50.048876%, 50.048876%, 50.048876%)" stroke-opacity="1" stroke-miterlimit="10" d="M -11.777018 -24.613281 L -11.796549 -24.613281 L -11.960611 -24.628906 L -12.269205 -24.648438 L -12.679361 -24.644531 L -13.148111 -24.59375 L -13.624674 -24.464844 L -14.062174 -24.234375 L -14.429361 -23.875 L -14.714518 -23.371094 L -14.90983 -22.710938 L -15.023111 -21.871094 L -15.069986 -20.84375 L -15.069986 -19.601562 L -15.038736 -18.136719 L -14.995768 -16.4375 L -14.952799 -14.496094 L -14.917643 -12.324219 L -14.898111 -9.941406 L -14.890299 -7.382812 L -14.890299 -4.695312 L -14.898111 -1.933594 L -14.898111 0.847656 L -14.890299 3.585938 L -14.870768 6.226562 L -14.839518 8.71875 L -14.804361 11.023438 L -14.769205 13.105469 L -14.745768 14.949219 L -14.741861 16.546875 L -14.765299 17.898438 L -14.819986 19.019531 L -14.913736 19.921875 L -15.03483 20.628906 L -15.175455 21.167969 L -15.323893 21.566406 L -15.460611 21.839844 L -15.562174 22.011719 L -15.616861 22.097656 L -15.624674 22.105469 L -15.644205 22.136719 L -15.819986 22.351562 L -16.183268 22.734375 L -16.65983 23.199219 L -16.995768 23.667969 L -16.808268 24.082031 L -15.765299 24.394531 L -13.745768 24.582031 L -10.882486 24.636719 L -7.452799 24.605469 L -3.769205 24.5625 L -0.109049 24.597656 L 3.285482 24.753906 L 6.207357 25.015625 L 8.523764 25.320312 L 10.18392 25.597656 L 11.222982 25.796875 L 11.71517 25.894531 L 11.77767 25.90625 L 11.801107 25.910156 L 11.980795 25.949219 L 12.328451 26.019531 L 12.816732 26.113281 L 13.40267 26.214844 L 14.035482 26.289062 L 14.656576 26.289062 L 15.219076 26.164062 L 15.676107 25.871094 L 16.004232 25.367188 L 16.199545 24.632812 L 16.273764 23.660156 L 16.250326 22.449219 L 16.156576 21 L 16.019857 19.3125 L 15.863607 17.386719 L 15.699545 15.222656 L 15.547201 12.832031 L 15.40267 10.234375 L 15.269857 7.460938 L 15.15267 4.558594 L 15.055014 1.59375 L 14.976889 -1.375 L 14.918295 -4.269531 L 14.883139 -7.035156 L 14.875326 -9.609375 L 14.890951 -11.957031 L 14.926107 -14.039062 L 14.976889 -15.851562 L 15.035482 -17.382812 L 15.101889 -18.648438 L 15.172201 -19.667969 L 15.24642 -20.464844 L 15.324545 -21.070312 L 15.398764 -21.511719 L 15.472982 -21.816406 L 15.52767 -22.003906 L 15.55892 -22.09375 L 15.562826 -22.105469 L 15.570639 -22.132812 L 15.62142 -22.320312 L 15.62142 -22.65625 L 15.406576 -23.074219 L 14.820639 -23.515625 L 13.750326 -23.929688 L 12.137045 -24.292969 L 9.992514 -24.582031 L 7.387045 -24.777344 L 4.437826 -24.875 L 1.30892 -24.867188 L -1.788736 -24.78125 L -4.652018 -24.664062 L -7.101236 -24.5625 L -9.03483 -24.515625 L -10.425455 -24.527344 L -11.304361 -24.570312 L -11.72233 -24.609375 L -11.777018 -24.613281 " transform="matrix(1, 0, 0, 1, 105.40983, 219)"/>
<path fill-rule="evenodd" fill="rgb(100%, 100%, 100%)" fill-opacity="1" stroke-width="1" stroke-linecap="butt" stroke-linejoin="bevel" stroke="rgb(50.048876%, 50.048876%, 50.048876%)" stroke-opacity="1" stroke-miterlimit="10" d="M -7.019857 -25.800781 L -7.02767 -25.804688 L -7.09017 -25.839844 L -7.211264 -25.894531 L -7.383139 -25.960938 L -7.59017 -26.007812 L -7.828451 -26.011719 L -8.078451 -25.957031 L -8.328451 -25.820312 L -8.566732 -25.59375 L -8.789389 -25.277344 L -8.984701 -24.875 L -9.15267 -24.394531 L -9.293295 -23.839844 L -9.410482 -23.230469 L -9.504232 -22.5625 L -9.582357 -21.839844 L -9.644857 -21.0625 L -9.699545 -20.222656 L -9.750326 -19.308594 L -9.793295 -18.316406 L -9.836264 -17.234375 L -9.875326 -16.058594 L -9.910482 -14.777344 L -9.93392 -13.398438 L -9.949545 -11.917969 L -9.945639 -10.34375 L -9.930014 -8.6875 L -9.894857 -6.957031 L -9.847982 -5.171875 L -9.793295 -3.347656 L -9.734701 -1.496094 L -9.680014 0.359375 L -9.637045 2.203125 L -9.605795 4.019531 L -9.594076 5.789062 L -9.597982 7.496094 L -9.617514 9.128906 L -9.644857 10.675781 L -9.68392 12.125 L -9.722982 13.472656 L -9.765951 14.710938 L -9.805014 15.839844 L -9.844076 16.855469 L -9.883139 17.761719 L -9.918295 18.558594 L -9.949545 19.257812 L -9.980795 19.855469 L -10.008139 20.367188 L -10.02767 20.796875 L -10.035482 21.152344 L -10.035482 21.445312 L -10.019857 21.679688 L -9.99642 21.863281 L -9.969076 22.003906 L -9.93392 22.109375 L -9.906576 22.1875 L -9.883139 22.234375 L -9.859701 22.269531 L -9.801107 22.363281 L -9.656576 22.570312 L -9.367514 22.90625 L -8.887045 23.371094 L -8.164389 23.921875 L -7.172201 24.476562 L -5.894857 24.929688 L -4.359701 25.203125 L -2.62142 25.269531 L -0.769857 25.144531 L 1.069986 24.90625 L 2.773111 24.632812 L 4.234049 24.394531 L 5.386393 24.21875 L 6.214518 24.109375 L 6.737955 24.054688 L 6.987955 24.03125 L 7.019205 24.027344 L 7.027018 24.027344 L 7.089518 24.019531 L 7.206705 24.007812 L 7.370768 23.980469 L 7.569986 23.941406 L 7.792643 23.878906 L 8.019205 23.789062 L 8.249674 23.671875 L 8.468424 23.519531 L 8.679361 23.328125 L 8.874674 23.09375 L 9.054361 22.816406 L 9.218424 22.484375 L 9.362955 22.101562 L 9.491861 21.648438 L 9.59733 21.125 L 9.687174 20.519531 L 9.761393 19.824219 L 9.812174 19.027344 L 9.851236 18.125 L 9.870768 17.105469 L 9.87858 15.976562 L 9.870768 14.726562 L 9.851236 13.367188 L 9.819986 11.898438 L 9.788736 10.335938 L 9.75358 8.683594 L 9.730143 6.957031 L 9.714518 5.171875 L 9.714518 3.34375 L 9.726236 1.496094 L 9.75358 -0.359375 L 9.788736 -2.203125 L 9.827799 -4.019531 L 9.866861 -5.789062 L 9.902018 -7.496094 L 9.921549 -9.128906 L 9.929361 -10.675781 L 9.929361 -12.125 L 9.917643 -13.472656 L 9.902018 -14.710938 L 9.886393 -15.839844 L 9.882486 -16.855469 L 9.894205 -17.761719 L 9.929361 -18.558594 L 9.991861 -19.257812 L 10.081705 -19.855469 L 10.194986 -20.367188 L 10.323893 -20.796875 L 10.464518 -21.152344 L 10.609049 -21.445312 L 10.745768 -21.679688 L 10.870768 -21.863281 L 10.976236 -22.003906 L 11.058268 -22.109375 L 11.116861 -22.1875 L 11.175455 -22.257812 L 11.187174 -22.273438 L 11.265299 -22.371094 L 11.390299 -22.542969 L 11.468424 -22.761719 L 11.343424 -23.011719 L 10.851236 -23.308594 L 9.874674 -23.664062 L 8.413736 -24.066406 L 6.562174 -24.460938 L 4.452799 -24.78125 L 2.241861 -24.964844 L 0.0582676 -25.027344 L -1.961264 -25.027344 L -3.699545 -25.0625 L -5.082357 -25.1875 L -6.070639 -25.402344 L -6.691732 -25.632812 L -6.984701 -25.78125 L -7.019857 -25.800781 " transform="matrix(1, 0, 0, 1, 146.59017, 159)"/>
<path fill-rule="evenodd" fill="rgb(100%, 100%, 100%)" fill-opacity="1" stroke-width="1" stroke-linecap="butt" stroke-linejoin="bevel" stroke="rgb(50.048876%, 50.048876%, 50.048876%)" stroke-opacity="1" stroke-miterlimit="10" d="M -2.198893 -24.535156 L -2.202799 -24.535156 L -2.226236 -24.53125 L -2.269205 -24.519531 L -2.335611 -24.5 L -2.425455 -24.46875 L -2.53483 -24.421875 L -2.667643 -24.359375 L -2.819986 -24.269531 L -2.987955 -24.160156 L -3.163736 -24.023438 L -3.351236 -23.863281 L -3.53483 -23.679688 L -3.714518 -23.46875 L -3.882486 -23.238281 L -4.038736 -22.988281 L -4.171549 -22.714844 L -4.288736 -22.417969 L -4.382486 -22.097656 L -4.452799 -21.75 L -4.511393 -21.371094 L -4.550455 -20.953125 L -4.577799 -20.492188 L -4.59733 -19.988281 L -4.612955 -19.429688 L -4.620768 -18.816406 L -4.632486 -18.140625 L -4.640299 -17.40625 L -4.652018 -16.605469 L -4.667643 -15.738281 L -4.683268 -14.804688 L -4.698893 -13.808594 L -4.718424 -12.75 L -4.737955 -11.632812 L -4.761393 -10.460938 L -4.78483 -9.238281 L -4.812174 -7.972656 L -4.843424 -6.667969 L -4.874674 -5.332031 L -4.90983 -3.96875 L -4.948893 -2.589844 L -4.987955 -1.203125 L -5.027018 0.191406 L -5.06608 1.578125 L -5.105143 2.949219 L -5.136393 4.304688 L -5.163736 5.632812 L -5.183268 6.925781 L -5.198893 8.183594 L -5.206705 9.394531 L -5.206705 10.554688 L -5.198893 11.664062 L -5.183268 12.714844 L -5.155924 13.710938 L -5.124674 14.640625 L -5.089518 15.507812 L -5.046549 16.3125 L -4.999674 17.054688 L -4.956705 17.734375 L -4.917643 18.355469 L -4.886393 18.914062 L -4.862955 19.414062 L -4.855143 19.863281 L -4.855143 20.257812 L -4.862955 20.609375 L -4.882486 20.910156 L -4.902018 21.171875 L -4.921549 21.398438 L -4.937174 21.589844 L -4.94108 21.75 L -4.929361 21.882812 L -4.905924 21.996094 L -4.870768 22.082031 L -4.823893 22.15625 L -4.773111 22.210938 L -4.72233 22.253906 L -4.679361 22.28125 L -4.648111 22.300781 L -4.62858 22.3125 L -4.612955 22.320312 L -4.476236 22.402344 L -4.206705 22.605469 L -3.800455 22.972656 L -3.261393 23.507812 L -2.605143 24.128906 L -1.859049 24.703125 L -1.062174 25.113281 L -0.249674 25.304688 L 0.512045 25.324219 L 1.172201 25.257812 L 1.680014 25.195312 L 2.015951 25.171875 L 2.180014 25.175781 L 2.203451 25.175781 L 2.226889 25.179688 L 2.273764 25.183594 L 2.34017 25.191406 L 2.426107 25.203125 L 2.531576 25.21875 L 2.656576 25.238281 L 2.797201 25.253906 L 2.949545 25.261719 L 3.117514 25.25 L 3.297201 25.214844 L 3.480795 25.140625 L 3.668295 25.027344 L 3.851889 24.863281 L 4.031576 24.652344 L 4.203451 24.386719 L 4.355795 24.078125 L 4.488607 23.722656 L 4.597982 23.324219 L 4.687826 22.894531 L 4.754232 22.425781 L 4.805014 21.929688 L 4.836264 21.394531 L 4.855795 20.824219 L 4.867514 20.210938 L 4.875326 19.554688 L 4.887045 18.84375 L 4.894857 18.078125 L 4.910482 17.25 L 4.930014 16.355469 L 4.957357 15.398438 L 4.988607 14.375 L 5.023764 13.285156 L 5.05892 12.128906 L 5.097982 10.917969 L 5.137045 9.652344 L 5.172201 8.335938 L 5.207357 6.980469 L 5.234701 5.589844 L 5.262045 4.171875 L 5.27767 2.734375 L 5.289389 1.289062 L 5.297201 -0.160156 L 5.301107 -1.601562 L 5.297201 -3.027344 L 5.293295 -4.429688 L 5.285482 -5.800781 L 5.27767 -7.136719 L 5.262045 -8.429688 L 5.24642 -9.667969 L 5.226889 -10.855469 L 5.199545 -11.984375 L 5.164389 -13.050781 L 5.12142 -14.050781 L 5.070639 -14.988281 L 5.008139 -15.855469 L 4.945639 -16.65625 L 4.879232 -17.390625 L 4.820639 -18.058594 L 4.765951 -18.660156 L 4.722982 -19.203125 L 4.695639 -19.6875 L 4.680014 -20.113281 L 4.68392 -20.488281 L 4.695639 -20.816406 L 4.719076 -21.097656 L 4.750326 -21.339844 L 4.781576 -21.542969 L 4.812826 -21.714844 L 4.836264 -21.859375 L 4.855795 -21.976562 L 4.867514 -22.070312 L 4.875326 -22.148438 L 4.879232 -22.207031 L 4.875326 -22.25 L 4.875326 -22.28125 L 4.87142 -22.300781 L 4.87142 -22.3125 L 4.867514 -22.324219 L 4.847982 -22.398438 L 4.773764 -22.539062 L 4.578451 -22.738281 L 4.187826 -23.042969 L 3.566732 -23.476562 L 2.738607 -23.984375 L 1.77767 -24.449219 L 0.785482 -24.742188 L -0.148111 -24.832031 L -0.948893 -24.777344 L -1.569986 -24.667969 L -1.976236 -24.582031 L -2.175455 -24.542969 L -2.198893 -24.535156 " transform="matrix(1, 0, 0, 1, 95.40983, 29)"/>
<path fill-rule="evenodd" fill="rgb(100%, 100%, 100%)" fill-opacity="1" stroke-width="1" stroke-linecap="butt" stroke-linejoin="bevel" stroke="rgb(50.048876%, 50.048876%, 50.048876%)" stroke-opacity="1" stroke-miterlimit="10" d="M -2.199545 -3.824219 L -2.222982 -3.78125 L -2.387045 -3.492188 L -2.726889 -3.027344 L -3.21517 -2.542969 L -3.762045 -2.121094 L -4.234701 -1.746094 L -4.543295 -1.332031 L -4.680014 -0.796875 L -4.750326 -0.152344 L -4.883139 0.539062 L -5.15267 1.175781 L -5.531576 1.679688 L -5.90267 2.015625 L -6.133139 2.179688 L -6.164389 2.199219 L -6.195639 2.222656 L -6.383139 2.382812 L -6.515951 2.695312 L -6.27767 3.132812 L -5.512045 3.621094 L -4.305014 4.085938 L -2.914389 4.46875 L -1.582357 4.753906 L -0.449545 4.964844 L 0.460611 5.117188 L 1.163736 5.207031 L 1.679361 5.238281 L 2.015299 5.226562 L 2.179361 5.203125 L 2.198893 5.203125 L 2.22233 5.199219 L 2.382486 5.148438 L 2.702799 4.980469 L 3.132486 4.601562 L 3.59733 3.972656 L 3.995768 3.136719 L 4.269205 2.1875 L 4.421549 1.21875 L 4.495768 0.3125 L 4.515299 -0.496094 L 4.468424 -1.167969 L 4.355143 -1.679688 L 4.202799 -2.015625 L 4.09733 -2.179688 L 4.081705 -2.199219 L 4.06608 -2.222656 L 3.94108 -2.378906 L 3.702799 -2.667969 L 3.359049 -3.058594 L 2.913736 -3.503906 L 2.370768 -3.976562 L 1.726236 -4.441406 L 0.995768 -4.847656 L 0.226236 -5.125 L -0.519857 -5.179688 L -1.172201 -4.984375 L -1.680014 -4.589844 L -2.015951 -4.148438 L -2.180014 -3.863281 L -2.199545 -3.824219 " transform="matrix(1, 0, 0, 1, 141.59017, 229)"/>
<path fill-rule="evenodd" fill="rgb(100%, 100%, 100%)" fill-opacity="1" stroke-width="1" stroke-linecap="butt" stroke-linejoin="bevel" stroke="rgb(50.048876%, 50.048876%, 50.048876%)" stroke-opacity="1" stroke-miterlimit="10" d="M -7.019857 -9.519531 L -7.051107 -9.507812 L -7.281576 -9.410156 L -7.672201 -9.214844 L -8.129232 -8.894531 L -8.570639 -8.425781 L -8.949545 -7.765625 L -9.258139 -6.867188 L -9.500326 -5.695312 L -9.672201 -4.246094 L -9.762045 -2.566406 L -9.769857 -0.746094 L -9.711264 1.078125 L -9.625326 2.777344 L -9.531576 4.234375 L -9.449545 5.386719 L -9.390951 6.214844 L -9.347982 6.738281 L -9.324545 6.988281 L -9.316732 7.050781 L -9.285482 7.285156 L -9.191732 7.710938 L -8.976889 8.242188 L -8.582357 8.789062 L -7.941732 9.265625 L -7.023764 9.625 L -5.80892 9.867188 L -4.316732 10.011719 L -2.601889 10.09375 L -0.762045 10.128906 L 1.073893 10.113281 L 2.773111 10.046875 L 4.234049 9.933594 L 5.386393 9.796875 L 6.214518 9.667969 L 6.737955 9.570312 L 6.987955 9.519531 L 7.050455 9.503906 L 7.28483 9.449219 L 7.706705 9.308594 L 8.230143 9.046875 L 8.761393 8.609375 L 9.218424 7.941406 L 9.562174 7.011719 L 9.788736 5.796875 L 9.917643 4.304688 L 9.976236 2.59375 L 9.968424 0.757812 L 9.921549 -1.074219 L 9.890299 -2.773438 L 9.952799 -4.234375 L 10.15983 -5.386719 L 10.491861 -6.214844 L 10.84733 -6.738281 L 11.077799 -6.988281 L 11.140299 -7.050781 L 11.355143 -7.289062 L 11.601236 -7.722656 L 11.624674 -8.285156 L 11.198893 -8.867188 L 10.234049 -9.371094 L 8.780924 -9.71875 L 6.984049 -9.886719 L 4.991861 -9.917969 L 2.929361 -9.882812 L 0.894205 -9.851562 L -1.031576 -9.855469 L -2.765951 -9.886719 L -4.234701 -9.894531 L -5.387045 -9.847656 L -6.21517 -9.742188 L -6.738607 -9.613281 L -6.988607 -9.53125 L -7.019857 -9.519531 " transform="matrix(1, 0, 0, 1, 146.59017, 194)"/>
<path fill-rule="evenodd" fill="rgb(100%, 100%, 100%)" fill-opacity="1" stroke-width="1" stroke-linecap="butt" stroke-linejoin="bevel" stroke="rgb(50.048876%, 50.048876%, 50.048876%)" stroke-opacity="1" stroke-miterlimit="10" d="M -11.777018 -15.171875 L -11.827799 -15.179688 L -12.202799 -15.214844 L -12.819986 -15.195312 L -13.464518 -14.984375 L -13.956705 -14.433594 L -14.218424 -13.425781 L -14.273111 -11.894531 L -14.218424 -9.835938 L -14.15983 -7.296875 L -14.175455 -4.394531 L -14.300455 -1.292969 L -14.542643 1.796875 L -14.870768 4.652344 L -15.241861 7.101562 L -15.593424 9.035156 L -15.882486 10.425781 L -16.081705 11.304688 L -16.179361 11.722656 L -16.19108 11.777344 L -16.202799 11.835938 L -16.312174 12.296875 L -16.495768 13.117188 L -16.652018 14.113281 L -16.581705 15.046875 L -16.050455 15.710938 L -14.84733 16.003906 L -12.898111 15.972656 L -10.25358 15.746094 L -7.077799 15.464844 L -3.589518 15.234375 L -0.0426426 15.097656 L 3.301107 15.078125 L 6.211264 15.171875 L 8.523764 15.347656 L 10.18392 15.550781 L 11.222982 15.722656 L 11.71517 15.824219 L 11.77767 15.835938 L 11.828451 15.847656 L 12.21517 15.910156 L 12.879232 15.921875 L 13.644857 15.714844 L 14.324545 15.105469 L 14.781576 13.984375 L 14.984701 12.3125 L 14.99642 10.109375 L 14.926107 7.453125 L 14.883139 4.46875 L 14.922201 1.320312 L 15.02767 -1.785156 L 15.140951 -4.652344 L 15.207357 -7.101562 L 15.199545 -9.035156 L 15.137045 -10.425781 L 15.05892 -11.304688 L 15.008139 -11.722656 L 15.000326 -11.777344 L 14.992514 -11.828125 L 14.926107 -12.210938 L 14.754232 -12.851562 L 14.414389 -13.566406 L 13.80892 -14.183594 L 12.844076 -14.613281 L 11.43392 -14.855469 L 9.519857 -14.972656 L 7.113607 -15.027344 L 4.301107 -15.058594 L 1.254232 -15.070312 L -1.808268 -15.058594 L -4.655924 -15.027344 L -7.101236 -15.003906 L -9.03483 -15.007812 L -10.425455 -15.054688 L -11.304361 -15.121094 L -11.72233 -15.167969 L -11.777018 -15.171875 " transform="matrix(1, 0, 0, 1, 105.40983, 169)"/>
<path fill-rule="evenodd" fill="rgb(100%, 100%, 100%)" fill-opacity="1" stroke-width="1" stroke-linecap="butt" stroke-linejoin="bevel" stroke="rgb(50.048876%, 50.048876%, 50.048876%)" stroke-opacity="1" stroke-miterlimit="10" d="M -32.202146 -15.03125 L -32.221678 -15.019531 L -32.362303 -14.890625 L -32.612303 -14.59375 L -32.936521 -14.082031 L -33.303709 -13.382812 L -33.709959 -12.527344 L -34.120115 -11.507812 L -34.475584 -10.199219 L -34.709959 -8.417969 L -34.799803 -6.042969 L -34.764646 -3.117188 L -34.66699 0.125 L -34.569334 3.347656 L -34.51074 6.21875 L -34.502928 8.523438 L -34.538084 10.183594 L -34.584959 11.222656 L -34.616209 11.714844 L -34.620115 11.777344 L -34.624021 11.789062 L -34.627928 11.894531 L -34.639646 12.089844 L -34.643553 12.363281 L -34.627928 12.695312 L -34.584959 13.054688 L -34.502928 13.421875 L -34.366209 13.777344 L -34.170896 14.109375 L -33.909178 14.410156 L -33.577146 14.675781 L -33.16699 14.902344 L -32.678709 15.097656 L -32.100584 15.257812 L -31.428709 15.386719 L -30.651365 15.484375 L -29.756834 15.550781 L -28.733396 15.589844 L -27.565428 15.597656 L -26.245115 15.582031 L -24.768553 15.542969 L -23.124021 15.488281 L -21.315428 15.425781 L -19.342771 15.359375 L -17.217771 15.292969 L -14.952146 15.234375 L -12.561521 15.179688 L -10.061521 15.136719 L -7.47949 15.101562 L -4.838865 15.078125 L -2.163084 15.066406 L 0.524416 15.0625 L 3.192385 15.066406 L 5.817385 15.078125 L 8.375979 15.09375 L 10.844729 15.117188 L 13.20801 15.136719 L 15.446291 15.160156 L 17.543947 15.179688 L 19.493166 15.195312 L 21.286135 15.203125 L 22.915041 15.203125 L 24.387697 15.191406 L 25.696291 15.171875 L 26.852541 15.140625 L 27.860354 15.105469 L 28.731447 15.066406 L 29.469729 15.03125 L 30.090822 15.003906 L 30.606447 14.996094 L 31.028322 15.007812 L 31.36426 15.050781 L 31.633791 15.113281 L 31.836916 15.191406 L 31.98926 15.28125 L 32.098635 15.359375 L 32.168947 15.425781 L 32.200197 15.457031 L 32.204104 15.464844 L 32.219729 15.480469 L 32.348635 15.589844 L 32.606447 15.683594 L 32.969729 15.5625 L 33.39551 15.035156 L 33.813479 13.96875 L 34.153322 12.320312 L 34.372072 10.125 L 34.461916 7.464844 L 34.442385 4.476562 L 34.352541 1.324219 L 34.215822 -1.785156 L 34.047854 -4.652344 L 33.868166 -7.101562 L 33.704104 -9.035156 L 33.567385 -10.425781 L 33.473635 -11.304688 L 33.42676 -11.722656 L 33.418947 -11.777344 L 33.418947 -11.789062 L 33.407229 -11.902344 L 33.379885 -12.117188 L 33.344729 -12.429688 L 33.297854 -12.820312 L 33.243166 -13.269531 L 33.17676 -13.746094 L 33.098635 -14.230469 L 33.008791 -14.6875 L 32.903322 -15.089844 L 32.778322 -15.421875 L 32.618166 -15.667969 L 32.411135 -15.828125 L 32.14551 -15.902344 L 31.80176 -15.90625 L 31.360354 -15.851562 L 30.797854 -15.761719 L 30.098635 -15.648438 L 29.243166 -15.527344 L 28.20801 -15.40625 L 26.98926 -15.292969 L 25.571291 -15.191406 L 23.954104 -15.089844 L 22.137697 -14.996094 L 20.129885 -14.898438 L 17.938479 -14.800781 L 15.58301 -14.703125 L 13.08301 -14.609375 L 10.461916 -14.519531 L 7.750979 -14.441406 L 4.969729 -14.382812 L 2.153322 -14.347656 L -0.663084 -14.332031 L -3.459959 -14.34375 L -6.202146 -14.375 L -8.862303 -14.425781 L -11.420896 -14.488281 L -13.850584 -14.558594 L -16.139646 -14.632812 L -18.272459 -14.710938 L -20.237303 -14.792969 L -22.026365 -14.871094 L -23.643553 -14.949219 L -25.084959 -15.027344 L -26.358396 -15.105469 L -27.463865 -15.179688 L -28.420896 -15.246094 L -29.22949 -15.300781 L -29.913084 -15.34375 L -30.475584 -15.363281 L -30.932615 -15.363281 L -31.299803 -15.335938 L -31.588865 -15.292969 L -31.811521 -15.234375 L -31.975584 -15.167969 L -32.088865 -15.109375 L -32.163084 -15.0625 L -32.19824 -15.035156 L -32.202146 -15.03125 " transform="matrix(1, 0, 0, 1, 39.22949, 124)"/>
<path fill-rule="evenodd" fill="rgb(100%, 100%, 100%)" fill-opacity="1" stroke-width="1" stroke-linecap="butt" stroke-linejoin="bevel" stroke="rgb(50.048876%, 50.048876%, 50.048876%)" stroke-opacity="1" stroke-miterlimit="10" d="M -12.230795 -9.109375 L -12.242514 -9.101562 L -12.355795 -9.042969 L -12.594076 -8.910156 L -12.961264 -8.667969 L -13.414389 -8.273438 L -13.879232 -7.675781 L -14.273764 -6.820312 L -14.539389 -5.671875 L -14.680014 -4.238281 L -14.730795 -2.5625 L -14.750326 -0.746094 L -14.773764 1.078125 L -14.824545 2.777344 L -14.898764 4.234375 L -14.992514 5.386719 L -15.094076 6.214844 L -15.180014 6.738281 L -15.230795 6.988281 L -15.234701 7.019531 L -15.265951 7.144531 L -15.316732 7.351562 L -15.394857 7.640625 L -15.488607 7.992188 L -15.574545 8.371094 L -15.617514 8.746094 L -15.570639 9.089844 L -15.398764 9.375 L -15.066732 9.585938 L -14.562826 9.726562 L -13.894857 9.804688 L -13.074545 9.832031 L -12.117514 9.832031 L -11.043295 9.816406 L -9.863607 9.796875 L -8.578451 9.78125 L -7.191732 9.769531 L -5.711264 9.765625 L -4.15267 9.761719 L -2.535482 9.765625 L -0.887045 9.777344 L 0.757486 9.800781 L 2.362955 9.835938 L 3.890299 9.882812 L 5.31608 9.933594 L 6.612955 9.992188 L 7.765299 10.039062 L 8.769205 10.074219 L 9.616861 10.089844 L 10.31608 10.074219 L 10.882486 10.035156 L 11.323893 9.96875 L 11.655924 9.890625 L 11.902018 9.808594 L 12.069986 9.734375 L 12.171549 9.683594 L 12.22233 9.652344 L 12.230143 9.648438 L 12.241861 9.640625 L 12.351236 9.570312 L 12.554361 9.410156 L 12.835611 9.121094 L 13.167643 8.65625 L 13.519205 7.96875 L 13.859049 7.023438 L 14.171549 5.800781 L 14.444986 4.308594 L 14.671549 2.59375 L 14.839518 0.757812 L 14.94108 -1.074219 L 14.97233 -2.773438 L 14.952799 -4.234375 L 14.902018 -5.386719 L 14.843424 -6.214844 L 14.800455 -6.738281 L 14.780924 -6.988281 L 14.777018 -7.019531 L 14.777018 -7.035156 L 14.765299 -7.144531 L 14.745768 -7.351562 L 14.714518 -7.640625 L 14.667643 -7.988281 L 14.59733 -8.355469 L 14.487955 -8.71875 L 14.323893 -9.039062 L 14.089518 -9.296875 L 13.773111 -9.488281 L 13.355143 -9.621094 L 12.835611 -9.707031 L 12.198893 -9.769531 L 11.44108 -9.820312 L 10.554361 -9.875 L 9.527018 -9.933594 L 8.362955 -9.984375 L 7.06608 -10.015625 L 5.640299 -10.023438 L 4.116861 -9.996094 L 2.515299 -9.945312 L 0.87858 -9.875 L -0.762045 -9.804688 L -2.363607 -9.746094 L -3.890951 -9.707031 L -5.316732 -9.6875 L -6.613607 -9.679688 L -7.765951 -9.667969 L -8.769857 -9.644531 L -9.617514 -9.605469 L -10.316732 -9.550781 L -10.883139 -9.480469 L -11.324545 -9.402344 L -11.656576 -9.320312 L -11.90267 -9.246094 L -12.070639 -9.183594 L -12.172201 -9.136719 L -12.222982 -9.109375 L -12.230795 -9.109375 " transform="matrix(1, 0, 0, 1, 151.59017, 214)"/>
<path fill-rule="evenodd" fill="rgb(100%, 100%, 100%)" fill-opacity="1" stroke-width="1" stroke-linecap="butt" stroke-linejoin="bevel" stroke="rgb(50.048876%, 50.048876%, 50.048876%)" stroke-opacity="1" stroke-miterlimit="10" d="M -17.297854 -5.148438 L -17.313479 -5.164062 L -17.403322 -5.285156 L -17.567385 -5.5625 L -17.793947 -5.878906 L -18.094729 -5.910156 L -18.481447 -5.351562 L -18.879885 -4.167969 L -19.204104 -2.652344 L -19.387697 -1.179688 L -19.45801 0.0234375 L -19.481447 0.925781 L -19.516604 1.566406 L -19.563479 1.976562 L -19.598635 2.175781 L -19.602541 2.199219 L -19.602541 2.203125 L -19.606447 2.230469 L -19.61426 2.289062 L -19.61426 2.371094 L -19.602541 2.480469 L -19.567385 2.609375 L -19.497072 2.761719 L -19.391604 2.929688 L -19.247072 3.109375 L -19.055666 3.296875 L -18.821291 3.484375 L -18.547854 3.667969 L -18.235354 3.84375 L -17.887697 4.007812 L -17.504885 4.15625 L -17.086916 4.289062 L -16.625979 4.40625 L -16.122072 4.507812 L -15.571291 4.589844 L -14.961916 4.660156 L -14.290041 4.714844 L -13.547854 4.753906 L -12.735354 4.78125 L -11.848635 4.796875 L -10.887697 4.808594 L -9.852541 4.8125 L -8.750979 4.8125 L -7.58301 4.820312 L -6.36426 4.824219 L -5.094729 4.832031 L -3.790041 4.84375 L -2.45801 4.847656 L -1.110354 4.851562 L 0.241209 4.847656 L 1.584959 4.832031 L 2.909178 4.804688 L 4.206053 4.773438 L 5.459959 4.730469 L 6.66699 4.6875 L 7.819334 4.640625 L 8.909178 4.597656 L 9.928709 4.558594 L 10.874021 4.53125 L 11.749021 4.515625 L 12.54199 4.507812 L 13.264646 4.515625 L 13.909178 4.53125 L 14.47949 4.5625 L 14.983396 4.597656 L 15.420896 4.640625 L 15.795896 4.6875 L 16.112303 4.734375 L 16.381834 4.78125 L 16.60449 4.820312 L 16.784178 4.855469 L 16.932615 4.882812 L 17.045896 4.902344 L 17.13574 4.914062 L 17.202146 4.921875 L 17.249021 4.925781 L 17.307615 4.925781 L 17.393553 4.902344 L 17.57324 4.777344 L 17.842771 4.453125 L 18.170896 3.875 L 18.526365 3.082031 L 18.881834 2.160156 L 19.217771 1.210938 L 19.499021 0.308594 L 19.63574 -0.496094 L 19.545896 -1.167969 L 19.22949 -1.679688 L 18.819334 -2.015625 L 18.534178 -2.179688 L 18.491209 -2.199219 L 18.487303 -2.203125 L 18.428709 -2.230469 L 18.32324 -2.285156 L 18.178709 -2.367188 L 18.002928 -2.464844 L 17.815428 -2.582031 L 17.627928 -2.714844 L 17.44824 -2.855469 L 17.284178 -3.007812 L 17.139646 -3.164062 L 17.01074 -3.328125 L 16.88574 -3.492188 L 16.76074 -3.660156 L 16.616209 -3.828125 L 16.444334 -3.992188 L 16.225584 -4.148438 L 15.94824 -4.292969 L 15.608396 -4.421875 L 15.190428 -4.53125 L 14.686521 -4.617188 L 14.096678 -4.683594 L 13.41699 -4.726562 L 12.651365 -4.753906 L 11.795896 -4.765625 L 10.85449 -4.769531 L 9.831053 -4.777344 L 8.737303 -4.792969 L 7.577146 -4.816406 L 6.358396 -4.859375 L 5.092771 -4.914062 L 3.784178 -4.984375 L 2.456053 -5.066406 L 1.108396 -5.15625 L -0.243166 -5.246094 L -1.586916 -5.328125 L -2.911135 -5.394531 L -4.20801 -5.449219 L -5.461916 -5.480469 L -6.668947 -5.492188 L -7.821291 -5.484375 L -8.911135 -5.457031 L -9.930666 -5.417969 L -10.875979 -5.371094 L -11.750979 -5.320312 L -12.543947 -5.269531 L -13.266604 -5.222656 L -13.911135 -5.179688 L -14.481447 -5.140625 L -14.985354 -5.101562 L -15.422854 -5.070312 L -15.797854 -5.039062 L -16.11426 -5.011719 L -16.383791 -4.992188 L -16.606447 -4.976562 L -16.786135 -4.976562 L -16.934572 -4.988281 L -17.047854 -5.007812 L -17.137697 -5.039062 L -17.204104 -5.074219 L -17.282229 -5.132812 L -17.297854 -5.148438 " transform="matrix(1, 0, 0, 1, 192.77051, 159)"/>
<path fill-rule="evenodd" fill="rgb(100%, 100%, 100%)" fill-opacity="1" stroke-width="1" stroke-linecap="butt" stroke-linejoin="bevel" stroke="rgb(50.048876%, 50.048876%, 50.048876%)" stroke-opacity="1" stroke-miterlimit="10" d="M -7.019857 -15.734375 L -7.035482 -15.738281 L -7.144857 -15.777344 L -7.351889 -15.855469 L -7.644857 -15.96875 L -7.99642 -16.113281 L -8.387045 -16.257812 L -8.77767 -16.347656 L -9.148764 -16.332031 L -9.469076 -16.160156 L -9.722982 -15.792969 L -9.906576 -15.226562 L -10.019857 -14.464844 L -10.078451 -13.535156 L -10.105795 -12.472656 L -10.117514 -11.296875 L -10.137045 -10.035156 L -10.172201 -8.683594 L -10.234701 -7.253906 L -10.316732 -5.746094 L -10.414389 -4.167969 L -10.519857 -2.542969 L -10.613607 -0.890625 L -10.691732 0.757812 L -10.738607 2.363281 L -10.758139 3.890625 L -10.74642 5.316406 L -10.703451 6.613281 L -10.633139 7.765625 L -10.539389 8.769531 L -10.43392 9.617188 L -10.316732 10.316406 L -10.203451 10.882812 L -10.101889 11.324219 L -10.015951 11.65625 L -9.953451 11.902344 L -9.910482 12.070312 L -9.890951 12.171875 L -9.879232 12.222656 L -9.879232 12.230469 L -9.875326 12.242188 L -9.847982 12.351562 L -9.74642 12.570312 L -9.500326 12.875 L -9.039389 13.226562 L -8.30892 13.566406 L -7.289389 13.84375 L -5.976889 14.035156 L -4.410482 14.160156 L -2.644857 14.265625 L -0.781576 14.402344 L 1.06608 14.566406 L 2.773111 14.738281 L 4.234049 14.859375 L 5.386393 14.898438 L 6.214518 14.863281 L 6.737955 14.785156 L 6.987955 14.730469 L 7.03483 14.71875 L 7.132486 14.691406 L 7.319986 14.628906 L 7.585611 14.535156 L 7.898111 14.390625 L 8.241861 14.199219 L 8.585611 13.945312 L 8.905924 13.632812 L 9.183268 13.25 L 9.405924 12.796875 L 9.569986 12.265625 L 9.679361 11.640625 L 9.745768 10.914062 L 9.780924 10.078125 L 9.804361 9.117188 L 9.827799 8.03125 L 9.859049 6.824219 L 9.894205 5.503906 L 9.933268 4.085938 L 9.976236 2.597656 L 10.007486 1.070312 L 10.030924 -0.46875 L 10.03483 -1.984375 L 10.023111 -3.445312 L 9.991861 -4.824219 L 9.948893 -6.097656 L 9.898111 -7.25 L 9.851236 -8.269531 L 9.808268 -9.15625 L 9.78483 -9.902344 L 9.777018 -10.519531 L 9.788736 -11.019531 L 9.81608 -11.414062 L 9.84733 -11.710938 L 9.882486 -11.929688 L 9.90983 -12.082031 L 9.933268 -12.179688 L 9.94108 -12.222656 L 9.944986 -12.230469 L 9.948893 -12.242188 L 9.960611 -12.351562 L 9.917643 -12.566406 L 9.726236 -12.882812 L 9.288736 -13.300781 L 8.542643 -13.800781 L 7.47233 -14.335938 L 6.105143 -14.828125 L 4.484049 -15.195312 L 2.683268 -15.390625 L 0.792643 -15.421875 L -1.062826 -15.363281 L -2.773764 -15.304688 L -4.234701 -15.308594 L -5.387045 -15.390625 L -6.21517 -15.523438 L -6.738607 -15.648438 L -6.988607 -15.722656 L -7.019857 -15.734375 " transform="matrix(1, 0, 0, 1, 126.59017, 104)"/>
</svg>
