<?xml version="1.0" encoding="UTF-8"?>
<svg xmlns="http://www.w3.org/2000/svg" xmlns:xlink="http://www.w3.org/1999/xlink" width="217.013156" height="248.472136" viewBox="0 0 217.013156 248.472136">
<path fill-rule="evenodd" fill="rgb(100%, 100%, 100%)" fill-opacity="1" stroke-width="1" stroke-linecap="butt" stroke-linejoin="bevel" stroke="rgb(50.048876%, 50.048876%, 50.048876%)" stroke-opacity="1" stroke-miterlimit="10" d="M -2.198893 -48.792969 L -2.202799 -48.792969 L -2.210611 -48.789062 L -2.234049 -48.78125 L -2.265299 -48.769531 L -2.304361 -48.753906 L -2.355143 -48.734375 L -2.413736 -48.710938 L -2.480143 -48.679688 L -2.554361 -48.644531 L -2.640299 -48.601562 L -2.730143 -48.554688 L -2.827799 -48.5 L -2.933268 -48.441406 L -3.046549 -48.375 L -3.163736 -48.304688 L -3.28483 -48.226562 L -3.413736 -48.144531 L -3.542643 -48.058594 L -3.671549 -47.96875 L -3.800455 -47.871094 L -3.925455 -47.769531 L -4.050455 -47.664062 L -4.163736 -47.550781 L -4.273111 -47.433594 L -4.370768 -47.304688 L -4.460611 -47.171875 L -4.53483 -47.03125 L -4.601236 -46.878906 L -4.65983 -46.71875 L -4.702799 -46.542969 L -4.737955 -46.355469 L -4.765299 -46.148438 L -4.788736 -45.925781 L -4.804361 -45.6875 L -4.81608 -45.425781 L -4.823893 -45.144531 L -4.827799 -44.835938 L -4.835611 -44.507812 L -4.839518 -44.152344 L -4.843424 -43.769531 L -4.851236 -43.359375 L -4.855143 -42.917969 L -4.859049 -42.445312 L -4.866861 -41.945312 L -4.870768 -41.410156 L -4.874674 -40.84375 L -4.882486 -40.246094 L -4.886393 -39.609375 L -4.890299 -38.941406 L -4.898111 -38.238281 L -4.905924 -37.5 L -4.913736 -36.726562 L -4.921549 -35.917969 L -4.933268 -35.070312 L -4.944986 -34.191406 L -4.956705 -33.273438 L -4.968424 -32.324219 L -4.980143 -31.339844 L -4.991861 -30.320312 L -5.00358 -29.265625 L -5.015299 -28.179688 L -5.023111 -27.0625 L -5.030924 -25.914062 L -5.038736 -24.734375 L -5.042643 -23.527344 L -5.046549 -22.289062 L -5.050455 -21.027344 L -5.054361 -19.738281 L -5.054361 -18.425781 L -5.058268 -17.089844 L -5.058268 -15.734375 L -5.062174 -14.359375 L -5.069986 -12.964844 L -5.073893 -11.554688 L -5.081705 -10.132812 L -5.089518 -8.695312 L -5.101236 -7.25 L -5.112955 -5.796875 L -5.124674 -4.335938 L -5.136393 -2.867188 L -5.167643 0.0703125 L -5.198893 3 L -5.218424 4.460938 L -5.234049 5.914062 L -5.25358 7.355469 L -5.269205 8.785156 L -5.28483 10.207031 L -5.296549 11.609375 L -5.308268 13 L -5.319986 14.367188 L -5.323893 15.71875 L -5.323893 17.050781 L -5.319986 18.355469 L -5.312174 19.640625 L -5.300455 20.898438 L -5.280924 22.128906 L -5.261393 23.332031 L -5.234049 24.507812 L -5.206705 25.652344 L -5.179361 26.765625 L -5.148111 27.851562 L -5.120768 28.902344 L -5.09733 29.921875 L -5.073893 30.910156 L -5.054361 31.863281 L -5.042643 32.78125 L -5.03483 33.667969 L -5.030924 34.519531 L -5.03483 35.339844 L -5.042643 36.121094 L -5.054361 36.875 L -5.073893 37.589844 L -5.09733 38.277344 L -5.124674 38.925781 L -5.152018 39.546875 L -5.183268 40.132812 L -5.214518 40.691406 L -5.245768 41.21875 L -5.277018 41.714844 L -5.304361 42.179688 L -5.331705 42.621094 L -5.355143 43.03125 L -5.374674 43.417969 L -5.386393 43.777344 L -5.398111 44.113281 L -5.402018 44.425781 L -5.402018 44.714844 L -5.398111 44.980469 L -5.386393 45.226562 L -5.370768 45.457031 L -5.34733 45.664062 L -5.323893 45.855469 L -5.292643 46.027344 L -5.261393 46.1875 L -5.22233 46.328125 L -5.179361 46.460938 L -5.132486 46.574219 L -5.081705 46.679688 L -5.027018 46.773438 L -4.968424 46.859375 L -4.905924 46.933594 L -4.835611 46.996094 L -4.765299 47.054688 L -4.69108 47.105469 L -4.612955 47.148438 L -4.53483 47.1875 L -4.456705 47.21875 L -4.382486 47.25 L -4.308268 47.273438 L -4.237955 47.292969 L -4.175455 47.308594 L -4.120768 47.320312 L -4.077799 47.332031 L -4.042643 47.339844 L -4.019205 47.34375 L -4.00358 47.34375 L -3.976236 47.351562 L -3.734049 47.390625 L -3.22233 47.476562 L -2.515299 47.640625 L -1.812174 47.960938 L -1.31608 48.472656 L -1.030924 49.085938 L -0.773111 49.621094 L -0.34733 49.929688 L 0.281576 50 L 0.976889 49.957031 L 1.570639 49.9375 L 1.976889 49.988281 L 2.176107 50.050781 L 2.199545 50.0625 L 2.203451 50.0625 L 2.211264 50.066406 L 2.234701 50.074219 L 2.265951 50.089844 L 2.30892 50.113281 L 2.359701 50.140625 L 2.418295 50.175781 L 2.488607 50.21875 L 2.566732 50.265625 L 2.656576 50.320312 L 2.750326 50.378906 L 2.851889 50.433594 L 2.96517 50.488281 L 3.078451 50.53125 L 3.199545 50.5625 L 3.328451 50.578125 L 3.457357 50.570312 L 3.59017 50.542969 L 3.719076 50.484375 L 3.851889 50.398438 L 3.976889 50.285156 L 4.097982 50.144531 L 4.211264 49.972656 L 4.316732 49.777344 L 4.410482 49.558594 L 4.49642 49.320312 L 4.570639 49.066406 L 4.637045 48.796875 L 4.691732 48.519531 L 4.734701 48.230469 L 4.773764 47.933594 L 4.801107 47.632812 L 4.828451 47.328125 L 4.847982 47.015625 L 4.867514 46.695312 L 4.883139 46.367188 L 4.898764 46.03125 L 4.914389 45.683594 L 4.930014 45.320312 L 4.949545 44.941406 L 4.96517 44.542969 L 4.980795 44.125 L 5.000326 43.683594 L 5.015951 43.210938 L 5.031576 42.714844 L 5.047201 42.1875 L 5.05892 41.628906 L 5.074545 41.039062 L 5.082357 40.414062 L 5.094076 39.753906 L 5.101889 39.058594 L 5.109701 38.324219 L 5.117514 37.558594 L 5.125326 36.75 L 5.133139 35.90625 L 5.137045 35.027344 L 5.144857 34.105469 L 5.148764 33.152344 L 5.156576 32.160156 L 5.160482 31.132812 L 5.168295 30.066406 L 5.176107 28.96875 L 5.18392 27.835938 L 5.195639 26.671875 L 5.203451 25.472656 L 5.21517 24.246094 L 5.226889 22.984375 L 5.238607 21.699219 L 5.254232 20.386719 L 5.265951 19.046875 L 5.273764 17.683594 L 5.285482 16.300781 L 5.289389 14.894531 L 5.293295 13.46875 L 5.289389 12.027344 L 5.281576 10.574219 L 5.269857 9.105469 L 5.250326 7.625 L 5.226889 6.136719 L 5.195639 4.644531 L 5.160482 3.144531 L 5.12142 1.644531 L 5.074545 0.140625 L 5.02767 -1.359375 L 4.976889 -2.855469 L 4.930014 -4.347656 L 4.879232 -5.832031 L 4.832357 -7.304688 L 4.789389 -8.765625 L 4.750326 -10.214844 L 4.719076 -11.644531 L 4.695639 -13.058594 L 4.676107 -14.457031 L 4.664389 -15.828125 L 4.660482 -17.183594 L 4.664389 -18.511719 L 4.676107 -19.8125 L 4.691732 -21.089844 L 4.71517 -22.339844 L 4.742514 -23.558594 L 4.773764 -24.746094 L 4.80892 -25.90625 L 4.844076 -27.03125 L 4.879232 -28.125 L 4.914389 -29.1875 L 4.953451 -30.214844 L 4.988607 -31.207031 L 5.019857 -32.164062 L 5.051107 -33.085938 L 5.078451 -33.976562 L 5.101889 -34.828125 L 5.12142 -35.644531 L 5.137045 -36.429688 L 5.15267 -37.175781 L 5.160482 -37.890625 L 5.168295 -38.570312 L 5.168295 -39.828125 L 5.164389 -40.410156 L 5.160482 -40.960938 L 5.15267 -41.476562 L 5.144857 -41.964844 L 5.140951 -42.425781 L 5.133139 -42.855469 L 5.125326 -43.257812 L 5.12142 -43.632812 L 5.117514 -43.984375 L 5.113607 -44.308594 L 5.113607 -44.609375 L 5.109701 -44.886719 L 5.109701 -45.382812 L 5.105795 -45.597656 L 5.101889 -45.796875 L 5.094076 -45.980469 L 5.086264 -46.144531 L 5.074545 -46.292969 L 5.062826 -46.425781 L 5.043295 -46.546875 L 5.023764 -46.65625 L 5.000326 -46.753906 L 4.976889 -46.839844 L 4.949545 -46.917969 L 4.922201 -46.988281 L 4.890951 -47.046875 L 4.863607 -47.097656 L 4.836264 -47.144531 L 4.80892 -47.183594 L 4.762045 -47.246094 L 4.742514 -47.269531 L 4.726889 -47.289062 L 4.711264 -47.304688 L 4.699545 -47.320312 L 4.691732 -47.332031 L 4.68392 -47.335938 L 4.676107 -47.351562 L 4.629232 -47.40625 L 4.484701 -47.582031 L 4.160482 -47.9375 L 3.62142 -48.433594 L 2.894857 -48.941406 L 2.047201 -49.304688 L 1.156576 -49.453125 L 0.285482 -49.414062 L -0.50358 -49.269531 L -1.171549 -49.101562 L -1.679361 -48.960938 L -2.015299 -48.855469 L -2.179361 -48.800781 L -2.198893 -48.792969 " transform="matrix(1, 0, 0, 1, 95.40983, 104)"/>
<path fill-rule="evenodd" fill="rgb(100%, 100%, 100%)" fill-opacity="1" stroke-width="1" stroke-linecap="butt" stroke-linejoin="bevel" stroke="rgb(50.048876%, 50.048876%, 50.048876%)" stroke-opacity="1" stroke-miterlimit="10" d="M -11.777018 -25.003906 L -11.796549 -25 L -11.960611 -24.949219 L -12.269205 -24.851562 L -12.679361 -24.699219 L -13.140299 -24.492188 L -13.605143 -24.226562 L -14.023111 -23.890625 L -14.366861 -23.472656 L -14.620768 -22.957031 L -14.78483 -22.320312 L -14.874674 -21.535156 L -14.913736 -20.566406 L -14.913736 -19.394531 L -14.902018 -17.988281 L -14.882486 -16.335938 L -14.866861 -14.433594 L -14.851236 -12.285156 L -14.839518 -9.921875 L -14.831705 -7.375 L -14.827799 -4.691406 L -14.831705 -1.929688 L -14.839518 0.847656 L -14.84733 3.585938 L -14.855143 6.226562 L -14.851236 8.71875 L -14.831705 11.023438 L -14.788736 13.105469 L -14.726236 14.949219 L -14.644205 16.546875 L -14.546549 17.898438 L -14.448893 19.019531 L -14.34733 19.921875 L -14.257486 20.628906 L -14.179361 21.167969 L -14.116861 21.566406 L -14.073893 21.839844 L -14.027018 22.097656 L -14.027018 22.105469 L -14.023111 22.132812 L -13.980143 22.324219 L -13.866861 22.6875 L -13.616861 23.167969 L -13.144205 23.691406 L -12.335611 24.164062 L -11.077799 24.515625 L -9.300455 24.710938 L -6.991861 24.773438 L -4.245768 24.761719 L -1.234049 24.734375 L 1.816732 24.742188 L 4.656576 24.789062 L 7.101889 24.863281 L 9.035482 24.929688 L 10.426107 24.972656 L 11.305014 24.992188 L 11.722982 24.996094 L 11.961264 24.996094 L 12.265951 24.980469 L 12.664389 24.9375 L 13.109701 24.839844 L 13.551107 24.660156 L 13.945639 24.382812 L 14.273764 23.984375 L 14.531576 23.445312 L 14.722982 22.757812 L 14.859701 21.902344 L 14.961264 20.859375 L 15.035482 19.609375 L 15.09017 18.140625 L 15.12142 16.4375 L 15.133139 14.496094 L 15.12142 12.324219 L 15.09017 9.941406 L 15.039389 7.382812 L 14.980795 4.695312 L 14.930014 1.933594 L 14.898764 -0.847656 L 14.890951 -3.585938 L 14.914389 -6.226562 L 14.957357 -8.71875 L 15.019857 -11.023438 L 15.082357 -13.105469 L 15.133139 -14.949219 L 15.168295 -16.546875 L 15.180014 -17.898438 L 15.168295 -19.019531 L 15.129232 -19.921875 L 15.074545 -20.628906 L 15.008139 -21.167969 L 14.937826 -21.566406 L 14.875326 -21.839844 L 14.824545 -22.011719 L 14.797201 -22.097656 L 14.797201 -22.105469 L 14.785482 -22.136719 L 14.703451 -22.351562 L 14.512045 -22.730469 L 14.18392 -23.183594 L 13.703451 -23.617188 L 13.031576 -23.972656 L 12.078451 -24.238281 L 10.71517 -24.429688 L 8.793295 -24.582031 L 6.265951 -24.734375 L 3.222982 -24.914062 L -0.0895176 -25.113281 L -3.335611 -25.304688 L -6.214518 -25.425781 L -8.523111 -25.425781 L -10.183268 -25.3125 L -11.22233 -25.144531 L -11.714518 -25.023438 L -11.777018 -25.003906 " transform="matrix(1, 0, 0, 1, 105.40983, 219)"/>
<path fill-rule="evenodd" fill="rgb(100%, 100%, 100%)" fill-opacity="1" stroke-width="1" stroke-linecap="butt" stroke-linejoin="bevel" stroke="rgb(50.048876%, 50.048876%, 50.048876%)" stroke-opacity="1" stroke-miterlimit="10" d="M -7.019857 -24.78125 L -7.02767 -24.78125 L -7.094076 -24.765625 L -7.226889 -24.738281 L -7.410482 -24.691406 L -7.644857 -24.628906 L -7.918295 -24.550781 L -8.219076 -24.449219 L -8.52767 -24.328125 L -8.84017 -24.183594 L -9.137045 -24.007812 L -9.418295 -23.804688 L -9.668295 -23.570312 L -9.890951 -23.296875 L -10.078451 -22.980469 L -10.234701 -22.613281 L -10.359701 -22.183594 L -10.449545 -21.6875 L -10.512045 -21.109375 L -10.539389 -20.433594 L -10.539389 -19.65625 L -10.508139 -18.765625 L -10.461264 -17.746094 L -10.398764 -16.605469 L -10.332357 -15.328125 L -10.269857 -13.929688 L -10.21517 -12.40625 L -10.180014 -10.777344 L -10.164389 -9.046875 L -10.160482 -7.234375 L -10.172201 -5.355469 L -10.191732 -3.433594 L -10.211264 -1.488281 L -10.230795 0.460938 L -10.242514 2.390625 L -10.250326 4.285156 L -10.24642 6.125 L -10.234701 7.894531 L -10.211264 9.574219 L -10.180014 11.15625 L -10.137045 12.628906 L -10.082357 13.988281 L -10.019857 15.226562 L -9.941732 16.34375 L -9.855795 17.339844 L -9.762045 18.21875 L -9.664389 18.984375 L -9.570639 19.644531 L -9.480795 20.203125 L -9.398764 20.675781 L -9.336264 21.0625 L -9.285482 21.382812 L -9.254232 21.636719 L -9.238607 21.835938 L -9.230795 21.988281 L -9.234701 22.101562 L -9.238607 22.179688 L -9.24642 22.230469 L -9.250326 22.257812 L -9.254232 22.269531 L -9.258139 22.363281 L -9.21517 22.558594 L -9.055014 22.863281 L -8.691732 23.265625 L -8.05892 23.722656 L -7.125326 24.179688 L -5.883139 24.585938 L -4.359701 24.910156 L -2.62142 25.148438 L -0.769857 25.316406 L 1.069986 25.433594 L 2.773111 25.511719 L 4.234049 25.558594 L 5.386393 25.582031 L 6.214518 25.589844 L 6.737955 25.585938 L 6.987955 25.582031 L 7.027018 25.582031 L 7.089518 25.578125 L 7.210611 25.570312 L 7.382486 25.542969 L 7.601236 25.492188 L 7.84733 25.402344 L 8.116861 25.265625 L 8.394205 25.074219 L 8.671549 24.824219 L 8.94108 24.515625 L 9.198893 24.148438 L 9.433268 23.726562 L 9.648111 23.253906 L 9.831705 22.726562 L 9.980143 22.148438 L 10.089518 21.511719 L 10.155924 20.808594 L 10.179361 20.035156 L 10.155924 19.175781 L 10.09733 18.226562 L 10.007486 17.175781 L 9.902018 16.019531 L 9.788736 14.753906 L 9.683268 13.382812 L 9.59733 11.910156 L 9.538736 10.339844 L 9.511393 8.683594 L 9.515299 6.957031 L 9.546549 5.171875 L 9.601236 3.34375 L 9.667643 1.496094 L 9.741861 -0.359375 L 9.808268 -2.203125 L 9.870768 -4.019531 L 9.917643 -5.789062 L 9.956705 -7.496094 L 9.976236 -9.128906 L 9.987955 -10.675781 L 9.987955 -12.125 L 9.980143 -13.472656 L 9.964518 -14.710938 L 9.94108 -15.839844 L 9.90983 -16.855469 L 9.87858 -17.761719 L 9.839518 -18.558594 L 9.800455 -19.257812 L 9.765299 -19.855469 L 9.734049 -20.367188 L 9.710611 -20.796875 L 9.69108 -21.152344 L 9.683268 -21.445312 L 9.683268 -21.863281 L 9.69108 -22.003906 L 9.702799 -22.109375 L 9.710611 -22.1875 L 9.718424 -22.234375 L 9.718424 -22.257812 L 9.72233 -22.257812 L 9.72233 -22.359375 L 9.671549 -22.53125 L 9.476236 -22.785156 L 9.058268 -23.117188 L 8.351236 -23.523438 L 7.331705 -23.976562 L 6.011393 -24.433594 L 4.429361 -24.84375 L 2.655924 -25.148438 L 0.78483 -25.324219 L -1.066732 -25.367188 L -2.773764 -25.3125 L -4.234701 -25.195312 L -5.387045 -25.058594 L -6.21517 -24.933594 L -6.738607 -24.839844 L -6.988607 -24.789062 L -7.019857 -24.78125 " transform="matrix(1, 0, 0, 1, 146.59017, 159)"/>
<path fill-rule="evenodd" fill="rgb(100%, 100%, 100%)" fill-opacity="1" stroke-width="1" stroke-linecap="butt" stroke-linejoin="bevel" stroke="rgb(50.048876%, 50.048876%, 50.048876%)" stroke-opacity="1" stroke-miterlimit="10" d="M -2.198893 -25.234375 L -2.202799 -25.238281 L -2.226236 -25.25 L -2.273111 -25.277344 L -2.339518 -25.316406 L -2.425455 -25.371094 L -2.530924 -25.4375 L -2.652018 -25.507812 L -2.78483 -25.574219 L -2.929361 -25.628906 L -3.085611 -25.664062 L -3.249674 -25.660156 L -3.413736 -25.609375 L -3.585611 -25.503906 L -3.75358 -25.339844 L -3.921549 -25.109375 L -4.081705 -24.820312 L -4.237955 -24.472656 L -4.382486 -24.074219 L -4.519205 -23.632812 L -4.640299 -23.152344 L -4.749674 -22.644531 L -4.843424 -22.101562 L -4.917643 -21.53125 L -4.976236 -20.929688 L -5.023111 -20.289062 L -5.050455 -19.609375 L -5.06608 -18.882812 L -5.069986 -18.105469 L -5.06608 -17.269531 L -5.058268 -16.371094 L -5.050455 -15.40625 L -5.046549 -14.378906 L -5.042643 -13.285156 L -5.046549 -12.132812 L -5.058268 -10.917969 L -5.073893 -9.652344 L -5.09733 -8.335938 L -5.124674 -6.980469 L -5.155924 -5.589844 L -5.187174 -4.171875 L -5.214518 -2.734375 L -5.241861 -1.289062 L -5.265299 0.160156 L -5.280924 1.601562 L -5.292643 3.027344 L -5.300455 4.429688 L -5.304361 5.800781 L -5.304361 7.136719 L -5.300455 8.429688 L -5.296549 9.667969 L -5.288736 10.855469 L -5.277018 11.984375 L -5.265299 13.050781 L -5.25358 14.050781 L -5.237955 14.988281 L -5.22233 15.855469 L -5.202799 16.65625 L -5.19108 17.390625 L -5.183268 18.058594 L -5.187174 18.660156 L -5.202799 19.203125 L -5.234049 19.6875 L -5.288736 20.113281 L -5.359049 20.488281 L -5.452799 20.816406 L -5.56608 21.097656 L -5.694986 21.339844 L -5.835611 21.542969 L -5.984049 21.714844 L -6.132486 21.859375 L -6.277018 21.976562 L -6.417643 22.070312 L -6.538736 22.148438 L -6.648111 22.207031 L -6.737955 22.25 L -6.804361 22.28125 L -6.851236 22.300781 L -6.874674 22.3125 L -6.87858 22.3125 L -6.898111 22.320312 L -7.007486 22.402344 L -7.00358 22.601562 L -6.609049 22.964844 L -5.710611 23.472656 L -4.40983 24.054688 L -2.956705 24.605469 L -1.59733 25.039062 L -0.452799 25.328125 L 0.461264 25.503906 L 1.164389 25.617188 L 1.680014 25.707031 L 2.015951 25.777344 L 2.180014 25.820312 L 2.199545 25.824219 L 2.203451 25.828125 L 2.226889 25.832031 L 2.273764 25.847656 L 2.34017 25.867188 L 2.426107 25.894531 L 2.52767 25.925781 L 2.648764 25.957031 L 2.781576 25.980469 L 2.926107 25.988281 L 3.074545 25.972656 L 3.226889 25.921875 L 3.383139 25.824219 L 3.535482 25.671875 L 3.680014 25.464844 L 3.824545 25.199219 L 3.957357 24.878906 L 4.082357 24.507812 L 4.195639 24.09375 L 4.305014 23.636719 L 4.40267 23.152344 L 4.49642 22.632812 L 4.586264 22.089844 L 4.668295 21.519531 L 4.74642 20.917969 L 4.820639 20.28125 L 4.890951 19.605469 L 4.953451 18.878906 L 5.012045 18.101562 L 5.05892 17.265625 L 5.097982 16.367188 L 5.125326 15.40625 L 5.144857 14.378906 L 5.148764 13.285156 L 5.140951 12.132812 L 5.12142 10.917969 L 5.094076 9.652344 L 5.05892 8.335938 L 5.019857 6.980469 L 4.980795 5.589844 L 4.945639 4.171875 L 4.914389 2.734375 L 4.887045 1.289062 L 4.867514 -0.160156 L 4.855795 -1.601562 L 4.851889 -3.027344 L 4.847982 -4.429688 L 4.847982 -5.800781 L 4.851889 -7.136719 L 4.855795 -8.429688 L 4.863607 -9.667969 L 4.875326 -10.855469 L 4.890951 -11.984375 L 4.914389 -13.050781 L 4.945639 -14.050781 L 4.988607 -14.988281 L 5.039389 -15.855469 L 5.101889 -16.65625 L 5.172201 -17.390625 L 5.24642 -18.058594 L 5.316732 -18.660156 L 5.387045 -19.203125 L 5.445639 -19.6875 L 5.488607 -20.113281 L 5.512045 -20.488281 L 5.519857 -20.816406 L 5.508139 -21.097656 L 5.480795 -21.339844 L 5.441732 -21.542969 L 5.387045 -21.714844 L 5.332357 -21.859375 L 5.27767 -21.976562 L 5.222982 -22.070312 L 5.176107 -22.148438 L 5.137045 -22.207031 L 5.109701 -22.25 L 5.086264 -22.28125 L 5.070639 -22.300781 L 5.066732 -22.3125 L 5.062826 -22.3125 L 5.05892 -22.324219 L 5.004232 -22.398438 L 4.906576 -22.535156 L 4.730795 -22.730469 L 4.383139 -23.007812 L 3.781576 -23.367188 L 2.922201 -23.757812 L 1.894857 -24.101562 L 0.844076 -24.355469 L -0.12858 -24.546875 L -0.944986 -24.738281 L -1.569986 -24.9375 L -1.976236 -25.117188 L -2.175455 -25.222656 L -2.198893 -25.234375 " transform="matrix(1, 0, 0, 1, 95.40983, 29)"/>
<path fill-rule="evenodd" fill="rgb(100%, 100%, 100%)" fill-opacity="1" stroke-width="1" stroke-linecap="butt" stroke-linejoin="bevel" stroke="rgb(50.048876%, 50.048876%, 50.048876%)" stroke-opacity="1" stroke-miterlimit="10" d="M -2.199545 -4.574219 L -2.226889 -4.585938 L -2.410482 -4.671875 L -2.754232 -4.851562 L -3.203451 -5.023438 L -3.711264 -4.964844 L -4.230795 -4.460938 L -4.691732 -3.492188 L -5.012045 -2.253906 L -5.148764 -1.003906 L -5.094076 0.078125 L -4.90267 0.9375 L -4.65267 1.566406 L -4.430014 1.976562 L -4.305014 2.175781 L -4.273764 2.222656 L -4.160482 2.382812 L -3.930014 2.691406 L -3.578451 3.113281 L -3.097982 3.558594 L -2.504232 3.941406 L -1.805014 4.191406 L -1.035482 4.3125 L -0.242514 4.34375 L 0.515299 4.34375 L 1.171549 4.335938 L 1.679361 4.328125 L 2.015299 4.3125 L 2.179361 4.300781 L 2.198893 4.296875 L 2.22233 4.296875 L 2.374674 4.265625 L 2.648111 4.152344 L 2.976236 3.882812 L 3.296549 3.414062 L 3.562174 2.757812 L 3.769205 1.96875 L 3.94108 1.121094 L 4.148111 0.273438 L 4.44108 -0.507812 L 4.84733 -1.171875 L 5.31608 -1.679688 L 5.741861 -2.015625 L 5.995768 -2.179688 L 6.027018 -2.199219 L 6.062174 -2.222656 L 6.269205 -2.382812 L 6.433268 -2.695312 L 6.230143 -3.117188 L 5.487955 -3.582031 L 4.300455 -3.988281 L 2.913736 -4.261719 L 1.581705 -4.382812 L 0.448893 -4.390625 L -0.461264 -4.367188 L -1.164389 -4.371094 L -1.680014 -4.429688 L -2.015951 -4.507812 L -2.180014 -4.566406 L -2.199545 -4.574219 " transform="matrix(1, 0, 0, 1, 141.59017, 229)"/>
<path fill-rule="evenodd" fill="rgb(100%, 100%, 100%)" fill-opacity="1" stroke-width="1" stroke-linecap="butt" stroke-linejoin="bevel" stroke="rgb(50.048876%, 50.048876%, 50.048876%)" stroke-opacity="1" stroke-miterlimit="10" d="M -7.019857 -10.027344 L -7.051107 -10.03125 L -7.281576 -10.023438 L -7.68392 -9.957031 L -8.168295 -9.734375 L -8.640951 -9.273438 L -9.05892 -8.515625 L -9.410482 -7.449219 L -9.711264 -6.085938 L -9.969076 -4.472656 L -10.168295 -2.675781 L -10.27767 -0.792969 L -10.254232 1.0625 L -10.09017 2.773438 L -9.805014 4.234375 L -9.461264 5.386719 L -9.12142 6.214844 L -8.855795 6.738281 L -8.711264 6.988281 L -8.695639 7.019531 L -8.672201 7.054688 L -8.49642 7.332031 L -8.137045 7.824219 L -7.629232 8.433594 L -7.055014 9.039062 L -6.500326 9.53125 L -5.980795 9.859375 L -5.398764 10.027344 L -4.570639 10.089844 L -3.355795 10.089844 L -1.750326 10.0625 L 0.112955 10.011719 L 2.00358 9.960938 L 3.706705 9.9375 L 5.081705 9.972656 L 6.069986 10.066406 L 6.69108 10.1875 L 6.984049 10.273438 L 7.019205 10.285156 L 7.050455 10.292969 L 7.28483 10.355469 L 7.702799 10.378906 L 8.218424 10.234375 L 8.734049 9.792969 L 9.175455 8.984375 L 9.519205 7.8125 L 9.777018 6.332031 L 9.987955 4.613281 L 10.171549 2.746094 L 10.319986 0.820312 L 10.402018 -1.054688 L 10.398111 -2.769531 L 10.319986 -4.234375 L 10.214518 -5.386719 L 10.12858 -6.214844 L 10.073893 -6.738281 L 10.054361 -6.988281 L 10.054361 -7.019531 L 10.050455 -7.050781 L 10.023111 -7.285156 L 9.921549 -7.703125 L 9.667643 -8.222656 L 9.187174 -8.757812 L 8.429361 -9.234375 L 7.374674 -9.605469 L 6.030924 -9.863281 L 4.44108 -10.011719 L 2.65983 -10.070312 L 0.78483 -10.074219 L -1.066732 -10.046875 L -2.773764 -10.019531 L -4.234701 -10.003906 L -5.387045 -10 L -6.21517 -10.007812 L -6.738607 -10.019531 L -6.988607 -10.027344 L -7.019857 -10.027344 " transform="matrix(1, 0, 0, 1, 146.59017, 194)"/>
<path fill-rule="evenodd" fill="rgb(100%, 100%, 100%)" fill-opacity="1" stroke-width="1" stroke-linecap="butt" stroke-linejoin="bevel" stroke="rgb(50.048876%, 50.048876%, 50.048876%)" stroke-opacity="1" stroke-miterlimit="10" d="M -11.777018 -15.429688 L -11.827799 -15.433594 L -12.210611 -15.441406 L -12.851236 -15.382812 L -13.569986 -15.121094 L -14.187174 -14.523438 L -14.612955 -13.476562 L -14.839518 -11.921875 L -14.925455 -9.847656 L -14.925455 -7.300781 L -14.87858 -4.394531 L -14.78483 -1.292969 L -14.636393 1.796875 L -14.433268 4.652344 L -14.202799 7.101562 L -13.984049 9.035156 L -13.808268 10.425781 L -13.694986 11.304688 L -13.640299 11.722656 L -13.632486 11.777344 L -13.624674 11.835938 L -13.56608 12.296875 L -13.460611 13.117188 L -13.308268 14.121094 L -13.081705 15.078125 L -12.683268 15.78125 L -11.956705 16.136719 L -10.730143 16.195312 L -8.859049 16.082031 L -6.319986 15.941406 L -3.25358 15.847656 L 0.0745449 15.792969 L 3.332357 15.734375 L 6.21517 15.632812 L 8.523764 15.488281 L 10.18392 15.320312 L 11.222982 15.171875 L 11.71517 15.082031 L 11.77767 15.070312 L 11.836264 15.058594 L 12.297201 14.960938 L 13.12142 14.75 L 14.125326 14.40625 L 15.09017 13.90625 L 15.80892 13.207031 L 16.172201 12.226562 L 16.219076 10.824219 L 16.074545 8.867188 L 15.879232 6.304688 L 15.730795 3.238281 L 15.656576 -0.0820312 L 15.62142 -3.335938 L 15.582357 -6.214844 L 15.504232 -8.523438 L 15.390951 -10.183594 L 15.27767 -11.222656 L 15.203451 -11.714844 L 15.195639 -11.777344 L 15.18392 -11.835938 L 15.097982 -12.296875 L 14.898764 -13.117188 L 14.555014 -14.121094 L 14.039389 -15.070312 L 13.312826 -15.757812 L 12.297201 -16.078125 L 10.867514 -16.0625 L 8.887045 -15.835938 L 6.312826 -15.542969 L 3.242514 -15.300781 L -0.0817051 -15.15625 L -3.335611 -15.113281 L -6.214518 -15.15625 L -8.523111 -15.238281 L -10.183268 -15.328125 L -11.22233 -15.394531 L -11.714518 -15.425781 L -11.777018 -15.429688 " transform="matrix(1, 0, 0, 1, 105.40983, 169)"/>
<path fill-rule="evenodd" fill="rgb(100%, 100%, 100%)" fill-opacity="1" stroke-width="1" stroke-linecap="butt" stroke-linejoin="bevel" stroke="rgb(50.048876%, 50.048876%, 50.048876%)" stroke-opacity="1" stroke-miterlimit="10" d="M -32.202146 -14.640625 L -32.221678 -14.644531 L -32.362303 -14.683594 L -32.612303 -14.761719 L -32.920896 -14.847656 L -33.264646 -14.808594 L -33.620115 -14.445312 L -33.983396 -13.550781 L -34.334959 -11.96875 L -34.655271 -9.679688 L -34.936521 -6.777344 L -35.190428 -3.460938 L -35.41699 0 L -35.620115 3.3125 L -35.803709 6.210938 L -35.959959 8.523438 L -36.096678 10.183594 L -36.19824 11.222656 L -36.256834 11.714844 L -36.264646 11.777344 L -36.264646 11.789062 L -36.280271 11.902344 L -36.311521 12.117188 L -36.35449 12.429688 L -36.409178 12.820312 L -36.471678 13.265625 L -36.522459 13.742188 L -36.54199 14.21875 L -36.514646 14.664062 L -36.409178 15.050781 L -36.209959 15.355469 L -35.897459 15.566406 L -35.463865 15.675781 L -34.901365 15.695312 L -34.217771 15.628906 L -33.405271 15.5 L -32.475584 15.332031 L -31.428709 15.148438 L -30.26074 14.972656 L -28.959959 14.8125 L -27.522459 14.691406 L -25.936521 14.609375 L -24.194334 14.566406 L -22.288084 14.5625 L -20.221678 14.589844 L -17.991209 14.640625 L -15.612303 14.703125 L -13.096678 14.769531 L -10.471678 14.832031 L -7.752928 14.882812 L -4.967771 14.917969 L -2.155271 14.929688 L 0.665041 14.921875 L 3.461916 14.890625 L 6.204104 14.84375 L 8.86426 14.785156 L 11.422854 14.726562 L 13.852541 14.667969 L 16.141604 14.628906 L 18.274416 14.605469 L 20.23926 14.613281 L 22.028322 14.652344 L 23.64551 14.71875 L 25.086916 14.808594 L 26.360354 14.917969 L 27.465822 15.039062 L 28.422854 15.152344 L 29.231447 15.253906 L 29.915041 15.332031 L 30.477541 15.378906 L 30.934572 15.390625 L 31.30176 15.367188 L 31.590822 15.308594 L 31.813479 15.230469 L 31.977541 15.140625 L 32.090822 15.058594 L 32.165041 14.992188 L 32.200197 14.957031 L 32.204104 14.949219 L 32.219729 14.933594 L 32.348635 14.796875 L 32.586916 14.519531 L 32.907229 14.082031 L 33.262697 13.429688 L 33.606447 12.484375 L 33.89551 11.140625 L 34.122072 9.316406 L 34.290041 6.992188 L 34.411135 4.242188 L 34.497072 1.230469 L 34.540041 -1.816406 L 34.528322 -4.65625 L 34.473635 -7.101562 L 34.387697 -9.035156 L 34.30176 -10.425781 L 34.235354 -11.304688 L 34.200197 -11.722656 L 34.196291 -11.777344 L 34.196291 -11.789062 L 34.188479 -11.894531 L 34.165041 -12.089844 L 34.129885 -12.367188 L 34.075197 -12.699219 L 33.997072 -13.058594 L 33.887697 -13.421875 L 33.743166 -13.757812 L 33.559572 -14.050781 L 33.325197 -14.285156 L 33.036135 -14.453125 L 32.684572 -14.566406 L 32.258791 -14.625 L 31.750979 -14.644531 L 31.14551 -14.644531 L 30.42676 -14.636719 L 29.586916 -14.632812 L 28.606447 -14.644531 L 27.477541 -14.671875 L 26.184572 -14.714844 L 24.727541 -14.769531 L 23.098635 -14.832031 L 21.297854 -14.894531 L 19.336916 -14.953125 L 17.215822 -14.996094 L 14.950197 -15.023438 L 12.559572 -15.039062 L 10.063479 -15.035156 L 7.481447 -15.023438 L 4.840822 -15 L 2.165041 -14.976562 L -0.522459 -14.957031 L -3.190428 -14.941406 L -5.815428 -14.933594 L -8.374021 -14.9375 L -10.842771 -14.949219 L -13.206053 -14.964844 L -15.444334 -14.980469 L -17.54199 -14.988281 L -19.491209 -14.988281 L -21.284178 -14.976562 L -22.913084 -14.949219 L -24.38574 -14.910156 L -25.694334 -14.859375 L -26.850584 -14.804688 L -27.858396 -14.746094 L -28.72949 -14.691406 L -29.467771 -14.644531 L -30.088865 -14.605469 L -30.60449 -14.582031 L -31.026365 -14.566406 L -31.362303 -14.566406 L -31.631834 -14.574219 L -31.834959 -14.585938 L -31.987303 -14.605469 L -32.096678 -14.621094 L -32.16699 -14.632812 L -32.19824 -14.640625 L -32.202146 -14.640625 " transform="matrix(1, 0, 0, 1, 39.22949, 124)"/>
<path fill-rule="evenodd" fill="rgb(100%, 100%, 100%)" fill-opacity="1" stroke-width="1" stroke-linecap="butt" stroke-linejoin="bevel" stroke="rgb(50.048876%, 50.048876%, 50.048876%)" stroke-opacity="1" stroke-miterlimit="10" d="M -12.230795 -9.40625 L -12.24642 -9.382812 L -12.367514 -9.195312 L -12.578451 -8.75 L -12.844076 -8.03125 L -13.129232 -7.136719 L -13.418295 -6.261719 L -13.703451 -5.542969 L -13.976889 -4.917969 L -14.219076 -4.183594 L -14.414389 -3.113281 L -14.566732 -1.628906 L -14.668295 0.160156 L -14.726889 2.015625 L -14.734701 3.710938 L -14.68392 5.082031 L -14.582357 6.070312 L -14.472982 6.691406 L -14.40267 6.984375 L -14.394857 7.019531 L -14.390951 7.035156 L -14.355795 7.144531 L -14.289389 7.351562 L -14.176107 7.640625 L -14.012045 7.988281 L -13.801107 8.359375 L -13.543295 8.71875 L -13.258139 9.039062 L -12.949545 9.292969 L -12.62142 9.472656 L -12.265951 9.585938 L -11.867514 9.640625 L -11.390951 9.664062 L -10.80892 9.675781 L -10.09017 9.691406 L -9.211264 9.71875 L -8.160482 9.765625 L -6.945639 9.828125 L -5.574545 9.898438 L -4.082357 9.972656 L -2.500326 10.042969 L -0.87142 10.109375 L 0.761393 10.167969 L 2.362955 10.21875 L 3.890299 10.261719 L 5.31608 10.292969 L 6.612955 10.316406 L 7.765299 10.335938 L 8.769205 10.355469 L 9.616861 10.375 L 10.31608 10.394531 L 10.882486 10.40625 L 11.323893 10.40625 L 11.655924 10.382812 L 11.902018 10.34375 L 12.069986 10.296875 L 12.171549 10.253906 L 12.22233 10.226562 L 12.230143 10.222656 L 12.241861 10.214844 L 12.355143 10.144531 L 12.581705 9.972656 L 12.925455 9.648438 L 13.34733 9.117188 L 13.800455 8.339844 L 14.210611 7.289062 L 14.538736 5.96875 L 14.769205 4.398438 L 14.921549 2.640625 L 15.03483 0.777344 L 15.136393 -1.070312 L 15.237955 -2.773438 L 15.339518 -4.234375 L 15.433268 -5.386719 L 15.511393 -6.214844 L 15.56608 -6.738281 L 15.593424 -6.988281 L 15.59733 -7.019531 L 15.601236 -7.035156 L 15.609049 -7.132812 L 15.612955 -7.324219 L 15.585611 -7.59375 L 15.499674 -7.917969 L 15.327799 -8.269531 L 15.054361 -8.628906 L 14.671549 -8.964844 L 14.179361 -9.257812 L 13.585611 -9.503906 L 12.902018 -9.699219 L 12.12858 -9.851562 L 11.269205 -9.964844 L 10.319986 -10.046875 L 9.277018 -10.097656 L 8.12858 -10.121094 L 6.882486 -10.113281 L 5.53483 -10.074219 L 4.101236 -10.007812 L 2.605143 -9.917969 L 1.073893 -9.816406 L -0.469076 -9.71875 L -1.984701 -9.632812 L -3.445639 -9.566406 L -4.824545 -9.53125 L -6.097982 -9.535156 L -7.250326 -9.574219 L -8.269857 -9.640625 L -9.156576 -9.726562 L -9.90267 -9.808594 L -10.519857 -9.871094 L -11.019857 -9.894531 L -11.414389 -9.867188 L -11.711264 -9.792969 L -11.930014 -9.683594 L -12.082357 -9.566406 L -12.180014 -9.46875 L -12.222982 -9.414062 L -12.230795 -9.40625 " transform="matrix(1, 0, 0, 1, 151.59017, 214)"/>
<path fill-rule="evenodd" fill="rgb(100%, 100%, 100%)" fill-opacity="1" stroke-width="1" stroke-linecap="butt" stroke-linejoin="bevel" stroke="rgb(50.048876%, 50.048876%, 50.048876%)" stroke-opacity="1" stroke-miterlimit="10" d="M -17.297854 -5.308594 L -17.313479 -5.335938 L -17.403322 -5.582031 L -17.559572 -6.074219 L -17.743166 -6.617188 L -17.969729 -6.78125 L -18.282229 -6.171875 L -18.700197 -4.78125 L -19.172854 -3.011719 L -19.563479 -1.335938 L -19.762697 -0.0234375 L -19.778322 0.917969 L -19.704104 1.566406 L -19.64551 1.976562 L -19.622072 2.175781 L -19.622072 2.234375 L -19.618166 2.292969 L -19.618166 2.488281 L -19.622072 2.617188 L -19.622072 2.765625 L -19.61426 2.925781 L -19.590822 3.09375 L -19.536135 3.269531 L -19.446291 3.445312 L -19.309572 3.617188 L -19.118166 3.789062 L -18.872072 3.960938 L -18.567385 4.121094 L -18.20801 4.277344 L -17.790041 4.421875 L -17.325197 4.554688 L -16.80176 4.675781 L -16.223635 4.777344 L -15.590822 4.863281 L -14.887697 4.929688 L -14.122072 4.976562 L -13.278322 5.007812 L -12.360354 5.027344 L -11.36426 5.035156 L -10.286135 5.039062 L 1.694334 5.039062 L 3.077146 5.042969 L 4.424803 5.046875 L 5.721678 5.058594 L 6.967771 5.074219 L 8.147459 5.09375 L 9.256834 5.117188 L 10.288084 5.140625 L 11.241209 5.167969 L 12.112303 5.191406 L 12.901365 5.21875 L 13.60449 5.242188 L 14.233396 5.265625 L 14.784178 5.285156 L 15.26074 5.296875 L 15.670896 5.296875 L 16.018553 5.289062 L 16.311521 5.261719 L 16.549803 5.21875 L 16.749021 5.160156 L 16.905271 5.089844 L 17.030271 5.007812 L 17.127928 4.925781 L 17.19824 4.847656 L 17.249021 4.777344 L 17.280271 4.730469 L 17.295896 4.703125 L 17.295896 4.699219 L 17.311521 4.679688 L 17.401365 4.488281 L 17.565428 4.0625 L 17.799803 3.417969 L 18.127928 2.699219 L 18.565428 2.066406 L 19.04199 1.558594 L 19.420896 1.070312 L 19.612303 0.472656 L 19.620115 -0.242188 L 19.561521 -0.96875 L 19.54199 -1.570312 L 19.588865 -1.976562 L 19.647459 -2.175781 L 19.655271 -2.199219 L 19.659178 -2.203125 L 19.66699 -2.230469 L 19.682615 -2.289062 L 19.69824 -2.371094 L 19.69824 -2.484375 L 19.674803 -2.621094 L 19.620115 -2.785156 L 19.522459 -2.96875 L 19.377928 -3.164062 L 19.186521 -3.371094 L 18.944334 -3.582031 L 18.663084 -3.785156 L 18.338865 -3.972656 L 17.975584 -4.144531 L 17.581053 -4.296875 L 17.147459 -4.421875 L 16.674803 -4.519531 L 16.159178 -4.597656 L 15.596678 -4.65625 L 14.97949 -4.703125 L 14.299803 -4.738281 L 13.553709 -4.769531 L 12.737303 -4.792969 L 11.850584 -4.816406 L 10.88574 -4.839844 L 9.850584 -4.855469 L 8.749021 -4.871094 L 7.581053 -4.878906 L 6.362303 -4.882812 L 5.092771 -4.878906 L 3.788084 -4.871094 L 2.456053 -4.863281 L 1.108396 -4.855469 L -0.243166 -4.84375 L -1.586916 -4.832031 L -2.911135 -4.820312 L -4.20801 -4.804688 L -5.461916 -4.785156 L -6.668947 -4.753906 L -7.821291 -4.714844 L -8.911135 -4.664062 L -9.930666 -4.605469 L -10.875979 -4.542969 L -11.750979 -4.476562 L -12.543947 -4.414062 L -13.266604 -4.355469 L -13.911135 -4.3125 L -14.481447 -4.285156 L -14.985354 -4.273438 L -15.422854 -4.285156 L -15.797854 -4.316406 L -16.11426 -4.371094 L -16.383791 -4.449219 L -16.606447 -4.542969 L -16.786135 -4.652344 L -16.934572 -4.769531 L -17.047854 -4.890625 L -17.137697 -5.011719 L -17.204104 -5.117188 L -17.250979 -5.207031 L -17.282229 -5.269531 L -17.297854 -5.304688 L -17.297854 -5.308594 " transform="matrix(1, 0, 0, 1, 192.77051, 159)"/>
<path fill-rule="evenodd" fill="rgb(100%, 100%, 100%)" fill-opacity="1" stroke-width="1" stroke-linecap="butt" stroke-linejoin="bevel" stroke="rgb(50.048876%, 50.048876%, 50.048876%)" stroke-opacity="1" stroke-miterlimit="10" d="M -7.019857 -15.1875 L -7.035482 -15.1875 L -7.144857 -15.199219 L -7.351889 -15.222656 L -7.644857 -15.25 L -8.000326 -15.28125 L -8.394857 -15.292969 L -8.801107 -15.257812 L -9.195639 -15.144531 L -9.551107 -14.925781 L -9.859701 -14.582031 L -10.101889 -14.097656 L -10.273764 -13.476562 L -10.37142 -12.722656 L -10.40267 -11.84375 L -10.367514 -10.84375 L -10.289389 -9.722656 L -10.172201 -8.488281 L -10.043295 -7.136719 L -9.910482 -5.683594 L -9.793295 -4.136719 L -9.695639 -2.527344 L -9.629232 -0.882812 L -9.597982 0.757812 L -9.597982 2.363281 L -9.625326 3.890625 L -9.664389 5.316406 L -9.711264 6.613281 L -9.742514 7.765625 L -9.750326 8.769531 L -9.734701 9.617188 L -9.691732 10.316406 L -9.637045 10.882812 L -9.586264 11.324219 L -9.547201 11.65625 L -9.531576 11.902344 L -9.531576 12.070312 L -9.539389 12.171875 L -9.551107 12.222656 L -9.551107 12.230469 L -9.555014 12.246094 L -9.59017 12.367188 L -9.68392 12.582031 L -9.828451 12.859375 L -9.898764 13.183594 L -9.71517 13.550781 L -9.09017 13.941406 L -7.941732 14.324219 L -6.316732 14.664062 L -4.347982 14.945312 L -2.203451 15.164062 L -0.0472012 15.320312 L 1.960611 15.414062 L 3.702799 15.429688 L 5.081705 15.386719 L 6.069986 15.308594 L 6.69108 15.234375 L 6.984049 15.191406 L 7.019205 15.183594 L 7.03483 15.183594 L 7.132486 15.164062 L 7.319986 15.121094 L 7.585611 15.039062 L 7.902018 14.90625 L 8.245768 14.707031 L 8.59733 14.433594 L 8.933268 14.078125 L 9.234049 13.644531 L 9.495768 13.125 L 9.710611 12.527344 L 9.87858 11.839844 L 9.999674 11.058594 L 10.077799 10.175781 L 10.124674 9.183594 L 10.144205 8.070312 L 10.144205 4.09375 L 10.163736 2.601562 L 10.198893 1.070312 L 10.25358 -0.46875 L 10.319986 -1.984375 L 10.394205 -3.445312 L 10.464518 -4.824219 L 10.519205 -6.097656 L 10.562174 -7.25 L 10.589518 -8.269531 L 10.612955 -9.15625 L 10.644205 -9.902344 L 10.687174 -10.519531 L 10.745768 -11.019531 L 10.819986 -11.414062 L 10.898111 -11.710938 L 10.97233 -11.929688 L 11.038736 -12.082031 L 11.085611 -12.179688 L 11.109049 -12.222656 L 11.112955 -12.230469 L 11.120768 -12.242188 L 11.155924 -12.351562 L 11.132486 -12.574219 L 10.905924 -12.898438 L 10.351236 -13.308594 L 9.40983 -13.757812 L 8.109049 -14.195312 L 6.515299 -14.558594 L 4.714518 -14.820312 L 2.792643 -14.96875 L 0.839518 -15.027344 L -1.051107 -15.039062 L -2.769857 -15.042969 L -4.234701 -15.054688 L -5.387045 -15.085938 L -6.21517 -15.125 L -6.738607 -15.164062 L -6.988607 -15.183594 L -7.019857 -15.1875 " transform="matrix(1, 0, 0, 1, 126.59017, 104)"/>
</svg>
