<?xml version="1.0" encoding="UTF-8"?>
<svg xmlns="http://www.w3.org/2000/svg" xmlns:xlink="http://www.w3.org/1999/xlink" width="217.013156pt" height="280.832816pt" viewBox="0 0 217.013156 280.832816" version="1.1">
<g id="surface437">
<path style="fill-rule:evenodd;fill:rgb(100%,100%,100%);fill-opacity:1;stroke-width:1;stroke-linecap:butt;stroke-linejoin:bevel;stroke:rgb(50.048876%,50.048876%,50.048876%);stroke-opacity:1;stroke-miterlimit:10;" d="M -2.198893 -49.542643 L -2.202799 -49.542643 L -2.210611 -49.538736 L -2.234049 -49.530924 L -2.265299 -49.519205 L -2.308268 -49.499674 L -2.362955 -49.480143 L -2.433268 -49.448893 L -2.515299 -49.40983 L -2.605143 -49.362955 L -2.710611 -49.308268 L -2.827799 -49.245768 L -2.956705 -49.171549 L -3.089518 -49.089518 L -3.234049 -48.995768 L -3.382486 -48.894205 L -3.530924 -48.78483 L -3.683268 -48.667643 L -3.831705 -48.542643 L -3.976236 -48.413736 L -4.112955 -48.277018 L -4.245768 -48.136393 L -4.370768 -47.991861 L -4.487955 -47.843424 L -4.593424 -47.69108 L -4.687174 -47.530924 L -4.777018 -47.366861 L -4.851236 -47.198893 L -4.921549 -47.023111 L -4.984049 -46.835611 L -5.038736 -46.640299 L -5.081705 -46.433268 L -5.124674 -46.214518 L -5.15983 -45.980143 L -5.187174 -45.730143 L -5.210611 -45.460611 L -5.230143 -45.167643 L -5.245768 -44.859049 L -5.257486 -44.523111 L -5.265299 -44.163736 L -5.269205 -43.777018 L -5.269205 -43.362955 L -5.265299 -42.921549 L -5.257486 -42.448893 L -5.249674 -41.948893 L -5.234049 -41.413736 L -5.218424 -40.84733 L -5.198893 -40.245768 L -5.183268 -39.609049 L -5.163736 -38.94108 L -5.144205 -38.237955 L -5.12858 -37.499674 L -5.116861 -36.726236 L -5.105143 -35.917643 L -5.09733 -35.069986 L -5.09733 -33.273111 L -5.101236 -32.323893 L -5.109049 -31.339518 L -5.120768 -30.319986 L -5.132486 -29.265299 L -5.144205 -28.179361 L -5.15983 -27.062174 L -5.171549 -25.913736 L -5.183268 -24.734049 L -5.194986 -23.527018 L -5.202799 -22.288736 L -5.206705 -21.027018 L -5.202799 -19.737955 L -5.198893 -18.425455 L -5.19108 -17.089518 L -5.179361 -15.734049 L -5.163736 -14.359049 L -5.144205 -12.964518 L -5.120768 -11.554361 L -5.093424 -10.132486 L -5.06608 -8.694986 L -5.038736 -7.249674 L -5.015299 -5.796549 L -4.987955 -4.335611 L -4.948893 -1.398111 L -4.933268 0.0706387 L -4.921549 1.535482 L -4.917643 3.000326 L -4.917643 4.461264 L -4.921549 5.914389 L -4.933268 7.355795 L -4.944986 8.785482 L -4.960611 10.207357 L -4.980143 11.609701 L -4.999674 13.000326 L -5.019205 14.367514 L -5.042643 15.719076 L -5.062174 17.051107 L -5.081705 18.355795 L -5.09733 19.640951 L -5.109049 20.898764 L -5.120768 22.129232 L -5.12858 23.332357 L -5.132486 24.508139 L -5.136393 25.65267 L -5.132486 26.765951 L -5.12858 27.851889 L -5.120768 28.90267 L -5.109049 29.922201 L -5.093424 30.910482 L -5.077799 31.863607 L -5.054361 32.781576 L -5.030924 33.668295 L -4.999674 34.519857 L -4.968424 35.34017 L -4.937174 36.12142 L -4.902018 36.875326 L -4.866861 37.59017 L -4.827799 38.27767 L -4.796549 38.926107 L -4.765299 39.547201 L -4.737955 40.133139 L -4.714518 40.691732 L -4.698893 41.219076 L -4.69108 41.71517 L -4.69108 42.180014 L -4.698893 42.62142 L -4.710611 43.031576 L -4.730143 43.418295 L -4.757486 43.77767 L -4.78483 44.113607 L -4.81608 44.426107 L -4.84733 44.71517 L -4.882486 44.980795 L -4.913736 45.226889 L -4.94108 45.457357 L -4.964518 45.664389 L -4.984049 45.855795 L -4.999674 46.02767 L -5.011393 46.187826 L -5.015299 46.328451 L -5.015299 46.461264 L -5.011393 46.574545 L -4.999674 46.680014 L -4.980143 46.773764 L -4.960611 46.859701 L -4.933268 46.93392 L -4.898111 46.99642 L -4.859049 47.055014 L -4.81608 47.105795 L -4.769205 47.148764 L -4.718424 47.187826 L -4.616861 47.250326 L -4.562174 47.273764 L -4.511393 47.293295 L -4.464518 47.30892 L -4.425455 47.320639 L -4.390299 47.332357 L -4.362955 47.34017 L -4.343424 47.344076 L -4.331705 47.344076 L -4.308268 47.351889 L -3.683268 47.476889 L -3.050455 47.629232 L -2.370768 47.914389 L -1.808268 48.332357 L -1.386393 48.801107 L -0.976236 49.180014 L -0.433268 49.383139 L 0.254232 49.398764 L 0.969076 49.265951 L 1.570639 49.039389 L 1.976889 48.789389 L 2.176107 48.617514 L 2.199545 48.594076 L 2.203451 48.594076 L 2.211264 48.582357 L 2.234701 48.562826 L 2.265951 48.535482 L 2.305014 48.49642 L 2.359701 48.449545 L 2.422201 48.394857 L 2.492514 48.336264 L 2.574545 48.273764 L 2.664389 48.207357 L 2.758139 48.137045 L 2.863607 48.066732 L 2.976889 47.992514 L 3.09017 47.922201 L 3.211264 47.847982 L 3.332357 47.77767 L 3.457357 47.707357 L 3.582357 47.633139 L 3.707357 47.562826 L 3.949545 47.414389 L 4.066732 47.336264 L 4.18392 47.254232 L 4.293295 47.168295 L 4.40267 47.070639 L 4.504232 46.96517 L 4.597982 46.851889 L 4.687826 46.726889 L 4.769857 46.586264 L 4.844076 46.43392 L 4.910482 46.262045 L 4.969076 46.074545 L 5.019857 45.863607 L 5.062826 45.637045 L 5.094076 45.387045 L 5.12142 45.113607 L 5.140951 44.812826 L 5.15267 44.488607 L 5.156576 44.137045 L 5.156576 43.347982 L 5.148764 42.910482 L 5.140951 42.441732 L 5.129232 41.941732 L 5.12142 41.410482 L 5.109701 40.844076 L 5.097982 40.242514 L 5.086264 39.609701 L 5.074545 38.941732 L 5.066732 38.238607 L 5.055014 37.500326 L 5.047201 36.726889 L 5.035482 35.914389 L 5.02767 35.070639 L 5.019857 34.191732 L 5.008139 33.273764 L 4.99642 32.324545 L 4.984701 31.34017 L 4.972982 30.320639 L 4.957357 29.265951 L 4.941732 28.180014 L 4.926107 27.062826 L 4.910482 25.914389 L 4.894857 24.734701 L 4.879232 23.52767 L 4.863607 22.289389 L 4.851889 21.02767 L 4.84017 19.738607 L 4.836264 18.426107 L 4.832357 17.09017 L 4.832357 15.734701 L 4.836264 14.359701 L 4.844076 12.96517 L 4.855795 11.555014 L 4.87142 10.133139 L 4.890951 8.695639 L 4.910482 7.250326 L 4.930014 5.797201 L 4.953451 4.336264 L 4.976889 2.867514 L 5.015951 -0.0699863 L 5.035482 -1.53483 L 5.051107 -2.999674 L 5.062826 -4.460611 L 5.070639 -5.913736 L 5.078451 -7.355143 L 5.078451 -10.206705 L 5.074545 -11.609049 L 5.066732 -12.999674 L 5.05892 -14.366861 L 5.047201 -15.718424 L 5.039389 -17.050455 L 5.02767 -18.355143 L 5.019857 -19.640299 L 5.012045 -20.898111 L 5.008139 -22.12858 L 5.004232 -23.331705 L 5.004232 -24.507486 L 5.008139 -25.652018 L 5.012045 -26.765299 L 5.015951 -27.851236 L 5.023764 -28.902018 L 5.031576 -29.921549 L 5.035482 -30.90983 L 5.043295 -31.862955 L 5.051107 -32.780924 L 5.055014 -33.667643 L 5.05892 -34.519205 L 5.062826 -35.339518 L 5.070639 -36.120768 L 5.074545 -36.874674 L 5.082357 -37.589518 L 5.094076 -38.277018 L 5.105795 -38.925455 L 5.117514 -39.546549 L 5.133139 -40.132486 L 5.148764 -40.69108 L 5.168295 -41.218424 L 5.187826 -41.714518 L 5.211264 -42.179361 L 5.230795 -42.620768 L 5.250326 -43.030924 L 5.269857 -43.417643 L 5.285482 -43.777018 L 5.301107 -44.112955 L 5.316732 -44.425455 L 5.324545 -44.714518 L 5.332357 -44.980143 L 5.332357 -45.456705 L 5.328451 -45.663736 L 5.316732 -45.855143 L 5.305014 -46.027018 L 5.289389 -46.187174 L 5.269857 -46.327799 L 5.24642 -46.460611 L 5.222982 -46.573893 L 5.195639 -46.679361 L 5.168295 -46.773111 L 5.140951 -46.859049 L 5.117514 -46.933268 L 5.09017 -46.995768 L 5.066732 -47.054361 L 5.047201 -47.105143 L 5.031576 -47.148111 L 5.019857 -47.187174 L 5.008139 -47.218424 L 5.000326 -47.249674 L 4.99642 -47.273111 L 4.99642 -47.319986 L 5.000326 -47.331705 L 5.000326 -47.339518 L 5.004232 -47.343424 L 5.004232 -47.351236 L 4.99642 -47.402018 L 4.887045 -47.558268 L 4.566732 -47.87858 L 3.976889 -48.355143 L 3.156576 -48.913736 L 2.207357 -49.421549 L 1.234701 -49.777018 L 0.316732 -49.937174 L -0.495768 -49.933268 L -1.167643 -49.835611 L -1.679361 -49.710611 L -2.015299 -49.605143 L -2.179361 -49.550455 L -2.198893 -49.542643 " transform="matrix(1,0,0,1,95.40983,112.40983)"/>
<path style="fill-rule:evenodd;fill:rgb(100%,100%,100%);fill-opacity:1;stroke-width:1;stroke-linecap:butt;stroke-linejoin:bevel;stroke:rgb(50.048876%,50.048876%,50.048876%);stroke-opacity:1;stroke-miterlimit:10;" d="M -11.777018 -25.266277 L -11.796549 -25.266277 L -11.960611 -25.277996 L -12.265299 -25.285809 L -12.667643 -25.266277 L -13.120768 -25.188152 L -13.56608 -25.020184 L -13.960611 -24.735027 L -14.277018 -24.313152 L -14.507486 -23.74284 L -14.648111 -23.008465 L -14.726236 -22.106121 L -14.75358 -21.016277 L -14.757486 -19.723309 L -14.75358 -18.219402 L -14.75358 -16.488934 L -14.769205 -14.527996 L -14.792643 -12.340496 L -14.831705 -9.949871 L -14.874674 -7.391277 L -14.925455 -4.699871 L -14.980143 -1.934246 L -15.03483 0.847004 L -15.101236 3.585285 L -15.167643 6.22591 L -15.237955 8.718098 L -15.304361 11.022785 L -15.362955 13.104816 L -15.398111 14.948566 L -15.413736 16.546223 L -15.40983 17.897785 L -15.394205 19.018879 L -15.382486 19.921223 L -15.37858 20.628254 L -15.390299 21.167316 L -15.421549 21.565754 L -15.456705 21.839191 L -15.491861 22.011066 L -15.515299 22.097004 L -15.519205 22.104816 L -15.527018 22.136066 L -15.601236 22.35091 L -15.773111 22.733723 L -15.999674 23.19466 L -16.105143 23.66341 L -15.792643 24.085285 L -14.78483 24.44466 L -12.948893 24.737629 L -10.339518 24.987629 L -7.148111 25.210285 L -3.62858 25.417316 L -0.0582676 25.597004 L 3.297201 25.718098 L 6.211264 25.75716 L 8.523764 25.714191 L 10.18392 25.616535 L 11.222982 25.511066 L 11.71517 25.44466 L 11.77767 25.436848 L 11.797201 25.432941 L 11.961264 25.409504 L 12.262045 25.347004 L 12.65267 25.241535 L 13.074545 25.073566 L 13.484701 24.827473 L 13.836264 24.483723 L 14.109701 24.034504 L 14.305014 23.464191 L 14.441732 22.753254 L 14.531576 21.88216 L 14.601889 20.835285 L 14.660482 19.589191 L 14.719076 18.124348 L 14.769857 16.425129 L 14.820639 14.487629 L 14.863607 12.315754 L 14.898764 9.936848 L 14.93392 7.38216 L 14.969076 4.69466 L 15.008139 1.932941 L 15.043295 -0.848309 L 15.074545 -3.58659 L 15.094076 -6.227215 L 15.101889 -8.719402 L 15.09017 -11.02409 L 15.066732 -13.106121 L 15.035482 -14.949871 L 15.012045 -16.547527 L 15.012045 -17.89909 L 15.051107 -19.020184 L 15.140951 -19.922527 L 15.281576 -20.629559 L 15.46517 -21.168621 L 15.668295 -21.567059 L 15.859701 -21.840496 L 16.012045 -22.012371 L 16.094076 -22.098309 L 16.105795 -22.106121 L 16.133139 -22.133465 L 16.305014 -22.320965 L 16.480795 -22.668621 L 16.410482 -23.106121 L 15.851889 -23.574871 L 14.672201 -24.012371 L 12.855795 -24.375652 L 10.476889 -24.645184 L 7.668295 -24.824871 L 4.574545 -24.93034 L 1.363607 -24.985027 L -1.773111 -25.016277 L -4.648111 -25.035809 L -7.101236 -25.070965 L -9.03483 -25.11784 L -10.425455 -25.176434 L -11.304361 -25.227215 L -11.72233 -25.262371 L -11.777018 -25.266277 " transform="matrix(1,0,0,1,105.40983,251.68034)"/>
<path style="fill-rule:evenodd;fill:rgb(100%,100%,100%);fill-opacity:1;stroke-width:1;stroke-linecap:butt;stroke-linejoin:bevel;stroke:rgb(50.048876%,50.048876%,50.048876%);stroke-opacity:1;stroke-miterlimit:10;" d="M -7.019857 -24.865071 L -7.09017 -24.865071 L -7.211264 -24.861165 L -7.375326 -24.841634 L -7.578451 -24.806478 L -7.805014 -24.740071 L -8.043295 -24.634603 L -8.285482 -24.486165 L -8.515951 -24.28304 L -8.734701 -24.029134 L -8.941732 -23.724446 L -9.133139 -23.361165 L -9.30892 -22.951009 L -9.469076 -22.482259 L -9.617514 -21.954915 L -9.750326 -21.365071 L -9.87142 -20.701009 L -9.972982 -19.954915 L -10.05892 -19.118978 L -10.129232 -18.18929 L -10.176107 -17.150228 L -10.211264 -16.00179 L -10.222982 -14.743978 L -10.226889 -13.380696 L -10.219076 -11.90804 L -10.199545 -10.337728 L -10.176107 -8.685384 L -10.144857 -6.958821 L -10.109701 -5.173665 L -10.066732 -3.34554 L -10.012045 -1.497884 L -9.953451 0.357585 L -9.883139 2.201335 L -9.80892 4.017741 L -9.726889 5.787272 L -9.644857 7.494304 L -9.566732 9.127116 L -9.492514 10.673991 L -9.426107 12.12321 L -9.37142 13.470866 L -9.328451 14.709147 L -9.297201 15.838054 L -9.273764 16.853679 L -9.265951 17.759929 L -9.269857 18.556804 L -9.293295 19.256022 L -9.332357 19.853679 L -9.398764 20.365397 L -9.492514 20.795085 L -9.617514 21.150554 L -9.769857 21.443522 L -9.945639 21.677897 L -10.140951 21.861491 L -10.336264 22.002116 L -10.515951 22.107585 L -10.672201 22.18571 L -10.785482 22.232585 L -10.847982 22.256022 L -10.855795 22.256022 L -10.883139 22.267741 L -11.082357 22.361491 L -11.312826 22.556804 L -11.328451 22.861491 L -10.918295 23.267741 L -9.99642 23.732585 L -8.605795 24.197429 L -6.867514 24.595866 L -4.926107 24.888835 L -2.898764 25.080241 L -0.883139 25.197429 L 1.03483 25.291179 L 2.765299 25.423991 L 4.234049 25.62321 L 5.386393 25.884929 L 6.214518 26.177897 L 6.737955 26.427897 L 6.987955 26.572429 L 7.019205 26.59196 L 7.027018 26.599772 L 7.089518 26.634929 L 7.206705 26.697429 L 7.374674 26.767741 L 7.573893 26.814616 L 7.792643 26.81071 L 8.023111 26.736491 L 8.257486 26.564616 L 8.487955 26.291179 L 8.714518 25.916179 L 8.937174 25.443522 L 9.152018 24.884929 L 9.362955 24.256022 L 9.56608 23.568522 L 9.75358 22.834147 L 9.921549 22.048991 L 10.062174 21.21696 L 10.167643 20.334147 L 10.234049 19.388835 L 10.261393 18.37321 L 10.249674 17.271647 L 10.202799 16.080241 L 10.136393 14.791179 L 10.050455 13.40446 L 9.968424 11.920085 L 9.890299 10.345866 L 9.831705 8.68571 L 9.796549 6.959147 L 9.788736 5.170085 L 9.804361 3.345866 L 9.843424 1.494304 L 9.898111 -0.361165 L 9.960611 -2.204915 L 10.023111 -4.021321 L 10.077799 -5.790853 L 10.12858 -7.497884 L 10.163736 -9.130696 L 10.187174 -10.677571 L 10.198893 -12.12679 L 10.202799 -13.474446 L 10.198893 -14.712728 L 10.183268 -15.841634 L 10.167643 -16.857259 L 10.144205 -17.763509 L 10.116861 -18.560384 L 10.089518 -19.259603 L 10.06608 -19.857259 L 10.050455 -20.368978 L 10.042643 -20.798665 L 10.050455 -21.154134 L 10.073893 -21.447103 L 10.105143 -21.681478 L 10.152018 -21.865071 L 10.202799 -22.005696 L 10.25358 -22.111165 L 10.296549 -22.18929 L 10.331705 -22.236165 L 10.34733 -22.259603 L 10.351236 -22.259603 L 10.362955 -22.275228 L 10.448893 -22.372884 L 10.636393 -22.544759 L 10.874674 -22.779134 L 10.995768 -23.06429 L 10.765299 -23.411946 L 9.987955 -23.81429 L 8.612955 -24.22054 L 6.745768 -24.552571 L 4.577799 -24.759603 L 2.304361 -24.837728 L 0.0856113 -24.833821 L -1.953451 -24.810384 L -3.699545 -24.806478 L -5.082357 -24.822103 L -6.070639 -24.84554 L -6.691732 -24.861165 L -6.984701 -24.865071 L -7.019857 -24.865071 " transform="matrix(1,0,0,1,146.59017,171.454915)"/>
<path style="fill-rule:evenodd;fill:rgb(100%,100%,100%);fill-opacity:1;stroke-width:1;stroke-linecap:butt;stroke-linejoin:bevel;stroke:rgb(50.048876%,50.048876%,50.048876%);stroke-opacity:1;stroke-miterlimit:10;" d="M -2.198893 -25.19466 L -2.202799 -25.19466 L -2.226236 -25.186848 L -2.269205 -25.171223 L -2.417643 -25.097004 L -2.523111 -25.030598 L -2.640299 -24.94466 L -2.777018 -24.827473 L -2.929361 -24.682941 L -3.089518 -24.50716 L -3.257486 -24.304035 L -3.429361 -24.077473 L -3.601236 -23.81966 L -3.773111 -23.546223 L -3.937174 -23.249348 L -4.093424 -22.932941 L -4.234049 -22.597004 L -4.362955 -22.241535 L -4.468424 -21.862629 L -4.558268 -21.456379 L -4.62858 -21.018879 L -4.683268 -20.542316 L -4.714518 -20.022785 L -4.734049 -19.456379 L -4.737955 -18.831379 L -4.734049 -18.151691 L -4.726236 -17.41341 L -4.714518 -16.608723 L -4.706705 -15.737629 L -4.706705 -14.804035 L -4.718424 -13.807941 L -4.737955 -12.749348 L -4.769205 -11.63216 L -4.81608 -10.460285 L -4.870768 -9.237629 L -4.929361 -7.972004 L -4.995768 -6.667316 L -5.058268 -5.331379 L -5.112955 -3.968098 L -5.15983 -2.589191 L -5.194986 -1.202473 L -5.210611 0.192059 L -5.210611 1.578777 L -5.194986 2.949871 L -5.163736 4.30534 L -5.120768 5.633465 L -5.06608 6.926434 L -5.007486 8.184246 L -4.944986 9.395184 L -4.886393 10.55534 L -4.827799 11.664715 L -4.773111 12.715496 L -4.726236 13.71159 L -4.683268 14.641277 L -4.648111 15.508465 L -4.616861 16.313152 L -4.593424 17.05534 L -4.569986 17.735027 L -4.554361 18.356121 L -4.538736 18.914715 L -4.530924 19.414715 L -4.527018 19.863934 L -4.523111 20.258465 L -4.523111 20.610027 L -4.527018 20.910809 L -4.53483 21.172527 L -4.538736 21.39909 L -4.538736 21.750652 L -4.53483 21.883465 L -4.527018 21.996746 L -4.515299 22.082684 L -4.495768 22.156902 L -4.480143 22.21159 L -4.464518 22.254559 L -4.448893 22.281902 L -4.437174 22.301434 L -4.421549 22.324871 L -4.359049 22.39909 L -4.19108 22.535809 L -3.890299 22.731121 L -3.452799 23.020184 L -2.898111 23.426434 L -2.241861 23.906902 L -1.491861 24.375652 L -0.65983 24.750652 L 0.18392 25.031902 L 0.957357 25.277996 L 1.570639 25.539715 L 1.976889 25.793621 L 2.176107 25.953777 L 2.199545 25.977215 L 2.203451 25.977215 L 2.226889 25.996746 L 2.269857 26.031902 L 2.336264 26.070965 L 2.422201 26.102215 L 2.52767 26.113934 L 2.648764 26.094402 L 2.789389 26.027996 L 2.941732 25.910809 L 3.105795 25.738934 L 3.273764 25.508465 L 3.445639 25.223309 L 3.617514 24.891277 L 3.785482 24.520184 L 3.945639 24.113934 L 4.094076 23.684246 L 4.238607 23.235027 L 4.367514 22.770184 L 4.484701 22.293621 L 4.59017 21.797527 L 4.680014 21.281902 L 4.762045 20.74284 L 4.828451 20.168621 L 4.883139 19.563152 L 4.926107 18.906902 L 4.957357 18.203777 L 4.980795 17.445965 L 4.99642 16.633465 L 5.004232 15.754559 L 5.004232 11.633465 L 5.008139 10.46159 L 5.015951 9.238934 L 5.023764 7.973309 L 5.035482 6.668621 L 5.051107 5.332684 L 5.066732 3.969402 L 5.082357 2.590496 L 5.097982 1.203777 L 5.109701 -0.190754 L 5.12142 -1.577473 L 5.129232 -2.948566 L 5.137045 -4.304035 L 5.137045 -6.925129 L 5.133139 -8.182941 L 5.125326 -9.393879 L 5.117514 -10.554035 L 5.109701 -11.66341 L 5.094076 -12.714191 L 5.082357 -13.710285 L 5.066732 -14.639973 L 5.047201 -15.50716 L 5.031576 -16.311848 L 5.015951 -17.054035 L 5.000326 -17.733723 L 4.984701 -18.354816 L 4.976889 -18.91341 L 4.976889 -19.41341 L 4.984701 -19.862629 L 5.004232 -20.25716 L 5.035482 -20.608723 L 5.082357 -20.909504 L 5.140951 -21.171223 L 5.211264 -21.397785 L 5.293295 -21.589191 L 5.379232 -21.749348 L 5.46517 -21.88216 L 5.547201 -21.995441 L 5.625326 -22.081379 L 5.691732 -22.155598 L 5.750326 -22.210285 L 5.793295 -22.253254 L 5.824545 -22.280598 L 5.945639 -22.401691 L 6.035482 -22.546223 L 5.99642 -22.792316 L 5.629232 -23.214191 L 4.816732 -23.827473 L 3.629232 -24.530598 L 2.281576 -25.128254 L 1.000326 -25.479816 L -0.0817051 -25.56966 L -0.937174 -25.495441 L -1.569986 -25.370441 L -1.976236 -25.264973 L -2.175455 -25.202473 L -2.198893 -25.19466 " transform="matrix(1,0,0,1,95.40983,29.31966)"/>
<path style="fill-rule:evenodd;fill:rgb(100%,100%,100%);fill-opacity:1;stroke-width:1;stroke-linecap:butt;stroke-linejoin:bevel;stroke:rgb(50.048876%,50.048876%,50.048876%);stroke-opacity:1;stroke-miterlimit:10;" d="M -2.199545 -5.037925 L -2.222982 -5.041831 L -2.387045 -5.057456 L -2.734701 -4.979331 L -3.254232 -4.674644 L -3.90267 -4.0848 L -4.566732 -3.24105 L -5.117514 -2.256675 L -5.461264 -1.256675 L -5.597982 -0.326987 L -5.605795 0.493325 L -5.597982 1.169106 L -5.65267 1.680825 L -5.754232 2.016763 L -5.832357 2.180825 L -5.844076 2.200356 L -5.855795 2.223794 L -5.914389 2.387856 L -5.87142 2.7277 L -5.531576 3.219888 L -4.805014 3.798013 L -3.758139 4.348794 L -2.570639 4.782388 L -1.410482 5.063638 L -0.383139 5.2277 L 0.476236 5.305825 L 1.163736 5.333169 L 1.679361 5.313638 L 2.015299 5.270669 L 2.179361 5.235513 L 2.198893 5.231606 L 2.226236 5.223794 L 2.40983 5.1652 L 2.757486 5.001138 L 3.218424 4.684731 L 3.745768 4.173013 L 4.261393 3.473794 L 4.644205 2.63395 L 4.804361 1.704263 L 4.749674 0.751138 L 4.601236 -0.159019 L 4.507486 -0.951987 L 4.538736 -1.569175 L 4.652018 -1.975425 L 4.745768 -2.174644 L 4.761393 -2.198081 L 4.773111 -2.221519 L 4.835611 -2.381675 L 4.835611 -2.698081 L 4.612955 -3.1473 L 4.073893 -3.674644 L 3.257486 -4.194175 L 2.277018 -4.619956 L 1.273111 -4.889487 L 0.331705 -4.998862 L -0.492514 -5.002769 L -1.168295 -4.975425 L -1.680014 -4.971519 L -2.015951 -5.002769 L -2.180014 -5.034019 L -2.199545 -5.037925 " transform="matrix(1,0,0,1,141.59017,265.725425)"/>
<path style="fill-rule:evenodd;fill:rgb(100%,100%,100%);fill-opacity:1;stroke-width:1;stroke-linecap:butt;stroke-linejoin:bevel;stroke:rgb(50.048876%,50.048876%,50.048876%);stroke-opacity:1;stroke-miterlimit:10;" d="M -7.019857 -10.853679 L -7.055014 -10.869304 L -7.332357 -10.978679 L -7.824545 -11.197429 L -8.43392 -11.443522 L -9.035482 -11.537272 L -9.500326 -11.236491 L -9.750326 -10.349772 L -9.77767 -8.861491 L -9.648764 -6.892741 L -9.46517 -4.650554 L -9.324545 -2.334147 L -9.262045 -0.09196 L -9.258139 1.951009 L -9.265951 3.701009 L -9.242514 5.083821 L -9.191732 6.072103 L -9.129232 6.693196 L -9.086264 6.986165 L -9.078451 7.021321 L -9.074545 7.056478 L -9.023764 7.333821 L -8.906576 7.829915 L -8.707357 8.454915 L -8.40267 9.111165 L -7.969076 9.701009 L -7.359701 10.150228 L -6.500326 10.427571 L -5.312826 10.529134 L -3.769857 10.509603 L -1.937826 10.435384 L 0.0465488 10.400228 L 1.987955 10.43929 L 3.706705 10.548665 L 5.081705 10.669759 L 6.069986 10.747884 L 6.69108 10.771321 L 6.984049 10.767415 L 7.019205 10.763509 L 7.054361 10.763509 L 7.331705 10.740071 L 7.823893 10.65804 L 8.429361 10.451009 L 9.027018 10.056478 L 9.511393 9.423665 L 9.835611 8.517415 L 10.015299 7.31429 L 10.101236 5.810384 L 10.136393 4.03304 L 10.148111 2.048665 L 10.140299 -0.00602247 L 10.124674 -1.974772 L 10.124674 -3.701335 L 10.148111 -5.080241 L 10.194986 -6.068522 L 10.241861 -6.689616 L 10.269205 -6.982585 L 10.277018 -7.052897 L 10.312174 -7.330241 L 10.374674 -7.822429 L 10.421549 -8.439616 L 10.339518 -9.068522 L 9.976236 -9.595866 L 9.19108 -9.959147 L 7.944986 -10.146647 L 6.280924 -10.177897 L 4.312174 -10.119304 L 2.179361 -10.037272 L 0.0387363 -9.990397 L -1.96517 -10.025554 L -3.703451 -10.150554 L -5.082357 -10.34196 L -6.070639 -10.556804 L -6.691732 -10.736491 L -6.984701 -10.84196 L -7.019857 -10.853679 " transform="matrix(1,0,0,1,146.59017,214.545085)"/>
<path style="fill-rule:evenodd;fill:rgb(100%,100%,100%);fill-opacity:1;stroke-width:1;stroke-linecap:butt;stroke-linejoin:bevel;stroke:rgb(50.048876%,50.048876%,50.048876%);stroke-opacity:1;stroke-miterlimit:10;" d="M -11.777018 -14.742188 L -11.827799 -14.730469 L -12.214518 -14.632812 L -12.894205 -14.417969 L -13.698893 -14.042969 L -14.448893 -13.445312 L -15.007486 -12.527344 L -15.323893 -11.191406 L -15.44108 -9.355469 L -15.448893 -7.019531 L -15.448893 -4.257812 L -15.484049 -1.234375 L -15.546549 1.8125 L -15.573893 4.65625 L -15.507486 7.101562 L -15.323893 9.035156 L -15.06608 10.425781 L -14.812174 11.304688 L -14.655924 11.722656 L -14.636393 11.777344 L -14.612955 11.828125 L -14.448893 12.210938 L -14.136393 12.871094 L -13.675455 13.617188 L -13.042643 14.269531 L -12.152018 14.703125 L -10.890299 14.902344 L -9.148111 14.933594 L -6.898111 14.890625 L -4.194986 14.839844 L -1.210611 14.785156 L 1.820639 14.691406 L 4.660482 14.539062 L 7.101889 14.34375 L 9.035482 14.164062 L 10.426107 14.042969 L 11.305014 13.992188 L 11.722982 13.980469 L 11.828451 13.980469 L 12.207357 13.96875 L 12.84017 13.902344 L 13.52767 13.699219 L 14.082357 13.253906 L 14.418295 12.445312 L 14.539389 11.171875 L 14.535482 9.367188 L 14.500326 7.03125 L 14.512045 4.265625 L 14.594076 1.242188 L 14.738607 -1.8125 L 14.922201 -4.65625 L 15.137045 -7.101562 L 15.363607 -9.035156 L 15.586264 -10.425781 L 15.765951 -11.304688 L 15.87142 -11.722656 L 15.883139 -11.777344 L 15.898764 -11.835938 L 16.031576 -12.296875 L 16.297201 -13.121094 L 16.613607 -14.125 L 16.762045 -15.085938 L 16.422201 -15.78125 L 15.316732 -16.09375 L 13.34017 -16.039062 L 10.586264 -15.753906 L 7.27767 -15.417969 L 3.68392 -15.164062 L 0.0784512 -15.058594 L -3.292643 -15.0625 L -6.206705 -15.097656 L -8.523111 -15.082031 L -10.183268 -14.988281 L -11.22233 -14.851562 L -11.714518 -14.757812 L -11.777018 -14.742188 " transform="matrix(1,0,0,1,105.40983,185.5)"/>
<path style="fill-rule:evenodd;fill:rgb(100%,100%,100%);fill-opacity:1;stroke-width:1;stroke-linecap:butt;stroke-linejoin:bevel;stroke:rgb(50.048876%,50.048876%,50.048876%);stroke-opacity:1;stroke-miterlimit:10;" d="M -32.202146 -15.960938 L -32.217771 -15.976562 L -32.346678 -16.054688 L -32.592771 -16.09375 L -32.936521 -15.902344 L -33.346678 -15.292969 L -33.776365 -14.148438 L -34.178709 -12.4375 L -34.506834 -10.191406 L -34.749021 -7.5 L -34.913084 -4.492188 L -35.030271 -1.332031 L -35.131834 1.785156 L -35.241209 4.648438 L -35.366209 7.101562 L -35.487303 9.035156 L -35.588865 10.425781 L -35.663084 11.304688 L -35.69824 11.722656 L -35.702146 11.777344 L -35.706053 11.789062 L -35.713865 11.902344 L -35.733396 12.117188 L -35.76074 12.429688 L -35.79199 12.820312 L -35.819334 13.265625 L -35.831053 13.742188 L -35.815428 14.222656 L -35.752928 14.671875 L -35.627928 15.066406 L -35.424803 15.390625 L -35.127928 15.632812 L -34.72949 15.789062 L -34.225584 15.871094 L -33.612303 15.882812 L -32.88574 15.847656 L -32.045896 15.78125 L -31.081053 15.699219 L -29.991209 15.609375 L -28.76074 15.519531 L -27.377928 15.441406 L -25.838865 15.367188 L -24.127928 15.304688 L -22.249021 15.242188 L -20.194334 15.183594 L -17.975584 15.128906 L -15.60449 15.078125 L -13.092771 15.03125 L -10.467771 15 L -7.749021 14.980469 L -4.967771 14.988281 L -2.155271 15.015625 L 0.665041 15.066406 L 3.461916 15.136719 L 6.204104 15.21875 L 8.86426 15.296875 L 11.422854 15.367188 L 13.852541 15.417969 L 16.141604 15.445312 L 18.274416 15.449219 L 20.23926 15.433594 L 22.028322 15.402344 L 23.64551 15.363281 L 25.086916 15.328125 L 26.360354 15.296875 L 27.465822 15.265625 L 28.422854 15.230469 L 29.231447 15.1875 L 29.915041 15.125 L 30.477541 15.039062 L 30.934572 14.929688 L 31.30176 14.796875 L 31.590822 14.65625 L 31.813479 14.507812 L 31.977541 14.371094 L 32.090822 14.257812 L 32.165041 14.175781 L 32.200197 14.132812 L 32.204104 14.128906 L 32.219729 14.109375 L 32.348635 13.953125 L 32.606447 13.664062 L 32.973635 13.25 L 33.411135 12.683594 L 33.868166 11.871094 L 34.278322 10.691406 L 34.61426 9.027344 L 34.868166 6.832031 L 35.055666 4.164062 L 35.192385 1.199219 L 35.290041 -1.824219 L 35.344729 -4.660156 L 35.360354 -7.101562 L 35.344729 -9.035156 L 35.313479 -10.425781 L 35.286135 -11.304688 L 35.27051 -11.722656 L 35.266604 -11.777344 L 35.266604 -11.789062 L 35.262697 -11.902344 L 35.254885 -12.117188 L 35.23926 -12.429688 L 35.215822 -12.820312 L 35.180666 -13.273438 L 35.125979 -13.757812 L 35.047854 -14.25 L 34.934572 -14.726562 L 34.774416 -15.15625 L 34.555666 -15.523438 L 34.274416 -15.808594 L 33.918947 -16.011719 L 33.481447 -16.128906 L 32.950197 -16.164062 L 32.317385 -16.128906 L 31.575197 -16.042969 L 30.704104 -15.917969 L 29.700197 -15.777344 L 28.543947 -15.636719 L 27.223635 -15.503906 L 25.731447 -15.398438 L 24.059572 -15.320312 L 22.204104 -15.273438 L 20.168947 -15.25 L 17.961916 -15.25 L 15.594729 -15.257812 L 13.090822 -15.269531 L 10.465822 -15.28125 L 7.750979 -15.28125 L 4.969729 -15.269531 L 2.153322 -15.242188 L -0.663084 -15.207031 L -3.459959 -15.15625 L -6.202146 -15.101562 L -8.862303 -15.042969 L -11.420896 -14.988281 L -13.850584 -14.941406 L -16.139646 -14.902344 L -18.272459 -14.875 L -20.237303 -14.859375 L -22.026365 -14.859375 L -23.643553 -14.875 L -25.084959 -14.898438 L -26.358396 -14.933594 L -27.463865 -14.980469 L -28.420896 -15.039062 L -29.22949 -15.105469 L -29.913084 -15.1875 L -30.475584 -15.28125 L -30.932615 -15.378906 L -31.299803 -15.488281 L -31.588865 -15.597656 L -31.811521 -15.699219 L -31.975584 -15.796875 L -32.088865 -15.875 L -32.163084 -15.929688 L -32.19824 -15.960938 L -32.202146 -15.960938 " transform="matrix(1,0,0,1,39.22949,140.5)"/>
<path style="fill-rule:evenodd;fill:rgb(100%,100%,100%);fill-opacity:1;stroke-width:1;stroke-linecap:butt;stroke-linejoin:bevel;stroke:rgb(50.048876%,50.048876%,50.048876%);stroke-opacity:1;stroke-miterlimit:10;" d="M -12.230795 -8.740724 L -12.24642 -8.71338 L -12.367514 -8.455567 L -12.578451 -7.908692 L -12.851889 -7.092286 L -13.15267 -6.166505 L -13.46517 -5.354005 L -13.762045 -4.787599 L -14.012045 -4.36963 L -14.172201 -3.842286 L -14.258139 -2.93213 L -14.320639 -1.549317 L -14.43392 0.185058 L -14.660482 2.024901 L -14.984701 3.712401 L -15.351889 5.083495 L -15.672201 6.071776 L -15.894857 6.69287 L -16.004232 6.985839 L -16.019857 7.020995 L -16.023764 7.03662 L -16.05892 7.134276 L -16.101889 7.325683 L -16.125326 7.603026 L -16.082357 7.94287 L -15.937826 8.321776 L -15.660482 8.716308 L -15.24642 9.09912 L -14.695639 9.435058 L -14.02767 9.704589 L -13.262045 9.892089 L -12.406576 9.989745 L -11.472982 10.009276 L -10.461264 9.966308 L -9.367514 9.892089 L -8.187826 9.806151 L -6.914389 9.735839 L -5.551107 9.696776 L -4.109701 9.69287 L -2.609701 9.72412 L -1.074545 9.78662 L 0.464518 9.860839 L 1.984049 9.94287 L 3.444986 10.020995 L 4.823893 10.087401 L 6.09733 10.142089 L 7.249674 10.185058 L 8.269205 10.220214 L 9.155924 10.251464 L 9.902018 10.28662 L 10.519205 10.325683 L 11.019205 10.372558 L 11.413736 10.427245 L 11.710611 10.481933 L 11.929361 10.532714 L 12.081705 10.579589 L 12.179361 10.610839 L 12.22233 10.626464 L 12.230143 10.63037 L 12.241861 10.634276 L 12.351236 10.657714 L 12.573893 10.622558 L 12.894205 10.407714 L 13.288736 9.895995 L 13.694986 9.03662 L 14.06608 7.837401 L 14.355143 6.337401 L 14.538736 4.614745 L 14.636393 2.743651 L 14.65983 0.821776 L 14.636393 -1.053224 L 14.585611 -2.768067 L 14.523111 -4.232911 L 14.464518 -5.385255 L 14.417643 -6.21338 L 14.386393 -6.736817 L 14.370768 -6.986817 L 14.370768 -7.018067 L 14.366861 -7.033692 L 14.362955 -7.127442 L 14.339518 -7.30713 L 14.296549 -7.541505 L 14.210611 -7.799317 L 14.073893 -8.053224 L 13.870768 -8.287599 L 13.59733 -8.49463 L 13.245768 -8.674317 L 12.808268 -8.826661 L 12.28483 -8.96338 L 11.663736 -9.084474 L 10.933268 -9.189942 L 10.093424 -9.27588 L 9.12858 -9.346192 L 8.038736 -9.404786 L 6.827799 -9.459474 L 5.507486 -9.514161 L 4.089518 -9.576661 L 2.601236 -9.65088 L 1.069986 -9.729005 L -0.469076 -9.811036 L -1.984701 -9.893067 L -3.445639 -9.971192 L -4.824545 -10.037599 L -6.097982 -10.096192 L -7.250326 -10.139161 L -8.269857 -10.162599 L -9.156576 -10.154786 L -9.90267 -10.104005 L -10.519857 -10.002442 L -11.019857 -9.850099 L -11.414389 -9.65088 L -11.711264 -9.424317 L -11.930014 -9.197755 L -12.082357 -8.990724 L -12.180014 -8.834474 L -12.222982 -8.752442 L -12.230795 -8.740724 " transform="matrix(1,0,0,1,151.59017,242.635255)"/>
<path style="fill-rule:evenodd;fill:rgb(100%,100%,100%);fill-opacity:1;stroke-width:1;stroke-linecap:butt;stroke-linejoin:bevel;stroke:rgb(50.048876%,50.048876%,50.048876%);stroke-opacity:1;stroke-miterlimit:10;" d="M -17.297854 -4.326009 L -17.309572 -4.306478 L -17.39551 -4.146321 L -17.579104 -3.853353 L -17.875979 -3.454915 L -18.293947 -2.962728 L -18.793947 -2.392415 L -19.282229 -1.732259 L -19.653322 -0.997884 L -19.840822 -0.228353 L -19.883791 0.517741 L -19.883791 1.170085 L -19.942385 1.677897 L -20.059572 2.013835 L -20.157229 2.177897 L -20.172854 2.197429 L -20.17676 2.201335 L -20.192385 2.228679 L -20.227541 2.287272 L -20.262697 2.37321 L -20.282229 2.486491 L -20.278322 2.627116 L -20.227541 2.795085 L -20.125979 2.982585 L -19.965822 3.177897 L -19.743166 3.381022 L -19.45801 3.576335 L -19.122072 3.752116 L -18.743166 3.90446 L -18.317385 4.025554 L -17.860354 4.115397 L -17.372072 4.170085 L -16.852541 4.205241 L -16.293947 4.224772 L -15.696291 4.240397 L -15.047854 4.259929 L -14.348635 4.295085 L -13.590822 4.345866 L -12.762697 4.420085 L -11.86426 4.509929 L -10.89551 4.611491 L -9.860354 4.71696 L -8.754885 4.818522 L -7.586916 4.908366 L -6.36426 4.974772 L -5.094729 5.013835 L -3.790041 5.02946 L -2.45801 5.009929 L -1.110354 4.970866 L 0.241209 4.908366 L 1.584959 4.84196 L 2.909178 4.771647 L 4.206053 4.709147 L 5.459959 4.662272 L 6.66699 4.634929 L 7.819334 4.627116 L 8.909178 4.634929 L 9.928709 4.658366 L 10.874021 4.689616 L 11.749021 4.724772 L 12.54199 4.756022 L 13.264646 4.783366 L 13.909178 4.806804 L 14.47949 4.826335 L 14.983396 4.84196 L 15.420896 4.861491 L 15.795896 4.877116 L 16.112303 4.896647 L 16.381834 4.912272 L 16.60449 4.927897 L 16.784178 4.939616 L 16.932615 4.939616 L 17.045896 4.931804 L 17.13574 4.920085 L 17.202146 4.900554 L 17.249021 4.881022 L 17.295896 4.857585 L 17.307615 4.849772 L 17.393553 4.783366 L 17.581053 4.599772 L 17.870115 4.236491 L 18.237303 3.662272 L 18.624021 2.912272 L 18.944334 2.052897 L 19.139646 1.15446 L 19.209959 0.283366 L 19.209959 -0.505696 L 19.213865 -1.173665 L 19.264646 -1.681478 L 19.35449 -2.017415 L 19.420896 -2.181478 L 19.432615 -2.201009 L 19.432615 -2.204915 L 19.444334 -2.236165 L 19.467771 -2.290853 L 19.491209 -2.380696 L 19.502928 -2.50179 L 19.491209 -2.65804 L 19.452146 -2.84554 L 19.370115 -3.06429 L 19.245115 -3.302571 L 19.069334 -3.556478 L 18.846678 -3.818196 L 18.581053 -4.072103 L 18.272459 -4.310384 L 17.924803 -4.525228 L 17.538084 -4.708821 L 17.112303 -4.861165 L 16.651365 -4.974446 L 16.143553 -5.056478 L 15.584959 -5.107259 L 14.971678 -5.134603 L 14.295896 -5.138509 L 13.549803 -5.134603 L 12.737303 -5.122884 L 11.846678 -5.111165 L 10.88574 -5.099446 L 9.850584 -5.099446 L 8.749021 -5.103353 L 7.581053 -5.118978 L 6.362303 -5.142415 L 5.092771 -5.169759 L 3.788084 -5.201009 L 2.456053 -5.232259 L 1.108396 -5.255696 L -0.243166 -5.275228 L -1.586916 -5.286946 L -2.911135 -5.286946 L -4.20801 -5.28304 L -5.461916 -5.271321 L -6.668947 -5.255696 L -7.821291 -5.240071 L -8.911135 -5.232259 L -9.930666 -5.228353 L -10.875979 -5.232259 L -11.750979 -5.243978 L -12.543947 -5.263509 L -13.266604 -5.28304 L -13.911135 -5.298665 L -14.481447 -5.302571 L -14.985354 -5.294759 L -15.422854 -5.271321 L -15.797854 -5.228353 L -16.11426 -5.165853 L -16.383791 -5.087728 L -16.606447 -4.997884 L -16.786135 -4.896321 L -16.934572 -4.786946 L -17.047854 -4.677571 L -17.137697 -4.576009 L -17.204104 -4.482259 L -17.250979 -4.40804 L -17.282229 -4.357259 L -17.297854 -4.329915 L -17.297854 -4.326009 " transform="matrix(1,0,0,1,192.77051,171.454915)"/>
<path style="fill-rule:evenodd;fill:rgb(100%,100%,100%);fill-opacity:1;stroke-width:1;stroke-linecap:butt;stroke-linejoin:bevel;stroke:rgb(50.048876%,50.048876%,50.048876%);stroke-opacity:1;stroke-miterlimit:10;" d="M -7.019857 -15.468424 L -7.035482 -15.47233 L -7.133139 -15.491861 L -7.316732 -15.511393 L -7.566732 -15.507486 L -7.855795 -15.444986 L -8.15267 -15.296549 L -8.437826 -15.042643 L -8.687826 -14.675455 L -8.894857 -14.19108 L -9.05892 -13.601236 L -9.18392 -12.917643 L -9.285482 -12.144205 L -9.367514 -11.28483 L -9.441732 -10.331705 L -9.515951 -9.28483 L -9.59017 -8.136393 L -9.672201 -6.882486 L -9.762045 -5.53483 L -9.859701 -4.101236 L -9.96517 -2.605143 L -10.070639 -1.073893 L -10.176107 0.469076 L -10.262045 1.984701 L -10.328451 3.445639 L -10.363607 4.824545 L -10.359701 6.097982 L -10.324545 7.250326 L -10.254232 8.269857 L -10.164389 9.156576 L -10.066732 9.90267 L -9.972982 10.519857 L -9.898764 11.019857 L -9.851889 11.414389 L -9.84017 11.711264 L -9.855795 11.930014 L -9.890951 12.082357 L -9.922201 12.180014 L -9.945639 12.222982 L -9.949545 12.230795 L -9.953451 12.242514 L -9.992514 12.347982 L -9.99642 12.535482 L -9.84017 12.781576 L -9.422201 13.070639 L -8.672201 13.410482 L -7.578451 13.789389 L -6.180014 14.18392 L -4.52767 14.543295 L -2.703451 14.80892 L -0.805014 14.961264 L 1.058268 15.012045 L 2.773111 15.000326 L 4.234049 14.976889 L 5.386393 14.969076 L 6.214518 14.980795 L 6.737955 15.000326 L 6.987955 15.015951 L 7.019205 15.015951 L 7.03483 15.019857 L 7.144205 15.02767 L 7.351236 15.043295 L 7.640299 15.062826 L 7.995768 15.086264 L 8.37858 15.094076 L 8.761393 15.05892 L 9.116861 14.953451 L 9.421549 14.74642 L 9.65983 14.418295 L 9.827799 13.961264 L 9.937174 13.363607 L 9.991861 12.637045 L 10.019205 11.77767 L 10.023111 10.797201 L 10.019205 9.695639 L 10.00358 8.469076 L 9.97233 7.129232 L 9.917643 5.676107 L 9.835611 4.133139 L 9.734049 2.52767 L 9.620768 0.883139 L 9.507486 -0.757486 L 9.413736 -2.362955 L 9.343424 -3.890299 L 9.308268 -5.31608 L 9.304361 -6.612955 L 9.335611 -7.765299 L 9.398111 -8.769205 L 9.491861 -9.616861 L 9.624674 -10.31608 L 9.796549 -10.882486 L 10.011393 -11.323893 L 10.249674 -11.655924 L 10.499674 -11.902018 L 10.726236 -12.069986 L 10.902018 -12.171549 L 10.995768 -12.22233 L 11.007486 -12.230143 L 11.042643 -12.245768 L 11.31608 -12.366861 L 11.894205 -12.581705 L 12.687174 -12.862955 L 13.362955 -13.194986 L 13.448893 -13.569986 L 12.585611 -13.948893 L 10.737955 -14.280924 L 8.206705 -14.495768 L 5.405924 -14.589518 L 2.683268 -14.601236 L 0.218424 -14.624674 L -1.918295 -14.714518 L -3.691732 -14.882486 L -5.082357 -15.085611 L -6.070639 -15.273111 L -6.691732 -15.398111 L -6.984701 -15.460611 L -7.019857 -15.468424 " transform="matrix(1,0,0,1,126.59017,112.40983)"/>
</g>
</svg>
