<?xml version="1.0" encoding="UTF-8"?>
<svg xmlns="http://www.w3.org/2000/svg" xmlns:xlink="http://www.w3.org/1999/xlink" width="217.013156pt" height="248.472136pt" viewBox="0 0 217.013156 248.472136" version="1.1">
<g id="surface23757">
<path style="fill-rule:evenodd;fill:rgb(100%,100%,100%);fill-opacity:1;stroke-width:1;stroke-linecap:butt;stroke-linejoin:bevel;stroke:rgb(50.048876%,50.048876%,50.048876%);stroke-opacity:1;stroke-miterlimit:10;" d="M -2.198893 -50.765625 L -2.234049 -50.765625 L -2.265299 -50.761719 L -2.308268 -50.753906 L -2.362955 -50.742188 L -2.429361 -50.722656 L -2.511393 -50.691406 L -2.601236 -50.644531 L -2.706705 -50.585938 L -2.819986 -50.511719 L -2.944986 -50.417969 L -3.077799 -50.308594 L -3.218424 -50.179688 L -3.362955 -50.035156 L -3.507486 -49.871094 L -3.652018 -49.695312 L -3.796549 -49.507812 L -3.929361 -49.308594 L -4.058268 -49.101562 L -4.175455 -48.886719 L -4.280924 -48.671875 L -4.370768 -48.449219 L -4.448893 -48.226562 L -4.511393 -48.003906 L -4.562174 -47.777344 L -4.601236 -47.550781 L -4.624674 -47.320312 L -4.640299 -47.089844 L -4.648111 -46.851562 L -4.648111 -46.609375 L -4.644205 -46.355469 L -4.636393 -46.09375 L -4.62858 -45.820312 L -4.616861 -45.53125 L -4.609049 -45.226562 L -4.601236 -44.902344 L -4.593424 -44.558594 L -4.589518 -44.191406 L -4.585611 -43.796875 L -4.581705 -43.378906 L -4.581705 -42.457031 L -4.585611 -41.953125 L -4.585611 -41.417969 L -4.589518 -40.847656 L -4.59733 -40.246094 L -4.605143 -39.613281 L -4.612955 -38.941406 L -4.624674 -38.238281 L -4.636393 -37.5 L -4.652018 -36.726562 L -4.671549 -35.917969 L -4.69108 -35.070312 L -4.714518 -34.191406 L -4.737955 -33.273438 L -4.761393 -32.324219 L -4.78483 -31.339844 L -4.808268 -30.320312 L -4.831705 -29.265625 L -4.84733 -28.179688 L -4.862955 -27.0625 L -4.870768 -25.914062 L -4.87858 -24.734375 L -4.87858 -23.527344 L -4.874674 -22.289062 L -4.866861 -21.027344 L -4.855143 -19.738281 L -4.839518 -18.425781 L -4.819986 -17.089844 L -4.800455 -15.734375 L -4.780924 -14.359375 L -4.765299 -12.964844 L -4.745768 -11.554688 L -4.730143 -10.132812 L -4.718424 -8.695312 L -4.706705 -7.25 L -4.698893 -5.796875 L -4.694986 -4.335938 L -4.694986 -1.398438 L -4.698893 0.0703125 L -4.714518 3 L -4.72233 4.460938 L -4.730143 5.914062 L -4.741861 7.355469 L -4.75358 8.785156 L -4.765299 10.207031 L -4.780924 11.609375 L -4.792643 13 L -4.804361 14.367188 L -4.81608 15.71875 L -4.831705 17.050781 L -4.843424 18.355469 L -4.855143 19.640625 L -4.866861 20.898438 L -4.87858 22.128906 L -4.890299 23.332031 L -4.902018 24.507812 L -4.913736 25.652344 L -4.925455 26.765625 L -4.937174 27.851562 L -4.948893 28.902344 L -4.960611 29.921875 L -4.97233 30.910156 L -4.984049 31.863281 L -4.999674 32.78125 L -5.011393 33.667969 L -5.027018 34.519531 L -5.042643 35.339844 L -5.058268 36.121094 L -5.073893 36.875 L -5.089518 37.589844 L -5.109049 38.277344 L -5.12858 38.925781 L -5.148111 39.546875 L -5.167643 40.132812 L -5.187174 40.691406 L -5.210611 41.21875 L -5.234049 41.714844 L -5.25358 42.179688 L -5.273111 42.621094 L -5.292643 43.03125 L -5.312174 43.417969 L -5.327799 43.777344 L -5.343424 44.113281 L -5.355143 44.425781 L -5.362955 44.714844 L -5.370768 44.980469 L -5.37858 45.226562 L -5.382486 45.457031 L -5.386393 45.664062 L -5.386393 46.1875 L -5.390299 46.328125 L -5.390299 46.679688 L -5.394205 46.773438 L -5.402018 46.859375 L -5.40983 46.933594 L -5.421549 46.996094 L -5.437174 47.054688 L -5.456705 47.105469 L -5.484049 47.148438 L -5.515299 47.1875 L -5.585611 47.25 L -5.624674 47.273438 L -5.667643 47.292969 L -5.706705 47.308594 L -5.800455 47.339844 L -5.819986 47.34375 L -5.831705 47.34375 L -5.84733 47.351562 L -5.948893 47.398438 L -5.964518 47.546875 L -5.667643 47.839844 L -4.948893 48.285156 L -3.87858 48.816406 L -2.648111 49.339844 L -1.448893 49.777344 L -0.398111 50.109375 L 0.472982 50.355469 L 1.164389 50.558594 L 1.680014 50.730469 L 2.015951 50.867188 L 2.180014 50.945312 L 2.199545 50.957031 L 2.203451 50.957031 L 2.234701 50.972656 L 2.265951 50.984375 L 2.30892 50.996094 L 2.363607 51.003906 L 2.430014 51.003906 L 2.508139 50.996094 L 2.594076 50.972656 L 2.695639 50.933594 L 2.801107 50.878906 L 2.918295 50.796875 L 3.043295 50.695312 L 3.172201 50.570312 L 3.305014 50.425781 L 3.441732 50.257812 L 3.574545 50.074219 L 3.707357 49.871094 L 3.832357 49.652344 L 3.953451 49.425781 L 4.066732 49.191406 L 4.172201 48.945312 L 4.269857 48.699219 L 4.359701 48.453125 L 4.437826 48.203125 L 4.512045 47.953125 L 4.574545 47.703125 L 4.633139 47.453125 L 4.68392 47.199219 L 4.730795 46.945312 L 4.773764 46.6875 L 4.816732 46.421875 L 4.855795 46.148438 L 4.894857 45.863281 L 4.930014 45.566406 L 4.96517 45.253906 L 5.000326 44.921875 L 5.035482 44.574219 L 5.070639 44.203125 L 5.105795 43.808594 L 5.133139 43.386719 L 5.164389 42.9375 L 5.187826 42.460938 L 5.211264 41.957031 L 5.230795 41.417969 L 5.24642 40.851562 L 5.258139 40.25 L 5.262045 39.613281 L 5.265951 38.945312 L 5.265951 38.238281 L 5.262045 37.5 L 5.250326 36.726562 L 5.242514 35.917969 L 5.226889 35.070312 L 5.211264 34.191406 L 5.191732 33.273438 L 5.172201 32.324219 L 5.148764 31.339844 L 5.129232 30.320312 L 5.109701 29.265625 L 5.09017 28.179688 L 5.070639 27.0625 L 5.051107 25.914062 L 5.035482 24.734375 L 5.019857 23.527344 L 5.008139 22.289062 L 4.99642 21.027344 L 4.988607 19.738281 L 4.980795 18.425781 L 4.972982 17.089844 L 4.969076 15.734375 L 4.961264 14.359375 L 4.953451 12.964844 L 4.945639 11.554688 L 4.937826 10.132812 L 4.930014 8.695312 L 4.918295 7.25 L 4.910482 5.796875 L 4.898764 4.335938 L 4.863607 -0.0703125 L 4.84017 -3 L 4.832357 -4.460938 L 4.824545 -5.914062 L 4.820639 -7.355469 L 4.816732 -8.785156 L 4.816732 -10.207031 L 4.820639 -11.609375 L 4.824545 -13 L 4.828451 -14.367188 L 4.84017 -15.71875 L 4.847982 -17.050781 L 4.863607 -18.355469 L 4.879232 -19.640625 L 4.898764 -20.898438 L 4.922201 -22.128906 L 4.945639 -23.332031 L 4.972982 -24.507812 L 5.004232 -25.652344 L 5.039389 -26.765625 L 5.074545 -27.851562 L 5.113607 -28.902344 L 5.156576 -29.921875 L 5.199545 -30.910156 L 5.24642 -31.863281 L 5.297201 -32.78125 L 5.344076 -33.667969 L 5.390951 -34.519531 L 5.437826 -35.339844 L 5.484701 -36.121094 L 5.52767 -36.875 L 5.566732 -37.589844 L 5.605795 -38.277344 L 5.637045 -38.925781 L 5.664389 -39.546875 L 5.68392 -40.132812 L 5.703451 -40.691406 L 5.71517 -41.21875 L 5.722982 -41.714844 L 5.726889 -42.179688 L 5.726889 -42.621094 L 5.719076 -43.03125 L 5.707357 -43.417969 L 5.695639 -43.777344 L 5.676107 -44.113281 L 5.65267 -44.425781 L 5.625326 -44.714844 L 5.594076 -44.980469 L 5.562826 -45.226562 L 5.52767 -45.457031 L 5.488607 -45.664062 L 5.453451 -45.855469 L 5.414389 -46.027344 L 5.379232 -46.1875 L 5.347982 -46.328125 L 5.320639 -46.460938 L 5.297201 -46.574219 L 5.281576 -46.679688 L 5.27767 -46.773438 L 5.27767 -46.859375 L 5.285482 -46.933594 L 5.301107 -46.996094 L 5.324545 -47.054688 L 5.351889 -47.105469 L 5.387045 -47.148438 L 5.426107 -47.1875 L 5.46517 -47.21875 L 5.508139 -47.25 L 5.547201 -47.273438 L 5.586264 -47.292969 L 5.625326 -47.308594 L 5.656576 -47.320312 L 5.680014 -47.332031 L 5.71517 -47.34375 L 5.722982 -47.34375 L 5.738607 -47.351562 L 5.879232 -47.390625 L 6.137045 -47.46875 L 6.363607 -47.589844 L 6.24642 -47.792969 L 5.52767 -48.085938 L 4.230795 -48.457031 L 2.660482 -48.882812 L 1.176107 -49.355469 L -0.0270176 -49.851562 L -0.929361 -50.300781 L -1.56608 -50.609375 L -1.976236 -50.742188 L -2.175455 -50.765625 L -2.198893 -50.765625 " transform="matrix(1,0,0,1,95.40983,104)"/>
<path style="fill-rule:evenodd;fill:rgb(100%,100%,100%);fill-opacity:1;stroke-width:1;stroke-linecap:butt;stroke-linejoin:bevel;stroke:rgb(50.048876%,50.048876%,50.048876%);stroke-opacity:1;stroke-miterlimit:10;" d="M -11.777018 -25.261719 L -11.800455 -25.261719 L -11.980143 -25.25 L -12.327799 -25.226562 L -12.81608 -25.1875 L -13.405924 -25.128906 L -14.042643 -25.035156 L -14.679361 -24.890625 L -15.25358 -24.671875 L -15.730143 -24.351562 L -16.077799 -23.902344 L -16.280924 -23.300781 L -16.351236 -22.515625 L -16.308268 -21.519531 L -16.187174 -20.289062 L -16.019205 -18.800781 L -15.839518 -17.042969 L -15.65983 -15.007812 L -15.499674 -12.707031 L -15.359049 -10.164062 L -15.234049 -7.425781 L -15.132486 -4.542969 L -15.046549 -1.585938 L -14.987955 1.375 L -14.956705 4.273438 L -14.948893 7.035156 L -14.968424 9.609375 L -14.999674 11.957031 L -15.03483 14.039062 L -15.069986 15.851562 L -15.09733 17.382812 L -15.124674 18.648438 L -15.15983 19.667969 L -15.202799 20.464844 L -15.25358 21.070312 L -15.312174 21.511719 L -15.366861 21.816406 L -15.40983 22.003906 L -15.433268 22.09375 L -15.437174 22.105469 L -15.444986 22.132812 L -15.480143 22.324219 L -15.456705 22.679688 L -15.230143 23.148438 L -14.648111 23.65625 L -13.59733 24.136719 L -12.019205 24.542969 L -9.913736 24.859375 L -7.343424 25.101562 L -4.413736 25.28125 L -1.300455 25.394531 L 1.793295 25.414062 L 4.65267 25.3125 L 7.101889 25.070312 L 9.035482 24.726562 L 10.426107 24.347656 L 11.305014 24.023438 L 11.722982 23.839844 L 11.77767 23.816406 L 11.797201 23.804688 L 11.961264 23.726562 L 12.269857 23.578125 L 12.691732 23.378906 L 13.172201 23.144531 L 13.664389 22.886719 L 14.133139 22.601562 L 14.539389 22.289062 L 14.87142 21.914062 L 15.12142 21.445312 L 15.293295 20.832031 L 15.398764 20.035156 L 15.445639 19.007812 L 15.449545 17.726562 L 15.410482 16.164062 L 15.344076 14.328125 L 15.254232 12.226562 L 15.156576 9.886719 L 15.05892 7.355469 L 14.976889 4.683594 L 14.922201 1.929688 L 14.90267 -0.847656 L 14.922201 -3.585938 L 14.96517 -6.226562 L 15.02767 -8.71875 L 15.097982 -11.023438 L 15.160482 -13.105469 L 15.211264 -14.949219 L 15.24642 -16.546875 L 15.262045 -17.898438 L 15.269857 -19.019531 L 15.269857 -19.921875 L 15.273764 -20.628906 L 15.273764 -21.167969 L 15.281576 -21.566406 L 15.289389 -21.839844 L 15.293295 -22.011719 L 15.297201 -22.097656 L 15.297201 -22.132812 L 15.293295 -22.324219 L 15.207357 -22.679688 L 14.930014 -23.144531 L 14.336264 -23.652344 L 13.312826 -24.121094 L 11.797201 -24.507812 L 9.765951 -24.800781 L 7.254232 -25.015625 L 4.37142 -25.179688 L 1.281576 -25.3125 L -1.800455 -25.40625 L -4.652018 -25.449219 L -7.101236 -25.441406 L -9.03483 -25.394531 L -10.425455 -25.339844 L -11.304361 -25.292969 L -11.72233 -25.265625 L -11.777018 -25.261719 " transform="matrix(1,0,0,1,105.40983,219)"/>
<path style="fill-rule:evenodd;fill:rgb(100%,100%,100%);fill-opacity:1;stroke-width:1;stroke-linecap:butt;stroke-linejoin:bevel;stroke:rgb(50.048876%,50.048876%,50.048876%);stroke-opacity:1;stroke-miterlimit:10;" d="M -7.019857 -25.230469 L -7.02767 -25.234375 L -7.09017 -25.257812 L -7.211264 -25.292969 L -7.383139 -25.332031 L -7.597982 -25.355469 L -7.844076 -25.34375 L -8.109701 -25.28125 L -8.379232 -25.152344 L -8.648764 -24.953125 L -8.898764 -24.675781 L -9.125326 -24.328125 L -9.324545 -23.90625 L -9.492514 -23.425781 L -9.629232 -22.882812 L -9.730795 -22.28125 L -9.805014 -21.621094 L -9.855795 -20.894531 L -9.883139 -20.101562 L -9.894857 -19.222656 L -9.898764 -18.257812 L -9.894857 -17.195312 L -9.887045 -16.03125 L -9.879232 -14.761719 L -9.87142 -13.386719 L -9.867514 -11.914062 L -9.867514 -10.339844 L -9.875326 -8.683594 L -9.887045 -6.957031 L -9.90267 -5.171875 L -9.922201 -3.34375 L -9.945639 -1.496094 L -9.96517 0.359375 L -9.980795 2.203125 L -9.988607 4.019531 L -9.988607 5.789062 L -9.976889 7.496094 L -9.957357 9.128906 L -9.930014 10.675781 L -9.894857 12.125 L -9.855795 13.472656 L -9.820639 14.710938 L -9.781576 15.839844 L -9.750326 16.855469 L -9.719076 17.761719 L -9.691732 18.558594 L -9.664389 19.257812 L -9.644857 19.855469 L -9.62142 20.367188 L -9.605795 20.796875 L -9.594076 21.152344 L -9.59017 21.445312 L -9.586264 21.679688 L -9.594076 21.863281 L -9.601889 22.003906 L -9.609701 22.109375 L -9.62142 22.1875 L -9.633139 22.257812 L -9.633139 22.269531 L -9.640951 22.359375 L -9.594076 22.550781 L -9.410482 22.839844 L -9.004232 23.21875 L -8.30892 23.648438 L -7.305014 24.074219 L -5.99642 24.425781 L -4.422201 24.660156 L -2.65267 24.773438 L -0.781576 24.804688 L 1.06608 24.800781 L 2.773111 24.804688 L 4.234049 24.832031 L 5.386393 24.871094 L 6.214518 24.894531 L 6.737955 24.90625 L 7.019205 24.90625 L 7.027018 24.902344 L 7.089518 24.902344 L 7.214518 24.894531 L 7.390299 24.875 L 7.612955 24.835938 L 7.874674 24.765625 L 8.163736 24.65625 L 8.468424 24.5 L 8.773111 24.292969 L 9.062174 24.035156 L 9.327799 23.726562 L 9.554361 23.363281 L 9.730143 22.949219 L 9.855143 22.480469 L 9.925455 21.953125 L 9.944986 21.359375 L 9.921549 20.695312 L 9.866861 19.953125 L 9.800455 19.117188 L 9.730143 18.1875 L 9.671549 17.148438 L 9.636393 16 L 9.632486 14.742188 L 9.655924 13.375 L 9.706705 11.90625 L 9.777018 10.335938 L 9.862955 8.683594 L 9.948893 6.957031 L 10.027018 5.171875 L 10.089518 3.34375 L 10.12858 1.496094 L 10.136393 -0.359375 L 10.120768 -2.203125 L 10.073893 -4.019531 L 10.007486 -5.789062 L 9.921549 -7.496094 L 9.827799 -9.128906 L 9.734049 -10.675781 L 9.648111 -12.125 L 9.573893 -13.472656 L 9.519205 -14.710938 L 9.491861 -15.839844 L 9.491861 -16.855469 L 9.523111 -17.761719 L 9.581705 -18.558594 L 9.667643 -19.257812 L 9.773111 -19.855469 L 9.894205 -20.367188 L 10.027018 -20.796875 L 10.167643 -21.152344 L 10.312174 -21.445312 L 10.456705 -21.679688 L 10.593424 -21.863281 L 10.726236 -22.003906 L 10.839518 -22.109375 L 10.933268 -22.1875 L 10.999674 -22.234375 L 11.03483 -22.257812 L 11.038736 -22.257812 L 11.058268 -22.273438 L 11.226236 -22.371094 L 11.569986 -22.542969 L 12.007486 -22.773438 L 12.300455 -23.0625 L 12.124674 -23.414062 L 11.230143 -23.828125 L 9.589518 -24.242188 L 7.398111 -24.574219 L 4.94108 -24.746094 L 2.468424 -24.75 L 0.144205 -24.664062 L -1.937826 -24.59375 L -3.695639 -24.617188 L -5.082357 -24.75 L -6.070639 -24.9375 L -6.691732 -25.113281 L -6.984701 -25.21875 L -7.019857 -25.230469 " transform="matrix(1,0,0,1,146.59017,159)"/>
<path style="fill-rule:evenodd;fill:rgb(100%,100%,100%);fill-opacity:1;stroke-width:1;stroke-linecap:butt;stroke-linejoin:bevel;stroke:rgb(50.048876%,50.048876%,50.048876%);stroke-opacity:1;stroke-miterlimit:10;" d="M -2.198893 -25.082031 L -2.226236 -25.082031 L -2.269205 -25.078125 L -2.339518 -25.070312 L -2.429361 -25.046875 L -2.546549 -25.007812 L -2.683268 -24.945312 L -2.843424 -24.851562 L -3.019205 -24.730469 L -3.206705 -24.570312 L -3.402018 -24.382812 L -3.59733 -24.160156 L -3.78483 -23.90625 L -3.960611 -23.628906 L -4.124674 -23.328125 L -4.269205 -23.003906 L -4.402018 -22.664062 L -4.515299 -22.296875 L -4.612955 -21.910156 L -4.698893 -21.496094 L -4.773111 -21.046875 L -4.843424 -20.566406 L -4.898111 -20.039062 L -4.948893 -19.46875 L -4.991861 -18.84375 L -5.023111 -18.160156 L -5.046549 -17.417969 L -5.062174 -16.613281 L -5.069986 -15.742188 L -5.073893 -14.808594 L -5.077799 -13.808594 L -5.081705 -12.75 L -5.089518 -11.632812 L -5.105143 -10.460938 L -5.124674 -9.238281 L -5.148111 -7.972656 L -5.175455 -6.667969 L -5.206705 -5.332031 L -5.234049 -3.96875 L -5.257486 -2.589844 L -5.269205 -1.203125 L -5.277018 0.191406 L -5.273111 1.578125 L -5.257486 2.949219 L -5.234049 4.304688 L -5.198893 5.632812 L -5.15983 6.925781 L -5.116861 8.183594 L -5.06608 9.394531 L -5.015299 10.554688 L -4.964518 11.664062 L -4.913736 12.714844 L -4.866861 13.710938 L -4.827799 14.640625 L -4.796549 15.507812 L -4.777018 16.3125 L -4.773111 17.054688 L -4.777018 17.734375 L -4.800455 18.355469 L -4.835611 18.914062 L -4.87858 19.414062 L -4.925455 19.863281 L -4.968424 20.257812 L -5.00358 20.609375 L -5.019205 20.910156 L -5.007486 21.171875 L -4.964518 21.398438 L -4.87858 21.589844 L -4.75358 21.75 L -4.593424 21.882812 L -4.398111 21.996094 L -4.179361 22.082031 L -3.948893 22.15625 L -3.726236 22.210938 L -3.523111 22.253906 L -3.355143 22.28125 L -3.234049 22.300781 L -3.171549 22.3125 L -3.163736 22.3125 L -3.105143 22.320312 L -2.69108 22.402344 L -2.073893 22.597656 L -1.527018 22.933594 L -1.206705 23.386719 L -1.058268 23.890625 L -0.905924 24.371094 L -0.589518 24.804688 L -0.0699863 25.183594 L 0.562826 25.484375 L 1.180014 25.671875 L 1.680014 25.71875 L 2.015951 25.664062 L 2.180014 25.601562 L 2.199545 25.589844 L 2.203451 25.589844 L 2.226889 25.578125 L 2.269857 25.550781 L 2.332357 25.511719 L 2.410482 25.449219 L 2.508139 25.363281 L 2.617514 25.253906 L 2.738607 25.113281 L 2.867514 24.941406 L 3.004232 24.742188 L 3.148764 24.511719 L 3.293295 24.253906 L 3.445639 23.976562 L 3.594076 23.675781 L 3.742514 23.355469 L 3.890951 23.019531 L 4.031576 22.667969 L 4.172201 22.296875 L 4.30892 21.90625 L 4.437826 21.488281 L 4.566732 21.042969 L 4.687826 20.5625 L 4.80892 20.035156 L 4.922201 19.464844 L 5.02767 18.839844 L 5.129232 18.15625 L 5.222982 17.414062 L 5.30892 16.609375 L 5.379232 15.742188 L 5.441732 14.804688 L 5.492514 13.808594 L 5.52767 12.75 L 5.547201 11.632812 L 5.555014 10.460938 L 5.551107 9.238281 L 5.531576 7.972656 L 5.504232 6.667969 L 5.472982 5.332031 L 5.43392 3.96875 L 5.394857 2.589844 L 5.359701 1.203125 L 5.324545 -0.191406 L 5.297201 -1.578125 L 5.273764 -2.949219 L 5.254232 -4.304688 L 5.234701 -5.632812 L 5.21517 -6.925781 L 5.195639 -8.183594 L 5.172201 -9.394531 L 5.144857 -10.554688 L 5.117514 -11.664062 L 5.086264 -12.714844 L 5.05892 -13.710938 L 5.035482 -14.640625 L 5.015951 -15.507812 L 5.004232 -16.3125 L 5.000326 -17.054688 L 5.000326 -17.734375 L 5.008139 -18.355469 L 5.012045 -18.914062 L 5.019857 -19.414062 L 5.019857 -19.863281 L 5.015951 -20.257812 L 5.000326 -20.609375 L 4.980795 -20.910156 L 4.957357 -21.171875 L 4.926107 -21.398438 L 4.898764 -21.589844 L 4.875326 -21.75 L 4.859701 -21.882812 L 4.855795 -21.996094 L 4.855795 -22.082031 L 4.867514 -22.15625 L 4.887045 -22.210938 L 4.910482 -22.253906 L 4.930014 -22.28125 L 4.949545 -22.300781 L 4.957357 -22.3125 L 4.969076 -22.324219 L 5.074545 -22.398438 L 5.316732 -22.542969 L 5.605795 -22.761719 L 5.637045 -23.113281 L 5.113607 -23.613281 L 4.000326 -24.183594 L 2.55892 -24.675781 L 1.140951 -24.984375 L -0.0348301 -25.101562 L -0.929361 -25.113281 L -1.56608 -25.09375 L -1.976236 -25.082031 L -2.198893 -25.082031 " transform="matrix(1,0,0,1,95.40983,29)"/>
<path style="fill-rule:evenodd;fill:rgb(100%,100%,100%);fill-opacity:1;stroke-width:1;stroke-linecap:butt;stroke-linejoin:bevel;stroke:rgb(50.048876%,50.048876%,50.048876%);stroke-opacity:1;stroke-miterlimit:10;" d="M -2.199545 -5.027344 L -2.226889 -5.007812 L -2.410482 -4.855469 L -2.742514 -4.5 L -3.144857 -3.933594 L -3.539389 -3.246094 L -3.890951 -2.5625 L -4.226889 -1.921875 L -4.562826 -1.277344 L -4.87142 -0.5625 L -5.070639 0.214844 L -5.094076 0.964844 L -4.96517 1.570312 L -4.781576 1.976562 L -4.65267 2.175781 L -4.633139 2.199219 L -4.617514 2.222656 L -4.49642 2.375 L -4.238607 2.65625 L -3.84017 3.007812 L -3.297201 3.394531 L -2.637045 3.769531 L -1.879232 4.113281 L -1.070639 4.398438 L -0.254232 4.609375 L 0.511393 4.734375 L 1.171549 4.789062 L 1.679361 4.789062 L 2.015299 4.769531 L 2.179361 4.753906 L 2.198893 4.75 L 2.22233 4.75 L 2.386393 4.710938 L 2.726236 4.574219 L 3.210611 4.25 L 3.741861 3.703125 L 4.198893 2.957031 L 4.507486 2.082031 L 4.667643 1.171875 L 4.745768 0.292969 L 4.780924 -0.5 L 4.765299 -1.171875 L 4.679361 -1.679688 L 4.546549 -2.015625 L 4.444986 -2.179688 L 4.433268 -2.199219 L 4.413736 -2.226562 L 4.249674 -2.410156 L 3.851236 -2.75 L 3.226236 -3.179688 L 2.515299 -3.648438 L 1.902018 -4.105469 L 1.437174 -4.527344 L 0.995768 -4.894531 L 0.437174 -5.183594 L -0.254232 -5.367188 L -0.969076 -5.410156 L -1.570639 -5.320312 L -1.976889 -5.164062 L -2.176107 -5.042969 L -2.199545 -5.027344 " transform="matrix(1,0,0,1,141.59017,229)"/>
<path style="fill-rule:evenodd;fill:rgb(100%,100%,100%);fill-opacity:1;stroke-width:1;stroke-linecap:butt;stroke-linejoin:bevel;stroke:rgb(50.048876%,50.048876%,50.048876%);stroke-opacity:1;stroke-miterlimit:10;" d="M -7.019857 -9.058594 L -7.055014 -9.058594 L -7.332357 -9.054688 L -7.824545 -9.046875 L -8.441732 -9.023438 L -9.070639 -8.917969 L -9.605795 -8.632812 L -9.988607 -8.054688 L -10.211264 -7.09375 L -10.301107 -5.734375 L -10.297201 -4.015625 L -10.24642 -2.050781 L -10.168295 0.00390625 L -10.070639 1.976562 L -9.922201 3.703125 L -9.703451 5.082031 L -9.422201 6.070312 L -9.144857 6.691406 L -8.969076 6.984375 L -8.945639 7.019531 L -8.926107 7.050781 L -8.488607 7.707031 L -8.117514 8.226562 L -7.672201 8.753906 L -7.113607 9.21875 L -6.37142 9.59375 L -5.363607 9.890625 L -4.055014 10.144531 L -2.472982 10.378906 L -0.711264 10.578125 L 1.089518 10.710938 L 2.777018 10.742188 L 4.234049 10.675781 L 5.386393 10.546875 L 6.214518 10.414062 L 6.737955 10.308594 L 6.987955 10.253906 L 7.050455 10.238281 L 7.280924 10.175781 L 7.687174 10.015625 L 8.171549 9.699219 L 8.648111 9.167969 L 9.050455 8.386719 L 9.34733 7.328125 L 9.519205 5.992188 L 9.577799 4.414062 L 9.538736 2.644531 L 9.44108 0.78125 L 9.339518 -1.066406 L 9.277018 -2.773438 L 9.280924 -4.234375 L 9.351236 -5.386719 L 9.456705 -6.214844 L 9.558268 -6.738281 L 9.616861 -6.988281 L 9.624674 -7.019531 L 9.636393 -7.054688 L 9.714518 -7.332031 L 9.870768 -7.824219 L 10.062174 -8.4375 L 10.152018 -9.050781 L 9.94108 -9.550781 L 9.261393 -9.875 L 8.054361 -10.011719 L 6.37858 -9.996094 L 4.374674 -9.882812 L 2.214518 -9.726562 L 0.0504551 -9.558594 L -1.961264 -9.398438 L -3.699545 -9.261719 L -5.082357 -9.160156 L -6.070639 -9.097656 L -6.691732 -9.070312 L -6.984701 -9.058594 L -7.019857 -9.058594 " transform="matrix(1,0,0,1,146.59017,194)"/>
<path style="fill-rule:evenodd;fill:rgb(100%,100%,100%);fill-opacity:1;stroke-width:1;stroke-linecap:butt;stroke-linejoin:bevel;stroke:rgb(50.048876%,50.048876%,50.048876%);stroke-opacity:1;stroke-miterlimit:10;" d="M -11.777018 -15 L -11.827799 -15.003906 L -12.210611 -15.019531 L -12.859049 -14.976562 L -13.593424 -14.75 L -14.230143 -14.203125 L -14.663736 -13.226562 L -14.870768 -11.742188 L -14.886393 -9.734375 L -14.788736 -7.242188 L -14.648111 -4.367188 L -14.527018 -1.28125 L -14.460611 1.800781 L -14.464518 4.652344 L -14.523111 7.101562 L -14.609049 9.035156 L -14.687174 10.425781 L -14.745768 11.304688 L -14.777018 11.722656 L -14.777018 11.777344 L -14.780924 11.828125 L -14.792643 12.210938 L -14.749674 12.871094 L -14.53483 13.617188 L -14.011393 14.273438 L -13.073893 14.722656 L -11.632486 14.9375 L -9.663736 14.980469 L -7.198893 14.949219 L -4.34733 14.910156 L -1.273111 14.898438 L 1.801107 14.890625 L 4.656576 14.855469 L 7.101889 14.773438 L 9.035482 14.65625 L 10.426107 14.527344 L 11.305014 14.421875 L 11.722982 14.367188 L 11.77767 14.359375 L 11.828451 14.351562 L 12.21517 14.285156 L 12.875326 14.132812 L 13.640951 13.832031 L 14.34017 13.304688 L 14.855795 12.441406 L 15.15267 11.144531 L 15.258139 9.335938 L 15.226889 7.011719 L 15.12142 4.253906 L 14.976889 1.234375 L 14.832357 -1.8125 L 14.726889 -4.65625 L 14.680014 -7.101562 L 14.711264 -9.035156 L 14.797201 -10.425781 L 14.898764 -11.304688 L 14.969076 -11.722656 L 14.976889 -11.777344 L 14.988607 -11.835938 L 15.086264 -12.296875 L 15.301107 -13.121094 L 15.582357 -14.136719 L 15.750326 -15.121094 L 15.504232 -15.878906 L 14.566732 -16.28125 L 12.805014 -16.332031 L 10.254232 -16.117188 L 7.101889 -15.773438 L 3.609701 -15.410156 L 0.0511074 -15.117188 L -3.300455 -14.929688 L -6.210611 -14.851562 L -8.523111 -14.855469 L -10.183268 -14.90625 L -11.22233 -14.960938 L -11.714518 -14.996094 L -11.777018 -15 " transform="matrix(1,0,0,1,105.40983,169)"/>
<path style="fill-rule:evenodd;fill:rgb(100%,100%,100%);fill-opacity:1;stroke-width:1;stroke-linecap:butt;stroke-linejoin:bevel;stroke:rgb(50.048876%,50.048876%,50.048876%);stroke-opacity:1;stroke-miterlimit:10;" d="M -32.202146 -14.742188 L -32.221678 -14.738281 L -32.362303 -14.699219 L -32.608396 -14.597656 L -32.909178 -14.394531 L -33.217771 -14.03125 L -33.526365 -13.429688 L -33.827146 -12.480469 L -34.112303 -11.046875 L -34.362303 -9.023438 L -34.534178 -6.394531 L -34.612303 -3.28125 L -34.60449 0.0664062 L -34.549803 3.332031 L -34.491209 6.214844 L -34.44824 8.523438 L -34.432615 10.183594 L -34.424803 11.222656 L -34.424803 12.117188 L -34.420896 12.429688 L -34.420896 12.820312 L -34.409178 13.273438 L -34.389646 13.753906 L -34.35449 14.246094 L -34.288084 14.71875 L -34.182615 15.144531 L -34.026365 15.507812 L -33.807615 15.796875 L -33.518553 16.007812 L -33.143553 16.140625 L -32.670896 16.210938 L -32.096678 16.226562 L -31.401365 16.203125 L -30.57324 16.152344 L -29.60449 16.082031 L -28.475584 15.996094 L -27.178709 15.90625 L -25.69824 15.808594 L -24.038084 15.707031 L -22.190428 15.601562 L -20.159178 15.496094 L -17.956053 15.386719 L -15.592771 15.285156 L -13.088865 15.183594 L -10.463865 15.09375 L -7.749021 15.011719 L -4.967771 14.9375 L -2.151365 14.875 L 0.665041 14.824219 L 3.461916 14.785156 L 6.204104 14.761719 L 8.86426 14.753906 L 11.422854 14.761719 L 13.852541 14.785156 L 16.141604 14.820312 L 18.274416 14.867188 L 20.23926 14.921875 L 22.028322 14.980469 L 23.64551 15.042969 L 25.086916 15.105469 L 26.360354 15.167969 L 27.465822 15.230469 L 28.422854 15.289062 L 29.231447 15.339844 L 29.915041 15.382812 L 30.477541 15.410156 L 30.934572 15.429688 L 31.30176 15.429688 L 31.590822 15.421875 L 31.813479 15.402344 L 31.977541 15.378906 L 32.090822 15.355469 L 32.165041 15.335938 L 32.200197 15.328125 L 32.204104 15.324219 L 32.219729 15.320312 L 32.348635 15.269531 L 32.598635 15.121094 L 32.950197 14.78125 L 33.360354 14.152344 L 33.782229 13.132812 L 34.149416 11.644531 L 34.418947 9.65625 L 34.563479 7.191406 L 34.594729 4.339844 L 34.543947 1.269531 L 34.469729 -1.804688 L 34.454104 -4.65625 L 34.563479 -7.101562 L 34.821291 -9.035156 L 35.17676 -10.425781 L 35.524416 -11.304688 L 35.743166 -11.722656 L 35.77051 -11.777344 L 35.778322 -11.789062 L 35.844729 -11.902344 L 35.985354 -12.117188 L 36.204104 -12.429688 L 36.508791 -12.820312 L 36.883791 -13.261719 L 37.313479 -13.734375 L 37.743166 -14.199219 L 38.122072 -14.628906 L 38.383791 -15 L 38.473635 -15.289062 L 38.344729 -15.488281 L 37.973635 -15.601562 L 37.356447 -15.636719 L 36.504885 -15.609375 L 35.454104 -15.546875 L 34.231447 -15.464844 L 32.872072 -15.386719 L 31.399416 -15.320312 L 29.825197 -15.277344 L 28.153322 -15.253906 L 26.379885 -15.253906 L 24.493166 -15.269531 L 22.481447 -15.296875 L 20.340822 -15.328125 L 18.063479 -15.359375 L 15.653322 -15.386719 L 13.122072 -15.40625 L 10.481447 -15.417969 L 7.758791 -15.421875 L 4.973635 -15.417969 L 2.157229 -15.414062 L -0.663084 -15.40625 L -3.459959 -15.402344 L -6.202146 -15.402344 L -8.862303 -15.40625 L -11.420896 -15.410156 L -13.850584 -15.417969 L -16.139646 -15.417969 L -18.272459 -15.410156 L -20.237303 -15.386719 L -22.026365 -15.347656 L -23.643553 -15.292969 L -25.084959 -15.226562 L -26.358396 -15.15625 L -27.463865 -15.082031 L -28.420896 -15.011719 L -29.22949 -14.953125 L -29.913084 -14.90625 L -30.475584 -14.871094 L -30.932615 -14.847656 L -31.299803 -14.828125 L -31.588865 -14.8125 L -31.811521 -14.792969 L -31.975584 -14.777344 L -32.088865 -14.761719 L -32.163084 -14.75 L -32.19824 -14.742188 L -32.202146 -14.742188 " transform="matrix(1,0,0,1,39.22949,124)"/>
<path style="fill-rule:evenodd;fill:rgb(100%,100%,100%);fill-opacity:1;stroke-width:1;stroke-linecap:butt;stroke-linejoin:bevel;stroke:rgb(50.048876%,50.048876%,50.048876%);stroke-opacity:1;stroke-miterlimit:10;" d="M -12.230795 -10.867188 L -12.242514 -10.886719 L -12.351889 -11.015625 L -12.55892 -11.140625 L -12.847982 -11.058594 L -13.211264 -10.597656 L -13.62142 -9.683594 L -14.047201 -8.347656 L -14.453451 -6.6875 L -14.793295 -4.816406 L -15.055014 -2.84375 L -15.234701 -0.859375 L -15.359701 1.042969 L -15.457357 2.765625 L -15.531576 4.234375 L -15.578451 5.386719 L -15.597982 6.214844 L -15.59017 6.738281 L -15.582357 6.988281 L -15.578451 7.019531 L -15.578451 7.035156 L -15.570639 7.144531 L -15.551107 7.351562 L -15.515951 7.640625 L -15.445639 7.992188 L -15.328451 8.367188 L -15.15267 8.734375 L -14.906576 9.0625 L -14.578451 9.324219 L -14.160482 9.503906 L -13.648764 9.605469 L -13.047201 9.640625 L -12.344076 9.632812 L -11.531576 9.613281 L -10.609701 9.597656 L -9.55892 9.605469 L -8.379232 9.648438 L -7.074545 9.71875 L -5.644857 9.8125 L -4.117514 9.910156 L -2.519857 10.007812 L -0.879232 10.085938 L 0.761393 10.144531 L 2.362955 10.175781 L 3.890299 10.183594 L 5.31608 10.175781 L 6.612955 10.152344 L 7.765299 10.125 L 8.769205 10.089844 L 9.616861 10.058594 L 10.31608 10.035156 L 10.882486 10.027344 L 11.323893 10.035156 L 11.655924 10.0625 L 11.902018 10.101562 L 12.069986 10.148438 L 12.171549 10.1875 L 12.22233 10.210938 L 12.230143 10.214844 L 12.241861 10.21875 L 12.355143 10.257812 L 12.601236 10.246094 L 12.984049 10.074219 L 13.484049 9.621094 L 14.042643 8.828125 L 14.577799 7.691406 L 15.015299 6.246094 L 15.312174 4.566406 L 15.464518 2.722656 L 15.495768 0.808594 L 15.421549 -1.058594 L 15.280924 -2.769531 L 15.101236 -4.234375 L 14.913736 -5.386719 L 14.75358 -6.214844 L 14.640299 -6.738281 L 14.581705 -6.988281 L 14.542643 -7.144531 L 14.491861 -7.351562 L 14.413736 -7.644531 L 14.308268 -8 L 14.175455 -8.390625 L 14.007486 -8.789062 L 13.804361 -9.167969 L 13.558268 -9.5 L 13.25358 -9.773438 L 12.87858 -9.980469 L 12.421549 -10.117188 L 11.862955 -10.195312 L 11.183268 -10.230469 L 10.366861 -10.238281 L 9.402018 -10.230469 L 8.28483 -10.222656 L 7.019205 -10.214844 L 5.616861 -10.203125 L 4.105143 -10.183594 L 2.511393 -10.148438 L 0.874674 -10.089844 L -0.762045 -10.011719 L -2.363607 -9.910156 L -3.890951 -9.800781 L -5.316732 -9.695312 L -6.613607 -9.617188 L -7.765951 -9.574219 L -8.769857 -9.578125 L -9.617514 -9.636719 L -10.316732 -9.746094 L -10.883139 -9.898438 L -11.324545 -10.082031 L -11.656576 -10.285156 L -11.90267 -10.484375 L -12.070639 -10.65625 L -12.172201 -10.789062 L -12.222982 -10.859375 L -12.230795 -10.867188 " transform="matrix(1,0,0,1,151.59017,214)"/>
<path style="fill-rule:evenodd;fill:rgb(100%,100%,100%);fill-opacity:1;stroke-width:1;stroke-linecap:butt;stroke-linejoin:bevel;stroke:rgb(50.048876%,50.048876%,50.048876%);stroke-opacity:1;stroke-miterlimit:10;" d="M -17.297854 -4.816406 L -17.313479 -4.8125 L -17.403322 -4.796875 L -17.567385 -4.753906 L -17.790041 -4.621094 L -18.098635 -4.300781 L -18.48926 -3.714844 L -18.907229 -2.871094 L -19.266604 -1.867188 L -19.497072 -0.828125 L -19.618166 0.132812 L -19.688479 0.949219 L -19.758791 1.570312 L -19.836916 1.976562 L -19.887697 2.175781 L -19.891604 2.199219 L -19.89551 2.203125 L -19.899416 2.230469 L -19.911135 2.289062 L -19.915041 2.375 L -19.907229 2.488281 L -19.872072 2.632812 L -19.80176 2.800781 L -19.688479 2.992188 L -19.524416 3.203125 L -19.317385 3.421875 L -19.059572 3.648438 L -18.758791 3.878906 L -18.418947 4.101562 L -18.040041 4.3125 L -17.629885 4.507812 L -17.184572 4.683594 L -16.704104 4.832031 L -16.180666 4.957031 L -15.61426 5.050781 L -14.98926 5.113281 L -14.309572 5.144531 L -13.559572 5.148438 L -12.743166 5.128906 L -11.852541 5.09375 L -10.891604 5.046875 L -9.856447 4.992188 L -8.750979 4.9375 L -7.586916 4.882812 L -6.36426 4.832031 L -5.094729 4.785156 L -3.790041 4.742188 L -2.45801 4.707031 L -1.110354 4.679688 L 0.241209 4.660156 L 1.584959 4.652344 L 2.909178 4.65625 L 4.206053 4.667969 L 5.459959 4.683594 L 6.66699 4.707031 L 7.819334 4.726562 L 8.909178 4.742188 L 9.928709 4.75 L 12.54199 4.75 L 13.264646 4.761719 L 13.909178 4.78125 L 14.47949 4.820312 L 14.983396 4.878906 L 15.420896 4.953125 L 15.795896 5.046875 L 16.112303 5.148438 L 16.381834 5.253906 L 16.60449 5.359375 L 16.784178 5.464844 L 16.932615 5.558594 L 17.045896 5.640625 L 17.13574 5.710938 L 17.202146 5.769531 L 17.249021 5.8125 L 17.311521 5.875 L 17.401365 5.972656 L 17.569334 6.140625 L 17.811521 6.21875 L 18.174803 5.960938 L 18.678709 5.183594 L 19.256834 3.933594 L 19.768553 2.472656 L 20.088865 1.089844 L 20.190428 -0.0546875 L 20.139646 -0.933594 L 20.038084 -1.566406 L 19.952146 -1.976562 L 19.909178 -2.175781 L 19.901365 -2.199219 L 19.901365 -2.203125 L 19.893553 -2.234375 L 19.881834 -2.292969 L 19.862303 -2.378906 L 19.834959 -2.488281 L 19.799803 -2.621094 L 19.752928 -2.777344 L 19.690428 -2.949219 L 19.60449 -3.132812 L 19.491209 -3.332031 L 19.342771 -3.539062 L 19.159178 -3.746094 L 18.932615 -3.957031 L 18.66699 -4.160156 L 18.358396 -4.355469 L 18.002928 -4.535156 L 17.60449 -4.699219 L 17.159178 -4.839844 L 16.663084 -4.960938 L 16.112303 -5.058594 L 15.502928 -5.136719 L 14.82324 -5.191406 L 14.07324 -5.226562 L 13.245115 -5.246094 L 12.338865 -5.253906 L 11.346678 -5.257812 L 10.276365 -5.261719 L 9.131834 -5.265625 L 7.91699 -5.269531 L 6.63574 -5.28125 L 5.307615 -5.296875 L 3.936521 -5.308594 L 2.538084 -5.320312 L 1.124021 -5.328125 L -0.290041 -5.328125 L -1.696291 -5.316406 L -3.079104 -5.296875 L -4.42676 -5.265625 L -5.723635 -5.226562 L -6.969729 -5.179688 L -8.149416 -5.128906 L -9.258791 -5.070312 L -10.290041 -5.011719 L -11.243166 -4.957031 L -12.11426 -4.90625 L -12.903322 -4.867188 L -13.606447 -4.835938 L -14.235354 -4.816406 L -14.786135 -4.8125 L -15.262697 -4.816406 L -15.672854 -4.824219 L -16.02051 -4.835938 L -16.313479 -4.84375 L -16.55176 -4.851562 L -16.750979 -4.851562 L -16.907229 -4.847656 L -17.032229 -4.84375 L -17.129885 -4.835938 L -17.200197 -4.828125 L -17.250979 -4.820312 L -17.282229 -4.816406 L -17.297854 -4.816406 " transform="matrix(1,0,0,1,192.77051,159)"/>
<path style="fill-rule:evenodd;fill:rgb(100%,100%,100%);fill-opacity:1;stroke-width:1;stroke-linecap:butt;stroke-linejoin:bevel;stroke:rgb(50.048876%,50.048876%,50.048876%);stroke-opacity:1;stroke-miterlimit:10;" d="M -7.019857 -14.714844 L -7.035482 -14.703125 L -7.133139 -14.628906 L -7.312826 -14.480469 L -7.55892 -14.277344 L -7.84017 -14.027344 L -8.129232 -13.742188 L -8.40267 -13.4375 L -8.644857 -13.105469 L -8.855795 -12.746094 L -9.02767 -12.347656 L -9.160482 -11.886719 L -9.262045 -11.339844 L -9.336264 -10.691406 L -9.387045 -9.921875 L -9.430014 -9.015625 L -9.469076 -7.96875 L -9.515951 -6.789062 L -9.578451 -5.484375 L -9.65267 -4.078125 L -9.738607 -2.59375 L -9.832357 -1.066406 L -9.918295 0.46875 L -9.992514 1.984375 L -10.047201 3.445312 L -10.074545 4.824219 L -10.09017 6.097656 L -10.09017 8.269531 L -10.105795 9.15625 L -10.133139 9.902344 L -10.18392 10.519531 L -10.254232 11.019531 L -10.332357 11.414062 L -10.410482 11.710938 L -10.476889 11.929688 L -10.52767 12.082031 L -10.562826 12.179688 L -10.582357 12.222656 L -10.582357 12.230469 L -10.59017 12.246094 L -10.637045 12.367188 L -10.707357 12.582031 L -10.738607 12.859375 L -10.609701 13.183594 L -10.172201 13.550781 L -9.316732 13.953125 L -8.008139 14.347656 L -6.305014 14.679688 L -4.316732 14.890625 L -2.18392 14.964844 L -0.0393887 14.941406 L 1.964518 14.894531 L 3.702799 14.898438 L 5.081705 15 L 6.069986 15.1875 L 6.69108 15.394531 L 6.984049 15.53125 L 7.019205 15.550781 L 7.03483 15.558594 L 7.144205 15.617188 L 7.351236 15.746094 L 7.640299 15.945312 L 7.991861 16.210938 L 8.370768 16.5 L 8.749674 16.753906 L 9.09733 16.886719 L 9.398111 16.828125 L 9.636393 16.523438 L 9.81608 15.953125 L 9.94108 15.132812 L 10.019205 14.109375 L 10.062174 12.929688 L 10.081705 11.640625 L 10.085611 10.269531 L 10.069986 8.835938 L 10.046549 7.347656 L 10.015299 5.796875 L 9.97233 4.195312 L 9.921549 2.554688 L 9.866861 0.894531 L 9.812174 -0.753906 L 9.769205 -2.359375 L 9.737955 -3.890625 L 9.730143 -5.316406 L 9.75358 -6.613281 L 9.812174 -7.765625 L 9.90983 -8.769531 L 10.038736 -9.617188 L 10.194986 -10.316406 L 10.359049 -10.882812 L 10.515299 -11.324219 L 10.644205 -11.65625 L 10.741861 -11.902344 L 10.804361 -12.070312 L 10.839518 -12.171875 L 10.855143 -12.222656 L 10.855143 -12.230469 L 10.859049 -12.246094 L 10.886393 -12.367188 L 10.898111 -12.582031 L 10.81608 -12.859375 L 10.538736 -13.179688 L 9.964518 -13.546875 L 9.038736 -13.945312 L 7.737955 -14.347656 L 6.09733 -14.722656 L 4.19108 -15.054688 L 2.120768 -15.339844 L 0.0152988 -15.5625 L -1.972982 -15.699219 L -3.703451 -15.699219 L -5.082357 -15.539062 L -6.070639 -15.25 L -6.691732 -14.941406 L -6.984701 -14.742188 L -7.019857 -14.714844 " transform="matrix(1,0,0,1,126.59017,104)"/>
</g>
</svg>
